<?xml version="1.0" encoding="UTF-8"?>
<svg id="Solid" xmlns="http://www.w3.org/2000/svg" viewBox="0 0 637 216.23">
  <defs>
    <style>
      .cls-1 {
        fill: #c92027;
      }

      .cls-2 {
        fill: #231f20;
      }

      .cls-3 {
        fill: #6dbae7;
        opacity: .31;
      }

      .cls-4, .cls-5 {
        fill: #fff;
      }

      .cls-6 {
        fill: #437898;
        opacity: .51;
      }

      .cls-7 {
        stroke: #9b9a9a;
      }

      .cls-7, .cls-8, .cls-9, .cls-10, .cls-11 {
        fill: none;
      }

      .cls-7, .cls-9, .cls-10, .cls-11 {
        stroke-miterlimit: 10;
        stroke-width: 2.83px;
      }

      .cls-12 {
        fill: #9b9a9a;
      }

      .cls-9, .cls-10, .cls-11 {
        stroke: #437898;
      }

      .cls-10 {
        stroke-dasharray: 5.6;
      }

      .cls-13 {
        fill: #39b54a;
      }

      .cls-11 {
        stroke-dasharray: 5.67;
      }

      .cls-5 {
        opacity: .71;
      }
    </style>
  </defs>
  <g>
    <g>
      <line class="cls-7" x1="333" y1="73.5" x2="440.66" y2="73.5"/>
      <polygon class="cls-12" points="436.52 87.63 461 73.5 436.52 59.37 436.52 87.63"/>
    </g>
    <g>
      <rect class="cls-8" x="337.04" y="64.57" width="94.96" height="17.93"/>
      <path class="cls-2" d="M353.39,70c.35.21.86.4,1.4.4.8,0,1.27-.42,1.27-1.04,0-.57-.32-.89-1.14-1.21-.99-.35-1.6-.87-1.6-1.72,0-.95.78-1.65,1.96-1.65.62,0,1.07.14,1.34.3l-.22.64c-.2-.11-.6-.29-1.15-.29-.83,0-1.14.49-1.14.91,0,.57.37.85,1.21,1.17,1.03.4,1.55.89,1.55,1.78,0,.94-.69,1.75-2.12,1.75-.58,0-1.22-.17-1.55-.39l.2-.66Z"/>
      <path class="cls-2" d="M357.91,68.02c0-.56-.02-1.01-.04-1.42h.71l.04.75h.02c.32-.53.84-.85,1.55-.85,1.05,0,1.85.89,1.85,2.21,0,1.57-.95,2.34-1.98,2.34-.58,0-1.08-.25-1.34-.68h-.02v2.37h-.78v-4.72ZM358.69,69.18c0,.12.02.23.04.32.14.55.62.93,1.19.93.84,0,1.32-.68,1.32-1.68,0-.87-.46-1.62-1.3-1.62-.54,0-1.04.39-1.2.98-.03.1-.05.21-.05.32v.75Z"/>
      <path class="cls-2" d="M363.03,64.56h.79v6.39h-.79v-6.39Z"/>
      <path class="cls-2" d="M366.04,65.37c0,.27-.19.49-.5.49-.28,0-.48-.21-.48-.49s.21-.5.5-.5.49.22.49.5ZM365.15,70.96v-4.36h.79v4.36h-.79Z"/>
      <path class="cls-2" d="M368.21,65.35v1.25h1.13v.6h-1.13v2.35c0,.54.15.85.59.85.21,0,.36-.03.46-.05l.04.59c-.15.06-.4.11-.7.11-.37,0-.67-.12-.86-.33-.23-.23-.31-.62-.31-1.13v-2.38h-.67v-.6h.67v-1.04l.77-.21Z"/>
      <path class="cls-2" d="M373.03,65.37c0,.27-.19.49-.5.49-.28,0-.48-.21-.48-.49s.21-.5.5-.5.49.22.49.5ZM372.15,70.96v-4.36h.79v4.36h-.79Z"/>
      <path class="cls-2" d="M374.25,67.78c0-.45,0-.82-.04-1.18h.7l.04.72h.02c.22-.41.72-.82,1.44-.82.6,0,1.54.36,1.54,1.85v2.6h-.79v-2.51c0-.7-.26-1.29-1.01-1.29-.52,0-.93.37-1.06.81-.04.1-.05.23-.05.37v2.62h-.79v-3.18Z"/>
      <path class="cls-2" d="M380.17,65.35v1.25h1.13v.6h-1.13v2.35c0,.54.15.85.59.85.21,0,.36-.03.46-.05l.04.59c-.15.06-.4.11-.7.11-.37,0-.67-.12-.86-.33-.23-.23-.31-.62-.31-1.13v-2.38h-.67v-.6h.67v-1.04l.77-.21Z"/>
      <path class="cls-2" d="M386.08,68.74c0,1.61-1.12,2.31-2.17,2.31-1.18,0-2.09-.86-2.09-2.24,0-1.46.96-2.31,2.16-2.31s2.1.91,2.1,2.24ZM382.62,68.79c0,.95.55,1.67,1.32,1.67s1.32-.71,1.32-1.69c0-.74-.37-1.67-1.31-1.67s-1.34.86-1.34,1.69Z"/>
      <path class="cls-2" d="M388.73,70.96v-.49l.62-.6c1.49-1.42,2.17-2.18,2.18-3.06,0-.59-.29-1.14-1.16-1.14-.53,0-.97.27-1.24.5l-.25-.56c.41-.34.98-.59,1.66-.59,1.26,0,1.79.86,1.79,1.7,0,1.08-.78,1.95-2.02,3.14l-.47.43v.02h2.63v.66h-3.74Z"/>
      <path class="cls-2" d="M395.4,70.15c.23.15.65.32,1.04.32.58,0,.85-.29.85-.65,0-.38-.22-.59-.81-.8-.78-.28-1.15-.71-1.15-1.23,0-.7.57-1.28,1.5-1.28.44,0,.83.13,1.07.27l-.2.58c-.17-.11-.49-.25-.89-.25-.47,0-.73.27-.73.59,0,.36.26.52.83.74.76.29,1.14.67,1.14,1.31,0,.77-.59,1.3-1.63,1.3-.48,0-.92-.12-1.22-.3l.2-.6Z"/>
      <path class="cls-2" d="M403.02,68.74c0,1.61-1.12,2.31-2.17,2.31-1.18,0-2.09-.86-2.09-2.24,0-1.46.96-2.31,2.16-2.31s2.1.91,2.1,2.24ZM399.56,68.79c0,.95.55,1.67,1.32,1.67s1.32-.71,1.32-1.69c0-.74-.37-1.67-1.31-1.67s-1.34.86-1.34,1.69Z"/>
      <path class="cls-2" d="M404.02,64.56h.79v6.39h-.79v-6.39Z"/>
      <path class="cls-2" d="M407.02,65.37c0,.27-.19.49-.5.49-.28,0-.48-.21-.48-.49s.21-.5.5-.5.49.22.49.5ZM406.14,70.96v-4.36h.79v4.36h-.79Z"/>
      <path class="cls-2" d="M412.01,64.56v5.27c0,.39,0,.83.04,1.12h-.71l-.04-.76h-.02c-.24.49-.77.86-1.49.86-1.05,0-1.86-.89-1.86-2.21,0-1.45.89-2.34,1.95-2.34.67,0,1.12.32,1.31.67h.02v-2.6h.79ZM411.22,68.37c0-.1,0-.23-.04-.33-.12-.5-.55-.92-1.14-.92-.82,0-1.3.72-1.3,1.68,0,.88.43,1.61,1.29,1.61.53,0,1.02-.35,1.16-.95.03-.11.04-.22.04-.34v-.76Z"/>
      <path class="cls-2" d="M413.21,70.15c.23.15.65.32,1.04.32.58,0,.85-.29.85-.65,0-.38-.22-.59-.81-.8-.78-.28-1.15-.71-1.15-1.23,0-.7.57-1.28,1.5-1.28.44,0,.83.13,1.07.27l-.2.58c-.17-.11-.49-.25-.89-.25-.47,0-.73.27-.73.59,0,.36.26.52.83.74.76.29,1.14.67,1.14,1.31,0,.77-.59,1.3-1.63,1.3-.48,0-.92-.12-1.22-.3l.2-.6Z"/>
    </g>
  </g>
  <g>
    <g>
      <line class="cls-7" x1="333" y1="147.5" x2="440.66" y2="147.5"/>
      <polygon class="cls-12" points="436.52 161.63 461 147.5 436.52 133.37 436.52 161.63"/>
    </g>
    <g>
      <rect class="cls-8" x="337.04" y="138.57" width="94.96" height="17.93"/>
      <path class="cls-2" d="M352.56,144.15c.23.15.65.32,1.04.32.58,0,.85-.29.85-.65,0-.38-.22-.59-.81-.8-.78-.28-1.15-.71-1.15-1.23,0-.7.57-1.28,1.5-1.28.44,0,.83.13,1.07.27l-.2.58c-.17-.11-.49-.25-.89-.25-.47,0-.73.27-.73.59,0,.36.26.52.83.74.76.29,1.14.67,1.14,1.31,0,.77-.59,1.3-1.63,1.3-.48,0-.92-.12-1.22-.3l.2-.6Z"/>
      <path class="cls-2" d="M356.23,142.02c0-.56-.02-1.01-.04-1.42h.71l.04.75h.02c.32-.53.84-.85,1.55-.85,1.05,0,1.85.89,1.85,2.21,0,1.57-.95,2.34-1.98,2.34-.58,0-1.08-.25-1.34-.68h-.02v2.37h-.78v-4.72ZM357.01,143.18c0,.12.02.23.04.32.14.55.62.93,1.19.93.84,0,1.32-.68,1.32-1.68,0-.87-.46-1.62-1.3-1.62-.54,0-1.04.39-1.2.98-.03.1-.05.21-.05.32v.75Z"/>
      <path class="cls-2" d="M361.35,138.56h.79v6.39h-.79v-6.39Z"/>
      <path class="cls-2" d="M364.36,139.37c0,.27-.19.49-.5.49-.28,0-.48-.21-.48-.49s.21-.5.5-.5.49.22.49.5ZM363.48,144.96v-4.36h.79v4.36h-.79Z"/>
      <path class="cls-2" d="M366.54,139.35v1.25h1.13v.6h-1.13v2.35c0,.54.15.85.59.85.21,0,.36-.03.46-.05l.04.59c-.15.06-.4.11-.7.11-.37,0-.67-.12-.86-.33-.23-.23-.31-.62-.31-1.13v-2.38h-.67v-.6h.67v-1.04l.77-.21Z"/>
      <path class="cls-2" d="M371.35,139.37c0,.27-.19.49-.5.49-.28,0-.48-.21-.48-.49s.21-.5.5-.5.49.22.49.5ZM370.47,144.96v-4.36h.79v4.36h-.79Z"/>
      <path class="cls-2" d="M372.57,141.78c0-.45,0-.82-.04-1.18h.7l.04.72h.02c.22-.41.72-.82,1.44-.82.6,0,1.54.36,1.54,1.85v2.6h-.79v-2.51c0-.7-.26-1.29-1.01-1.29-.52,0-.93.37-1.06.81-.04.1-.05.23-.05.37v2.62h-.79v-3.18Z"/>
      <path class="cls-2" d="M378.49,139.35v1.25h1.13v.6h-1.13v2.35c0,.54.15.85.59.85.21,0,.36-.03.46-.05l.04.59c-.15.06-.4.11-.7.11-.37,0-.67-.12-.86-.33-.23-.23-.31-.62-.31-1.13v-2.38h-.67v-.6h.67v-1.04l.77-.21Z"/>
      <path class="cls-2" d="M384.4,142.74c0,1.61-1.12,2.31-2.17,2.31-1.18,0-2.09-.86-2.09-2.24,0-1.46.96-2.31,2.16-2.31s2.1.91,2.1,2.24ZM380.94,142.79c0,.95.55,1.67,1.32,1.67s1.32-.71,1.32-1.69c0-.74-.37-1.67-1.31-1.67s-1.34.86-1.34,1.69Z"/>
      <path class="cls-2" d="M387.2,144.15c.23.15.65.32,1.04.32.58,0,.85-.29.85-.65,0-.38-.22-.59-.81-.8-.78-.28-1.15-.71-1.15-1.23,0-.7.57-1.28,1.5-1.28.44,0,.83.13,1.07.27l-.2.58c-.17-.11-.49-.25-.89-.25-.47,0-.73.27-.73.59,0,.36.26.52.83.74.76.29,1.14.67,1.14,1.31,0,.77-.59,1.3-1.63,1.3-.48,0-.92-.12-1.22-.3l.2-.6Z"/>
      <path class="cls-2" d="M394.82,142.74c0,1.61-1.12,2.31-2.17,2.31-1.18,0-2.09-.86-2.09-2.24,0-1.46.96-2.31,2.16-2.31s2.1.91,2.1,2.24ZM391.36,142.79c0,.95.55,1.67,1.32,1.67s1.32-.71,1.32-1.69c0-.74-.37-1.67-1.31-1.67s-1.34.86-1.34,1.69Z"/>
      <path class="cls-2" d="M395.81,138.56h.79v6.39h-.79v-6.39Z"/>
      <path class="cls-2" d="M398.82,139.37c0,.27-.19.49-.5.49-.28,0-.48-.21-.48-.49s.21-.5.5-.5.49.22.49.5ZM397.94,144.96v-4.36h.79v4.36h-.79Z"/>
      <path class="cls-2" d="M403.81,138.56v5.27c0,.39,0,.83.04,1.12h-.71l-.04-.76h-.02c-.24.49-.77.86-1.49.86-1.05,0-1.86-.89-1.86-2.21,0-1.45.89-2.34,1.95-2.34.67,0,1.12.32,1.31.67h.02v-2.6h.79ZM403.01,142.37c0-.1,0-.23-.04-.33-.12-.5-.55-.92-1.14-.92-.82,0-1.3.72-1.3,1.68,0,.88.43,1.61,1.29,1.61.53,0,1.02-.35,1.16-.95.03-.11.04-.22.04-.34v-.76Z"/>
      <path class="cls-2" d="M405.01,144.15c.23.15.65.32,1.04.32.58,0,.85-.29.85-.65,0-.38-.22-.59-.81-.8-.78-.28-1.15-.71-1.15-1.23,0-.7.57-1.28,1.5-1.28.44,0,.83.13,1.07.27l-.2.58c-.17-.11-.49-.25-.89-.25-.47,0-.73.27-.73.59,0,.36.26.52.83.74.76.29,1.14.67,1.14,1.31,0,.77-.59,1.3-1.63,1.3-.48,0-.92-.12-1.22-.3l.2-.6Z"/>
      <path class="cls-2" d="M411.47,139.37c0,.27-.19.49-.5.49-.28,0-.48-.21-.48-.49s.21-.5.5-.5.49.22.49.5ZM410.59,144.96v-4.36h.79v4.36h-.79Z"/>
      <path class="cls-2" d="M412.7,141.78c0-.45,0-.82-.04-1.18h.7l.04.72h.02c.22-.41.72-.82,1.44-.82.6,0,1.54.36,1.54,1.85v2.6h-.79v-2.51c0-.7-.26-1.29-1.01-1.29-.52,0-.93.37-1.06.81-.04.1-.05.23-.05.37v2.62h-.79v-3.18Z"/>
      <path class="cls-2" d="M370.32,153.09c-.04-.85-.1-1.86-.09-2.62h-.03c-.21.71-.46,1.47-.77,2.3l-1.07,2.94h-.59l-.98-2.89c-.29-.86-.53-1.64-.7-2.36h-.02c-.02.76-.06,1.77-.12,2.68l-.16,2.6h-.75l.42-6.07h1l1.04,2.94c.25.75.46,1.41.61,2.04h.03c.15-.61.37-1.28.64-2.04l1.08-2.94h1l.38,6.07h-.76l-.15-2.67Z"/>
      <path class="cls-2" d="M376.09,154.57c0,.45,0,.85.04,1.19h-.7l-.04-.71h-.02c-.21.35-.67.81-1.44.81-.68,0-1.5-.38-1.5-1.91v-2.55h.79v2.41c0,.83.25,1.39.97,1.39.53,0,.9-.37,1.04-.72.04-.12.07-.26.07-.4v-2.67h.79v3.17Z"/>
      <path class="cls-2" d="M377.4,149.36h.79v6.39h-.79v-6.39Z"/>
      <path class="cls-2" d="M380.48,150.15v1.25h1.13v.6h-1.13v2.35c0,.54.15.85.59.85.21,0,.36-.03.46-.05l.04.59c-.15.06-.4.11-.7.11-.37,0-.67-.12-.86-.33-.23-.23-.31-.62-.31-1.13v-2.38h-.67v-.6h.67v-1.04l.77-.21Z"/>
      <path class="cls-2" d="M383.38,150.17c0,.27-.19.49-.5.49-.28,0-.48-.22-.48-.49s.21-.5.5-.5.49.22.49.5ZM382.5,155.76v-4.36h.79v4.36h-.79Z"/>
      <path class="cls-2" d="M386.44,153.03v.59h-2.22v-.59h2.22Z"/>
      <path class="cls-2" d="M387.26,154.95c.23.15.65.31,1.04.31.58,0,.85-.29.85-.65s-.22-.58-.81-.8c-.78-.28-1.15-.71-1.15-1.23,0-.7.57-1.28,1.5-1.28.44,0,.83.13,1.07.27l-.2.58c-.17-.11-.49-.25-.89-.25-.47,0-.73.27-.73.59,0,.36.26.52.83.74.76.29,1.14.67,1.14,1.31,0,.76-.59,1.31-1.63,1.31-.48,0-.92-.12-1.22-.3l.2-.6Z"/>
      <path class="cls-2" d="M394.88,153.54c0,1.61-1.12,2.31-2.17,2.31-1.18,0-2.09-.86-2.09-2.24,0-1.46.96-2.31,2.16-2.31s2.1.91,2.1,2.24ZM391.42,153.59c0,.95.55,1.67,1.32,1.67s1.32-.71,1.32-1.69c0-.74-.37-1.68-1.31-1.68s-1.34.87-1.34,1.69Z"/>
      <path class="cls-2" d="M395.88,149.36h.79v6.39h-.79v-6.39Z"/>
      <path class="cls-2" d="M398.88,150.17c0,.27-.19.49-.5.49-.28,0-.48-.22-.48-.49s.21-.5.5-.5.49.22.49.5ZM398,155.76v-4.36h.79v4.36h-.79Z"/>
      <path class="cls-2" d="M403.87,149.36v5.27c0,.39,0,.83.04,1.13h-.71l-.04-.76h-.02c-.24.49-.77.86-1.49.86-1.05,0-1.86-.89-1.86-2.21,0-1.45.89-2.34,1.95-2.34.67,0,1.12.32,1.31.67h.02v-2.6h.79ZM403.08,153.17c0-.1,0-.23-.04-.33-.12-.5-.55-.92-1.14-.92-.82,0-1.3.72-1.3,1.68,0,.88.43,1.61,1.29,1.61.53,0,1.02-.35,1.16-.95.03-.11.04-.22.04-.34v-.76Z"/>
    </g>
  </g>
  <g>
    <rect class="cls-3" x="56.75" y="32.08" width="124" height="115"/>
    <polyline class="cls-3" points="54.75 32.08 54.75 32.08 56.25 147.58 33.8 180.23 35.25 62.58 56.75 32.08"/>
    <line class="cls-9" x1="181.25" y1="32.58" x2="56.25" y2="32.58"/>
    <line class="cls-9" x1="158.25" y1="62.58" x2="181.25" y2="32.58"/>
    <line class="cls-9" x1="162.25" y1="182.58" x2="182.25" y2="148.58"/>
    <line class="cls-9" x1="181.25" y1="32.58" x2="181.25" y2="148.58"/>
    <line class="cls-11" x1="56.25" y1="32.58" x2="56.25" y2="147.58"/>
    <line class="cls-9" x1="35.01" y1="62.03" x2="58.01" y2="32.03"/>
    <line class="cls-11" x1="181.25" y1="147.58" x2="54.25" y2="147.58"/>
    <polyline class="cls-11" points="56.25 147.58 36.25 178.58 56.25 147.58"/>
    <polygon class="cls-3" points="56.25 32.58 36.34 62.15 159.88 62.9 181.51 31.54 56.25 32.58"/>
    <polyline class="cls-3" points="34.88 179.9 56.25 147.58 181.25 148.58 161.25 179.58"/>
    <g>
      <line class="cls-11" x1="172.5" y1="161.5" x2="133.5" y2="125.5"/>
      <polyline class="cls-5" points="107.82 176.87 172.5 162.5 161.5 119.5 133.5 125.5"/>
      <line class="cls-11" x1="132.5" y1="127.5" x2="107.5" y2="177.5"/>
      <line class="cls-10" x1="108.11" y1="178.58" x2="173.13" y2="162.34"/>
      <line class="cls-10" x1="133.5" y1="125.5" x2="160.75" y2="118.87"/>
      <circle class="cls-2" cx="133.03" cy="125.87" r="3.72"/>
      <polyline class="cls-9" points="107.82 176.87 161.5 119.5 172.5 161.5"/>
    </g>
    <polygon class="cls-3" points="159.88 62.9 180.47 33.51 179.42 151.1 159.26 180.12 159.88 62.9"/>
    <g>
      <circle class="cls-2" cx="56" cy="31.33" r="7.75"/>
      <path class="cls-4" d="M57.79,31.73h-2.62v2.43h2.92v.73h-3.79v-6.74h3.64v.73h-2.77v2.13h2.62v.72Z"/>
    </g>
    <g>
      <circle class="cls-2" cx="180.88" cy="147.9" r="7.75"/>
      <path class="cls-4" d="M179.42,145.03v2.54h2.93v-2.54h.79v6.07h-.79v-2.84h-2.93v2.84h-.78v-6.07h.78Z"/>
    </g>
    <g>
      <circle class="cls-2" cx="54.88" cy="147.9" r="7.75"/>
      <path class="cls-4" d="M53.21,144.72h3.63v.73h-2.76v2.24h2.55v.72h-2.55v3.05h-.87v-6.74Z"/>
    </g>
    <g>
      <circle class="cls-2" cx="179.88" cy="30.9" r="7.75"/>
      <path class="cls-4" d="M182.28,33.83c-.35.13-1.04.33-1.86.33-.92,0-1.67-.23-2.27-.8-.52-.5-.85-1.31-.85-2.26,0-1.81,1.25-3.13,3.29-3.13.7,0,1.25.15,1.51.28l-.19.64c-.32-.14-.73-.26-1.34-.26-1.48,0-2.44.92-2.44,2.44s.93,2.45,2.34,2.45c.51,0,.86-.07,1.04-.16v-1.81h-1.23v-.63h2v2.92Z"/>
    </g>
    <rect class="cls-3" x="36.75" y="64.08" width="124" height="115"/>
    <rect class="cls-9" x="35.25" y="62.58" width="126" height="117"/>
    <circle class="cls-2" cx="172.03" cy="161.87" r="3.72"/>
    <circle class="cls-2" cx="108.03" cy="176.87" r="3.72"/>
    <circle class="cls-2" cx="161.03" cy="118.87" r="3.72"/>
    <g>
      <circle class="cls-2" cx="36" cy="63.33" r="7.75"/>
      <path class="cls-4" d="M34.79,64.77l-.7,2.12h-.9l2.29-6.74h1.05l2.3,6.74h-.93l-.72-2.12h-2.39ZM37,64.09l-.66-1.94c-.15-.44-.25-.84-.35-1.23h-.02c-.1.4-.21.81-.34,1.22l-.66,1.95h2.03Z"/>
    </g>
    <g>
      <circle class="cls-2" cx="160.88" cy="179.9" r="7.75"/>
      <path class="cls-4" d="M163.45,183.23c-.32.16-.96.32-1.78.32-1.9,0-3.33-1.2-3.33-3.41s1.43-3.54,3.52-3.54c.84,0,1.37.18,1.6.3l-.21.71c-.33-.16-.8-.28-1.36-.28-1.58,0-2.63,1.01-2.63,2.78,0,1.65.95,2.71,2.59,2.71.53,0,1.07-.11,1.42-.28l.18.69Z"/>
    </g>
    <g>
      <circle class="cls-2" cx="34.88" cy="179.9" r="7.75"/>
      <path class="cls-4" d="M32.93,176.81c.38-.08.98-.14,1.59-.14.87,0,1.43.15,1.85.49.35.26.56.66.56,1.19,0,.65-.43,1.22-1.14,1.48v.02c.64.16,1.39.69,1.39,1.69,0,.58-.23,1.02-.57,1.35-.47.43-1.23.63-2.33.63-.6,0-1.06-.04-1.35-.08v-6.63ZM33.8,179.57h.79c.92,0,1.46-.48,1.46-1.13,0-.79-.6-1.1-1.48-1.1-.4,0-.63.03-.77.06v2.17ZM33.8,182.79c.17.03.42.04.73.04.9,0,1.73-.33,1.73-1.31,0-.92-.79-1.3-1.74-1.3h-.72v2.57Z"/>
    </g>
    <g>
      <circle class="cls-2" cx="159.88" cy="62.9" r="7.75"/>
      <path class="cls-4" d="M157.57,60.11c.48-.07,1.04-.13,1.67-.13,1.12,0,1.93.26,2.46.76.54.5.85,1.2.85,2.18s-.31,1.8-.87,2.36c-.57.57-1.5.87-2.68.87-.56,0-1.03-.03-1.42-.07v-5.97ZM158.35,65.48c.2.04.49.04.79.04,1.67,0,2.58-.94,2.58-2.58,0-1.43-.8-2.34-2.46-2.34-.41,0-.71.04-.92.08v4.79Z"/>
    </g>
  </g>
  <g>
    <rect class="cls-3" x="496.83" y="32.81" width="124" height="115"/>
    <polyline class="cls-3" points="494.83 32.81 494.83 32.81 496.33 148.31 473.89 180.95 475.33 63.31 496.83 32.81"/>
    <line class="cls-9" x1="621.33" y1="33.31" x2="496.33" y2="33.31"/>
    <line class="cls-9" x1="598.33" y1="63.31" x2="621.33" y2="33.31"/>
    <line class="cls-9" x1="602.33" y1="183.31" x2="622.33" y2="149.31"/>
    <line class="cls-9" x1="621.33" y1="33.31" x2="621.33" y2="149.31"/>
    <line class="cls-11" x1="496.33" y1="33.31" x2="496.33" y2="148.31"/>
    <line class="cls-9" x1="475.1" y1="62.76" x2="498.1" y2="32.76"/>
    <line class="cls-11" x1="621.33" y1="148.31" x2="494.33" y2="148.31"/>
    <polyline class="cls-11" points="496.33 148.31 476.33 179.31 496.33 148.31"/>
    <polygon class="cls-3" points="496.33 33.31 476.42 62.87 599.97 63.63 621.6 32.27 496.33 33.31"/>
    <polyline class="cls-3" points="474.97 180.63 496.33 148.31 621.33 149.31 601.33 180.31"/>
    <g>
      <line class="cls-11" x1="612.59" y1="162.22" x2="573.59" y2="126.22"/>
      <polyline class="cls-5" points="547.9 177.59 612.59 163.22 601.59 120.22 573.59 126.22"/>
      <line class="cls-11" x1="572.59" y1="128.22" x2="547.59" y2="178.22"/>
      <line class="cls-10" x1="548.2" y1="179.31" x2="613.22" y2="163.06"/>
      <line class="cls-10" x1="573.59" y1="126.22" x2="600.83" y2="119.59"/>
      <circle class="cls-2" cx="573.12" cy="126.59" r="3.72"/>
      <polyline class="cls-9" points="547.9 177.59 601.59 120.22 612.59 162.22"/>
    </g>
    <polygon class="cls-3" points="599.97 63.63 620.55 34.24 619.5 151.82 599.35 180.84 599.97 63.63"/>
    <g>
      <circle class="cls-2" cx="496.08" cy="32.06" r="7.75"/>
      <path class="cls-4" d="M497.87,32.45h-2.62v2.43h2.92v.73h-3.79v-6.74h3.64v.73h-2.77v2.13h2.62v.72Z"/>
    </g>
    <g>
      <circle class="cls-2" cx="620.97" cy="148.63" r="7.75"/>
      <path class="cls-4" d="M619.5,145.75v2.54h2.94v-2.54h.79v6.07h-.79v-2.84h-2.94v2.84h-.78v-6.07h.78Z"/>
    </g>
    <g>
      <circle class="cls-2" cx="494.97" cy="148.63" r="7.75"/>
      <path class="cls-4" d="M493.29,145.44h3.63v.73h-2.76v2.24h2.55v.72h-2.55v3.05h-.87v-6.74Z"/>
    </g>
    <g>
      <circle class="cls-2" cx="619.97" cy="31.63" r="7.75"/>
      <path class="cls-4" d="M622.36,34.55c-.35.13-1.04.33-1.86.33-.92,0-1.67-.23-2.27-.8-.52-.5-.85-1.31-.85-2.26,0-1.81,1.25-3.13,3.29-3.13.7,0,1.25.15,1.51.28l-.19.64c-.32-.14-.73-.26-1.34-.26-1.48,0-2.44.92-2.44,2.44s.93,2.45,2.34,2.45c.51,0,.86-.07,1.04-.16v-1.81h-1.23v-.63h2v2.92Z"/>
    </g>
    <rect class="cls-3" x="476.83" y="64.81" width="124" height="115"/>
    <rect class="cls-9" x="475.33" y="63.31" width="126" height="117"/>
    <polygon class="cls-6" points="600.5 120.5 547.59 178.22 601.33 180.31 614.52 162.59 600.5 120.5"/>
    <circle class="cls-2" cx="612.12" cy="162.59" r="3.72"/>
    <circle class="cls-2" cx="548.12" cy="177.59" r="3.72"/>
    <circle class="cls-2" cx="601.12" cy="119.59" r="3.72"/>
    <g>
      <circle class="cls-2" cx="476.08" cy="64.06" r="7.75"/>
      <path class="cls-4" d="M474.87,65.49l-.7,2.12h-.9l2.29-6.74h1.05l2.3,6.74h-.93l-.72-2.12h-2.39ZM477.08,64.81l-.66-1.94c-.15-.44-.25-.84-.35-1.23h-.02c-.1.4-.21.81-.34,1.22l-.66,1.95h2.03Z"/>
    </g>
    <g>
      <circle class="cls-2" cx="600.97" cy="180.63" r="7.75"/>
      <path class="cls-4" d="M603.53,183.96c-.32.16-.96.32-1.78.32-1.9,0-3.33-1.2-3.33-3.41s1.43-3.54,3.52-3.54c.84,0,1.37.18,1.6.3l-.21.71c-.33-.16-.8-.28-1.36-.28-1.58,0-2.63,1.01-2.63,2.78,0,1.65.95,2.71,2.59,2.71.53,0,1.07-.11,1.42-.28l.18.69Z"/>
    </g>
    <g>
      <circle class="cls-2" cx="474.97" cy="180.63" r="7.75"/>
      <path class="cls-4" d="M473.02,177.53c.38-.08.98-.14,1.59-.14.87,0,1.43.15,1.85.49.35.26.56.66.56,1.19,0,.65-.43,1.22-1.14,1.48v.02c.64.16,1.39.69,1.39,1.69,0,.58-.23,1.02-.57,1.35-.47.43-1.23.63-2.33.63-.6,0-1.06-.04-1.35-.08v-6.63ZM473.89,180.29h.79c.92,0,1.46-.48,1.46-1.13,0-.79-.6-1.1-1.48-1.1-.4,0-.63.03-.77.06v2.17ZM473.89,183.52c.17.03.42.04.73.04.9,0,1.73-.33,1.73-1.31,0-.92-.79-1.3-1.74-1.3h-.72v2.57Z"/>
    </g>
    <g>
      <circle class="cls-2" cx="599.97" cy="63.63" r="7.75"/>
      <path class="cls-4" d="M597.65,60.84c.48-.07,1.04-.13,1.67-.13,1.13,0,1.93.26,2.46.76.54.5.86,1.2.86,2.18s-.31,1.8-.87,2.36c-.57.57-1.5.87-2.68.87-.56,0-1.03-.03-1.42-.07v-5.97ZM598.44,66.2c.2.04.49.04.79.04,1.67,0,2.58-.94,2.58-2.58,0-1.43-.8-2.34-2.46-2.34-.41,0-.71.04-.92.08v4.79Z"/>
    </g>
  </g>
  <g>
    <g>
      <line class="cls-12" x1="192.51" y1="106.29" x2="314.21" y2="105.43"/>
      <g>
        <line class="cls-7" x1="192.51" y1="106.29" x2="293.86" y2="105.57"/>
        <polygon class="cls-12" points="289.83 119.74 314.21 105.43 289.63 91.47 289.83 119.74"/>
      </g>
    </g>
    <g>
      <rect class="cls-8" x="195.41" y="97.67" width="95.07" height="30.77" transform="translate(-.8 1.73) rotate(-.41)"/>
      <path class="cls-2" d="M202.96,98.27l.02,3.59c0,1.36.59,1.93,1.36,1.93.86,0,1.4-.61,1.39-1.95l-.02-3.59h.75s.02,3.53.02,3.53c.01,1.86-.92,2.63-2.17,2.64-1.18,0-2.07-.7-2.09-2.58l-.02-3.57h.75Z"/>
      <path class="cls-2" d="M207.61,103.49c.22.15.62.31.99.31.55,0,.8-.29.8-.65,0-.38-.22-.58-.78-.8-.75-.27-1.1-.7-1.1-1.23,0-.7.53-1.28,1.42-1.29.42,0,.79.12,1.02.26l-.19.58c-.16-.11-.46-.25-.85-.25-.45,0-.69.28-.69.6,0,.36.25.52.79.73.72.28,1.09.66,1.1,1.31,0,.77-.56,1.31-1.54,1.32-.45,0-.87-.11-1.17-.29l.19-.6Z"/>
      <path class="cls-2" d="M211.51,102.24c.02,1.07.68,1.51,1.43,1.5.54,0,.87-.1,1.15-.23l.13.57c-.26.13-.72.27-1.38.28-1.28,0-2.04-.87-2.05-2.18,0-1.31.72-2.36,1.93-2.36,1.35,0,1.72,1.24,1.72,2.04,0,.16-.02.29-.02.37l-2.91.02ZM213.71,101.66c0-.5-.21-1.29-1.05-1.28-.76,0-1.09.75-1.15,1.29l2.2-.02Z"/>
      <path class="cls-2" d="M215.37,101.25c0-.51-.01-.95-.04-1.36h.66s.03.85.03.85h.03c.19-.59.64-.96,1.14-.96.09,0,.15,0,.21.02v.75c-.07-.02-.15-.03-.25-.03-.53,0-.9.43-1,1.03-.02.11-.03.23-.03.37l.02,2.32h-.75s-.02-2.99-.02-2.99Z"/>
      <path class="cls-2" d="M219.98,101.22c0-.51-.02-.95-.04-1.36h.66s.03.85.03.85h.04c.18-.59.63-.96,1.14-.96.09,0,.14,0,.21.02v.75c-.07-.02-.15-.03-.25-.03-.53,0-.9.43-1,1.02-.02.11-.03.23-.03.37l.02,2.32h-.74s-.02-2.99-.02-2.99Z"/>
      <path class="cls-2" d="M223.12,102.16c.03,1.07.68,1.51,1.43,1.5.54,0,.86-.1,1.14-.23l.13.57c-.26.13-.72.27-1.38.28-1.28,0-2.04-.87-2.05-2.18s.72-2.35,1.93-2.36c1.35,0,1.72,1.24,1.72,2.04,0,.16-.01.29-.02.37l-2.91.02ZM225.32,101.58c0-.5-.21-1.29-1.05-1.28-.76,0-1.09.75-1.15,1.29l2.2-.02Z"/>
      <path class="cls-2" d="M229.82,103.47h-.02c-.22.43-.68.78-1.35.78-.97,0-1.76-.87-1.77-2.19-.01-1.63.99-2.36,1.86-2.36.64,0,1.07.33,1.28.75h.02l.02-.66h.71c-.01.36-.02.74-.02,1.19l.03,4.94h-.75s-.02-2.45-.02-2.45ZM229.81,101.55c0-.11,0-.23-.04-.33-.11-.49-.52-.9-1.08-.89-.78,0-1.25.7-1.24,1.68,0,.86.41,1.62,1.24,1.61.49,0,.9-.32,1.07-.87.03-.11.06-.26.06-.38v-.82Z"/>
      <path class="cls-2" d="M235.28,102.92c0,.45.01.85.04,1.19h-.67s-.05-.71-.05-.71h-.02c-.2.35-.63.81-1.37.82-.65,0-1.43-.37-1.44-1.9l-.02-2.55h.75s.02,2.41.02,2.41c0,.83.25,1.38.93,1.38.51,0,.85-.38.99-.73.04-.12.07-.26.07-.41l-.02-2.67h.75s.02,3.16.02,3.16Z"/>
      <path class="cls-2" d="M237.33,98.51c.01.27-.18.49-.47.49-.27,0-.46-.21-.46-.48,0-.28.19-.5.47-.5.28,0,.46.21.46.49ZM236.53,104.1l-.03-4.36h.75s.03,4.35.03,4.35h-.75Z"/>
      <path class="cls-2" d="M238.51,101.09c0-.51-.01-.95-.04-1.36h.66s.03.85.03.85h.03c.19-.59.64-.96,1.14-.96.08,0,.14,0,.21.02v.75c-.07-.02-.15-.03-.25-.03-.53,0-.9.43-1,1.03-.02.11-.03.23-.03.37l.02,2.32h-.75s-.02-2.99-.02-2.99Z"/>
      <path class="cls-2" d="M241.65,102.03c.02,1.07.68,1.51,1.43,1.5.54,0,.87-.1,1.15-.23l.13.57c-.27.13-.72.27-1.38.28-1.28,0-2.04-.87-2.05-2.18,0-1.31.72-2.36,1.93-2.36,1.35,0,1.72,1.24,1.72,2.04,0,.16-.02.29-.02.37l-2.91.02ZM243.86,101.45c0-.5-.21-1.29-1.05-1.28-.76,0-1.09.75-1.15,1.3l2.2-.02Z"/>
      <path class="cls-2" d="M245.51,100.86c0-.45-.01-.82-.04-1.18h.66s.04.7.04.7h.03c.23-.42.61-.81,1.3-.81.56,0,.99.35,1.18.87h.02c.13-.24.29-.44.46-.57.25-.2.52-.31.91-.31.55,0,1.36.37,1.37,1.88l.02,2.57h-.74s-.02-2.46-.02-2.46c0-.84-.3-1.34-.91-1.34-.43,0-.76.34-.89.73-.03.11-.06.25-.06.4l.02,2.69h-.74s-.02-2.6-.02-2.6c0-.69-.3-1.2-.87-1.19-.47,0-.81.4-.93.8-.04.12-.06.25-.06.39l.02,2.63h-.74s-.02-3.17-.02-3.17Z"/>
      <path class="cls-2" d="M253.07,101.95c.03,1.07.68,1.51,1.43,1.5.54,0,.86-.1,1.14-.23l.13.57c-.27.13-.72.27-1.38.28-1.28,0-2.04-.87-2.05-2.18s.72-2.35,1.93-2.36c1.35,0,1.72,1.24,1.72,2.04,0,.16-.02.29-.02.37l-2.91.02ZM255.28,101.36c0-.5-.21-1.29-1.05-1.28-.76,0-1.09.75-1.15,1.3l2.2-.02Z"/>
      <path class="cls-2" d="M256.93,100.78c0-.45-.01-.82-.04-1.18h.67s.05.72.05.72h.02c.2-.42.68-.82,1.36-.83.57,0,1.47.35,1.48,1.84l.02,2.6h-.75s-.02-2.51-.02-2.51c0-.7-.26-1.29-.97-1.28-.5,0-.88.38-1,.82-.03.1-.05.23-.05.37l.02,2.62h-.75s-.02-3.17-.02-3.17Z"/>
      <path class="cls-2" d="M262.54,98.31v1.25s1.09,0,1.09,0v.6s-1.07,0-1.07,0l.02,2.35c0,.54.15.84.57.84.2,0,.34-.03.44-.06l.04.59c-.15.06-.38.11-.67.11-.35,0-.63-.11-.82-.33-.21-.23-.29-.62-.3-1.13l-.02-2.38h-.64s0-.6,0-.6h.64s0-1.05,0-1.05l.73-.21Z"/>
      <path class="cls-2" d="M267.19,98.27v1.25s1.09,0,1.09,0v.6s-1.08,0-1.08,0l.02,2.35c0,.54.15.84.57.84.2,0,.34-.03.44-.06l.04.59c-.14.06-.38.11-.67.11-.35,0-.63-.11-.82-.33-.21-.23-.29-.62-.3-1.13l-.02-2.38h-.64s0-.6,0-.6h.64s0-1.05,0-1.05l.73-.21Z"/>
      <path class="cls-2" d="M272.83,101.63c0,1.61-1.05,2.32-2.05,2.33-1.12,0-1.99-.85-2-2.23,0-1.46.89-2.32,2.04-2.33,1.19,0,2,.89,2.01,2.23ZM269.54,101.69c0,.95.53,1.67,1.27,1.67.72,0,1.25-.72,1.25-1.7,0-.74-.36-1.67-1.25-1.67-.89,0-1.27.87-1.26,1.7Z"/>
      <path class="cls-2" d="M275.57,103.82c.02-.3.03-.74.03-1.12l-.03-5.27h.74s.02,2.73.02,2.73h.02c.26-.49.74-.81,1.41-.81,1.03,0,1.76.89,1.76,2.21,0,1.56-.92,2.34-1.84,2.34-.6,0-1.08-.24-1.39-.81h-.03l-.03.72h-.65ZM276.34,102.07c0,.1.02.2.04.29.15.55.59.92,1.14.92.79,0,1.25-.68,1.25-1.68,0-.87-.44-1.62-1.24-1.61-.51,0-.99.38-1.14.98-.02.09-.04.2-.04.33v.78Z"/>
      <path class="cls-2" d="M280.88,101.75c.03,1.07.68,1.51,1.43,1.5.54,0,.86-.1,1.14-.23l.13.57c-.26.13-.72.27-1.38.28-1.28,0-2.04-.87-2.05-2.18s.72-2.35,1.93-2.36c1.35,0,1.72,1.24,1.72,2.04,0,.16-.02.29-.02.37l-2.91.02ZM283.09,101.17c0-.5-.21-1.29-1.05-1.28-.76,0-1.09.75-1.15,1.3l2.2-.02Z"/>
      <path class="cls-2" d="M223.31,110.63l.56,2.21c.12.49.24.93.32,1.38h.03c.09-.44.23-.91.36-1.38l.66-2.23h.63s.66,2.17.66,2.17c.16.52.28.98.38,1.42h.03c.07-.44.17-.9.31-1.42l.58-2.19h.74s-1.31,4.36-1.31,4.36h-.68s-.65-2.07-.65-2.07c-.15-.48-.27-.92-.38-1.43h-.02c-.1.52-.22.97-.37,1.44l-.65,2.08h-.69s-1.28-4.34-1.28-4.34h.77Z"/>
      <path class="cls-2" d="M231.59,114.93l-.06-.55h-.03c-.23.34-.67.65-1.26.66-.84,0-1.27-.61-1.27-1.24,0-1.05.88-1.64,2.48-1.64v-.09c0-.36-.1-1.01-.95-1-.38,0-.79.13-1.08.33l-.18-.52c.34-.24.84-.39,1.36-.4,1.27,0,1.58.9,1.59,1.77v1.63c.01.38.03.75.09,1.04h-.69ZM231.47,112.71c-.82-.01-1.75.15-1.75.99,0,.51.33.75.71.75.54,0,.88-.37,1-.74.03-.08.04-.17.04-.25v-.76Z"/>
      <path class="cls-2" d="M234.26,109.31v1.25s1.09,0,1.09,0v.6s-1.07,0-1.07,0l.02,2.35c0,.54.15.84.57.84.2,0,.34-.03.44-.06l.04.59c-.14.06-.38.11-.67.11-.35,0-.63-.11-.82-.33-.21-.23-.29-.62-.3-1.13l-.02-2.38h-.64s0-.6,0-.6h.64s0-1.05,0-1.05l.74-.21Z"/>
      <path class="cls-2" d="M236.58,112.86c.02,1.07.68,1.51,1.43,1.5.54,0,.86-.11,1.15-.23l.13.57c-.26.13-.72.28-1.38.28-1.28,0-2.04-.87-2.05-2.18s.72-2.35,1.93-2.36c1.35,0,1.72,1.24,1.73,2.04,0,.16-.02.29-.02.37l-2.91.02ZM238.78,112.28c0-.5-.21-1.29-1.05-1.28-.76,0-1.09.75-1.15,1.3l2.2-.02Z"/>
      <path class="cls-2" d="M240.44,111.87c0-.51-.01-.95-.04-1.36h.66s.03.85.03.85h.03c.19-.59.64-.96,1.14-.96.08,0,.14,0,.21.02v.75c-.07-.02-.15-.03-.25-.03-.53,0-.9.43-1,1.02-.02.11-.03.23-.03.37v2.32s-.73,0-.73,0l-.02-3Z"/>
      <path class="cls-2" d="M244.33,109.23v1.25s1.09,0,1.09,0v.6s-1.08,0-1.08,0l.02,2.35c0,.54.15.84.57.84.2,0,.34-.03.44-.06l.04.59c-.14.06-.38.11-.67.11-.35,0-.63-.11-.82-.33-.21-.23-.29-.62-.3-1.13l-.02-2.38h-.64s0-.6,0-.6h.64s0-1.05,0-1.05l.73-.21Z"/>
      <path class="cls-2" d="M247.09,109.24c.01.27-.18.49-.48.49-.27,0-.46-.21-.46-.48,0-.28.2-.5.47-.5.28,0,.46.21.46.49ZM246.29,114.83l-.03-4.36h.75s.03,4.35.03,4.35h-.75Z"/>
      <path class="cls-2" d="M251.83,110.43c-.01.32-.03.67-.03,1.2l.02,2.53c0,1-.18,1.61-.58,1.99-.4.4-.98.53-1.5.53-.5,0-1.05-.12-1.38-.35l.18-.61c.28.18.71.34,1.22.33.77,0,1.33-.43,1.32-1.53v-.49h-.02c-.23.41-.67.73-1.31.74-1.03,0-1.77-.91-1.78-2.11,0-1.48.9-2.32,1.85-2.33.72,0,1.12.39,1.3.75h.02l.03-.66h.66ZM251.07,112.16c0-.13,0-.25-.04-.36-.14-.46-.51-.83-1.06-.83-.72,0-1.23.65-1.22,1.66,0,.86.42,1.56,1.23,1.56.46,0,.88-.31,1.04-.82.04-.13.06-.29.06-.42v-.78Z"/>
      <path class="cls-2" d="M253.04,108.39h.75s.02,2.71.02,2.71h.02c.12-.23.3-.43.54-.56.22-.14.49-.23.77-.23.56,0,1.45.35,1.46,1.85l.02,2.59h-.75s-.02-2.5-.02-2.5c0-.7-.26-1.29-.97-1.29-.49,0-.87.37-1,.8-.04.11-.05.23-.05.38l.02,2.63h-.75s-.04-6.39-.04-6.39Z"/>
      <path class="cls-2" d="M258.66,109.13v1.25s1.09,0,1.09,0v.6s-1.07,0-1.07,0l.02,2.35c0,.54.15.84.57.84.2,0,.34-.03.44-.06l.04.59c-.15.06-.38.11-.67.11-.35,0-.63-.11-.82-.33-.21-.23-.29-.62-.3-1.13l-.02-2.38h-.64s0-.6,0-.6h.64s0-1.05,0-1.05l.74-.21Z"/>
      <path class="cls-2" d="M261.19,113l-.02-.23c-.05-.49.1-1.02.52-1.56.38-.48.59-.83.59-1.24,0-.46-.28-.76-.82-.77-.31,0-.65.11-.86.29l-.21-.57c.28-.22.77-.37,1.22-.37.98,0,1.43.63,1.44,1.31,0,.61-.32,1.06-.73,1.57-.37.47-.51.87-.48,1.33v.23s-.66,0-.66,0ZM261.01,114.27c0-.33.21-.57.51-.57.3,0,.51.23.51.56,0,.32-.19.56-.51.56-.3,0-.51-.24-.51-.55Z"/>
    </g>
  </g>
  <g>
    <rect class="cls-8" x="301.77" y="111.85" width="45.04" height="70.6"/>
    <path class="cls-1" d="M309.98,128.12l4.97,7.49c1.3,1.94,2.38,3.74,3.53,5.69h.22c1.15-2.09,2.3-3.89,3.46-5.76l4.9-7.42h6.84l-11.88,16.85,12.24,18h-7.2l-5.11-7.85c-1.37-2.02-2.52-3.96-3.75-6.05h-.14c-1.15,2.09-2.38,3.96-3.67,6.05l-5.04,7.85h-6.98l12.38-17.79-11.81-17.07h7.06Z"/>
  </g>
  <path class="cls-13" d="M308.99,58.18l6.84,19.58c1.15,3.17,2.09,6.05,2.81,8.93h.21c.79-2.88,1.8-5.76,2.95-8.93l6.77-19.58h6.62l-13.68,34.85h-6.05l-13.25-34.85h6.77Z"/>
</svg>