<?xml version="1.0" encoding="UTF-8"?>
<svg id="Polygon" xmlns="http://www.w3.org/2000/svg" viewBox="0 0 538.58 188.6">
  <defs>
    <style>
      .cls-1 {
        fill: #231f20;
      }

      .cls-2 {
        fill: #6dbae7;
        opacity: .31;
      }

      .cls-3 {
        fill: #fff;
      }

      .cls-4 {
        stroke: #9b9a9a;
      }

      .cls-4, .cls-5, .cls-6 {
        fill: none;
      }

      .cls-4, .cls-6 {
        stroke-miterlimit: 10;
        stroke-width: 2.83px;
      }

      .cls-7 {
        fill: #9b9a9a;
      }

      .cls-8 {
        fill: #437898;
        opacity: .72;
      }

      .cls-6 {
        stroke: #437898;
      }
    </style>
  </defs>
  <g>
    <g>
      <line class="cls-4" x1="203.09" y1="89.07" x2="310.74" y2="89.07"/>
      <polygon class="cls-7" points="306.61 103.2 331.09 89.07 306.61 74.93 306.61 103.2"/>
    </g>
    <g>
      <rect class="cls-5" x="203.09" y="80.13" width="104" height="17.93"/>
      <path class="cls-1" d="M247.28,85.57c.35.21.86.4,1.4.4.8,0,1.27-.42,1.27-1.04,0-.57-.32-.89-1.14-1.21-.99-.35-1.6-.87-1.6-1.72,0-.95.78-1.65,1.96-1.65.62,0,1.07.14,1.34.3l-.22.64c-.2-.11-.6-.29-1.15-.29-.83,0-1.14.49-1.14.91,0,.57.37.85,1.21,1.17,1.03.4,1.55.89,1.55,1.78,0,.94-.69,1.75-2.12,1.75-.58,0-1.22-.17-1.55-.39l.2-.66Z"/>
      <path class="cls-1" d="M251.8,83.59c0-.56-.02-1.01-.04-1.42h.71l.04.75h.02c.32-.53.84-.85,1.55-.85,1.05,0,1.85.89,1.85,2.21,0,1.57-.95,2.34-1.98,2.34-.58,0-1.08-.25-1.34-.68h-.02v2.37h-.78v-4.72ZM252.58,84.75c0,.12.02.23.04.32.14.55.62.93,1.19.93.84,0,1.32-.68,1.32-1.68,0-.87-.46-1.62-1.3-1.62-.54,0-1.04.39-1.2.98-.03.1-.05.21-.05.32v.75Z"/>
      <path class="cls-1" d="M256.92,80.13h.79v6.39h-.79v-6.39Z"/>
      <path class="cls-1" d="M259.92,80.94c0,.27-.19.49-.5.49-.28,0-.48-.21-.48-.49s.21-.5.5-.5.49.22.49.5ZM259.04,86.52v-4.36h.79v4.36h-.79Z"/>
      <path class="cls-1" d="M262.1,80.91v1.25h1.13v.6h-1.13v2.35c0,.54.15.85.59.85.21,0,.36-.03.46-.05l.04.59c-.15.06-.4.11-.7.11-.37,0-.67-.12-.86-.33-.23-.23-.31-.62-.31-1.13v-2.38h-.67v-.6h.67v-1.04l.77-.21Z"/>
    </g>
  </g>
  <g>
    <rect class="cls-2" x="32.76" y="22.25" width="145" height="115"/>
    <rect class="cls-6" x="31.26" y="20.75" width="146" height="117"/>
    <g>
      <circle class="cls-1" cx="32.01" cy="21.5" r="7.75"/>
      <path class="cls-3" d="M30.8,22.94l-.7,2.12h-.9l2.29-6.74h1.05l2.3,6.74h-.93l-.72-2.12h-2.39ZM33.01,22.26l-.66-1.94c-.15-.44-.25-.84-.35-1.23h-.02c-.1.4-.21.81-.34,1.22l-.66,1.95h2.03Z"/>
    </g>
    <g>
      <circle class="cls-1" cx="176.89" cy="138.07" r="7.75"/>
      <path class="cls-3" d="M179.46,141.4c-.32.16-.96.32-1.78.32-1.9,0-3.33-1.2-3.33-3.41s1.43-3.54,3.52-3.54c.84,0,1.37.18,1.6.3l-.21.71c-.33-.16-.8-.28-1.36-.28-1.58,0-2.63,1.01-2.63,2.78,0,1.65.95,2.71,2.59,2.71.53,0,1.07-.11,1.42-.28l.18.69Z"/>
    </g>
    <g>
      <circle class="cls-1" cx="30.89" cy="138.07" r="7.75"/>
      <path class="cls-3" d="M28.94,134.98c.38-.08.98-.14,1.59-.14.87,0,1.43.15,1.85.49.35.26.56.66.56,1.19,0,.65-.43,1.22-1.14,1.48v.02c.64.16,1.39.69,1.39,1.69,0,.58-.23,1.02-.57,1.35-.47.43-1.23.63-2.33.63-.6,0-1.06-.04-1.35-.08v-6.63ZM29.81,137.74h.79c.92,0,1.46-.48,1.46-1.13,0-.79-.6-1.1-1.48-1.1-.4,0-.63.03-.77.06v2.17ZM29.81,140.96c.17.03.42.04.73.04.9,0,1.73-.33,1.73-1.31,0-.92-.79-1.3-1.74-1.3h-.72v2.57Z"/>
    </g>
    <g>
      <circle class="cls-1" cx="176.89" cy="21.07" r="7.75"/>
      <path class="cls-3" d="M174.58,18.28c.48-.07,1.04-.13,1.67-.13,1.13,0,1.93.26,2.46.76.54.5.86,1.2.86,2.18s-.31,1.8-.87,2.36c-.57.57-1.5.87-2.68.87-.56,0-1.03-.03-1.42-.07v-5.97ZM175.36,23.65c.2.04.49.04.79.04,1.67,0,2.58-.94,2.58-2.57,0-1.43-.8-2.34-2.46-2.34-.41,0-.71.04-.92.08v4.79Z"/>
    </g>
    <g>
      <rect class="cls-5" x="37.24" y="153.73" width="134.61" height="23.48"/>
      <path class="cls-1" d="M56.03,166.06v-11.95h2.74v.83h-1.72v10.3h1.72v.83h-2.74Z"/>
      <path class="cls-1" d="M60.29,166.06v-11.95h2.74v.83h-1.72v10.3h1.72v.83h-2.74Z"/>
      <path class="cls-1" d="M65.93,161.2l-1.05,3.18h-1.35l3.44-10.11h1.57l3.45,10.11h-1.4l-1.08-3.18h-3.58ZM69.25,160.18l-.99-2.91c-.22-.66-.38-1.26-.52-1.85h-.03c-.15.6-.31,1.22-.51,1.83l-.99,2.92h3.04Z"/>
      <path class="cls-1" d="M72.58,166.23c.33-.88.73-2.49.9-3.58l1.47-.15c-.34,1.27-1,2.94-1.42,3.64l-.94.09Z"/>
      <path class="cls-1" d="M76.58,154.41c.57-.12,1.47-.21,2.38-.21,1.3,0,2.15.22,2.77.74.52.39.84.99.84,1.78,0,.98-.65,1.83-1.71,2.22v.03c.96.24,2.08,1.04,2.08,2.54,0,.87-.34,1.53-.85,2.03-.71.64-1.84.94-3.49.94-.9,0-1.59-.06-2.02-.12v-9.94ZM77.89,158.55h1.19c1.38,0,2.19-.72,2.19-1.69,0-1.19-.9-1.65-2.22-1.65-.6,0-.94.04-1.15.09v3.25ZM77.89,163.39c.25.04.63.06,1.1.06,1.35,0,2.59-.5,2.59-1.96,0-1.38-1.19-1.95-2.61-1.95h-1.08v3.85Z"/>
      <path class="cls-1" d="M83.62,166.23c.33-.88.73-2.49.9-3.58l1.47-.15c-.34,1.27-1,2.94-1.42,3.64l-.94.09Z"/>
      <path class="cls-1" d="M94.69,164.05c-.48.24-1.44.48-2.67.48-2.85,0-4.99-1.8-4.99-5.12s2.15-5.31,5.28-5.31c1.26,0,2.05.27,2.4.45l-.31,1.06c-.5-.24-1.2-.42-2.04-.42-2.37,0-3.94,1.51-3.94,4.17,0,2.47,1.42,4.06,3.88,4.06.79,0,1.6-.17,2.13-.42l.27,1.04Z"/>
      <path class="cls-1" d="M95.42,166.23c.33-.88.73-2.49.9-3.58l1.47-.15c-.34,1.27-1,2.94-1.42,3.64l-.94.09Z"/>
      <path class="cls-1" d="M99.43,154.41c.79-.12,1.74-.21,2.77-.21,1.87,0,3.21.43,4.09,1.26.9.83,1.42,2,1.42,3.63s-.51,3-1.46,3.93c-.94.95-2.5,1.46-4.47,1.46-.93,0-1.71-.04-2.37-.12v-9.94ZM100.73,163.35c.33.06.81.08,1.32.08,2.79,0,4.31-1.56,4.31-4.29.01-2.38-1.33-3.9-4.1-3.9-.67,0-1.18.06-1.53.13v7.98Z"/>
      <path class="cls-1" d="M111.2,154.09v11.97h-2.74v-.83h1.72v-10.32h-1.72v-.83h2.74Z"/>
      <path class="cls-1" d="M113.66,166.06v-11.95h2.74v.83h-1.72v10.3h1.72v.83h-2.74Z"/>
      <path class="cls-1" d="M123.07,159.64h-3.93v3.65h4.38v1.09h-5.68v-10.11h5.46v1.09h-4.15v3.2h3.93v1.08Z"/>
      <path class="cls-1" d="M124.25,166.23c.33-.88.73-2.49.9-3.58l1.47-.15c-.34,1.27-1,2.94-1.42,3.64l-.94.09Z"/>
      <path class="cls-1" d="M128.26,154.27h5.44v1.09h-4.14v3.36h3.82v1.08h-3.82v4.58h-1.3v-10.11Z"/>
      <path class="cls-1" d="M133.21,166.23c.33-.88.74-2.49.9-3.58l1.47-.15c-.34,1.27-1,2.94-1.42,3.64l-.95.09Z"/>
      <path class="cls-1" d="M144.91,163.93c-.58.21-1.74.56-3.1.56-1.53,0-2.79-.39-3.78-1.33-.87-.84-1.41-2.19-1.41-3.77.02-3.01,2.08-5.22,5.47-5.22,1.17,0,2.08.25,2.52.46l-.31,1.07c-.54-.24-1.21-.44-2.23-.44-2.46,0-4.06,1.53-4.06,4.07s1.54,4.08,3.9,4.08c.85,0,1.44-.12,1.74-.27v-3.01h-2.05v-1.05h3.33v4.86Z"/>
      <path class="cls-1" d="M148.79,154.09v11.97h-2.74v-.83h1.72v-10.32h-1.72v-.83h2.74Z"/>
      <path class="cls-1" d="M153.05,154.09v11.97h-2.74v-.83h1.72v-10.32h-1.72v-.83h2.74Z"/>
    </g>
    <polygon class="cls-3" points="98.98 72.03 113.27 136.61 176 91.99 98.98 72.03"/>
    <line class="cls-6" x1="99.59" y1="76.07" x2="111.59" y2="138.07"/>
    <line class="cls-6" x1="176.59" y1="90.07" x2="111.59" y2="138.07"/>
    <line class="cls-6" x1="99.59" y1="72.07" x2="176.59" y2="90.07"/>
    <g>
      <circle class="cls-1" cx="174.81" cy="89.49" r="7.75"/>
      <path class="cls-3" d="M173.13,86.3h3.63v.73h-2.76v2.24h2.55v.72h-2.55v3.05h-.87v-6.74Z"/>
    </g>
    <g>
      <circle class="cls-1" cx="109.81" cy="137.49" r="7.75"/>
      <path class="cls-3" d="M112.2,140.41c-.35.12-1.04.33-1.86.33-.92,0-1.67-.23-2.27-.8-.52-.5-.85-1.31-.85-2.26,0-1.81,1.25-3.13,3.29-3.13.7,0,1.25.15,1.51.28l-.19.64c-.32-.14-.73-.26-1.34-.26-1.48,0-2.44.92-2.44,2.44s.93,2.45,2.34,2.45c.51,0,.86-.07,1.04-.16v-1.81h-1.23v-.63h2v2.92Z"/>
    </g>
    <g>
      <circle class="cls-1" cx="97.81" cy="72.49" r="7.75"/>
      <path class="cls-3" d="M99.59,72.88h-2.62v2.43h2.92v.73h-3.79v-6.74h3.64v.73h-2.77v2.13h2.62v.72Z"/>
    </g>
  </g>
  <g>
    <path class="cls-2" d="M429.09,137.57c-23.84-.33-47.69-.67-71.53-1-4.12,0-7.47-3.34-7.47-7.47V29.04c0-4.12,3.34-7.47,7.47-7.47h130.06c4.12,0,7.47,3.34,7.47,7.47v62.53c-22.53-9.23-41.39-14.18-55-17-10.56-2.19-19.77-3.48-23,1-2.98,4.13.8,10.85,4,19,3.69,9.41,7.71,23.54,8,43Z"/>
    <rect class="cls-6" x="348.59" y="20.07" width="146" height="117"/>
    <polyline class="cls-8" points="428.91 137.38 493.91 89.38 494.59 137.07"/>
    <g>
      <circle class="cls-1" cx="349.34" cy="20.82" r="7.75"/>
      <path class="cls-3" d="M348.13,22.25l-.7,2.12h-.9l2.29-6.74h1.05l2.3,6.74h-.93l-.72-2.12h-2.39ZM350.33,21.57l-.66-1.94c-.15-.44-.25-.84-.35-1.23h-.02c-.1.4-.21.81-.34,1.22l-.66,1.95h2.03Z"/>
    </g>
    <g>
      <circle class="cls-1" cx="494.22" cy="137.39" r="7.75"/>
      <path class="cls-3" d="M496.79,140.72c-.32.16-.96.32-1.78.32-1.9,0-3.33-1.2-3.33-3.41s1.43-3.54,3.52-3.54c.84,0,1.37.18,1.6.3l-.21.71c-.33-.16-.8-.28-1.36-.28-1.58,0-2.63,1.01-2.63,2.78,0,1.65.95,2.71,2.59,2.71.53,0,1.07-.11,1.42-.28l.18.69Z"/>
    </g>
    <g>
      <circle class="cls-1" cx="348.22" cy="137.39" r="7.75"/>
      <path class="cls-3" d="M346.27,134.29c.38-.08.98-.14,1.59-.14.87,0,1.43.15,1.85.49.35.26.56.66.56,1.19,0,.65-.43,1.22-1.14,1.48v.02c.64.16,1.39.69,1.39,1.69,0,.58-.23,1.02-.57,1.35-.47.43-1.23.63-2.33.63-.6,0-1.06-.04-1.35-.08v-6.63ZM347.14,137.05h.79c.92,0,1.46-.48,1.46-1.13,0-.79-.6-1.1-1.48-1.1-.4,0-.63.03-.77.06v2.17ZM347.14,140.28c.17.03.42.04.73.04.9,0,1.73-.33,1.73-1.31,0-.92-.79-1.3-1.74-1.3h-.72v2.57Z"/>
    </g>
    <g>
      <circle class="cls-1" cx="494.22" cy="20.39" r="7.75"/>
      <path class="cls-3" d="M491.91,17.6c.48-.07,1.04-.13,1.67-.13,1.13,0,1.93.26,2.46.76.54.5.85,1.2.85,2.18s-.31,1.8-.87,2.36c-.57.57-1.5.87-2.68.87-.56,0-1.03-.03-1.42-.07v-5.97ZM492.69,22.96c.2.04.49.04.79.04,1.67,0,2.58-.94,2.58-2.57,0-1.43-.8-2.34-2.46-2.34-.41,0-.71.04-.92.08v4.79Z"/>
    </g>
    <g>
      <rect class="cls-5" x="354.56" y="153.05" width="134.61" height="23.48"/>
      <path class="cls-1" d="M356.03,165.37v-11.95h2.74v.83h-1.72v10.3h1.72v.83h-2.74Z"/>
      <path class="cls-1" d="M360.29,165.37v-11.95h2.74v.83h-1.72v10.3h1.72v.83h-2.74Z"/>
      <path class="cls-1" d="M365.93,160.52l-1.05,3.18h-1.35l3.43-10.11h1.58l3.45,10.11h-1.39l-1.08-3.18h-3.58ZM369.25,159.49l-.99-2.91c-.22-.66-.38-1.26-.53-1.85h-.03c-.15.6-.32,1.22-.51,1.83l-.99,2.92h3.04Z"/>
      <path class="cls-1" d="M372.58,165.54c.33-.88.73-2.49.9-3.58l1.47-.15c-.34,1.27-1,2.94-1.42,3.64l-.94.09Z"/>
      <path class="cls-1" d="M376.58,153.72c.57-.12,1.47-.21,2.38-.21,1.3,0,2.15.22,2.78.74.52.39.84.99.84,1.78,0,.98-.65,1.83-1.71,2.22v.03c.96.24,2.08,1.04,2.08,2.54,0,.87-.34,1.53-.86,2.03-.71.64-1.84.94-3.49.94-.9,0-1.59-.06-2.03-.12v-9.94ZM377.89,157.86h1.19c1.38,0,2.19-.72,2.19-1.69,0-1.19-.9-1.65-2.22-1.65-.6,0-.95.04-1.16.09v3.25ZM377.89,162.7c.25.04.63.06,1.1.06,1.35,0,2.59-.5,2.59-1.96,0-1.38-1.19-1.95-2.61-1.95h-1.08v3.85Z"/>
      <path class="cls-1" d="M383.62,165.54c.33-.88.74-2.49.9-3.58l1.47-.15c-.34,1.27-1,2.94-1.42,3.64l-.95.09Z"/>
      <path class="cls-1" d="M395.32,163.24c-.58.21-1.74.56-3.1.56-1.53,0-2.79-.39-3.78-1.33-.87-.84-1.41-2.19-1.41-3.77.01-3.01,2.08-5.22,5.47-5.22,1.17,0,2.08.25,2.52.46l-.31,1.07c-.54-.24-1.21-.44-2.24-.44-2.46,0-4.06,1.53-4.06,4.07s1.54,4.08,3.9,4.08c.86,0,1.44-.12,1.74-.27v-3.01h-2.05v-1.05h3.33v4.86Z"/>
      <path class="cls-1" d="M396.41,165.54c.33-.88.74-2.49.9-3.58l1.47-.15c-.34,1.27-1,2.94-1.42,3.64l-.95.09Z"/>
      <path class="cls-1" d="M405.65,158.95h-3.93v3.65h4.38v1.09h-5.68v-10.11h5.46v1.09h-4.16v3.2h3.93v1.08Z"/>
      <path class="cls-1" d="M406.84,165.54c.33-.88.74-2.49.9-3.58l1.47-.15c-.34,1.27-1,2.94-1.42,3.64l-.95.09Z"/>
      <path class="cls-1" d="M410.84,153.59h5.45v1.09h-4.14v3.36h3.83v1.08h-3.83v4.58h-1.3v-10.11Z"/>
      <path class="cls-1" d="M415.79,165.54c.33-.88.74-2.49.9-3.58l1.47-.15c-.34,1.27-1,2.94-1.42,3.64l-.95.09Z"/>
      <path class="cls-1" d="M419.8,153.72c.79-.12,1.74-.21,2.78-.21,1.87,0,3.21.43,4.09,1.26.9.83,1.42,2,1.42,3.63s-.51,3-1.46,3.93c-.95.95-2.5,1.46-4.47,1.46-.93,0-1.71-.04-2.37-.12v-9.94ZM421.1,162.66c.33.06.81.08,1.32.08,2.79,0,4.3-1.56,4.3-4.29.01-2.38-1.33-3.9-4.09-3.9-.67,0-1.18.06-1.53.13v7.98Z"/>
      <path class="cls-1" d="M431.57,153.4v11.97h-2.75v-.83h1.72v-10.32h-1.72v-.83h2.75Z"/>
      <path class="cls-1" d="M435.83,153.4v11.97h-2.75v-.83h1.72v-10.32h-1.72v-.83h2.75Z"/>
      <path class="cls-1" d="M437.3,165.54c.33-.88.74-2.49.9-3.58l1.47-.15c-.34,1.27-1,2.94-1.42,3.64l-.95.09Z"/>
      <path class="cls-1" d="M441.4,165.37v-11.95h2.75v.83h-1.72v10.3h1.72v.83h-2.75Z"/>
      <path class="cls-1" d="M445.66,165.37v-11.95h2.75v.83h-1.72v10.3h1.72v.83h-2.75Z"/>
      <path class="cls-1" d="M457.34,163.24c-.58.21-1.74.56-3.1.56-1.53,0-2.79-.39-3.78-1.33-.87-.84-1.41-2.19-1.41-3.77.02-3.01,2.08-5.22,5.47-5.22,1.17,0,2.08.25,2.52.46l-.32,1.07c-.54-.24-1.21-.44-2.23-.44-2.46,0-4.07,1.53-4.07,4.07s1.54,4.08,3.9,4.08c.85,0,1.44-.12,1.74-.27v-3.01h-2.05v-1.05h3.33v4.86Z"/>
      <path class="cls-1" d="M458.44,165.54c.33-.88.73-2.49.9-3.58l1.47-.15c-.34,1.27-1,2.94-1.42,3.64l-.94.09Z"/>
      <path class="cls-1" d="M469.51,163.36c-.48.24-1.44.48-2.67.48-2.85,0-5-1.8-5-5.12s2.15-5.31,5.28-5.31c1.26,0,2.05.27,2.4.45l-.31,1.06c-.5-.24-1.2-.42-2.04-.42-2.37,0-3.95,1.51-3.95,4.17,0,2.47,1.42,4.06,3.88,4.06.79,0,1.61-.17,2.13-.42l.27,1.04Z"/>
      <path class="cls-1" d="M470.24,165.54c.33-.88.73-2.49.9-3.58l1.47-.15c-.34,1.27-1,2.94-1.42,3.64l-.94.09Z"/>
      <path class="cls-1" d="M474.25,153.59h5.44v1.09h-4.14v3.36h3.82v1.08h-3.82v4.58h-1.3v-10.11Z"/>
      <path class="cls-1" d="M483.44,153.4v11.97h-2.74v-.83h1.72v-10.32h-1.72v-.83h2.74Z"/>
      <path class="cls-1" d="M487.7,153.4v11.97h-2.74v-.83h1.72v-10.32h-1.72v-.83h2.74Z"/>
    </g>
    <polygon class="cls-3" points="416.3 71.34 430.6 135.93 493.33 91.3 416.3 71.34"/>
    <line class="cls-6" x1="416.91" y1="75.38" x2="428.91" y2="137.38"/>
    <line class="cls-6" x1="493.91" y1="89.38" x2="428.91" y2="137.38"/>
    <line class="cls-6" x1="416.91" y1="71.38" x2="493.91" y2="89.38"/>
    <g>
      <circle class="cls-1" cx="492.13" cy="88.8" r="7.75"/>
      <path class="cls-3" d="M490.46,85.61h3.63v.73h-2.76v2.24h2.55v.72h-2.55v3.05h-.87v-6.74Z"/>
    </g>
    <g>
      <circle class="cls-1" cx="427.13" cy="136.8" r="7.75"/>
      <path class="cls-3" d="M429.53,139.73c-.35.13-1.04.33-1.86.33-.92,0-1.67-.23-2.27-.8-.52-.5-.85-1.31-.85-2.26,0-1.81,1.25-3.13,3.29-3.13.7,0,1.25.15,1.51.28l-.19.64c-.32-.14-.73-.26-1.34-.26-1.48,0-2.44.92-2.44,2.44s.93,2.45,2.34,2.45c.51,0,.86-.07,1.04-.16v-1.81h-1.23v-.63h2v2.92Z"/>
    </g>
    <g>
      <circle class="cls-1" cx="415.13" cy="71.8" r="7.75"/>
      <path class="cls-3" d="M416.92,72.19h-2.62v2.43h2.92v.73h-3.79v-6.74h3.64v.73h-2.77v2.13h2.62v.72Z"/>
    </g>
  </g>
</svg>