<?xml version="1.0" encoding="UTF-8"?>
<svg id="Shell" xmlns="http://www.w3.org/2000/svg" viewBox="0 0 852.58 424.6">
  <defs>
    <style>
      .cls-1 {
        stroke-dasharray: 6.65 2.22;
      }

      .cls-1, .cls-2, .cls-3, .cls-4, .cls-5, .cls-6, .cls-7, .cls-8, .cls-9 {
        fill: none;
      }

      .cls-1, .cls-2, .cls-4, .cls-5, .cls-6, .cls-10, .cls-7, .cls-8, .cls-9 {
        stroke-miterlimit: 10;
      }

      .cls-1, .cls-5, .cls-6, .cls-8, .cls-9 {
        stroke-width: 3px;
      }

      .cls-1, .cls-5, .cls-9 {
        stroke: #c92027;
      }

      .cls-11 {
        fill: #231f20;
      }

      .cls-12, .cls-13, .cls-10 {
        opacity: .31;
      }

      .cls-12, .cls-10 {
        fill: #6dbae7;
      }

      .cls-14 {
        fill: #fff;
      }

      .cls-2 {
        stroke: #9b9a9a;
      }

      .cls-2, .cls-4, .cls-7 {
        stroke-width: 2.83px;
      }

      .cls-15 {
        fill: #9b9a9a;
      }

      .cls-4, .cls-6, .cls-10, .cls-7, .cls-8 {
        stroke: #437898;
      }

      .cls-6 {
        stroke-dasharray: 6;
      }

      .cls-13 {
        fill: #437898;
      }

      .cls-10 {
        stroke-width: .75px;
      }

      .cls-7 {
        stroke-dasharray: 5.67;
      }

      .cls-9 {
        stroke-dasharray: 5.4 1.8;
      }
    </style>
  </defs>
  <g>
    <path class="cls-12" d="M180.76,242.16H56.76c-.72-38.2-1.44-76.39-2.17-114.59,42.06-.14,84.11-.27,126.17-.41v115Z"/>
    <polyline class="cls-12" points="54.76 127.16 54.76 127.16 56.26 242.66 33.81 275.3 35.26 157.66 56.76 127.16"/>
    <line class="cls-4" x1="181.26" y1="127.66" x2="56.26" y2="127.66"/>
    <line class="cls-4" x1="158.26" y1="157.66" x2="181.26" y2="127.66"/>
    <line class="cls-4" x1="162.26" y1="277.66" x2="182.26" y2="243.66"/>
    <line class="cls-4" x1="181.26" y1="127.66" x2="181.26" y2="243.66"/>
    <line class="cls-7" x1="56.26" y1="127.66" x2="56.26" y2="242.66"/>
    <line class="cls-4" x1="35.02" y1="157.1" x2="58.02" y2="127.1"/>
    <line class="cls-7" x1="181.26" y1="242.66" x2="54.26" y2="242.66"/>
    <polyline class="cls-7" points="56.26 242.66 36.26 273.66 56.26 242.66"/>
    <polyline class="cls-12" points="34.89 274.98 56.26 242.66 181.26 243.66 161.26 274.66"/>
    <polygon class="cls-12" points="159.89 157.98 180.47 128.59 179.42 246.17 159.27 275.19 159.89 157.98"/>
    <polyline class="cls-6" points="38.26 161.17 93.59 319.57 55.48 128.16"/>
    <polyline class="cls-6" points="180.76 127.16 90.59 318.57 154.21 160.17"/>
    <polygon class="cls-10" points="78.09 275.07 92.09 314.07 111.09 275.07 78.09 275.07"/>
    <polygon class="cls-10" points="78.82 276.07 92.82 315.07 111.82 276.07 78.82 276.07"/>
    <line class="cls-8" x1="54.59" y1="127.57" x2="61.59" y2="156.57"/>
    <line class="cls-8" x1="78.09" y1="275.07" x2="92.09" y2="316.07"/>
    <line class="cls-8" x1="85.09" y1="275.07" x2="92.09" y2="314.07"/>
    <line class="cls-8" x1="111.09" y1="275.07" x2="92.09" y2="316.07"/>
    <line class="cls-8" x1="107.09" y1="275.07" x2="90.09" y2="315.07"/>
    <g>
      <circle class="cls-11" cx="56.01" cy="126.41" r="7.75"/>
      <path class="cls-14" d="M57.79,126.8h-2.62v2.43h2.92v.73h-3.79v-6.74h3.64v.73h-2.77v2.13h2.62v.72Z"/>
    </g>
    <g>
      <circle class="cls-11" cx="180.89" cy="242.98" r="7.75"/>
      <path class="cls-14" d="M179.42,240.1v2.54h2.94v-2.54h.79v6.07h-.79v-2.84h-2.94v2.84h-.78v-6.07h.78Z"/>
    </g>
    <g>
      <circle class="cls-11" cx="54.89" cy="242.98" r="7.75"/>
      <path class="cls-14" d="M53.21,239.79h3.63v.73h-2.76v2.24h2.55v.72h-2.55v3.05h-.87v-6.74Z"/>
    </g>
    <g>
      <circle class="cls-11" cx="179.89" cy="125.98" r="7.75"/>
      <path class="cls-14" d="M182.28,128.9c-.35.13-1.04.33-1.86.33-.92,0-1.67-.23-2.27-.8-.52-.5-.85-1.31-.85-2.26,0-1.81,1.25-3.13,3.29-3.13.7,0,1.25.15,1.51.28l-.19.64c-.32-.14-.73-.26-1.34-.26-1.48,0-2.44.92-2.44,2.44s.93,2.45,2.34,2.45c.51,0,.87-.07,1.04-.16v-1.81h-1.23v-.63h2v2.92Z"/>
    </g>
    <rect class="cls-12" x="36.76" y="159.16" width="124" height="115"/>
    <rect class="cls-4" x="35.26" y="157.66" width="126" height="117"/>
    <g>
      <circle class="cls-11" cx="36.01" cy="158.41" r="7.75"/>
      <path class="cls-14" d="M34.8,159.84l-.7,2.12h-.9l2.29-6.74h1.05l2.3,6.74h-.93l-.72-2.12h-2.39ZM37,159.16l-.66-1.94c-.15-.44-.25-.84-.35-1.23h-.02c-.1.4-.21.81-.34,1.22l-.66,1.95h2.03Z"/>
    </g>
    <g>
      <circle class="cls-11" cx="160.89" cy="274.98" r="7.75"/>
      <path class="cls-14" d="M163.45,278.31c-.32.16-.96.32-1.78.32-1.9,0-3.33-1.2-3.33-3.41s1.43-3.54,3.52-3.54c.84,0,1.37.18,1.6.3l-.21.71c-.33-.16-.8-.28-1.36-.28-1.58,0-2.63,1.01-2.63,2.78,0,1.65.95,2.71,2.59,2.71.53,0,1.07-.11,1.42-.28l.18.69Z"/>
    </g>
    <g>
      <circle class="cls-11" cx="34.89" cy="274.98" r="7.75"/>
      <path class="cls-14" d="M32.94,271.88c.38-.08.98-.14,1.59-.14.87,0,1.43.15,1.85.49.35.26.56.66.56,1.19,0,.65-.43,1.22-1.14,1.48v.02c.64.16,1.39.69,1.39,1.69,0,.58-.23,1.02-.57,1.35-.47.43-1.23.63-2.33.63-.6,0-1.06-.04-1.35-.08v-6.63ZM33.81,274.64h.79c.92,0,1.46-.48,1.46-1.13,0-.79-.6-1.1-1.48-1.1-.4,0-.63.03-.77.06v2.17ZM33.81,277.87c.17.03.42.04.73.04.9,0,1.73-.33,1.73-1.31,0-.92-.79-1.3-1.74-1.3h-.72v2.57Z"/>
    </g>
    <g>
      <circle class="cls-11" cx="159.89" cy="157.98" r="7.75"/>
      <path class="cls-14" d="M157.57,155.18c.48-.07,1.04-.13,1.67-.13,1.12,0,1.93.26,2.46.76.54.49.86,1.2.86,2.18s-.31,1.8-.87,2.36c-.57.57-1.5.87-2.68.87-.56,0-1.03-.03-1.42-.07v-5.97ZM158.36,160.55c.2.04.49.04.79.04,1.67,0,2.58-.94,2.58-2.57,0-1.43-.8-2.34-2.46-2.34-.4,0-.71.04-.92.08v4.79Z"/>
    </g>
    <g>
      <circle class="cls-11" cx="92.9" cy="314.02" r="7.75"/>
      <path class="cls-14" d="M93.33,310.83v6.74h-.87v-6.74h.87Z"/>
    </g>
  </g>
  <g>
    <g>
      <line class="cls-2" x1="217.59" y1="317.07" x2="325.25" y2="317.07"/>
      <polygon class="cls-15" points="321.11 331.2 345.59 317.07 321.11 302.93 321.11 331.2"/>
    </g>
    <g>
      <rect class="cls-3" x="221.63" y="308.13" width="94.96" height="17.93"/>
      <path class="cls-11" d="M249.3,312.61l-.63,1.91h-.81l2.06-6.07h.95l2.07,6.07h-.84l-.65-1.91h-2.15ZM251.29,312l-.59-1.75c-.13-.4-.22-.76-.31-1.11h-.02c-.09.36-.19.73-.31,1.1l-.59,1.75h1.83Z"/>
      <path class="cls-11" d="M253.78,308.13h.79v6.39h-.79v-6.39Z"/>
      <path class="cls-11" d="M255.9,311.59c0-.56-.02-1.01-.04-1.42h.71l.04.75h.02c.32-.53.84-.85,1.55-.85,1.05,0,1.85.89,1.85,2.21,0,1.57-.95,2.34-1.98,2.34-.58,0-1.08-.25-1.34-.68h-.02v2.37h-.78v-4.72ZM256.68,312.75c0,.12.02.23.04.32.14.55.62.93,1.19.93.84,0,1.32-.68,1.32-1.68,0-.87-.46-1.62-1.3-1.62-.54,0-1.04.39-1.2.98-.03.1-.05.21-.05.32v.75Z"/>
      <path class="cls-11" d="M261.02,308.13h.79v2.72h.02c.13-.22.32-.42.57-.56.23-.13.51-.23.81-.23.58,0,1.52.36,1.52,1.86v2.59h-.79v-2.5c0-.7-.26-1.3-1.01-1.3-.51,0-.92.36-1.06.79-.05.11-.05.22-.05.38v2.63h-.79v-6.39Z"/>
      <path class="cls-11" d="M268.43,314.52l-.06-.55h-.03c-.24.34-.71.65-1.33.65-.88,0-1.33-.62-1.33-1.25,0-1.05.94-1.63,2.62-1.62v-.09c0-.36-.1-1.01-.99-1.01-.41,0-.83.13-1.13.32l-.18-.52c.36-.23.88-.39,1.43-.39,1.33,0,1.66.91,1.66,1.78v1.63c0,.38.02.75.07,1.04h-.72ZM268.31,312.3c-.86-.02-1.85.13-1.85.98,0,.51.34.76.75.76.57,0,.93-.36,1.05-.73.03-.08.04-.17.04-.25v-.76Z"/>
      <path class="cls-11" d="M272.58,310.16l.58,2.21c.13.49.24.94.32,1.39h.03c.1-.44.24-.91.39-1.38l.71-2.22h.67l.67,2.18c.16.52.29.98.39,1.42h.03c.07-.44.19-.9.33-1.41l.62-2.19h.78l-1.4,4.36h-.72l-.67-2.08c-.15-.49-.28-.92-.39-1.43h-.02c-.11.52-.24.97-.4,1.44l-.7,2.07h-.72l-1.31-4.36h.81Z"/>
      <path class="cls-11" d="M278.89,311.52c0-.51,0-.95-.04-1.36h.69l.03.86h.04c.2-.58.68-.95,1.21-.95.09,0,.15,0,.22.03v.75c-.08-.02-.16-.03-.27-.03-.56,0-.96.42-1.06,1.02-.02.11-.04.23-.04.37v2.32h-.78v-3Z"/>
      <path class="cls-11" d="M284.2,314.52l-.06-.55h-.03c-.24.34-.71.65-1.33.65-.88,0-1.33-.62-1.33-1.25,0-1.05.94-1.63,2.62-1.62v-.09c0-.36-.1-1.01-.99-1.01-.41,0-.83.13-1.13.32l-.18-.52c.36-.23.88-.39,1.43-.39,1.33,0,1.66.91,1.66,1.78v1.63c0,.38.02.75.07,1.04h-.72ZM284.08,312.3c-.86-.02-1.85.13-1.85.98,0,.51.34.76.75.76.57,0,.93-.36,1.05-.73.03-.08.04-.17.04-.25v-.76Z"/>
      <path class="cls-11" d="M286.12,311.59c0-.56-.02-1.01-.04-1.42h.71l.04.75h.02c.32-.53.84-.85,1.55-.85,1.05,0,1.85.89,1.85,2.21,0,1.57-.95,2.34-1.98,2.34-.58,0-1.08-.25-1.34-.68h-.02v2.37h-.78v-4.72ZM286.91,312.75c0,.12.02.23.04.32.14.55.62.93,1.19.93.84,0,1.32-.68,1.32-1.68,0-.87-.46-1.62-1.3-1.62-.54,0-1.04.39-1.2.98-.03.1-.05.21-.05.32v.75Z"/>
    </g>
  </g>
  <g>
    <rect class="cls-3" x="203.69" y="213.26" width="114.68" height="30.64"/>
    <path class="cls-15" d="M204.37,213.66c.34-.07.88-.13,1.43-.13.78,0,1.29.14,1.67.44.32.23.5.59.5,1.07,0,.58-.39,1.1-1.03,1.33v.02c.58.14,1.25.62,1.25,1.52,0,.52-.21.92-.51,1.22-.42.39-1.11.57-2.1.57-.54,0-.95-.04-1.21-.07v-5.97ZM205.15,216.14h.71c.83,0,1.31-.43,1.31-1.02,0-.71-.54-.99-1.33-.99-.36,0-.57.03-.69.05v1.95ZM205.15,219.05c.15.03.38.04.66.04.81,0,1.56-.3,1.56-1.18,0-.83-.71-1.17-1.57-1.17h-.65v2.31Z"/>
    <path class="cls-15" d="M211.63,219.65l-.06-.55h-.03c-.24.34-.71.65-1.33.65-.88,0-1.33-.62-1.33-1.25,0-1.05.94-1.63,2.62-1.62v-.09c0-.36-.1-1.01-.99-1.01-.41,0-.83.13-1.13.32l-.18-.52c.36-.23.88-.39,1.43-.39,1.33,0,1.66.91,1.66,1.78v1.63c0,.38.02.75.07,1.04h-.72ZM211.52,217.42c-.86-.02-1.85.13-1.85.98,0,.51.34.76.75.76.57,0,.93-.36,1.05-.73.03-.08.04-.17.04-.25v-.76Z"/>
    <path class="cls-15" d="M213.45,218.83c.23.15.65.32,1.04.32.58,0,.85-.29.85-.65s-.22-.58-.81-.8c-.78-.28-1.15-.71-1.15-1.23,0-.7.57-1.28,1.5-1.28.44,0,.83.13,1.07.27l-.2.58c-.17-.11-.49-.25-.89-.25-.47,0-.73.27-.73.59,0,.36.26.52.83.74.76.29,1.14.67,1.14,1.31,0,.77-.59,1.31-1.63,1.31-.48,0-.92-.12-1.22-.3l.2-.6Z"/>
    <path class="cls-15" d="M217.56,217.61c.02,1.07.7,1.51,1.49,1.51.57,0,.91-.1,1.21-.22l.14.57c-.28.13-.76.27-1.45.27-1.34,0-2.14-.88-2.14-2.2s.77-2.35,2.04-2.35c1.42,0,1.8,1.25,1.8,2.05,0,.16-.02.29-.03.37h-3.06ZM219.89,217.04c0-.5-.21-1.29-1.1-1.29-.8,0-1.15.74-1.21,1.29h2.31Z"/>
    <path class="cls-15" d="M225.39,213.25v5.27c0,.39,0,.83.04,1.12h-.71l-.04-.76h-.02c-.24.49-.77.85-1.49.85-1.05,0-1.86-.89-1.86-2.21,0-1.45.89-2.34,1.95-2.34.67,0,1.12.31,1.31.67h.02v-2.6h.79ZM224.6,217.06c0-.1,0-.23-.04-.33-.12-.5-.55-.92-1.14-.92-.82,0-1.3.72-1.3,1.68,0,.88.43,1.61,1.29,1.61.53,0,1.02-.35,1.16-.95.03-.11.04-.22.04-.34v-.76Z"/>
    <path class="cls-15" d="M232.56,217.43c0,1.61-1.12,2.31-2.17,2.31-1.18,0-2.09-.86-2.09-2.24,0-1.46.95-2.31,2.16-2.31s2.1.91,2.1,2.24ZM229.1,217.48c0,.95.55,1.67,1.32,1.67s1.32-.71,1.32-1.69c0-.74-.37-1.67-1.31-1.67s-1.34.86-1.34,1.69Z"/>
    <path class="cls-15" d="M233.56,216.47c0-.45,0-.82-.04-1.18h.7l.04.72h.02c.22-.41.72-.82,1.44-.82.6,0,1.54.36,1.54,1.85v2.6h-.79v-2.51c0-.7-.26-1.29-1.01-1.29-.52,0-.93.37-1.06.81-.04.1-.05.23-.05.37v2.62h-.79v-3.18Z"/>
    <path class="cls-15" d="M244.11,218.46c0,.45,0,.85.04,1.19h-.7l-.04-.71h-.02c-.21.35-.67.81-1.44.81-.68,0-1.5-.38-1.5-1.91v-2.55h.79v2.41c0,.83.25,1.39.97,1.39.53,0,.9-.37,1.04-.72.04-.12.07-.26.07-.41v-2.67h.79v3.17Z"/>
    <path class="cls-15" d="M245.31,218.83c.23.15.65.32,1.04.32.58,0,.85-.29.85-.65s-.22-.58-.81-.8c-.78-.28-1.15-.71-1.15-1.23,0-.7.57-1.28,1.5-1.28.44,0,.83.13,1.07.27l-.2.58c-.17-.11-.49-.25-.89-.25-.47,0-.73.27-.73.59,0,.36.26.52.83.74.76.29,1.14.67,1.14,1.31,0,.77-.59,1.31-1.63,1.31-.48,0-.92-.12-1.22-.3l.2-.6Z"/>
    <path class="cls-15" d="M249.43,217.61c.02,1.07.7,1.51,1.49,1.51.57,0,.91-.1,1.21-.22l.14.57c-.28.13-.76.27-1.45.27-1.34,0-2.14-.88-2.14-2.2s.77-2.35,2.04-2.35c1.42,0,1.8,1.25,1.8,2.05,0,.16-.02.29-.03.37h-3.06ZM251.75,217.04c0-.5-.21-1.29-1.1-1.29-.8,0-1.15.74-1.21,1.29h2.31Z"/>
    <path class="cls-15" d="M253.49,216.65c0-.51,0-.95-.04-1.36h.69l.03.86h.04c.2-.58.68-.95,1.21-.95.09,0,.15,0,.22.03v.75c-.08-.02-.16-.03-.27-.03-.56,0-.95.42-1.06,1.02-.02.11-.04.23-.04.37v2.32h-.78v-3Z"/>
    <path class="cls-15" d="M258.34,216.65c0-.51,0-.95-.04-1.36h.69l.03.86h.04c.2-.58.68-.95,1.21-.95.09,0,.15,0,.22.03v.75c-.08-.02-.16-.03-.27-.03-.56,0-.95.42-1.06,1.02-.02.11-.04.23-.04.37v2.32h-.78v-3Z"/>
    <path class="cls-15" d="M261.64,217.61c.02,1.07.7,1.51,1.49,1.51.57,0,.91-.1,1.21-.22l.14.57c-.28.13-.76.27-1.45.27-1.34,0-2.14-.88-2.14-2.2s.77-2.35,2.04-2.35c1.42,0,1.8,1.25,1.8,2.05,0,.16-.02.29-.03.37h-3.06ZM263.96,217.04c0-.5-.21-1.29-1.1-1.29-.8,0-1.15.74-1.21,1.29h2.31Z"/>
    <path class="cls-15" d="M268.68,218.97h-.02c-.23.43-.72.77-1.42.77-1.02,0-1.85-.88-1.85-2.21,0-1.63,1.05-2.35,1.97-2.35.68,0,1.13.33,1.34.76h.02l.03-.66h.75c-.02.37-.03.75-.03,1.2v4.94h-.79v-2.46ZM268.68,217.05c0-.11,0-.23-.04-.33-.12-.49-.54-.9-1.13-.9-.82,0-1.31.69-1.31,1.67,0,.86.41,1.62,1.29,1.62.51,0,.95-.32,1.13-.86.04-.11.06-.26.06-.38v-.82Z"/>
    <path class="cls-15" d="M274.42,218.46c0,.45,0,.85.04,1.19h-.7l-.04-.71h-.02c-.21.35-.67.81-1.44.81-.68,0-1.5-.38-1.5-1.91v-2.55h.79v2.41c0,.83.25,1.39.97,1.39.53,0,.9-.37,1.04-.72.04-.12.07-.26.07-.41v-2.67h.79v3.17Z"/>
    <path class="cls-15" d="M276.61,214.06c0,.27-.19.49-.5.49-.28,0-.48-.22-.48-.49s.21-.5.5-.5.49.22.49.5ZM275.73,219.65v-4.36h.79v4.36h-.79Z"/>
    <path class="cls-15" d="M277.84,216.65c0-.51,0-.95-.04-1.36h.69l.03.86h.04c.2-.58.68-.95,1.21-.95.09,0,.15,0,.22.03v.75c-.08-.02-.16-.03-.27-.03-.56,0-.96.42-1.06,1.02-.02.11-.04.23-.04.37v2.32h-.78v-3Z"/>
    <path class="cls-15" d="M281.13,217.61c.02,1.07.7,1.51,1.49,1.51.57,0,.91-.1,1.21-.22l.14.57c-.28.13-.76.27-1.45.27-1.34,0-2.14-.88-2.14-2.2s.77-2.35,2.04-2.35c1.42,0,1.8,1.25,1.8,2.05,0,.16-.02.29-.03.37h-3.06ZM283.45,217.04c0-.5-.21-1.29-1.1-1.29-.8,0-1.15.74-1.21,1.29h2.31Z"/>
    <path class="cls-15" d="M285.2,216.47c0-.45,0-.82-.04-1.18h.69l.04.7h.03c.24-.41.65-.8,1.37-.8.59,0,1.04.36,1.23.87h.02c.13-.24.31-.43.49-.57.26-.2.55-.31.96-.31.58,0,1.43.38,1.43,1.89v2.57h-.77v-2.47c0-.84-.31-1.34-.95-1.34-.45,0-.8.33-.94.72-.04.11-.06.25-.06.4v2.69h-.77v-2.61c0-.69-.31-1.2-.91-1.2-.5,0-.86.4-.98.79-.04.12-.06.25-.06.39v2.63h-.77v-3.18Z"/>
    <path class="cls-15" d="M293.15,217.61c.02,1.07.7,1.51,1.49,1.51.57,0,.91-.1,1.21-.22l.14.57c-.28.13-.76.27-1.45.27-1.34,0-2.14-.88-2.14-2.2s.77-2.35,2.04-2.35c1.42,0,1.8,1.25,1.8,2.05,0,.16-.02.29-.03.37h-3.06ZM295.47,217.04c0-.5-.21-1.29-1.1-1.29-.8,0-1.15.74-1.21,1.29h2.31Z"/>
    <path class="cls-15" d="M297.21,216.47c0-.45,0-.82-.04-1.18h.7l.04.72h.02c.22-.41.72-.82,1.44-.82.6,0,1.54.36,1.54,1.85v2.6h-.79v-2.51c0-.7-.26-1.29-1.01-1.29-.52,0-.93.37-1.06.81-.04.1-.05.23-.05.37v2.62h-.79v-3.18Z"/>
    <path class="cls-15" d="M303.13,214.04v1.25h1.13v.6h-1.13v2.35c0,.54.15.85.59.85.21,0,.36-.03.46-.05l.04.59c-.15.06-.4.11-.7.11-.37,0-.67-.12-.86-.33-.23-.23-.31-.62-.31-1.13v-2.38h-.67v-.6h.67v-1.04l.77-.21Z"/>
    <path class="cls-15" d="M305.04,218.83c.23.15.65.32,1.04.32.58,0,.85-.29.85-.65s-.22-.58-.81-.8c-.78-.28-1.15-.71-1.15-1.23,0-.7.57-1.28,1.5-1.28.44,0,.83.13,1.07.27l-.2.58c-.17-.11-.49-.25-.89-.25-.47,0-.73.27-.73.59,0,.36.26.52.83.74.76.29,1.14.67,1.14,1.31,0,.77-.59,1.31-1.63,1.31-.48,0-.92-.12-1.22-.3l.2-.6Z"/>
  </g>
  <g>
    <g>
      <line class="cls-2" x1="538.59" y1="140.07" x2="646.25" y2="140.07"/>
      <polygon class="cls-15" points="642.11 154.2 666.59 140.07 642.11 125.93 642.11 154.2"/>
    </g>
    <g>
      <rect class="cls-3" x="542.63" y="131.13" width="94.96" height="17.93"/>
      <path class="cls-11" d="M560.3,136.57c.35.21.86.4,1.4.4.8,0,1.27-.42,1.27-1.04,0-.57-.32-.89-1.14-1.21-.99-.35-1.6-.87-1.6-1.72,0-.95.78-1.65,1.96-1.65.62,0,1.07.14,1.34.3l-.22.64c-.2-.11-.6-.29-1.15-.29-.83,0-1.14.49-1.14.91,0,.57.37.85,1.21,1.17,1.03.4,1.55.89,1.55,1.78,0,.94-.69,1.75-2.12,1.75-.58,0-1.22-.17-1.55-.39l.2-.66Z"/>
      <path class="cls-11" d="M564.82,134.59c0-.56-.02-1.01-.04-1.42h.71l.04.75h.02c.32-.53.84-.85,1.55-.85,1.05,0,1.85.89,1.85,2.21,0,1.57-.95,2.34-1.98,2.34-.58,0-1.08-.25-1.34-.68h-.02v2.37h-.78v-4.72ZM565.6,135.75c0,.12.02.23.04.32.14.55.62.93,1.19.93.84,0,1.32-.68,1.32-1.68,0-.87-.46-1.62-1.3-1.62-.54,0-1.04.39-1.2.98-.03.1-.05.21-.05.32v.75Z"/>
      <path class="cls-11" d="M569.94,131.13h.79v6.39h-.79v-6.39Z"/>
      <path class="cls-11" d="M572.95,131.94c0,.27-.19.49-.5.49-.28,0-.48-.21-.48-.49s.21-.5.5-.5.49.22.49.5ZM572.06,137.52v-4.36h.79v4.36h-.79Z"/>
      <path class="cls-11" d="M575.12,131.91v1.25h1.13v.6h-1.13v2.35c0,.54.15.85.59.85.21,0,.36-.03.46-.05l.04.59c-.15.06-.4.11-.7.11-.37,0-.67-.12-.86-.33-.23-.23-.31-.62-.31-1.13v-2.38h-.67v-.6h.67v-1.04l.77-.21Z"/>
      <path class="cls-11" d="M579.94,131.94c0,.27-.19.49-.5.49-.28,0-.48-.21-.48-.49s.21-.5.5-.5.49.22.49.5ZM579.06,137.52v-4.36h.79v4.36h-.79Z"/>
      <path class="cls-11" d="M581.16,134.34c0-.45,0-.82-.04-1.18h.7l.04.72h.02c.22-.41.72-.82,1.44-.82.6,0,1.54.36,1.54,1.85v2.6h-.79v-2.51c0-.7-.26-1.29-1.01-1.29-.52,0-.93.37-1.06.81-.04.1-.05.23-.05.37v2.62h-.79v-3.18Z"/>
      <path class="cls-11" d="M587.07,131.91v1.25h1.13v.6h-1.13v2.35c0,.54.15.85.59.85.21,0,.36-.03.46-.05l.04.59c-.15.06-.4.11-.7.11-.37,0-.67-.12-.86-.33-.23-.23-.31-.62-.31-1.13v-2.38h-.67v-.6h.67v-1.04l.77-.21Z"/>
      <path class="cls-11" d="M592.99,135.31c0,1.61-1.12,2.31-2.17,2.31-1.18,0-2.09-.86-2.09-2.24,0-1.46.96-2.31,2.16-2.31s2.1.91,2.1,2.24ZM589.53,135.35c0,.95.55,1.67,1.32,1.67s1.32-.71,1.32-1.69c0-.74-.37-1.67-1.31-1.67s-1.34.86-1.34,1.69Z"/>
      <path class="cls-11" d="M595.64,137.52v-.49l.62-.6c1.49-1.42,2.17-2.18,2.18-3.06,0-.59-.29-1.14-1.16-1.14-.53,0-.97.27-1.24.5l-.25-.56c.41-.34.98-.59,1.66-.59,1.26,0,1.79.86,1.79,1.7,0,1.08-.78,1.95-2.02,3.14l-.47.43v.02h2.63v.66h-3.74Z"/>
      <path class="cls-11" d="M602.34,136.57c.35.21.86.4,1.4.4.8,0,1.27-.42,1.27-1.04,0-.57-.32-.89-1.14-1.21-.99-.35-1.6-.87-1.6-1.72,0-.95.78-1.65,1.96-1.65.62,0,1.07.14,1.34.3l-.22.64c-.2-.11-.6-.29-1.15-.29-.83,0-1.14.49-1.14.91,0,.57.37.85,1.21,1.17,1.03.4,1.55.89,1.55,1.78,0,.94-.69,1.75-2.12,1.75-.58,0-1.22-.17-1.55-.39l.2-.66Z"/>
      <path class="cls-11" d="M610.85,135.31c0,1.61-1.12,2.31-2.17,2.31-1.18,0-2.09-.86-2.09-2.24,0-1.46.96-2.31,2.16-2.31s2.1.91,2.1,2.24ZM607.4,135.35c0,.95.55,1.67,1.32,1.67s1.32-.71,1.32-1.69c0-.74-.37-1.67-1.31-1.67s-1.34.86-1.34,1.69Z"/>
      <path class="cls-11" d="M611.85,131.13h.79v6.39h-.79v-6.39Z"/>
      <path class="cls-11" d="M614.86,131.94c0,.27-.19.49-.5.49-.28,0-.48-.21-.48-.49s.21-.5.5-.5.49.22.49.5ZM613.98,137.52v-4.36h.79v4.36h-.79Z"/>
      <path class="cls-11" d="M619.84,131.13v5.27c0,.39,0,.83.04,1.12h-.71l-.04-.76h-.02c-.24.49-.77.86-1.49.86-1.05,0-1.86-.89-1.86-2.21,0-1.45.89-2.34,1.95-2.34.67,0,1.12.32,1.31.67h.02v-2.6h.79ZM619.05,134.94c0-.1,0-.23-.04-.33-.12-.5-.55-.92-1.14-.92-.82,0-1.3.72-1.3,1.68,0,.88.43,1.61,1.29,1.61.53,0,1.02-.35,1.16-.95.03-.11.04-.22.04-.34v-.76Z"/>
    </g>
  </g>
  <g>
    <g>
      <line class="cls-2" x1="538.59" y1="41.07" x2="646.25" y2="41.07"/>
      <polygon class="cls-15" points="642.11 55.2 666.59 41.07 642.11 26.93 642.11 55.2"/>
    </g>
    <g>
      <rect class="cls-3" x="542.63" y="32.13" width="94.96" height="17.93"/>
      <path class="cls-11" d="M553.53,35.86c-.04-.85-.1-1.86-.09-2.62h-.03c-.21.71-.46,1.47-.77,2.3l-1.07,2.94h-.59l-.98-2.89c-.29-.86-.53-1.64-.7-2.36h-.02c-.02.76-.06,1.77-.12,2.68l-.16,2.6h-.75l.42-6.07h1l1.04,2.93c.25.75.46,1.41.61,2.04h.03c.15-.61.37-1.28.64-2.04l1.08-2.93h1l.38,6.07h-.76l-.15-2.66Z"/>
      <path class="cls-11" d="M558.1,38.52l-.06-.55h-.03c-.24.34-.71.65-1.33.65-.88,0-1.33-.62-1.33-1.25,0-1.05.94-1.63,2.62-1.62v-.09c0-.36-.1-1.01-.99-1.01-.41,0-.83.13-1.13.32l-.18-.52c.36-.23.88-.39,1.43-.39,1.33,0,1.66.91,1.66,1.78v1.63c0,.38.02.75.07,1.04h-.72ZM557.98,36.3c-.86-.02-1.85.13-1.85.98,0,.51.34.76.75.76.57,0,.93-.36,1.05-.73.03-.08.04-.17.04-.25v-.76Z"/>
      <path class="cls-11" d="M560.81,36.16h.02c.11-.15.26-.34.39-.5l1.28-1.5h.95l-1.68,1.79,1.92,2.57h-.96l-1.5-2.09-.41.45v1.64h-.78v-6.39h.78v4.03Z"/>
      <path class="cls-11" d="M564.68,36.49c.02,1.07.7,1.51,1.49,1.51.57,0,.91-.1,1.21-.22l.14.57c-.28.13-.76.27-1.45.27-1.34,0-2.14-.88-2.14-2.2s.77-2.35,2.04-2.35c1.42,0,1.8,1.25,1.8,2.05,0,.16-.02.29-.03.37h-3.06ZM567.01,35.92c0-.5-.21-1.29-1.1-1.29-.8,0-1.15.74-1.21,1.29h2.31Z"/>
      <path class="cls-11" d="M574.93,38.32c-.29.14-.86.29-1.6.29-1.71,0-3-1.08-3-3.07s1.29-3.19,3.17-3.19c.76,0,1.23.16,1.44.27l-.19.64c-.3-.14-.72-.25-1.22-.25-1.42,0-2.37.91-2.37,2.5,0,1.48.86,2.44,2.33,2.44.48,0,.96-.1,1.28-.25l.16.62Z"/>
      <path class="cls-11" d="M579.72,36.31c0,1.61-1.12,2.31-2.17,2.31-1.18,0-2.09-.86-2.09-2.24,0-1.46.96-2.31,2.16-2.31s2.1.91,2.1,2.24ZM576.27,36.35c0,.95.55,1.67,1.32,1.67s1.32-.71,1.32-1.69c0-.74-.37-1.67-1.31-1.67s-1.34.86-1.34,1.69Z"/>
      <path class="cls-11" d="M580.72,35.34c0-.45,0-.82-.04-1.18h.69l.04.7h.03c.24-.41.65-.8,1.37-.8.59,0,1.04.36,1.23.87h.02c.13-.24.31-.43.49-.57.26-.2.55-.31.96-.31.58,0,1.43.38,1.43,1.89v2.57h-.77v-2.47c0-.84-.31-1.34-.95-1.34-.45,0-.8.33-.94.72-.04.11-.06.25-.06.4v2.69h-.77v-2.61c0-.69-.31-1.2-.91-1.2-.5,0-.86.4-.98.79-.04.12-.06.25-.06.39v2.63h-.77v-3.18Z"/>
      <path class="cls-11" d="M588.23,35.59c0-.56-.02-1.01-.04-1.42h.71l.04.75h.02c.32-.53.84-.85,1.55-.85,1.05,0,1.85.89,1.85,2.21,0,1.57-.95,2.34-1.98,2.34-.58,0-1.08-.25-1.34-.68h-.02v2.37h-.78v-4.72ZM589.01,36.75c0,.12.02.23.04.32.14.55.62.93,1.19.93.84,0,1.32-.68,1.32-1.68,0-.87-.46-1.62-1.3-1.62-.54,0-1.04.39-1.2.98-.03.1-.05.21-.05.32v.75Z"/>
      <path class="cls-11" d="M597.29,36.31c0,1.61-1.12,2.31-2.17,2.31-1.18,0-2.09-.86-2.09-2.24,0-1.46.96-2.31,2.16-2.31s2.1.91,2.1,2.24ZM593.84,36.35c0,.95.55,1.67,1.32,1.67s1.32-.71,1.32-1.69c0-.74-.37-1.67-1.31-1.67s-1.34.86-1.34,1.69Z"/>
      <path class="cls-11" d="M598.18,37.71c.23.15.65.32,1.04.32.58,0,.85-.29.85-.65,0-.38-.22-.59-.81-.8-.78-.28-1.15-.71-1.15-1.23,0-.7.57-1.28,1.5-1.28.44,0,.83.13,1.07.27l-.2.58c-.17-.11-.49-.25-.89-.25-.47,0-.73.27-.73.59,0,.36.26.52.83.74.76.29,1.14.67,1.14,1.31,0,.77-.59,1.3-1.63,1.3-.48,0-.92-.12-1.22-.3l.2-.6Z"/>
      <path class="cls-11" d="M602.74,32.94c0,.27-.19.49-.5.49-.28,0-.48-.21-.48-.49s.21-.5.5-.5.49.22.49.5ZM601.86,38.52v-4.36h.79v4.36h-.79Z"/>
      <path class="cls-11" d="M604.91,32.91v1.25h1.13v.6h-1.13v2.35c0,.54.15.85.59.85.21,0,.36-.03.46-.05l.04.59c-.15.06-.4.11-.7.11-.37,0-.67-.12-.86-.33-.23-.23-.31-.62-.31-1.13v-2.38h-.67v-.6h.67v-1.04l.77-.21Z"/>
      <path class="cls-11" d="M607.33,36.49c.02,1.07.7,1.51,1.49,1.51.57,0,.91-.1,1.21-.22l.14.57c-.28.13-.76.27-1.45.27-1.34,0-2.14-.88-2.14-2.2s.77-2.35,2.04-2.35c1.42,0,1.8,1.25,1.8,2.05,0,.16-.02.29-.03.37h-3.06ZM609.65,35.92c0-.5-.21-1.29-1.1-1.29-.8,0-1.15.74-1.21,1.29h2.31Z"/>
      <path class="cls-11" d="M613.48,35.79v.58h-2.22v-.58h2.22Z"/>
      <path class="cls-11" d="M614.33,37.57c.35.21.86.4,1.4.4.8,0,1.27-.42,1.27-1.04,0-.57-.32-.89-1.14-1.21-.99-.35-1.6-.87-1.6-1.72,0-.95.78-1.65,1.96-1.65.62,0,1.07.14,1.34.3l-.22.64c-.2-.11-.6-.29-1.15-.29-.83,0-1.14.49-1.14.91,0,.57.37.85,1.21,1.17,1.03.4,1.55.89,1.55,1.78,0,.94-.69,1.75-2.12,1.75-.58,0-1.22-.17-1.55-.39l.2-.66Z"/>
      <path class="cls-11" d="M622.84,36.31c0,1.61-1.12,2.31-2.17,2.31-1.18,0-2.09-.86-2.09-2.24,0-1.46.95-2.31,2.16-2.31s2.1.91,2.1,2.24ZM619.39,36.35c0,.95.55,1.67,1.32,1.67s1.32-.71,1.32-1.69c0-.74-.37-1.67-1.31-1.67s-1.34.86-1.34,1.69Z"/>
      <path class="cls-11" d="M623.84,32.13h.79v6.39h-.79v-6.39Z"/>
      <path class="cls-11" d="M626.85,32.94c0,.27-.19.49-.5.49-.28,0-.48-.21-.48-.49s.21-.5.5-.5.49.22.49.5ZM625.96,38.52v-4.36h.79v4.36h-.79Z"/>
      <path class="cls-11" d="M631.83,32.13v5.27c0,.39,0,.83.04,1.12h-.71l-.04-.76h-.02c-.24.49-.77.86-1.49.86-1.05,0-1.86-.89-1.86-2.21,0-1.45.89-2.34,1.95-2.34.67,0,1.12.32,1.31.67h.02v-2.6h.79ZM631.04,35.94c0-.1,0-.23-.04-.33-.12-.5-.55-.92-1.14-.92-.82,0-1.31.72-1.31,1.68,0,.88.43,1.61,1.29,1.61.53,0,1.02-.35,1.16-.95.03-.11.04-.22.04-.34v-.76Z"/>
      <path class="cls-11" d="M562.87,44.97l.58,2.21c.13.49.24.94.32,1.39h.03c.1-.44.24-.91.39-1.38l.71-2.22h.67l.67,2.18c.16.52.29.98.39,1.42h.03c.07-.44.19-.9.33-1.41l.62-2.19h.78l-1.4,4.36h-.72l-.67-2.08c-.15-.49-.28-.92-.39-1.43h-.02c-.11.52-.24.97-.4,1.44l-.7,2.07h-.72l-1.31-4.36h.81Z"/>
      <path class="cls-11" d="M570.06,43.74c0,.27-.19.49-.5.49-.28,0-.48-.22-.48-.49s.21-.5.5-.5.49.22.49.5ZM569.18,49.32v-4.36h.79v4.36h-.79Z"/>
      <path class="cls-11" d="M572.24,43.71v1.25h1.13v.6h-1.13v2.35c0,.54.15.85.59.85.21,0,.36-.03.46-.05l.04.59c-.15.06-.4.11-.7.11-.37,0-.67-.12-.86-.33-.23-.23-.31-.62-.31-1.13v-2.38h-.67v-.6h.67v-1.04l.77-.21Z"/>
      <path class="cls-11" d="M574.26,42.93h.79v2.72h.02c.13-.22.32-.42.57-.56.23-.13.51-.22.81-.22.58,0,1.52.36,1.52,1.86v2.59h-.79v-2.5c0-.7-.26-1.3-1.01-1.3-.51,0-.92.36-1.06.79-.05.11-.05.23-.05.38v2.63h-.79v-6.39Z"/>
      <path class="cls-11" d="M582.12,43.71v1.25h1.13v.6h-1.13v2.35c0,.54.15.85.59.85.21,0,.36-.03.46-.05l.04.59c-.15.06-.4.11-.7.11-.37,0-.67-.12-.86-.33-.23-.23-.31-.62-.31-1.13v-2.38h-.67v-.6h.67v-1.04l.77-.21Z"/>
      <path class="cls-11" d="M584.54,44.97l.58,2.21c.13.49.24.94.32,1.39h.03c.1-.44.24-.91.39-1.38l.71-2.22h.67l.67,2.18c.16.52.29.98.39,1.42h.03c.07-.44.19-.9.33-1.41l.62-2.19h.78l-1.4,4.36h-.72l-.67-2.08c-.15-.49-.28-.92-.39-1.43h-.02c-.11.52-.24.97-.4,1.44l-.7,2.07h-.72l-1.31-4.36h.81Z"/>
      <path class="cls-11" d="M594.7,47.11c0,1.61-1.12,2.31-2.17,2.31-1.18,0-2.09-.86-2.09-2.24,0-1.46.95-2.31,2.16-2.31s2.1.91,2.1,2.24ZM591.25,47.15c0,.95.55,1.67,1.32,1.67s1.32-.71,1.32-1.69c0-.74-.37-1.68-1.31-1.68s-1.34.87-1.34,1.69Z"/>
      <path class="cls-11" d="M597.5,48.51c.23.15.65.31,1.04.31.58,0,.85-.29.85-.65s-.22-.58-.81-.8c-.78-.28-1.15-.71-1.15-1.23,0-.7.57-1.28,1.5-1.28.44,0,.83.13,1.07.27l-.2.58c-.17-.11-.49-.25-.89-.25-.47,0-.73.27-.73.59,0,.36.26.52.83.74.76.29,1.14.67,1.14,1.31,0,.76-.59,1.31-1.63,1.31-.48,0-.92-.12-1.22-.3l.2-.6Z"/>
      <path class="cls-11" d="M605.12,47.11c0,1.61-1.12,2.31-2.17,2.31-1.18,0-2.09-.86-2.09-2.24,0-1.46.95-2.31,2.16-2.31s2.1.91,2.1,2.24ZM601.66,47.15c0,.95.55,1.67,1.32,1.67s1.32-.71,1.32-1.69c0-.74-.37-1.68-1.31-1.68s-1.34.87-1.34,1.69Z"/>
      <path class="cls-11" d="M606.12,42.93h.79v6.39h-.79v-6.39Z"/>
      <path class="cls-11" d="M609.12,43.74c0,.27-.19.49-.5.49-.28,0-.48-.22-.48-.49s.21-.5.5-.5.49.22.49.5ZM608.24,49.32v-4.36h.79v4.36h-.79Z"/>
      <path class="cls-11" d="M614.11,42.93v5.27c0,.39,0,.83.04,1.13h-.71l-.04-.76h-.02c-.24.49-.77.86-1.49.86-1.05,0-1.86-.89-1.86-2.21,0-1.45.89-2.34,1.95-2.34.67,0,1.12.32,1.31.67h.02v-2.6h.79ZM613.32,46.74c0-.1,0-.23-.04-.33-.12-.5-.55-.92-1.14-.92-.82,0-1.31.72-1.31,1.68,0,.88.43,1.61,1.29,1.61.53,0,1.02-.35,1.16-.95.03-.11.04-.22.04-.34v-.76Z"/>
      <path class="cls-11" d="M615.31,48.51c.23.15.65.31,1.04.31.58,0,.85-.29.85-.65s-.22-.58-.81-.8c-.78-.28-1.15-.71-1.15-1.23,0-.7.57-1.28,1.5-1.28.44,0,.83.13,1.07.27l-.2.58c-.17-.11-.49-.25-.89-.25-.47,0-.73.27-.73.59,0,.36.26.52.83.74.76.29,1.14.67,1.14,1.31,0,.76-.59,1.31-1.63,1.31-.48,0-.92-.12-1.22-.3l.2-.6Z"/>
    </g>
  </g>
  <g>
    <path class="cls-12" d="M510.37,336.8h-124c-.72-38.2-1.44-76.39-2.17-114.59,42.06-.14,84.11-.27,126.17-.41v115Z"/>
    <polyline class="cls-12" points="384.37 221.8 384.37 221.8 385.87 337.3 363.42 369.94 364.87 252.3 386.37 221.8"/>
    <line class="cls-4" x1="510.87" y1="222.3" x2="385.87" y2="222.3"/>
    <line class="cls-4" x1="487.87" y1="252.3" x2="510.87" y2="222.3"/>
    <line class="cls-4" x1="491.87" y1="372.3" x2="511.87" y2="338.3"/>
    <line class="cls-4" x1="510.87" y1="222.3" x2="510.87" y2="338.3"/>
    <line class="cls-7" x1="385.87" y1="222.3" x2="385.87" y2="337.3"/>
    <line class="cls-4" x1="364.63" y1="251.75" x2="387.63" y2="221.75"/>
    <line class="cls-7" x1="510.87" y1="337.3" x2="383.87" y2="337.3"/>
    <polyline class="cls-7" points="385.87 337.3 365.87 368.3 385.87 337.3"/>
    <polyline class="cls-12" points="364.5 369.62 385.87 337.3 510.87 338.3 490.87 369.3"/>
    <polygon class="cls-12" points="489.5 252.62 510.09 223.23 509.04 340.81 488.88 369.83 489.5 252.62"/>
    <polyline class="cls-6" points="367.87 255.81 423.2 414.21 385.09 222.8"/>
    <polyline class="cls-6" points="510.37 221.8 420.2 413.21 483.82 254.81"/>
    <line class="cls-8" x1="384.2" y1="222.21" x2="391.2" y2="251.21"/>
    <polygon class="cls-12" points="364.87 369.3 492.04 369.62 423.2 410.97 364.87 369.3"/>
    <polyline class="cls-12" points="422.76 411.24 364.42 369.57 491.59 369.89"/>
    <line class="cls-8" x1="365.09" y1="371.07" x2="422.09" y2="410.07"/>
    <line class="cls-8" x1="425.09" y1="410.07" x2="488.09" y2="373.07"/>
    <line class="cls-6" x1="426.09" y1="404.07" x2="506.09" y2="339.07"/>
    <line class="cls-6" x1="386.09" y1="339.07" x2="421.09" y2="404.07"/>
    <g>
      <circle class="cls-11" cx="385.62" cy="221.05" r="7.75"/>
      <path class="cls-14" d="M387.41,221.44h-2.62v2.43h2.92v.73h-3.79v-6.74h3.64v.73h-2.77v2.13h2.62v.72Z"/>
    </g>
    <g>
      <circle class="cls-11" cx="510.5" cy="337.62" r="7.75"/>
      <path class="cls-14" d="M509.03,334.75v2.54h2.93v-2.54h.79v6.07h-.79v-2.84h-2.93v2.84h-.78v-6.07h.78Z"/>
    </g>
    <g>
      <circle class="cls-11" cx="384.5" cy="337.62" r="7.75"/>
      <path class="cls-14" d="M382.83,334.43h3.63v.73h-2.76v2.24h2.55v.72h-2.55v3.05h-.87v-6.74Z"/>
    </g>
    <g>
      <circle class="cls-11" cx="509.5" cy="220.62" r="7.75"/>
      <path class="cls-14" d="M511.9,223.54c-.35.13-1.04.33-1.86.33-.92,0-1.67-.23-2.27-.8-.52-.5-.85-1.31-.85-2.26,0-1.81,1.25-3.13,3.29-3.13.7,0,1.25.15,1.51.28l-.19.64c-.32-.14-.73-.26-1.34-.26-1.48,0-2.44.92-2.44,2.44s.93,2.45,2.34,2.45c.51,0,.86-.07,1.04-.16v-1.81h-1.23v-.63h2v2.92Z"/>
    </g>
    <rect class="cls-12" x="366.37" y="253.8" width="124" height="115"/>
    <rect class="cls-4" x="364.87" y="252.3" width="126" height="117"/>
    <g>
      <circle class="cls-11" cx="365.62" cy="253.05" r="7.75"/>
      <path class="cls-14" d="M364.41,254.48l-.7,2.12h-.9l2.29-6.74h1.05l2.3,6.74h-.93l-.72-2.12h-2.39ZM366.62,253.8l-.66-1.94c-.15-.44-.25-.84-.35-1.23h-.02c-.1.4-.21.81-.34,1.22l-.66,1.95h2.03Z"/>
    </g>
    <g>
      <circle class="cls-11" cx="490.5" cy="369.62" r="7.75"/>
      <path class="cls-14" d="M493.07,372.95c-.32.16-.96.32-1.78.32-1.9,0-3.33-1.2-3.33-3.41s1.43-3.54,3.52-3.54c.84,0,1.37.18,1.6.3l-.21.71c-.33-.16-.8-.28-1.36-.28-1.58,0-2.63,1.01-2.63,2.78,0,1.65.95,2.71,2.59,2.71.53,0,1.07-.11,1.42-.28l.18.69Z"/>
    </g>
    <g>
      <circle class="cls-11" cx="364.5" cy="369.62" r="7.75"/>
      <path class="cls-14" d="M362.55,366.52c.38-.08.98-.14,1.59-.14.87,0,1.43.15,1.85.49.35.26.56.66.56,1.19,0,.65-.43,1.22-1.14,1.48v.02c.64.16,1.39.69,1.39,1.69,0,.58-.23,1.02-.57,1.35-.47.43-1.23.63-2.33.63-.6,0-1.06-.04-1.35-.08v-6.63ZM363.42,369.28h.79c.92,0,1.46-.48,1.46-1.13,0-.79-.6-1.1-1.48-1.1-.4,0-.63.03-.77.06v2.17ZM363.42,372.51c.17.03.42.04.73.04.9,0,1.73-.33,1.73-1.31,0-.92-.79-1.3-1.74-1.3h-.72v2.57Z"/>
    </g>
    <g>
      <circle class="cls-11" cx="489.5" cy="252.62" r="7.75"/>
      <path class="cls-14" d="M487.19,249.83c.48-.07,1.04-.12,1.67-.12,1.12,0,1.93.26,2.46.76.54.5.85,1.2.85,2.18s-.31,1.8-.87,2.36c-.57.57-1.5.87-2.68.87-.56,0-1.03-.03-1.42-.07v-5.97ZM487.97,255.19c.2.04.49.04.79.04,1.67,0,2.58-.94,2.58-2.58,0-1.43-.8-2.34-2.46-2.34-.41,0-.71.04-.92.08v4.79Z"/>
    </g>
    <g>
      <circle class="cls-11" cx="422.51" cy="408.66" r="7.75"/>
      <path class="cls-14" d="M422.95,405.47v6.74h-.87v-6.74h.87Z"/>
    </g>
  </g>
  <g>
    <g>
      <path class="cls-12" d="M508.37,134.8h-124c-.72-38.2-1.44-76.39-2.17-114.59,42.06-.14,84.11-.27,126.17-.41v115Z"/>
      <polyline class="cls-12" points="382.37 19.8 382.37 19.8 383.87 135.3 361.42 167.94 362.87 50.3 384.37 19.8"/>
      <line class="cls-4" x1="508.87" y1="20.3" x2="383.87" y2="20.3"/>
      <line class="cls-4" x1="485.87" y1="50.3" x2="508.87" y2="20.3"/>
      <line class="cls-4" x1="489.87" y1="170.3" x2="509.87" y2="136.3"/>
      <line class="cls-4" x1="508.87" y1="20.3" x2="508.87" y2="136.3"/>
      <line class="cls-7" x1="383.87" y1="20.3" x2="383.87" y2="135.3"/>
      <line class="cls-4" x1="362.63" y1="49.75" x2="385.63" y2="19.75"/>
      <line class="cls-7" x1="508.87" y1="135.3" x2="381.87" y2="135.3"/>
      <polyline class="cls-7" points="383.87 135.3 363.87 166.3 383.87 135.3"/>
      <polyline class="cls-12" points="362.5 167.62 383.87 135.3 508.87 136.3 488.87 167.3"/>
      <polygon class="cls-12" points="487.5 50.62 508.09 21.23 507.04 138.81 486.88 167.83 487.5 50.62"/>
      <polyline class="cls-6" points="365.87 53.81 421.2 212.21 383.09 20.8"/>
      <polyline class="cls-6" points="508.37 19.8 418.2 211.21 481.82 52.81"/>
      <polygon class="cls-10" points="405.7 167.71 419.7 206.71 438.7 167.71 405.7 167.71"/>
      <polygon class="cls-10" points="406.44 168.71 420.44 207.71 439.44 168.71 406.44 168.71"/>
      <line class="cls-8" x1="382.2" y1="20.21" x2="389.2" y2="49.21"/>
      <line class="cls-8" x1="405.7" y1="167.71" x2="419.7" y2="208.71"/>
      <line class="cls-8" x1="412.7" y1="167.71" x2="419.7" y2="206.71"/>
      <line class="cls-8" x1="438.7" y1="167.71" x2="419.7" y2="208.71"/>
      <line class="cls-8" x1="434.7" y1="167.71" x2="417.7" y2="207.71"/>
      <g>
        <circle class="cls-11" cx="383.62" cy="19.05" r="7.75"/>
        <path class="cls-14" d="M385.41,19.44h-2.62v2.43h2.92v.73h-3.79v-6.74h3.64v.73h-2.77v2.13h2.62v.72Z"/>
      </g>
      <g>
        <circle class="cls-11" cx="508.5" cy="135.62" r="7.75"/>
        <path class="cls-14" d="M507.03,132.75v2.54h2.93v-2.54h.79v6.07h-.79v-2.84h-2.93v2.84h-.78v-6.07h.78Z"/>
      </g>
      <g>
        <circle class="cls-11" cx="382.5" cy="135.62" r="7.75"/>
        <path class="cls-14" d="M380.83,132.43h3.63v.73h-2.76v2.24h2.55v.72h-2.55v3.05h-.87v-6.74Z"/>
      </g>
      <g>
        <circle class="cls-11" cx="507.5" cy="18.62" r="7.75"/>
        <path class="cls-14" d="M509.9,21.54c-.35.13-1.04.33-1.86.33-.92,0-1.67-.23-2.27-.8-.52-.5-.85-1.31-.85-2.26,0-1.81,1.25-3.13,3.29-3.13.7,0,1.25.15,1.51.28l-.19.64c-.32-.14-.73-.26-1.34-.26-1.48,0-2.44.92-2.44,2.44s.93,2.45,2.34,2.45c.51,0,.86-.07,1.04-.16v-1.81h-1.23v-.63h2v2.92Z"/>
      </g>
      <rect class="cls-12" x="364.37" y="51.8" width="124" height="115"/>
      <rect class="cls-4" x="362.87" y="50.3" width="126" height="117"/>
      <g>
        <circle class="cls-11" cx="363.62" cy="51.05" r="7.75"/>
        <path class="cls-14" d="M362.41,52.48l-.7,2.12h-.9l2.29-6.74h1.05l2.3,6.74h-.93l-.72-2.12h-2.39ZM364.62,51.8l-.66-1.94c-.15-.44-.25-.84-.35-1.23h-.02c-.1.4-.21.81-.34,1.22l-.66,1.95h2.03Z"/>
      </g>
      <g>
        <circle class="cls-11" cx="488.5" cy="167.62" r="7.75"/>
        <path class="cls-14" d="M491.07,170.95c-.32.16-.96.32-1.78.32-1.9,0-3.33-1.2-3.33-3.41s1.43-3.54,3.52-3.54c.84,0,1.37.18,1.6.3l-.21.71c-.33-.16-.8-.28-1.36-.28-1.58,0-2.63,1.01-2.63,2.78,0,1.65.95,2.71,2.59,2.71.53,0,1.07-.11,1.42-.28l.18.69Z"/>
      </g>
      <g>
        <circle class="cls-11" cx="362.5" cy="167.62" r="7.75"/>
        <path class="cls-14" d="M360.55,164.52c.38-.08.98-.14,1.59-.14.87,0,1.43.15,1.85.49.35.26.56.66.56,1.19,0,.65-.43,1.22-1.14,1.48v.02c.64.16,1.39.69,1.39,1.69,0,.58-.23,1.02-.57,1.35-.47.43-1.23.63-2.33.63-.6,0-1.06-.04-1.35-.08v-6.63ZM361.42,167.28h.79c.92,0,1.46-.48,1.46-1.13,0-.79-.6-1.1-1.48-1.1-.4,0-.63.03-.77.06v2.17ZM361.42,170.51c.17.03.42.04.73.04.9,0,1.73-.33,1.73-1.31,0-.92-.79-1.3-1.74-1.3h-.72v2.57Z"/>
      </g>
      <g>
        <circle class="cls-11" cx="487.5" cy="50.62" r="7.75"/>
        <path class="cls-14" d="M485.19,47.83c.48-.07,1.04-.12,1.67-.12,1.12,0,1.93.26,2.46.76.54.5.85,1.2.85,2.18s-.31,1.8-.87,2.36c-.57.57-1.5.87-2.68.87-.56,0-1.03-.03-1.42-.07v-5.97ZM485.97,53.19c.2.04.49.04.79.04,1.67,0,2.58-.94,2.58-2.58,0-1.43-.8-2.34-2.46-2.34-.41,0-.71.04-.92.08v4.79Z"/>
      </g>
      <g>
        <circle class="cls-11" cx="420.51" cy="206.66" r="7.75"/>
        <path class="cls-14" d="M420.95,203.47v6.74h-.87v-6.74h.87Z"/>
      </g>
    </g>
    <g>
      <path class="cls-5" d="M439.59,149.61c1-.01,2-.03,3-.04l1.27,2.72"/>
      <polyline class="cls-5" points="444.1 152.79 445.37 155.5 442.37 155.58"/>
      <line class="cls-9" x1="440.57" y1="155.62" x2="405.49" y2="156.47"/>
      <path class="cls-5" d="M404.59,156.49l-3,.07c.71-.71,1.41-1.41,2.12-2.12"/>
      <path class="cls-1" d="M405.28,152.88c.94-.94,1.87-1.87,2.81-2.81,10.13-.15,20.26-.29,30.39-.44"/>
    </g>
  </g>
  <g>
    <rect class="cls-3" x="535.11" y="87.72" width="114.68" height="30.64"/>
    <path class="cls-15" d="M535.8,88.13c.34-.07.88-.13,1.43-.13.78,0,1.29.14,1.67.44.32.23.5.59.5,1.07,0,.58-.39,1.1-1.03,1.33v.02c.58.14,1.25.62,1.25,1.52,0,.52-.21.92-.51,1.22-.42.39-1.11.57-2.1.57-.54,0-.95-.04-1.21-.07v-5.97ZM536.58,90.61h.71c.83,0,1.31-.43,1.31-1.02,0-.71-.54-.99-1.33-.99-.36,0-.57.03-.69.05v1.95ZM536.58,93.52c.15.03.38.04.66.04.81,0,1.56-.3,1.56-1.18,0-.83-.71-1.17-1.57-1.17h-.65v2.31Z"/>
    <path class="cls-15" d="M543.06,94.11l-.06-.55h-.03c-.24.34-.71.65-1.33.65-.88,0-1.33-.62-1.33-1.25,0-1.05.94-1.63,2.62-1.62v-.09c0-.36-.1-1.01-.99-1.01-.41,0-.83.13-1.13.32l-.18-.52c.36-.23.88-.39,1.43-.39,1.33,0,1.66.91,1.66,1.78v1.63c0,.38.02.75.07,1.04h-.72ZM542.94,91.89c-.86-.02-1.85.13-1.85.98,0,.51.34.76.75.76.57,0,.93-.36,1.05-.73.03-.08.04-.17.04-.25v-.76Z"/>
    <path class="cls-15" d="M544.88,93.3c.23.15.65.32,1.04.32.58,0,.85-.29.85-.65s-.22-.58-.81-.8c-.78-.28-1.15-.71-1.15-1.23,0-.7.57-1.28,1.5-1.28.44,0,.83.13,1.07.27l-.2.58c-.17-.11-.49-.25-.89-.25-.47,0-.73.27-.73.59,0,.36.26.52.83.74.76.29,1.14.67,1.14,1.31,0,.77-.59,1.31-1.63,1.31-.48,0-.92-.12-1.22-.3l.2-.6Z"/>
    <path class="cls-15" d="M548.99,92.08c.02,1.07.7,1.51,1.49,1.51.57,0,.91-.1,1.21-.22l.14.57c-.28.13-.76.27-1.45.27-1.34,0-2.14-.88-2.14-2.2s.77-2.35,2.04-2.35c1.42,0,1.8,1.25,1.8,2.05,0,.16-.02.29-.03.37h-3.06ZM551.31,91.51c0-.5-.21-1.29-1.1-1.29-.8,0-1.15.74-1.21,1.29h2.31Z"/>
    <path class="cls-15" d="M556.82,87.72v5.27c0,.39,0,.83.04,1.12h-.71l-.04-.76h-.02c-.24.49-.77.85-1.49.85-1.05,0-1.86-.89-1.86-2.21,0-1.45.89-2.34,1.95-2.34.67,0,1.12.31,1.31.67h.02v-2.6h.79ZM556.03,91.53c0-.1,0-.23-.04-.33-.12-.5-.55-.92-1.14-.92-.82,0-1.3.72-1.3,1.68,0,.88.43,1.61,1.29,1.61.53,0,1.02-.35,1.16-.95.03-.11.04-.22.04-.34v-.76Z"/>
    <path class="cls-15" d="M563.99,91.9c0,1.61-1.12,2.31-2.17,2.31-1.18,0-2.09-.86-2.09-2.24,0-1.46.95-2.31,2.16-2.31s2.1.91,2.1,2.24ZM560.53,91.94c0,.95.55,1.67,1.32,1.67s1.32-.71,1.32-1.69c0-.74-.37-1.67-1.31-1.67s-1.34.86-1.34,1.69Z"/>
    <path class="cls-15" d="M564.98,90.94c0-.45,0-.82-.04-1.18h.7l.04.72h.02c.22-.41.72-.82,1.44-.82.6,0,1.54.36,1.54,1.85v2.6h-.79v-2.51c0-.7-.26-1.29-1.01-1.29-.52,0-.93.37-1.06.81-.04.1-.05.23-.05.37v2.62h-.79v-3.18Z"/>
    <path class="cls-15" d="M575.53,92.93c0,.45,0,.85.04,1.19h-.7l-.04-.71h-.02c-.21.35-.67.81-1.44.81-.68,0-1.5-.38-1.5-1.91v-2.55h.79v2.41c0,.83.25,1.39.97,1.39.53,0,.9-.37,1.04-.72.04-.12.07-.26.07-.41v-2.67h.79v3.17Z"/>
    <path class="cls-15" d="M576.74,93.3c.23.15.65.32,1.04.32.58,0,.85-.29.85-.65s-.22-.58-.81-.8c-.78-.28-1.15-.71-1.15-1.23,0-.7.57-1.28,1.5-1.28.44,0,.83.13,1.07.27l-.2.58c-.17-.11-.49-.25-.89-.25-.47,0-.73.27-.73.59,0,.36.26.52.83.74.76.29,1.14.67,1.14,1.31,0,.77-.59,1.31-1.63,1.31-.48,0-.92-.12-1.22-.3l.2-.6Z"/>
    <path class="cls-15" d="M580.85,92.08c.02,1.07.7,1.51,1.49,1.51.57,0,.91-.1,1.21-.22l.14.57c-.28.13-.76.27-1.45.27-1.34,0-2.14-.88-2.14-2.2s.77-2.35,2.04-2.35c1.42,0,1.8,1.25,1.8,2.05,0,.16-.02.29-.03.37h-3.06ZM583.17,91.51c0-.5-.21-1.29-1.1-1.29-.8,0-1.15.74-1.21,1.29h2.31Z"/>
    <path class="cls-15" d="M584.92,91.12c0-.51,0-.95-.04-1.36h.69l.03.86h.04c.2-.58.68-.95,1.21-.95.09,0,.15,0,.22.03v.75c-.08-.02-.16-.03-.27-.03-.56,0-.95.42-1.06,1.02-.02.11-.04.23-.04.37v2.32h-.78v-3Z"/>
    <path class="cls-15" d="M589.77,91.12c0-.51,0-.95-.04-1.36h.69l.03.86h.04c.2-.58.68-.95,1.21-.95.09,0,.15,0,.22.03v.75c-.08-.02-.16-.03-.27-.03-.56,0-.95.42-1.06,1.02-.02.11-.04.23-.04.37v2.32h-.78v-3Z"/>
    <path class="cls-15" d="M593.07,92.08c.02,1.07.7,1.51,1.49,1.51.57,0,.91-.1,1.21-.22l.14.57c-.28.13-.76.27-1.45.27-1.34,0-2.14-.88-2.14-2.2s.77-2.35,2.04-2.35c1.42,0,1.8,1.25,1.8,2.05,0,.16-.02.29-.03.37h-3.06ZM595.39,91.51c0-.5-.21-1.29-1.1-1.29-.8,0-1.15.74-1.21,1.29h2.31Z"/>
    <path class="cls-15" d="M600.1,93.44h-.02c-.23.43-.72.77-1.42.77-1.02,0-1.85-.88-1.85-2.21,0-1.63,1.05-2.35,1.97-2.35.68,0,1.13.33,1.34.76h.02l.03-.66h.75c-.02.37-.03.75-.03,1.2v4.94h-.79v-2.46ZM600.1,91.52c0-.11,0-.23-.04-.33-.12-.49-.54-.9-1.13-.9-.82,0-1.31.69-1.31,1.67,0,.86.41,1.62,1.29,1.62.51,0,.95-.32,1.13-.86.04-.11.06-.26.06-.38v-.82Z"/>
    <path class="cls-15" d="M605.85,92.93c0,.45,0,.85.04,1.19h-.7l-.04-.71h-.02c-.21.35-.67.81-1.44.81-.68,0-1.5-.38-1.5-1.91v-2.55h.79v2.41c0,.83.25,1.39.97,1.39.53,0,.9-.37,1.04-.72.04-.12.07-.26.07-.41v-2.67h.79v3.17Z"/>
    <path class="cls-15" d="M608.04,88.53c0,.27-.19.49-.5.49-.28,0-.48-.22-.48-.49s.21-.5.5-.5.49.22.49.5ZM607.16,94.11v-4.36h.79v4.36h-.79Z"/>
    <path class="cls-15" d="M609.26,91.12c0-.51,0-.95-.04-1.36h.69l.03.86h.04c.2-.58.68-.95,1.21-.95.09,0,.15,0,.22.03v.75c-.08-.02-.16-.03-.27-.03-.56,0-.96.42-1.06,1.02-.02.11-.04.23-.04.37v2.32h-.78v-3Z"/>
    <path class="cls-15" d="M612.56,92.08c.02,1.07.7,1.51,1.49,1.51.57,0,.91-.1,1.21-.22l.14.57c-.28.13-.76.27-1.45.27-1.34,0-2.14-.88-2.14-2.2s.77-2.35,2.04-2.35c1.42,0,1.8,1.25,1.8,2.05,0,.16-.02.29-.03.37h-3.06ZM614.88,91.51c0-.5-.21-1.29-1.1-1.29-.8,0-1.15.74-1.21,1.29h2.31Z"/>
    <path class="cls-15" d="M616.63,90.94c0-.45,0-.82-.04-1.18h.69l.04.7h.03c.24-.41.65-.8,1.37-.8.59,0,1.04.36,1.23.87h.02c.13-.24.31-.43.49-.57.26-.2.55-.31.96-.31.58,0,1.43.38,1.43,1.89v2.57h-.77v-2.47c0-.84-.31-1.34-.95-1.34-.45,0-.8.33-.94.72-.04.11-.06.25-.06.4v2.69h-.77v-2.61c0-.69-.31-1.2-.91-1.2-.5,0-.86.4-.98.79-.04.12-.06.25-.06.39v2.63h-.77v-3.18Z"/>
    <path class="cls-15" d="M624.57,92.08c.02,1.07.7,1.51,1.49,1.51.57,0,.91-.1,1.21-.22l.14.57c-.28.13-.76.27-1.45.27-1.34,0-2.14-.88-2.14-2.2s.77-2.35,2.04-2.35c1.42,0,1.8,1.25,1.8,2.05,0,.16-.02.29-.03.37h-3.06ZM626.9,91.51c0-.5-.21-1.29-1.1-1.29-.8,0-1.15.74-1.21,1.29h2.31Z"/>
    <path class="cls-15" d="M628.64,90.94c0-.45,0-.82-.04-1.18h.7l.04.72h.02c.22-.41.72-.82,1.44-.82.6,0,1.54.36,1.54,1.85v2.6h-.79v-2.51c0-.7-.26-1.29-1.01-1.29-.52,0-.93.37-1.06.81-.04.1-.05.23-.05.37v2.62h-.79v-3.18Z"/>
    <path class="cls-15" d="M634.55,88.51v1.25h1.13v.6h-1.13v2.35c0,.54.15.85.59.85.21,0,.36-.03.46-.05l.04.59c-.15.06-.4.11-.7.11-.37,0-.67-.12-.86-.33-.23-.23-.31-.62-.31-1.13v-2.38h-.67v-.6h.67v-1.04l.77-.21Z"/>
    <path class="cls-15" d="M636.47,93.3c.23.15.65.32,1.04.32.58,0,.85-.29.85-.65s-.22-.58-.81-.8c-.78-.28-1.15-.71-1.15-1.23,0-.7.57-1.28,1.5-1.28.44,0,.83.13,1.07.27l-.2.58c-.17-.11-.49-.25-.89-.25-.47,0-.73.27-.73.59,0,.36.26.52.83.74.76.29,1.14.67,1.14,1.31,0,.77-.59,1.31-1.63,1.31-.48,0-.92-.12-1.22-.3l.2-.6Z"/>
  </g>
  <g>
    <g>
      <line class="cls-2" x1="217.59" y1="98.07" x2="325.25" y2="98.07"/>
      <polygon class="cls-15" points="321.11 112.2 345.59 98.07 321.11 83.93 321.11 112.2"/>
    </g>
    <g>
      <rect class="cls-3" x="221.63" y="89.13" width="94.96" height="17.93"/>
      <path class="cls-11" d="M225.99,89.45h3.27v.66h-2.48v2.02h2.29v.65h-2.29v2.75h-.78v-6.07Z"/>
      <path class="cls-11" d="M231,89.94c0,.27-.19.49-.5.49-.28,0-.48-.21-.48-.49s.21-.5.5-.5.49.22.49.5ZM230.12,95.52v-4.36h.79v4.36h-.79Z"/>
      <path class="cls-11" d="M232.22,92.34c0-.45,0-.82-.04-1.18h.7l.04.72h.02c.22-.41.72-.82,1.44-.82.6,0,1.54.36,1.54,1.85v2.6h-.79v-2.51c0-.7-.26-1.29-1.01-1.29-.52,0-.93.37-1.06.81-.04.1-.05.23-.05.37v2.62h-.79v-3.18Z"/>
      <path class="cls-11" d="M240.98,89.13v5.27c0,.39,0,.83.04,1.12h-.71l-.04-.76h-.02c-.24.49-.77.86-1.49.86-1.05,0-1.86-.89-1.86-2.21,0-1.45.89-2.34,1.95-2.34.67,0,1.12.32,1.31.67h.02v-2.6h.79ZM240.19,92.94c0-.1,0-.23-.04-.33-.12-.5-.55-.92-1.14-.92-.82,0-1.3.72-1.3,1.68,0,.88.43,1.61,1.29,1.61.53,0,1.02-.35,1.16-.95.03-.11.04-.22.04-.34v-.76Z"/>
      <path class="cls-11" d="M245.08,89.94c0,.27-.19.49-.5.49-.28,0-.48-.21-.48-.49s.21-.5.5-.5.49.22.49.5ZM244.2,95.52v-4.36h.79v4.36h-.79Z"/>
      <path class="cls-11" d="M246.31,92.34c0-.45,0-.82-.04-1.18h.7l.04.72h.02c.22-.41.72-.82,1.44-.82.6,0,1.54.36,1.54,1.85v2.6h-.79v-2.51c0-.7-.26-1.29-1.01-1.29-.52,0-.93.37-1.06.81-.04.1-.05.23-.05.37v2.62h-.79v-3.18Z"/>
      <path class="cls-11" d="M252.22,89.91v1.25h1.13v.6h-1.13v2.35c0,.54.15.85.59.85.21,0,.36-.03.46-.05l.04.59c-.15.06-.4.11-.7.11-.37,0-.67-.12-.86-.33-.23-.23-.31-.62-.31-1.13v-2.38h-.67v-.6h.67v-1.04l.77-.21Z"/>
      <path class="cls-11" d="M254.63,93.49c.02,1.07.7,1.51,1.49,1.51.57,0,.91-.1,1.21-.22l.14.57c-.28.13-.76.27-1.45.27-1.34,0-2.14-.88-2.14-2.2s.77-2.35,2.04-2.35c1.42,0,1.8,1.25,1.8,2.05,0,.16-.02.29-.03.37h-3.06ZM256.95,92.92c0-.5-.21-1.29-1.1-1.29-.8,0-1.15.74-1.21,1.29h2.31Z"/>
      <path class="cls-11" d="M258.7,92.52c0-.51,0-.95-.04-1.36h.69l.03.86h.04c.2-.58.68-.95,1.21-.95.09,0,.15,0,.22.03v.75c-.08-.02-.16-.03-.27-.03-.56,0-.96.42-1.06,1.02-.02.11-.04.23-.04.37v2.32h-.78v-3Z"/>
      <path class="cls-11" d="M261.53,94.71c.23.15.65.32,1.04.32.58,0,.85-.29.85-.65,0-.38-.22-.59-.81-.8-.78-.28-1.15-.71-1.15-1.23,0-.7.57-1.28,1.5-1.28.44,0,.83.13,1.07.27l-.2.58c-.17-.11-.49-.25-.89-.25-.47,0-.73.27-.73.59,0,.36.26.52.83.74.76.29,1.14.67,1.14,1.31,0,.77-.59,1.3-1.63,1.3-.48,0-.92-.12-1.22-.3l.2-.6Z"/>
      <path class="cls-11" d="M265.65,93.49c.02,1.07.7,1.51,1.49,1.51.57,0,.91-.1,1.21-.22l.14.57c-.28.13-.76.27-1.45.27-1.34,0-2.14-.88-2.14-2.2s.77-2.35,2.04-2.35c1.42,0,1.8,1.25,1.8,2.05,0,.16-.02.29-.03.37h-3.06ZM267.97,92.92c0-.5-.21-1.29-1.1-1.29-.8,0-1.15.74-1.21,1.29h2.31Z"/>
      <path class="cls-11" d="M272.82,95.36c-.21.11-.67.25-1.25.25-1.31,0-2.17-.89-2.17-2.22s.92-2.31,2.34-2.31c.47,0,.88.12,1.1.23l-.18.61c-.19-.11-.49-.21-.92-.21-1,0-1.54.74-1.54,1.65,0,1.01.65,1.63,1.51,1.63.45,0,.75-.12.97-.22l.13.59Z"/>
      <path class="cls-11" d="M274.82,89.91v1.25h1.13v.6h-1.13v2.35c0,.54.15.85.59.85.21,0,.36-.03.46-.05l.04.59c-.15.06-.4.11-.7.11-.37,0-.67-.12-.86-.33-.23-.23-.31-.62-.31-1.13v-2.38h-.67v-.6h.67v-1.04l.77-.21Z"/>
      <path class="cls-11" d="M277.73,89.94c0,.27-.19.49-.5.49-.28,0-.48-.21-.48-.49s.21-.5.5-.5.49.22.49.5ZM276.84,95.52v-4.36h.79v4.36h-.79Z"/>
      <path class="cls-11" d="M278.95,92.34c0-.45,0-.82-.04-1.18h.7l.04.72h.02c.22-.41.72-.82,1.44-.82.6,0,1.54.36,1.54,1.85v2.6h-.79v-2.51c0-.7-.26-1.29-1.01-1.29-.52,0-.93.37-1.06.81-.04.1-.05.23-.05.37v2.62h-.79v-3.18Z"/>
      <path class="cls-11" d="M287.7,91.16c-.02.32-.04.67-.04,1.2v2.53c0,1-.2,1.61-.62,1.99-.42.4-1.04.52-1.58.52s-1.1-.13-1.45-.36l.2-.6c.29.18.74.34,1.28.34.81,0,1.4-.42,1.4-1.52v-.49h-.02c-.24.4-.71.73-1.39.73-1.08,0-1.85-.92-1.85-2.12,0-1.48.96-2.31,1.96-2.31.76,0,1.17.4,1.36.76h.02l.04-.66h.69ZM286.88,92.89c0-.14,0-.25-.04-.36-.14-.46-.53-.84-1.11-.84-.76,0-1.3.64-1.3,1.65,0,.86.43,1.57,1.29,1.57.49,0,.93-.31,1.1-.81.04-.13.06-.29.06-.42v-.78Z"/>
      <path class="cls-11" d="M291.32,93.49c.02,1.07.7,1.51,1.49,1.51.57,0,.91-.1,1.21-.22l.14.57c-.28.13-.76.27-1.45.27-1.34,0-2.14-.88-2.14-2.2s.77-2.35,2.04-2.35c1.42,0,1.8,1.25,1.8,2.05,0,.16-.02.29-.03.37h-3.06ZM293.65,92.92c0-.5-.21-1.29-1.1-1.29-.8,0-1.15.74-1.21,1.29h2.31Z"/>
      <path class="cls-11" d="M299.16,89.13v5.27c0,.39,0,.83.04,1.12h-.71l-.04-.76h-.02c-.24.49-.77.86-1.49.86-1.05,0-1.86-.89-1.86-2.21,0-1.45.89-2.34,1.95-2.34.67,0,1.12.32,1.31.67h.02v-2.6h.79ZM298.36,92.94c0-.1,0-.23-.04-.33-.12-.5-.55-.92-1.14-.92-.82,0-1.31.72-1.31,1.68,0,.88.43,1.61,1.29,1.61.53,0,1.02-.35,1.16-.95.03-.11.04-.22.04-.34v-.76Z"/>
      <path class="cls-11" d="M304.22,91.16c-.02.32-.04.67-.04,1.2v2.53c0,1-.2,1.61-.62,1.99-.42.4-1.04.52-1.58.52s-1.1-.13-1.45-.36l.2-.6c.29.18.74.34,1.28.34.81,0,1.41-.42,1.41-1.52v-.49h-.02c-.24.4-.71.73-1.39.73-1.08,0-1.85-.92-1.85-2.12,0-1.48.96-2.31,1.96-2.31.76,0,1.17.4,1.36.76h.02l.04-.66h.69ZM303.4,92.89c0-.14,0-.25-.04-.36-.14-.46-.53-.84-1.11-.84-.76,0-1.3.64-1.3,1.65,0,.86.43,1.57,1.29,1.57.49,0,.93-.31,1.1-.81.04-.13.06-.29.06-.42v-.78Z"/>
      <path class="cls-11" d="M305.94,93.49c.02,1.07.7,1.51,1.49,1.51.57,0,.91-.1,1.21-.22l.14.57c-.28.13-.76.27-1.45.27-1.34,0-2.14-.88-2.14-2.2s.77-2.35,2.04-2.35c1.42,0,1.8,1.25,1.8,2.05,0,.16-.02.29-.03.37h-3.06ZM308.26,92.92c0-.5-.21-1.29-1.1-1.29-.8,0-1.15.74-1.21,1.29h2.31Z"/>
      <path class="cls-11" d="M309.9,94.71c.23.15.65.32,1.04.32.58,0,.85-.29.85-.65,0-.38-.22-.59-.81-.8-.78-.28-1.15-.71-1.15-1.23,0-.7.57-1.28,1.5-1.28.44,0,.83.13,1.07.27l-.2.58c-.17-.11-.49-.25-.89-.25-.47,0-.73.27-.73.59,0,.36.26.52.83.74.76.29,1.14.67,1.14,1.31,0,.77-.59,1.3-1.63,1.3-.48,0-.92-.12-1.22-.3l.2-.6Z"/>
    </g>
  </g>
  <g>
    <path class="cls-12" d="M821.6,132.86h-124c-.72-38.2-1.44-76.39-2.17-114.59,42.06-.14,84.11-.27,126.17-.41v115Z"/>
    <polyline class="cls-12" points="695.6 17.86 695.6 17.86 697.1 133.36 674.65 166 676.1 48.36 697.6 17.86"/>
    <line class="cls-4" x1="822.1" y1="18.36" x2="697.1" y2="18.36"/>
    <line class="cls-4" x1="799.1" y1="48.36" x2="822.1" y2="18.36"/>
    <line class="cls-4" x1="803.1" y1="168.36" x2="823.1" y2="134.36"/>
    <line class="cls-4" x1="822.1" y1="18.36" x2="822.1" y2="134.36"/>
    <line class="cls-7" x1="697.1" y1="18.36" x2="697.1" y2="133.36"/>
    <line class="cls-4" x1="675.87" y1="47.81" x2="698.87" y2="17.81"/>
    <line class="cls-7" x1="822.1" y1="133.36" x2="695.1" y2="133.36"/>
    <polyline class="cls-7" points="697.1 133.36 677.1 164.36 697.1 133.36"/>
    <polyline class="cls-12" points="675.74 165.68 697.1 133.36 822.1 134.36 802.1 165.36"/>
    <polygon class="cls-12" points="800.74 48.68 821.32 19.29 820.27 136.88 800.11 165.89 800.74 48.68"/>
    <polyline class="cls-6" points="679.1 51.87 734.44 210.27 696.33 18.86"/>
    <polyline class="cls-6" points="821.6 17.86 731.44 209.27 795.06 50.87"/>
    <polygon class="cls-13" points="734.18 204.09 714.48 154.63 721.51 147.63 756.2 147.63 758.6 153.46 734.18 204.09"/>
    <polygon class="cls-13" points="734.27 204.03 714.57 154.57 721.59 147.57 756.29 147.57 758.69 153.4 734.27 204.03"/>
    <line class="cls-8" x1="695.44" y1="18.27" x2="702.44" y2="47.27"/>
    <line class="cls-8" x1="718.94" y1="165.77" x2="732.94" y2="206.77"/>
    <line class="cls-8" x1="725.94" y1="165.77" x2="732.94" y2="204.77"/>
    <line class="cls-8" x1="751.94" y1="165.77" x2="732.94" y2="206.77"/>
    <line class="cls-8" x1="747.94" y1="165.77" x2="730.94" y2="205.77"/>
    <g>
      <circle class="cls-11" cx="696.85" cy="17.11" r="7.75"/>
      <path class="cls-14" d="M698.64,17.51h-2.62v2.43h2.92v.73h-3.79v-6.74h3.64v.73h-2.77v2.13h2.62v.72Z"/>
    </g>
    <g>
      <circle class="cls-11" cx="821.74" cy="133.68" r="7.75"/>
      <path class="cls-14" d="M820.27,130.81v2.54h2.94v-2.54h.79v6.07h-.79v-2.84h-2.94v2.84h-.78v-6.07h.78Z"/>
    </g>
    <g>
      <circle class="cls-11" cx="695.74" cy="133.68" r="7.75"/>
      <path class="cls-14" d="M694.06,130.5h3.63v.73h-2.76v2.24h2.55v.72h-2.55v3.05h-.87v-6.74Z"/>
    </g>
    <g>
      <circle class="cls-11" cx="820.74" cy="16.68" r="7.75"/>
      <path class="cls-14" d="M823.13,19.61c-.35.13-1.04.33-1.86.33-.92,0-1.67-.23-2.27-.8-.52-.5-.85-1.31-.85-2.26,0-1.81,1.25-3.13,3.29-3.13.7,0,1.25.15,1.51.28l-.19.64c-.32-.14-.73-.26-1.34-.26-1.48,0-2.44.92-2.44,2.44s.93,2.45,2.34,2.45c.51,0,.86-.07,1.04-.16v-1.81h-1.23v-.63h2v2.92Z"/>
    </g>
    <rect class="cls-12" x="677.6" y="49.86" width="124" height="115"/>
    <rect class="cls-4" x="676.1" y="48.36" width="126" height="117"/>
    <g>
      <circle class="cls-11" cx="676.85" cy="49.11" r="7.75"/>
      <path class="cls-14" d="M675.64,50.54l-.7,2.12h-.9l2.29-6.74h1.05l2.3,6.74h-.93l-.72-2.12h-2.39ZM677.85,49.86l-.66-1.94c-.15-.44-.25-.84-.35-1.23h-.02c-.1.4-.21.81-.34,1.22l-.66,1.95h2.03Z"/>
    </g>
    <g>
      <circle class="cls-11" cx="801.74" cy="165.68" r="7.75"/>
      <path class="cls-14" d="M804.3,169.01c-.32.16-.96.32-1.78.32-1.9,0-3.33-1.2-3.33-3.41s1.43-3.54,3.52-3.54c.84,0,1.37.18,1.6.3l-.21.71c-.33-.16-.8-.28-1.36-.28-1.58,0-2.63,1.01-2.63,2.78,0,1.65.95,2.71,2.59,2.71.53,0,1.07-.11,1.42-.28l.18.69Z"/>
    </g>
    <g>
      <circle class="cls-11" cx="675.74" cy="165.68" r="7.75"/>
      <path class="cls-14" d="M673.78,162.59c.38-.08.98-.14,1.59-.14.87,0,1.43.15,1.85.49.35.26.56.66.56,1.19,0,.65-.43,1.22-1.14,1.48v.02c.64.16,1.39.69,1.39,1.69,0,.58-.23,1.02-.57,1.35-.47.43-1.23.63-2.33.63-.6,0-1.06-.04-1.35-.08v-6.63ZM674.65,165.35h.79c.92,0,1.46-.48,1.46-1.13,0-.79-.6-1.1-1.48-1.1-.4,0-.63.03-.77.06v2.17ZM674.65,168.57c.17.03.42.04.73.04.9,0,1.73-.33,1.73-1.31,0-.92-.79-1.3-1.74-1.3h-.72v2.57Z"/>
    </g>
    <g>
      <circle class="cls-11" cx="800.74" cy="48.68" r="7.75"/>
      <path class="cls-14" d="M798.42,45.89c.48-.07,1.04-.13,1.67-.13,1.13,0,1.93.26,2.46.76.54.5.86,1.2.86,2.18s-.31,1.8-.87,2.36c-.57.57-1.5.87-2.68.87-.56,0-1.03-.03-1.42-.07v-5.97ZM799.21,51.26c.2.04.49.04.79.04,1.67,0,2.58-.94,2.58-2.58,0-1.43-.8-2.34-2.46-2.34-.41,0-.71.04-.92.08v4.79Z"/>
    </g>
    <g>
      <circle class="cls-11" cx="733.75" cy="204.72" r="7.75"/>
      <path class="cls-14" d="M734.18,201.54v6.74h-.87v-6.74h.87Z"/>
    </g>
    <g>
      <path class="cls-5" d="M752.82,147.67c1-.01,2-.03,3-.04l1.27,2.72"/>
      <polyline class="cls-5" points="757.33 150.85 758.6 153.57 755.6 153.64"/>
      <line class="cls-9" x1="753.8" y1="153.68" x2="718.72" y2="154.54"/>
      <path class="cls-5" d="M717.82,154.56l-3,.07c.71-.71,1.41-1.41,2.12-2.12"/>
      <path class="cls-1" d="M718.51,150.94c.94-.94,1.87-1.87,2.81-2.81,10.13-.15,20.26-.29,30.39-.44"/>
    </g>
  </g>
</svg>