<?xml version="1.0" encoding="UTF-8"?>
<svg id="Ring" xmlns="http://www.w3.org/2000/svg" viewBox="0 0 538.58 349.6">
  <defs>
    <style>
      .cls-1 {
        stroke-width: 5.67px;
      }

      .cls-1, .cls-2, .cls-3, .cls-4 {
        fill: none;
      }

      .cls-1, .cls-2, .cls-4 {
        stroke-miterlimit: 10;
      }

      .cls-1, .cls-4 {
        stroke: #437898;
      }

      .cls-5 {
        fill: #231f20;
      }

      .cls-6 {
        fill: #fff;
      }

      .cls-2 {
        stroke: #9b9a9a;
      }

      .cls-2, .cls-4 {
        stroke-width: 2.83px;
      }

      .cls-7 {
        fill: #9b9a9a;
      }
    </style>
  </defs>
  <g>
    <rect class="cls-4" x="29.5" y="17.07" width="146" height="117"/>
    <g>
      <circle class="cls-5" cx="30.25" cy="17.82" r="7.75"/>
      <path class="cls-6" d="M29.04,19.25l-.7,2.12h-.9l2.29-6.74h1.05l2.3,6.74h-.93l-.72-2.12h-2.39ZM31.25,18.57l-.66-1.94c-.15-.44-.25-.84-.35-1.23h-.02c-.1.4-.21.81-.34,1.22l-.66,1.95h2.03Z"/>
    </g>
    <g>
      <circle class="cls-5" cx="175.13" cy="134.39" r="7.75"/>
      <path class="cls-6" d="M177.7,137.72c-.32.16-.96.32-1.78.32-1.9,0-3.33-1.2-3.33-3.41s1.43-3.54,3.52-3.54c.84,0,1.37.18,1.6.3l-.21.71c-.33-.16-.8-.28-1.36-.28-1.58,0-2.63,1.01-2.63,2.78,0,1.65.95,2.71,2.59,2.71.53,0,1.07-.11,1.42-.28l.18.69Z"/>
    </g>
    <g>
      <circle class="cls-5" cx="29.13" cy="134.39" r="7.75"/>
      <path class="cls-6" d="M27.18,131.29c.38-.08.98-.14,1.59-.14.87,0,1.43.15,1.85.49.35.26.56.66.56,1.19,0,.65-.43,1.22-1.14,1.48v.02c.64.16,1.39.69,1.39,1.69,0,.58-.23,1.02-.57,1.35-.47.43-1.23.63-2.33.63-.6,0-1.06-.04-1.35-.08v-6.63ZM28.05,134.05h.79c.92,0,1.46-.48,1.46-1.13,0-.79-.6-1.1-1.48-1.1-.4,0-.63.03-.77.06v2.17ZM28.05,137.28c.17.03.42.04.73.04.9,0,1.73-.33,1.73-1.31,0-.92-.79-1.3-1.74-1.3h-.72v2.57Z"/>
    </g>
    <g>
      <circle class="cls-5" cx="175.13" cy="17.39" r="7.75"/>
      <path class="cls-6" d="M172.82,14.59c.48-.07,1.04-.13,1.67-.13,1.13,0,1.93.26,2.46.76.54.5.85,1.2.85,2.18s-.31,1.8-.87,2.36c-.57.57-1.5.87-2.68.87-.56,0-1.03-.03-1.42-.07v-5.97ZM173.6,19.96c.2.04.49.04.79.04,1.67,0,2.58-.94,2.58-2.57,0-1.43-.8-2.34-2.46-2.34-.41,0-.71.04-.92.08v4.79Z"/>
    </g>
    <g>
      <rect class="cls-3" x="35.48" y="150.05" width="134.61" height="23.48"/>
      <path class="cls-5" d="M71.43,162.37v-11.95h2.74v.83h-1.72v10.3h1.72v.83h-2.74Z"/>
      <path class="cls-5" d="M77.06,157.52l-1.05,3.18h-1.35l3.44-10.11h1.57l3.45,10.11h-1.4l-1.08-3.18h-3.58ZM80.38,156.49l-.99-2.91c-.22-.66-.38-1.26-.52-1.85h-.03c-.15.6-.31,1.22-.51,1.83l-.99,2.92h3.04Z"/>
      <path class="cls-5" d="M83.71,162.54c.33-.88.73-2.49.9-3.58l1.47-.15c-.34,1.27-1,2.94-1.42,3.64l-.94.09Z"/>
      <path class="cls-5" d="M87.72,150.72c.57-.12,1.47-.21,2.38-.21,1.3,0,2.15.22,2.77.74.52.39.84.99.84,1.78,0,.98-.65,1.83-1.71,2.22v.03c.96.24,2.08,1.04,2.08,2.54,0,.87-.34,1.53-.85,2.03-.71.64-1.84.94-3.49.94-.9,0-1.59-.06-2.02-.12v-9.94ZM89.02,154.86h1.19c1.38,0,2.19-.72,2.19-1.69,0-1.19-.9-1.65-2.22-1.65-.6,0-.94.04-1.15.09v3.25ZM89.02,159.7c.25.04.63.06,1.1.06,1.35,0,2.59-.5,2.59-1.96,0-1.38-1.19-1.95-2.61-1.95h-1.08v3.85Z"/>
      <path class="cls-5" d="M94.75,162.54c.33-.88.73-2.49.9-3.58l1.47-.15c-.34,1.27-1,2.94-1.42,3.64l-.94.09Z"/>
      <path class="cls-5" d="M105.82,160.36c-.48.24-1.44.48-2.67.48-2.85,0-4.99-1.8-4.99-5.12s2.15-5.31,5.28-5.31c1.26,0,2.05.27,2.4.45l-.31,1.06c-.5-.24-1.2-.42-2.04-.42-2.37,0-3.94,1.51-3.94,4.17,0,2.47,1.42,4.06,3.88,4.06.79,0,1.6-.17,2.13-.42l.27,1.04Z"/>
      <path class="cls-5" d="M106.56,162.54c.33-.88.73-2.49.9-3.58l1.47-.15c-.34,1.27-1,2.94-1.42,3.64l-.94.09Z"/>
      <path class="cls-5" d="M117.62,160.36c-.48.24-1.44.48-2.67.48-2.85,0-4.99-1.8-4.99-5.12s2.15-5.31,5.28-5.31c1.26,0,2.05.27,2.4.45l-.31,1.06c-.5-.24-1.2-.42-2.04-.42-2.37,0-3.94,1.51-3.94,4.17,0,2.47,1.42,4.06,3.88,4.06.79,0,1.6-.17,2.13-.42l.27,1.04Z"/>
      <path class="cls-5" d="M118.36,162.54c.33-.88.73-2.49.9-3.58l1.47-.15c-.34,1.27-1,2.94-1.42,3.64l-.94.09Z"/>
      <path class="cls-5" d="M122.37,150.72c.79-.12,1.74-.21,2.77-.21,1.87,0,3.21.43,4.09,1.26.9.83,1.42,2,1.42,3.63s-.51,3-1.46,3.93c-.94.95-2.5,1.46-4.47,1.46-.93,0-1.71-.04-2.37-.12v-9.94ZM123.67,159.66c.33.06.81.08,1.32.08,2.79,0,4.31-1.56,4.31-4.29.01-2.38-1.33-3.9-4.1-3.9-.67,0-1.18.06-1.53.13v7.98Z"/>
      <path class="cls-5" d="M134.14,150.4v11.97h-2.74v-.83h1.72v-10.32h-1.72v-.83h2.74Z"/>
    </g>
  </g>
  <g>
    <rect class="cls-4" x="345.5" y="87.07" width="146" height="117"/>
    <g>
      <circle class="cls-5" cx="346.25" cy="87.82" r="7.75"/>
      <path class="cls-6" d="M345.04,89.25l-.7,2.12h-.9l2.29-6.74h1.05l2.3,6.74h-.93l-.72-2.12h-2.39ZM347.25,88.57l-.66-1.94c-.15-.44-.25-.84-.35-1.23h-.02c-.1.4-.21.81-.34,1.22l-.66,1.95h2.03Z"/>
    </g>
    <g>
      <circle class="cls-5" cx="491.13" cy="204.39" r="7.75"/>
      <path class="cls-6" d="M493.7,207.72c-.32.16-.96.32-1.78.32-1.9,0-3.33-1.2-3.33-3.41s1.43-3.54,3.52-3.54c.84,0,1.37.18,1.6.3l-.21.71c-.33-.16-.8-.28-1.36-.28-1.58,0-2.63,1.01-2.63,2.78,0,1.65.95,2.71,2.59,2.71.53,0,1.07-.11,1.42-.28l.18.69Z"/>
    </g>
    <g>
      <circle class="cls-5" cx="345.13" cy="204.39" r="7.75"/>
      <path class="cls-6" d="M343.18,201.29c.38-.08.98-.14,1.59-.14.87,0,1.43.15,1.85.49.35.26.56.66.56,1.19,0,.65-.43,1.22-1.14,1.48v.02c.64.16,1.39.69,1.39,1.69,0,.58-.23,1.02-.57,1.35-.47.43-1.23.63-2.33.63-.6,0-1.06-.04-1.35-.08v-6.63ZM344.05,204.05h.79c.92,0,1.46-.48,1.46-1.13,0-.79-.6-1.1-1.48-1.1-.4,0-.63.03-.77.06v2.17ZM344.05,207.28c.17.03.42.04.73.04.9,0,1.73-.33,1.73-1.31,0-.92-.79-1.3-1.74-1.3h-.72v2.57Z"/>
    </g>
    <g>
      <circle class="cls-5" cx="491.13" cy="87.39" r="7.75"/>
      <path class="cls-6" d="M488.82,84.59c.48-.07,1.04-.13,1.67-.13,1.13,0,1.93.26,2.46.76.54.5.85,1.2.85,2.18s-.31,1.8-.87,2.36c-.57.57-1.5.87-2.68.87-.56,0-1.03-.03-1.42-.07v-5.97ZM489.6,89.96c.2.04.49.04.79.04,1.67,0,2.58-.94,2.58-2.57,0-1.43-.8-2.34-2.46-2.34-.41,0-.71.04-.92.08v4.79Z"/>
    </g>
    <g>
      <rect class="cls-3" x="351.48" y="220.05" width="134.61" height="23.48"/>
      <path class="cls-5" d="M393.33,232.37v-11.95h2.74v.83h-1.72v10.3h1.72v.83h-2.74Z"/>
      <path class="cls-5" d="M398.97,227.52l-1.05,3.18h-1.35l3.44-10.11h1.57l3.45,10.11h-1.4l-1.08-3.18h-3.58ZM402.28,226.49l-.99-2.91c-.22-.66-.38-1.26-.52-1.85h-.03c-.15.6-.31,1.22-.51,1.83l-.99,2.92h3.04Z"/>
      <path class="cls-5" d="M405.61,232.54c.33-.88.73-2.49.9-3.58l1.47-.15c-.34,1.27-1,2.94-1.42,3.64l-.94.09Z"/>
      <path class="cls-5" d="M409.62,220.72c.57-.12,1.47-.21,2.38-.21,1.3,0,2.15.22,2.77.74.52.39.84.99.84,1.78,0,.98-.65,1.83-1.71,2.22v.03c.96.24,2.08,1.04,2.08,2.54,0,.87-.34,1.53-.85,2.03-.71.64-1.84.94-3.49.94-.9,0-1.59-.06-2.02-.12v-9.94ZM410.92,224.86h1.19c1.38,0,2.19-.72,2.19-1.69,0-1.19-.9-1.65-2.22-1.65-.6,0-.94.04-1.15.09v3.25ZM410.92,229.7c.25.04.63.06,1.1.06,1.35,0,2.59-.5,2.59-1.96,0-1.38-1.19-1.95-2.61-1.95h-1.08v3.85Z"/>
      <path class="cls-5" d="M416.65,232.54c.33-.88.73-2.49.9-3.58l1.47-.15c-.34,1.27-1,2.94-1.42,3.64l-.94.09Z"/>
      <path class="cls-5" d="M427.72,230.36c-.48.24-1.44.48-2.67.48-2.85,0-4.99-1.8-4.99-5.12s2.15-5.31,5.28-5.31c1.26,0,2.05.27,2.4.45l-.31,1.06c-.5-.24-1.2-.42-2.04-.42-2.37,0-3.94,1.51-3.94,4.17,0,2.47,1.42,4.06,3.88,4.06.79,0,1.6-.17,2.13-.42l.27,1.04Z"/>
      <path class="cls-5" d="M428.46,232.54c.33-.88.73-2.49.9-3.58l1.47-.15c-.34,1.27-1,2.94-1.42,3.64l-.94.09Z"/>
      <path class="cls-5" d="M432.46,220.72c.79-.12,1.74-.21,2.77-.21,1.87,0,3.21.43,4.09,1.26.9.83,1.42,2,1.42,3.63s-.51,3-1.46,3.93c-.94.95-2.5,1.46-4.47,1.46-.93,0-1.71-.04-2.37-.12v-9.94ZM433.77,229.66c.33.06.81.08,1.32.08,2.79,0,4.31-1.56,4.31-4.29.01-2.38-1.33-3.9-4.1-3.9-.67,0-1.18.06-1.53.13v7.98Z"/>
      <path class="cls-5" d="M444.24,220.4v11.97h-2.74v-.83h1.72v-10.32h-1.72v-.83h2.74Z"/>
    </g>
  </g>
  <g>
    <rect class="cls-4" x="28.08" y="193.07" width="146" height="117"/>
    <g>
      <circle class="cls-5" cx="173.71" cy="310.39" r="7.75"/>
      <path class="cls-6" d="M176.28,313.72c-.32.16-.96.32-1.78.32-1.9,0-3.33-1.2-3.33-3.41s1.43-3.54,3.52-3.54c.84,0,1.37.18,1.6.3l-.21.71c-.33-.16-.8-.28-1.36-.28-1.58,0-2.63,1.01-2.63,2.78,0,1.65.95,2.71,2.59,2.71.53,0,1.07-.11,1.42-.28l.18.69Z"/>
    </g>
    <g>
      <circle class="cls-5" cx="27.71" cy="310.39" r="7.75"/>
      <path class="cls-6" d="M25.76,307.29c.38-.08.98-.14,1.59-.14.87,0,1.43.15,1.85.49.35.26.56.66.56,1.19,0,.65-.43,1.22-1.14,1.48v.02c.64.16,1.39.69,1.39,1.69,0,.58-.23,1.02-.57,1.35-.47.43-1.23.63-2.33.63-.6,0-1.06-.04-1.35-.08v-6.63ZM26.63,310.05h.79c.92,0,1.46-.48,1.46-1.13,0-.79-.6-1.1-1.48-1.1-.4,0-.63.03-.77.06v2.17ZM26.63,313.28c.17.03.42.04.73.04.9,0,1.73-.33,1.73-1.31,0-.92-.79-1.3-1.74-1.3h-.72v2.57Z"/>
    </g>
    <g>
      <circle class="cls-5" cx="173.71" cy="193.39" r="7.75"/>
      <path class="cls-6" d="M171.4,190.6c.48-.07,1.04-.13,1.67-.13,1.13,0,1.93.26,2.46.76.54.5.85,1.2.85,2.18s-.31,1.8-.87,2.36c-.57.57-1.5.87-2.68.87-.56,0-1.03-.03-1.42-.07v-5.97ZM172.19,195.96c.2.04.49.04.79.04,1.67,0,2.58-.94,2.58-2.57,0-1.43-.8-2.34-2.46-2.34-.41,0-.71.04-.92.08v4.79Z"/>
    </g>
    <g>
      <rect class="cls-3" x="34.06" y="326.05" width="134.61" height="23.48"/>
      <path class="cls-5" d="M70.87,338.37v-11.95h2.74v.83h-1.72v10.3h1.72v.83h-2.74Z"/>
      <path class="cls-5" d="M76.51,333.52l-1.05,3.18h-1.35l3.44-10.11h1.57l3.45,10.11h-1.4l-1.08-3.18h-3.58ZM79.83,332.49l-.99-2.91c-.22-.66-.38-1.26-.52-1.85h-.03c-.15.6-.31,1.22-.51,1.83l-.99,2.92h3.04Z"/>
      <path class="cls-5" d="M83.16,338.54c.33-.88.73-2.49.9-3.58l1.47-.15c-.34,1.27-1,2.94-1.42,3.64l-.94.09Z"/>
      <path class="cls-5" d="M87.16,326.72c.57-.12,1.47-.21,2.38-.21,1.3,0,2.15.22,2.77.74.52.39.84.99.84,1.78,0,.98-.65,1.83-1.71,2.22v.03c.96.24,2.08,1.04,2.08,2.54,0,.87-.34,1.53-.85,2.03-.71.64-1.84.94-3.49.94-.9,0-1.59-.06-2.02-.12v-9.94ZM88.47,330.86h1.19c1.38,0,2.19-.72,2.19-1.69,0-1.19-.9-1.65-2.22-1.65-.6,0-.94.04-1.15.09v3.25ZM88.47,335.7c.25.04.63.06,1.1.06,1.35,0,2.59-.5,2.59-1.96,0-1.38-1.19-1.95-2.61-1.95h-1.08v3.85Z"/>
      <path class="cls-5" d="M94.2,338.54c.33-.88.74-2.49.9-3.58l1.47-.15c-.34,1.27-1,2.94-1.42,3.64l-.95.09Z"/>
      <path class="cls-5" d="M105.27,336.36c-.48.24-1.44.48-2.67.48-2.85,0-4.99-1.8-4.99-5.12s2.15-5.31,5.28-5.31c1.26,0,2.05.27,2.4.45l-.31,1.06c-.5-.24-1.2-.42-2.04-.42-2.37,0-3.94,1.51-3.94,4.17,0,2.47,1.42,4.06,3.88,4.06.79,0,1.6-.17,2.13-.42l.27,1.04Z"/>
      <path class="cls-5" d="M106,338.54c.33-.88.74-2.49.9-3.58l1.47-.15c-.34,1.27-1,2.94-1.42,3.64l-.95.09Z"/>
      <path class="cls-5" d="M110.01,326.72c.79-.12,1.74-.21,2.77-.21,1.87,0,3.21.43,4.09,1.26.9.83,1.42,2,1.42,3.63s-.51,3-1.46,3.93c-.94.95-2.5,1.46-4.47,1.46-.93,0-1.71-.04-2.37-.12v-9.94ZM111.31,335.66c.33.06.81.08,1.32.08,2.79,0,4.31-1.56,4.31-4.29.01-2.38-1.33-3.9-4.1-3.9-.67,0-1.18.06-1.53.13v7.98Z"/>
      <path class="cls-5" d="M118.59,338.54c.33-.88.73-2.49.9-3.58l1.47-.15c-.34,1.27-1,2.94-1.42,3.64l-.94.09Z"/>
      <path class="cls-5" d="M127.82,331.95h-3.93v3.65h4.38v1.09h-5.68v-10.11h5.46v1.09h-4.15v3.2h3.93v1.08Z"/>
      <path class="cls-5" d="M131.86,326.4v11.97h-2.74v-.83h1.72v-10.32h-1.72v-.83h2.74Z"/>
    </g>
    <g>
      <path class="cls-6" d="M11.96,201.71c-.03-14.13,11.73-25.74,25.96-25.89,12.59-.13,25.91,9.74,26.09,26.3.15,14.14-11.75,25.85-26.04,25.87-14.39.01-25.98-11.69-26.01-26.27ZM27.24,222.66c7.88,4.54,20.61,4.02,28.82-5.78,7.32-8.73,6.11-20.05,2.88-25.28,5.63,17.63-11.03,36.87-31.7,31.06Z"/>
      <line class="cls-1" x1="24" y1="225.57" x2="24" y2="203.57"/>
      <line class="cls-1" x1="41.53" y1="189.63" x2="22.47" y2="200.63"/>
      <line class="cls-1" x1="42" y1="190.57" x2="64" y2="190.57"/>
      <g>
        <circle class="cls-5" cx="38.13" cy="190.39" r="7.75"/>
        <path class="cls-6" d="M39.92,190.78h-2.62v2.43h2.92v.73h-3.79v-6.74h3.64v.73h-2.77v2.13h2.62v.72Z"/>
      </g>
      <g>
        <circle class="cls-5" cx="23.83" cy="198.82" r="7.75"/>
        <path class="cls-6" d="M22.62,200.25l-.7,2.12h-.9l2.29-6.74h1.05l2.3,6.74h-.93l-.72-2.12h-2.39ZM24.83,199.57l-.66-1.94c-.15-.44-.25-.84-.35-1.23h-.02c-.1.4-.21.81-.34,1.22l-.66,1.95h2.03Z"/>
      </g>
      <path d="M58.95,232.46c-.29.09-.67.25-1.06.33-.83.16-1.39-.24-1.25-1.07.15-.83.56-1.62.87-2.43.05-.13.14-.25.22-.38,1.21-1.89,1.14-2.2-.81-3.54-14.97,12.57-35.34,6.17-43.84-6.37-8.53-12.57-6.49-29.49,5.1-39.79,11.13-9.9,28.21-9.88,39.49-.11,11.4,9.88,14.95,28.85,2.96,42.59.58.54,1.15,1.12,1.79,1.61.18.14.63.08.87-.05.94-.51,1.82-1.14,2.77-1.64.55-.29,1.23-.57,1.79-.02.58.57.18,1.19-.03,1.78-.06.16-.14.32-.2.47,3.26,1.71,5.64,4.47,8.39,6.75,2.78,2.3,5.46,4.72,8.18,7.08,2.11,1.83,4.18,3.71,6.35,5.47,1.22.98,1.65,2.15,1.36,3.61-1.11,5.49-5.33,9.31-10.33,10.01-1.12.16-2.07-.19-2.87-1.11-6.06-6.99-12.15-13.95-18.22-20.94-.58-.67-1.01-1.46-1.54-2.26ZM11.96,201.71c.03,14.58,11.62,26.29,26.01,26.27,14.29-.01,26.19-11.73,26.04-25.87-.18-16.56-13.49-26.43-26.09-26.3-14.23.15-25.99,11.76-25.96,25.89ZM61.8,232.07c1.78,2.08,3.51,4.12,5.25,6.15,4.53,5.32,9.05,10.64,13.59,15.95.2.23.61.56.79.49,1.12-.43,2.2-.96,3.44-1.53-.42-.44-.63-.67-.85-.89-6.83-6.75-13.65-13.51-20.48-20.26-.79-.79-.82-.79-1.74.08ZM60.41,228.42c-.77.54-1.48,1.05-2.2,1.56.87.99,1.43.82,2.76-.74-.17-.25-.34-.5-.56-.83Z"/>
      <path d="M27.24,222.66c20.67,5.82,37.32-13.43,31.7-31.06,3.23,5.23,4.44,16.55-2.88,25.28-8.21,9.79-20.94,10.32-28.82,5.78Z"/>
    </g>
  </g>
  <g>
    <g>
      <line class="cls-2" x1="212" y1="160.07" x2="319.66" y2="160.07"/>
      <polygon class="cls-7" points="315.52 174.2 340 160.07 315.52 145.93 315.52 174.2"/>
    </g>
    <g>
      <rect class="cls-3" x="212" y="149.57" width="105" height="10"/>
      <path class="cls-5" d="M240.43,149.89h.78v2.93h.03c.16-.23.32-.45.48-.65l1.85-2.28h.97l-2.2,2.57,2.37,3.49h-.93l-2-2.98-.58.67v2.31h-.78v-6.07Z"/>
      <path class="cls-5" d="M245.72,153.92c.02,1.07.7,1.51,1.49,1.51.57,0,.91-.1,1.21-.23l.14.57c-.28.13-.76.27-1.45.27-1.34,0-2.14-.88-2.14-2.2s.77-2.35,2.04-2.35c1.42,0,1.8,1.25,1.8,2.05,0,.16-.02.29-.03.37h-3.06ZM248.04,153.36c0-.5-.21-1.29-1.1-1.29-.8,0-1.15.74-1.21,1.29h2.31Z"/>
      <path class="cls-5" d="M250.23,153.92c.02,1.07.7,1.51,1.49,1.51.57,0,.91-.1,1.21-.23l.14.57c-.28.13-.76.27-1.45.27-1.34,0-2.14-.88-2.14-2.2s.77-2.35,2.04-2.35c1.42,0,1.8,1.25,1.8,2.05,0,.16-.02.29-.03.37h-3.06ZM252.55,153.36c0-.5-.21-1.29-1.1-1.29-.8,0-1.15.74-1.21,1.29h2.31Z"/>
      <path class="cls-5" d="M254.3,153.02c0-.56-.02-1.01-.04-1.42h.71l.04.75h.02c.32-.53.84-.85,1.55-.85,1.05,0,1.85.89,1.85,2.21,0,1.57-.95,2.34-1.98,2.34-.58,0-1.08-.25-1.34-.68h-.02v2.37h-.78v-4.72ZM255.08,154.18c0,.12.02.23.04.32.14.55.62.93,1.19.93.84,0,1.32-.68,1.32-1.68,0-.87-.46-1.62-1.3-1.62-.54,0-1.04.39-1.2.98-.03.1-.05.22-.05.32v.75Z"/>
      <path class="cls-5" d="M262.28,150.35v1.25h1.13v.6h-1.13v2.35c0,.54.15.85.59.85.21,0,.36-.03.46-.05l.04.59c-.15.06-.4.11-.7.11-.37,0-.67-.12-.86-.33-.23-.23-.31-.62-.31-1.13v-2.38h-.67v-.6h.67v-1.04l.77-.21Z"/>
      <path class="cls-5" d="M264.31,149.56h.79v2.72h.02c.13-.22.32-.42.57-.56.23-.13.51-.22.81-.22.58,0,1.52.36,1.52,1.86v2.59h-.79v-2.5c0-.7-.26-1.3-1.01-1.3-.51,0-.92.36-1.06.79-.05.11-.05.23-.05.38v2.63h-.79v-6.39Z"/>
      <path class="cls-5" d="M269.74,153.92c.02,1.07.7,1.51,1.49,1.51.57,0,.91-.1,1.21-.23l.14.57c-.28.13-.76.27-1.45.27-1.34,0-2.14-.88-2.14-2.2s.77-2.35,2.04-2.35c1.42,0,1.8,1.25,1.8,2.05,0,.16-.02.29-.03.37h-3.06ZM272.07,153.36c0-.5-.21-1.29-1.1-1.29-.8,0-1.15.74-1.21,1.29h2.31Z"/>
      <path class="cls-5" d="M275.8,155.96v-3.75h-.61v-.6h.61v-.23c0-1.15.67-1.9,1.9-1.9.41,0,.88.13,1.11.29l-.22.6c-.19-.13-.53-.25-.92-.25-.84,0-1.08.58-1.08,1.28v.22h2.53v4.36h-.78v-3.75h-1.75v3.75h-.78Z"/>
      <path class="cls-5" d="M280.43,152.96c0-.51,0-.95-.04-1.36h.69l.03.86h.04c.2-.58.68-.95,1.21-.95.09,0,.15,0,.22.03v.75c-.08-.02-.16-.03-.27-.03-.56,0-.96.42-1.06,1.02-.02.11-.04.23-.04.37v2.32h-.78v-3Z"/>
      <path class="cls-5" d="M283.26,155.15c.23.15.65.31,1.04.31.58,0,.85-.29.85-.65s-.22-.58-.81-.8c-.78-.28-1.15-.71-1.15-1.23,0-.7.57-1.28,1.5-1.28.44,0,.83.13,1.07.27l-.2.58c-.17-.11-.49-.25-.89-.25-.47,0-.73.27-.73.59,0,.36.26.52.83.74.76.29,1.14.67,1.14,1.31,0,.76-.59,1.3-1.63,1.3-.48,0-.92-.12-1.22-.3l.2-.6Z"/>
      <path class="cls-5" d="M287.89,150.35v1.25h1.13v.6h-1.13v2.35c0,.54.15.85.59.85.21,0,.36-.03.46-.05l.04.59c-.15.06-.4.11-.7.11-.37,0-.67-.12-.86-.33-.23-.23-.31-.62-.31-1.13v-2.38h-.67v-.6h.67v-1.04l.77-.21Z"/>
    </g>
  </g>
</svg>