<?xml version="1.0" encoding="UTF-8"?>
<svg id="Shell" xmlns="http://www.w3.org/2000/svg" viewBox="0 0 538.58 188.6">
  <defs>
    <style>
      .cls-1 {
        fill: #231f20;
      }

      .cls-2 {
        fill: #6dbae7;
      }

      .cls-2, .cls-3 {
        opacity: .31;
      }

      .cls-4 {
        fill: #fff;
      }

      .cls-5 {
        stroke: #9b9a9a;
      }

      .cls-5, .cls-6, .cls-7, .cls-8 {
        fill: none;
      }

      .cls-5, .cls-7, .cls-8 {
        stroke-miterlimit: 10;
        stroke-width: 2.83px;
      }

      .cls-9 {
        fill: #9b9a9a;
      }

      .cls-7, .cls-8 {
        stroke: #437898;
      }

      .cls-3 {
        fill: #437898;
      }

      .cls-10 {
        fill: #010101;
      }

      .cls-8 {
        stroke-dasharray: 5.67;
      }
    </style>
  </defs>
  <g>
    <rect class="cls-2" x="56.06" y="15.04" width="124" height="115"/>
    <polyline class="cls-2" points="54.06 15.04 54.06 15.04 55.56 130.54 33.11 163.18 34.56 45.54 56.06 15.04"/>
    <line class="cls-7" x1="180.56" y1="15.54" x2="55.56" y2="15.54"/>
    <line class="cls-7" x1="157.56" y1="45.54" x2="180.56" y2="15.54"/>
    <line class="cls-7" x1="161.56" y1="165.54" x2="181.56" y2="131.54"/>
    <line class="cls-7" x1="180.56" y1="15.54" x2="180.56" y2="131.54"/>
    <line class="cls-8" x1="55.56" y1="15.54" x2="55.56" y2="130.54"/>
    <line class="cls-7" x1="34.32" y1="44.98" x2="57.32" y2="14.98"/>
    <line class="cls-8" x1="180.56" y1="130.54" x2="53.56" y2="130.54"/>
    <polyline class="cls-8" points="55.56 130.54 35.56 161.54 55.56 130.54"/>
    <polygon class="cls-2" points="55.56 15.54 35.65 45.1 159.19 45.86 180.82 14.49 55.56 15.54"/>
    <polyline class="cls-2" points="34.19 162.86 55.56 130.54 180.56 131.54 160.56 162.54"/>
    <polygon class="cls-2" points="159.19 45.86 179.78 16.46 178.73 134.05 158.57 163.07 159.19 45.86"/>
    <g>
      <circle class="cls-1" cx="55.31" cy="14.29" r="7.75"/>
      <path class="cls-4" d="M57.1,14.68h-2.62v2.43h2.92v.73h-3.79v-6.74h3.64v.73h-2.77v2.13h2.62v.72Z"/>
    </g>
    <g>
      <circle class="cls-1" cx="180.19" cy="130.86" r="7.75"/>
      <path class="cls-4" d="M178.73,127.98v2.54h2.94v-2.54h.79v6.07h-.79v-2.84h-2.94v2.84h-.78v-6.07h.78Z"/>
    </g>
    <g>
      <circle class="cls-1" cx="54.19" cy="130.86" r="7.75"/>
      <path class="cls-4" d="M52.52,127.67h3.63v.73h-2.76v2.24h2.55v.72h-2.55v3.05h-.87v-6.74Z"/>
    </g>
    <g>
      <circle class="cls-1" cx="179.19" cy="13.86" r="7.75"/>
      <path class="cls-4" d="M181.59,16.78c-.35.13-1.04.33-1.86.33-.92,0-1.67-.23-2.27-.8-.52-.5-.85-1.31-.85-2.26,0-1.81,1.25-3.13,3.29-3.13.7,0,1.25.15,1.51.28l-.19.64c-.32-.14-.73-.26-1.34-.26-1.48,0-2.44.92-2.44,2.44s.93,2.45,2.34,2.45c.51,0,.87-.07,1.04-.16v-1.81h-1.23v-.63h2v2.92Z"/>
    </g>
    <rect class="cls-3" x="36.06" y="47.04" width="124" height="115"/>
    <rect class="cls-7" x="34.56" y="45.54" width="126" height="117"/>
    <g>
      <circle class="cls-1" cx="35.31" cy="46.29" r="7.75"/>
      <path class="cls-4" d="M34.1,47.72l-.7,2.12h-.9l2.29-6.74h1.05l2.3,6.74h-.93l-.72-2.12h-2.39ZM36.31,47.04l-.66-1.94c-.15-.44-.25-.84-.35-1.23h-.02c-.1.4-.21.81-.34,1.22l-.66,1.95h2.03Z"/>
    </g>
    <g>
      <circle class="cls-1" cx="160.19" cy="162.86" r="7.75"/>
      <path class="cls-4" d="M162.76,166.19c-.32.16-.96.32-1.78.32-1.9,0-3.33-1.2-3.33-3.41s1.43-3.54,3.52-3.54c.84,0,1.37.18,1.6.3l-.21.71c-.33-.16-.8-.28-1.36-.28-1.58,0-2.63,1.01-2.63,2.78,0,1.65.95,2.71,2.59,2.71.53,0,1.07-.11,1.42-.28l.18.69Z"/>
    </g>
    <g>
      <circle class="cls-1" cx="34.19" cy="162.86" r="7.75"/>
      <path class="cls-4" d="M32.24,159.76c.38-.08.98-.14,1.59-.14.87,0,1.43.15,1.85.49.35.26.56.66.56,1.19,0,.65-.43,1.22-1.14,1.48v.02c.64.16,1.39.69,1.39,1.69,0,.58-.23,1.02-.57,1.35-.47.43-1.23.63-2.33.63-.6,0-1.06-.04-1.35-.08v-6.63ZM33.11,162.52h.79c.92,0,1.46-.48,1.46-1.13,0-.79-.6-1.1-1.48-1.1-.4,0-.63.03-.77.06v2.17ZM33.11,165.74c.17.03.42.04.73.04.9,0,1.73-.33,1.73-1.31,0-.92-.79-1.3-1.74-1.3h-.72v2.57Z"/>
    </g>
    <g>
      <circle class="cls-1" cx="159.19" cy="45.86" r="7.75"/>
      <path class="cls-4" d="M156.88,43.06c.48-.07,1.04-.13,1.67-.13,1.12,0,1.93.26,2.46.76.54.49.86,1.2.86,2.18s-.31,1.8-.87,2.36c-.57.57-1.5.87-2.68.87-.56,0-1.03-.03-1.42-.07v-5.97ZM157.66,48.43c.2.04.49.04.79.04,1.67,0,2.58-.94,2.58-2.57,0-1.43-.8-2.34-2.46-2.34-.4,0-.71.04-.92.08v4.79Z"/>
    </g>
  </g>
  <g>
    <rect class="cls-2" x="370.2" y="13.54" width="124" height="115"/>
    <polyline class="cls-2" points="368.2 13.54 368.2 13.54 369.7 129.04 347.25 161.68 348.7 44.04 370.2 13.54"/>
    <line class="cls-7" x1="494.7" y1="14.04" x2="369.7" y2="14.04"/>
    <line class="cls-7" x1="471.7" y1="44.04" x2="494.7" y2="14.04"/>
    <line class="cls-7" x1="475.7" y1="164.04" x2="495.7" y2="130.04"/>
    <line class="cls-7" x1="494.7" y1="14.04" x2="494.7" y2="130.04"/>
    <line class="cls-8" x1="369.7" y1="14.04" x2="369.7" y2="129.04"/>
    <line class="cls-7" x1="348.47" y1="43.49" x2="371.47" y2="13.49"/>
    <line class="cls-8" x1="494.7" y1="129.04" x2="367.7" y2="129.04"/>
    <polyline class="cls-8" points="369.7 129.04 349.7 160.04 369.7 129.04"/>
    <polygon class="cls-2" points="369.7 14.04 349.79 43.6 473.34 44.36 494.97 13 369.7 14.04"/>
    <polyline class="cls-2" points="348.34 161.36 369.7 129.04 494.7 130.04 474.7 161.04"/>
    <polygon class="cls-2" points="473.34 44.36 493.92 14.97 492.87 132.55 472.72 161.57 473.34 44.36"/>
    <g>
      <circle class="cls-1" cx="369.45" cy="12.79" r="7.75"/>
      <path class="cls-4" d="M371.24,13.18h-2.62v2.43h2.92v.73h-3.79v-6.74h3.64v.73h-2.77v2.13h2.62v.72Z"/>
    </g>
    <g>
      <circle class="cls-1" cx="494.34" cy="129.36" r="7.75"/>
      <path class="cls-4" d="M492.87,126.49v2.54h2.93v-2.54h.79v6.07h-.79v-2.84h-2.93v2.84h-.78v-6.07h.78Z"/>
    </g>
    <g>
      <circle class="cls-1" cx="368.34" cy="129.36" r="7.75"/>
      <path class="cls-4" d="M366.66,126.17h3.63v.73h-2.76v2.24h2.55v.72h-2.55v3.05h-.87v-6.74Z"/>
    </g>
    <g>
      <circle class="cls-1" cx="493.34" cy="12.36" r="7.75"/>
      <path class="cls-4" d="M495.73,15.28c-.35.13-1.04.33-1.86.33-.92,0-1.67-.23-2.27-.8-.52-.5-.85-1.31-.85-2.26,0-1.81,1.25-3.13,3.29-3.13.7,0,1.25.15,1.51.28l-.19.64c-.32-.14-.73-.26-1.34-.26-1.48,0-2.44.92-2.44,2.44s.93,2.45,2.34,2.45c.51,0,.86-.07,1.04-.16v-1.81h-1.23v-.63h2v2.92Z"/>
    </g>
    <rect class="cls-2" x="350.2" y="45.54" width="124" height="115"/>
    <rect class="cls-7" x="348.7" y="44.04" width="126" height="117"/>
    <g>
      <circle class="cls-1" cx="349.45" cy="44.79" r="7.75"/>
      <path class="cls-4" d="M348.24,46.22l-.7,2.12h-.9l2.29-6.74h1.05l2.3,6.74h-.93l-.72-2.12h-2.39ZM350.45,45.54l-.66-1.94c-.15-.44-.25-.84-.35-1.23h-.02c-.1.4-.21.81-.34,1.22l-.66,1.95h2.03Z"/>
    </g>
    <g>
      <circle class="cls-1" cx="474.34" cy="161.36" r="7.75"/>
      <path class="cls-4" d="M476.9,164.69c-.32.16-.96.32-1.78.32-1.9,0-3.33-1.2-3.33-3.41s1.43-3.54,3.52-3.54c.84,0,1.37.18,1.6.3l-.21.71c-.33-.16-.8-.28-1.36-.28-1.58,0-2.63,1.01-2.63,2.78,0,1.65.95,2.71,2.59,2.71.53,0,1.07-.11,1.42-.28l.18.69Z"/>
    </g>
    <g>
      <circle class="cls-1" cx="348.34" cy="161.36" r="7.75"/>
      <path class="cls-4" d="M346.39,158.26c.38-.08.98-.14,1.59-.14.87,0,1.43.15,1.85.49.35.26.56.66.56,1.19,0,.65-.43,1.22-1.14,1.48v.02c.64.16,1.39.69,1.39,1.69,0,.58-.23,1.02-.57,1.35-.47.43-1.23.63-2.33.63-.6,0-1.06-.04-1.35-.08v-6.63ZM347.26,161.02h.79c.92,0,1.46-.48,1.46-1.13,0-.79-.6-1.1-1.48-1.1-.4,0-.63.03-.77.06v2.17ZM347.26,164.25c.17.03.42.04.73.04.9,0,1.73-.33,1.73-1.31,0-.92-.79-1.3-1.74-1.3h-.72v2.57Z"/>
    </g>
    <g>
      <circle class="cls-1" cx="473.34" cy="44.36" r="7.75"/>
      <path class="cls-4" d="M471.02,41.57c.48-.07,1.04-.13,1.67-.13,1.12,0,1.93.26,2.46.76.54.5.85,1.2.85,2.18s-.31,1.8-.87,2.36c-.57.57-1.5.87-2.68.87-.56,0-1.03-.03-1.42-.07v-5.97ZM471.81,46.93c.2.04.49.04.79.04,1.67,0,2.58-.94,2.58-2.58,0-1.43-.8-2.34-2.46-2.34-.41,0-.71.04-.92.08v4.79Z"/>
    </g>
  </g>
  <g>
    <rect class="cls-6" x="69.6" y="169.08" width="51.83" height="13.49"/>
    <path class="cls-1" d="M70.58,178.94v-9.56h2.2v.66h-1.38v8.24h1.38v.66h-2.2Z"/>
    <path class="cls-1" d="M75.09,175.05l-.84,2.54h-1.08l2.75-8.08h1.26l2.76,8.08h-1.12l-.86-2.54h-2.87ZM77.74,174.24l-.79-2.33c-.18-.53-.3-1.01-.42-1.48h-.02c-.12.48-.25.97-.41,1.46l-.79,2.34h2.43Z"/>
    <path class="cls-1" d="M80.41,179.07c.26-.71.59-1.99.72-2.87l1.18-.12c-.28,1.02-.8,2.35-1.14,2.91l-.75.07Z"/>
    <path class="cls-1" d="M83.61,169.62c.64-.1,1.39-.17,2.22-.17,1.5,0,2.57.35,3.27,1.01.72.66,1.14,1.59,1.14,2.9s-.41,2.4-1.16,3.14c-.76.76-2,1.16-3.57,1.16-.74,0-1.37-.04-1.9-.1v-7.95ZM84.65,176.77c.26.05.65.06,1.06.06,2.23,0,3.44-1.25,3.44-3.43.01-1.91-1.07-3.12-3.27-3.12-.54,0-.95.05-1.22.11v6.38Z"/>
    <path class="cls-1" d="M90.47,179.07c.26-.71.59-1.99.72-2.87l1.18-.12c-.28,1.02-.8,2.35-1.14,2.91l-.76.07Z"/>
    <path class="cls-1" d="M99.33,177.33c-.38.19-1.15.38-2.13.38-2.28,0-3.99-1.44-3.99-4.09s1.71-4.25,4.22-4.25c1.01,0,1.64.22,1.92.36l-.25.85c-.4-.19-.96-.34-1.63-.34-1.89,0-3.15,1.21-3.15,3.33,0,1.98,1.14,3.25,3.11,3.25.64,0,1.28-.13,1.7-.34l.22.83Z"/>
    <path class="cls-1" d="M99.92,179.07c.26-.71.59-1.99.72-2.87l1.18-.12c-.28,1.02-.8,2.35-1.14,2.91l-.76.07Z"/>
    <path class="cls-1" d="M103.12,169.62c.46-.1,1.18-.17,1.91-.17,1.04,0,1.71.18,2.22.59.42.31.67.79.67,1.43,0,.78-.52,1.46-1.37,1.78v.02c.77.19,1.67.83,1.67,2.03,0,.7-.28,1.22-.68,1.62-.56.52-1.48.76-2.79.76-.72,0-1.27-.05-1.62-.1v-7.95ZM104.16,172.93h.95c1.1,0,1.75-.58,1.75-1.36,0-.95-.72-1.32-1.78-1.32-.48,0-.75.04-.92.07v2.6ZM104.16,176.81c.2.04.5.05.88.05,1.08,0,2.08-.4,2.08-1.57,0-1.1-.95-1.56-2.09-1.56h-.86v3.08Z"/>
    <path class="cls-1" d="M111.14,169.37v9.57h-2.2v-.66h1.38v-8.25h-1.38v-.66h2.2Z"/>
  </g>
  <g>
    <rect class="cls-6" x="382.59" y="166.44" width="51.83" height="13.49"/>
    <path class="cls-1" d="M383.58,176.3v-9.56h2.2v.66h-1.38v8.24h1.38v.66h-2.2Z"/>
    <path class="cls-1" d="M388.09,172.42l-.84,2.54h-1.08l2.75-8.08h1.26l2.76,8.08h-1.12l-.86-2.54h-2.87ZM390.74,171.6l-.79-2.33c-.18-.53-.3-1.01-.42-1.48h-.02c-.12.48-.25.97-.41,1.46l-.79,2.34h2.43Z"/>
    <path class="cls-1" d="M393.41,176.44c.26-.71.59-1.99.72-2.87l1.18-.12c-.28,1.02-.8,2.35-1.14,2.91l-.76.07Z"/>
    <path class="cls-1" d="M396.61,166.99c.46-.1,1.18-.17,1.91-.17,1.04,0,1.71.18,2.22.59.42.31.67.79.67,1.43,0,.78-.52,1.46-1.37,1.78v.02c.77.19,1.67.83,1.67,2.03,0,.7-.28,1.22-.68,1.62-.56.52-1.48.76-2.79.76-.72,0-1.27-.05-1.62-.1v-7.95ZM397.65,170.3h.95c1.1,0,1.75-.58,1.75-1.36,0-.95-.72-1.32-1.78-1.32-.48,0-.75.04-.92.07v2.6ZM397.65,174.17c.2.04.5.05.88.05,1.08,0,2.08-.4,2.08-1.57,0-1.1-.95-1.56-2.09-1.56h-.86v3.08Z"/>
    <path class="cls-1" d="M402.24,176.44c.26-.71.59-1.99.72-2.87l1.18-.12c-.28,1.02-.8,2.35-1.14,2.91l-.75.07Z"/>
    <path class="cls-1" d="M411.09,174.7c-.38.19-1.15.38-2.13.38-2.28,0-3.99-1.44-3.99-4.09s1.71-4.25,4.22-4.25c1.01,0,1.64.22,1.92.36l-.25.85c-.4-.19-.96-.34-1.63-.34-1.89,0-3.15,1.21-3.15,3.33,0,1.98,1.14,3.25,3.11,3.25.64,0,1.28-.13,1.7-.34l.22.83Z"/>
    <path class="cls-1" d="M411.68,176.44c.26-.71.59-1.99.72-2.87l1.18-.12c-.28,1.02-.8,2.35-1.14,2.91l-.75.07Z"/>
    <path class="cls-1" d="M414.88,166.99c.64-.1,1.39-.17,2.22-.17,1.5,0,2.57.35,3.27,1.01.72.66,1.14,1.59,1.14,2.9s-.41,2.4-1.16,3.14c-.76.76-2,1.16-3.57,1.16-.74,0-1.37-.04-1.9-.1v-7.95ZM415.93,174.13c.26.05.65.06,1.06.06,2.23,0,3.44-1.25,3.44-3.43.01-1.91-1.07-3.12-3.27-3.12-.54,0-.95.05-1.22.11v6.38Z"/>
    <path class="cls-1" d="M424.31,166.73v9.57h-2.2v-.66h1.38v-8.25h-1.38v-.66h2.2Z"/>
  </g>
  <g>
    <g>
      <line class="cls-5" x1="203.43" y1="98.07" x2="311.08" y2="98.07"/>
      <polygon class="cls-9" points="306.95 112.2 331.43 98.07 306.95 83.93 306.95 112.2"/>
    </g>
    <g>
      <rect class="cls-6" x="207.47" y="89.13" width="94.96" height="17.93"/>
      <path class="cls-1" d="M226.99,89.45h3.27v.66h-2.48v2.02h2.29v.65h-2.29v2.75h-.78v-6.07Z"/>
      <path class="cls-1" d="M231.19,89.13h.79v6.39h-.79v-6.39Z"/>
      <path class="cls-1" d="M234.2,89.94c0,.27-.19.49-.5.49-.28,0-.48-.21-.48-.49s.21-.5.5-.5.49.22.49.5ZM233.32,95.52v-4.36h.79v4.36h-.79Z"/>
      <path class="cls-1" d="M235.42,92.59c0-.56-.02-1.01-.04-1.42h.71l.04.75h.02c.32-.53.84-.85,1.55-.85,1.05,0,1.85.89,1.85,2.21,0,1.57-.95,2.34-1.98,2.34-.58,0-1.08-.25-1.34-.68h-.02v2.37h-.78v-4.72ZM236.2,93.75c0,.12.02.23.04.32.14.55.62.93,1.19.93.84,0,1.32-.68,1.32-1.68,0-.87-.46-1.62-1.3-1.62-.54,0-1.04.39-1.2.98-.03.1-.05.21-.05.32v.75Z"/>
      <path class="cls-1" d="M246.39,93.31c0,1.61-1.12,2.31-2.17,2.31-1.18,0-2.09-.86-2.09-2.24,0-1.46.95-2.31,2.16-2.31s2.1.91,2.1,2.24ZM242.94,93.35c0,.95.55,1.67,1.32,1.67s1.32-.71,1.32-1.69c0-.74-.37-1.67-1.31-1.67s-1.34.86-1.34,1.69Z"/>
      <path class="cls-1" d="M247.39,92.52c0-.51,0-.95-.04-1.36h.69l.03.86h.04c.2-.58.68-.95,1.21-.95.09,0,.15,0,.22.03v.75c-.08-.02-.16-.03-.27-.03-.56,0-.95.42-1.06,1.02-.02.11-.04.23-.04.37v2.32h-.78v-3Z"/>
      <path class="cls-1" d="M251.25,89.94c0,.27-.19.49-.5.49-.28,0-.48-.21-.48-.49s.21-.5.5-.5.49.22.49.5ZM250.37,95.52v-4.36h.79v4.36h-.79Z"/>
      <path class="cls-1" d="M252.92,93.49c.02,1.07.7,1.51,1.49,1.51.57,0,.91-.1,1.21-.22l.14.57c-.28.13-.76.27-1.45.27-1.34,0-2.14-.88-2.14-2.2s.77-2.35,2.04-2.35c1.42,0,1.8,1.25,1.8,2.05,0,.16-.02.29-.03.37h-3.06ZM255.24,92.92c0-.5-.21-1.29-1.1-1.29-.8,0-1.15.74-1.21,1.29h2.31Z"/>
      <path class="cls-1" d="M256.99,92.34c0-.45,0-.82-.04-1.18h.7l.04.72h.02c.22-.41.72-.82,1.44-.82.6,0,1.54.36,1.54,1.85v2.6h-.79v-2.51c0-.7-.26-1.29-1.01-1.29-.52,0-.93.37-1.06.81-.04.1-.05.23-.05.37v2.62h-.79v-3.18Z"/>
      <path class="cls-1" d="M262.9,89.91v1.25h1.13v.6h-1.13v2.35c0,.54.15.85.59.85.21,0,.36-.03.46-.05l.04.59c-.15.06-.4.11-.7.11-.37,0-.67-.12-.86-.33-.23-.23-.31-.62-.31-1.13v-2.38h-.67v-.6h.67v-1.04l.77-.21Z"/>
      <path class="cls-1" d="M267.34,95.52l-.06-.55h-.03c-.24.34-.71.65-1.33.65-.88,0-1.33-.62-1.33-1.25,0-1.05.94-1.63,2.62-1.62v-.09c0-.36-.1-1.01-.99-1.01-.41,0-.83.13-1.13.32l-.18-.52c.36-.23.88-.39,1.43-.39,1.33,0,1.66.91,1.66,1.78v1.63c0,.38.02.75.07,1.04h-.72ZM267.22,93.3c-.86-.02-1.85.13-1.85.98,0,.51.34.76.75.76.57,0,.93-.36,1.05-.73.03-.08.04-.17.04-.25v-.76Z"/>
      <path class="cls-1" d="M270.18,89.91v1.25h1.13v.6h-1.13v2.35c0,.54.15.85.59.85.21,0,.36-.03.46-.05l.04.59c-.15.06-.4.11-.7.11-.37,0-.67-.12-.86-.33-.23-.23-.31-.62-.31-1.13v-2.38h-.67v-.6h.67v-1.04l.77-.21Z"/>
      <path class="cls-1" d="M273.09,89.94c0,.27-.19.49-.5.49-.28,0-.48-.21-.48-.49s.21-.5.5-.5.49.22.49.5ZM272.2,95.52v-4.36h.79v4.36h-.79Z"/>
      <path class="cls-1" d="M278.25,93.31c0,1.61-1.12,2.31-2.17,2.31-1.18,0-2.09-.86-2.09-2.24,0-1.46.96-2.31,2.16-2.31s2.1.91,2.1,2.24ZM274.8,93.35c0,.95.55,1.67,1.32,1.67s1.32-.71,1.32-1.69c0-.74-.37-1.67-1.31-1.67s-1.34.86-1.34,1.69Z"/>
      <path class="cls-1" d="M279.25,92.34c0-.45,0-.82-.04-1.18h.7l.04.72h.02c.22-.41.72-.82,1.44-.82.6,0,1.54.36,1.54,1.85v2.6h-.79v-2.51c0-.7-.26-1.29-1.01-1.29-.52,0-.93.37-1.06.81-.04.1-.05.23-.05.37v2.62h-.79v-3.18Z"/>
    </g>
  </g>
  <path class="cls-10" d="M404.55,104.18c.17.21.46.21.63,0l3.76-4.6c.17-.21.09-.39-.18-.4h-1.99c-.28,0-.46-.21-.4-.48,1.03-4.67,5.19-8.18,10.17-8.18,5.74,0,10.41,4.67,10.41,10.41s-4.67,10.41-10.41,10.41c-.69,0-1.25.56-1.25,1.25s.56,1.25,1.25,1.25c7.11,0,12.9-5.79,12.9-12.9s-5.79-12.9-12.9-12.9c-6.35,0-11.64,4.61-12.7,10.67-.05.27-.3.49-.58.52h-2.26c-.28-.03-.36.15-.18.36l3.76,4.6Z"/>
  <path class="cls-10" d="M114.02,105.79c-.16.2-.42.2-.58,0l-3.43-4.33c-.16-.2-.08-.36.17-.37h1.82c.25,0,.42-.2.37-.45-.94-4.4-4.74-7.71-9.28-7.71-5.24,0-9.5,4.4-9.5,9.82s4.26,9.82,9.5,9.82c.63,0,1.14.53,1.14,1.18s-.51,1.18-1.14,1.18c-6.49,0-11.78-5.46-11.78-12.17s5.28-12.17,11.78-12.17c5.8,0,10.63,4.35,11.59,10.06.04.26.27.46.52.49h2.07c.25-.03.33.14.17.34l-3.43,4.33Z"/>
</svg>