<?xml version="1.0" encoding="UTF-8"?>
<svg id="Shell" xmlns="http://www.w3.org/2000/svg" viewBox="0 0 538.58 188.6">
  <defs>
    <style>
      .cls-1, .cls-2 {
        fill: #fff;
      }

      .cls-1, .cls-2, .cls-3 {
        font-family: MyriadPro-Regular, 'Myriad Pro';
      }

      .cls-1, .cls-3 {
        font-size: 9px;
      }

      .cls-4, .cls-3 {
        fill: #231f20;
      }

      .cls-5 {
        letter-spacing: 0em;
      }

      .cls-6 {
        fill: #6dbae7;
        opacity: .31;
      }

      .cls-7 {
        letter-spacing: -.02em;
      }

      .cls-8 {
        stroke: #9b9a9a;
      }

      .cls-8, .cls-9 {
        stroke-width: 2.83px;
      }

      .cls-8, .cls-9, .cls-10 {
        fill: none;
        stroke-miterlimit: 10;
      }

      .cls-11 {
        fill: #9b9a9a;
      }

      .cls-9, .cls-10 {
        stroke: #437898;
      }

      .cls-2 {
        font-size: 10px;
      }

      .cls-10 {
        stroke-dasharray: 5.67;
        stroke-width: 2.83px;
      }

      .cls-12 {
        letter-spacing: -.04em;
      }

      .cls-13 {
        letter-spacing: 0em;
      }
    </style>
  </defs>
  <g>
    <polyline class="cls-6" points="38.5 50.71 71.76 132.74 36.38 166.53 121.51 154.07 76.51 134.48 124.75 125.57 149.3 150.94 143.3 98.94 124.47 121.58 36.29 51.39"/>
    <polyline class="cls-6" points="78.01 31.57 105.51 55.07 171.49 69.44 150.47 44.61 109.05 54.28 117 28.46"/>
    <line class="cls-9" x1="171.75" y1="72.21" x2="153.75" y2="48.21"/>
    <line class="cls-9" x1="78.01" y1="31.57" x2="106.01" y2="55.57"/>
    <line class="cls-9" x1="118.51" y1="27.07" x2="77.51" y2="31.07"/>
    <line class="cls-9" x1="105.51" y1="55.07" x2="119.51" y2="26.07"/>
    <line class="cls-9" x1="150.51" y1="45.07" x2="105.51" y2="55.07"/>
    <line class="cls-9" x1="171.51" y1="69.07" x2="105.51" y2="55.07"/>
    <line class="cls-9" x1="143.51" y1="99.07" x2="124.51" y2="125.07"/>
    <line class="cls-9" x1="151.51" y1="152.07" x2="143.51" y2="99.07"/>
    <line class="cls-9" x1="124.51" y1="125.07" x2="151.51" y2="152.07"/>
    <line class="cls-9" x1="121.51" y1="154.07" x2="71.51" y2="133.07"/>
    <line class="cls-9" x1="34.51" y1="170.07" x2="118.51" y2="153.07"/>
    <line class="cls-9" x1="73.51" y1="132.07" x2="34.51" y2="170.07"/>
    <line class="cls-9" x1="36.51" y1="51.07" x2="124.51" y2="124.07"/>
    <line class="cls-9" x1="71.51" y1="133.07" x2="36.51" y2="51.07"/>
    <line class="cls-9" x1="124.51" y1="125.07" x2="73.51" y2="135.07"/>
    <circle class="cls-4" cx="37.5" cy="49.96" r="7.75"/>
    <text class="cls-2" transform="translate(34.44 53.51)"><tspan x="0" y="0">A</tspan></text>
    <circle class="cls-4" cx="73.38" cy="132.53" r="7.75"/>
    <text class="cls-2" transform="translate(70.48 136.08)"><tspan x="0" y="0">C</tspan></text>
    <circle class="cls-4" cx="36.38" cy="166.53" r="7.75"/>
    <text class="cls-2" transform="translate(33.67 170.08)"><tspan x="0" y="0">B</tspan></text>
    <circle class="cls-4" cx="106.38" cy="55.53" r="7.75"/>
    <text class="cls-1" transform="translate(103.39 58.72)"><tspan x="0" y="0">D</tspan></text>
    <circle class="cls-4" cx="143.3" cy="98.94" r="7.75"/>
    <text class="cls-2" transform="translate(140.07 102.49)"><tspan x="0" y="0">G</tspan></text>
    <circle class="cls-4" cx="149.3" cy="150.94" r="7.75"/>
    <text class="cls-1" transform="translate(148.22 154.14)"><tspan x="0" y="0">I</tspan></text>
    <circle class="cls-4" cx="172.3" cy="68.94" r="7.75"/>
    <text class="cls-2" transform="translate(169.86 72.49)"><tspan x="0" y="0">F</tspan></text>
    <circle class="cls-4" cx="151.3" cy="44.94" r="7.75"/>
    <text class="cls-2" transform="translate(148.84 48.49)"><tspan x="0" y="0">E</tspan></text>
    <circle class="cls-4" cx="117" cy="28.46" r="7.75"/>
    <text class="cls-1" transform="translate(114.88 31.65)"><tspan x="0" y="0">L</tspan></text>
    <circle class="cls-4" cx="78" cy="31.46" r="7.75"/>
    <text class="cls-1" transform="translate(75.56 34.65)"><tspan x="0" y="0">K</tspan></text>
    <circle class="cls-4" cx="121" cy="152.46" r="7.75"/>
    <text class="cls-1" transform="translate(119.34 155.65)"><tspan x="0" y="0">J</tspan></text>
    <circle class="cls-4" cx="123" cy="124.46" r="7.75"/>
    <text class="cls-1" transform="translate(120.07 127.65)"><tspan x="0" y="0">H</tspan></text>
  </g>
  <g>
    <g>
      <line class="cls-8" x1="203.01" y1="96.07" x2="310.67" y2="96.07"/>
      <polygon class="cls-11" points="306.53 110.2 331.01 96.07 306.53 81.93 306.53 110.2"/>
    </g>
    <text class="cls-3" transform="translate(232.79 93.52)"><tspan class="cls-13" x="0" y="0">A</tspan><tspan x="5.48" y="0">lpha</tspan><tspan class="cls-12" x="22.06" y="0"> </tspan><tspan class="cls-7" x="23.64" y="0">W</tspan><tspan class="cls-5" x="31.11" y="0">r</tspan><tspan x="34.01" y="0">ap</tspan></text>
  </g>
  <g>
    <polygon class="cls-6" points="347.7 164.23 349.45 46.81 391.97 26.63 427.95 23.63 485.65 67.49 459.51 147.07 433.51 150.07 347.7 164.23"/>
    <line class="cls-10" x1="348.51" y1="163.07" x2="383.51" y2="131.07"/>
    <line class="cls-10" x1="350.51" y1="49.07" x2="384.51" y2="130.07"/>
    <line class="cls-10" x1="429.51" y1="148.07" x2="386.51" y2="131.07"/>
    <line class="cls-10" x1="459.51" y1="147.07" x2="456.51" y2="98.07"/>
    <line class="cls-10" x1="435.51" y1="147.07" x2="456.51" y2="98.07"/>
    <line class="cls-10" x1="384.51" y1="130.07" x2="452.51" y2="97.07"/>
    <line class="cls-10" x1="415.51" y1="57.07" x2="454.51" y2="97.07"/>
    <line class="cls-10" x1="351.51" y1="51.07" x2="415.51" y2="57.07"/>
    <line class="cls-10" x1="391.51" y1="33.07" x2="415.51" y2="57.07"/>
    <line class="cls-10" x1="426.51" y1="29.07" x2="415.51" y2="57.07"/>
    <line class="cls-10" x1="485.51" y1="64.07" x2="419.51" y2="56.07"/>
    <line class="cls-10" x1="454.51" y1="51.07" x2="485.51" y2="64.07"/>
    <line class="cls-10" x1="428.51" y1="34.07" x2="454.51" y2="51.07"/>
    <line class="cls-10" x1="418.51" y1="54.07" x2="454.51" y2="54.07"/>
    <circle class="cls-4" cx="454.17" cy="47.78" r="7.75"/>
    <text class="cls-2" transform="translate(451.71 51.33)"><tspan x="0" y="0">E</tspan></text>
    <circle class="cls-4" cx="454.91" cy="96.99" r="7.75"/>
    <text class="cls-2" transform="translate(451.68 100.54)"><tspan x="0" y="0">G</tspan></text>
    <line class="cls-9" x1="433.51" y1="120.07" x2="485.51" y2="64.07"/>
    <circle class="cls-4" cx="384.99" cy="130.57" r="7.75"/>
    <text class="cls-2" transform="translate(382.09 134.12)"><tspan x="0" y="0">C</tspan></text>
    <circle class="cls-4" cx="417.99" cy="53.57" r="7.75"/>
    <text class="cls-1" transform="translate(415 56.77)"><tspan x="0" y="0">D</tspan></text>
    <polygon class="cls-6" points="349.01 165.7 350.75 48.28 393.28 28.09 429.26 25.09 486.96 68.95 460.81 148.53 434.81 151.53 349.01 165.7"/>
    <line class="cls-9" x1="427.51" y1="26.07" x2="485.51" y2="64.07"/>
    <line class="cls-9" x1="350.51" y1="49.07" x2="347.51" y2="167.07"/>
    <line class="cls-9" x1="433.51" y1="152.07" x2="347.51" y2="167.07"/>
    <line class="cls-9" x1="433.51" y1="122.07" x2="433.51" y2="152.07"/>
    <line class="cls-9" x1="347.51" y1="165.07" x2="433.51" y2="120.07"/>
    <line class="cls-9" x1="348.51" y1="49.07" x2="433.51" y2="120.07"/>
    <line class="cls-9" x1="461.51" y1="146.07" x2="432.51" y2="150.07"/>
    <line class="cls-9" x1="485.51" y1="64.07" x2="461.51" y2="146.07"/>
    <line class="cls-9" x1="433.51" y1="150.07" x2="485.51" y2="64.07"/>
    <line class="cls-9" x1="347.51" y1="51.07" x2="427.51" y2="26.07"/>
    <line class="cls-9" x1="432.51" y1="117.07" x2="427.51" y2="26.07"/>
    <line class="cls-9" x1="348.51" y1="49.07" x2="388.51" y2="29.07"/>
    <line class="cls-9" x1="427.51" y1="26.07" x2="388.51" y2="27.07"/>
    <circle class="cls-4" cx="349.11" cy="48" r="7.75"/>
    <text class="cls-2" transform="translate(346.05 51.55)"><tspan x="0" y="0">A</tspan></text>
    <circle class="cls-4" cx="347.99" cy="164.57" r="7.75"/>
    <text class="cls-2" transform="translate(345.28 168.12)"><tspan x="0" y="0">B</tspan></text>
    <circle class="cls-4" cx="460.91" cy="148.99" r="7.75"/>
    <text class="cls-1" transform="translate(459.83 152.18)"><tspan x="0" y="0">I</tspan></text>
    <circle class="cls-4" cx="483.91" cy="66.99" r="7.75"/>
    <text class="cls-2" transform="translate(481.47 70.54)"><tspan x="0" y="0">F</tspan></text>
    <circle class="cls-4" cx="428.61" cy="26.5" r="7.75"/>
    <text class="cls-1" transform="translate(426.49 29.7)"><tspan x="0" y="0">L</tspan></text>
    <circle class="cls-4" cx="389.61" cy="29.5" r="7.75"/>
    <text class="cls-1" transform="translate(387.17 32.7)"><tspan x="0" y="0">K</tspan></text>
    <circle class="cls-4" cx="432.61" cy="150.5" r="7.75"/>
    <text class="cls-1" transform="translate(430.95 153.7)"><tspan x="0" y="0">J</tspan></text>
    <circle class="cls-4" cx="434.61" cy="122.5" r="7.75"/>
    <text class="cls-1" transform="translate(431.68 125.7)"><tspan x="0" y="0">H</tspan></text>
  </g>
</svg>