<?xml version="1.0" encoding="UTF-8"?>
<svg id="Solid" xmlns="http://www.w3.org/2000/svg" viewBox="0 0 796 371.23">
  <defs>
    <style>
      .cls-1 {
        fill: #c92027;
      }

      .cls-2 {
        fill: #231f20;
      }

      .cls-3 {
        fill: #6dbae7;
      }

      .cls-3, .cls-4 {
        opacity: .31;
      }

      .cls-5, .cls-6 {
        fill: #fff;
      }

      .cls-7 {
        stroke: #9b9a9a;
      }

      .cls-7, .cls-8, .cls-9, .cls-10, .cls-11 {
        fill: none;
      }

      .cls-7, .cls-9, .cls-10, .cls-11 {
        stroke-miterlimit: 10;
        stroke-width: 2.83px;
      }

      .cls-12 {
        fill: #9b9a9a;
      }

      .cls-9, .cls-10, .cls-11 {
        stroke: #437898;
      }

      .cls-4 {
        fill: #437898;
      }

      .cls-10 {
        stroke-dasharray: 3;
      }

      .cls-13 {
        fill: #39b54a;
      }

      .cls-6 {
        opacity: .74;
      }

      .cls-11 {
        stroke-dasharray: 5.67;
      }
    </style>
  </defs>
  <g>
    <g>
      <line class="cls-7" x1="321" y1="116.5" x2="428.66" y2="116.5"/>
      <polygon class="cls-12" points="424.52 130.63 449 116.5 424.52 102.37 424.52 130.63"/>
    </g>
    <g>
      <rect class="cls-8" x="325.04" y="107.57" width="94.96" height="17.93"/>
      <path class="cls-2" d="M351.29,107.97c.48-.07,1.04-.13,1.67-.13,1.12,0,1.93.26,2.46.76.54.49.86,1.2.86,2.18s-.31,1.8-.87,2.36c-.57.57-1.5.87-2.68.87-.56,0-1.03-.03-1.42-.07v-5.97ZM352.08,113.33c.2.04.49.04.79.04,1.67,0,2.58-.94,2.58-2.57,0-1.43-.8-2.34-2.46-2.34-.41,0-.71.04-.92.08v4.79Z"/>
      <path class="cls-2" d="M357.74,111.92c.02,1.07.7,1.51,1.49,1.51.57,0,.91-.1,1.21-.22l.14.57c-.28.13-.76.27-1.45.27-1.34,0-2.14-.88-2.14-2.2s.77-2.35,2.04-2.35c1.42,0,1.8,1.25,1.8,2.05,0,.16-.02.29-.03.37h-3.06ZM360.06,111.35c0-.5-.21-1.29-1.1-1.29-.8,0-1.15.74-1.21,1.29h2.31Z"/>
      <path class="cls-2" d="M361.8,107.56h.79v6.39h-.79v-6.39Z"/>
      <path class="cls-2" d="M364.37,111.92c.02,1.07.7,1.51,1.49,1.51.57,0,.91-.1,1.21-.22l.14.57c-.28.13-.76.27-1.45.27-1.34,0-2.14-.88-2.14-2.2s.77-2.35,2.04-2.35c1.42,0,1.8,1.25,1.8,2.05,0,.16-.02.29-.03.37h-3.06ZM366.69,111.35c0-.5-.21-1.29-1.1-1.29-.8,0-1.15.74-1.21,1.29h2.31Z"/>
      <path class="cls-2" d="M369.39,108.35v1.25h1.13v.6h-1.13v2.35c0,.54.15.85.59.85.21,0,.36-.03.46-.05l.04.59c-.15.06-.4.11-.7.11-.37,0-.67-.12-.86-.33-.23-.23-.31-.62-.31-1.13v-2.38h-.67v-.6h.67v-1.04l.77-.21Z"/>
      <path class="cls-2" d="M371.8,111.92c.02,1.07.7,1.51,1.49,1.51.57,0,.91-.1,1.21-.22l.14.57c-.28.13-.76.27-1.45.27-1.34,0-2.14-.88-2.14-2.2s.77-2.35,2.04-2.35c1.42,0,1.8,1.25,1.8,2.05,0,.16-.02.29-.03.37h-3.06ZM374.12,111.35c0-.5-.21-1.29-1.1-1.29-.8,0-1.15.74-1.21,1.29h2.31Z"/>
      <path class="cls-2" d="M377.67,113.15c.23.15.65.32,1.04.32.58,0,.85-.29.85-.65,0-.38-.22-.59-.81-.8-.78-.28-1.15-.71-1.15-1.23,0-.7.57-1.28,1.5-1.28.44,0,.83.13,1.07.27l-.2.58c-.17-.11-.49-.25-.89-.25-.47,0-.73.27-.73.59,0,.36.26.52.83.74.76.29,1.14.67,1.14,1.31,0,.77-.59,1.3-1.63,1.3-.48,0-.92-.12-1.22-.3l.2-.6Z"/>
      <path class="cls-2" d="M381.34,107.56h.79v2.72h.02c.13-.22.32-.42.57-.56.23-.13.51-.23.81-.23.58,0,1.52.36,1.52,1.86v2.59h-.79v-2.5c0-.7-.26-1.3-1.01-1.3-.51,0-.92.36-1.06.79-.05.11-.05.22-.05.38v2.63h-.79v-6.39Z"/>
      <path class="cls-2" d="M386.78,111.92c.02,1.07.7,1.51,1.49,1.51.57,0,.91-.1,1.21-.22l.14.57c-.28.13-.76.27-1.45.27-1.34,0-2.14-.88-2.14-2.2s.77-2.35,2.04-2.35c1.42,0,1.8,1.25,1.8,2.05,0,.16-.02.29-.03.37h-3.06ZM389.1,111.35c0-.5-.21-1.29-1.1-1.29-.8,0-1.15.74-1.21,1.29h2.31Z"/>
      <path class="cls-2" d="M390.85,107.56h.79v6.39h-.79v-6.39Z"/>
      <path class="cls-2" d="M392.97,107.56h.79v6.39h-.79v-6.39Z"/>
    </g>
  </g>
  <g>
    <rect class="cls-3" x="56.64" y="123.43" width="124" height="115"/>
    <polyline class="cls-3" points="54.64 123.43 54.64 123.43 56.14 238.93 33.69 271.57 35.14 153.93 56.64 123.43"/>
    <line class="cls-9" x1="181.14" y1="123.93" x2="56.14" y2="123.93"/>
    <line class="cls-9" x1="158.14" y1="153.93" x2="181.14" y2="123.93"/>
    <line class="cls-9" x1="162.14" y1="273.93" x2="182.14" y2="239.93"/>
    <line class="cls-9" x1="181.14" y1="123.93" x2="181.14" y2="239.93"/>
    <line class="cls-11" x1="56.14" y1="123.93" x2="56.14" y2="238.93"/>
    <line class="cls-9" x1="34.91" y1="153.37" x2="57.91" y2="123.37"/>
    <line class="cls-11" x1="181.14" y1="238.93" x2="54.14" y2="238.93"/>
    <polyline class="cls-11" points="56.14 238.93 36.14 269.93 56.14 238.93"/>
    <polygon class="cls-3" points="56.14 123.93 36.23 153.49 159.78 154.25 181.4 122.89 56.14 123.93"/>
    <polyline class="cls-3" points="34.78 271.25 56.14 238.93 181.14 239.93 161.14 270.93"/>
    <polygon class="cls-3" points="159.78 154.25 180.36 124.86 179.31 242.44 159.15 271.46 159.78 154.25"/>
    <g>
      <circle class="cls-2" cx="55.89" cy="122.68" r="7.75"/>
      <path class="cls-5" d="M57.68,123.07h-2.62v2.43h2.92v.73h-3.79v-6.74h3.64v.73h-2.77v2.13h2.62v.72Z"/>
    </g>
    <g>
      <circle class="cls-2" cx="180.78" cy="239.25" r="7.75"/>
      <path class="cls-5" d="M179.31,236.37v2.54h2.94v-2.54h.79v6.07h-.79v-2.84h-2.94v2.84h-.78v-6.07h.78Z"/>
    </g>
    <g>
      <circle class="cls-2" cx="54.78" cy="239.25" r="7.75"/>
      <path class="cls-5" d="M53.1,236.06h3.63v.73h-2.76v2.24h2.55v.72h-2.55v3.05h-.87v-6.74Z"/>
    </g>
    <g>
      <circle class="cls-2" cx="179.78" cy="122.25" r="7.75"/>
      <path class="cls-5" d="M182.17,125.17c-.35.13-1.04.33-1.86.33-.92,0-1.67-.23-2.27-.8-.52-.5-.85-1.31-.85-2.26,0-1.81,1.25-3.13,3.29-3.13.7,0,1.25.15,1.51.28l-.19.64c-.32-.14-.73-.26-1.34-.26-1.48,0-2.44.92-2.44,2.44s.93,2.45,2.34,2.45c.51,0,.86-.07,1.04-.16v-1.81h-1.23v-.63h2v2.92Z"/>
    </g>
    <rect class="cls-3" x="36.64" y="155.43" width="124" height="115"/>
    <rect class="cls-9" x="35.14" y="153.93" width="126" height="117"/>
    <g>
      <circle class="cls-2" cx="35.89" cy="154.68" r="7.75"/>
      <path class="cls-5" d="M34.68,156.11l-.7,2.12h-.9l2.29-6.74h1.05l2.3,6.74h-.93l-.72-2.12h-2.39ZM36.89,155.43l-.66-1.94c-.15-.44-.25-.84-.35-1.23h-.02c-.1.4-.21.81-.34,1.22l-.66,1.95h2.03Z"/>
    </g>
    <g>
      <circle class="cls-2" cx="160.78" cy="271.25" r="7.75"/>
      <path class="cls-5" d="M163.34,274.58c-.32.16-.96.32-1.78.32-1.9,0-3.33-1.2-3.33-3.41s1.43-3.54,3.52-3.54c.84,0,1.37.18,1.6.3l-.21.71c-.33-.16-.8-.28-1.36-.28-1.58,0-2.63,1.01-2.63,2.78,0,1.65.95,2.71,2.59,2.71.53,0,1.07-.11,1.42-.28l.18.69Z"/>
    </g>
    <g>
      <circle class="cls-2" cx="34.78" cy="271.25" r="7.75"/>
      <path class="cls-5" d="M32.82,268.15c.38-.08.98-.14,1.59-.14.87,0,1.43.15,1.85.49.35.26.56.66.56,1.19,0,.65-.43,1.22-1.14,1.48v.02c.64.16,1.39.69,1.39,1.69,0,.58-.23,1.02-.57,1.35-.47.43-1.23.63-2.33.63-.6,0-1.06-.04-1.35-.08v-6.63ZM33.69,270.91h.79c.92,0,1.46-.48,1.46-1.13,0-.79-.6-1.1-1.48-1.1-.4,0-.63.03-.77.06v2.17ZM33.69,274.14c.17.03.42.04.73.04.9,0,1.73-.33,1.73-1.31,0-.92-.79-1.3-1.74-1.3h-.72v2.57Z"/>
    </g>
    <g>
      <circle class="cls-2" cx="159.78" cy="154.25" r="7.75"/>
      <path class="cls-5" d="M157.46,151.46c.48-.07,1.04-.13,1.67-.13,1.13,0,1.93.26,2.46.76.54.5.86,1.2.86,2.18s-.31,1.8-.87,2.36c-.57.57-1.5.87-2.68.87-.56,0-1.03-.03-1.42-.07v-5.97ZM158.25,156.82c.2.04.49.04.79.04,1.67,0,2.58-.94,2.58-2.58,0-1.43-.8-2.34-2.46-2.34-.41,0-.71.04-.92.08v4.79Z"/>
    </g>
    <g>
      <line class="cls-11" x1="156.48" y1="63.23" x2="156.48" y2="97.31"/>
      <line class="cls-11" x1="193.53" y1="97.31" x2="155.89" y2="97.31"/>
      <polyline class="cls-10" points="156.48 97.31 150.56 106.5 156.48 97.31"/>
      <circle class="cls-2" cx="156.93" cy="97.21" r="3.72"/>
      <polygon class="cls-6" points="156.48 63.23 150.19 71.96 150.26 108.21 187.9 107.69 193.82 97.61 193.53 63.23 156.48 63.23"/>
      <line class="cls-9" x1="193.53" y1="63.23" x2="193.53" y2="97.61"/>
      <line class="cls-9" x1="187.9" y1="107.69" x2="193.82" y2="97.61"/>
      <line class="cls-9" x1="186.71" y1="72.12" x2="193.53" y2="63.23"/>
      <line class="cls-9" x1="193.53" y1="63.23" x2="156.48" y2="63.23"/>
      <line class="cls-9" x1="150.19" y1="71.96" x2="157" y2="63.07"/>
      <rect class="cls-9" x="150.26" y="72.12" width="37.34" height="34.67"/>
      <circle class="cls-2" cx="156.43" cy="62.98" r="3.72"/>
      <circle class="cls-2" cx="194.93" cy="97.21" r="3.72"/>
      <circle class="cls-2" cx="186.93" cy="107.21" r="3.72"/>
      <circle class="cls-2" cx="149.93" cy="108.21" r="3.72"/>
      <circle class="cls-2" cx="187.93" cy="73.21" r="3.72"/>
      <circle class="cls-2" cx="148.93" cy="72.21" r="3.72"/>
      <circle class="cls-2" cx="193.93" cy="63.21" r="3.72"/>
    </g>
  </g>
  <g>
    <rect class="cls-3" x="484.8" y="14.28" width="124" height="115"/>
    <polyline class="cls-3" points="482.8 14.28 482.8 14.28 484.3 129.78 461.85 162.42 463.3 44.78 484.8 14.28"/>
    <line class="cls-9" x1="609.3" y1="14.78" x2="484.3" y2="14.78"/>
    <line class="cls-9" x1="586.3" y1="44.78" x2="609.3" y2="14.78"/>
    <line class="cls-9" x1="590.3" y1="164.78" x2="610.3" y2="130.78"/>
    <line class="cls-9" x1="609.3" y1="14.78" x2="609.3" y2="130.78"/>
    <line class="cls-11" x1="484.3" y1="14.78" x2="484.3" y2="129.78"/>
    <line class="cls-9" x1="463.06" y1="44.22" x2="486.06" y2="14.22"/>
    <line class="cls-11" x1="609.3" y1="129.78" x2="482.3" y2="129.78"/>
    <polyline class="cls-11" points="484.3 129.78 464.3 160.78 484.3 129.78"/>
    <polygon class="cls-3" points="484.3 14.78 464.38 44.34 587.93 45.1 609.56 13.74 484.3 14.78"/>
    <polyline class="cls-3" points="462.93 162.1 484.3 129.78 609.3 130.78 589.3 161.78"/>
    <polygon class="cls-3" points="587.93 45.1 608.52 15.71 607.46 133.29 587.31 162.31 587.93 45.1"/>
    <g>
      <circle class="cls-2" cx="484.05" cy="13.53" r="7.75"/>
      <path class="cls-5" d="M485.83,13.92h-2.62v2.43h2.92v.73h-3.79v-6.74h3.64v.73h-2.77v2.13h2.62v.72Z"/>
    </g>
    <g>
      <circle class="cls-2" cx="608.93" cy="130.1" r="7.75"/>
      <path class="cls-5" d="M607.46,127.22v2.54h2.93v-2.54h.79v6.07h-.79v-2.84h-2.93v2.84h-.78v-6.07h.78Z"/>
    </g>
    <g>
      <circle class="cls-2" cx="482.93" cy="130.1" r="7.75"/>
      <path class="cls-5" d="M481.25,126.91h3.63v.73h-2.76v2.24h2.55v.72h-2.55v3.05h-.87v-6.74Z"/>
    </g>
    <g>
      <circle class="cls-2" cx="607.93" cy="13.1" r="7.75"/>
      <path class="cls-5" d="M610.32,16.02c-.35.13-1.04.33-1.86.33-.92,0-1.67-.23-2.27-.8-.52-.5-.85-1.31-.85-2.26,0-1.81,1.25-3.13,3.29-3.13.7,0,1.25.15,1.51.28l-.19.64c-.32-.14-.73-.26-1.34-.26-1.48,0-2.44.92-2.44,2.44s.93,2.45,2.34,2.45c.51,0,.86-.07,1.04-.16v-1.81h-1.23v-.63h2v2.92Z"/>
    </g>
    <rect class="cls-3" x="464.8" y="46.28" width="124" height="115"/>
    <rect class="cls-9" x="463.3" y="44.78" width="126" height="117"/>
    <g>
      <circle class="cls-2" cx="464.05" cy="45.53" r="7.75"/>
      <path class="cls-5" d="M462.84,46.96l-.7,2.12h-.9l2.29-6.74h1.05l2.3,6.74h-.93l-.72-2.12h-2.39ZM465.04,46.28l-.66-1.94c-.15-.44-.25-.84-.35-1.23h-.02c-.1.4-.21.81-.34,1.22l-.66,1.95h2.03Z"/>
    </g>
    <g>
      <circle class="cls-2" cx="588.93" cy="162.1" r="7.75"/>
      <path class="cls-5" d="M591.5,165.43c-.32.16-.96.32-1.78.32-1.9,0-3.33-1.2-3.33-3.41s1.43-3.54,3.52-3.54c.84,0,1.37.18,1.6.3l-.21.71c-.33-.16-.8-.28-1.36-.28-1.58,0-2.63,1.01-2.63,2.78,0,1.65.95,2.71,2.59,2.71.53,0,1.07-.11,1.42-.28l.18.69Z"/>
    </g>
    <g>
      <circle class="cls-2" cx="462.93" cy="162.1" r="7.75"/>
      <path class="cls-5" d="M460.98,159c.38-.08.98-.14,1.59-.14.87,0,1.43.15,1.85.49.35.26.56.66.56,1.19,0,.65-.43,1.22-1.14,1.48v.02c.64.16,1.39.69,1.39,1.69,0,.58-.23,1.02-.57,1.35-.47.43-1.23.63-2.33.63-.6,0-1.06-.04-1.35-.08v-6.63ZM461.85,161.76h.79c.92,0,1.46-.48,1.46-1.13,0-.79-.6-1.1-1.48-1.1-.4,0-.63.03-.77.06v2.17ZM461.85,164.99c.17.03.42.04.73.04.9,0,1.73-.33,1.73-1.31,0-.92-.79-1.3-1.74-1.3h-.72v2.57Z"/>
    </g>
    <g>
      <circle class="cls-2" cx="587.93" cy="45.1" r="7.75"/>
      <path class="cls-5" d="M585.62,42.3c.48-.07,1.04-.12,1.67-.12,1.12,0,1.93.26,2.46.76.54.5.85,1.2.85,2.18s-.31,1.8-.87,2.36c-.57.57-1.5.87-2.68.87-.56,0-1.03-.03-1.42-.07v-5.97ZM586.4,47.67c.2.04.49.04.79.04,1.67,0,2.58-.94,2.58-2.58,0-1.43-.8-2.34-2.46-2.34-.41,0-.71.04-.92.08v4.79Z"/>
    </g>
  </g>
  <g>
    <rect class="cls-3" x="638.8" y="202.8" width="124" height="115"/>
    <polyline class="cls-3" points="636.8 202.8 636.8 202.8 638.3 318.3 615.85 350.94 617.3 233.3 638.8 202.8"/>
    <line class="cls-9" x1="763.3" y1="203.3" x2="638.3" y2="203.3"/>
    <line class="cls-9" x1="740.3" y1="233.3" x2="763.3" y2="203.3"/>
    <line class="cls-9" x1="744.3" y1="353.3" x2="764.3" y2="319.3"/>
    <line class="cls-9" x1="763.3" y1="203.3" x2="763.3" y2="319.3"/>
    <line class="cls-11" x1="638.3" y1="203.3" x2="638.3" y2="318.3"/>
    <line class="cls-9" x1="617.06" y1="232.74" x2="640.06" y2="202.74"/>
    <line class="cls-11" x1="763.3" y1="318.3" x2="636.3" y2="318.3"/>
    <polyline class="cls-11" points="638.3 318.3 618.3 349.3 638.3 318.3"/>
    <polygon class="cls-3" points="638.3 203.3 618.38 232.86 741.93 233.62 763.56 202.25 638.3 203.3"/>
    <polyline class="cls-3" points="616.93 350.62 638.3 318.3 763.3 319.3 743.3 350.3"/>
    <polygon class="cls-3" points="741.93 233.62 762.52 204.23 761.46 321.81 741.31 350.83 741.93 233.62"/>
    <g>
      <circle class="cls-2" cx="638.05" cy="202.05" r="7.75"/>
      <path class="cls-5" d="M639.83,202.44h-2.62v2.43h2.92v.73h-3.79v-6.74h3.64v.73h-2.77v2.13h2.62v.72Z"/>
    </g>
    <g>
      <circle class="cls-2" cx="762.93" cy="318.62" r="7.75"/>
      <path class="cls-5" d="M761.46,315.74v2.54h2.93v-2.54h.79v6.07h-.79v-2.84h-2.93v2.84h-.78v-6.07h.78Z"/>
    </g>
    <g>
      <circle class="cls-2" cx="636.93" cy="318.62" r="7.75"/>
      <path class="cls-5" d="M635.25,315.43h3.63v.73h-2.76v2.24h2.55v.72h-2.55v3.05h-.87v-6.74Z"/>
    </g>
    <g>
      <circle class="cls-2" cx="761.93" cy="201.62" r="7.75"/>
      <path class="cls-5" d="M764.32,204.54c-.35.13-1.04.33-1.86.33-.92,0-1.67-.23-2.27-.8-.52-.5-.85-1.31-.85-2.26,0-1.81,1.25-3.13,3.29-3.13.7,0,1.25.15,1.51.28l-.19.64c-.32-.14-.73-.26-1.34-.26-1.48,0-2.44.92-2.44,2.44s.93,2.45,2.34,2.45c.51,0,.86-.07,1.04-.16v-1.81h-1.23v-.63h2v2.92Z"/>
    </g>
    <rect class="cls-3" x="618.8" y="234.8" width="124" height="115"/>
    <rect class="cls-9" x="617.3" y="233.3" width="126" height="117"/>
    <g>
      <circle class="cls-2" cx="618.05" cy="234.05" r="7.75"/>
      <path class="cls-5" d="M616.84,235.48l-.7,2.12h-.9l2.29-6.74h1.05l2.3,6.74h-.93l-.72-2.12h-2.39ZM619.04,234.8l-.66-1.94c-.15-.44-.25-.84-.35-1.23h-.02c-.1.4-.21.81-.34,1.22l-.66,1.95h2.03Z"/>
    </g>
    <g>
      <circle class="cls-2" cx="742.93" cy="350.62" r="7.75"/>
      <path class="cls-5" d="M745.5,353.95c-.32.16-.96.32-1.78.32-1.9,0-3.33-1.2-3.33-3.41s1.43-3.54,3.52-3.54c.84,0,1.37.18,1.6.3l-.21.71c-.33-.16-.8-.28-1.36-.28-1.58,0-2.63,1.01-2.63,2.78,0,1.65.95,2.71,2.59,2.71.53,0,1.07-.11,1.42-.28l.18.69Z"/>
    </g>
    <g>
      <circle class="cls-2" cx="616.93" cy="350.62" r="7.75"/>
      <path class="cls-5" d="M614.98,347.52c.38-.08.98-.14,1.59-.14.87,0,1.43.15,1.85.49.35.26.56.66.56,1.19,0,.65-.43,1.22-1.14,1.48v.02c.64.16,1.39.69,1.39,1.69,0,.58-.23,1.02-.57,1.35-.47.43-1.23.63-2.33.63-.6,0-1.06-.04-1.35-.08v-6.63ZM615.85,350.28h.79c.92,0,1.46-.48,1.46-1.13,0-.79-.6-1.1-1.48-1.1-.4,0-.63.03-.77.06v2.17ZM615.85,353.51c.17.03.42.04.73.04.9,0,1.73-.33,1.73-1.31,0-.92-.79-1.3-1.74-1.3h-.72v2.57Z"/>
    </g>
    <g>
      <circle class="cls-2" cx="741.93" cy="233.62" r="7.75"/>
      <path class="cls-5" d="M739.62,230.82c.48-.07,1.04-.12,1.67-.12,1.12,0,1.93.26,2.46.76.54.5.85,1.2.85,2.18s-.31,1.8-.87,2.36c-.57.57-1.5.87-2.68.87-.56,0-1.03-.03-1.42-.07v-5.97ZM740.4,236.19c.2.04.49.04.79.04,1.67,0,2.58-.94,2.58-2.58,0-1.43-.8-2.34-2.46-2.34-.41,0-.71.04-.92.08v4.79Z"/>
    </g>
    <g>
      <line class="cls-11" x1="738.64" y1="142.6" x2="738.64" y2="176.68"/>
      <line class="cls-11" x1="775.68" y1="176.68" x2="738.04" y2="176.68"/>
      <polyline class="cls-10" points="738.64 176.68 732.71 185.87 738.64 176.68"/>
      <circle class="cls-2" cx="739.08" cy="176.58" r="3.72"/>
      <polygon class="cls-4" points="738.64 142.6 732.34 151.33 732.41 187.58 770.05 187.06 775.98 176.98 775.68 142.6 738.64 142.6"/>
      <line class="cls-9" x1="775.68" y1="142.6" x2="775.68" y2="176.98"/>
      <line class="cls-9" x1="770.05" y1="187.06" x2="775.98" y2="176.98"/>
      <line class="cls-9" x1="768.86" y1="151.49" x2="775.68" y2="142.6"/>
      <line class="cls-9" x1="775.68" y1="142.6" x2="738.64" y2="142.6"/>
      <line class="cls-9" x1="732.34" y1="151.33" x2="739.16" y2="142.44"/>
      <rect class="cls-9" x="732.41" y="151.49" width="37.34" height="34.67"/>
      <circle class="cls-2" cx="738.58" cy="142.35" r="3.72"/>
      <circle class="cls-2" cx="777.08" cy="176.58" r="3.72"/>
      <circle class="cls-2" cx="769.08" cy="186.58" r="3.72"/>
      <circle class="cls-2" cx="732.08" cy="187.58" r="3.72"/>
      <circle class="cls-2" cx="770.08" cy="152.58" r="3.72"/>
      <circle class="cls-2" cx="731.08" cy="151.58" r="3.72"/>
      <circle class="cls-2" cx="776.08" cy="142.58" r="3.72"/>
    </g>
  </g>
  <g>
    <g>
      <line class="cls-7" x1="475" y1="241.5" x2="582.66" y2="241.5"/>
      <polygon class="cls-12" points="578.52 255.63 603 241.5 578.52 227.37 578.52 255.63"/>
    </g>
    <g>
      <rect class="cls-8" x="479.04" y="232.57" width="94.96" height="17.93"/>
      <path class="cls-2" d="M512.53,236.29c-.04-.85-.1-1.86-.09-2.62h-.03c-.21.71-.46,1.47-.77,2.3l-1.07,2.94h-.59l-.98-2.89c-.29-.86-.53-1.64-.7-2.36h-.02c-.02.76-.06,1.77-.12,2.68l-.16,2.6h-.75l.42-6.07h1l1.04,2.93c.25.75.46,1.41.61,2.04h.03c.15-.61.37-1.28.64-2.04l1.08-2.93h1l.38,6.07h-.76l-.15-2.66Z"/>
      <path class="cls-2" d="M517.09,238.96l-.06-.55h-.03c-.24.34-.71.65-1.33.65-.88,0-1.33-.62-1.33-1.25,0-1.05.94-1.63,2.62-1.62v-.09c0-.36-.1-1.01-.99-1.01-.41,0-.83.13-1.13.32l-.18-.52c.36-.23.88-.39,1.43-.39,1.33,0,1.66.91,1.66,1.78v1.63c0,.38.02.75.07,1.04h-.72ZM516.97,236.73c-.86-.02-1.85.13-1.85.98,0,.51.34.76.75.76.57,0,.93-.36,1.05-.73.03-.08.04-.17.04-.25v-.76Z"/>
      <path class="cls-2" d="M519.8,236.6h.02c.11-.15.26-.34.39-.5l1.28-1.5h.95l-1.68,1.79,1.92,2.57h-.96l-1.5-2.09-.41.45v1.64h-.78v-6.39h.78v4.03Z"/>
      <path class="cls-2" d="M523.68,236.92c.02,1.07.7,1.51,1.49,1.51.57,0,.91-.1,1.21-.22l.14.57c-.28.13-.76.27-1.45.27-1.34,0-2.14-.88-2.14-2.2s.77-2.35,2.04-2.35c1.42,0,1.8,1.25,1.8,2.05,0,.16-.02.29-.03.37h-3.06ZM526,236.35c0-.5-.21-1.29-1.1-1.29-.8,0-1.15.74-1.21,1.29h2.31Z"/>
      <path class="cls-2" d="M529.55,238.15c.23.15.65.32,1.04.32.58,0,.85-.29.85-.65,0-.38-.22-.59-.81-.8-.78-.28-1.15-.71-1.15-1.23,0-.7.57-1.28,1.5-1.28.44,0,.83.13,1.07.27l-.2.58c-.17-.11-.49-.25-.89-.25-.47,0-.73.27-.73.59,0,.36.26.52.83.74.76.29,1.14.67,1.14,1.31,0,.77-.59,1.3-1.63,1.3-.48,0-.92-.12-1.22-.3l.2-.6Z"/>
      <path class="cls-2" d="M533.22,232.56h.79v2.72h.02c.13-.22.32-.42.57-.56.23-.13.51-.23.81-.23.58,0,1.52.36,1.52,1.86v2.59h-.79v-2.5c0-.7-.26-1.3-1.01-1.3-.51,0-.92.36-1.06.79-.05.11-.05.22-.05.38v2.63h-.79v-6.39Z"/>
      <path class="cls-2" d="M538.66,236.92c.02,1.07.7,1.51,1.49,1.51.57,0,.91-.1,1.21-.22l.14.57c-.28.13-.76.27-1.45.27-1.34,0-2.14-.88-2.14-2.2s.77-2.35,2.04-2.35c1.42,0,1.8,1.25,1.8,2.05,0,.16-.02.29-.03.37h-3.06ZM540.98,236.35c0-.5-.21-1.29-1.1-1.29-.8,0-1.15.74-1.21,1.29h2.31Z"/>
      <path class="cls-2" d="M542.72,232.56h.79v6.39h-.79v-6.39Z"/>
      <path class="cls-2" d="M544.85,232.56h.79v6.39h-.79v-6.39Z"/>
      <path class="cls-2" d="M509.26,246.58c0-.45,0-.82-.04-1.18h.7l.04.72h.02c.22-.41.72-.82,1.44-.82.6,0,1.54.36,1.54,1.86v2.6h-.79v-2.51c0-.7-.26-1.29-1.01-1.29-.52,0-.93.37-1.06.81-.04.1-.05.23-.05.37v2.62h-.79v-3.18Z"/>
      <path class="cls-2" d="M514.69,247.72c.02,1.07.7,1.51,1.49,1.51.57,0,.91-.1,1.21-.23l.14.57c-.28.13-.76.27-1.45.27-1.34,0-2.14-.88-2.14-2.2s.77-2.35,2.04-2.35c1.42,0,1.8,1.25,1.8,2.05,0,.16-.02.29-.03.37h-3.06ZM517.01,247.15c0-.5-.21-1.29-1.1-1.29-.8,0-1.15.74-1.21,1.29h2.31Z"/>
      <path class="cls-2" d="M519.08,245.4l.58,2.21c.13.49.24.94.32,1.39h.03c.1-.44.24-.91.39-1.38l.71-2.22h.67l.67,2.18c.16.52.29.98.39,1.42h.03c.07-.44.19-.9.33-1.41l.62-2.19h.78l-1.4,4.36h-.72l-.67-2.08c-.15-.49-.28-.92-.39-1.43h-.02c-.11.52-.24.97-.4,1.44l-.7,2.07h-.72l-1.31-4.36h.81Z"/>
      <path class="cls-2" d="M527.18,248.95c.23.15.65.31,1.04.31.58,0,.85-.29.85-.65s-.22-.58-.81-.8c-.78-.28-1.15-.71-1.15-1.23,0-.7.57-1.28,1.5-1.28.44,0,.83.13,1.07.27l-.2.58c-.17-.11-.49-.25-.89-.25-.47,0-.73.27-.73.59,0,.36.26.52.83.74.76.29,1.14.67,1.14,1.31,0,.76-.59,1.31-1.63,1.31-.48,0-.92-.12-1.22-.3l.2-.6Z"/>
      <path class="cls-2" d="M534.8,247.54c0,1.61-1.12,2.31-2.17,2.31-1.18,0-2.09-.86-2.09-2.24,0-1.46.96-2.31,2.16-2.31s2.1.91,2.1,2.24ZM531.34,247.59c0,.95.55,1.67,1.32,1.67s1.32-.71,1.32-1.69c0-.74-.37-1.68-1.31-1.68s-1.34.87-1.34,1.69Z"/>
      <path class="cls-2" d="M535.8,243.36h.79v6.39h-.79v-6.39Z"/>
      <path class="cls-2" d="M538.8,244.17c0,.27-.19.49-.5.49-.28,0-.48-.22-.48-.49s.21-.5.5-.5.49.22.49.5ZM537.92,249.76v-4.36h.79v4.36h-.79Z"/>
      <path class="cls-2" d="M543.79,243.36v5.27c0,.39,0,.83.04,1.13h-.71l-.04-.76h-.02c-.24.49-.77.86-1.49.86-1.05,0-1.86-.89-1.86-2.21,0-1.45.89-2.34,1.95-2.34.67,0,1.12.32,1.31.67h.02v-2.6h.79ZM543,247.17c0-.1,0-.23-.04-.33-.12-.5-.55-.92-1.14-.92-.82,0-1.3.72-1.3,1.68,0,.88.43,1.61,1.29,1.61.53,0,1.02-.35,1.16-.95.03-.11.04-.22.04-.34v-.76Z"/>
    </g>
  </g>
  <g>
    <g>
      <line class="cls-7" x1="475" y1="318.5" x2="582.66" y2="318.5"/>
      <polygon class="cls-12" points="578.52 332.63 603 318.5 578.52 304.37 578.52 332.63"/>
    </g>
    <g>
      <rect class="cls-8" x="479.04" y="309.57" width="94.96" height="17.93"/>
      <path class="cls-2" d="M505.89,314.05l-.63,1.91h-.81l2.06-6.07h.95l2.07,6.07h-.84l-.65-1.91h-2.15ZM507.88,313.43l-.59-1.75c-.13-.4-.22-.76-.31-1.11h-.02c-.09.36-.19.73-.31,1.1l-.59,1.75h1.83Z"/>
      <path class="cls-2" d="M514.05,309.56v5.27c0,.39,0,.83.04,1.12h-.71l-.04-.76h-.02c-.24.49-.77.86-1.49.86-1.05,0-1.86-.89-1.86-2.21,0-1.45.89-2.34,1.95-2.34.67,0,1.12.32,1.31.67h.02v-2.6h.79ZM513.26,313.37c0-.1,0-.23-.04-.33-.12-.5-.55-.92-1.14-.92-.82,0-1.31.72-1.31,1.68,0,.88.43,1.61,1.29,1.61.53,0,1.02-.35,1.16-.95.03-.11.04-.22.04-.34v-.76Z"/>
      <path class="cls-2" d="M519.12,309.56v5.27c0,.39,0,.83.04,1.12h-.71l-.04-.76h-.02c-.24.49-.77.86-1.49.86-1.05,0-1.86-.89-1.86-2.21,0-1.45.89-2.34,1.95-2.34.67,0,1.12.32,1.31.67h.02v-2.6h.79ZM518.33,313.37c0-.1,0-.23-.04-.33-.12-.5-.55-.92-1.14-.92-.82,0-1.31.72-1.31,1.68,0,.88.43,1.61,1.29,1.61.53,0,1.02-.35,1.16-.95.03-.11.04-.22.04-.34v-.76Z"/>
      <path class="cls-2" d="M522.24,315.15c.23.15.65.32,1.04.32.58,0,.85-.29.85-.65,0-.38-.22-.59-.81-.8-.78-.28-1.15-.71-1.15-1.23,0-.7.57-1.28,1.5-1.28.44,0,.83.13,1.07.27l-.2.58c-.17-.11-.49-.25-.89-.25-.47,0-.73.27-.73.59,0,.36.26.52.83.74.76.29,1.14.67,1.14,1.31,0,.77-.59,1.3-1.63,1.3-.48,0-.92-.12-1.22-.3l.2-.6Z"/>
      <path class="cls-2" d="M525.91,309.56h.79v2.72h.02c.13-.22.32-.42.57-.56.23-.13.51-.23.81-.23.58,0,1.52.36,1.52,1.86v2.59h-.79v-2.5c0-.7-.26-1.3-1.01-1.3-.51,0-.92.36-1.06.79-.05.11-.05.22-.05.38v2.63h-.79v-6.39Z"/>
      <path class="cls-2" d="M531.35,313.92c.02,1.07.7,1.51,1.49,1.51.57,0,.91-.1,1.21-.22l.14.57c-.28.13-.76.27-1.45.27-1.34,0-2.14-.88-2.14-2.2s.77-2.35,2.04-2.35c1.42,0,1.8,1.25,1.8,2.05,0,.16-.02.29-.03.37h-3.06ZM533.67,313.35c0-.5-.21-1.29-1.1-1.29-.8,0-1.15.74-1.21,1.29h2.31Z"/>
      <path class="cls-2" d="M535.41,309.56h.79v6.39h-.79v-6.39Z"/>
      <path class="cls-2" d="M537.54,309.56h.79v6.39h-.79v-6.39Z"/>
      <path class="cls-2" d="M543.98,315.96l-.06-.55h-.03c-.24.34-.71.65-1.33.65-.88,0-1.33-.62-1.33-1.25,0-1.05.94-1.63,2.62-1.62v-.09c0-.36-.1-1.01-.99-1.01-.41,0-.83.13-1.13.32l-.18-.52c.36-.23.88-.39,1.43-.39,1.33,0,1.66.91,1.66,1.78v1.63c0,.38.02.75.07,1.04h-.72ZM543.87,313.73c-.86-.02-1.85.13-1.85.98,0,.51.34.76.75.76.57,0,.93-.36,1.05-.73.03-.08.04-.17.04-.25v-.76Z"/>
      <path class="cls-2" d="M545.8,315.15c.23.15.65.32,1.04.32.58,0,.85-.29.85-.65,0-.38-.22-.59-.81-.8-.78-.28-1.15-.71-1.15-1.23,0-.7.57-1.28,1.5-1.28.44,0,.83.13,1.07.27l-.2.58c-.17-.11-.49-.25-.89-.25-.47,0-.73.27-.73.59,0,.36.26.52.83.74.76.29,1.14.67,1.14,1.31,0,.77-.59,1.3-1.63,1.3-.48,0-.92-.12-1.22-.3l.2-.6Z"/>
      <path class="cls-2" d="M493.56,323.82c0-.56-.02-1.01-.04-1.42h.71l.04.75h.02c.32-.53.84-.85,1.55-.85,1.05,0,1.85.89,1.85,2.21,0,1.57-.95,2.34-1.98,2.34-.58,0-1.08-.25-1.34-.68h-.02v2.37h-.78v-4.72ZM494.35,324.98c0,.12.02.22.04.32.14.55.62.93,1.19.93.84,0,1.32-.68,1.32-1.68,0-.87-.46-1.62-1.3-1.62-.54,0-1.04.39-1.2.98-.03.1-.05.22-.05.32v.75Z"/>
      <path class="cls-2" d="M501.1,326.76l-.06-.55h-.03c-.24.34-.71.65-1.33.65-.88,0-1.33-.62-1.33-1.25,0-1.05.94-1.63,2.62-1.62v-.09c0-.36-.1-1.01-.99-1.01-.41,0-.83.12-1.13.32l-.18-.52c.36-.23.88-.39,1.43-.39,1.33,0,1.66.91,1.66,1.78v1.63c0,.38.02.75.07,1.04h-.72ZM500.98,324.53c-.86-.02-1.85.14-1.85.98,0,.51.34.76.75.76.57,0,.93-.36,1.05-.73.03-.08.04-.17.04-.25v-.76Z"/>
      <path class="cls-2" d="M503.02,323.76c0-.51,0-.96-.04-1.36h.69l.03.86h.04c.2-.59.68-.96,1.21-.96.09,0,.15,0,.22.03v.75c-.08-.02-.16-.03-.27-.03-.56,0-.95.42-1.06,1.02-.02.11-.04.23-.04.37v2.32h-.78v-3Z"/>
      <path class="cls-2" d="M507.14,321.15v1.25h1.13v.6h-1.13v2.35c0,.54.15.85.59.85.21,0,.36-.03.46-.05l.04.59c-.15.06-.4.11-.7.11-.37,0-.67-.12-.86-.33-.23-.23-.31-.62-.31-1.13v-2.38h-.67v-.6h.67v-1.04l.77-.21Z"/>
      <path class="cls-2" d="M515.01,324.54c0,1.61-1.12,2.31-2.17,2.31-1.18,0-2.09-.86-2.09-2.24,0-1.46.96-2.31,2.16-2.31s2.1.91,2.1,2.24ZM511.56,324.59c0,.95.55,1.67,1.32,1.67s1.32-.71,1.32-1.69c0-.74-.37-1.68-1.31-1.68s-1.34.87-1.34,1.69Z"/>
      <path class="cls-2" d="M516.09,326.76v-3.75h-.61v-.6h.61v-.21c0-.61.13-1.17.5-1.52.3-.29.69-.41,1.06-.41.28,0,.52.06.67.13l-.11.61c-.12-.05-.28-.1-.5-.1-.68,0-.85.59-.85,1.26v.23h1.05v.6h-1.05v3.75h-.78Z"/>
      <path class="cls-2" d="M520.55,323.58c0-.45,0-.82-.04-1.18h.69l.04.7h.03c.24-.41.65-.8,1.37-.8.59,0,1.04.36,1.23.87h.02c.13-.24.31-.43.49-.57.26-.2.55-.31.96-.31.58,0,1.43.38,1.43,1.89v2.57h-.77v-2.47c0-.84-.31-1.34-.95-1.34-.45,0-.8.33-.94.72-.04.11-.06.25-.06.4v2.69h-.77v-2.61c0-.69-.31-1.2-.91-1.2-.5,0-.86.4-.98.79-.04.12-.06.25-.06.39v2.63h-.77v-3.18Z"/>
      <path class="cls-2" d="M531.7,325.57c0,.45,0,.85.04,1.19h-.7l-.04-.71h-.02c-.21.35-.67.81-1.44.81-.68,0-1.5-.38-1.5-1.91v-2.55h.79v2.41c0,.83.25,1.39.97,1.39.53,0,.9-.37,1.04-.72.04-.12.07-.26.07-.4v-2.67h.79v3.17Z"/>
      <path class="cls-2" d="M533.01,320.36h.79v6.39h-.79v-6.39Z"/>
      <path class="cls-2" d="M536.09,321.15v1.25h1.13v.6h-1.13v2.35c0,.54.15.85.59.85.21,0,.36-.03.46-.05l.04.59c-.15.06-.4.11-.7.11-.37,0-.67-.12-.86-.33-.23-.23-.31-.62-.31-1.13v-2.38h-.67v-.6h.67v-1.04l.77-.21Z"/>
      <path class="cls-2" d="M539,321.17c0,.27-.19.49-.5.49-.28,0-.48-.22-.48-.49s.21-.5.5-.5.49.22.49.5ZM538.11,326.76v-4.36h.79v4.36h-.79Z"/>
      <path class="cls-2" d="M542.06,324.03v.59h-2.22v-.59h2.22Z"/>
      <path class="cls-2" d="M542.87,325.95c.23.15.65.31,1.04.31.58,0,.85-.29.85-.65s-.22-.58-.81-.8c-.78-.28-1.15-.71-1.15-1.23,0-.7.57-1.28,1.5-1.28.44,0,.83.13,1.07.27l-.2.58c-.17-.11-.49-.25-.89-.25-.47,0-.73.27-.73.59,0,.36.26.52.83.74.76.29,1.14.67,1.14,1.31,0,.76-.59,1.31-1.63,1.31-.48,0-.92-.12-1.22-.3l.2-.6Z"/>
      <path class="cls-2" d="M550.49,324.54c0,1.61-1.12,2.31-2.17,2.31-1.18,0-2.09-.86-2.09-2.24,0-1.46.95-2.31,2.16-2.31s2.1.91,2.1,2.24ZM547.03,324.59c0,.95.55,1.67,1.32,1.67s1.32-.71,1.32-1.69c0-.74-.37-1.68-1.31-1.68s-1.34.87-1.34,1.69Z"/>
      <path class="cls-2" d="M551.49,320.36h.79v6.39h-.79v-6.39Z"/>
      <path class="cls-2" d="M554.49,321.17c0,.27-.19.49-.5.49-.28,0-.48-.22-.48-.49s.21-.5.5-.5.49.22.49.5ZM553.61,326.76v-4.36h.79v4.36h-.79Z"/>
      <path class="cls-2" d="M559.48,320.36v5.27c0,.39,0,.83.04,1.13h-.71l-.04-.76h-.02c-.24.49-.77.86-1.49.86-1.05,0-1.86-.89-1.86-2.21,0-1.45.89-2.34,1.95-2.34.67,0,1.12.32,1.31.67h.02v-2.6h.79ZM558.69,324.17c0-.1,0-.23-.04-.33-.12-.5-.55-.92-1.14-.92-.82,0-1.31.72-1.31,1.68,0,.88.43,1.61,1.29,1.61.53,0,1.02-.35,1.16-.95.03-.11.04-.22.04-.34v-.76Z"/>
    </g>
  </g>
  <g>
    <rect class="cls-8" x="289.63" y="84.4" width="45.04" height="70.6"/>
    <path class="cls-1" d="M297.84,100.67l4.97,7.49c1.3,1.94,2.38,3.74,3.53,5.69h.22c1.15-2.09,2.3-3.89,3.46-5.76l4.9-7.42h6.84l-11.88,16.85,12.24,18h-7.2l-5.11-7.85c-1.37-2.02-2.52-3.96-3.74-6.05h-.14c-1.15,2.09-2.38,3.96-3.67,6.05l-5.04,7.85h-6.98l12.38-17.79-11.81-17.07h7.06Z"/>
  </g>
  <path class="cls-13" d="M298.85,255.72l6.84,19.58c1.15,3.17,2.09,6.05,2.81,8.93h.22c.79-2.88,1.8-5.76,2.95-8.93l6.77-19.58h6.62l-13.68,34.85h-6.05l-13.25-34.85h6.77Z"/>
  <g>
    <g>
      <line class="cls-12" x1="194.88" y1="209.53" x2="316.57" y2="208.67"/>
      <g>
        <line class="cls-7" x1="194.88" y1="209.53" x2="296.23" y2="208.81"/>
        <polygon class="cls-12" points="292.2 222.97 316.57 208.67 292 194.71 292.2 222.97"/>
      </g>
    </g>
    <g>
      <rect class="cls-8" x="197.78" y="200.91" width="95.07" height="30.77" transform="translate(-1.53 1.75) rotate(-.41)"/>
      <path class="cls-2" d="M201.18,201.54l.02,3.59c0,1.36.59,1.93,1.36,1.93.86,0,1.4-.61,1.39-1.95l-.02-3.59h.75s.02,3.53.02,3.53c.01,1.86-.92,2.63-2.17,2.64-1.18,0-2.08-.7-2.09-2.58l-.02-3.57h.75Z"/>
      <path class="cls-2" d="M205.82,206.76c.22.15.62.31,1,.31.55,0,.8-.29.8-.65,0-.38-.22-.58-.78-.8-.75-.27-1.1-.7-1.1-1.22,0-.7.53-1.28,1.42-1.29.42,0,.79.12,1.02.26l-.18.58c-.16-.11-.46-.25-.85-.25-.45,0-.69.28-.69.6,0,.36.25.52.79.73.72.28,1.09.66,1.1,1.31,0,.77-.56,1.31-1.54,1.32-.45,0-.87-.11-1.17-.29l.18-.6Z"/>
      <path class="cls-2" d="M209.73,205.51c.02,1.07.68,1.51,1.43,1.5.54,0,.86-.11,1.15-.23l.13.57c-.26.13-.72.27-1.38.28-1.28,0-2.04-.87-2.05-2.18,0-1.31.72-2.36,1.93-2.36,1.35,0,1.72,1.24,1.73,2.04,0,.16-.02.29-.02.37l-2.91.02ZM211.93,204.93c0-.51-.2-1.29-1.05-1.28-.76,0-1.09.75-1.15,1.29h2.2Z"/>
      <path class="cls-2" d="M213.59,204.52c0-.51-.01-.95-.04-1.36h.66s.03.85.03.85h.03c.18-.59.64-.96,1.14-.96.09,0,.15,0,.21.03v.75c-.07-.02-.15-.03-.25-.03-.53,0-.91.43-1,1.03-.02.11-.03.23-.03.37l.02,2.32h-.75s-.02-2.99-.02-2.99Z"/>
      <path class="cls-2" d="M218.2,204.48c0-.51-.01-.96-.04-1.36h.66s.03.85.03.85h.03c.18-.59.64-.96,1.14-.96.09,0,.15,0,.21.02v.75c-.07-.02-.15-.03-.25-.03-.53,0-.91.43-1,1.03-.02.11-.03.23-.03.37l.02,2.32h-.75s-.02-2.99-.02-2.99Z"/>
      <path class="cls-2" d="M221.34,205.43c.02,1.07.68,1.51,1.43,1.5.54,0,.86-.11,1.15-.23l.13.57c-.26.13-.72.27-1.38.28-1.28,0-2.04-.87-2.05-2.18,0-1.31.72-2.35,1.93-2.36,1.35,0,1.72,1.24,1.73,2.04,0,.16-.02.29-.02.37l-2.91.02ZM223.54,204.84c0-.5-.2-1.29-1.05-1.28-.76,0-1.09.75-1.15,1.29l2.2-.02Z"/>
      <path class="cls-2" d="M228.04,206.74h-.02c-.22.43-.68.78-1.35.78-.97,0-1.76-.87-1.77-2.19,0-1.63.99-2.36,1.86-2.36.64,0,1.07.33,1.28.75h.02l.02-.66h.71c-.01.36-.02.74-.02,1.19l.03,4.94h-.75s-.02-2.45-.02-2.45ZM228.03,204.82c0-.11-.01-.23-.04-.33-.11-.48-.52-.9-1.08-.89-.78,0-1.25.7-1.24,1.68,0,.87.4,1.62,1.23,1.61.49,0,.91-.32,1.07-.87.03-.11.06-.26.06-.38v-.82Z"/>
      <path class="cls-2" d="M233.49,206.19c0,.45.01.85.04,1.19h-.67s-.05-.71-.05-.71h-.02c-.19.35-.63.81-1.36.82-.65,0-1.43-.37-1.44-1.9l-.02-2.55h.75s.02,2.41.02,2.41c0,.83.25,1.38.93,1.38.5,0,.85-.38.99-.73.04-.12.07-.26.07-.41l-.02-2.67h.75s.02,3.16.02,3.16Z"/>
      <path class="cls-2" d="M235.55,201.78c0,.27-.18.49-.48.49-.26,0-.46-.21-.46-.48,0-.28.19-.5.47-.5.28,0,.46.21.47.49ZM234.75,207.37l-.03-4.36h.75s.03,4.35.03,4.35h-.75Z"/>
      <path class="cls-2" d="M236.73,204.35c0-.51-.01-.95-.04-1.36h.66s.03.85.03.85h.03c.18-.59.64-.96,1.14-.96.09,0,.15,0,.21.03v.75c-.07-.02-.15-.03-.25-.03-.53,0-.91.43-1,1.03-.02.11-.03.23-.03.37v2.32s-.73,0-.73,0l-.02-3Z"/>
      <path class="cls-2" d="M239.87,205.29c.02,1.07.68,1.51,1.43,1.5.54,0,.86-.1,1.14-.23l.13.57c-.26.13-.72.28-1.38.28-1.28,0-2.04-.87-2.05-2.18,0-1.31.72-2.35,1.93-2.36,1.35,0,1.72,1.24,1.72,2.04,0,.16-.02.29-.02.37l-2.91.02ZM242.07,204.71c0-.5-.21-1.29-1.05-1.28-.76,0-1.09.74-1.15,1.29l2.2-.02Z"/>
      <path class="cls-2" d="M243.73,204.12c0-.45-.01-.82-.04-1.18h.66s.04.7.04.7h.03c.23-.42.61-.8,1.3-.81.56,0,.99.35,1.18.87h.02c.13-.24.29-.44.46-.57.25-.2.52-.31.91-.31.55,0,1.36.37,1.37,1.88l.02,2.57h-.74s-.02-2.46-.02-2.46c0-.84-.3-1.34-.91-1.33-.43,0-.76.34-.89.73-.03.11-.06.25-.06.4l.02,2.69h-.74s-.02-2.61-.02-2.61c0-.69-.3-1.2-.87-1.19-.47,0-.81.4-.93.8-.04.12-.06.25-.06.39l.02,2.63h-.74s-.02-3.17-.02-3.17Z"/>
      <path class="cls-2" d="M251.29,205.21c.02,1.07.68,1.51,1.43,1.5.54,0,.86-.11,1.14-.23l.13.57c-.26.13-.72.27-1.38.28-1.28,0-2.04-.87-2.05-2.18,0-1.31.72-2.36,1.93-2.36,1.35,0,1.72,1.24,1.72,2.04,0,.16-.02.29-.02.37l-2.91.02ZM253.5,204.63c0-.5-.21-1.29-1.05-1.28-.76,0-1.09.75-1.15,1.3l2.2-.02Z"/>
      <path class="cls-2" d="M255.15,204.04c0-.45-.01-.82-.04-1.18h.67s.05.71.05.71h.02c.2-.42.68-.82,1.36-.83.57,0,1.47.35,1.48,1.84l.02,2.6h-.75s-.02-2.51-.02-2.51c0-.7-.26-1.29-.97-1.28-.5,0-.88.38-1,.82-.03.1-.05.23-.05.37l.02,2.62h-.75s-.02-3.17-.02-3.17Z"/>
      <path class="cls-2" d="M260.76,201.57v1.25s1.09,0,1.09,0v.6s-1.08,0-1.08,0l.02,2.35c0,.54.15.85.57.84.2,0,.34-.03.44-.06l.04.59c-.15.06-.38.11-.67.11-.35,0-.63-.11-.82-.33-.21-.23-.29-.62-.3-1.13l-.02-2.38h-.64s0-.6,0-.6h.64s0-1.05,0-1.05l.73-.21Z"/>
      <path class="cls-2" d="M265.4,201.54v1.25s1.09,0,1.09,0v.6s-1.08,0-1.08,0l.02,2.35c0,.54.15.85.57.84.2,0,.34-.03.44-.06l.04.6c-.15.06-.38.11-.67.11-.35,0-.63-.11-.82-.33-.21-.23-.29-.62-.3-1.13l-.02-2.38h-.64s0-.6,0-.6h.64s0-1.05,0-1.05l.73-.21Z"/>
      <path class="cls-2" d="M271.05,204.89c0,1.61-1.05,2.32-2.05,2.33-1.12,0-1.99-.85-2-2.23,0-1.46.89-2.32,2.04-2.33,1.19,0,2,.89,2.01,2.23ZM267.76,204.96c0,.95.53,1.67,1.27,1.67.72,0,1.25-.72,1.25-1.7,0-.74-.36-1.67-1.25-1.67-.89,0-1.27.87-1.26,1.7Z"/>
      <path class="cls-2" d="M274.55,204.72h.02c.1-.15.25-.35.36-.5l1.21-1.51h.91s-1.59,1.8-1.59,1.8l1.84,2.55h-.92s-1.44-2.07-1.44-2.07l-.38.45v1.64s-.73,0-.73,0l-.04-6.39h.75s.03,4.03.03,4.03Z"/>
      <path class="cls-2" d="M278.24,205.02c.02,1.07.68,1.51,1.43,1.5.54,0,.86-.11,1.15-.23l.13.57c-.26.13-.72.28-1.38.28-1.28,0-2.04-.87-2.05-2.18,0-1.31.72-2.36,1.93-2.36,1.35,0,1.72,1.24,1.72,2.04,0,.16-.02.29-.02.37l-2.91.02ZM280.45,204.44c0-.5-.21-1.29-1.05-1.28-.76,0-1.09.74-1.15,1.29l2.2-.02Z"/>
      <path class="cls-2" d="M282.53,204.99c.02,1.07.68,1.51,1.43,1.5.54,0,.86-.11,1.15-.23l.13.57c-.26.13-.72.28-1.38.28-1.28,0-2.04-.87-2.05-2.18,0-1.31.72-2.35,1.93-2.36,1.35,0,1.72,1.24,1.72,2.04,0,.16-.02.29-.02.37l-2.91.02ZM284.73,204.41c0-.5-.21-1.29-1.05-1.28-.76,0-1.09.74-1.15,1.29l2.2-.02Z"/>
      <path class="cls-2" d="M286.39,204.06c0-.56-.02-1.01-.04-1.42h.68s.04.74.04.74h.02c.3-.53.79-.85,1.47-.86,1,0,1.76.88,1.77,2.2.01,1.57-.89,2.35-1.87,2.35-.55,0-1.03-.24-1.28-.67h-.02l.02,2.37h-.74s-.03-4.71-.03-4.71ZM287.14,205.22c0,.12.02.22.04.32.14.55.6.92,1.14.92.8,0,1.25-.69,1.25-1.69,0-.87-.45-1.62-1.24-1.61-.51,0-.99.39-1.13.99-.02.1-.05.21-.05.32v.75Z"/>
      <path class="cls-2" d="M225.22,216.2c.02,1.07.68,1.51,1.43,1.5.54,0,.86-.1,1.15-.23l.13.57c-.26.13-.72.28-1.38.28-1.28,0-2.04-.87-2.05-2.18,0-1.31.72-2.36,1.93-2.36,1.35,0,1.72,1.24,1.73,2.04,0,.16-.02.29-.02.37l-2.91.02ZM227.43,215.62c0-.5-.21-1.29-1.05-1.28-.76,0-1.09.75-1.15,1.3l2.2-.02Z"/>
      <path class="cls-2" d="M229.37,213.85l.83,2.44c.14.39.25.75.34,1.11h.03c.09-.36.21-.72.34-1.12l.79-2.46h.79s-1.6,4.37-1.6,4.37h-.72s-1.6-4.34-1.6-4.34h.8Z"/>
      <path class="cls-2" d="M233.54,216.14c.02,1.07.68,1.51,1.43,1.5.54,0,.86-.1,1.15-.23l.13.57c-.26.13-.72.28-1.38.28-1.28,0-2.04-.87-2.05-2.18,0-1.31.72-2.36,1.93-2.36,1.35,0,1.72,1.24,1.73,2.04,0,.16-.02.29-.02.37l-2.91.02ZM235.74,215.56c0-.5-.21-1.29-1.05-1.28-.76,0-1.09.75-1.15,1.3l2.2-.02Z"/>
      <path class="cls-2" d="M237.4,215.15c0-.51-.01-.96-.04-1.36h.66s.03.85.03.85h.03c.18-.59.64-.96,1.14-.96.09,0,.15,0,.21.02v.75c-.07-.02-.15-.03-.25-.03-.53,0-.91.43-1,1.03-.02.11-.03.23-.03.37v2.32s-.73,0-.73,0l-.02-3Z"/>
      <path class="cls-2" d="M240.68,213.77l.92,2.57c.1.29.2.63.27.89h.02c.08-.26.16-.6.26-.91l.8-2.56h.8s-1.11,3.11-1.11,3.11c-.53,1.5-.89,2.27-1.4,2.74-.37.34-.73.48-.92.52l-.19-.66c.19-.06.44-.19.66-.39.2-.17.46-.48.63-.89.03-.08.06-.14.06-.19s-.02-.11-.05-.21l-1.56-4h.82Z"/>
      <path class="cls-2" d="M245.33,212.48v1.25s1.09,0,1.09,0v.6s-1.08,0-1.08,0l.02,2.35c0,.54.15.84.57.84.2,0,.34-.03.44-.06l.04.59c-.15.06-.38.11-.67.11-.35,0-.63-.11-.82-.33-.21-.23-.29-.62-.3-1.13l-.02-2.38h-.64s0-.6,0-.6h.64s0-1.05,0-1.05l.74-.21Z"/>
      <path class="cls-2" d="M247.25,211.68h.75s.02,2.71.02,2.71h.02c.12-.23.3-.43.54-.56.22-.14.49-.23.77-.23.56,0,1.45.35,1.46,1.85l.02,2.59h-.75s-.02-2.5-.02-2.5c0-.7-.26-1.29-.97-1.29-.49,0-.87.37-1,.8-.04.11-.05.22-.05.38l.02,2.63h-.75s-.04-6.39-.04-6.39Z"/>
      <path class="cls-2" d="M252.84,212.46c.01.27-.18.49-.48.49-.27,0-.46-.21-.46-.48,0-.28.19-.5.47-.5.28,0,.46.21.46.49ZM252.04,218.04l-.03-4.36h.75s.03,4.35.03,4.35h-.75Z"/>
      <path class="cls-2" d="M254.02,214.85c0-.45-.01-.82-.04-1.18h.67s.05.71.05.71h.02c.2-.42.68-.82,1.36-.83.57,0,1.46.35,1.47,1.85l.02,2.6h-.75s-.02-2.51-.02-2.51c0-.7-.26-1.29-.97-1.28-.5,0-.88.38-1,.82-.03.1-.05.23-.05.37l.02,2.62h-.75s-.02-3.17-.02-3.17Z"/>
      <path class="cls-2" d="M262.33,213.61c-.01.32-.03.67-.03,1.2l.02,2.53c0,1-.18,1.61-.58,1.99-.4.4-.98.53-1.5.53-.5,0-1.05-.12-1.38-.35l.18-.61c.28.18.7.34,1.22.33.77,0,1.33-.43,1.33-1.53v-.49h-.02c-.23.41-.67.73-1.31.74-1.03,0-1.77-.91-1.78-2.11,0-1.48.9-2.32,1.85-2.33.72,0,1.12.39,1.3.75h.02l.03-.66h.66ZM261.56,215.34c0-.13,0-.25-.04-.36-.14-.46-.51-.83-1.06-.83-.72,0-1.23.65-1.22,1.66,0,.86.42,1.56,1.23,1.56.46,0,.88-.31,1.04-.82.04-.13.06-.29.06-.42v-.78Z"/>
      <path class="cls-2" d="M264.15,216.24l-.02-.23c-.05-.49.1-1.02.52-1.56.38-.48.59-.83.59-1.24,0-.46-.28-.76-.82-.77-.31,0-.65.11-.86.29l-.21-.56c.28-.22.77-.37,1.22-.37.98,0,1.43.63,1.44,1.31,0,.61-.32,1.06-.73,1.57-.37.47-.51.87-.48,1.33v.23s-.66,0-.66,0ZM263.96,217.5c0-.33.21-.57.51-.57s.51.23.51.56c0,.31-.19.56-.51.56-.3,0-.51-.24-.51-.55Z"/>
    </g>
  </g>
  <g>
    <g>
      <line class="cls-12" x1="328.71" y1="277.73" x2="450.4" y2="276.86"/>
      <g>
        <line class="cls-7" x1="328.71" y1="277.73" x2="430.06" y2="277.01"/>
        <polygon class="cls-12" points="426.02 291.17 450.4 276.86 425.82 262.9 426.02 291.17"/>
      </g>
    </g>
    <g>
      <rect class="cls-8" x="331.61" y="269.1" width="95.07" height="30.77" transform="translate(-2.01 2.7) rotate(-.41)"/>
      <path class="cls-2" d="M339.16,269.7l.02,3.59c0,1.36.59,1.93,1.36,1.93.86,0,1.4-.61,1.39-1.95l-.02-3.59h.75s.02,3.53.02,3.53c.01,1.86-.92,2.63-2.17,2.64-1.18,0-2.08-.7-2.09-2.58l-.02-3.57h.75Z"/>
      <path class="cls-2" d="M343.8,274.93c.22.15.62.31,1,.31.55,0,.8-.29.8-.65,0-.38-.22-.58-.78-.8-.75-.27-1.1-.7-1.1-1.23,0-.7.53-1.28,1.42-1.29.42,0,.79.12,1.02.26l-.19.58c-.16-.11-.46-.25-.85-.25-.45,0-.69.28-.69.6,0,.36.25.52.79.73.72.28,1.09.66,1.1,1.31,0,.77-.56,1.31-1.54,1.32-.45,0-.87-.11-1.17-.29l.18-.6Z"/>
      <path class="cls-2" d="M347.7,273.68c.02,1.07.68,1.51,1.43,1.5.54,0,.86-.1,1.15-.23l.13.57c-.26.13-.72.27-1.38.28-1.28,0-2.04-.87-2.05-2.18,0-1.31.72-2.36,1.93-2.36,1.35,0,1.72,1.24,1.72,2.04,0,.16-.02.29-.02.37l-2.91.02ZM349.91,273.09c0-.5-.21-1.29-1.05-1.28-.76,0-1.09.75-1.15,1.29l2.2-.02Z"/>
      <path class="cls-2" d="M351.56,272.68c0-.51-.01-.95-.04-1.36h.66s.03.85.03.85h.03c.18-.59.64-.96,1.14-.96.09,0,.15,0,.21.02v.75c-.07-.02-.15-.03-.25-.03-.53,0-.91.43-1,1.03-.02.11-.03.23-.03.37l.02,2.32h-.75s-.02-2.99-.02-2.99Z"/>
      <path class="cls-2" d="M356.18,272.65c0-.51-.01-.95-.04-1.36h.66s.03.85.03.85h.03c.18-.59.64-.96,1.14-.96.09,0,.15,0,.21.02v.75c-.07-.02-.15-.03-.25-.03-.53,0-.9.43-1,1.02-.02.11-.03.23-.03.37v2.32s-.73,0-.73,0l-.02-3Z"/>
      <path class="cls-2" d="M359.31,273.59c.02,1.07.68,1.51,1.43,1.5.54,0,.86-.1,1.15-.23l.13.57c-.26.13-.72.27-1.38.28-1.28,0-2.04-.87-2.05-2.18,0-1.31.72-2.35,1.93-2.36,1.35,0,1.72,1.24,1.72,2.04,0,.16-.01.29-.02.37l-2.91.02ZM361.52,273.01c0-.5-.21-1.29-1.05-1.28-.76,0-1.09.75-1.15,1.29l2.2-.02Z"/>
      <path class="cls-2" d="M366.01,274.91h-.02c-.22.43-.68.78-1.35.78-.97,0-1.76-.87-1.77-2.19-.01-1.63.99-2.36,1.86-2.36.64,0,1.07.33,1.28.75h.02l.02-.66h.71c-.01.36-.02.74-.02,1.19l.03,4.94h-.75s-.02-2.45-.02-2.45ZM366,272.99c0-.11,0-.23-.04-.33-.11-.49-.52-.9-1.08-.89-.78,0-1.25.7-1.24,1.68,0,.86.41,1.62,1.24,1.61.49,0,.91-.32,1.07-.87.03-.11.06-.26.06-.38v-.82Z"/>
      <path class="cls-2" d="M371.47,274.35c0,.45.01.85.04,1.19h-.67s-.05-.71-.05-.71h-.02c-.19.35-.63.81-1.36.82-.65,0-1.43-.37-1.44-1.9l-.02-2.55h.75s.02,2.41.02,2.41c0,.83.25,1.38.93,1.38.5,0,.85-.38.99-.73.04-.12.07-.26.07-.41l-.02-2.67h.75s.02,3.16.02,3.16Z"/>
      <path class="cls-2" d="M373.53,269.95c.01.27-.18.49-.48.49-.27,0-.46-.21-.46-.48,0-.28.19-.5.47-.5.28,0,.46.21.46.49ZM372.73,275.53l-.03-4.36h.75s.03,4.35.03,4.35h-.75Z"/>
      <path class="cls-2" d="M374.71,272.52c0-.51-.01-.95-.04-1.36h.66s.03.85.03.85h.03c.18-.59.64-.96,1.14-.96.08,0,.15,0,.21.02v.75c-.07-.02-.15-.03-.25-.03-.53,0-.91.43-1,1.03-.02.11-.03.23-.03.37v2.32s-.73,0-.73,0l-.02-3Z"/>
      <path class="cls-2" d="M377.85,273.46c.02,1.07.68,1.51,1.43,1.5.54,0,.86-.1,1.15-.23l.13.57c-.26.13-.72.27-1.38.28-1.28,0-2.04-.87-2.05-2.18,0-1.31.72-2.36,1.93-2.36,1.35,0,1.72,1.24,1.72,2.04,0,.16-.02.29-.02.37l-2.91.02ZM380.05,272.88c0-.5-.21-1.29-1.05-1.28-.76,0-1.09.75-1.15,1.3l2.2-.02Z"/>
      <path class="cls-2" d="M381.71,272.29c0-.45-.01-.82-.04-1.18h.66s.04.7.04.7h.03c.23-.42.61-.81,1.3-.81.56,0,.99.35,1.18.87h.02c.13-.24.29-.44.46-.57.25-.2.52-.31.91-.31.55,0,1.36.37,1.37,1.88l.02,2.57h-.74s-.02-2.46-.02-2.46c0-.84-.3-1.34-.91-1.34-.43,0-.76.34-.89.73-.03.11-.06.25-.06.4l.02,2.69h-.74s-.02-2.6-.02-2.6c0-.69-.3-1.2-.87-1.19-.47,0-.81.4-.93.8-.04.12-.06.25-.06.39l.02,2.63h-.74s-.02-3.17-.02-3.17Z"/>
      <path class="cls-2" d="M389.27,273.38c.02,1.07.68,1.51,1.43,1.5.54,0,.86-.1,1.14-.23l.13.57c-.26.13-.72.27-1.38.28-1.28,0-2.04-.87-2.05-2.18,0-1.31.72-2.35,1.93-2.36,1.35,0,1.72,1.24,1.72,2.04,0,.16-.02.29-.02.37l-2.91.02ZM391.47,272.8c0-.5-.21-1.29-1.05-1.28-.76,0-1.09.75-1.15,1.3l2.2-.02Z"/>
      <path class="cls-2" d="M393.13,272.21c0-.45-.01-.82-.04-1.18h.67s.05.72.05.72h.02c.2-.42.68-.82,1.36-.83.57,0,1.47.35,1.48,1.84l.02,2.6h-.75s-.02-2.51-.02-2.51c0-.7-.26-1.29-.97-1.28-.5,0-.88.38-1,.82-.03.1-.05.23-.05.37l.02,2.62h-.75s-.02-3.17-.02-3.17Z"/>
      <path class="cls-2" d="M398.73,269.74v1.25s1.09,0,1.09,0v.6s-1.08,0-1.08,0l.02,2.35c0,.54.15.84.57.84.2,0,.34-.03.44-.06l.04.59c-.15.06-.38.11-.67.11-.35,0-.63-.11-.82-.33-.21-.23-.29-.62-.3-1.13l-.02-2.38h-.64s0-.6,0-.6h.64s0-1.05,0-1.05l.73-.21Z"/>
      <path class="cls-2" d="M403.38,269.71v1.25s1.09,0,1.09,0v.6s-1.08,0-1.08,0l.02,2.35c0,.54.15.84.57.84.2,0,.34-.03.44-.06l.04.59c-.15.06-.38.11-.67.11-.35,0-.63-.11-.82-.33-.21-.23-.29-.62-.3-1.13l-.02-2.38h-.64s0-.6,0-.6h.64s0-1.05,0-1.05l.73-.21Z"/>
      <path class="cls-2" d="M409.03,273.06c0,1.61-1.05,2.32-2.05,2.33-1.12,0-1.99-.85-2-2.23,0-1.46.89-2.32,2.04-2.33,1.19,0,2,.89,2.01,2.23ZM405.74,273.13c0,.95.53,1.67,1.27,1.67.72,0,1.25-.72,1.25-1.7,0-.74-.36-1.67-1.25-1.67-.89,0-1.27.87-1.26,1.7Z"/>
      <path class="cls-2" d="M411.77,275.26c.01-.3.03-.74.03-1.12l-.03-5.27h.75s.02,2.73.02,2.73h.02c.26-.49.74-.81,1.41-.81,1.03,0,1.76.89,1.76,2.21.01,1.56-.92,2.34-1.84,2.34-.6,0-1.08-.24-1.39-.81h-.03l-.03.72h-.65ZM412.54,273.5c0,.1.02.2.04.29.15.55.59.92,1.14.92.79,0,1.25-.68,1.25-1.68,0-.87-.44-1.62-1.24-1.61-.51,0-.99.38-1.14.98-.02.09-.04.2-.04.33v.78Z"/>
      <path class="cls-2" d="M417.08,273.18c.02,1.07.68,1.51,1.43,1.5.54,0,.86-.1,1.15-.23l.13.57c-.26.13-.72.27-1.38.28-1.28,0-2.04-.87-2.05-2.18,0-1.31.72-2.35,1.93-2.36,1.35,0,1.72,1.24,1.72,2.04,0,.16-.02.29-.02.37l-2.91.02ZM419.28,272.6c0-.5-.21-1.29-1.05-1.28-.76,0-1.09.75-1.15,1.3l2.2-.02Z"/>
      <path class="cls-2" d="M359.5,282.07l.56,2.21c.12.49.24.93.32,1.38h.03c.09-.44.23-.91.36-1.38l.66-2.23h.63s.66,2.17.66,2.17c.16.52.28.98.38,1.42h.03c.07-.44.17-.9.31-1.42l.58-2.19h.74s-1.31,4.36-1.31,4.36h-.68s-.65-2.07-.65-2.07c-.15-.48-.27-.92-.38-1.43h-.02c-.1.52-.22.97-.37,1.44l-.65,2.08h-.69s-1.28-4.34-1.28-4.34h.77Z"/>
      <path class="cls-2" d="M367.79,286.37l-.06-.55h-.03c-.23.34-.67.65-1.26.66-.84,0-1.27-.61-1.27-1.24,0-1.05.88-1.64,2.48-1.64v-.09c0-.36-.1-1.01-.95-1-.38,0-.79.13-1.08.33l-.17-.52c.34-.24.84-.39,1.36-.4,1.27,0,1.58.9,1.59,1.77v1.63c.01.38.03.75.09,1.04h-.68ZM367.66,284.15c-.82-.01-1.75.15-1.75.99,0,.51.33.75.71.75.54,0,.88-.37,1-.74.03-.08.04-.17.04-.25v-.76Z"/>
      <path class="cls-2" d="M370.45,280.74v1.25s1.09,0,1.09,0v.6s-1.08,0-1.08,0l.02,2.35c0,.54.15.84.57.84.2,0,.34-.03.44-.06l.04.59c-.14.06-.38.11-.67.11-.35,0-.63-.11-.82-.33-.21-.23-.29-.62-.3-1.13l-.02-2.38h-.64s0-.6,0-.6h.64s0-1.05,0-1.05l.74-.21Z"/>
      <path class="cls-2" d="M372.77,284.3c.02,1.07.68,1.51,1.43,1.5.54,0,.86-.11,1.15-.23l.13.57c-.26.13-.72.28-1.38.28-1.28,0-2.04-.87-2.05-2.18,0-1.31.72-2.35,1.93-2.36,1.35,0,1.72,1.24,1.73,2.04,0,.16-.02.29-.02.37l-2.91.02ZM374.97,283.72c0-.5-.21-1.29-1.05-1.28-.76,0-1.09.75-1.15,1.3l2.2-.02Z"/>
      <path class="cls-2" d="M376.63,283.31c0-.51-.01-.95-.04-1.36h.66s.03.85.03.85h.03c.18-.59.64-.96,1.14-.96.08,0,.15,0,.21.02v.75c-.07-.02-.15-.03-.25-.03-.53,0-.91.43-1,1.02-.02.11-.03.23-.03.37v2.32s-.73,0-.73,0l-.02-3Z"/>
      <path class="cls-2" d="M380.52,280.67v1.25s1.09,0,1.09,0v.6s-1.08,0-1.08,0l.02,2.35c0,.54.15.84.57.84.2,0,.34-.03.44-.06l.04.59c-.15.06-.38.11-.67.11-.35,0-.63-.11-.82-.33-.21-.23-.29-.62-.3-1.13l-.02-2.38h-.64s0-.6,0-.6h.64s0-1.05,0-1.05l.74-.21Z"/>
      <path class="cls-2" d="M383.29,280.68c.01.27-.18.49-.48.49-.27,0-.46-.21-.46-.48,0-.28.19-.5.47-.5.28,0,.46.21.46.49ZM382.49,286.26l-.03-4.36h.75s.03,4.35.03,4.35h-.75Z"/>
      <path class="cls-2" d="M388.03,281.87c-.01.32-.03.67-.03,1.2l.02,2.53c0,1-.18,1.61-.58,1.99-.4.4-.98.53-1.5.53-.5,0-1.05-.12-1.38-.35l.18-.61c.28.18.7.34,1.22.33.77,0,1.33-.43,1.33-1.53v-.49h-.02c-.23.41-.67.73-1.31.74-1.03,0-1.77-.91-1.78-2.11,0-1.48.9-2.32,1.85-2.33.72,0,1.12.39,1.3.75h.02l.03-.66h.66ZM387.26,283.59c0-.13,0-.25-.04-.36-.14-.46-.51-.83-1.06-.83-.72,0-1.23.65-1.22,1.66,0,.86.42,1.56,1.23,1.56.46,0,.88-.31,1.04-.82.04-.13.06-.29.06-.42v-.78Z"/>
      <path class="cls-2" d="M389.23,279.82h.75s.02,2.71.02,2.71h.02c.12-.23.3-.43.54-.56.22-.14.49-.23.77-.23.56,0,1.45.35,1.46,1.85l.02,2.59h-.75s-.02-2.5-.02-2.5c0-.7-.26-1.29-.97-1.29-.49,0-.87.37-1,.8-.04.11-.05.23-.05.38l.02,2.63h-.75s-.04-6.39-.04-6.39Z"/>
      <path class="cls-2" d="M394.86,280.57v1.25s1.09,0,1.09,0v.6s-1.08,0-1.08,0l.02,2.35c0,.54.15.84.57.84.2,0,.34-.03.44-.06l.04.59c-.15.06-.38.11-.67.11-.35,0-.63-.11-.82-.33-.21-.23-.29-.62-.3-1.13l-.02-2.38h-.64s0-.6,0-.6h.64s0-1.05,0-1.05l.74-.21Z"/>
      <path class="cls-2" d="M397.39,284.44l-.02-.23c-.05-.49.1-1.02.52-1.56.38-.48.59-.83.59-1.24,0-.46-.28-.76-.82-.77-.31,0-.65.11-.86.29l-.21-.57c.28-.22.77-.37,1.22-.37.98,0,1.43.63,1.44,1.31,0,.61-.32,1.06-.73,1.57-.37.47-.51.87-.48,1.33v.23s-.66,0-.66,0ZM397.21,285.7c0-.33.21-.57.51-.57s.51.23.51.56c0,.32-.19.56-.51.56-.3,0-.51-.24-.51-.55Z"/>
    </g>
  </g>
  <g>
    <rect class="cls-8" x="437.96" y="283.29" width="45.04" height="70.6"/>
    <path class="cls-1" d="M446.17,299.56l4.97,7.49c1.3,1.94,2.38,3.74,3.53,5.69h.22c1.15-2.09,2.3-3.89,3.46-5.76l4.9-7.42h6.84l-11.88,16.85,12.24,18h-7.2l-5.11-7.85c-1.37-2.02-2.52-3.96-3.75-6.05h-.14c-1.15,2.09-2.38,3.96-3.67,6.05l-5.04,7.85h-6.98l12.38-17.79-11.81-17.07h7.06Z"/>
  </g>
  <path class="cls-13" d="M445.19,229.61l6.84,19.58c1.15,3.17,2.09,6.05,2.81,8.93h.22c.79-2.88,1.8-5.76,2.95-8.93l6.77-19.58h6.62l-13.68,34.85h-6.05l-13.25-34.85h6.77Z"/>
</svg>