<?xml version="1.0" encoding="UTF-8"?>
<svg id="Solid" xmlns="http://www.w3.org/2000/svg" viewBox="0 0 522.58 427.6">
  <defs>
    <style>
      .cls-1 {
        fill: #231f20;
      }

      .cls-2 {
        fill: #6dbae7;
        opacity: .31;
      }

      .cls-3, .cls-4 {
        fill: #fff;
      }

      .cls-5 {
        stroke: #9b9a9a;
      }

      .cls-5, .cls-6, .cls-7, .cls-8 {
        fill: none;
      }

      .cls-5, .cls-7, .cls-8 {
        stroke-miterlimit: 10;
        stroke-width: 2.83px;
      }

      .cls-9 {
        fill: #9b9a9a;
      }

      .cls-7, .cls-8 {
        stroke: #437898;
      }

      .cls-4 {
        opacity: .74;
      }

      .cls-8 {
        stroke-dasharray: 5.67;
      }
    </style>
  </defs>
  <g>
    <polyline class="cls-2" points="54.02 37.6 54.02 37.6 55.52 153.1 33.07 185.74 34.52 68.1 56.02 37.6"/>
    <polygon class="cls-2" points="55.52 38.1 55.52 153.1 181.52 154.1 179.55 37.06 135.78 39.03 135.78 51.03 98.78 50.77 97.52 38.1 55.52 38.1"/>
    <line class="cls-7" x1="180.52" y1="38.1" x2="55.52" y2="38.1"/>
    <line class="cls-7" x1="157.52" y1="68.1" x2="180.52" y2="38.1"/>
    <line class="cls-7" x1="161.52" y1="188.1" x2="181.52" y2="154.1"/>
    <line class="cls-7" x1="180.52" y1="38.1" x2="180.52" y2="154.1"/>
    <line class="cls-8" x1="55.52" y1="38.1" x2="55.52" y2="153.1"/>
    <line class="cls-7" x1="34.28" y1="67.55" x2="57.28" y2="37.55"/>
    <line class="cls-8" x1="180.52" y1="153.1" x2="53.52" y2="153.1"/>
    <polyline class="cls-8" points="55.52 153.1 35.52 184.1 55.52 153.1"/>
    <g>
      <line class="cls-7" x1="135.38" y1="14.67" x2="98.33" y2="14.67"/>
      <polygon class="cls-4" points="92.04 23.4 91.78 59.65 129.75 59.12 136.78 48.65 135.78 27.37 92.04 23.4"/>
      <line class="cls-7" x1="128.56" y1="23.56" x2="135.38" y2="14.67"/>
      <line class="cls-7" x1="129.75" y1="59.12" x2="135.68" y2="49.05"/>
      <line class="cls-7" x1="135.38" y1="14.67" x2="135.38" y2="49.05"/>
      <line class="cls-8" x1="98.33" y1="14.67" x2="98.33" y2="48.75"/>
      <line class="cls-7" x1="92.04" y1="23.4" x2="98.86" y2="14.5"/>
      <line class="cls-8" x1="135.38" y1="48.75" x2="97.74" y2="48.75"/>
      <polyline class="cls-8" points="98.33 48.75 92.41 57.94 98.33 48.75"/>
      <rect class="cls-7" x="92.11" y="23.56" width="37.34" height="34.67"/>
      <circle class="cls-1" cx="98.28" cy="14.41" r="3.72"/>
      <circle class="cls-1" cx="136.78" cy="48.65" r="3.72"/>
      <circle class="cls-1" cx="128.78" cy="58.65" r="3.72"/>
      <circle class="cls-1" cx="91.78" cy="59.65" r="3.72"/>
      <circle class="cls-1" cx="98.78" cy="48.65" r="3.72"/>
      <circle class="cls-1" cx="129.78" cy="24.65" r="3.72"/>
      <circle class="cls-1" cx="90.78" cy="23.65" r="3.72"/>
      <circle class="cls-1" cx="135.78" cy="14.65" r="3.72"/>
    </g>
    <path class="cls-2" d="M34.52,68.1l125.5,1.5,20.5-31.5h-83l-41.5-.5-21.5,30.5Z"/>
    <polyline class="cls-2" points="34.15 185.42 55.52 153.1 180.52 154.1 160.52 185.1"/>
    <polygon class="cls-2" points="159.15 68.42 179.74 39.03 178.69 156.62 158.53 185.63 159.15 68.42"/>
    <g>
      <circle class="cls-1" cx="180.15" cy="153.42" r="7.75"/>
      <path class="cls-3" d="M178.69,150.55v2.54h2.93v-2.54h.79v6.07h-.79v-2.84h-2.93v2.84h-.78v-6.07h.78Z"/>
    </g>
    <g>
      <circle class="cls-1" cx="54.15" cy="153.42" r="7.75"/>
      <path class="cls-3" d="M52.48,150.24h3.63v.73h-2.76v2.24h2.55v.72h-2.55v3.05h-.87v-6.74Z"/>
    </g>
    <rect class="cls-2" x="36.02" y="69.6" width="124" height="115"/>
    <rect class="cls-7" x="34.52" y="68.1" width="126" height="117"/>
    <g>
      <circle class="cls-1" cx="55.27" cy="36.85" r="7.75"/>
      <path class="cls-3" d="M57.06,37.24h-2.62v2.43h2.92v.73h-3.79v-6.74h3.64v.73h-2.77v2.13h2.62v.72Z"/>
    </g>
    <g>
      <circle class="cls-1" cx="179.15" cy="36.42" r="7.75"/>
      <path class="cls-3" d="M181.55,39.35c-.35.13-1.04.33-1.86.33-.92,0-1.67-.23-2.27-.8-.52-.5-.85-1.31-.85-2.26,0-1.81,1.25-3.13,3.29-3.13.7,0,1.25.15,1.51.28l-.19.64c-.32-.14-.73-.26-1.34-.26-1.48,0-2.44.92-2.44,2.44s.93,2.45,2.34,2.45c.51,0,.86-.07,1.04-.16v-1.81h-1.23v-.63h2v2.92Z"/>
    </g>
    <g>
      <circle class="cls-1" cx="35.27" cy="68.85" r="7.75"/>
      <path class="cls-3" d="M34.06,70.28l-.7,2.12h-.9l2.29-6.74h1.05l2.3,6.74h-.93l-.72-2.12h-2.39ZM36.27,69.6l-.66-1.94c-.15-.44-.25-.84-.35-1.23h-.02c-.1.4-.21.81-.34,1.22l-.66,1.95h2.03Z"/>
    </g>
    <g>
      <circle class="cls-1" cx="160.15" cy="185.42" r="7.75"/>
      <path class="cls-3" d="M162.72,188.75c-.32.16-.96.32-1.78.32-1.9,0-3.33-1.2-3.33-3.41s1.43-3.54,3.52-3.54c.84,0,1.37.18,1.6.3l-.21.71c-.33-.16-.8-.28-1.36-.28-1.58,0-2.63,1.01-2.63,2.78,0,1.65.95,2.71,2.59,2.71.53,0,1.07-.11,1.42-.28l.18.69Z"/>
    </g>
    <g>
      <circle class="cls-1" cx="34.15" cy="185.42" r="7.75"/>
      <path class="cls-3" d="M32.2,182.33c.38-.08.98-.14,1.59-.14.87,0,1.43.15,1.85.49.35.26.56.66.56,1.19,0,.65-.43,1.22-1.14,1.48v.02c.64.16,1.39.69,1.39,1.69,0,.58-.23,1.02-.57,1.35-.47.43-1.23.63-2.33.63-.6,0-1.06-.04-1.35-.08v-6.63ZM33.07,185.08h.79c.92,0,1.46-.48,1.46-1.13,0-.79-.6-1.1-1.48-1.1-.4,0-.63.03-.77.06v2.17ZM33.07,188.31c.17.03.42.04.73.04.9,0,1.73-.33,1.73-1.31,0-.92-.79-1.3-1.74-1.3h-.72v2.57Z"/>
    </g>
    <g>
      <circle class="cls-1" cx="159.15" cy="68.42" r="7.75"/>
      <path class="cls-3" d="M156.84,65.63c.48-.07,1.04-.13,1.67-.13,1.13,0,1.93.26,2.46.76.54.5.85,1.2.85,2.18s-.31,1.8-.87,2.36c-.57.57-1.5.87-2.68.87-.56,0-1.03-.03-1.42-.07v-5.97ZM157.62,71c.2.04.49.04.79.04,1.67,0,2.58-.94,2.58-2.58,0-1.43-.8-2.34-2.46-2.34-.41,0-.71.04-.92.08v4.79Z"/>
    </g>
  </g>
  <g>
    <polyline class="cls-2" points="366.65 30.01 366.65 30.01 368.15 145.51 345.7 178.15 347.15 60.51 368.65 30.01"/>
    <polygon class="cls-2" points="368.15 30.51 368.15 145.51 494.15 146.51 492.18 29.47 448.41 31.44 448.41 43.43 411.41 43.18 410.15 30.51 368.15 30.51"/>
    <line class="cls-7" x1="410.18" y1="30.63" x2="368.15" y2="30.51"/>
    <line class="cls-7" x1="470.15" y1="60.51" x2="493.15" y2="30.51"/>
    <line class="cls-7" x1="474.15" y1="180.51" x2="494.15" y2="146.51"/>
    <line class="cls-7" x1="493.15" y1="30.51" x2="493.15" y2="146.51"/>
    <line class="cls-8" x1="368.15" y1="30.51" x2="368.15" y2="145.51"/>
    <line class="cls-7" x1="346.91" y1="59.96" x2="369.91" y2="29.96"/>
    <line class="cls-8" x1="493.15" y1="145.51" x2="366.15" y2="145.51"/>
    <polyline class="cls-8" points="368.15 145.51 348.15 176.51 368.15 145.51"/>
    <line class="cls-7" x1="490.53" y1="31.11" x2="448.5" y2="30.99"/>
    <g>
      <line class="cls-7" x1="441.38" y1="51.53" x2="447.31" y2="41.45"/>
      <line class="cls-7" x1="447.18" y1="28.63" x2="447.01" y2="41.45"/>
      <line class="cls-8" x1="410.18" y1="29.63" x2="409.97" y2="41.16"/>
      <line class="cls-8" x1="447.01" y1="41.16" x2="409.37" y2="41.16"/>
      <polyline class="cls-8" points="409.97 41.16 404.04 50.34 409.97 41.16"/>
      <rect class="cls-7" x="403.74" y="37.63" width="37.34" height="13.01"/>
      <circle class="cls-1" cx="448.41" cy="41.05" r="3.72"/>
      <circle class="cls-1" cx="440.41" cy="51.05" r="3.72"/>
      <circle class="cls-1" cx="403.41" cy="52.05" r="3.72"/>
      <circle class="cls-1" cx="410.41" cy="41.05" r="3.72"/>
      <path class="cls-2" d="M347.15,60.51l125.5,1.5,20.5-31.5h-44.01c-2.28,3.01-4.55,6.02-6.83,9.03-12.97-.3-25.93-.59-38.9-.89l6.74-8.14-41.5-.5-21.5,30.5Z"/>
      <line class="cls-7" x1="402.67" y1="38.8" x2="409.49" y2="29.91"/>
      <line class="cls-7" x1="441.19" y1="38.97" x2="448.01" y2="30.08"/>
      <circle class="cls-1" cx="409.91" cy="29.82" r="3.72"/>
      <circle class="cls-1" cx="440.41" cy="38.05" r="3.72"/>
      <circle class="cls-1" cx="402.41" cy="38.05" r="3.72"/>
      <circle class="cls-1" cx="447.41" cy="30.05" r="3.72"/>
    </g>
    <polyline class="cls-2" points="346.78 177.83 368.15 145.51 493.15 146.51 473.15 177.51"/>
    <polygon class="cls-2" points="471.78 60.83 492.37 31.44 491.32 149.02 471.16 178.04 471.78 60.83"/>
    <g>
      <circle class="cls-1" cx="492.78" cy="145.83" r="7.75"/>
      <path class="cls-3" d="M491.32,142.96v2.54h2.94v-2.54h.79v6.07h-.79v-2.84h-2.94v2.84h-.78v-6.07h.78Z"/>
    </g>
    <g>
      <circle class="cls-1" cx="366.78" cy="145.83" r="7.75"/>
      <path class="cls-3" d="M365.11,142.64h3.63v.73h-2.76v2.24h2.55v.72h-2.55v3.05h-.87v-6.74Z"/>
    </g>
    <rect class="cls-2" x="348.65" y="62.01" width="124" height="115"/>
    <rect class="cls-7" x="347.15" y="60.51" width="126" height="117"/>
    <g>
      <circle class="cls-1" cx="367.9" cy="29.26" r="7.75"/>
      <path class="cls-3" d="M369.69,29.65h-2.62v2.43h2.92v.73h-3.79v-6.74h3.64v.73h-2.77v2.13h2.62v.72Z"/>
    </g>
    <g>
      <circle class="cls-1" cx="491.78" cy="28.83" r="7.75"/>
      <path class="cls-3" d="M494.18,31.75c-.35.13-1.04.33-1.86.33-.92,0-1.67-.23-2.27-.8-.52-.5-.85-1.31-.85-2.26,0-1.81,1.25-3.13,3.29-3.13.7,0,1.25.15,1.51.28l-.19.64c-.32-.14-.73-.26-1.34-.26-1.48,0-2.44.92-2.44,2.44s.93,2.45,2.34,2.45c.51,0,.86-.07,1.04-.16v-1.81h-1.23v-.63h2v2.92Z"/>
    </g>
    <g>
      <circle class="cls-1" cx="347.9" cy="61.26" r="7.75"/>
      <path class="cls-3" d="M346.69,62.69l-.7,2.12h-.9l2.29-6.74h1.05l2.3,6.74h-.93l-.72-2.12h-2.39ZM348.9,62.01l-.66-1.94c-.15-.44-.25-.84-.35-1.23h-.02c-.1.4-.21.81-.34,1.22l-.66,1.95h2.03Z"/>
    </g>
    <g>
      <circle class="cls-1" cx="472.78" cy="177.83" r="7.75"/>
      <path class="cls-3" d="M475.35,181.16c-.32.16-.96.32-1.78.32-1.9,0-3.33-1.2-3.33-3.41s1.43-3.54,3.52-3.54c.84,0,1.37.18,1.6.3l-.21.71c-.33-.16-.8-.28-1.36-.28-1.58,0-2.63,1.01-2.63,2.78,0,1.65.95,2.71,2.59,2.71.53,0,1.07-.11,1.42-.28l.18.69Z"/>
    </g>
    <g>
      <circle class="cls-1" cx="346.78" cy="177.83" r="7.75"/>
      <path class="cls-3" d="M344.83,174.73c.38-.08.98-.14,1.59-.14.87,0,1.43.15,1.85.49.35.26.56.66.56,1.19,0,.65-.43,1.22-1.14,1.48v.02c.64.16,1.39.69,1.39,1.69,0,.58-.23,1.02-.57,1.35-.47.43-1.23.63-2.33.63-.6,0-1.06-.04-1.35-.08v-6.63ZM345.7,177.49h.79c.92,0,1.46-.48,1.46-1.13,0-.79-.6-1.1-1.48-1.1-.4,0-.63.03-.77.06v2.17ZM345.7,180.72c.17.03.42.04.73.04.9,0,1.73-.33,1.73-1.31,0-.92-.79-1.3-1.74-1.3h-.72v2.57Z"/>
    </g>
    <g>
      <circle class="cls-1" cx="471.78" cy="60.83" r="7.75"/>
      <path class="cls-3" d="M469.47,58.04c.48-.07,1.04-.13,1.67-.13,1.13,0,1.93.26,2.46.76.54.5.86,1.2.86,2.18s-.31,1.8-.87,2.36c-.57.57-1.5.87-2.68.87-.56,0-1.03-.03-1.42-.07v-5.97ZM470.25,63.4c.2.04.49.04.79.04,1.67,0,2.58-.94,2.58-2.58,0-1.43-.8-2.34-2.46-2.34-.41,0-.71.04-.92.08v4.79Z"/>
    </g>
  </g>
  <g>
    <polyline class="cls-2" points="55.94 249.04 55.94 249.04 57.44 364.54 34.99 397.18 36.44 279.54 57.94 249.04"/>
    <polygon class="cls-2" points="57.44 249.54 57.44 364.54 183.44 365.54 181.47 248.49 137.7 250.46 137.7 262.46 100.7 262.21 99.44 249.54 57.44 249.54"/>
    <line class="cls-7" x1="182.44" y1="249.54" x2="57.44" y2="249.54"/>
    <line class="cls-7" x1="159.44" y1="279.54" x2="182.44" y2="249.54"/>
    <line class="cls-7" x1="163.44" y1="399.54" x2="183.44" y2="365.54"/>
    <line class="cls-7" x1="182.44" y1="249.54" x2="182.44" y2="365.54"/>
    <line class="cls-8" x1="57.44" y1="249.54" x2="57.44" y2="364.54"/>
    <line class="cls-7" x1="36.2" y1="278.98" x2="59.2" y2="248.98"/>
    <line class="cls-8" x1="182.44" y1="364.54" x2="55.44" y2="364.54"/>
    <polyline class="cls-8" points="57.44 364.54 37.44 395.54 57.44 364.54"/>
    <g>
      <line class="cls-7" x1="136.3" y1="250.1" x2="99.25" y2="250.1"/>
      <polygon class="cls-4" points="92.96 258.83 92.7 295.08 130.67 294.56 137.7 284.08 136.7 262.8 92.96 258.83"/>
      <line class="cls-7" x1="129.48" y1="258.99" x2="136.3" y2="250.1"/>
      <line class="cls-7" x1="130.67" y1="294.56" x2="136.59" y2="284.48"/>
      <line class="cls-7" x1="136.3" y1="250.1" x2="136.3" y2="284.48"/>
      <line class="cls-8" x1="99.25" y1="250.1" x2="99.25" y2="284.18"/>
      <line class="cls-7" x1="92.96" y1="258.83" x2="99.77" y2="249.94"/>
      <line class="cls-8" x1="136.3" y1="284.18" x2="98.66" y2="284.18"/>
      <polyline class="cls-8" points="99.25 284.18 93.32 293.37 99.25 284.18"/>
      <rect class="cls-7" x="93.03" y="258.99" width="37.34" height="34.67"/>
      <circle class="cls-1" cx="99.2" cy="249.85" r="3.72"/>
      <circle class="cls-1" cx="137.7" cy="284.08" r="3.72"/>
      <circle class="cls-1" cx="129.7" cy="294.08" r="3.72"/>
      <circle class="cls-1" cx="92.7" cy="295.08" r="3.72"/>
      <path class="cls-2" d="M36.44,279.54l125.5,1.5,20.5-31.5h-83l-41.5-.5-21.5,30.5Z"/>
      <circle class="cls-1" cx="99.7" cy="284.08" r="3.72"/>
      <circle class="cls-1" cx="130.7" cy="260.08" r="3.72"/>
      <circle class="cls-1" cx="91.7" cy="259.08" r="3.72"/>
      <circle class="cls-1" cx="136.7" cy="250.08" r="3.72"/>
    </g>
    <polyline class="cls-2" points="36.07 396.86 57.44 364.54 182.44 365.54 162.44 396.54"/>
    <polygon class="cls-2" points="161.07 279.86 181.66 250.46 180.6 368.05 160.45 397.07 161.07 279.86"/>
    <g>
      <circle class="cls-1" cx="182.07" cy="364.86" r="7.75"/>
      <path class="cls-3" d="M180.6,361.98v2.54h2.93v-2.54h.79v6.07h-.79v-2.84h-2.93v2.84h-.78v-6.07h.78Z"/>
    </g>
    <g>
      <circle class="cls-1" cx="56.07" cy="364.86" r="7.75"/>
      <path class="cls-3" d="M54.39,361.67h3.63v.73h-2.76v2.24h2.55v.72h-2.55v3.05h-.87v-6.74Z"/>
    </g>
    <rect class="cls-2" x="37.94" y="281.04" width="124" height="115"/>
    <rect class="cls-7" x="36.44" y="279.54" width="126" height="117"/>
    <g>
      <circle class="cls-1" cx="57.19" cy="248.29" r="7.75"/>
      <path class="cls-3" d="M58.97,248.68h-2.62v2.43h2.92v.73h-3.79v-6.74h3.64v.73h-2.77v2.13h2.62v.72Z"/>
    </g>
    <g>
      <circle class="cls-1" cx="181.07" cy="247.86" r="7.75"/>
      <path class="cls-3" d="M183.46,250.78c-.35.12-1.04.33-1.86.33-.92,0-1.67-.23-2.27-.8-.52-.5-.85-1.31-.85-2.26,0-1.81,1.25-3.13,3.29-3.13.7,0,1.25.15,1.51.28l-.19.64c-.32-.14-.73-.26-1.34-.26-1.48,0-2.44.92-2.44,2.44s.93,2.45,2.34,2.45c.51,0,.86-.07,1.04-.16v-1.81h-1.23v-.63h2v2.92Z"/>
    </g>
    <g>
      <circle class="cls-1" cx="37.19" cy="280.29" r="7.75"/>
      <path class="cls-3" d="M35.98,281.72l-.7,2.12h-.9l2.29-6.74h1.05l2.3,6.74h-.93l-.72-2.12h-2.39ZM38.18,281.04l-.66-1.94c-.15-.44-.25-.84-.35-1.23h-.02c-.1.4-.21.81-.34,1.22l-.66,1.95h2.03Z"/>
    </g>
    <g>
      <circle class="cls-1" cx="162.07" cy="396.86" r="7.75"/>
      <path class="cls-3" d="M164.64,400.18c-.32.16-.96.32-1.78.32-1.9,0-3.33-1.2-3.33-3.41s1.43-3.54,3.52-3.54c.84,0,1.37.18,1.6.3l-.21.71c-.33-.16-.8-.28-1.36-.28-1.58,0-2.63,1.01-2.63,2.78,0,1.65.95,2.71,2.59,2.71.53,0,1.07-.11,1.42-.28l.18.69Z"/>
    </g>
    <g>
      <circle class="cls-1" cx="36.07" cy="396.86" r="7.75"/>
      <path class="cls-3" d="M34.12,393.76c.38-.08.98-.14,1.59-.14.87,0,1.43.15,1.85.49.35.26.56.66.56,1.19,0,.65-.43,1.22-1.14,1.48v.02c.64.16,1.39.69,1.39,1.69,0,.58-.23,1.02-.57,1.35-.47.43-1.23.63-2.33.63-.6,0-1.06-.04-1.35-.08v-6.63ZM34.99,396.52h.79c.92,0,1.46-.48,1.46-1.13,0-.79-.6-1.1-1.48-1.1-.4,0-.63.03-.77.06v2.17ZM34.99,399.75c.17.03.42.04.73.04.9,0,1.73-.33,1.73-1.31,0-.92-.79-1.3-1.74-1.3h-.72v2.57Z"/>
    </g>
    <g>
      <circle class="cls-1" cx="161.07" cy="279.86" r="7.75"/>
      <path class="cls-3" d="M158.76,277.06c.48-.07,1.04-.13,1.67-.13,1.12,0,1.93.26,2.46.76.54.5.85,1.2.85,2.18s-.31,1.8-.87,2.36c-.57.57-1.5.87-2.68.87-.56,0-1.03-.03-1.42-.07v-5.97ZM159.54,282.43c.2.04.49.04.79.04,1.67,0,2.58-.94,2.58-2.57,0-1.43-.8-2.34-2.46-2.34-.41,0-.71.04-.92.08v4.79Z"/>
    </g>
  </g>
  <g>
    <polyline class="cls-2" points="368.57 241.44 368.57 241.44 370.07 356.94 347.62 389.58 349.07 271.94 370.57 241.44"/>
    <polygon class="cls-2" points="370.1 242.07 370.1 357.07 496.1 358.07 494.13 241.03 450.36 243 444.71 250.26 412.71 250.26 412.1 242.07 370.1 242.07"/>
    <line class="cls-7" x1="412.1" y1="242.07" x2="370.07" y2="241.94"/>
    <line class="cls-7" x1="472.07" y1="271.94" x2="495.07" y2="241.94"/>
    <line class="cls-7" x1="476.07" y1="391.94" x2="496.07" y2="357.94"/>
    <line class="cls-7" x1="495.07" y1="241.94" x2="495.07" y2="357.94"/>
    <line class="cls-8" x1="370.07" y1="241.94" x2="370.07" y2="356.94"/>
    <line class="cls-7" x1="348.83" y1="271.39" x2="371.83" y2="241.39"/>
    <line class="cls-8" x1="495.07" y1="356.94" x2="368.07" y2="356.94"/>
    <polyline class="cls-8" points="370.07 356.94 350.07 387.94 370.07 356.94"/>
    <line class="cls-7" x1="492.44" y1="242.54" x2="450.41" y2="242.42"/>
    <g>
      <line class="cls-7" x1="443.3" y1="288.96" x2="449.22" y2="278.89"/>
      <line class="cls-7" x1="449.18" y1="242.63" x2="448.93" y2="278.89"/>
      <line class="cls-8" x1="412.1" y1="247.07" x2="412.18" y2="277.63"/>
      <line class="cls-8" x1="448.93" y1="278.59" x2="411.29" y2="278.59"/>
      <polyline class="cls-8" points="411.88 278.59 405.96 287.78 411.88 278.59"/>
      <rect class="cls-7" x="405.66" y="249.63" width="37.34" height="38.44"/>
      <circle class="cls-1" cx="450.33" cy="278.49" r="3.72"/>
      <circle class="cls-1" cx="442.33" cy="288.49" r="3.72"/>
      <circle class="cls-1" cx="405.33" cy="289.49" r="3.72"/>
      <circle class="cls-1" cx="412.33" cy="278.49" r="3.72"/>
      <path class="cls-2" d="M349.07,271.94l125.5,1.5,20.5-31.5h-44.01c-2.28,3.01-4.55,6.02-6.83,9.03-12.97-.3-25.93-.59-38.9-.89l6.74-8.14-41.5-.5-21.5,30.5Z"/>
      <line class="cls-7" x1="404.59" y1="250.24" x2="411.4" y2="241.35"/>
      <line class="cls-7" x1="443.11" y1="250.4" x2="449.93" y2="241.51"/>
      <circle class="cls-1" cx="411.83" cy="241.25" r="3.72"/>
      <circle class="cls-1" cx="442.33" cy="249.49" r="3.72"/>
      <circle class="cls-1" cx="404.33" cy="249.49" r="3.72"/>
      <circle class="cls-1" cx="449.33" cy="241.49" r="3.72"/>
    </g>
    <polyline class="cls-2" points="348.7 389.26 370.07 356.94 495.07 357.94 475.07 388.94"/>
    <polygon class="cls-2" points="473.7 272.26 494.29 242.87 493.23 360.46 473.08 389.47 473.7 272.26"/>
    <g>
      <circle class="cls-1" cx="494.7" cy="357.26" r="7.75"/>
      <path class="cls-3" d="M493.23,354.39v2.54h2.93v-2.54h.79v6.07h-.79v-2.84h-2.93v2.84h-.78v-6.07h.78Z"/>
    </g>
    <g>
      <circle class="cls-1" cx="368.7" cy="357.26" r="7.75"/>
      <path class="cls-3" d="M367.02,354.08h3.63v.73h-2.76v2.24h2.55v.72h-2.55v3.05h-.87v-6.74Z"/>
    </g>
    <rect class="cls-2" x="350.57" y="273.44" width="124" height="115"/>
    <rect class="cls-7" x="349.07" y="271.94" width="126" height="117"/>
    <g>
      <circle class="cls-1" cx="369.82" cy="240.69" r="7.75"/>
      <path class="cls-3" d="M371.61,241.08h-2.62v2.43h2.92v.73h-3.79v-6.74h3.64v.73h-2.77v2.13h2.62v.72Z"/>
    </g>
    <g>
      <circle class="cls-1" cx="493.7" cy="240.26" r="7.75"/>
      <path class="cls-3" d="M496.1,243.19c-.35.13-1.04.33-1.86.33-.92,0-1.67-.23-2.27-.8-.52-.5-.85-1.31-.85-2.26,0-1.81,1.25-3.13,3.29-3.13.7,0,1.25.15,1.51.28l-.19.64c-.32-.14-.73-.26-1.34-.26-1.48,0-2.44.92-2.44,2.44s.93,2.45,2.34,2.45c.51,0,.86-.07,1.04-.16v-1.81h-1.23v-.63h2v2.92Z"/>
    </g>
    <g>
      <circle class="cls-1" cx="349.82" cy="272.69" r="7.75"/>
      <path class="cls-3" d="M348.61,274.12l-.7,2.12h-.9l2.29-6.74h1.05l2.3,6.74h-.93l-.72-2.12h-2.39ZM350.82,273.44l-.66-1.94c-.15-.44-.25-.84-.35-1.23h-.02c-.1.4-.21.81-.34,1.22l-.66,1.95h2.03Z"/>
    </g>
    <g>
      <circle class="cls-1" cx="474.7" cy="389.26" r="7.75"/>
      <path class="cls-3" d="M477.27,392.59c-.32.16-.96.32-1.78.32-1.9,0-3.33-1.2-3.33-3.41s1.43-3.54,3.52-3.54c.84,0,1.37.18,1.6.3l-.21.71c-.33-.16-.8-.28-1.36-.28-1.58,0-2.63,1.01-2.63,2.78,0,1.65.95,2.71,2.59,2.71.53,0,1.07-.11,1.42-.28l.18.69Z"/>
    </g>
    <g>
      <circle class="cls-1" cx="348.7" cy="389.26" r="7.75"/>
      <path class="cls-3" d="M346.75,386.17c.38-.08.98-.14,1.59-.14.87,0,1.43.15,1.85.49.35.26.56.66.56,1.19,0,.65-.43,1.22-1.14,1.48v.02c.64.16,1.39.69,1.39,1.69,0,.58-.23,1.02-.57,1.35-.47.43-1.23.63-2.33.63-.6,0-1.06-.04-1.35-.08v-6.63ZM347.62,388.92h.79c.92,0,1.46-.48,1.46-1.13,0-.79-.6-1.1-1.48-1.1-.4,0-.63.03-.77.06v2.17ZM347.62,392.15c.17.03.42.04.73.04.9,0,1.73-.33,1.73-1.31,0-.92-.79-1.3-1.74-1.3h-.72v2.57Z"/>
    </g>
    <g>
      <circle class="cls-1" cx="473.7" cy="272.26" r="7.75"/>
      <path class="cls-3" d="M471.39,269.47c.48-.07,1.04-.13,1.67-.13,1.13,0,1.93.26,2.46.76.54.5.85,1.2.85,2.18s-.31,1.8-.87,2.36c-.57.57-1.5.87-2.68.87-.56,0-1.03-.03-1.42-.07v-5.97ZM472.17,274.84c.2.04.49.04.79.04,1.67,0,2.58-.94,2.58-2.57,0-1.43-.8-2.34-2.46-2.34-.41,0-.71.04-.92.08v4.79Z"/>
    </g>
  </g>
  <g>
    <g>
      <line class="cls-5" x1="202.68" y1="215.63" x2="310.34" y2="215.63"/>
      <polygon class="cls-9" points="306.2 229.77 330.68 215.63 306.2 201.5 306.2 229.77"/>
    </g>
    <g>
      <rect class="cls-6" x="206.72" y="206.7" width="94.96" height="17.93"/>
      <path class="cls-1" d="M227.56,207.1c.34-.07.88-.13,1.43-.13.78,0,1.29.13,1.67.44.32.23.5.59.5,1.07,0,.58-.39,1.1-1.03,1.33v.02c.58.14,1.25.62,1.25,1.52,0,.52-.21.92-.51,1.21-.42.39-1.11.57-2.1.57-.54,0-.95-.04-1.21-.07v-5.97ZM228.34,209.59h.71c.83,0,1.31-.43,1.31-1.02,0-.71-.54-.99-1.33-.99-.36,0-.57.03-.69.05v1.95ZM228.34,212.5c.15.03.38.04.66.04.81,0,1.56-.3,1.56-1.18,0-.83-.71-1.17-1.57-1.17h-.65v2.31Z"/>
      <path class="cls-1" d="M236.39,210.88c0,1.61-1.12,2.31-2.17,2.31-1.18,0-2.09-.86-2.09-2.24,0-1.46.96-2.31,2.16-2.31s2.1.91,2.1,2.24ZM232.93,210.92c0,.95.55,1.67,1.32,1.67s1.32-.71,1.32-1.69c0-.74-.37-1.67-1.31-1.67s-1.34.86-1.34,1.69Z"/>
      <path class="cls-1" d="M241.33,210.88c0,1.61-1.12,2.31-2.17,2.31-1.18,0-2.09-.86-2.09-2.24,0-1.46.96-2.31,2.16-2.31s2.1.91,2.1,2.24ZM237.87,210.92c0,.95.55,1.67,1.32,1.67s1.32-.71,1.32-1.69c0-.74-.37-1.67-1.31-1.67s-1.34.86-1.34,1.69Z"/>
      <path class="cls-1" d="M242.32,206.7h.79v6.39h-.79v-6.39Z"/>
      <path class="cls-1" d="M244.89,211.05c.02,1.07.7,1.51,1.49,1.51.57,0,.91-.1,1.21-.22l.14.57c-.28.13-.76.27-1.45.27-1.34,0-2.14-.88-2.14-2.2s.77-2.35,2.04-2.35c1.42,0,1.8,1.25,1.8,2.05,0,.16-.02.29-.03.37h-3.06ZM247.21,210.49c0-.5-.21-1.29-1.1-1.29-.8,0-1.15.74-1.21,1.29h2.31Z"/>
      <path class="cls-1" d="M251.37,213.09l-.06-.55h-.03c-.24.34-.71.65-1.33.65-.88,0-1.33-.62-1.33-1.25,0-1.05.94-1.63,2.62-1.62v-.09c0-.36-.1-1.01-.99-1.01-.41,0-.83.13-1.13.32l-.18-.52c.36-.23.88-.39,1.43-.39,1.33,0,1.66.91,1.66,1.78v1.63c0,.38.02.75.07,1.04h-.72ZM251.25,210.87c-.86-.02-1.85.13-1.85.98,0,.51.34.76.75.76.57,0,.93-.36,1.05-.73.03-.08.04-.17.04-.25v-.76Z"/>
      <path class="cls-1" d="M253.3,209.91c0-.45,0-.82-.04-1.18h.7l.04.72h.02c.22-.41.72-.82,1.44-.82.6,0,1.54.36,1.54,1.86v2.6h-.79v-2.51c0-.7-.26-1.29-1.01-1.29-.52,0-.93.37-1.06.81-.04.1-.05.23-.05.37v2.62h-.79v-3.18Z"/>
      <path class="cls-1" d="M263.85,211.9c0,.45,0,.85.04,1.19h-.7l-.04-.71h-.02c-.21.35-.67.81-1.44.81-.68,0-1.5-.38-1.5-1.91v-2.55h.79v2.41c0,.83.25,1.39.97,1.39.53,0,.9-.37,1.04-.72.04-.12.07-.26.07-.41v-2.67h.79v3.17Z"/>
      <path class="cls-1" d="M265.16,209.91c0-.45,0-.82-.04-1.18h.7l.04.72h.02c.22-.41.72-.82,1.44-.82.6,0,1.54.36,1.54,1.86v2.6h-.79v-2.51c0-.7-.26-1.29-1.01-1.29-.52,0-.93.37-1.06.81-.04.1-.05.23-.05.37v2.62h-.79v-3.18Z"/>
      <path class="cls-1" d="M271.03,207.51c0,.27-.19.49-.5.49-.28,0-.48-.22-.48-.49s.21-.5.5-.5.49.22.49.5ZM270.15,213.09v-4.36h.79v4.36h-.79Z"/>
      <path class="cls-1" d="M276.2,210.88c0,1.61-1.12,2.31-2.17,2.31-1.18,0-2.09-.86-2.09-2.24,0-1.46.96-2.31,2.16-2.31s2.1.91,2.1,2.24ZM272.74,210.92c0,.95.55,1.67,1.32,1.67s1.32-.71,1.32-1.69c0-.74-.37-1.67-1.31-1.67s-1.34.86-1.34,1.69Z"/>
      <path class="cls-1" d="M277.2,209.91c0-.45,0-.82-.04-1.18h.7l.04.72h.02c.22-.41.72-.82,1.44-.82.6,0,1.54.36,1.54,1.86v2.6h-.79v-2.51c0-.7-.26-1.29-1.01-1.29-.52,0-.93.37-1.06.81-.04.1-.05.23-.05.37v2.62h-.79v-3.18Z"/>
    </g>
  </g>
</svg>