<?xml version="1.0" encoding="UTF-8"?>
<svg id="Solidinteraction" xmlns="http://www.w3.org/2000/svg" viewBox="0 0 688 214.73">
  <defs>
    <style>
      .cls-1 {
        fill: #c92027;
      }

      .cls-2 {
        fill: #231f20;
      }

      .cls-3 {
        fill: #437898;
        opacity: .5;
      }

      .cls-4 {
        fill: #6dbae7;
        opacity: .31;
      }

      .cls-5 {
        fill: #fff;
      }

      .cls-6 {
        stroke: #9b9a9a;
      }

      .cls-6, .cls-7, .cls-8, .cls-9 {
        fill: none;
      }

      .cls-6, .cls-8, .cls-9 {
        stroke-miterlimit: 10;
        stroke-width: 2.83px;
      }

      .cls-10 {
        fill: #9b9a9a;
      }

      .cls-8, .cls-9 {
        stroke: #437898;
      }

      .cls-11 {
        fill: #39b54a;
      }

      .cls-9 {
        stroke-dasharray: 5.67;
      }
    </style>
  </defs>
  <g>
    <g>
      <rect class="cls-4" x="35.49" y="79.59" width="64.89" height="60.18"/>
      <polyline class="cls-4" points="34.45 79.59 34.45 79.59 35.23 140.03 23.48 157.11 24.24 95.55 35.49 79.59"/>
      <line class="cls-8" x1="100.65" y1="79.85" x2="35.23" y2="79.85"/>
      <line class="cls-8" x1="88.61" y1="95.55" x2="100.65" y2="79.85"/>
      <line class="cls-8" x1="90.7" y1="158.35" x2="101.17" y2="140.55"/>
      <line class="cls-8" x1="100.65" y1="79.85" x2="100.65" y2="140.55"/>
      <line class="cls-9" x1="35.23" y1="79.85" x2="35.23" y2="140.03"/>
      <line class="cls-8" x1="24.12" y1="95.26" x2="36.15" y2="79.56"/>
      <line class="cls-9" x1="100.65" y1="140.03" x2="34.18" y2="140.03"/>
      <polyline class="cls-9" points="35.23 140.03 24.76 156.25 35.23 140.03"/>
      <polygon class="cls-4" points="35.23 79.85 24.81 95.32 89.46 95.72 100.78 79.3 35.23 79.85"/>
      <polyline class="cls-4" points="24.05 156.94 35.23 140.03 100.65 140.55 90.18 156.78"/>
      <polygon class="cls-4" points="89.46 95.72 100.24 80.34 99.69 141.87 89.14 157.05 89.46 95.72"/>
      <g>
        <circle class="cls-2" cx="35.1" cy="79.19" r="4.06"/>
        <path class="cls-5" d="M36.04,79.4h-1.37v1.27h1.53v.38h-1.98v-3.53h1.91v.38h-1.45v1.12h1.37v.38Z"/>
      </g>
      <g>
        <circle class="cls-2" cx="100.45" cy="140.2" r="4.06"/>
        <path class="cls-5" d="M99.69,138.69v1.33h1.54v-1.33h.42v3.18h-.42v-1.49h-1.54v1.49h-.41v-3.18h.41Z"/>
      </g>
      <g>
        <circle class="cls-2" cx="34.52" cy="140.2" r="4.06"/>
        <path class="cls-5" d="M33.64,138.53h1.9v.38h-1.44v1.17h1.33v.38h-1.33v1.6h-.46v-3.53Z"/>
      </g>
      <g>
        <circle class="cls-2" cx="99.93" cy="78.97" r="4.06"/>
        <path class="cls-5" d="M101.19,80.5c-.18.07-.55.17-.98.17-.48,0-.88-.12-1.19-.42-.27-.26-.44-.69-.44-1.18,0-.95.66-1.64,1.72-1.64.37,0,.66.08.79.15l-.1.33c-.17-.08-.38-.14-.7-.14-.77,0-1.28.48-1.28,1.28s.49,1.28,1.23,1.28c.27,0,.45-.04.55-.08v-.95h-.65v-.33h1.05v1.53Z"/>
      </g>
      <rect class="cls-4" x="25.03" y="96.33" width="64.89" height="60.18"/>
      <rect class="cls-8" x="24.24" y="95.55" width="65.94" height="61.23"/>
      <g>
        <circle class="cls-2" cx="24.63" cy="95.94" r="4.06"/>
        <path class="cls-5" d="M24,96.69l-.37,1.11h-.47l1.2-3.53h.55l1.2,3.53h-.49l-.38-1.11h-1.25ZM25.16,96.33l-.35-1.01c-.08-.23-.13-.44-.18-.64h-.01c-.05.21-.11.42-.18.64l-.35,1.02h1.06Z"/>
      </g>
      <g>
        <circle class="cls-2" cx="89.99" cy="156.94" r="4.06"/>
        <path class="cls-5" d="M91.33,158.69c-.17.08-.5.17-.93.17-1,0-1.74-.63-1.74-1.79s.75-1.85,1.84-1.85c.44,0,.72.09.84.16l-.11.37c-.17-.08-.42-.15-.71-.15-.83,0-1.38.53-1.38,1.46,0,.86.5,1.42,1.36,1.42.28,0,.56-.06.74-.15l.09.36Z"/>
      </g>
      <g>
        <circle class="cls-2" cx="24.05" cy="156.94" r="4.06"/>
        <path class="cls-5" d="M23.03,155.32c.2-.04.51-.07.83-.07.46,0,.75.08.97.26.18.14.29.34.29.62,0,.34-.22.64-.6.78h0c.33.09.73.37.73.89,0,.3-.12.53-.3.71-.25.22-.64.33-1.22.33-.31,0-.55-.02-.71-.04v-3.47ZM23.48,156.77h.41c.48,0,.76-.25.76-.59,0-.41-.31-.58-.77-.58-.21,0-.33.02-.4.03v1.14ZM23.48,158.46c.09.02.22.02.38.02.47,0,.91-.17.91-.69,0-.48-.41-.68-.91-.68h-.38v1.34Z"/>
      </g>
      <g>
        <circle class="cls-2" cx="89.46" cy="95.72" r="4.06"/>
        <path class="cls-5" d="M88.25,94.25c.25-.04.55-.07.87-.07.59,0,1.01.14,1.29.4.28.26.45.63.45,1.14s-.16.94-.46,1.24c-.3.3-.79.46-1.41.46-.29,0-.54-.01-.75-.04v-3.13ZM88.66,97.06c.1.02.25.02.42.02.88,0,1.35-.49,1.35-1.35,0-.75-.42-1.23-1.29-1.23-.21,0-.37.02-.48.04v2.51Z"/>
      </g>
    </g>
    <g>
      <rect class="cls-4" x="124.72" y="48.04" width="70.04" height="64.96"/>
      <polyline class="cls-4" points="123.59 48.04 123.59 48.04 124.43 113.28 111.75 131.72 112.57 65.27 124.72 48.04"/>
      <line class="cls-8" x1="195.04" y1="48.33" x2="124.43" y2="48.33"/>
      <line class="cls-8" x1="182.05" y1="65.27" x2="195.04" y2="48.33"/>
      <line class="cls-8" x1="184.31" y1="133.05" x2="195.6" y2="113.85"/>
      <line class="cls-8" x1="195.04" y1="48.33" x2="195.04" y2="113.85"/>
      <line class="cls-9" x1="124.43" y1="48.33" x2="124.43" y2="113.28"/>
      <line class="cls-8" x1="112.44" y1="64.96" x2="125.43" y2="48.01"/>
      <line class="cls-9" x1="195.04" y1="113.28" x2="123.3" y2="113.28"/>
      <polyline class="cls-9" points="124.43 113.28 113.14 130.79 124.43 113.28"/>
      <polygon class="cls-3" points="124.43 48.33 113.19 65.02 182.97 65.45 195.18 47.74 124.43 48.33"/>
      <polyline class="cls-3" points="112.36 131.54 124.43 113.28 195.04 113.85 183.74 131.36"/>
      <polygon class="cls-3" points="182.97 65.45 194.6 48.85 194 115.27 182.62 131.66 182.97 65.45"/>
      <g>
        <circle class="cls-2" cx="123.66" cy="113.46" r="4.38"/>
        <path class="cls-5" d="M122.58,114.98v-2.88h.41l.92,1.46c.21.34.38.64.52.94h0c-.03-.39-.04-.74-.04-1.19v-1.21h.35v2.88h-.38l-.91-1.46c-.2-.32-.39-.65-.54-.96h-.01c.02.37.03.71.03,1.19v1.23h-.35Z"/>
      </g>
      <g>
        <circle class="cls-2" cx="124.29" cy="47.62" r="4.38"/>
        <path class="cls-5" d="M125.32,47.88c-.02-.4-.05-.88-.04-1.24h-.01c-.1.34-.22.7-.36,1.09l-.51,1.4h-.28l-.46-1.37c-.14-.41-.25-.78-.33-1.12h0c0,.36-.03.84-.06,1.27l-.08,1.23h-.35l.2-2.88h.47l.49,1.39c.12.36.22.67.29.97h.01c.07-.29.17-.61.3-.97l.51-1.39h.47l.18,2.88h-.36l-.07-1.26Z"/>
      </g>
      <g>
        <circle class="cls-2" cx="194.83" cy="113.46" r="4.38"/>
        <path class="cls-5" d="M196.14,113.51c0,.99-.6,1.52-1.34,1.52s-1.29-.59-1.29-1.46c0-.91.57-1.51,1.34-1.51s1.29.6,1.29,1.46ZM193.91,113.56c0,.62.33,1.17.92,1.17s.92-.54.92-1.2c0-.57-.3-1.17-.92-1.17s-.92.57-.92,1.2Z"/>
      </g>
      <g>
        <circle class="cls-2" cx="194.26" cy="47.38" r="4.38"/>
        <path class="cls-5" d="M193.3,45.8c.21-.04.49-.07.85-.07.44,0,.76.1.96.28.19.16.3.41.3.72s-.09.55-.26.73c-.23.25-.61.38-1.05.38-.13,0-.25,0-.36-.03v1.37h-.44v-3.38ZM193.74,47.45c.1.03.22.04.37.04.53,0,.86-.26.86-.73s-.32-.67-.81-.67c-.19,0-.34.02-.42.04v1.33Z"/>
      </g>
      <rect class="cls-3" x="113.42" y="66.12" width="70.04" height="64.96"/>
      <rect class="cls-8" x="112.57" y="65.27" width="71.17" height="66.09"/>
      <g>
        <circle class="cls-2" cx="113" cy="65.69" r="4.38"/>
        <path class="cls-5" d="M113.22,64.05v3.47h-.45v-3.47h.45Z"/>
      </g>
      <g>
        <circle class="cls-2" cx="183.53" cy="131.54" r="4.38"/>
        <path class="cls-5" d="M182.43,129.74h.49v1.83h.02c.1-.15.2-.28.3-.41l1.16-1.43h.61l-1.38,1.62,1.48,2.19h-.58l-1.25-1.87-.36.42v1.45h-.49v-3.81Z"/>
      </g>
      <g>
        <circle class="cls-2" cx="112.36" cy="131.54" r="4.38"/>
        <path class="cls-5" d="M112.53,129.74h.49v2.55c0,1.01-.5,1.32-1.15,1.32-.18,0-.4-.04-.53-.09l.07-.4c.1.04.25.07.41.07.44,0,.7-.2.7-.94v-2.51Z"/>
      </g>
      <g>
        <circle class="cls-2" cx="182.97" cy="65.45" r="4.38"/>
        <path class="cls-5" d="M182.15,63.83h.44v3.05h1.46v.37h-1.91v-3.42Z"/>
      </g>
    </g>
  </g>
  <g>
    <g>
      <line class="cls-6" x1="349" y1="154.5" x2="456.66" y2="154.5"/>
      <polygon class="cls-10" points="452.52 168.63 477 154.5 452.52 140.37 452.52 168.63"/>
    </g>
    <g>
      <rect class="cls-7" x="353.04" y="145.57" width="94.96" height="17.93"/>
      <path class="cls-2" d="M361.46,151c.35.22.86.4,1.4.4.8,0,1.27-.42,1.27-1.04,0-.57-.32-.89-1.14-1.21-.99-.35-1.6-.86-1.6-1.72,0-.95.78-1.65,1.96-1.65.62,0,1.07.14,1.34.3l-.22.64c-.2-.11-.6-.29-1.15-.29-.83,0-1.14.5-1.14.91,0,.57.37.85,1.21,1.17,1.03.4,1.55.89,1.55,1.78,0,.94-.69,1.75-2.12,1.75-.58,0-1.22-.17-1.55-.39l.2-.66Z"/>
      <path class="cls-2" d="M365.98,149.02c0-.56-.02-1.01-.04-1.42h.71l.04.75h.02c.32-.53.84-.85,1.55-.85,1.05,0,1.85.89,1.85,2.21,0,1.57-.95,2.34-1.98,2.34-.58,0-1.08-.25-1.34-.68h-.02v2.37h-.78v-4.72ZM366.76,150.18c0,.12.02.22.04.32.14.55.62.93,1.19.93.84,0,1.32-.68,1.32-1.68,0-.87-.46-1.62-1.3-1.62-.54,0-1.04.39-1.2.98-.03.1-.05.22-.05.32v.75Z"/>
      <path class="cls-2" d="M371.1,145.56h.79v6.39h-.79v-6.39Z"/>
      <path class="cls-2" d="M374.11,146.37c0,.27-.19.49-.5.49-.28,0-.48-.22-.48-.49s.21-.5.5-.5.49.22.49.5ZM373.23,151.96v-4.36h.79v4.36h-.79Z"/>
      <path class="cls-2" d="M376.29,146.35v1.25h1.13v.6h-1.13v2.35c0,.54.15.85.59.85.21,0,.36-.03.46-.05l.04.59c-.15.06-.4.11-.7.11-.37,0-.67-.12-.86-.33-.23-.23-.31-.62-.31-1.13v-2.38h-.67v-.6h.67v-1.04l.77-.21Z"/>
      <path class="cls-2" d="M383.98,145.56v5.27c0,.39,0,.83.04,1.13h-.71l-.04-.76h-.02c-.24.49-.77.86-1.49.86-1.05,0-1.86-.89-1.86-2.21,0-1.45.89-2.34,1.95-2.34.67,0,1.12.32,1.31.67h.02v-2.6h.79ZM383.19,149.37c0-.1,0-.23-.04-.33-.12-.5-.55-.92-1.14-.92-.82,0-1.31.72-1.31,1.68,0,.88.43,1.61,1.29,1.61.53,0,1.02-.35,1.16-.95.03-.11.04-.22.04-.34v-.76Z"/>
      <path class="cls-2" d="M386.18,146.37c0,.27-.19.49-.5.49-.28,0-.48-.22-.48-.49s.21-.5.5-.5.49.22.49.5ZM385.29,151.96v-4.36h.79v4.36h-.79Z"/>
      <path class="cls-2" d="M387.29,151.15c.23.15.65.32,1.04.32.58,0,.85-.29.85-.65s-.22-.58-.81-.8c-.78-.28-1.15-.71-1.15-1.23,0-.7.57-1.28,1.5-1.28.44,0,.83.13,1.07.27l-.2.58c-.17-.11-.49-.25-.89-.25-.47,0-.73.27-.73.59,0,.36.26.52.83.74.76.29,1.14.67,1.14,1.31,0,.77-.59,1.31-1.63,1.31-.48,0-.92-.12-1.22-.3l.2-.6Z"/>
      <path class="cls-2" d="M394.07,151.79c-.21.11-.67.25-1.25.25-1.31,0-2.17-.89-2.17-2.22s.92-2.31,2.34-2.31c.47,0,.88.12,1.1.22l-.18.61c-.19-.11-.49-.21-.92-.21-1,0-1.54.74-1.54,1.65,0,1.01.65,1.63,1.51,1.63.45,0,.75-.12.97-.22l.13.59Z"/>
      <path class="cls-2" d="M398.89,149.74c0,1.61-1.12,2.31-2.17,2.31-1.18,0-2.09-.86-2.09-2.24,0-1.46.96-2.31,2.16-2.31s2.1.91,2.1,2.24ZM395.43,149.79c0,.95.55,1.67,1.32,1.67s1.32-.71,1.32-1.69c0-.74-.37-1.67-1.31-1.67s-1.34.86-1.34,1.69Z"/>
      <path class="cls-2" d="M399.88,148.78c0-.45,0-.82-.04-1.18h.7l.04.72h.02c.22-.41.72-.82,1.44-.82.6,0,1.54.36,1.54,1.86v2.6h-.79v-2.51c0-.7-.26-1.29-1.01-1.29-.52,0-.93.37-1.06.81-.04.1-.05.23-.05.37v2.62h-.79v-3.18Z"/>
      <path class="cls-2" d="M404.88,148.78c0-.45,0-.82-.04-1.18h.7l.04.72h.02c.22-.41.72-.82,1.44-.82.6,0,1.54.36,1.54,1.86v2.6h-.79v-2.51c0-.7-.26-1.29-1.01-1.29-.52,0-.93.37-1.06.81-.04.1-.05.23-.05.37v2.62h-.79v-3.18Z"/>
      <path class="cls-2" d="M410.32,149.92c.02,1.07.7,1.51,1.49,1.51.57,0,.91-.1,1.21-.22l.14.57c-.28.13-.76.27-1.45.27-1.34,0-2.14-.88-2.14-2.2s.77-2.35,2.04-2.35c1.42,0,1.8,1.25,1.8,2.05,0,.16-.02.29-.03.37h-3.06ZM412.64,149.35c0-.5-.21-1.29-1.1-1.29-.8,0-1.15.74-1.21,1.29h2.31Z"/>
      <path class="cls-2" d="M417.49,151.79c-.21.11-.67.25-1.25.25-1.31,0-2.17-.89-2.17-2.22s.92-2.31,2.34-2.31c.47,0,.88.12,1.1.22l-.18.61c-.19-.11-.49-.21-.92-.21-1,0-1.54.74-1.54,1.65,0,1.01.65,1.63,1.51,1.63.45,0,.75-.12.97-.22l.13.59Z"/>
      <path class="cls-2" d="M419.49,146.35v1.25h1.13v.6h-1.13v2.35c0,.54.15.85.59.85.21,0,.36-.03.46-.05l.04.59c-.15.06-.4.11-.7.11-.37,0-.67-.12-.86-.33-.23-.23-.31-.62-.31-1.13v-2.38h-.67v-.6h.67v-1.04l.77-.21Z"/>
      <path class="cls-2" d="M421.9,149.92c.02,1.07.7,1.51,1.49,1.51.57,0,.91-.1,1.21-.22l.14.57c-.28.13-.76.27-1.45.27-1.34,0-2.14-.88-2.14-2.2s.77-2.35,2.04-2.35c1.42,0,1.8,1.25,1.8,2.05,0,.16-.02.29-.03.37h-3.06ZM424.22,149.35c0-.5-.21-1.29-1.1-1.29-.8,0-1.15.74-1.21,1.29h2.31Z"/>
      <path class="cls-2" d="M429.73,145.56v5.27c0,.39,0,.83.04,1.13h-.71l-.04-.76h-.02c-.24.49-.77.86-1.49.86-1.05,0-1.86-.89-1.86-2.21,0-1.45.89-2.34,1.95-2.34.67,0,1.12.32,1.31.67h.02v-2.6h.79ZM428.94,149.37c0-.1,0-.23-.04-.33-.12-.5-.55-.92-1.14-.92-.82,0-1.3.72-1.3,1.68,0,.88.43,1.61,1.29,1.61.53,0,1.02-.35,1.16-.95.03-.11.04-.22.04-.34v-.76Z"/>
      <path class="cls-2" d="M433.9,146.35v1.25h1.13v.6h-1.13v2.35c0,.54.15.85.59.85.21,0,.36-.03.46-.05l.04.59c-.15.06-.4.11-.7.11-.37,0-.67-.12-.86-.33-.23-.23-.31-.62-.31-1.13v-2.38h-.67v-.6h.67v-1.04l.77-.21Z"/>
      <path class="cls-2" d="M439.82,149.74c0,1.61-1.12,2.31-2.17,2.31-1.18,0-2.09-.86-2.09-2.24,0-1.46.96-2.31,2.16-2.31s2.1.91,2.1,2.24ZM436.36,149.79c0,.95.55,1.67,1.32,1.67s1.32-.71,1.32-1.69c0-.74-.37-1.67-1.31-1.67s-1.34.86-1.34,1.69Z"/>
      <path class="cls-2" d="M383.3,160.54c0,1.61-1.12,2.31-2.17,2.31-1.18,0-2.09-.86-2.09-2.24,0-1.46.96-2.31,2.16-2.31s2.1.91,2.1,2.24ZM379.84,160.59c0,.95.55,1.67,1.32,1.67s1.32-.71,1.32-1.69c0-.74-.37-1.67-1.31-1.67s-1.34.86-1.34,1.69Z"/>
      <path class="cls-2" d="M385.25,157.15v1.25h1.13v.6h-1.13v2.35c0,.54.15.85.59.85.21,0,.36-.03.46-.05l.04.59c-.15.06-.4.11-.7.11-.37,0-.67-.12-.86-.33-.23-.23-.31-.62-.31-1.13v-2.38h-.67v-.6h.67v-1.04l.77-.21Z"/>
      <path class="cls-2" d="M387.27,156.36h.79v2.72h.02c.13-.22.32-.42.57-.56.23-.13.51-.23.81-.23.58,0,1.52.36,1.52,1.86v2.59h-.79v-2.5c0-.7-.26-1.3-1.01-1.3-.51,0-.92.36-1.06.79-.05.11-.05.22-.05.38v2.63h-.79v-6.39Z"/>
      <path class="cls-2" d="M392.71,160.72c.02,1.07.7,1.51,1.49,1.51.57,0,.91-.1,1.21-.22l.14.57c-.28.13-.76.27-1.45.27-1.34,0-2.14-.88-2.14-2.2s.77-2.35,2.04-2.35c1.42,0,1.8,1.25,1.8,2.05,0,.16-.02.29-.03.37h-3.06ZM395.03,160.15c0-.5-.21-1.29-1.1-1.29-.8,0-1.15.74-1.21,1.29h2.31Z"/>
      <path class="cls-2" d="M396.78,159.76c0-.51,0-.95-.04-1.36h.69l.03.86h.04c.2-.59.68-.96,1.21-.96.09,0,.15,0,.22.03v.75c-.08-.02-.16-.03-.27-.03-.56,0-.96.42-1.06,1.02-.02.11-.04.23-.04.37v2.32h-.78v-3Z"/>
      <path class="cls-2" d="M401.52,161.95c.23.15.65.32,1.04.32.58,0,.85-.29.85-.65s-.22-.58-.81-.8c-.78-.28-1.15-.71-1.15-1.23,0-.7.57-1.28,1.5-1.28.44,0,.83.13,1.07.27l-.2.58c-.17-.11-.49-.25-.89-.25-.47,0-.73.27-.73.59,0,.36.26.52.83.74.76.29,1.14.67,1.14,1.31,0,.77-.59,1.31-1.63,1.31-.48,0-.92-.12-1.22-.3l.2-.6Z"/>
      <path class="cls-2" d="M409.14,160.54c0,1.61-1.12,2.31-2.17,2.31-1.18,0-2.09-.86-2.09-2.24,0-1.46.96-2.31,2.16-2.31s2.1.91,2.1,2.24ZM405.68,160.59c0,.95.55,1.67,1.32,1.67s1.32-.71,1.32-1.69c0-.74-.37-1.67-1.31-1.67s-1.34.86-1.34,1.69Z"/>
      <path class="cls-2" d="M410.14,156.36h.79v6.39h-.79v-6.39Z"/>
      <path class="cls-2" d="M413.14,157.17c0,.27-.19.49-.5.49-.28,0-.48-.22-.48-.49s.21-.5.5-.5.49.22.49.5ZM412.26,162.76v-4.36h.79v4.36h-.79Z"/>
      <path class="cls-2" d="M418.13,156.36v5.27c0,.39,0,.83.04,1.13h-.71l-.04-.76h-.02c-.24.49-.77.86-1.49.86-1.05,0-1.86-.89-1.86-2.21,0-1.45.89-2.34,1.95-2.34.67,0,1.12.32,1.31.67h.02v-2.6h.79ZM417.34,160.17c0-.1,0-.23-.04-.33-.12-.5-.55-.92-1.14-.92-.82,0-1.3.72-1.3,1.68,0,.88.43,1.61,1.29,1.61.53,0,1.02-.35,1.16-.95.03-.11.04-.22.04-.34v-.76Z"/>
      <path class="cls-2" d="M419.33,161.95c.23.15.65.32,1.04.32.58,0,.85-.29.85-.65s-.22-.58-.81-.8c-.78-.28-1.15-.71-1.15-1.23,0-.7.57-1.28,1.5-1.28.44,0,.83.13,1.07.27l-.2.58c-.17-.11-.49-.25-.89-.25-.47,0-.73.27-.73.59,0,.36.26.52.83.74.76.29,1.14.67,1.14,1.31,0,.77-.59,1.31-1.63,1.31-.48,0-.92-.12-1.22-.3l.2-.6Z"/>
    </g>
  </g>
  <g>
    <g>
      <line class="cls-6" x1="347" y1="68.5" x2="454.66" y2="68.5"/>
      <polygon class="cls-10" points="450.52 82.63 475 68.5 450.52 54.37 450.52 82.63"/>
    </g>
    <g>
      <rect class="cls-7" x="351.04" y="59.57" width="94.96" height="17.93"/>
      <path class="cls-2" d="M374.6,65.76c-.29.14-.86.29-1.6.29-1.71,0-3-1.08-3-3.07s1.29-3.19,3.17-3.19c.76,0,1.23.16,1.44.27l-.19.64c-.3-.14-.72-.25-1.22-.25-1.42,0-2.37.91-2.37,2.5,0,1.49.86,2.44,2.33,2.44.48,0,.96-.1,1.28-.25l.16.62Z"/>
      <path class="cls-2" d="M375.55,59.56h.79v2.72h.02c.13-.22.32-.42.57-.56.23-.13.51-.23.81-.23.58,0,1.52.36,1.52,1.86v2.59h-.79v-2.5c0-.7-.26-1.3-1.01-1.3-.51,0-.92.36-1.06.79-.05.11-.05.22-.05.38v2.63h-.79v-6.39Z"/>
      <path class="cls-2" d="M382.96,65.96l-.06-.55h-.03c-.24.34-.71.65-1.33.65-.88,0-1.33-.62-1.33-1.25,0-1.05.94-1.63,2.62-1.62v-.09c0-.36-.1-1.01-.99-1.01-.41,0-.83.13-1.13.32l-.18-.52c.36-.23.88-.39,1.43-.39,1.33,0,1.66.91,1.66,1.78v1.63c0,.38.02.75.07,1.04h-.72ZM382.84,63.73c-.86-.02-1.85.13-1.85.98,0,.51.34.76.75.76.57,0,.93-.36,1.05-.73.03-.08.04-.17.04-.25v-.76Z"/>
      <path class="cls-2" d="M384.88,62.78c0-.45,0-.82-.04-1.18h.7l.04.72h.02c.22-.41.72-.82,1.44-.82.6,0,1.54.36,1.54,1.86v2.6h-.79v-2.51c0-.7-.26-1.29-1.01-1.29-.52,0-.93.37-1.06.81-.04.1-.05.23-.05.37v2.62h-.79v-3.18Z"/>
      <path class="cls-2" d="M393.63,61.6c-.02.32-.04.67-.04,1.2v2.53c0,1-.2,1.61-.62,1.99-.42.4-1.04.52-1.58.52s-1.1-.13-1.45-.36l.2-.6c.29.18.74.34,1.28.34.81,0,1.41-.42,1.41-1.52v-.49h-.02c-.24.4-.71.73-1.39.73-1.08,0-1.85-.92-1.85-2.12,0-1.48.96-2.31,1.96-2.31.76,0,1.17.4,1.36.76h.02l.04-.66h.69ZM392.81,63.32c0-.14,0-.25-.04-.36-.14-.46-.53-.84-1.11-.84-.76,0-1.3.64-1.3,1.65,0,.85.43,1.57,1.29,1.57.49,0,.93-.31,1.1-.81.04-.13.06-.29.06-.42v-.78Z"/>
      <path class="cls-2" d="M395.35,63.92c.02,1.07.7,1.51,1.49,1.51.57,0,.91-.1,1.21-.22l.14.57c-.28.13-.76.27-1.45.27-1.34,0-2.14-.88-2.14-2.2s.77-2.35,2.04-2.35c1.42,0,1.8,1.25,1.8,2.05,0,.16-.02.29-.03.37h-3.06ZM397.67,63.35c0-.5-.21-1.29-1.1-1.29-.8,0-1.15.74-1.21,1.29h2.31Z"/>
      <path class="cls-2" d="M402.28,60.35v1.25h1.13v.6h-1.13v2.35c0,.54.15.85.59.85.21,0,.36-.03.46-.05l.04.59c-.15.06-.4.11-.7.11-.37,0-.67-.12-.86-.33-.23-.23-.31-.62-.31-1.13v-2.38h-.67v-.6h.67v-1.04l.77-.21Z"/>
      <path class="cls-2" d="M404.67,61.6l.95,2.57c.1.29.21.63.28.89h.02c.08-.26.17-.59.28-.91l.86-2.56h.84l-1.19,3.11c-.57,1.5-.96,2.26-1.5,2.73-.39.34-.77.48-.97.51l-.2-.67c.2-.06.46-.19.69-.39.22-.17.49-.48.67-.88.04-.08.06-.14.06-.19s-.02-.11-.05-.21l-1.61-4.01h.86Z"/>
      <path class="cls-2" d="M408.62,63.02c0-.56-.02-1.01-.04-1.42h.71l.04.75h.02c.32-.53.84-.85,1.55-.85,1.05,0,1.85.89,1.85,2.21,0,1.57-.95,2.34-1.98,2.34-.58,0-1.08-.25-1.34-.68h-.02v2.37h-.78v-4.72ZM409.41,64.18c0,.12.02.22.04.32.14.55.62.93,1.19.93.84,0,1.32-.68,1.32-1.68,0-.87-.46-1.62-1.3-1.62-.54,0-1.04.39-1.2.98-.03.1-.05.22-.05.32v.75Z"/>
      <path class="cls-2" d="M414.19,63.92c.02,1.07.7,1.51,1.49,1.51.57,0,.91-.1,1.21-.22l.14.57c-.28.13-.76.27-1.45.27-1.34,0-2.14-.88-2.14-2.2s.77-2.35,2.04-2.35c1.42,0,1.8,1.25,1.8,2.05,0,.16-.02.29-.03.37h-3.06ZM416.51,63.35c0-.5-.21-1.29-1.1-1.29-.8,0-1.15.74-1.21,1.29h2.31Z"/>
      <path class="cls-2" d="M421.12,60.35v1.25h1.13v.6h-1.13v2.35c0,.54.15.85.59.85.21,0,.36-.03.46-.05l.04.59c-.15.06-.4.11-.7.11-.37,0-.67-.12-.86-.33-.23-.23-.31-.62-.31-1.13v-2.38h-.67v-.6h.67v-1.04l.77-.21Z"/>
      <path class="cls-2" d="M427.03,63.74c0,1.61-1.12,2.31-2.17,2.31-1.18,0-2.09-.86-2.09-2.24,0-1.46.95-2.31,2.16-2.31s2.1.91,2.1,2.24ZM423.57,63.79c0,.95.55,1.67,1.32,1.67s1.32-.71,1.32-1.69c0-.74-.37-1.67-1.31-1.67s-1.34.86-1.34,1.69Z"/>
      <path class="cls-2" d="M379.06,73.58c0-.45,0-.82-.04-1.18h.69l.04.7h.03c.24-.41.65-.8,1.37-.8.59,0,1.04.36,1.23.87h.02c.13-.24.31-.43.49-.57.26-.2.55-.31.96-.31.58,0,1.43.38,1.43,1.89v2.57h-.77v-2.47c0-.84-.31-1.34-.95-1.34-.45,0-.8.33-.94.72-.04.11-.06.25-.06.4v2.69h-.77v-2.61c0-.69-.31-1.2-.91-1.2-.5,0-.86.4-.98.79-.04.12-.06.25-.06.39v2.63h-.77v-3.18Z"/>
      <path class="cls-2" d="M390.21,75.57c0,.45,0,.85.04,1.19h-.7l-.04-.71h-.02c-.21.35-.67.81-1.44.81-.68,0-1.5-.38-1.5-1.91v-2.55h.79v2.41c0,.83.25,1.39.97,1.39.53,0,.9-.37,1.04-.72.04-.12.07-.26.07-.41v-2.67h.79v3.17Z"/>
      <path class="cls-2" d="M391.52,70.36h.79v6.39h-.79v-6.39Z"/>
      <path class="cls-2" d="M394.6,71.15v1.25h1.13v.6h-1.13v2.35c0,.54.15.85.59.85.21,0,.36-.03.46-.05l.04.59c-.15.06-.4.11-.7.11-.37,0-.67-.12-.86-.33-.23-.23-.31-.62-.31-1.13v-2.38h-.67v-.6h.67v-1.04l.77-.21Z"/>
      <path class="cls-2" d="M397.5,71.17c0,.27-.19.49-.5.49-.28,0-.48-.22-.48-.49s.21-.5.5-.5.49.22.49.5ZM396.62,76.76v-4.36h.79v4.36h-.79Z"/>
      <path class="cls-2" d="M400.57,74.03v.59h-2.22v-.59h2.22Z"/>
      <path class="cls-2" d="M401.38,75.95c.23.15.65.32,1.04.32.58,0,.85-.29.85-.65s-.22-.58-.81-.8c-.78-.28-1.15-.71-1.15-1.23,0-.7.57-1.28,1.5-1.28.44,0,.83.13,1.07.27l-.2.58c-.17-.11-.49-.25-.89-.25-.47,0-.73.27-.73.59,0,.36.26.52.83.74.76.29,1.14.67,1.14,1.31,0,.77-.59,1.31-1.63,1.31-.48,0-.92-.12-1.22-.3l.2-.6Z"/>
      <path class="cls-2" d="M409,74.54c0,1.61-1.12,2.31-2.17,2.31-1.18,0-2.09-.86-2.09-2.24,0-1.46.96-2.31,2.16-2.31s2.1.91,2.1,2.24ZM405.54,74.59c0,.95.55,1.67,1.32,1.67s1.32-.71,1.32-1.69c0-.74-.37-1.67-1.31-1.67s-1.34.86-1.34,1.69Z"/>
      <path class="cls-2" d="M410,70.36h.79v6.39h-.79v-6.39Z"/>
      <path class="cls-2" d="M413,71.17c0,.27-.19.49-.5.49-.28,0-.48-.22-.48-.49s.21-.5.5-.5.49.22.49.5ZM412.12,76.76v-4.36h.79v4.36h-.79Z"/>
      <path class="cls-2" d="M417.99,70.36v5.27c0,.39,0,.83.04,1.13h-.71l-.04-.76h-.02c-.24.49-.77.86-1.49.86-1.05,0-1.86-.89-1.86-2.21,0-1.45.89-2.34,1.95-2.34.67,0,1.12.32,1.31.67h.02v-2.6h.79ZM417.2,74.17c0-.1,0-.23-.04-.33-.12-.5-.55-.92-1.14-.92-.82,0-1.3.72-1.3,1.68,0,.88.43,1.61,1.29,1.61.53,0,1.02-.35,1.16-.95.03-.11.04-.22.04-.34v-.76Z"/>
    </g>
  </g>
  <g>
    <g>
      <rect class="cls-4" x="513.61" y="89.52" width="64.89" height="60.18"/>
      <polyline class="cls-4" points="512.56 89.52 512.56 89.52 513.34 149.96 501.6 167.04 502.36 105.48 513.61 89.52"/>
      <line class="cls-8" x1="578.76" y1="89.78" x2="513.34" y2="89.78"/>
      <line class="cls-8" x1="566.72" y1="105.48" x2="578.76" y2="89.78"/>
      <line class="cls-8" x1="568.82" y1="168.28" x2="579.28" y2="150.48"/>
      <line class="cls-8" x1="578.76" y1="89.78" x2="578.76" y2="150.48"/>
      <line class="cls-9" x1="513.34" y1="89.78" x2="513.34" y2="149.96"/>
      <line class="cls-8" x1="502.23" y1="105.19" x2="514.27" y2="89.49"/>
      <line class="cls-9" x1="578.76" y1="149.96" x2="512.3" y2="149.96"/>
      <polyline class="cls-9" points="513.34 149.96 502.88 166.18 513.34 149.96"/>
      <polygon class="cls-4" points="513.34 89.78 502.92 105.25 567.58 105.64 578.9 89.23 513.34 89.78"/>
      <polyline class="cls-4" points="502.16 166.87 513.34 149.96 578.76 150.48 568.29 166.71"/>
      <polygon class="cls-4" points="567.58 105.64 578.35 90.26 577.8 151.8 567.25 166.98 567.58 105.64"/>
      <g>
        <circle class="cls-2" cx="513.21" cy="89.12" r="4.06"/>
        <path class="cls-5" d="M514.15,89.33h-1.37v1.27h1.53v.38h-1.98v-3.53h1.91v.38h-1.45v1.12h1.37v.38Z"/>
      </g>
      <g>
        <circle class="cls-2" cx="578.57" cy="150.13" r="4.06"/>
        <path class="cls-5" d="M577.8,148.62v1.33h1.54v-1.33h.42v3.18h-.42v-1.49h-1.54v1.49h-.41v-3.18h.41Z"/>
      </g>
      <g>
        <circle class="cls-2" cx="512.63" cy="150.13" r="4.06"/>
        <path class="cls-5" d="M511.75,148.46h1.9v.38h-1.44v1.17h1.33v.38h-1.33v1.6h-.46v-3.53Z"/>
      </g>
      <g>
        <circle class="cls-2" cx="578.04" cy="88.9" r="4.06"/>
        <path class="cls-5" d="M579.3,90.43c-.19.07-.55.17-.98.17-.48,0-.88-.12-1.19-.42-.27-.26-.44-.69-.44-1.18,0-.95.65-1.64,1.72-1.64.37,0,.65.08.79.15l-.1.33c-.17-.08-.38-.14-.7-.14-.77,0-1.28.48-1.28,1.28s.48,1.28,1.22,1.28c.27,0,.45-.04.55-.08v-.95h-.64v-.33h1.05v1.53Z"/>
      </g>
      <rect class="cls-4" x="503.14" y="106.26" width="64.89" height="60.18"/>
      <rect class="cls-8" x="502.36" y="105.48" width="65.94" height="61.23"/>
      <g>
        <circle class="cls-2" cx="502.75" cy="105.87" r="4.06"/>
        <path class="cls-5" d="M502.11,106.62l-.37,1.11h-.47l1.2-3.53h.55l1.2,3.53h-.49l-.38-1.11h-1.25ZM503.27,106.26l-.35-1.01c-.08-.23-.13-.44-.18-.64h0c-.05.21-.11.42-.18.64l-.35,1.02h1.06Z"/>
      </g>
      <g>
        <circle class="cls-2" cx="568.1" cy="166.87" r="4.06"/>
        <path class="cls-5" d="M569.45,168.62c-.17.08-.5.17-.93.17-1,0-1.74-.63-1.74-1.79s.75-1.85,1.84-1.85c.44,0,.72.09.84.16l-.11.37c-.17-.08-.42-.15-.71-.15-.83,0-1.38.53-1.38,1.46,0,.86.5,1.42,1.36,1.42.28,0,.56-.06.74-.15l.1.36Z"/>
      </g>
      <g>
        <circle class="cls-2" cx="502.16" cy="166.87" r="4.06"/>
        <path class="cls-5" d="M501.14,165.25c.2-.04.51-.07.83-.07.46,0,.75.08.97.26.18.14.29.34.29.62,0,.34-.22.64-.6.78h0c.34.09.73.37.73.89,0,.3-.12.53-.3.71-.25.22-.64.33-1.22.33-.31,0-.55-.02-.71-.04v-3.47ZM501.6,166.69h.41c.48,0,.76-.25.76-.59,0-.41-.31-.58-.78-.58-.21,0-.33.02-.4.03v1.14ZM501.6,168.38c.09.02.22.02.38.02.47,0,.9-.17.9-.69,0-.48-.41-.68-.91-.68h-.38v1.34Z"/>
      </g>
      <g>
        <circle class="cls-2" cx="567.58" cy="105.64" r="4.06"/>
        <path class="cls-5" d="M566.37,104.18c.25-.04.55-.07.87-.07.59,0,1.01.14,1.29.4.28.26.45.63.45,1.14s-.16.94-.46,1.24c-.3.3-.79.46-1.4.46-.29,0-.54-.01-.75-.04v-3.13ZM566.78,106.99c.1.02.26.02.42.02.88,0,1.35-.49,1.35-1.35,0-.75-.42-1.23-1.29-1.23-.21,0-.37.02-.48.04v2.51Z"/>
      </g>
    </g>
    <g>
      <rect class="cls-4" x="602.83" y="57.97" width="70.04" height="64.96"/>
      <polyline class="cls-4" points="601.7 57.97 601.7 57.97 602.55 123.21 589.87 141.65 590.69 75.2 602.83 57.97"/>
      <line class="cls-8" x1="673.15" y1="58.26" x2="602.55" y2="58.26"/>
      <line class="cls-8" x1="660.16" y1="75.2" x2="673.15" y2="58.26"/>
      <line class="cls-8" x1="662.42" y1="142.98" x2="673.72" y2="123.78"/>
      <line class="cls-8" x1="673.15" y1="58.26" x2="673.15" y2="123.78"/>
      <line class="cls-9" x1="602.55" y1="58.26" x2="602.55" y2="123.21"/>
      <line class="cls-8" x1="590.55" y1="74.89" x2="603.54" y2="57.94"/>
      <line class="cls-9" x1="673.15" y1="123.21" x2="601.42" y2="123.21"/>
      <polyline class="cls-9" points="602.55 123.21 591.25 140.72 602.55 123.21"/>
      <polygon class="cls-3" points="602.55 58.26 591.3 74.95 661.08 75.38 673.3 57.67 602.55 58.26"/>
      <polyline class="cls-3" points="590.48 141.47 602.55 123.21 673.15 123.78 661.85 141.29"/>
      <polygon class="cls-3" points="661.08 75.38 672.71 58.78 672.12 125.2 660.73 141.59 661.08 75.38"/>
      <g>
        <circle class="cls-2" cx="601.77" cy="123.39" r="4.38"/>
        <path class="cls-5" d="M600.69,124.91v-2.88h.41l.92,1.46c.21.34.38.64.52.94h0c-.03-.39-.04-.74-.04-1.19v-1.21h.35v2.88h-.38l-.91-1.46c-.2-.32-.39-.65-.54-.96h-.01c.02.37.03.71.03,1.19v1.23h-.35Z"/>
      </g>
      <g>
        <circle class="cls-2" cx="602.41" cy="57.55" r="4.38"/>
        <path class="cls-5" d="M603.44,57.8c-.02-.4-.05-.88-.04-1.24h-.01c-.1.34-.22.7-.36,1.09l-.51,1.4h-.28l-.46-1.37c-.14-.41-.25-.78-.33-1.12h0c0,.36-.03.84-.05,1.27l-.08,1.23h-.35l.2-2.88h.47l.49,1.39c.12.36.22.67.29.97h.01c.07-.29.18-.61.3-.97l.51-1.39h.47l.18,2.88h-.36l-.07-1.26Z"/>
      </g>
      <g>
        <circle class="cls-2" cx="672.94" cy="123.39" r="4.38"/>
        <path class="cls-5" d="M674.25,123.44c0,.99-.6,1.52-1.34,1.52s-1.29-.59-1.29-1.46c0-.91.57-1.51,1.34-1.51s1.29.6,1.29,1.46ZM672.02,123.49c0,.62.33,1.17.92,1.17s.92-.54.92-1.2c0-.57-.3-1.17-.92-1.17s-.92.57-.92,1.2Z"/>
      </g>
      <g>
        <circle class="cls-2" cx="672.38" cy="57.31" r="4.38"/>
        <path class="cls-5" d="M671.41,55.73c.21-.04.49-.07.85-.07.44,0,.76.1.96.28.19.16.3.41.3.72s-.09.55-.27.73c-.23.25-.61.38-1.05.38-.13,0-.25,0-.36-.03v1.37h-.44v-3.38ZM671.85,57.38c.1.03.22.04.37.04.53,0,.86-.26.86-.73s-.32-.67-.81-.67c-.19,0-.34.02-.42.04v1.33Z"/>
      </g>
      <rect class="cls-3" x="591.53" y="76.05" width="70.04" height="64.96"/>
      <rect class="cls-8" x="590.69" y="75.2" width="71.17" height="66.09"/>
      <g>
        <circle class="cls-2" cx="591.11" cy="75.62" r="4.38"/>
        <path class="cls-5" d="M591.33,73.98v3.47h-.45v-3.47h.45Z"/>
      </g>
      <g>
        <circle class="cls-2" cx="661.65" cy="141.47" r="4.38"/>
        <path class="cls-5" d="M660.54,139.67h.49v1.83h.02c.1-.15.2-.28.3-.41l1.16-1.43h.61l-1.38,1.62,1.48,2.19h-.58l-1.25-1.87-.36.42v1.45h-.49v-3.81Z"/>
      </g>
      <g>
        <circle class="cls-2" cx="590.48" cy="141.47" r="4.38"/>
        <path class="cls-5" d="M590.64,139.67h.49v2.55c0,1.01-.5,1.32-1.15,1.32-.18,0-.4-.04-.53-.09l.07-.4c.1.04.25.07.41.07.44,0,.7-.2.7-.94v-2.51Z"/>
      </g>
      <g>
        <circle class="cls-2" cx="661.08" cy="75.38" r="4.38"/>
        <path class="cls-5" d="M660.27,73.76h.44v3.05h1.46v.37h-1.91v-3.42Z"/>
      </g>
    </g>
  </g>
  <g>
    <g>
      <line class="cls-10" x1="205.99" y1="103.6" x2="327.68" y2="102.73"/>
      <g>
        <line class="cls-6" x1="205.99" y1="103.6" x2="307.34" y2="102.88"/>
        <polygon class="cls-10" points="303.31 117.04 327.68 102.73 303.11 88.77 303.31 117.04"/>
      </g>
    </g>
    <g>
      <rect class="cls-7" x="208.89" y="94.97" width="95.07" height="30.77" transform="translate(-.78 1.82) rotate(-.41)"/>
      <path class="cls-2" d="M216.44,95.57l.02,3.59c0,1.36.59,1.93,1.36,1.93.86,0,1.4-.61,1.39-1.95l-.02-3.59h.75s.02,3.53.02,3.53c.01,1.86-.92,2.63-2.17,2.64-1.18,0-2.08-.7-2.09-2.58l-.02-3.57h.75Z"/>
      <path class="cls-2" d="M221.08,100.8c.22.15.62.31,1,.31.55,0,.8-.29.8-.65,0-.38-.22-.58-.78-.79-.75-.27-1.1-.71-1.1-1.23,0-.7.53-1.28,1.42-1.29.42,0,.79.12,1.02.26l-.19.58c-.16-.11-.46-.25-.85-.25-.45,0-.69.28-.69.6,0,.36.25.52.79.73.72.28,1.09.66,1.1,1.3,0,.77-.56,1.31-1.54,1.32-.45,0-.87-.11-1.17-.29l.18-.61Z"/>
      <path class="cls-2" d="M224.99,99.54c.02,1.07.68,1.51,1.43,1.5.54,0,.86-.1,1.15-.23l.13.57c-.26.13-.72.28-1.38.28-1.28,0-2.04-.87-2.05-2.18,0-1.31.72-2.36,1.93-2.36,1.35,0,1.72,1.24,1.72,2.04,0,.16-.02.29-.02.37l-2.91.02ZM227.19,98.96c0-.5-.21-1.29-1.05-1.28-.76,0-1.09.74-1.15,1.29l2.2-.02Z"/>
      <path class="cls-2" d="M228.85,98.55c0-.51-.01-.96-.04-1.36h.66s.03.85.03.85h.03c.18-.59.64-.96,1.14-.96.09,0,.15,0,.21.02v.75c-.07-.02-.15-.03-.25-.03-.53,0-.91.43-1,1.03-.02.11-.03.23-.03.37l.02,2.32h-.75s-.02-2.99-.02-2.99Z"/>
      <path class="cls-2" d="M233.46,98.52c0-.51-.01-.95-.04-1.36h.66s.03.85.03.85h.03c.18-.59.64-.96,1.14-.96.09,0,.15,0,.21.03v.75c-.07-.02-.15-.03-.25-.03-.53,0-.9.43-1,1.02-.02.11-.03.23-.03.37v2.32s-.73,0-.73,0l-.02-3Z"/>
      <path class="cls-2" d="M236.6,99.46c.02,1.07.68,1.51,1.43,1.5.54,0,.86-.1,1.15-.23l.13.57c-.26.13-.72.28-1.38.28-1.28,0-2.04-.87-2.05-2.18,0-1.31.72-2.36,1.93-2.36,1.35,0,1.72,1.24,1.72,2.04,0,.16-.01.29-.02.37l-2.91.02ZM238.8,98.88c0-.5-.21-1.29-1.05-1.28-.76,0-1.09.74-1.15,1.29l2.2-.02Z"/>
      <path class="cls-2" d="M243.3,100.78h-.02c-.22.43-.68.78-1.35.78-.97,0-1.76-.87-1.77-2.19-.01-1.63.99-2.36,1.86-2.36.64,0,1.07.32,1.28.75h.02l.02-.66h.71c-.01.37-.02.74-.02,1.19l.03,4.94h-.75s-.02-2.45-.02-2.45ZM243.29,98.86c0-.11,0-.23-.04-.33-.11-.49-.52-.9-1.08-.89-.78,0-1.25.7-1.24,1.68,0,.86.41,1.62,1.24,1.61.49,0,.91-.32,1.07-.87.03-.11.06-.26.06-.38v-.82Z"/>
      <path class="cls-2" d="M248.75,100.22c0,.45.01.85.04,1.19h-.67s-.05-.71-.05-.71h-.02c-.19.35-.63.81-1.36.82-.65,0-1.43-.37-1.44-1.9l-.02-2.55h.75s.02,2.41.02,2.41c0,.83.25,1.38.93,1.38.5,0,.85-.38.99-.73.04-.12.07-.26.07-.41l-.02-2.67h.75s.02,3.16.02,3.16Z"/>
      <path class="cls-2" d="M250.81,95.81c.01.27-.18.49-.48.49-.27,0-.46-.21-.46-.48,0-.28.19-.5.47-.5.28,0,.46.21.46.49ZM250.01,101.4l-.03-4.36h.75s.03,4.35.03,4.35h-.75Z"/>
      <path class="cls-2" d="M251.99,98.39c0-.51-.01-.96-.04-1.36h.66s.03.85.03.85h.03c.18-.59.64-.96,1.14-.96.08,0,.15,0,.21.02v.75c-.07-.02-.15-.03-.25-.03-.53,0-.91.43-1,1.03-.02.11-.03.23-.03.37v2.32s-.73,0-.73,0l-.02-3Z"/>
      <path class="cls-2" d="M255.13,99.33c.02,1.07.68,1.51,1.43,1.5.54,0,.86-.11,1.15-.23l.13.57c-.26.13-.72.27-1.38.28-1.28,0-2.04-.87-2.05-2.18,0-1.31.72-2.36,1.93-2.36,1.35,0,1.72,1.24,1.72,2.04,0,.16-.02.29-.02.37l-2.91.02ZM257.33,98.75c0-.51-.21-1.29-1.05-1.28-.76,0-1.09.75-1.15,1.3l2.2-.02Z"/>
      <path class="cls-2" d="M258.99,98.16c0-.45-.01-.82-.04-1.18h.66s.04.7.04.7h.03c.23-.42.61-.81,1.3-.81.56,0,.99.35,1.18.87h.02c.13-.24.29-.44.46-.57.25-.2.52-.31.91-.31.55,0,1.36.37,1.37,1.88l.02,2.56h-.74s-.02-2.46-.02-2.46c0-.84-.3-1.34-.91-1.34-.43,0-.76.34-.89.73-.03.11-.06.25-.06.4l.02,2.69h-.74s-.02-2.6-.02-2.6c0-.69-.3-1.2-.87-1.19-.47,0-.81.4-.93.8-.04.12-.06.25-.06.39l.02,2.63h-.74s-.02-3.17-.02-3.17Z"/>
      <path class="cls-2" d="M266.55,99.25c.02,1.07.68,1.51,1.43,1.5.54,0,.86-.1,1.14-.23l.13.57c-.26.13-.72.28-1.38.28-1.28,0-2.04-.87-2.05-2.18,0-1.31.72-2.35,1.93-2.36,1.35,0,1.72,1.24,1.72,2.04,0,.16-.02.29-.02.37l-2.91.02ZM268.76,98.67c0-.5-.21-1.29-1.05-1.28-.76,0-1.09.74-1.15,1.29l2.2-.02Z"/>
      <path class="cls-2" d="M270.41,98.08c0-.45-.01-.82-.04-1.18h.67s.05.72.05.72h.02c.2-.42.68-.82,1.36-.83.57,0,1.47.35,1.48,1.84l.02,2.6h-.75s-.02-2.51-.02-2.51c0-.7-.26-1.29-.97-1.28-.5,0-.88.38-1,.82-.03.1-.05.23-.05.37l.02,2.62h-.75s-.02-3.17-.02-3.17Z"/>
      <path class="cls-2" d="M276.02,95.61v1.25s1.09,0,1.09,0v.6s-1.08,0-1.08,0l.02,2.35c0,.54.15.84.57.84.2,0,.34-.03.44-.06l.04.6c-.15.06-.38.11-.67.11-.35,0-.63-.11-.82-.33-.21-.23-.29-.62-.3-1.13l-.02-2.38h-.64s0-.6,0-.6h.64s0-1.05,0-1.05l.73-.21Z"/>
      <path class="cls-2" d="M280.66,95.58v1.25s1.09,0,1.09,0v.6s-1.08,0-1.08,0l.02,2.35c0,.54.15.84.57.84.2,0,.34-.03.44-.06l.04.59c-.15.06-.38.11-.67.11-.35,0-.63-.11-.82-.33-.21-.23-.29-.62-.3-1.13l-.02-2.38h-.64s0-.6,0-.6h.64s0-1.05,0-1.05l.73-.21Z"/>
      <path class="cls-2" d="M286.31,98.93c0,1.61-1.05,2.32-2.05,2.33-1.12,0-1.99-.85-2-2.23,0-1.46.89-2.32,2.04-2.33,1.19,0,2,.89,2.01,2.23ZM283.02,99c0,.96.53,1.67,1.27,1.67.72,0,1.25-.72,1.25-1.7,0-.74-.36-1.67-1.25-1.67-.89,0-1.27.87-1.26,1.7Z"/>
      <path class="cls-2" d="M289.05,101.12c.01-.3.03-.74.03-1.12l-.03-5.27h.75s.02,2.73.02,2.73h.02c.26-.49.74-.81,1.41-.81,1.03,0,1.76.89,1.76,2.21.01,1.56-.92,2.34-1.84,2.34-.6,0-1.08-.23-1.39-.81h-.03l-.03.72h-.65ZM289.82,99.38c0,.1.02.2.04.29.15.55.59.92,1.14.92.79,0,1.25-.68,1.25-1.68,0-.87-.44-1.62-1.24-1.61-.51,0-.99.38-1.14.98-.02.09-.04.2-.04.33v.78Z"/>
      <path class="cls-2" d="M294.36,99.05c.02,1.07.68,1.51,1.43,1.5.54,0,.86-.1,1.15-.23l.13.57c-.26.13-.72.28-1.38.28-1.28,0-2.04-.87-2.05-2.18,0-1.31.72-2.35,1.93-2.36,1.35,0,1.72,1.24,1.72,2.04,0,.16-.02.29-.02.37l-2.91.02ZM296.56,98.47c0-.5-.21-1.29-1.05-1.28-.76,0-1.09.74-1.15,1.29l2.2-.02Z"/>
      <path class="cls-2" d="M236.79,107.94l.56,2.21c.12.48.24.93.32,1.38h.03c.09-.44.23-.91.36-1.38l.66-2.23h.63s.66,2.17.66,2.17c.16.52.28.98.38,1.42h.03c.07-.44.17-.9.31-1.42l.58-2.19h.74s-1.31,4.36-1.31,4.36h-.68s-.65-2.07-.65-2.07c-.15-.48-.27-.92-.38-1.43h-.02c-.1.52-.22.97-.37,1.44l-.65,2.08h-.69s-1.28-4.34-1.28-4.34h.77Z"/>
      <path class="cls-2" d="M245.07,112.24l-.06-.55h-.03c-.23.34-.67.65-1.26.66-.84,0-1.27-.61-1.27-1.24,0-1.05.88-1.63,2.48-1.64v-.09c0-.36-.1-1.01-.95-1-.38,0-.79.13-1.08.33l-.17-.52c.34-.24.84-.39,1.36-.4,1.27,0,1.58.9,1.59,1.77v1.63c.01.38.03.75.09,1.04h-.68ZM244.94,110.02c-.82-.01-1.75.15-1.75.99,0,.51.33.75.71.75.54,0,.88-.37,1-.74.03-.08.04-.17.04-.25v-.76Z"/>
      <path class="cls-2" d="M247.74,106.61v1.25s1.09,0,1.09,0v.6s-1.08,0-1.08,0l.02,2.35c0,.54.15.85.57.84.2,0,.34-.03.44-.06l.04.59c-.14.06-.38.11-.67.11-.35,0-.63-.11-.82-.33-.21-.23-.29-.62-.3-1.13l-.02-2.38h-.64s0-.6,0-.6h.64s0-1.05,0-1.05l.74-.21Z"/>
      <path class="cls-2" d="M250.05,110.17c.02,1.07.68,1.51,1.43,1.5.54,0,.86-.11,1.15-.23l.13.57c-.26.13-.72.28-1.38.28-1.28,0-2.04-.87-2.05-2.18,0-1.31.72-2.36,1.93-2.36,1.35,0,1.72,1.24,1.73,2.04,0,.16-.02.29-.02.37l-2.91.02ZM252.26,109.59c0-.5-.21-1.29-1.05-1.28-.76,0-1.09.75-1.15,1.3l2.2-.02Z"/>
      <path class="cls-2" d="M253.91,109.18c0-.51-.01-.96-.04-1.36h.66s.03.85.03.85h.03c.18-.59.64-.96,1.14-.96.08,0,.15,0,.21.02v.75c-.07-.02-.15-.03-.25-.03-.53,0-.91.43-1,1.03-.02.11-.03.23-.03.37v2.32s-.73,0-.73,0l-.02-3Z"/>
      <path class="cls-2" d="M257.81,106.54v1.25s1.09,0,1.09,0v.6s-1.08,0-1.08,0l.02,2.35c0,.54.15.85.57.84.2,0,.34-.03.44-.06l.04.6c-.15.06-.38.11-.67.11-.35,0-.63-.11-.82-.33-.21-.23-.29-.62-.3-1.13l-.02-2.38h-.64s0-.6,0-.6h.64s0-1.05,0-1.05l.74-.21Z"/>
      <path class="cls-2" d="M260.57,106.54c.01.27-.18.49-.48.49-.27,0-.46-.21-.46-.48,0-.28.19-.5.47-.5.28,0,.46.21.46.49ZM259.77,112.13l-.03-4.36h.75s.03,4.35.03,4.35h-.75Z"/>
      <path class="cls-2" d="M265.31,107.74c-.01.32-.03.67-.03,1.2l.02,2.53c0,1-.18,1.61-.58,1.99-.4.4-.98.53-1.5.53-.5,0-1.05-.12-1.38-.35l.18-.61c.28.18.7.34,1.22.33.77,0,1.33-.43,1.33-1.53v-.49h-.02c-.23.41-.67.73-1.31.74-1.03,0-1.77-.91-1.78-2.11,0-1.48.9-2.32,1.85-2.33.72,0,1.12.39,1.3.75h.02l.03-.66h.66ZM264.54,109.46c0-.13,0-.25-.04-.36-.14-.46-.51-.83-1.06-.83-.72,0-1.23.65-1.22,1.66,0,.86.42,1.56,1.23,1.56.46,0,.88-.31,1.04-.82.04-.13.06-.29.06-.42v-.78Z"/>
      <path class="cls-2" d="M266.51,105.69h.75s.02,2.71.02,2.71h.02c.12-.23.3-.43.54-.56.22-.14.49-.23.77-.23.56,0,1.45.35,1.46,1.85l.02,2.59h-.75s-.02-2.5-.02-2.5c0-.7-.26-1.29-.97-1.29-.49,0-.87.37-1,.8-.04.11-.05.23-.05.38l.02,2.63h-.75s-.04-6.39-.04-6.39Z"/>
      <path class="cls-2" d="M272.14,106.44v1.25s1.09,0,1.09,0v.6s-1.08,0-1.08,0l.02,2.35c0,.54.15.85.57.84.2,0,.34-.03.44-.06l.04.6c-.15.06-.38.11-.67.11-.35,0-.63-.11-.82-.33-.21-.23-.29-.62-.3-1.13l-.02-2.38h-.64s0-.6,0-.6h.64s0-1.05,0-1.05l.74-.21Z"/>
      <path class="cls-2" d="M274.67,110.31l-.02-.23c-.05-.48.1-1.02.52-1.56.38-.48.59-.83.59-1.24,0-.46-.28-.76-.82-.77-.31,0-.65.11-.86.29l-.21-.57c.28-.22.77-.37,1.22-.37.98,0,1.43.63,1.44,1.31,0,.61-.32,1.05-.73,1.57-.37.47-.51.87-.48,1.33v.23s-.66,0-.66,0ZM274.49,111.57c0-.33.21-.57.51-.57s.51.23.51.56c0,.32-.19.56-.51.56-.3,0-.51-.24-.51-.55Z"/>
    </g>
  </g>
  <g>
    <rect class="cls-7" x="275.25" y="34.16" width="45.04" height="70.6"/>
    <path class="cls-1" d="M283.46,50.43l4.97,7.49c1.3,1.94,2.38,3.74,3.53,5.69h.22c1.15-2.09,2.3-3.89,3.46-5.76l4.9-7.42h6.84l-11.88,16.85,12.24,18h-7.2l-5.11-7.85c-1.37-2.02-2.52-3.96-3.74-6.05h-.14c-1.15,2.09-2.38,3.96-3.67,6.05l-5.04,7.85h-6.98l12.38-17.79-11.81-17.07h7.06Z"/>
  </g>
  <path class="cls-11" d="M325.47,136.48l6.84,19.58c1.15,3.17,2.09,6.05,2.81,8.93h.22c.79-2.88,1.8-5.76,2.95-8.93l6.77-19.58h6.62l-13.68,34.85h-6.05l-13.25-34.85h6.77Z"/>
</svg>