<?xml version="1.0" encoding="UTF-8"?>
<svg id="Shell" xmlns="http://www.w3.org/2000/svg" viewBox="0 0 721.58 427.6">
  <defs>
    <style>
      .cls-1, .cls-2, .cls-3, .cls-4, .cls-5, .cls-6, .cls-7, .cls-8, .cls-9, .cls-10, .cls-11, .cls-12 {
        font-family: MyriadPro-Regular, 'Myriad Pro';
      }

      .cls-1, .cls-2, .cls-3, .cls-4, .cls-7, .cls-8, .cls-9, .cls-12 {
        fill: #fff;
      }

      .cls-1, .cls-10, .cls-11 {
        font-size: 9px;
      }

      .cls-2 {
        font-size: 4px;
      }

      .cls-3 {
        font-size: 7.45px;
      }

      .cls-13 {
        letter-spacing: 0em;
      }

      .cls-4 {
        font-size: 6.4px;
      }

      .cls-14 {
        fill: #437898;
        opacity: .41;
      }

      .cls-15, .cls-10 {
        fill: #231f20;
      }

      .cls-16 {
        stroke-width: 2px;
      }

      .cls-16, .cls-17, .cls-18, .cls-19 {
        fill: none;
        stroke-miterlimit: 10;
      }

      .cls-16, .cls-18, .cls-19 {
        stroke: #437898;
      }

      .cls-20 {
        letter-spacing: 0em;
      }

      .cls-21 {
        letter-spacing: 0em;
      }

      .cls-22 {
        fill: #6dbae7;
        opacity: .31;
      }

      .cls-17 {
        stroke: #9b9a9a;
      }

      .cls-17, .cls-18, .cls-19 {
        stroke-width: 2.83px;
      }

      .cls-23 {
        letter-spacing: -.01em;
      }

      .cls-24, .cls-11 {
        fill: #9b9a9a;
      }

      .cls-5 {
        fill: #39b54a;
      }

      .cls-5, .cls-6 {
        font-size: 72px;
      }

      .cls-6 {
        fill: #c92027;
      }

      .cls-7 {
        font-size: 5px;
      }

      .cls-25 {
        letter-spacing: .03em;
      }

      .cls-8 {
        font-size: 10px;
      }

      .cls-9 {
        font-size: 5.76px;
      }

      .cls-26 {
        letter-spacing: .03em;
      }

      .cls-27 {
        letter-spacing: 0em;
      }

      .cls-28 {
        letter-spacing: .02em;
      }

      .cls-29 {
        letter-spacing: -.01em;
      }

      .cls-30 {
        letter-spacing: 0em;
      }

      .cls-31 {
        letter-spacing: 0em;
      }

      .cls-12 {
        font-size: 6.7px;
      }

      .cls-32 {
        letter-spacing: 0em;
      }

      .cls-33 {
        letter-spacing: 0em;
      }

      .cls-19 {
        stroke-dasharray: 5.67;
      }

      .cls-34 {
        letter-spacing: 0em;
      }

      .cls-35 {
        letter-spacing: 0em;
      }
    </style>
  </defs>
  <g>
    <rect class="cls-22" x="56.59" y="44.57" width="124" height="115"/>
    <polyline class="cls-22" points="54.59 44.57 54.59 44.57 56.09 160.07 33.64 192.71 35.09 75.07 56.59 44.57"/>
    <line class="cls-18" x1="181.09" y1="45.07" x2="56.09" y2="45.07"/>
    <line class="cls-18" x1="158.09" y1="75.07" x2="181.09" y2="45.07"/>
    <line class="cls-18" x1="162.09" y1="195.07" x2="182.09" y2="161.07"/>
    <line class="cls-18" x1="181.09" y1="45.07" x2="181.09" y2="161.07"/>
    <line class="cls-19" x1="56.09" y1="45.07" x2="56.09" y2="160.07"/>
    <line class="cls-18" x1="34.85" y1="74.51" x2="57.85" y2="44.51"/>
    <line class="cls-19" x1="181.09" y1="160.07" x2="54.09" y2="160.07"/>
    <polyline class="cls-19" points="56.09 160.07 36.09 191.07 56.09 160.07"/>
    <polygon class="cls-22" points="56.09 45.07 36.18 74.63 159.72 75.39 181.35 44.02 56.09 45.07"/>
    <polyline class="cls-22" points="34.72 192.39 56.09 160.07 181.09 161.07 161.09 192.07"/>
    <polygon class="cls-22" points="159.72 75.39 180.31 46 179.26 163.58 159.1 192.6 159.72 75.39"/>
    <polygon class="cls-22" points="180.59 44.57 199.22 11.8 219.89 52.01 180.59 44.57"/>
    <polyline class="cls-22" points="162.09 195.07 182.98 163.58 214.54 186.07 161.09 192.07"/>
    <polygon class="cls-16" points="180.59 44.57 199.22 11.8 219 49.25 180.59 44.57"/>
    <polygon class="cls-16" points="161.09 192.07 182.09 161.07 212.67 186.1 161.09 192.07"/>
    <circle class="cls-15" cx="55.84" cy="43.82" r="7.75"/>
    <text class="cls-8" transform="translate(53.38 47.37)"><tspan x="0" y="0">E</tspan></text>
    <circle class="cls-15" cx="180.72" cy="160.39" r="7.75"/>
    <text class="cls-1" transform="translate(177.79 163.58)"><tspan x="0" y="0">H</tspan></text>
    <circle class="cls-15" cx="54.72" cy="160.39" r="7.75"/>
    <text class="cls-8" transform="translate(52.29 163.94)"><tspan x="0" y="0">F</tspan></text>
    <circle class="cls-15" cx="179.72" cy="43.39" r="7.75"/>
    <text class="cls-1" transform="translate(176.82 46.58)"><tspan x="0" y="0">G</tspan></text>
    <rect class="cls-22" x="36.59" y="76.57" width="124" height="115"/>
    <rect class="cls-18" x="35.09" y="75.07" width="126" height="117"/>
    <circle class="cls-15" cx="35.84" cy="75.82" r="7.75"/>
    <text class="cls-8" transform="translate(32.78 79.37)"><tspan x="0" y="0">A</tspan></text>
    <circle class="cls-15" cx="160.72" cy="192.39" r="7.75"/>
    <text class="cls-8" transform="translate(157.82 195.94)"><tspan x="0" y="0">C</tspan></text>
    <circle class="cls-15" cx="34.72" cy="192.39" r="7.75"/>
    <text class="cls-8" transform="translate(32.01 195.94)"><tspan x="0" y="0">B</tspan></text>
    <circle class="cls-15" cx="159.72" cy="75.39" r="7.75"/>
    <text class="cls-1" transform="translate(156.73 78.58)"><tspan x="0" y="0">D</tspan></text>
    <circle class="cls-15" cx="196.52" cy="12.01" r="7.75"/>
    <text class="cls-1" transform="translate(195.44 15.21)"><tspan x="0" y="0">I</tspan></text>
    <circle class="cls-15" cx="221.52" cy="52.01" r="7.75"/>
    <text class="cls-1" transform="translate(219.85 55.21)"><tspan x="0" y="0">J</tspan></text>
    <circle class="cls-15" cx="215.52" cy="186.01" r="7.75"/>
    <text class="cls-1" transform="translate(213.08 189.21)"><tspan x="0" y="0">K</tspan></text>
  </g>
  <g>
    <polyline class="cls-22" points="138.86 265.94 138.86 265.94 139.82 339.9 125.44 360.8 126.37 285.47 140.14 265.94"/>
    <line class="cls-18" x1="219.86" y1="266.26" x2="139.82" y2="266.26"/>
    <line class="cls-18" x1="205.14" y1="285.47" x2="219.86" y2="266.26"/>
    <line class="cls-18" x1="207.7" y1="362.31" x2="220.5" y2="340.54"/>
    <line class="cls-18" x1="219.86" y1="266.26" x2="219.86" y2="340.54"/>
    <line class="cls-19" x1="139.82" y1="266.26" x2="139.82" y2="339.9"/>
    <line class="cls-18" x1="126.22" y1="285.11" x2="140.95" y2="265.9"/>
    <line class="cls-19" x1="219.86" y1="339.9" x2="138.54" y2="339.9"/>
    <polyline class="cls-19" points="139.82 339.9 127.01 359.75 139.82 339.9"/>
    <polygon class="cls-22" points="139.82 266.26 127.07 285.19 206.18 285.67 220.03 265.59 139.82 266.26"/>
    <polyline class="cls-22" points="126.14 360.59 139.82 339.9 219.86 340.54 207.06 360.39"/>
    <polygon class="cls-22" points="206.18 285.67 219.36 266.85 218.69 342.15 205.78 360.73 206.18 285.67"/>
    <rect class="cls-22" x="140.14" y="265.94" width="79.4" height="73.64"/>
    <circle class="cls-15" cx="139.66" cy="265.46" r="4.96"/>
    <text class="cls-4" transform="translate(138.9 267.73)"><tspan x="0" y="0">I</tspan></text>
    <circle class="cls-15" cx="219.63" cy="340.1" r="4.96"/>
    <text class="cls-2" transform="translate(218.02 341.52)"><tspan x="0" y="0">M</tspan></text>
    <circle class="cls-15" cx="218.99" cy="265.18" r="4.96"/>
    <text class="cls-9" transform="translate(217.92 267.23)"><tspan x="0" y="0">J</tspan></text>
    <circle class="cls-15" cx="138.94" cy="340.1" r="4.96"/>
    <text class="cls-7" transform="translate(137.3 341.88)"><tspan x="0" y="0">N</tspan></text>
    <rect class="cls-22" x="127.33" y="286.43" width="79.4" height="73.64"/>
    <rect class="cls-18" x="126.37" y="285.47" width="80.68" height="74.92"/>
    <circle class="cls-15" cx="206.82" cy="360.59" r="4.96"/>
    <text class="cls-4" transform="translate(205.31 362.86)"><tspan x="0" y="0">L</tspan></text>
    <circle class="cls-15" cx="206.18" cy="285.67" r="4.96"/>
    <text class="cls-9" transform="translate(204.62 287.72)"><tspan x="0" y="0">K</tspan></text>
    <rect class="cls-22" x="47.73" y="286.58" width="79.4" height="73.64"/>
    <polyline class="cls-22" points="46.45 286.58 46.45 286.58 47.41 360.54 33.03 381.44 33.96 306.11 47.73 286.58"/>
    <line class="cls-18" x1="127.45" y1="286.9" x2="47.41" y2="286.9"/>
    <line class="cls-18" x1="112.72" y1="306.11" x2="127.45" y2="286.9"/>
    <line class="cls-18" x1="115.28" y1="382.95" x2="128.09" y2="361.18"/>
    <line class="cls-18" x1="127.45" y1="286.9" x2="127.45" y2="361.18"/>
    <line class="cls-19" x1="47.41" y1="286.9" x2="47.41" y2="360.54"/>
    <line class="cls-18" x1="33.81" y1="305.75" x2="48.53" y2="286.54"/>
    <line class="cls-19" x1="127.45" y1="360.54" x2="46.13" y2="360.54"/>
    <polyline class="cls-19" points="47.41 360.54 34.6 380.39 47.41 360.54"/>
    <polygon class="cls-22" points="47.41 286.9 34.66 305.83 113.77 306.31 127.62 286.23 47.41 286.9"/>
    <polyline class="cls-22" points="33.72 381.23 47.41 360.54 127.45 361.18 114.64 381.03"/>
    <polygon class="cls-22" points="113.77 306.31 126.95 287.49 126.27 362.79 113.37 381.37 113.77 306.31"/>
    <circle class="cls-15" cx="47.25" cy="286.1" r="4.96"/>
    <text class="cls-4" transform="translate(45.67 288.37)"><tspan x="0" y="0">E</tspan></text>
    <circle class="cls-15" cx="127.21" cy="360.74" r="4.96"/>
    <text class="cls-9" transform="translate(125.34 362.79)"><tspan x="0" y="0">H</tspan></text>
    <circle class="cls-15" cx="46.53" cy="360.74" r="4.96"/>
    <text class="cls-4" transform="translate(44.97 363.01)"><tspan x="0" y="0">F</tspan></text>
    <circle class="cls-15" cx="126.57" cy="285.82" r="4.96"/>
    <text class="cls-9" transform="translate(124.71 287.87)"><tspan x="0" y="0">G</tspan></text>
    <rect class="cls-22" x="34.92" y="307.07" width="79.4" height="73.64"/>
    <rect class="cls-18" x="33.96" y="306.11" width="80.68" height="74.92"/>
    <circle class="cls-15" cx="34.44" cy="306.59" r="4.96"/>
    <text class="cls-4" transform="translate(32.48 308.86)"><tspan x="0" y="0">A</tspan></text>
    <circle class="cls-15" cx="114.41" cy="381.23" r="4.96"/>
    <text class="cls-4" transform="translate(112.55 383.51)"><tspan x="0" y="0">C</tspan></text>
    <circle class="cls-15" cx="33.72" cy="381.23" r="4.96"/>
    <text class="cls-4" transform="translate(31.99 383.51)"><tspan x="0" y="0">B</tspan></text>
    <circle class="cls-15" cx="113.77" cy="306.31" r="4.96"/>
    <text class="cls-9" transform="translate(111.85 308.36)"><tspan x="0" y="0">D</tspan></text>
  </g>
  <g>
    <g>
      <line class="cls-17" x1="204.59" y1="235.07" x2="312.25" y2="235.07"/>
      <polygon class="cls-24" points="308.11 249.2 332.59 235.07 308.11 220.93 308.11 249.2"/>
    </g>
    <text class="cls-10" transform="translate(214.92 232.52)"><tspan class="cls-21" x="0" y="0">D</tspan><tspan x="6.03" y="0">oes it h</tspan><tspan class="cls-34" x="32.94" y="0">a</tspan><tspan class="cls-30" x="37.21" y="0">v</tspan><tspan x="41.44" y="0">e a </tspan><tspan class="cls-30" x="54.11" y="0">v</tspan><tspan x="58.35" y="0">olume</tspan></text>
  </g>
  <g>
    <g>
      <line class="cls-17" x1="386.59" y1="177.07" x2="494.25" y2="177.07"/>
      <polygon class="cls-24" points="490.11 191.2 514.59 177.07 490.11 162.93 490.11 191.2"/>
    </g>
    <text class="cls-10" transform="translate(401.09 173.52)"><tspan class="cls-32" x="0" y="0">M</tspan><tspan x="7.29" y="0">ake non </tspan><tspan class="cls-33" x="39.11" y="0">M</tspan><tspan x="46.4" y="0">ani</tspan><tspan class="cls-23" x="57.83" y="0">f</tspan><tspan x="60.35" y="0">olds</tspan><tspan x="-3.36" y="10.8">sepe</tspan><tspan class="cls-20" x="14.34" y="10.8">r</tspan><tspan class="cls-13" x="17.24" y="10.8">a</tspan><tspan class="cls-35" x="21.54" y="10.8">t</tspan><tspan x="24.47" y="10.8">e </tspan><tspan class="cls-27" x="30.88" y="10.8">M</tspan><tspan x="38.15" y="10.8">ulti su</tspan><tspan class="cls-26" x="60.74" y="10.8">r</tspan><tspan x="63.96" y="10.8">fa</tspan><tspan class="cls-35" x="70.92" y="10.8">c</tspan><tspan x="74.9" y="10.8">e</tspan></text>
  </g>
  <g>
    <g>
      <line class="cls-17" x1="386.59" y1="79.07" x2="494.25" y2="79.07"/>
      <polygon class="cls-24" points="490.11 93.2 514.59 79.07 490.11 64.93 490.11 93.2"/>
    </g>
    <text class="cls-10" transform="translate(399.64 76.52)"><tspan class="cls-21" x="0" y="0">D</tspan><tspan x="6.03" y="0">ele</tspan><tspan class="cls-35" x="17.17" y="0">t</tspan><tspan x="20.1" y="0">e non mani</tspan><tspan class="cls-23" x="62.3" y="0">f</tspan><tspan x="64.81" y="0">old</tspan><tspan x="30.68" y="10.8">pa</tspan><tspan class="cls-28" x="40.13" y="10.8">r</tspan><tspan x="43.29" y="10.8">t</tspan></text>
  </g>
  <g>
    <g>
      <line class="cls-17" x1="386.59" y1="299.07" x2="494.25" y2="299.07"/>
      <polygon class="cls-24" points="490.11 313.2 514.59 299.07 490.11 284.93 490.11 313.2"/>
    </g>
    <text class="cls-10" transform="translate(395.74 296.52)"><tspan class="cls-32" x="0" y="0">M</tspan><tspan x="7.29" y="0">ake </tspan><tspan class="cls-29" x="22.27" y="0">C</tspan><tspan x="27.39" y="0">omposi</tspan><tspan class="cls-35" x="55.57" y="0">t</tspan><tspan class="cls-25" x="58.49" y="0">e</tspan><tspan x="63.25" y="0">-</tspan><tspan class="cls-32" x="66.01" y="0">S</tspan><tspan x="70.5" y="0">olid </tspan><tspan x="14.16" y="10.8">with </tspan><tspan class="cls-31" x="32.77" y="10.8">t</tspan><tspan class="cls-30" x="35.83" y="10.8">w</tspan><tspan x="42.37" y="10.8">o solids</tspan></text>
  </g>
  <g>
    <polyline class="cls-22" points="626.29 280.72 626.29 280.72 627.26 354.68 612.88 375.58 613.81 300.25 627.58 280.72"/>
    <line class="cls-18" x1="707.3" y1="281.04" x2="627.26" y2="281.04"/>
    <line class="cls-18" x1="692.57" y1="300.25" x2="707.3" y2="281.04"/>
    <line class="cls-18" x1="695.13" y1="377.09" x2="707.94" y2="355.32"/>
    <line class="cls-18" x1="707.3" y1="281.04" x2="707.3" y2="355.32"/>
    <line class="cls-19" x1="627.26" y1="281.04" x2="627.26" y2="354.68"/>
    <line class="cls-18" x1="613.66" y1="299.9" x2="628.38" y2="280.69"/>
    <line class="cls-19" x1="707.3" y1="354.68" x2="625.97" y2="354.68"/>
    <polyline class="cls-19" points="627.26 354.68 614.45 374.53 627.26 354.68"/>
    <polygon class="cls-14" points="627.26 281.04 614.5 299.97 693.62 300.46 707.47 280.38 627.26 281.04"/>
    <polyline class="cls-22" points="613.57 375.38 627.26 354.68 707.3 355.32 694.49 375.17"/>
    <polygon class="cls-14" points="693.62 300.46 706.8 281.64 706.12 356.93 693.22 375.51 693.62 300.46"/>
    <rect class="cls-22" x="627.58" y="280.72" width="79.4" height="73.64"/>
    <circle class="cls-15" cx="627.1" cy="280.24" r="4.96"/>
    <text class="cls-4" transform="translate(626.33 282.52)"><tspan x="0" y="0">I</tspan></text>
    <circle class="cls-15" cx="707.06" cy="354.89" r="4.96"/>
    <text class="cls-2" transform="translate(705.45 356.31)"><tspan x="0" y="0">M</tspan></text>
    <circle class="cls-15" cx="706.42" cy="279.97" r="4.96"/>
    <text class="cls-9" transform="translate(705.36 282.01)"><tspan x="0" y="0">J</tspan></text>
    <circle class="cls-15" cx="626.38" cy="354.89" r="4.96"/>
    <text class="cls-7" transform="translate(624.73 356.66)"><tspan x="0" y="0">N</tspan></text>
    <rect class="cls-14" x="614.77" y="301.21" width="79.4" height="73.64"/>
    <rect class="cls-18" x="613.81" y="300.25" width="80.68" height="74.92"/>
    <circle class="cls-15" cx="694.26" cy="375.38" r="4.96"/>
    <text class="cls-4" transform="translate(692.75 377.65)"><tspan x="0" y="0">L</tspan></text>
    <circle class="cls-15" cx="693.62" cy="300.46" r="4.96"/>
    <text class="cls-9" transform="translate(692.05 302.5)"><tspan x="0" y="0">K</tspan></text>
    <rect class="cls-22" x="535.16" y="301.36" width="79.4" height="73.64"/>
    <polyline class="cls-22" points="533.88 301.36 533.88 301.36 534.84 375.32 520.47 396.23 521.39 320.89 535.16 301.36"/>
    <line class="cls-18" x1="614.88" y1="301.68" x2="534.84" y2="301.68"/>
    <line class="cls-18" x1="600.16" y1="320.89" x2="614.88" y2="301.68"/>
    <line class="cls-18" x1="602.72" y1="397.74" x2="615.52" y2="375.96"/>
    <line class="cls-18" x1="614.88" y1="301.68" x2="614.88" y2="375.96"/>
    <line class="cls-19" x1="534.84" y1="301.68" x2="534.84" y2="375.32"/>
    <line class="cls-18" x1="521.24" y1="320.54" x2="535.97" y2="301.33"/>
    <line class="cls-19" x1="614.88" y1="375.32" x2="533.56" y2="375.32"/>
    <polyline class="cls-19" points="534.84 375.32 522.03 395.17 534.84 375.32"/>
    <polygon class="cls-22" points="534.84 301.68 522.09 320.61 601.2 321.1 615.05 301.02 534.84 301.68"/>
    <polyline class="cls-22" points="521.16 396.02 534.84 375.32 614.88 375.96 602.08 395.81"/>
    <polygon class="cls-22" points="601.2 321.1 614.38 302.28 613.71 377.57 600.8 396.15 601.2 321.1"/>
    <circle class="cls-15" cx="534.68" cy="300.88" r="4.96"/>
    <text class="cls-4" transform="translate(533.11 303.16)"><tspan x="0" y="0">E</tspan></text>
    <circle class="cls-15" cx="614.65" cy="375.53" r="4.96"/>
    <text class="cls-9" transform="translate(612.77 377.57)"><tspan x="0" y="0">H</tspan></text>
    <circle class="cls-15" cx="533.97" cy="375.53" r="4.96"/>
    <text class="cls-4" transform="translate(532.41 377.8)"><tspan x="0" y="0">F</tspan></text>
    <circle class="cls-15" cx="614.01" cy="300.61" r="4.96"/>
    <text class="cls-9" transform="translate(612.15 302.65)"><tspan x="0" y="0">G</tspan></text>
    <rect class="cls-22" x="522.35" y="321.85" width="79.4" height="73.64"/>
    <rect class="cls-18" x="521.39" y="320.89" width="80.68" height="74.92"/>
    <circle class="cls-15" cx="521.87" cy="321.37" r="4.96"/>
    <text class="cls-4" transform="translate(519.91 323.65)"><tspan x="0" y="0">A</tspan></text>
    <circle class="cls-15" cx="601.84" cy="396.02" r="4.96"/>
    <text class="cls-4" transform="translate(599.98 398.29)"><tspan x="0" y="0">C</tspan></text>
    <circle class="cls-15" cx="521.16" cy="396.02" r="4.96"/>
    <text class="cls-4" transform="translate(519.42 398.29)"><tspan x="0" y="0">B</tspan></text>
    <circle class="cls-15" cx="601.2" cy="321.1" r="4.96"/>
    <text class="cls-9" transform="translate(599.28 323.14)"><tspan x="0" y="0">D</tspan></text>
  </g>
  <g>
    <rect class="cls-22" x="538.98" y="21.59" width="92.36" height="85.65"/>
    <polyline class="cls-22" points="537.49 21.59 537.49 21.59 538.61 107.61 521.89 131.92 522.97 44.3 538.98 21.59"/>
    <line class="cls-18" x1="631.71" y1="21.96" x2="538.61" y2="21.96"/>
    <line class="cls-18" x1="614.58" y1="44.3" x2="631.71" y2="21.96"/>
    <line class="cls-18" x1="617.56" y1="133.68" x2="632.45" y2="108.36"/>
    <line class="cls-18" x1="631.71" y1="21.96" x2="631.71" y2="108.36"/>
    <line class="cls-19" x1="538.61" y1="21.96" x2="538.61" y2="107.61"/>
    <line class="cls-18" x1="522.79" y1="43.89" x2="539.92" y2="21.55"/>
    <line class="cls-19" x1="631.71" y1="107.61" x2="537.12" y2="107.61"/>
    <polyline class="cls-19" points="538.61 107.61 523.71 130.7 538.61 107.61"/>
    <polygon class="cls-22" points="538.61 21.96 523.78 43.98 615.79 44.54 631.9 21.18 538.61 21.96"/>
    <polyline class="cls-22" points="522.69 131.68 538.61 107.61 631.71 108.36 616.81 131.45"/>
    <polygon class="cls-22" points="615.79 44.54 631.13 22.65 630.34 110.23 615.33 131.84 615.79 44.54"/>
    <circle class="cls-15" cx="538.42" cy="21.03" r="5.77"/>
    <text class="cls-3" transform="translate(536.59 23.67)"><tspan x="0" y="0">E</tspan></text>
    <circle class="cls-15" cx="631.43" cy="107.85" r="5.77"/>
    <text class="cls-12" transform="translate(629.25 110.23)"><tspan x="0" y="0">H</tspan></text>
    <circle class="cls-15" cx="537.59" cy="107.85" r="5.77"/>
    <text class="cls-3" transform="translate(535.77 110.49)"><tspan x="0" y="0">F</tspan></text>
    <circle class="cls-15" cx="630.69" cy="20.71" r="5.77"/>
    <text class="cls-12" transform="translate(628.52 23.09)"><tspan x="0" y="0">G</tspan></text>
    <rect class="cls-22" x="524.08" y="45.42" width="92.36" height="85.65"/>
    <rect class="cls-18" x="522.97" y="44.3" width="93.85" height="87.14"/>
    <circle class="cls-15" cx="523.52" cy="44.86" r="5.77"/>
    <text class="cls-3" transform="translate(521.24 47.51)"><tspan x="0" y="0">A</tspan></text>
    <circle class="cls-15" cx="616.54" cy="131.68" r="5.77"/>
    <text class="cls-3" transform="translate(614.38 134.33)"><tspan x="0" y="0">C</tspan></text>
    <circle class="cls-15" cx="522.69" cy="131.68" r="5.77"/>
    <text class="cls-3" transform="translate(520.67 134.33)"><tspan x="0" y="0">B</tspan></text>
    <circle class="cls-15" cx="615.79" cy="44.54" r="5.77"/>
    <text class="cls-12" transform="translate(613.56 46.92)"><tspan x="0" y="0">D</tspan></text>
  </g>
  <g>
    <rect class="cls-22" x="538.59" y="148.28" width="92.36" height="85.65"/>
    <polyline class="cls-22" points="537.1 148.28 537.1 148.28 538.22 234.3 521.5 258.61 522.58 170.99 538.59 148.28"/>
    <line class="cls-18" x1="631.32" y1="148.65" x2="538.22" y2="148.65"/>
    <line class="cls-18" x1="614.19" y1="170.99" x2="631.32" y2="148.65"/>
    <line class="cls-18" x1="617.17" y1="260.37" x2="632.07" y2="235.05"/>
    <line class="cls-18" x1="631.32" y1="148.65" x2="631.32" y2="235.05"/>
    <line class="cls-19" x1="538.22" y1="148.65" x2="538.22" y2="234.3"/>
    <line class="cls-18" x1="522.4" y1="170.58" x2="539.53" y2="148.24"/>
    <line class="cls-19" x1="631.32" y1="234.3" x2="536.73" y2="234.3"/>
    <polyline class="cls-19" points="538.22 234.3 523.32 257.39 538.22 234.3"/>
    <polygon class="cls-22" points="538.22 148.65 523.39 170.67 615.41 171.23 631.52 147.87 538.22 148.65"/>
    <polyline class="cls-22" points="522.3 258.38 538.22 234.3 631.32 235.05 616.42 258.14"/>
    <polygon class="cls-22" points="615.41 171.23 630.74 149.34 629.96 236.92 614.94 258.53 615.41 171.23"/>
    <polygon class="cls-14" points="630.95 148.28 644.82 123.87 660.22 153.82 630.95 148.28"/>
    <polyline class="cls-14" points="617.17 260.37 632.73 236.92 656.24 253.67 616.42 258.14"/>
    <polygon class="cls-16" points="630.95 148.28 644.82 123.87 659.56 151.76 630.95 148.28"/>
    <polygon class="cls-16" points="616.42 258.14 632.07 235.05 654.84 253.69 616.42 258.14"/>
    <circle class="cls-15" cx="538.03" cy="147.72" r="5.77"/>
    <text class="cls-3" transform="translate(536.2 150.36)"><tspan x="0" y="0">E</tspan></text>
    <circle class="cls-15" cx="631.05" cy="234.54" r="5.77"/>
    <text class="cls-12" transform="translate(628.86 236.92)"><tspan x="0" y="0">H</tspan></text>
    <circle class="cls-15" cx="537.2" cy="234.54" r="5.77"/>
    <text class="cls-3" transform="translate(535.39 237.19)"><tspan x="0" y="0">F</tspan></text>
    <circle class="cls-15" cx="630.3" cy="147.4" r="5.77"/>
    <text class="cls-12" transform="translate(628.14 149.78)"><tspan x="0" y="0">G</tspan></text>
    <rect class="cls-22" x="523.7" y="172.11" width="92.36" height="85.65"/>
    <rect class="cls-18" x="522.58" y="170.99" width="93.85" height="87.14"/>
    <circle class="cls-15" cx="523.14" cy="171.55" r="5.77"/>
    <text class="cls-3" transform="translate(520.86 174.2)"><tspan x="0" y="0">A</tspan></text>
    <circle class="cls-15" cx="616.15" cy="258.38" r="5.77"/>
    <text class="cls-3" transform="translate(613.99 261.02)"><tspan x="0" y="0">C</tspan></text>
    <circle class="cls-15" cx="522.3" cy="258.38" r="5.77"/>
    <text class="cls-3" transform="translate(520.29 261.02)"><tspan x="0" y="0">B</tspan></text>
    <circle class="cls-15" cx="615.41" cy="171.23" r="5.77"/>
    <text class="cls-12" transform="translate(613.17 173.61)"><tspan x="0" y="0">D</tspan></text>
    <circle class="cls-15" cx="642.81" cy="124.03" r="5.77"/>
    <text class="cls-12" transform="translate(642.01 126.41)"><tspan x="0" y="0">I</tspan></text>
    <circle class="cls-15" cx="661.43" cy="153.82" r="5.77"/>
    <text class="cls-12" transform="translate(660.19 156.2)"><tspan x="0" y="0">J</tspan></text>
    <circle class="cls-15" cx="656.96" cy="253.63" r="5.77"/>
    <text class="cls-12" transform="translate(655.15 256.01)"><tspan x="0" y="0">K</tspan></text>
  </g>
  <text class="cls-6" transform="translate(329.55 142.09)"><tspan x="0" y="0">x</tspan></text>
  <text class="cls-5" transform="translate(327.03 345.12)"><tspan x="0" y="0">v</tspan></text>
  <text class="cls-11" transform="translate(385.59 125.96)"><tspan x="0" y="0">Based on user </tspan><tspan class="cls-30" x="54" y="0">r</tspan><tspan x="56.85" y="0">equi</tspan><tspan class="cls-30" x="73.49" y="0">r</tspan><tspan x="76.35" y="0">eme</tspan><tspan class="cls-13" x="92.87" y="0">n</tspan><tspan x="97.83" y="0">ts</tspan></text>
  <text class="cls-11" transform="translate(389.69 336.65)"><tspan x="0" y="0">Based on user </tspan><tspan class="cls-30" x="54" y="0">r</tspan><tspan x="56.85" y="0">equi</tspan><tspan class="cls-30" x="73.49" y="0">r</tspan><tspan x="76.35" y="0">eme</tspan><tspan class="cls-13" x="92.87" y="0">n</tspan><tspan x="97.83" y="0">ts</tspan></text>
  <g>
    <g>
      <line class="cls-17" x1="386.59" y1="365.07" x2="494.25" y2="365.07"/>
      <polygon class="cls-24" points="490.11 379.2 514.59 365.07 490.11 350.93 490.11 379.2"/>
    </g>
    <text class="cls-10" transform="translate(407.72 362.52)"><tspan x="0" y="0">Split i</tspan><tspan class="cls-13" x="20.78" y="0">n</tspan><tspan class="cls-35" x="25.74" y="0">t</tspan><tspan x="28.66" y="0">o 2 </tspan><tspan class="cls-32" x="42.04" y="0">S</tspan><tspan x="46.53" y="0">olid</tspan></text>
  </g>
</svg>