<?xml version="1.0" encoding="UTF-8"?>
<svg id="Solid" xmlns="http://www.w3.org/2000/svg" viewBox="0 0 522 405.23">
  <defs>
    <style>
      .cls-1 {
        fill: #231f20;
      }

      .cls-2 {
        stroke-width: 2px;
      }

      .cls-2, .cls-3, .cls-4, .cls-5, .cls-6, .cls-7 {
        fill: none;
      }

      .cls-2, .cls-3, .cls-5, .cls-6, .cls-7 {
        stroke-miterlimit: 10;
      }

      .cls-2, .cls-5, .cls-6, .cls-7 {
        stroke: #437898;
      }

      .cls-8 {
        fill: #6dbae7;
        opacity: .31;
      }

      .cls-9, .cls-10, .cls-11 {
        fill: #fff;
      }

      .cls-3 {
        stroke: #9b9a9a;
      }

      .cls-3, .cls-5, .cls-6, .cls-7 {
        stroke-width: 2.83px;
      }

      .cls-12 {
        fill: #9b9a9a;
      }

      .cls-10 {
        opacity: .88;
      }

      .cls-6 {
        stroke-dasharray: 3;
      }

      .cls-11 {
        opacity: .74;
      }

      .cls-7 {
        stroke-dasharray: 5.67;
      }
    </style>
  </defs>
  <g>
    <rect class="cls-8" x="56.62" y="31.77" width="124" height="115"/>
    <polyline class="cls-8" points="54.62 31.77 54.62 31.77 56.12 147.27 33.67 179.91 35.12 62.27 56.62 31.77"/>
    <line class="cls-5" x1="181.12" y1="32.27" x2="56.12" y2="32.27"/>
    <line class="cls-5" x1="158.12" y1="62.27" x2="181.12" y2="32.27"/>
    <line class="cls-5" x1="162.12" y1="182.27" x2="182.12" y2="148.27"/>
    <line class="cls-5" x1="181.12" y1="32.27" x2="181.12" y2="148.27"/>
    <line class="cls-7" x1="56.12" y1="32.27" x2="56.12" y2="147.27"/>
    <line class="cls-5" x1="34.88" y1="61.72" x2="57.88" y2="31.72"/>
    <line class="cls-7" x1="181.12" y1="147.27" x2="54.12" y2="147.27"/>
    <polyline class="cls-7" points="56.12 147.27 36.12 178.27 56.12 147.27"/>
    <polygon class="cls-8" points="56.12 32.27 36.21 61.83 159.75 62.59 181.38 31.23 56.12 32.27"/>
    <polyline class="cls-8" points="34.75 179.59 56.12 147.27 181.12 148.27 161.12 179.27"/>
    <polygon class="cls-8" points="159.75 62.59 180.34 33.2 179.29 150.79 159.13 179.8 159.75 62.59"/>
    <g>
      <circle class="cls-1" cx="55.87" cy="31.02" r="7.75"/>
      <path class="cls-9" d="M57.66,31.41h-2.62v2.43h2.92v.73h-3.79v-6.74h3.64v.73h-2.77v2.13h2.62v.72Z"/>
    </g>
    <g>
      <circle class="cls-1" cx="180.75" cy="147.59" r="7.75"/>
      <path class="cls-9" d="M179.29,144.72v2.54h2.94v-2.54h.79v6.07h-.79v-2.84h-2.94v2.84h-.78v-6.07h.78Z"/>
    </g>
    <g>
      <circle class="cls-1" cx="54.75" cy="147.59" r="7.75"/>
      <path class="cls-9" d="M53.08,144.41h3.63v.73h-2.76v2.24h2.55v.72h-2.55v3.05h-.87v-6.74Z"/>
    </g>
    <g>
      <circle class="cls-1" cx="179.75" cy="30.59" r="7.75"/>
      <path class="cls-9" d="M182.15,33.52c-.35.13-1.04.33-1.86.33-.92,0-1.67-.23-2.27-.8-.52-.5-.85-1.31-.85-2.26,0-1.81,1.25-3.13,3.29-3.13.7,0,1.25.15,1.51.28l-.19.64c-.32-.14-.73-.26-1.34-.26-1.48,0-2.44.92-2.44,2.44s.93,2.45,2.34,2.45c.51,0,.86-.07,1.04-.16v-1.81h-1.23v-.63h2v2.92Z"/>
    </g>
    <g>
      <line class="cls-7" x1="89.94" y1="72.84" x2="89.94" y2="106.92"/>
      <line class="cls-7" x1="126.98" y1="106.92" x2="89.34" y2="106.92"/>
      <polyline class="cls-6" points="89.94 106.92 84.01 116.11 89.94 106.92"/>
      <circle class="cls-1" cx="90.38" cy="106.82" r="3.72"/>
      <polygon class="cls-11" points="89.94 72.84 83.64 81.57 83.71 117.82 121.35 117.29 127.28 107.22 126.98 72.84 89.94 72.84"/>
      <line class="cls-5" x1="126.98" y1="72.84" x2="126.98" y2="107.22"/>
      <line class="cls-5" x1="121.35" y1="117.29" x2="127.28" y2="107.22"/>
      <line class="cls-5" x1="120.16" y1="81.73" x2="126.98" y2="72.84"/>
      <line class="cls-5" x1="126.98" y1="72.84" x2="89.94" y2="72.84"/>
      <line class="cls-5" x1="83.64" y1="81.57" x2="90.46" y2="72.67"/>
      <rect class="cls-5" x="83.71" y="81.73" width="37.34" height="34.67"/>
      <circle class="cls-1" cx="89.88" cy="72.58" r="3.72"/>
      <circle class="cls-1" cx="128.38" cy="106.82" r="3.72"/>
      <circle class="cls-1" cx="120.38" cy="116.82" r="3.72"/>
      <circle class="cls-1" cx="83.38" cy="117.82" r="3.72"/>
      <circle class="cls-1" cx="121.38" cy="82.82" r="3.72"/>
      <circle class="cls-1" cx="82.38" cy="81.82" r="3.72"/>
      <circle class="cls-1" cx="127.38" cy="72.82" r="3.72"/>
    </g>
    <g>
      <line class="cls-7" x1="89.46" y1="72.58" x2="89.46" y2="106.66"/>
      <line class="cls-7" x1="126.51" y1="106.66" x2="88.87" y2="106.66"/>
      <polyline class="cls-6" points="89.46 106.66 83.53 115.85 89.46 106.66"/>
      <circle class="cls-1" cx="89.91" cy="106.56" r="3.72"/>
      <polygon class="cls-10" points="89.46 72.58 83.17 81.3 83.24 117.56 120.88 117.03 126.8 106.95 126.51 72.58 89.46 72.58"/>
      <line class="cls-5" x1="126.51" y1="72.58" x2="126.51" y2="106.95"/>
      <line class="cls-5" x1="120.88" y1="117.03" x2="126.8" y2="106.95"/>
      <line class="cls-5" x1="119.69" y1="81.47" x2="126.51" y2="72.58"/>
      <line class="cls-5" x1="126.51" y1="72.58" x2="89.46" y2="72.58"/>
      <line class="cls-5" x1="83.17" y1="81.3" x2="89.98" y2="72.41"/>
      <rect class="cls-5" x="83.24" y="81.47" width="37.34" height="34.67"/>
      <circle class="cls-1" cx="89.41" cy="72.32" r="3.72"/>
      <circle class="cls-1" cx="127.91" cy="106.56" r="3.72"/>
      <circle class="cls-1" cx="119.91" cy="116.56" r="3.72"/>
      <circle class="cls-1" cx="82.91" cy="117.56" r="3.72"/>
      <circle class="cls-1" cx="120.91" cy="82.56" r="3.72"/>
      <circle class="cls-1" cx="81.91" cy="81.56" r="3.72"/>
      <circle class="cls-1" cx="126.91" cy="72.56" r="3.72"/>
    </g>
    <rect class="cls-8" x="36.62" y="63.77" width="124" height="115"/>
    <rect class="cls-5" x="35.12" y="62.27" width="126" height="117"/>
    <g>
      <circle class="cls-1" cx="35.87" cy="63.02" r="7.75"/>
      <path class="cls-9" d="M34.66,64.45l-.7,2.12h-.9l2.29-6.74h1.05l2.3,6.74h-.93l-.72-2.12h-2.39ZM36.87,63.77l-.66-1.94c-.15-.44-.25-.84-.35-1.23h-.02c-.1.4-.21.81-.34,1.22l-.66,1.95h2.03Z"/>
    </g>
    <g>
      <circle class="cls-1" cx="160.75" cy="179.59" r="7.75"/>
      <path class="cls-9" d="M163.32,182.92c-.32.16-.96.32-1.78.32-1.9,0-3.33-1.2-3.33-3.41s1.43-3.54,3.52-3.54c.84,0,1.37.18,1.6.3l-.21.71c-.33-.16-.8-.28-1.36-.28-1.58,0-2.63,1.01-2.63,2.78,0,1.65.95,2.71,2.59,2.71.53,0,1.07-.11,1.42-.28l.18.69Z"/>
    </g>
    <g>
      <circle class="cls-1" cx="34.75" cy="179.59" r="7.75"/>
      <path class="cls-9" d="M32.8,176.5c.38-.08.98-.14,1.59-.14.87,0,1.43.15,1.85.49.35.26.56.66.56,1.19,0,.65-.43,1.22-1.14,1.48v.02c.64.16,1.39.69,1.39,1.69,0,.58-.23,1.02-.57,1.35-.47.43-1.23.63-2.33.63-.6,0-1.06-.04-1.35-.08v-6.63ZM33.67,179.25h.79c.92,0,1.46-.48,1.46-1.13,0-.79-.6-1.1-1.48-1.1-.4,0-.63.03-.77.06v2.17ZM33.67,182.48c.17.03.42.04.73.04.9,0,1.73-.33,1.73-1.31,0-.92-.79-1.3-1.74-1.3h-.72v2.57Z"/>
    </g>
    <g>
      <circle class="cls-1" cx="159.75" cy="62.59" r="7.75"/>
      <path class="cls-9" d="M157.44,59.8c.48-.07,1.04-.13,1.67-.13,1.13,0,1.93.26,2.46.76.54.5.86,1.2.86,2.18s-.31,1.8-.87,2.36c-.57.57-1.5.87-2.68.87-.56,0-1.03-.03-1.42-.07v-5.97ZM158.22,65.17c.2.04.49.04.79.04,1.67,0,2.58-.94,2.58-2.58,0-1.43-.8-2.34-2.46-2.34-.41,0-.71.04-.92.08v4.79Z"/>
    </g>
  </g>
  <g>
    <rect class="cls-8" x="57.17" y="231.19" width="124" height="115"/>
    <polyline class="cls-8" points="55.17 231.19 55.17 231.19 56.67 346.69 34.23 379.33 35.67 261.69 57.17 231.19"/>
    <line class="cls-5" x1="181.67" y1="231.69" x2="56.67" y2="231.69"/>
    <line class="cls-5" x1="158.67" y1="261.69" x2="181.67" y2="231.69"/>
    <line class="cls-5" x1="162.67" y1="381.69" x2="182.67" y2="347.69"/>
    <line class="cls-5" x1="181.67" y1="231.69" x2="181.67" y2="347.69"/>
    <line class="cls-7" x1="56.67" y1="231.69" x2="56.67" y2="346.69"/>
    <line class="cls-5" x1="35.44" y1="261.14" x2="58.44" y2="231.14"/>
    <line class="cls-7" x1="181.67" y1="346.69" x2="54.67" y2="346.69"/>
    <polyline class="cls-7" points="56.67 346.69 36.67 377.69 56.67 346.69"/>
    <polygon class="cls-8" points="56.67 231.69 36.76 261.25 160.31 262.01 181.94 230.65 56.67 231.69"/>
    <polyline class="cls-8" points="35.31 379.01 56.67 346.69 181.67 347.69 161.67 378.69"/>
    <polygon class="cls-8" points="160.31 262.01 180.89 232.62 179.84 350.21 159.69 379.22 160.31 262.01"/>
    <g>
      <circle class="cls-1" cx="56.42" cy="230.44" r="7.75"/>
      <path class="cls-9" d="M58.21,230.83h-2.62v2.43h2.92v.73h-3.79v-6.74h3.64v.73h-2.77v2.13h2.62v.72Z"/>
    </g>
    <g>
      <circle class="cls-1" cx="181.31" cy="347.01" r="7.75"/>
      <path class="cls-9" d="M179.84,344.14v2.54h2.93v-2.54h.79v6.07h-.79v-2.84h-2.93v2.84h-.78v-6.07h.78Z"/>
    </g>
    <g>
      <circle class="cls-1" cx="55.31" cy="347.01" r="7.75"/>
      <path class="cls-9" d="M53.63,343.82h3.63v.73h-2.76v2.24h2.55v.72h-2.55v3.05h-.87v-6.74Z"/>
    </g>
    <g>
      <circle class="cls-1" cx="180.31" cy="230.01" r="7.75"/>
      <path class="cls-9" d="M182.7,232.94c-.35.13-1.04.33-1.86.33-.92,0-1.67-.23-2.27-.8-.52-.5-.85-1.31-.85-2.26,0-1.81,1.25-3.13,3.29-3.13.7,0,1.25.15,1.51.28l-.19.64c-.32-.14-.73-.26-1.34-.26-1.48,0-2.44.92-2.44,2.44s.93,2.45,2.34,2.45c.51,0,.86-.07,1.04-.16v-1.81h-1.23v-.63h2v2.92Z"/>
    </g>
    <g>
      <line class="cls-7" x1="90.49" y1="272.26" x2="90.49" y2="306.34"/>
      <line class="cls-7" x1="127.53" y1="306.34" x2="89.9" y2="306.34"/>
      <polyline class="cls-6" points="90.49 306.34 84.56 315.53 90.49 306.34"/>
      <circle class="cls-1" cx="90.94" cy="306.24" r="3.72"/>
      <polygon class="cls-11" points="90.49 272.26 84.2 280.98 84.27 317.24 121.9 316.71 127.83 306.64 127.53 272.26 90.49 272.26"/>
      <line class="cls-5" x1="127.53" y1="272.26" x2="127.53" y2="306.64"/>
      <line class="cls-5" x1="121.9" y1="316.71" x2="127.83" y2="306.64"/>
      <line class="cls-5" x1="120.72" y1="281.15" x2="127.53" y2="272.26"/>
      <line class="cls-5" x1="127.53" y1="272.26" x2="90.49" y2="272.26"/>
      <line class="cls-5" x1="84.2" y1="280.98" x2="91.01" y2="272.09"/>
      <rect class="cls-5" x="84.27" y="281.15" width="37.34" height="34.67"/>
      <circle class="cls-1" cx="90.43" cy="272" r="3.72"/>
      <circle class="cls-1" cx="128.94" cy="306.24" r="3.72"/>
      <circle class="cls-1" cx="120.94" cy="316.24" r="3.72"/>
      <circle class="cls-1" cx="83.94" cy="317.24" r="3.72"/>
      <circle class="cls-1" cx="121.94" cy="282.24" r="3.72"/>
      <circle class="cls-1" cx="82.94" cy="281.24" r="3.72"/>
      <circle class="cls-1" cx="127.94" cy="272.24" r="3.72"/>
    </g>
    <g>
      <line class="cls-7" x1="90.01" y1="272" x2="90.01" y2="306.08"/>
      <line class="cls-7" x1="127.06" y1="306.08" x2="89.42" y2="306.08"/>
      <polyline class="cls-6" points="90.01 306.08 84.09 315.26 90.01 306.08"/>
      <circle class="cls-1" cx="90.46" cy="305.97" r="3.72"/>
      <polygon class="cls-11" points="90.01 272 83.72 280.72 83.79 316.97 121.43 316.45 127.36 306.37 127.06 272 90.01 272"/>
      <line class="cls-5" x1="127.06" y1="272" x2="127.06" y2="306.37"/>
      <line class="cls-5" x1="121.43" y1="316.45" x2="127.36" y2="306.37"/>
      <line class="cls-5" x1="120.24" y1="280.89" x2="127.06" y2="272"/>
      <line class="cls-5" x1="127.06" y1="272" x2="90.01" y2="272"/>
      <line class="cls-5" x1="83.72" y1="280.72" x2="90.54" y2="271.83"/>
      <rect class="cls-5" x="83.79" y="280.89" width="37.34" height="34.67"/>
      <circle class="cls-1" cx="89.96" cy="271.74" r="3.72"/>
      <circle class="cls-1" cx="128.46" cy="305.97" r="3.72"/>
      <circle class="cls-1" cx="120.46" cy="315.97" r="3.72"/>
      <circle class="cls-1" cx="83.46" cy="316.97" r="3.72"/>
      <circle class="cls-1" cx="121.46" cy="281.97" r="3.72"/>
      <circle class="cls-1" cx="82.46" cy="280.97" r="3.72"/>
      <circle class="cls-1" cx="127.46" cy="271.97" r="3.72"/>
    </g>
    <rect class="cls-8" x="37.17" y="263.19" width="124" height="115"/>
    <rect class="cls-5" x="35.67" y="261.69" width="126" height="117"/>
    <g>
      <circle class="cls-1" cx="36.42" cy="262.44" r="7.75"/>
      <path class="cls-9" d="M35.21,263.87l-.7,2.12h-.9l2.29-6.74h1.05l2.3,6.74h-.93l-.72-2.12h-2.39ZM37.42,263.19l-.66-1.94c-.15-.44-.25-.84-.35-1.23h-.02c-.1.4-.21.81-.34,1.22l-.66,1.95h2.03Z"/>
    </g>
    <g>
      <circle class="cls-1" cx="161.31" cy="379.01" r="7.75"/>
      <path class="cls-9" d="M163.87,382.34c-.32.16-.96.32-1.78.32-1.9,0-3.33-1.2-3.33-3.41s1.43-3.54,3.52-3.54c.84,0,1.37.18,1.6.3l-.21.71c-.33-.16-.8-.28-1.36-.28-1.58,0-2.63,1.01-2.63,2.78,0,1.65.95,2.71,2.59,2.71.53,0,1.07-.11,1.42-.28l.18.69Z"/>
    </g>
    <g>
      <circle class="cls-1" cx="35.31" cy="379.01" r="7.75"/>
      <path class="cls-9" d="M33.36,375.91c.38-.08.98-.14,1.59-.14.87,0,1.43.15,1.85.49.35.26.56.66.56,1.19,0,.65-.43,1.22-1.14,1.48v.02c.64.16,1.39.69,1.39,1.69,0,.58-.23,1.02-.57,1.35-.47.43-1.23.63-2.33.63-.6,0-1.06-.04-1.35-.08v-6.63ZM34.23,378.67h.79c.92,0,1.46-.48,1.46-1.13,0-.79-.6-1.1-1.48-1.1-.4,0-.63.03-.77.06v2.17ZM34.23,381.9c.17.03.42.04.73.04.9,0,1.73-.33,1.73-1.31,0-.92-.79-1.3-1.74-1.3h-.72v2.57Z"/>
    </g>
    <g>
      <circle class="cls-1" cx="160.31" cy="262.01" r="7.75"/>
      <path class="cls-9" d="M157.99,259.22c.48-.07,1.04-.13,1.67-.13,1.12,0,1.93.26,2.46.76.54.5.85,1.2.85,2.18s-.31,1.8-.87,2.36c-.57.57-1.5.87-2.68.87-.56,0-1.03-.03-1.42-.07v-5.97ZM158.78,264.58c.2.04.49.04.79.04,1.67,0,2.58-.94,2.58-2.58,0-1.43-.8-2.34-2.46-2.34-.41,0-.71.04-.92.08v4.79Z"/>
    </g>
    <g>
      <path class="cls-9" d="M71,285.14c-.01-7.24,6.01-13.19,13.3-13.27,6.45-.07,13.27,4.99,13.36,13.47.08,7.24-6.02,13.25-13.34,13.25-7.37,0-13.31-5.99-13.33-13.46ZM78.82,295.87c4.04,2.33,10.56,2.06,14.76-2.96,3.75-4.47,3.13-10.27,1.47-12.95,2.88,9.03-5.65,18.89-16.24,15.91Z"/>
      <polyline class="cls-8" points="76.85 283.31 84.4 283.31 83.82 279.43 96.1 278.96 92.02 274.32 85.81 271.95 79.75 271.95 75.26 275.37 71 279.34 69.93 288.62 77.16 297.36 77.16 286.09"/>
      <line class="cls-2" x1="77.67" y1="284.04" x2="97.65" y2="284.04"/>
      <line class="cls-2" x1="76.65" y1="284.55" x2="76.93" y2="297.74"/>
      <line class="cls-2" x1="83.82" y1="279.43" x2="84.33" y2="299.92"/>
      <line class="cls-2" x1="86.38" y1="279.43" x2="97.65" y2="279.43"/>
      <line class="cls-2" x1="77" y1="284" x2="89" y2="272"/>
      <line class="cls-2" x1="84.88" y1="279.5" x2="91" y2="273"/>
      <g>
        <circle class="cls-1" cx="84.4" cy="279.34" r="3.97"/>
        <path class="cls-9" d="M84.18,281.16v-1.47l-1.09-1.99h.51l.49.95c.13.26.24.47.34.71h0c.1-.23.21-.45.35-.71l.5-.95h.51l-1.16,1.98v1.47h-.45Z"/>
      </g>
      <g>
        <circle class="cls-1" cx="77.08" cy="283.66" r="3.97"/>
        <path class="cls-9" d="M77.89,285.48l-.44-.76c-.18-.29-.29-.48-.4-.68h0c-.1.2-.2.38-.37.69l-.42.76h-.51l1.06-1.75-1.02-1.71h.52l.46.81c.13.23.23.4.32.58h.02c.1-.21.18-.36.31-.58l.47-.81h.51l-1.05,1.68,1.08,1.77h-.52Z"/>
      </g>
      <path d="M95.07,300.9c-.15.05-.34.13-.54.17-.43.08-.71-.13-.64-.55.08-.43.29-.83.45-1.24.03-.07.07-.13.11-.19.62-.97.58-1.12-.42-1.81-7.67,6.44-18.1,3.16-22.46-3.26-4.37-6.44-3.32-15.11,2.61-20.39,5.7-5.07,14.45-5.06,20.23-.05,5.84,5.06,7.66,14.78,1.52,21.82.3.28.59.57.92.82.09.07.33.04.45-.02.48-.26.93-.58,1.42-.84.28-.15.63-.29.92-.01.3.29.09.61-.02.91-.03.08-.07.16-.1.24,1.67.88,2.89,2.29,4.3,3.46,1.42,1.18,2.8,2.42,4.19,3.63,1.08.94,2.14,1.9,3.25,2.8.63.5.85,1.1.7,1.85-.57,2.81-2.73,4.77-5.29,5.13-.57.08-1.06-.1-1.47-.57-3.1-3.58-6.23-7.15-9.33-10.73-.3-.34-.52-.75-.79-1.16ZM71,285.14c.01,7.47,5.95,13.47,13.33,13.46,7.32,0,13.42-6.01,13.34-13.25-.09-8.48-6.91-13.54-13.36-13.47-7.29.08-13.32,6.03-13.3,13.27ZM96.53,300.7c.91,1.07,1.8,2.11,2.69,3.15,2.32,2.72,4.64,5.45,6.96,8.17.1.12.31.29.4.25.57-.22,1.13-.49,1.76-.78-.21-.22-.32-.34-.43-.46-3.5-3.46-7-6.92-10.49-10.38-.41-.4-.42-.4-.89.04ZM95.82,298.82c-.39.28-.76.54-1.13.8.44.51.73.42,1.41-.38-.08-.13-.17-.26-.29-.42Z"/>
      <path d="M78.82,295.87c10.59,2.98,19.12-6.88,16.24-15.91,1.66,2.68,2.28,8.48-1.47,12.95-4.21,5.02-10.73,5.29-14.76,2.96Z"/>
    </g>
  </g>
  <g>
    <rect class="cls-8" x="367.47" y="30.11" width="124" height="115"/>
    <polyline class="cls-8" points="365.47 30.11 365.47 30.11 366.97 145.61 344.52 178.25 345.97 60.61 367.47 30.11"/>
    <line class="cls-5" x1="491.97" y1="30.61" x2="366.97" y2="30.61"/>
    <line class="cls-5" x1="468.97" y1="60.61" x2="491.97" y2="30.61"/>
    <line class="cls-5" x1="472.97" y1="180.61" x2="492.97" y2="146.61"/>
    <line class="cls-5" x1="491.97" y1="30.61" x2="491.97" y2="146.61"/>
    <line class="cls-7" x1="366.97" y1="30.61" x2="366.97" y2="145.61"/>
    <line class="cls-5" x1="345.74" y1="60.05" x2="368.74" y2="30.05"/>
    <line class="cls-7" x1="491.97" y1="145.61" x2="364.97" y2="145.61"/>
    <polyline class="cls-7" points="366.97 145.61 346.97 176.61 366.97 145.61"/>
    <polygon class="cls-8" points="366.97 30.61 347.06 60.17 470.61 60.93 492.23 29.56 366.97 30.61"/>
    <polyline class="cls-8" points="345.61 177.93 366.97 145.61 491.97 146.61 471.97 177.61"/>
    <polygon class="cls-8" points="470.61 60.93 491.19 31.54 490.14 149.12 469.98 178.14 470.61 60.93"/>
    <g>
      <circle class="cls-1" cx="366.72" cy="29.36" r="7.75"/>
      <path class="cls-9" d="M368.51,29.75h-2.62v2.43h2.92v.73h-3.79v-6.74h3.64v.73h-2.77v2.13h2.62v.72Z"/>
    </g>
    <g>
      <circle class="cls-1" cx="491.61" cy="145.93" r="7.75"/>
      <path class="cls-9" d="M490.14,143.05v2.54h2.93v-2.54h.79v6.07h-.79v-2.84h-2.93v2.84h-.78v-6.07h.78Z"/>
    </g>
    <g>
      <circle class="cls-1" cx="365.61" cy="145.93" r="7.75"/>
      <path class="cls-9" d="M363.93,142.74h3.63v.73h-2.76v2.24h2.55v.72h-2.55v3.05h-.87v-6.74Z"/>
    </g>
    <g>
      <circle class="cls-1" cx="490.61" cy="28.93" r="7.75"/>
      <path class="cls-9" d="M493,31.85c-.35.13-1.04.33-1.86.33-.92,0-1.67-.23-2.27-.8-.52-.5-.85-1.31-.85-2.26,0-1.81,1.25-3.13,3.29-3.13.7,0,1.25.15,1.51.28l-.19.64c-.32-.14-.73-.26-1.34-.26-1.48,0-2.44.92-2.44,2.44s.93,2.45,2.34,2.45c.51,0,.86-.07,1.04-.16v-1.81h-1.23v-.63h2v2.92Z"/>
    </g>
    <g>
      <line class="cls-7" x1="400.31" y1="70.91" x2="400.31" y2="104.99"/>
      <line class="cls-7" x1="437.36" y1="104.99" x2="399.72" y2="104.99"/>
      <polyline class="cls-6" points="400.31 104.99 394.39 114.18 400.31 104.99"/>
      <circle class="cls-1" cx="400.76" cy="104.89" r="3.72"/>
      <polygon class="cls-11" points="400.31 70.91 394.02 79.64 394.09 115.89 431.73 115.36 437.65 105.29 437.36 70.91 400.31 70.91"/>
      <line class="cls-5" x1="437.36" y1="70.91" x2="437.36" y2="105.29"/>
      <line class="cls-5" x1="431.73" y1="115.36" x2="437.65" y2="105.29"/>
      <line class="cls-5" x1="430.54" y1="79.8" x2="437.36" y2="70.91"/>
      <line class="cls-5" x1="437.36" y1="70.91" x2="400.31" y2="70.91"/>
      <line class="cls-5" x1="394.02" y1="79.64" x2="400.83" y2="70.75"/>
      <rect class="cls-5" x="394.09" y="79.8" width="37.34" height="34.67"/>
      <circle class="cls-1" cx="400.26" cy="70.66" r="3.72"/>
      <circle class="cls-1" cx="438.76" cy="104.89" r="3.72"/>
      <circle class="cls-1" cx="430.76" cy="114.89" r="3.72"/>
      <circle class="cls-1" cx="393.76" cy="115.89" r="3.72"/>
      <circle class="cls-1" cx="431.76" cy="80.89" r="3.72"/>
      <circle class="cls-1" cx="392.76" cy="79.89" r="3.72"/>
      <circle class="cls-1" cx="437.76" cy="70.89" r="3.72"/>
    </g>
    <rect class="cls-8" x="347.47" y="62.11" width="124" height="115"/>
    <rect class="cls-5" x="345.97" y="60.61" width="126" height="117"/>
    <g>
      <circle class="cls-1" cx="346.72" cy="61.36" r="7.75"/>
      <path class="cls-9" d="M345.51,62.79l-.7,2.12h-.9l2.29-6.74h1.05l2.3,6.74h-.93l-.72-2.12h-2.39ZM347.72,62.11l-.66-1.94c-.15-.44-.25-.84-.35-1.23h-.02c-.1.4-.21.81-.34,1.22l-.66,1.95h2.03Z"/>
    </g>
    <g>
      <circle class="cls-1" cx="471.61" cy="177.93" r="7.75"/>
      <path class="cls-9" d="M474.17,181.26c-.32.16-.96.32-1.78.32-1.9,0-3.33-1.2-3.33-3.41s1.43-3.54,3.52-3.54c.84,0,1.37.18,1.6.3l-.21.71c-.33-.16-.8-.28-1.36-.28-1.58,0-2.63,1.01-2.63,2.78,0,1.65.95,2.71,2.59,2.71.53,0,1.07-.11,1.42-.28l.18.69Z"/>
    </g>
    <g>
      <circle class="cls-1" cx="345.61" cy="177.93" r="7.75"/>
      <path class="cls-9" d="M343.65,174.83c.38-.08.98-.14,1.59-.14.87,0,1.43.15,1.85.49.35.26.56.66.56,1.19,0,.65-.43,1.22-1.14,1.48v.02c.64.16,1.39.69,1.39,1.69,0,.58-.23,1.02-.57,1.35-.47.43-1.23.63-2.33.63-.6,0-1.06-.04-1.35-.08v-6.63ZM344.52,177.59h.79c.92,0,1.46-.48,1.46-1.13,0-.79-.6-1.1-1.48-1.1-.4,0-.63.03-.77.06v2.17ZM344.52,180.82c.17.03.42.04.73.04.9,0,1.73-.33,1.73-1.31,0-.92-.79-1.3-1.74-1.3h-.72v2.57Z"/>
    </g>
    <g>
      <circle class="cls-1" cx="470.61" cy="60.93" r="7.75"/>
      <path class="cls-9" d="M468.29,58.13c.48-.07,1.04-.13,1.67-.13,1.12,0,1.93.26,2.46.76.54.5.85,1.2.85,2.18s-.31,1.8-.87,2.36c-.57.57-1.5.87-2.68.87-.56,0-1.03-.03-1.42-.07v-5.97ZM469.08,63.5c.2.04.49.04.79.04,1.67,0,2.58-.94,2.58-2.58,0-1.43-.8-2.34-2.46-2.34-.41,0-.71.04-.92.08v4.79Z"/>
    </g>
  </g>
  <g>
    <rect class="cls-8" x="368.47" y="236.11" width="124" height="115"/>
    <polyline class="cls-8" points="366.47 236.11 366.47 236.11 367.97 351.61 345.52 384.25 346.97 266.61 368.47 236.11"/>
    <line class="cls-5" x1="492.97" y1="236.61" x2="367.97" y2="236.61"/>
    <line class="cls-5" x1="469.97" y1="266.61" x2="492.97" y2="236.61"/>
    <line class="cls-5" x1="473.97" y1="386.61" x2="493.97" y2="352.61"/>
    <line class="cls-5" x1="492.97" y1="236.61" x2="492.97" y2="352.61"/>
    <line class="cls-7" x1="367.97" y1="236.61" x2="367.97" y2="351.61"/>
    <line class="cls-5" x1="346.74" y1="266.05" x2="369.74" y2="236.05"/>
    <line class="cls-7" x1="492.97" y1="351.61" x2="365.97" y2="351.61"/>
    <polyline class="cls-7" points="367.97 351.61 347.97 382.61 367.97 351.61"/>
    <polygon class="cls-8" points="367.97 236.61 348.06 266.17 471.61 266.93 493.23 235.56 367.97 236.61"/>
    <polyline class="cls-8" points="346.61 383.93 367.97 351.61 492.97 352.61 472.97 383.61"/>
    <polygon class="cls-8" points="471.61 266.93 492.19 237.54 491.14 355.12 470.98 384.14 471.61 266.93"/>
    <g>
      <circle class="cls-1" cx="367.72" cy="235.36" r="7.75"/>
      <path class="cls-9" d="M369.51,235.75h-2.62v2.43h2.92v.73h-3.79v-6.74h3.64v.73h-2.77v2.13h2.62v.72Z"/>
    </g>
    <g>
      <circle class="cls-1" cx="492.61" cy="351.93" r="7.75"/>
      <path class="cls-9" d="M491.14,349.05v2.54h2.93v-2.54h.79v6.07h-.79v-2.85h-2.93v2.85h-.78v-6.07h.78Z"/>
    </g>
    <g>
      <circle class="cls-1" cx="366.61" cy="351.93" r="7.75"/>
      <path class="cls-9" d="M364.93,348.74h3.63v.73h-2.76v2.24h2.55v.72h-2.55v3.05h-.87v-6.74Z"/>
    </g>
    <g>
      <circle class="cls-1" cx="491.61" cy="234.93" r="7.75"/>
      <path class="cls-9" d="M494,237.85c-.35.13-1.04.33-1.86.33-.92,0-1.67-.23-2.27-.8-.52-.5-.85-1.31-.85-2.26,0-1.81,1.25-3.13,3.29-3.13.7,0,1.25.15,1.51.28l-.19.64c-.32-.14-.73-.26-1.34-.26-1.48,0-2.44.92-2.44,2.44s.93,2.45,2.34,2.45c.51,0,.86-.07,1.04-.16v-1.81h-1.23v-.63h2v2.92Z"/>
    </g>
    <g>
      <line class="cls-7" x1="401.31" y1="276.91" x2="401.31" y2="310.99"/>
      <line class="cls-7" x1="438.36" y1="310.99" x2="400.72" y2="310.99"/>
      <polyline class="cls-6" points="401.31 310.99 395.39 320.18 401.31 310.99"/>
      <circle class="cls-1" cx="401.76" cy="310.89" r="3.72"/>
      <polygon class="cls-11" points="401.31 276.91 395.02 285.64 395.09 321.89 432.73 321.36 438.65 311.29 438.36 276.91 401.31 276.91"/>
      <line class="cls-5" x1="438.36" y1="276.91" x2="438.36" y2="311.29"/>
      <line class="cls-5" x1="432.73" y1="321.36" x2="438.65" y2="311.29"/>
      <line class="cls-5" x1="431.54" y1="285.8" x2="438.36" y2="276.91"/>
      <line class="cls-5" x1="438.36" y1="276.91" x2="401.31" y2="276.91"/>
      <line class="cls-5" x1="395.02" y1="285.64" x2="401.83" y2="276.75"/>
      <rect class="cls-5" x="395.09" y="285.8" width="37.34" height="34.67"/>
      <circle class="cls-1" cx="401.26" cy="276.66" r="3.72"/>
      <circle class="cls-1" cx="439.76" cy="310.89" r="3.72"/>
      <circle class="cls-1" cx="431.76" cy="320.89" r="3.72"/>
      <circle class="cls-1" cx="394.76" cy="321.89" r="3.72"/>
      <circle class="cls-1" cx="432.76" cy="286.89" r="3.72"/>
      <circle class="cls-1" cx="393.76" cy="285.89" r="3.72"/>
      <circle class="cls-1" cx="438.76" cy="276.89" r="3.72"/>
    </g>
    <rect class="cls-8" x="348.47" y="268.11" width="124" height="115"/>
    <rect class="cls-5" x="346.97" y="266.61" width="126" height="117"/>
    <g>
      <circle class="cls-1" cx="347.72" cy="267.36" r="7.75"/>
      <path class="cls-9" d="M346.51,268.79l-.7,2.12h-.9l2.29-6.74h1.05l2.3,6.74h-.93l-.72-2.12h-2.39ZM348.72,268.11l-.66-1.94c-.15-.44-.25-.84-.35-1.23h-.02c-.1.4-.21.81-.34,1.22l-.66,1.95h2.03Z"/>
    </g>
    <g>
      <circle class="cls-1" cx="472.61" cy="383.93" r="7.75"/>
      <path class="cls-9" d="M475.17,387.26c-.32.16-.96.32-1.78.32-1.9,0-3.33-1.2-3.33-3.41s1.43-3.54,3.52-3.54c.84,0,1.37.18,1.6.3l-.21.71c-.33-.16-.8-.28-1.36-.28-1.58,0-2.63,1.01-2.63,2.78,0,1.65.95,2.71,2.59,2.71.53,0,1.07-.11,1.42-.28l.18.69Z"/>
    </g>
    <g>
      <circle class="cls-1" cx="346.61" cy="383.93" r="7.75"/>
      <path class="cls-9" d="M344.65,380.83c.38-.08.98-.14,1.59-.14.87,0,1.43.15,1.85.49.35.26.56.66.56,1.19,0,.65-.43,1.22-1.14,1.48v.02c.64.16,1.39.69,1.39,1.69,0,.58-.23,1.02-.57,1.35-.47.43-1.23.63-2.33.63-.6,0-1.06-.04-1.35-.08v-6.63ZM345.52,383.59h.79c.92,0,1.46-.48,1.46-1.13,0-.79-.6-1.1-1.48-1.1-.4,0-.63.03-.77.06v2.17ZM345.52,386.82c.17.03.42.04.73.04.9,0,1.73-.33,1.73-1.31,0-.92-.79-1.3-1.74-1.3h-.72v2.57Z"/>
    </g>
    <g>
      <circle class="cls-1" cx="471.61" cy="266.93" r="7.75"/>
      <path class="cls-9" d="M469.29,264.13c.48-.07,1.04-.13,1.67-.13,1.12,0,1.93.26,2.46.76.54.5.85,1.2.85,2.18s-.31,1.8-.87,2.36c-.57.57-1.5.87-2.68.87-.56,0-1.03-.03-1.42-.07v-5.97ZM470.08,269.5c.2.04.49.04.79.04,1.67,0,2.58-.94,2.58-2.58,0-1.43-.8-2.34-2.46-2.34-.41,0-.71.04-.92.08v4.79Z"/>
    </g>
  </g>
  <g>
    <g>
      <line class="cls-3" x1="204" y1="202.5" x2="311.66" y2="202.5"/>
      <polygon class="cls-12" points="307.52 216.63 332 202.5 307.52 188.37 307.52 216.63"/>
    </g>
    <g>
      <rect class="cls-4" x="208.04" y="193.57" width="94.96" height="17.93"/>
      <path class="cls-1" d="M231.45,193.89h.78v2.93h.03c.16-.23.32-.45.48-.65l1.85-2.28h.97l-2.2,2.58,2.37,3.49h-.93l-2-2.98-.58.67v2.31h-.78v-6.07Z"/>
      <path class="cls-1" d="M236.74,197.92c.02,1.07.7,1.51,1.49,1.51.57,0,.91-.1,1.21-.22l.14.57c-.28.13-.76.27-1.45.27-1.34,0-2.14-.88-2.14-2.2s.77-2.35,2.04-2.35c1.42,0,1.8,1.25,1.8,2.05,0,.16-.02.29-.03.37h-3.06ZM239.07,197.35c0-.5-.21-1.29-1.1-1.29-.8,0-1.15.74-1.21,1.29h2.31Z"/>
      <path class="cls-1" d="M241.25,197.92c.02,1.07.7,1.51,1.49,1.51.57,0,.91-.1,1.21-.22l.14.57c-.28.13-.76.27-1.45.27-1.34,0-2.14-.88-2.14-2.2s.77-2.35,2.04-2.35c1.42,0,1.8,1.25,1.8,2.05,0,.16-.02.29-.03.37h-3.06ZM243.58,197.35c0-.5-.21-1.29-1.1-1.29-.8,0-1.15.74-1.21,1.29h2.31Z"/>
      <path class="cls-1" d="M245.32,197.02c0-.56-.02-1.01-.04-1.42h.71l.04.75h.02c.32-.53.84-.85,1.55-.85,1.05,0,1.85.89,1.85,2.21,0,1.57-.95,2.34-1.98,2.34-.58,0-1.08-.25-1.34-.68h-.02v2.37h-.78v-4.72ZM246.1,198.18c0,.12.02.23.04.32.14.55.62.93,1.19.93.84,0,1.32-.68,1.32-1.68,0-.87-.46-1.62-1.3-1.62-.54,0-1.04.39-1.2.98-.03.1-.05.21-.05.32v.75Z"/>
      <path class="cls-1" d="M253.3,194.35v1.25h1.13v.6h-1.13v2.35c0,.54.15.85.59.85.21,0,.36-.03.46-.05l.04.59c-.15.06-.4.11-.7.11-.37,0-.67-.12-.86-.33-.23-.23-.31-.62-.31-1.13v-2.38h-.67v-.6h.67v-1.04l.77-.21Z"/>
      <path class="cls-1" d="M255.33,193.56h.79v2.72h.02c.13-.22.32-.42.57-.56.23-.13.51-.23.81-.23.58,0,1.52.36,1.52,1.86v2.59h-.79v-2.5c0-.7-.26-1.3-1.01-1.3-.51,0-.92.36-1.06.79-.05.11-.05.22-.05.38v2.63h-.79v-6.39Z"/>
      <path class="cls-1" d="M260.76,197.92c.02,1.07.7,1.51,1.49,1.51.57,0,.91-.1,1.21-.22l.14.57c-.28.13-.76.27-1.45.27-1.34,0-2.14-.88-2.14-2.2s.77-2.35,2.04-2.35c1.42,0,1.8,1.25,1.8,2.05,0,.16-.02.29-.03.37h-3.06ZM263.09,197.35c0-.5-.21-1.29-1.1-1.29-.8,0-1.15.74-1.21,1.29h2.31Z"/>
      <path class="cls-1" d="M266.82,199.96v-3.75h-.61v-.6h.61v-.23c0-1.15.67-1.9,1.9-1.9.41,0,.88.13,1.11.29l-.22.6c-.19-.13-.53-.25-.92-.25-.84,0-1.08.59-1.08,1.28v.21h2.53v4.36h-.78v-3.75h-1.75v3.75h-.78Z"/>
      <path class="cls-1" d="M271.45,196.96c0-.51,0-.95-.04-1.36h.69l.03.86h.04c.2-.58.68-.95,1.21-.95.09,0,.15,0,.22.03v.75c-.08-.02-.16-.03-.27-.03-.56,0-.95.42-1.06,1.02-.02.11-.04.23-.04.37v2.32h-.78v-3Z"/>
      <path class="cls-1" d="M274.28,199.15c.23.15.65.32,1.04.32.58,0,.85-.29.85-.65,0-.38-.22-.59-.81-.8-.78-.28-1.15-.71-1.15-1.23,0-.7.57-1.28,1.5-1.28.44,0,.83.13,1.07.27l-.2.58c-.17-.11-.49-.25-.89-.25-.47,0-.73.27-.73.59,0,.36.26.52.83.74.76.29,1.14.67,1.14,1.31,0,.77-.59,1.3-1.63,1.3-.48,0-.92-.12-1.22-.3l.2-.6Z"/>
      <path class="cls-1" d="M278.91,194.35v1.25h1.13v.6h-1.13v2.35c0,.54.15.85.59.85.21,0,.36-.03.46-.05l.04.59c-.15.06-.4.11-.7.11-.37,0-.67-.12-.86-.33-.23-.23-.31-.62-.31-1.13v-2.38h-.67v-.6h.67v-1.04l.77-.21Z"/>
    </g>
  </g>
</svg>