<?xml version="1.0" encoding="UTF-8"?>
<svg id="Polygon" xmlns="http://www.w3.org/2000/svg" viewBox="0 0 635.67 341.6">
  <defs>
    <style>
      .cls-1 {
        fill: #437898;
        opacity: .53;
      }

      .cls-2 {
        fill: #c92027;
      }

      .cls-3 {
        fill: #231f20;
      }

      .cls-4 {
        fill: #6dbae7;
        opacity: .31;
      }

      .cls-5 {
        fill: #fff;
      }

      .cls-6 {
        stroke: #9b9a9a;
      }

      .cls-6, .cls-7, .cls-8 {
        fill: none;
      }

      .cls-6, .cls-8 {
        stroke-miterlimit: 10;
        stroke-width: 2.83px;
      }

      .cls-9 {
        fill: #9b9a9a;
      }

      .cls-8 {
        stroke: #437898;
      }

      .cls-10 {
        fill: #39b54a;
      }
    </style>
  </defs>
  <g>
    <rect class="cls-4" x="31.51" y="97.57" width="145" height="115"/>
    <rect class="cls-5" x="57.51" y="123.57" width="98.41" height="62"/>
    <rect class="cls-5" x="87.51" y="142.57" width="52.45" height="27"/>
    <rect class="cls-8" x="30.01" y="96.07" width="146" height="117"/>
    <g>
      <circle class="cls-3" cx="30.76" cy="96.82" r="7.75"/>
      <path class="cls-5" d="M29.55,98.25l-.7,2.12h-.9l2.29-6.74h1.05l2.3,6.74h-.93l-.72-2.12h-2.39ZM31.76,97.57l-.66-1.94c-.15-.44-.25-.84-.35-1.23h-.02c-.1.4-.21.81-.34,1.22l-.66,1.95h2.03Z"/>
    </g>
    <g>
      <circle class="cls-3" cx="175.64" cy="213.39" r="7.75"/>
      <path class="cls-5" d="M178.21,216.72c-.32.16-.96.32-1.78.32-1.9,0-3.33-1.2-3.33-3.41s1.43-3.54,3.52-3.54c.84,0,1.37.18,1.6.3l-.21.71c-.33-.16-.8-.28-1.36-.28-1.58,0-2.63,1.01-2.63,2.78,0,1.65.95,2.71,2.59,2.71.53,0,1.07-.11,1.42-.28l.18.69Z"/>
    </g>
    <g>
      <circle class="cls-3" cx="29.64" cy="213.39" r="7.75"/>
      <path class="cls-5" d="M27.69,210.29c.38-.08.98-.14,1.59-.14.87,0,1.43.15,1.85.49.35.26.56.66.56,1.19,0,.65-.43,1.22-1.14,1.48v.02c.64.16,1.39.69,1.39,1.69,0,.58-.23,1.02-.57,1.35-.47.43-1.23.63-2.33.63-.6,0-1.06-.04-1.35-.08v-6.63ZM28.56,213.05h.79c.92,0,1.46-.48,1.46-1.13,0-.79-.6-1.1-1.48-1.1-.4,0-.63.03-.77.06v2.17ZM28.56,216.28c.17.03.42.04.73.04.9,0,1.73-.33,1.73-1.31,0-.92-.79-1.3-1.74-1.3h-.72v2.57Z"/>
    </g>
    <g>
      <circle class="cls-3" cx="175.64" cy="96.39" r="7.75"/>
      <path class="cls-5" d="M173.33,93.6c.48-.07,1.04-.13,1.67-.13,1.13,0,1.93.26,2.46.76.54.5.86,1.2.86,2.18s-.31,1.8-.87,2.36c-.57.57-1.5.87-2.68.87-.56,0-1.03-.03-1.42-.07v-5.97ZM174.11,98.96c.2.04.49.04.79.04,1.67,0,2.58-.94,2.58-2.57,0-1.43-.8-2.34-2.46-2.34-.41,0-.71.04-.92.08v4.79Z"/>
    </g>
    <g>
      <rect class="cls-7" x="13.51" y="229.05" width="176" height="23.48"/>
      <path class="cls-3" d="M25.43,241.38v-11.96h2.74v.83h-1.72v10.3h1.72v.83h-2.74Z"/>
      <path class="cls-3" d="M29.69,241.38v-11.96h2.74v.83h-1.72v10.3h1.72v.83h-2.74Z"/>
      <path class="cls-3" d="M35.33,236.52l-1.05,3.18h-1.35l3.44-10.11h1.57l3.45,10.11h-1.4l-1.08-3.18h-3.58ZM38.64,235.5l-.99-2.91c-.22-.66-.38-1.26-.52-1.85h-.03c-.15.6-.31,1.21-.51,1.83l-.99,2.92h3.04Z"/>
      <path class="cls-3" d="M41.97,241.54c.33-.88.73-2.49.9-3.58l1.47-.15c-.34,1.28-1,2.94-1.42,3.64l-.94.09Z"/>
      <path class="cls-3" d="M45.98,229.72c.57-.12,1.47-.21,2.38-.21,1.3,0,2.15.22,2.77.74.52.39.84.99.84,1.78,0,.98-.65,1.83-1.71,2.22v.03c.96.24,2.08,1.04,2.08,2.54,0,.87-.34,1.53-.85,2.03-.71.64-1.84.95-3.49.95-.9,0-1.59-.06-2.02-.12v-9.94ZM47.28,233.86h1.19c1.38,0,2.19-.72,2.19-1.69,0-1.19-.9-1.65-2.22-1.65-.6,0-.94.04-1.15.09v3.25ZM47.28,238.71c.25.04.63.06,1.1.06,1.35,0,2.59-.5,2.59-1.96,0-1.38-1.19-1.95-2.61-1.95h-1.08v3.86Z"/>
      <path class="cls-3" d="M53.02,241.54c.33-.88.73-2.49.9-3.58l1.47-.15c-.34,1.28-1,2.94-1.42,3.64l-.94.09Z"/>
      <path class="cls-3" d="M64.08,239.37c-.48.24-1.44.48-2.67.48-2.85,0-4.99-1.8-4.99-5.12s2.15-5.31,5.28-5.31c1.26,0,2.05.27,2.4.45l-.31,1.06c-.5-.24-1.2-.42-2.04-.42-2.37,0-3.94,1.51-3.94,4.17,0,2.47,1.42,4.06,3.88,4.06.79,0,1.6-.17,2.13-.42l.27,1.04Z"/>
      <path class="cls-3" d="M64.82,241.54c.33-.88.73-2.49.9-3.58l1.47-.15c-.34,1.28-1,2.94-1.42,3.64l-.94.09Z"/>
      <path class="cls-3" d="M68.82,229.72c.79-.12,1.74-.21,2.77-.21,1.87,0,3.21.44,4.09,1.26.9.83,1.42,2,1.42,3.63s-.51,3-1.46,3.93c-.94.95-2.5,1.46-4.47,1.46-.93,0-1.71-.04-2.37-.12v-9.94ZM70.13,238.66c.33.06.81.07,1.32.07,2.79,0,4.31-1.56,4.31-4.29.01-2.38-1.33-3.9-4.1-3.9-.67,0-1.18.06-1.53.13v7.98Z"/>
      <path class="cls-3" d="M80.6,229.41v11.97h-2.74v-.83h1.72v-10.32h-1.72v-.83h2.74Z"/>
      <path class="cls-3" d="M83.06,241.38v-11.96h2.74v.83h-1.72v10.3h1.72v.83h-2.74Z"/>
      <path class="cls-3" d="M92.46,234.96h-3.93v3.64h4.38v1.1h-5.68v-10.11h5.46v1.09h-4.15v3.2h3.93v1.08Z"/>
      <path class="cls-3" d="M93.65,241.54c.33-.88.73-2.49.9-3.58l1.47-.15c-.34,1.28-1,2.94-1.42,3.64l-.94.09Z"/>
      <path class="cls-3" d="M97.65,229.59h5.44v1.09h-4.14v3.36h3.82v1.08h-3.82v4.58h-1.3v-10.11Z"/>
      <path class="cls-3" d="M102.6,241.54c.33-.88.74-2.49.9-3.58l1.47-.15c-.34,1.28-1,2.94-1.42,3.64l-.95.09Z"/>
      <path class="cls-3" d="M114.3,239.25c-.58.21-1.74.56-3.1.56-1.53,0-2.79-.39-3.78-1.34-.87-.84-1.41-2.19-1.41-3.77.02-3.01,2.08-5.22,5.47-5.22,1.17,0,2.08.25,2.52.46l-.31,1.06c-.54-.24-1.21-.44-2.23-.44-2.46,0-4.06,1.53-4.06,4.07s1.54,4.08,3.9,4.08c.85,0,1.44-.12,1.74-.27v-3.01h-2.05v-1.05h3.33v4.86Z"/>
      <path class="cls-3" d="M115.4,241.54c.33-.88.74-2.49.9-3.58l1.47-.15c-.34,1.28-1,2.94-1.42,3.64l-.95.09Z"/>
      <path class="cls-3" d="M120.71,229.59v4.23h4.89v-4.23h1.32v10.11h-1.32v-4.74h-4.89v4.74h-1.3v-10.11h1.3Z"/>
      <path class="cls-3" d="M131.07,229.41v11.97h-2.74v-.83h1.72v-10.32h-1.72v-.83h2.74Z"/>
      <path class="cls-3" d="M133.53,241.38v-11.96h2.74v.83h-1.72v10.3h1.72v.83h-2.74Z"/>
      <path class="cls-3" d="M139.01,229.59v10.11h-1.3v-10.11h1.3Z"/>
      <path class="cls-3" d="M140.39,241.54c.33-.88.74-2.49.9-3.58l1.47-.15c-.34,1.28-1,2.94-1.42,3.64l-.95.09Z"/>
      <path class="cls-3" d="M146.46,229.59h1.3v6.76c0,2.69-1.32,3.51-3.06,3.51-.48,0-1.06-.11-1.4-.24l.19-1.06c.27.11.66.2,1.1.2,1.17,0,1.86-.53,1.86-2.51v-6.66Z"/>
      <path class="cls-3" d="M148.86,241.54c.33-.88.74-2.49.9-3.58l1.47-.15c-.34,1.28-1,2.94-1.42,3.64l-.95.09Z"/>
      <path class="cls-3" d="M152.87,229.59h1.3v4.88h.04c.27-.39.54-.75.79-1.08l3.09-3.79h1.62l-3.66,4.29,3.94,5.82h-1.54l-3.33-4.96-.96,1.11v3.86h-1.3v-10.11Z"/>
      <path class="cls-3" d="M160.35,241.54c.33-.88.73-2.49.9-3.58l1.47-.15c-.34,1.28-1,2.94-1.42,3.64l-.94.09Z"/>
      <path class="cls-3" d="M164.36,229.59h1.3v9.01h4.32v1.1h-5.62v-10.11Z"/>
      <path class="cls-3" d="M173.33,229.41v11.97h-2.74v-.83h1.72v-10.32h-1.72v-.83h2.74Z"/>
      <path class="cls-3" d="M177.59,229.41v11.97h-2.74v-.83h1.72v-10.32h-1.72v-.83h2.74Z"/>
    </g>
    <rect class="cls-8" x="57.01" y="123.07" width="98.41" height="63"/>
    <rect class="cls-8" x="87.01" y="142.07" width="54.4" height="28"/>
    <g>
      <circle class="cls-3" cx="141.55" cy="141.8" r="7.75"/>
      <path class="cls-5" d="M141.84,138.62h.87v4.51c0,1.79-.88,2.34-2.04,2.34-.32,0-.71-.07-.93-.16l.13-.71c.18.07.44.13.73.13.78,0,1.24-.35,1.24-1.67v-4.44Z"/>
    </g>
    <g>
      <circle class="cls-3" cx="87.55" cy="140.8" r="7.75"/>
      <path class="cls-5" d="M87.99,137.62v6.74h-.87v-6.74h.87Z"/>
    </g>
    <g>
      <circle class="cls-3" cx="155.55" cy="185.8" r="7.75"/>
      <path class="cls-5" d="M158.21,189.05c-.39.14-1.16.37-2.07.37-1.02,0-1.86-.26-2.52-.89-.58-.56-.94-1.46-.94-2.51,0-2.01,1.39-3.48,3.65-3.48.78,0,1.39.17,1.68.31l-.21.71c-.36-.16-.81-.29-1.49-.29-1.64,0-2.71,1.02-2.71,2.71s1.03,2.72,2.6,2.72c.57,0,.96-.08,1.16-.18v-2.01h-1.37v-.7h2.22v3.24Z"/>
    </g>
    <g>
      <circle class="cls-3" cx="56.55" cy="185.8" r="7.75"/>
      <path class="cls-5" d="M55.09,182.93v2.54h2.94v-2.54h.79v6.07h-.79v-2.84h-2.94v2.84h-.78v-6.07h.78Z"/>
    </g>
    <g>
      <circle class="cls-3" cx="155.55" cy="121.8" r="7.75"/>
      <path class="cls-5" d="M153.88,118.62h3.63v.73h-2.76v2.24h2.55v.72h-2.55v3.05h-.87v-6.74Z"/>
    </g>
    <g>
      <circle class="cls-3" cx="56.55" cy="122.8" r="7.75"/>
      <path class="cls-5" d="M58.34,123.19h-2.62v2.43h2.92v.73h-3.79v-6.74h3.64v.73h-2.77v2.13h2.62v.72Z"/>
    </g>
    <g>
      <circle class="cls-3" cx="143.55" cy="171.8" r="7.75"/>
      <path class="cls-5" d="M141.6,168.62h.87v3.25h.03c.18-.26.36-.5.53-.72l2.06-2.53h1.08l-2.44,2.86,2.63,3.88h-1.03l-2.22-3.31-.64.74v2.57h-.87v-6.74Z"/>
    </g>
    <g>
      <circle class="cls-3" cx="86.55" cy="171.8" r="7.75"/>
      <path class="cls-5" d="M84.95,168.62h.87v6.01h2.88v.73h-3.75v-6.74Z"/>
    </g>
  </g>
  <g>
    <rect class="cls-4" x="442.88" y="21.42" width="145" height="115"/>
    <rect class="cls-5" x="468.88" y="47.42" width="98.41" height="62"/>
    <rect class="cls-5" x="498.88" y="66.42" width="52.45" height="27"/>
    <rect class="cls-8" x="441.38" y="19.92" width="146" height="117"/>
    <g>
      <circle class="cls-3" cx="442.13" cy="20.67" r="7.75"/>
      <path class="cls-5" d="M440.92,22.1l-.7,2.12h-.9l2.29-6.74h1.05l2.3,6.74h-.93l-.72-2.12h-2.39ZM443.13,21.42l-.66-1.94c-.15-.44-.25-.84-.35-1.23h-.02c-.1.4-.21.81-.34,1.22l-.66,1.95h2.03Z"/>
    </g>
    <g>
      <circle class="cls-3" cx="587.01" cy="137.24" r="7.75"/>
      <path class="cls-5" d="M589.58,140.57c-.32.16-.96.32-1.78.32-1.9,0-3.33-1.2-3.33-3.41s1.43-3.54,3.52-3.54c.84,0,1.37.18,1.6.3l-.21.71c-.33-.16-.8-.28-1.36-.28-1.58,0-2.63,1.01-2.63,2.78,0,1.65.95,2.71,2.59,2.71.53,0,1.07-.11,1.42-.28l.18.69Z"/>
    </g>
    <g>
      <circle class="cls-3" cx="441.01" cy="137.24" r="7.75"/>
      <path class="cls-5" d="M439.06,134.14c.38-.08.98-.14,1.59-.14.87,0,1.43.15,1.85.49.35.26.56.66.56,1.19,0,.65-.43,1.22-1.14,1.48v.02c.64.16,1.39.69,1.39,1.69,0,.58-.23,1.02-.57,1.35-.47.43-1.23.63-2.33.63-.6,0-1.06-.04-1.35-.08v-6.63ZM439.93,136.9h.79c.92,0,1.46-.48,1.46-1.13,0-.79-.6-1.1-1.48-1.1-.4,0-.63.03-.77.06v2.17ZM439.93,140.13c.17.03.42.04.73.04.9,0,1.73-.33,1.73-1.31,0-.92-.79-1.3-1.74-1.3h-.72v2.57Z"/>
    </g>
    <g>
      <circle class="cls-3" cx="587.01" cy="20.24" r="7.75"/>
      <path class="cls-5" d="M584.7,17.45c.48-.07,1.04-.13,1.67-.13,1.12,0,1.93.26,2.46.76.54.5.85,1.2.85,2.18s-.31,1.8-.87,2.36c-.57.57-1.5.87-2.68.87-.56,0-1.03-.03-1.42-.07v-5.97ZM585.48,22.81c.2.04.49.04.79.04,1.67,0,2.58-.94,2.58-2.57,0-1.43-.8-2.34-2.46-2.34-.41,0-.71.04-.92.08v4.79Z"/>
    </g>
    <g>
      <rect class="cls-7" x="424.88" y="152.9" width="176" height="23.48"/>
      <path class="cls-3" d="M457.93,165.23v-11.96h2.74v.83h-1.72v10.3h1.72v.83h-2.74Z"/>
      <path class="cls-3" d="M462.19,165.23v-11.96h2.74v.83h-1.72v10.3h1.72v.83h-2.74Z"/>
      <path class="cls-3" d="M467.83,160.37l-1.05,3.18h-1.35l3.44-10.11h1.57l3.45,10.11h-1.4l-1.08-3.18h-3.58ZM471.14,159.34l-.99-2.91c-.22-.66-.38-1.26-.52-1.85h-.03c-.15.6-.31,1.21-.51,1.83l-.99,2.92h3.04Z"/>
      <path class="cls-3" d="M474.47,165.39c.33-.88.74-2.49.9-3.58l1.47-.15c-.34,1.28-1,2.94-1.42,3.64l-.95.09Z"/>
      <path class="cls-3" d="M478.48,153.57c.57-.12,1.47-.21,2.38-.21,1.3,0,2.14.22,2.77.74.53.39.84.99.84,1.78,0,.98-.64,1.83-1.71,2.22v.03c.96.24,2.08,1.04,2.08,2.54,0,.87-.34,1.53-.85,2.03-.71.64-1.84.95-3.5.95-.9,0-1.59-.06-2.02-.12v-9.94ZM479.78,157.71h1.18c1.38,0,2.19-.72,2.19-1.69,0-1.19-.9-1.65-2.22-1.65-.6,0-.94.04-1.15.09v3.25ZM479.78,162.56c.25.04.63.06,1.09.06,1.35,0,2.59-.5,2.59-1.96,0-1.38-1.18-1.95-2.61-1.95h-1.08v3.86Z"/>
      <path class="cls-3" d="M485.51,165.39c.33-.88.74-2.49.9-3.58l1.47-.15c-.34,1.28-1,2.94-1.42,3.64l-.95.09Z"/>
      <path class="cls-3" d="M496.58,163.22c-.48.24-1.44.48-2.67.48-2.85,0-4.99-1.8-4.99-5.12s2.14-5.31,5.28-5.31c1.26,0,2.05.27,2.4.45l-.32,1.06c-.5-.24-1.2-.42-2.04-.42-2.37,0-3.94,1.51-3.94,4.17,0,2.47,1.42,4.06,3.88,4.06.79,0,1.6-.17,2.13-.42l.27,1.04Z"/>
      <path class="cls-3" d="M497.32,165.39c.33-.88.74-2.49.9-3.58l1.47-.15c-.34,1.28-1,2.94-1.42,3.64l-.95.09Z"/>
      <path class="cls-3" d="M501.32,153.57c.79-.12,1.74-.21,2.78-.21,1.87,0,3.21.44,4.09,1.26.9.83,1.42,2,1.42,3.63s-.51,3-1.46,3.93c-.95.95-2.5,1.46-4.47,1.46-.93,0-1.71-.04-2.37-.12v-9.94ZM502.63,162.51c.33.06.81.07,1.32.07,2.79,0,4.3-1.56,4.3-4.29.01-2.38-1.33-3.9-4.09-3.9-.67,0-1.18.06-1.53.13v7.98Z"/>
      <path class="cls-3" d="M513.1,153.25v11.97h-2.74v-.83h1.72v-10.32h-1.72v-.83h2.74Z"/>
      <path class="cls-3" d="M515.56,165.23v-11.96h2.75v.83h-1.72v10.3h1.72v.83h-2.75Z"/>
      <path class="cls-3" d="M524.96,158.81h-3.93v3.64h4.38v1.1h-5.68v-10.11h5.46v1.09h-4.16v3.2h3.93v1.08Z"/>
      <path class="cls-3" d="M526.15,165.39c.33-.88.74-2.49.9-3.58l1.47-.15c-.34,1.28-1,2.94-1.42,3.64l-.95.09Z"/>
      <path class="cls-3" d="M530.15,153.44h5.45v1.09h-4.14v3.36h3.83v1.08h-3.83v4.58h-1.3v-10.11Z"/>
      <path class="cls-3" d="M535.1,165.39c.33-.88.74-2.49.9-3.58l1.47-.15c-.34,1.28-1,2.94-1.42,3.64l-.95.09Z"/>
      <path class="cls-3" d="M546.8,163.09c-.58.21-1.74.56-3.1.56-1.53,0-2.79-.39-3.78-1.34-.87-.84-1.41-2.19-1.41-3.77.02-3.01,2.08-5.22,5.47-5.22,1.17,0,2.08.25,2.52.46l-.32,1.06c-.54-.24-1.21-.44-2.23-.44-2.46,0-4.07,1.53-4.07,4.07s1.54,4.08,3.9,4.08c.85,0,1.44-.12,1.74-.27v-3.01h-2.05v-1.05h3.33v4.86Z"/>
      <path class="cls-3" d="M547.9,165.39c.33-.88.74-2.49.9-3.58l1.47-.15c-.34,1.28-1,2.94-1.42,3.64l-.95.09Z"/>
      <path class="cls-3" d="M553.21,153.44v4.23h4.89v-4.23h1.32v10.11h-1.32v-4.74h-4.89v4.74h-1.3v-10.11h1.3Z"/>
      <path class="cls-3" d="M563.57,153.25v11.97h-2.74v-.83h1.72v-10.32h-1.72v-.83h2.74Z"/>
      <path class="cls-3" d="M567.83,153.25v11.97h-2.74v-.83h1.72v-10.32h-1.72v-.83h2.74Z"/>
    </g>
    <rect class="cls-8" x="468.38" y="46.92" width="98.41" height="63"/>
    <g>
      <circle class="cls-3" cx="566.92" cy="109.65" r="7.75"/>
      <path class="cls-5" d="M569.58,112.9c-.39.14-1.16.37-2.07.37-1.02,0-1.86-.26-2.52-.89-.58-.56-.94-1.46-.94-2.51,0-2.01,1.39-3.48,3.65-3.48.78,0,1.39.17,1.68.31l-.21.71c-.36-.16-.81-.29-1.49-.29-1.64,0-2.71,1.02-2.71,2.71s1.03,2.72,2.6,2.72c.57,0,.96-.08,1.16-.18v-2.01h-1.37v-.7h2.22v3.24Z"/>
    </g>
    <g>
      <circle class="cls-3" cx="467.92" cy="109.65" r="7.75"/>
      <path class="cls-5" d="M466.46,106.78v2.54h2.93v-2.54h.79v6.07h-.79v-2.84h-2.93v2.84h-.78v-6.07h.78Z"/>
    </g>
    <g>
      <circle class="cls-3" cx="566.92" cy="45.65" r="7.75"/>
      <path class="cls-5" d="M565.25,42.46h3.63v.73h-2.76v2.24h2.55v.72h-2.55v3.05h-.87v-6.74Z"/>
    </g>
    <g>
      <circle class="cls-3" cx="467.92" cy="46.65" r="7.75"/>
      <path class="cls-5" d="M469.71,47.04h-2.62v2.43h2.92v.73h-3.79v-6.74h3.64v.73h-2.77v2.13h2.62v.72Z"/>
    </g>
  </g>
  <g>
    <g>
      <line class="cls-6" x1="306.92" y1="82.07" x2="414.58" y2="82.07"/>
      <polygon class="cls-9" points="410.44 96.2 434.92 82.07 410.44 67.93 410.44 96.2"/>
    </g>
    <g>
      <rect class="cls-7" x="310.96" y="73.13" width="94.96" height="17.93"/>
      <path class="cls-3" d="M334.5,73.45h.78v2.93h.03c.16-.23.32-.45.48-.65l1.85-2.28h.97l-2.2,2.58,2.37,3.49h-.93l-2-2.98-.58.67v2.31h-.78v-6.07Z"/>
      <path class="cls-3" d="M339.79,77.49c.02,1.07.7,1.51,1.49,1.51.57,0,.91-.1,1.21-.22l.14.57c-.28.13-.76.27-1.45.27-1.34,0-2.14-.88-2.14-2.2s.77-2.35,2.04-2.35c1.42,0,1.8,1.25,1.8,2.05,0,.16-.02.29-.03.37h-3.06ZM342.11,76.92c0-.5-.21-1.29-1.1-1.29-.8,0-1.15.74-1.21,1.29h2.31Z"/>
      <path class="cls-3" d="M344.3,77.49c.02,1.07.7,1.51,1.49,1.51.57,0,.91-.1,1.21-.22l.14.57c-.28.13-.76.27-1.45.27-1.34,0-2.14-.88-2.14-2.2s.77-2.35,2.04-2.35c1.42,0,1.8,1.25,1.8,2.05,0,.16-.02.29-.03.37h-3.06ZM346.62,76.92c0-.5-.21-1.29-1.1-1.29-.8,0-1.15.74-1.21,1.29h2.31Z"/>
      <path class="cls-3" d="M348.36,76.59c0-.56-.02-1.01-.04-1.42h.71l.04.75h.02c.32-.53.84-.85,1.55-.85,1.05,0,1.85.89,1.85,2.21,0,1.57-.95,2.34-1.98,2.34-.58,0-1.08-.25-1.34-.68h-.02v2.37h-.78v-4.72ZM349.15,77.75c0,.12.02.23.04.32.14.55.62.93,1.19.93.84,0,1.32-.68,1.32-1.68,0-.87-.46-1.62-1.3-1.62-.54,0-1.04.39-1.2.98-.03.1-.05.21-.05.32v.75Z"/>
      <path class="cls-3" d="M355.36,79.52c.02-.3.04-.74.04-1.12v-5.27h.78v2.74h.02c.28-.49.78-.8,1.49-.8,1.08,0,1.84.9,1.84,2.22,0,1.56-.98,2.33-1.95,2.33-.63,0-1.13-.24-1.46-.82h-.03l-.04.72h-.68ZM356.18,77.78c0,.1.02.2.04.29.15.55.61.93,1.19.93.83,0,1.32-.67,1.32-1.67,0-.87-.45-1.62-1.3-1.62-.54,0-1.04.37-1.21.97-.02.09-.04.2-.04.32v.78Z"/>
      <path class="cls-3" d="M361.4,73.94c0,.27-.19.49-.5.49-.28,0-.48-.21-.48-.49s.21-.5.5-.5.49.22.49.5ZM360.51,79.52v-4.36h.79v4.36h-.79Z"/>
      <path class="cls-3" d="M366.37,75.16c-.02.32-.04.67-.04,1.2v2.53c0,1-.2,1.61-.62,1.99-.42.4-1.04.52-1.58.52s-1.1-.13-1.45-.36l.2-.6c.29.18.74.34,1.28.34.81,0,1.41-.42,1.41-1.52v-.49h-.02c-.24.4-.71.73-1.39.73-1.08,0-1.85-.92-1.85-2.12,0-1.48.96-2.31,1.96-2.31.76,0,1.17.4,1.36.76h.02l.04-.66h.69ZM365.55,76.89c0-.14,0-.25-.04-.36-.14-.46-.53-.84-1.11-.84-.76,0-1.3.64-1.3,1.65,0,.86.43,1.57,1.29,1.57.49,0,.93-.31,1.1-.81.04-.13.06-.29.06-.42v-.78Z"/>
      <path class="cls-3" d="M371.4,75.16c-.02.32-.04.67-.04,1.2v2.53c0,1-.2,1.61-.62,1.99-.42.4-1.04.52-1.58.52s-1.1-.13-1.45-.36l.2-.6c.29.18.74.34,1.28.34.81,0,1.41-.42,1.41-1.52v-.49h-.02c-.24.4-.71.73-1.39.73-1.08,0-1.85-.92-1.85-2.12,0-1.48.96-2.31,1.96-2.31.76,0,1.17.4,1.36.76h.02l.04-.66h.69ZM370.59,76.89c0-.14,0-.25-.04-.36-.14-.46-.53-.84-1.11-.84-.76,0-1.3.64-1.3,1.65,0,.86.43,1.57,1.29,1.57.49,0,.93-.31,1.1-.81.04-.13.06-.29.06-.42v-.78Z"/>
      <path class="cls-3" d="M373.12,77.49c.02,1.07.7,1.51,1.49,1.51.57,0,.91-.1,1.21-.22l.14.57c-.28.13-.76.27-1.45.27-1.34,0-2.14-.88-2.14-2.2s.77-2.35,2.04-2.35c1.42,0,1.8,1.25,1.8,2.05,0,.16-.02.29-.03.37h-3.06ZM375.45,76.92c0-.5-.21-1.29-1.1-1.29-.8,0-1.15.74-1.21,1.29h2.31Z"/>
      <path class="cls-3" d="M377.08,78.71c.23.15.65.32,1.04.32.58,0,.85-.29.85-.65,0-.38-.22-.59-.81-.8-.78-.28-1.15-.71-1.15-1.23,0-.7.57-1.28,1.5-1.28.44,0,.83.13,1.07.27l-.2.58c-.17-.11-.49-.25-.89-.25-.47,0-.73.27-.73.59,0,.36.26.52.83.74.76.29,1.14.67,1.14,1.31,0,.77-.59,1.3-1.63,1.3-.48,0-.92-.12-1.22-.3l.2-.6Z"/>
      <path class="cls-3" d="M381.71,73.91v1.25h1.13v.6h-1.13v2.35c0,.54.15.85.59.85.21,0,.36-.03.46-.05l.04.59c-.15.06-.4.11-.7.11-.37,0-.67-.12-.86-.33-.23-.23-.31-.62-.31-1.13v-2.38h-.67v-.6h.67v-1.04l.77-.21Z"/>
    </g>
  </g>
  <g>
    <g>
      <line class="cls-6" x1="307.5" y1="246" x2="415.16" y2="246"/>
      <polygon class="cls-9" points="411.02 260.13 435.5 246 411.02 231.87 411.02 260.13"/>
    </g>
    <g>
      <rect class="cls-7" x="311.54" y="237.07" width="94.96" height="17.93"/>
      <path class="cls-3" d="M326.66,242.5c.35.22.86.4,1.4.4.8,0,1.27-.42,1.27-1.04,0-.57-.32-.89-1.14-1.21-.99-.35-1.6-.86-1.6-1.72,0-.95.78-1.65,1.96-1.65.62,0,1.07.14,1.34.3l-.22.64c-.2-.11-.6-.29-1.15-.29-.83,0-1.14.5-1.14.91,0,.57.37.85,1.21,1.17,1.03.4,1.55.89,1.55,1.78,0,.94-.69,1.75-2.12,1.75-.58,0-1.22-.17-1.55-.39l.2-.66Z"/>
      <path class="cls-3" d="M331.67,241.42c.02,1.07.7,1.51,1.49,1.51.57,0,.91-.1,1.21-.23l.14.57c-.28.12-.76.27-1.45.27-1.34,0-2.14-.88-2.14-2.2s.77-2.35,2.04-2.35c1.42,0,1.8,1.25,1.8,2.05,0,.16-.02.29-.03.37h-3.06ZM333.99,240.85c0-.5-.21-1.29-1.1-1.29-.8,0-1.15.74-1.21,1.29h2.31Z"/>
      <path class="cls-3" d="M335.74,240.52c0-.56-.02-1.01-.04-1.42h.71l.04.75h.02c.32-.53.84-.85,1.55-.85,1.05,0,1.85.89,1.85,2.21,0,1.57-.95,2.34-1.98,2.34-.58,0-1.08-.25-1.34-.68h-.02v2.37h-.78v-4.72ZM336.52,241.68c0,.12.02.22.04.32.14.55.62.93,1.19.93.84,0,1.32-.69,1.32-1.68,0-.87-.46-1.62-1.3-1.62-.54,0-1.04.39-1.2.98-.03.1-.05.22-.05.32v.75Z"/>
      <path class="cls-3" d="M341.3,241.42c.02,1.07.7,1.51,1.49,1.51.57,0,.91-.1,1.21-.23l.14.57c-.28.12-.76.27-1.45.27-1.34,0-2.14-.88-2.14-2.2s.77-2.35,2.04-2.35c1.42,0,1.8,1.25,1.8,2.05,0,.16-.02.29-.03.37h-3.06ZM343.62,240.85c0-.5-.21-1.29-1.1-1.29-.8,0-1.15.74-1.21,1.29h2.31Z"/>
      <path class="cls-3" d="M345.37,240.46c0-.51,0-.95-.04-1.36h.69l.03.86h.04c.2-.59.68-.96,1.21-.96.09,0,.15,0,.22.03v.75c-.08-.02-.16-.03-.27-.03-.56,0-.96.42-1.06,1.02-.02.11-.04.23-.04.37v2.32h-.78v-3Z"/>
      <path class="cls-3" d="M350.68,243.46l-.06-.55h-.03c-.24.34-.71.65-1.33.65-.88,0-1.33-.62-1.33-1.25,0-1.05.94-1.63,2.62-1.62v-.09c0-.36-.1-1.01-.99-1.01-.41,0-.83.13-1.13.32l-.18-.52c.36-.23.88-.39,1.43-.39,1.33,0,1.66.91,1.66,1.78v1.63c0,.38.02.75.07,1.04h-.72ZM350.56,241.23c-.86-.02-1.85.14-1.85.98,0,.51.34.76.75.76.57,0,.93-.36,1.05-.73.03-.08.04-.17.04-.25v-.76Z"/>
      <path class="cls-3" d="M353.52,237.85v1.25h1.13v.6h-1.13v2.35c0,.54.15.85.59.85.21,0,.36-.03.46-.05l.04.59c-.15.06-.4.11-.7.11-.37,0-.67-.12-.86-.33-.23-.23-.31-.62-.31-1.13v-2.38h-.67v-.6h.67v-1.04l.77-.21Z"/>
      <path class="cls-3" d="M355.93,241.42c.02,1.07.7,1.51,1.49,1.51.57,0,.91-.1,1.21-.23l.14.57c-.28.12-.76.27-1.45.27-1.34,0-2.14-.88-2.14-2.2s.77-2.35,2.04-2.35c1.42,0,1.8,1.25,1.8,2.05,0,.16-.02.29-.03.37h-3.06ZM358.26,240.85c0-.5-.21-1.29-1.1-1.29-.8,0-1.15.74-1.21,1.29h2.31Z"/>
      <path class="cls-3" d="M361.8,242.65c.23.15.65.32,1.04.32.58,0,.85-.29.85-.65s-.22-.58-.81-.8c-.78-.28-1.15-.71-1.15-1.23,0-.7.57-1.28,1.5-1.28.44,0,.83.13,1.07.27l-.2.58c-.17-.11-.49-.25-.89-.25-.47,0-.73.27-.73.59,0,.36.26.52.83.74.76.29,1.14.67,1.14,1.31,0,.76-.59,1.3-1.63,1.3-.48,0-.92-.12-1.22-.3l.2-.6Z"/>
      <path class="cls-3" d="M365.47,240.28c0-.45,0-.82-.04-1.18h.69l.04.7h.03c.24-.41.65-.8,1.37-.8.59,0,1.04.36,1.23.87h.02c.13-.24.31-.43.49-.57.26-.2.55-.31.96-.31.58,0,1.43.38,1.43,1.89v2.57h-.77v-2.47c0-.84-.31-1.34-.95-1.34-.45,0-.8.33-.94.72-.04.11-.06.25-.06.4v2.69h-.77v-2.61c0-.69-.31-1.2-.91-1.2-.5,0-.86.4-.98.79-.04.12-.06.25-.06.39v2.63h-.77v-3.18Z"/>
      <path class="cls-3" d="M375.39,243.46l-.06-.55h-.03c-.24.34-.71.65-1.33.65-.88,0-1.33-.62-1.33-1.25,0-1.05.94-1.63,2.62-1.62v-.09c0-.36-.1-1.01-.99-1.01-.41,0-.83.13-1.13.32l-.18-.52c.36-.23.88-.39,1.43-.39,1.33,0,1.66.91,1.66,1.78v1.63c0,.38.02.75.07,1.04h-.72ZM375.28,241.23c-.86-.02-1.85.14-1.85.98,0,.51.34.76.75.76.57,0,.93-.36,1.05-.73.03-.08.04-.17.04-.25v-.76Z"/>
      <path class="cls-3" d="M377.32,237.06h.79v6.39h-.79v-6.39Z"/>
      <path class="cls-3" d="M379.44,237.06h.79v6.39h-.79v-6.39Z"/>
      <path class="cls-3" d="M382.01,241.42c.02,1.07.7,1.51,1.49,1.51.57,0,.91-.1,1.21-.23l.14.57c-.28.12-.76.27-1.45.27-1.34,0-2.14-.88-2.14-2.2s.77-2.35,2.04-2.35c1.42,0,1.8,1.25,1.8,2.05,0,.16-.02.29-.03.37h-3.06ZM384.33,240.85c0-.5-.21-1.29-1.1-1.29-.8,0-1.15.74-1.21,1.29h2.31Z"/>
      <path class="cls-3" d="M385.97,242.65c.23.15.65.32,1.04.32.58,0,.85-.29.85-.65s-.22-.58-.81-.8c-.78-.28-1.15-.71-1.15-1.23,0-.7.57-1.28,1.5-1.28.44,0,.83.13,1.07.27l-.2.58c-.17-.11-.49-.25-.89-.25-.47,0-.73.27-.73.59,0,.36.26.52.83.74.76.29,1.14.67,1.14,1.31,0,.76-.59,1.3-1.63,1.3-.48,0-.92-.12-1.22-.3l.2-.6Z"/>
      <path class="cls-3" d="M390.59,237.85v1.25h1.13v.6h-1.13v2.35c0,.54.15.85.59.85.21,0,.36-.03.46-.05l.04.59c-.15.06-.4.11-.7.11-.37,0-.67-.12-.86-.33-.23-.23-.31-.62-.31-1.13v-2.38h-.67v-.6h.67v-1.04l.77-.21Z"/>
    </g>
  </g>
  <g>
    <rect class="cls-4" x="444.08" y="185.65" width="145" height="115"/>
    <rect class="cls-5" x="470.08" y="211.65" width="98.41" height="62"/>
    <rect class="cls-1" x="500.08" y="230.65" width="52.45" height="27"/>
    <rect class="cls-8" x="442.58" y="184.15" width="146" height="117"/>
    <g>
      <circle class="cls-3" cx="443.33" cy="184.9" r="7.75"/>
      <path class="cls-5" d="M442.12,186.33l-.7,2.12h-.9l2.29-6.74h1.05l2.3,6.74h-.93l-.72-2.12h-2.39ZM444.33,185.65l-.66-1.94c-.15-.44-.25-.84-.35-1.23h-.02c-.1.4-.21.81-.34,1.22l-.66,1.95h2.03Z"/>
    </g>
    <g>
      <circle class="cls-3" cx="588.22" cy="301.47" r="7.75"/>
      <path class="cls-5" d="M590.78,304.8c-.32.16-.96.32-1.78.32-1.9,0-3.33-1.2-3.33-3.41s1.43-3.54,3.52-3.54c.84,0,1.37.18,1.6.3l-.21.71c-.33-.16-.8-.28-1.36-.28-1.58,0-2.63,1.01-2.63,2.78,0,1.65.95,2.71,2.59,2.71.53,0,1.07-.11,1.42-.28l.18.69Z"/>
    </g>
    <g>
      <circle class="cls-3" cx="442.22" cy="301.47" r="7.75"/>
      <path class="cls-5" d="M440.27,298.37c.38-.08.98-.14,1.59-.14.87,0,1.43.15,1.85.49.35.26.56.66.56,1.19,0,.65-.43,1.22-1.14,1.48v.02c.64.16,1.39.69,1.39,1.69,0,.58-.23,1.02-.57,1.35-.47.43-1.23.63-2.33.63-.6,0-1.06-.04-1.35-.08v-6.63ZM441.14,301.13h.79c.92,0,1.46-.48,1.46-1.13,0-.79-.6-1.1-1.48-1.1-.4,0-.63.03-.77.06v2.17ZM441.14,304.36c.17.03.42.04.73.04.9,0,1.73-.33,1.73-1.31,0-.92-.79-1.3-1.74-1.3h-.72v2.57Z"/>
    </g>
    <g>
      <circle class="cls-3" cx="588.22" cy="184.47" r="7.75"/>
      <path class="cls-5" d="M585.9,181.68c.48-.07,1.04-.13,1.67-.13,1.12,0,1.93.26,2.46.76.54.5.86,1.2.86,2.18s-.31,1.8-.87,2.36c-.57.57-1.5.87-2.68.87-.56,0-1.03-.03-1.42-.07v-5.97ZM586.69,187.04c.2.04.49.04.79.04,1.67,0,2.58-.94,2.58-2.58,0-1.43-.8-2.34-2.46-2.34-.4,0-.71.04-.92.08v4.79Z"/>
    </g>
    <g>
      <rect class="cls-7" x="426.08" y="317.13" width="176" height="23.48"/>
      <path class="cls-3" d="M430.6,329.46v-11.95h2.75v.82h-1.72v10.3h1.72v.82h-2.75Z"/>
      <path class="cls-3" d="M434.86,329.46v-11.95h2.75v.82h-1.72v10.3h1.72v.82h-2.75Z"/>
      <path class="cls-3" d="M440.5,324.6l-1.05,3.18h-1.35l3.44-10.11h1.57l3.45,10.11h-1.39l-1.08-3.18h-3.58ZM443.82,323.58l-.99-2.91c-.22-.66-.38-1.26-.53-1.85h-.03c-.15.6-.31,1.22-.51,1.83l-.99,2.93h3.04Z"/>
      <path class="cls-3" d="M447.15,329.62c.33-.88.74-2.49.9-3.59l1.47-.15c-.35,1.27-1.01,2.94-1.43,3.64l-.94.09Z"/>
      <path class="cls-3" d="M451.15,317.8c.57-.12,1.47-.21,2.38-.21,1.3,0,2.14.22,2.77.73.52.39.84.99.84,1.79,0,.97-.65,1.83-1.71,2.22v.03c.96.24,2.08,1.04,2.08,2.54,0,.87-.34,1.53-.85,2.03-.71.64-1.85.94-3.5.94-.9,0-1.59-.06-2.02-.12v-9.95ZM452.46,321.94h1.18c1.38,0,2.19-.72,2.19-1.7,0-1.19-.9-1.65-2.22-1.65-.6,0-.95.04-1.15.09v3.26ZM452.46,326.79c.25.04.63.06,1.09.06,1.35,0,2.59-.49,2.59-1.96,0-1.38-1.19-1.95-2.61-1.95h-1.08v3.85Z"/>
      <path class="cls-3" d="M458.19,329.62c.33-.88.73-2.49.9-3.59l1.47-.15c-.34,1.27-1,2.94-1.42,3.64l-.95.09Z"/>
      <path class="cls-3" d="M469.26,327.45c-.48.24-1.44.48-2.67.48-2.85,0-5-1.8-5-5.12s2.15-5.31,5.28-5.31c1.26,0,2.05.27,2.4.45l-.31,1.06c-.5-.24-1.2-.42-2.04-.42-2.37,0-3.94,1.52-3.94,4.17,0,2.47,1.42,4.06,3.88,4.06.79,0,1.6-.16,2.13-.42l.27,1.04Z"/>
      <path class="cls-3" d="M469.99,329.62c.33-.88.73-2.49.9-3.59l1.47-.15c-.34,1.27-1,2.94-1.42,3.64l-.95.09Z"/>
      <path class="cls-3" d="M474,317.8c.79-.12,1.74-.21,2.77-.21,1.88,0,3.21.43,4.1,1.26.9.82,1.42,1.99,1.42,3.63s-.51,3-1.46,3.93c-.94.95-2.5,1.46-4.47,1.46-.93,0-1.71-.04-2.37-.12v-9.95ZM475.3,326.74c.33.06.81.08,1.32.08,2.79,0,4.31-1.56,4.31-4.29.01-2.38-1.33-3.9-4.09-3.9-.68,0-1.19.06-1.53.13v7.98Z"/>
      <path class="cls-3" d="M485.77,317.49v11.97h-2.74v-.82h1.72v-10.32h-1.72v-.82h2.74Z"/>
      <path class="cls-3" d="M488.23,329.46v-11.95h2.75v.82h-1.72v10.3h1.72v.82h-2.75Z"/>
      <path class="cls-3" d="M497.64,323.04h-3.93v3.65h4.38v1.09h-5.68v-10.11h5.46v1.1h-4.16v3.2h3.93v1.08Z"/>
      <path class="cls-3" d="M498.82,329.62c.33-.88.74-2.49.9-3.59l1.47-.15c-.35,1.27-1.01,2.94-1.43,3.64l-.94.09Z"/>
      <path class="cls-3" d="M502.83,317.67h5.45v1.1h-4.14v3.36h3.82v1.08h-3.82v4.57h-1.3v-10.11Z"/>
      <path class="cls-3" d="M507.78,329.62c.33-.88.74-2.49.9-3.59l1.47-.15c-.34,1.27-1,2.94-1.42,3.64l-.95.09Z"/>
      <path class="cls-3" d="M519.48,327.33c-.59.21-1.74.55-3.11.55-1.53,0-2.79-.39-3.78-1.33-.87-.84-1.41-2.19-1.41-3.77.02-3.02,2.08-5.22,5.47-5.22,1.17,0,2.08.26,2.52.46l-.31,1.07c-.54-.24-1.21-.44-2.23-.44-2.46,0-4.07,1.53-4.07,4.06s1.54,4.08,3.9,4.08c.86,0,1.44-.12,1.74-.27v-3.02h-2.05v-1.05h3.33v4.86Z"/>
      <path class="cls-3" d="M520.57,329.62c.33-.88.74-2.49.9-3.59l1.47-.15c-.34,1.27-1,2.94-1.42,3.64l-.95.09Z"/>
      <path class="cls-3" d="M525.88,317.67v4.23h4.89v-4.23h1.32v10.11h-1.32v-4.74h-4.89v4.74h-1.3v-10.11h1.3Z"/>
      <path class="cls-3" d="M536.25,317.49v11.97h-2.74v-.82h1.72v-10.32h-1.72v-.82h2.74Z"/>
      <path class="cls-3" d="M540.51,317.49v11.97h-2.74v-.82h1.72v-10.32h-1.72v-.82h2.74Z"/>
      <path class="cls-3" d="M541.98,329.62c.33-.88.74-2.49.9-3.59l1.47-.15c-.34,1.27-1,2.94-1.42,3.64l-.95.09Z"/>
      <path class="cls-3" d="M549.25,329.46v-11.95h2.75v.82h-1.72v10.3h1.72v.82h-2.75Z"/>
      <path class="cls-3" d="M553.51,329.46v-11.95h2.75v.82h-1.72v10.3h1.72v.82h-2.75Z"/>
      <path class="cls-3" d="M557.68,317.67h1.3v9.02h4.32v1.09h-5.62v-10.11Z"/>
      <path class="cls-3" d="M563.86,329.62c.33-.88.74-2.49.9-3.59l1.47-.15c-.34,1.27-1,2.94-1.42,3.64l-.95.09Z"/>
      <path class="cls-3" d="M567.87,317.67h1.3v4.88h.04c.27-.39.54-.75.79-1.08l3.09-3.79h1.62l-3.66,4.29,3.94,5.82h-1.54l-3.33-4.96-.96,1.11v3.85h-1.3v-10.11Z"/>
      <path class="cls-3" d="M575.35,329.62c.33-.88.73-2.49.9-3.59l1.47-.15c-.34,1.27-1,2.94-1.42,3.64l-.95.09Z"/>
      <path class="cls-3" d="M581.43,317.67h1.3v6.77c0,2.68-1.32,3.51-3.06,3.51-.48,0-1.07-.11-1.4-.24l.19-1.06c.27.1.66.19,1.1.19,1.17,0,1.86-.52,1.86-2.5v-6.66Z"/>
      <path class="cls-3" d="M583.83,329.62c.33-.88.73-2.49.9-3.59l1.47-.15c-.34,1.27-1,2.94-1.42,3.64l-.95.09Z"/>
      <path class="cls-3" d="M589.14,317.67v10.11h-1.3v-10.11h1.3Z"/>
      <path class="cls-3" d="M593.31,317.49v11.97h-2.75v-.82h1.72v-10.32h-1.72v-.82h2.75Z"/>
      <path class="cls-3" d="M597.56,317.49v11.97h-2.75v-.82h1.72v-10.32h-1.72v-.82h2.75Z"/>
    </g>
    <rect class="cls-8" x="469.58" y="211.15" width="98.41" height="63"/>
    <rect class="cls-8" x="499.58" y="230.15" width="54.4" height="28"/>
    <g>
      <circle class="cls-3" cx="554.13" cy="229.88" r="7.75"/>
      <path class="cls-5" d="M554.42,226.7h.87v4.51c0,1.79-.88,2.34-2.04,2.34-.32,0-.71-.07-.93-.16l.13-.71c.18.07.44.13.73.13.78,0,1.24-.35,1.24-1.67v-4.44Z"/>
    </g>
    <g>
      <circle class="cls-3" cx="500.13" cy="228.88" r="7.75"/>
      <path class="cls-5" d="M500.56,225.7v6.74h-.87v-6.74h.87Z"/>
    </g>
    <g>
      <circle class="cls-3" cx="568.13" cy="273.88" r="7.75"/>
      <path class="cls-5" d="M570.79,277.13c-.39.14-1.16.37-2.07.37-1.02,0-1.86-.26-2.52-.89-.58-.56-.94-1.46-.94-2.51,0-2.01,1.39-3.48,3.65-3.48.78,0,1.39.17,1.68.31l-.21.71c-.36-.16-.81-.29-1.49-.29-1.64,0-2.71,1.02-2.71,2.71s1.03,2.72,2.6,2.72c.57,0,.96-.08,1.16-.18v-2.01h-1.37v-.7h2.22v3.24Z"/>
    </g>
    <g>
      <circle class="cls-3" cx="469.13" cy="273.88" r="7.75"/>
      <path class="cls-5" d="M467.66,271.01v2.54h2.93v-2.54h.79v6.07h-.79v-2.84h-2.93v2.84h-.78v-6.07h.78Z"/>
    </g>
    <g>
      <circle class="cls-3" cx="568.13" cy="209.88" r="7.75"/>
      <path class="cls-5" d="M566.45,206.7h3.63v.73h-2.76v2.24h2.55v.72h-2.55v3.05h-.87v-6.74Z"/>
    </g>
    <g>
      <circle class="cls-3" cx="469.13" cy="210.88" r="7.75"/>
      <path class="cls-5" d="M470.92,211.27h-2.62v2.43h2.92v.73h-3.79v-6.74h3.64v.73h-2.77v2.13h2.62v.72Z"/>
    </g>
    <g>
      <circle class="cls-3" cx="556.13" cy="259.88" r="7.75"/>
      <path class="cls-5" d="M554.18,256.7h.87v3.25h.03c.18-.26.36-.5.53-.72l2.06-2.53h1.08l-2.44,2.86,2.63,3.88h-1.03l-2.22-3.31-.64.74v2.57h-.87v-6.74Z"/>
    </g>
    <g>
      <circle class="cls-3" cx="499.13" cy="259.88" r="7.75"/>
      <path class="cls-5" d="M497.53,256.7h.87v6.01h2.88v.73h-3.75v-6.74Z"/>
    </g>
  </g>
  <g>
    <rect class="cls-7" x="274.68" y="45.38" width="45.04" height="70.6"/>
    <path class="cls-2" d="M282.89,61.65l4.97,7.49c1.3,1.94,2.38,3.74,3.53,5.69h.22c1.15-2.09,2.3-3.89,3.46-5.76l4.9-7.42h6.84l-11.88,16.85,12.24,18h-7.2l-5.11-7.85c-1.37-2.02-2.52-3.96-3.75-6.05h-.14c-1.15,2.09-2.38,3.96-3.67,6.05l-5.04,7.85h-6.98l12.38-17.79-11.81-17.07h7.06Z"/>
  </g>
  <path class="cls-10" d="M283.91,227.71l6.84,19.58c1.15,3.17,2.09,6.05,2.81,8.93h.21c.79-2.88,1.8-5.76,2.95-8.93l6.77-19.58h6.62l-13.68,34.85h-6.05l-13.25-34.85h6.77Z"/>
  <g>
    <g>
      <line class="cls-9" x1="184.93" y1="160.51" x2="306.62" y2="159.65"/>
      <g>
        <line class="cls-6" x1="184.93" y1="160.51" x2="286.28" y2="159.79"/>
        <polygon class="cls-9" points="282.25 173.96 306.62 159.65 282.05 145.69 282.25 173.96"/>
      </g>
    </g>
    <g>
      <rect class="cls-7" x="187.83" y="151.89" width="95.07" height="30.77" transform="translate(-1.18 1.67) rotate(-.41)"/>
      <path class="cls-3" d="M191.23,152.52l.02,3.59c0,1.36.59,1.93,1.36,1.93.86,0,1.4-.61,1.39-1.95l-.02-3.59h.75s.02,3.53.02,3.53c.01,1.86-.92,2.63-2.17,2.64-1.18,0-2.08-.7-2.09-2.58l-.02-3.57h.75Z"/>
      <path class="cls-3" d="M195.87,157.74c.22.15.62.31,1,.31.55,0,.8-.29.8-.65,0-.38-.22-.58-.78-.8-.75-.27-1.1-.7-1.1-1.23,0-.7.53-1.28,1.42-1.29.42,0,.79.12,1.02.26l-.18.58c-.16-.11-.46-.25-.85-.25-.45,0-.69.28-.69.6,0,.36.25.52.79.73.72.28,1.09.66,1.1,1.31,0,.77-.56,1.31-1.54,1.32-.45,0-.87-.11-1.17-.29l.18-.6Z"/>
      <path class="cls-3" d="M199.78,156.49c.02,1.07.68,1.51,1.43,1.5.54,0,.86-.1,1.15-.23l.13.57c-.26.13-.72.27-1.38.28-1.28,0-2.04-.87-2.05-2.18,0-1.31.72-2.36,1.93-2.36,1.35,0,1.72,1.24,1.73,2.04,0,.16-.02.29-.02.37l-2.91.02ZM201.98,155.91c0-.5-.2-1.29-1.05-1.28-.76,0-1.09.75-1.15,1.29h2.2Z"/>
      <path class="cls-3" d="M203.64,155.5c0-.51-.01-.95-.04-1.36h.66s.03.85.03.85h.03c.18-.59.64-.96,1.14-.96.09,0,.15,0,.21.03v.75c-.07-.02-.15-.03-.25-.03-.53,0-.91.43-1,1.03-.02.11-.03.23-.03.37l.02,2.32h-.75s-.02-2.99-.02-2.99Z"/>
      <path class="cls-3" d="M208.25,155.47c0-.51-.01-.95-.04-1.36h.66s.03.85.03.85h.03c.18-.59.64-.96,1.14-.96.09,0,.15,0,.21.02v.75c-.07-.02-.15-.03-.25-.03-.53,0-.91.43-1,1.02-.02.11-.03.23-.03.37l.02,2.32h-.75s-.02-2.99-.02-2.99Z"/>
      <path class="cls-3" d="M211.39,156.41c.02,1.07.68,1.51,1.43,1.5.54,0,.86-.1,1.15-.23l.13.57c-.26.13-.72.27-1.38.28-1.28,0-2.04-.87-2.05-2.18,0-1.31.72-2.35,1.93-2.36,1.35,0,1.72,1.24,1.73,2.04,0,.16-.02.29-.02.37l-2.91.02ZM213.59,155.82c0-.5-.2-1.29-1.05-1.28-.76,0-1.09.75-1.15,1.29l2.2-.02Z"/>
      <path class="cls-3" d="M218.09,157.72h-.02c-.22.43-.68.78-1.35.78-.97,0-1.76-.87-1.77-2.19,0-1.63.99-2.36,1.86-2.36.64,0,1.07.33,1.28.75h.02l.02-.66h.71c-.01.36-.02.74-.02,1.19l.03,4.94h-.75s-.02-2.45-.02-2.45ZM218.08,155.8c0-.11-.01-.23-.04-.33-.11-.49-.52-.9-1.08-.89-.78,0-1.25.7-1.24,1.68,0,.86.4,1.62,1.23,1.61.49,0,.91-.32,1.07-.87.03-.11.06-.26.06-.38v-.82Z"/>
      <path class="cls-3" d="M223.54,157.17c0,.45.01.85.04,1.19h-.67s-.05-.71-.05-.71h-.02c-.19.35-.63.81-1.36.82-.65,0-1.43-.37-1.44-1.9l-.02-2.55h.75s.02,2.41.02,2.41c0,.83.25,1.38.93,1.38.5,0,.85-.38.99-.73.04-.12.07-.26.07-.41l-.02-2.67h.75s.02,3.16.02,3.16Z"/>
      <path class="cls-3" d="M225.6,152.76c0,.27-.18.49-.48.49-.26,0-.46-.21-.46-.48,0-.28.19-.5.47-.5.28,0,.46.21.47.49ZM224.8,158.35l-.03-4.36h.75s.03,4.35.03,4.35h-.75Z"/>
      <path class="cls-3" d="M226.78,155.33c0-.51-.01-.95-.04-1.36h.66s.03.85.03.85h.03c.18-.59.64-.96,1.14-.96.09,0,.15,0,.21.03v.75c-.07-.02-.15-.03-.25-.03-.53,0-.91.43-1,1.03-.02.11-.03.23-.03.37v2.32s-.73,0-.73,0l-.02-3Z"/>
      <path class="cls-3" d="M229.92,156.28c.02,1.07.68,1.51,1.43,1.5.54,0,.86-.1,1.14-.23l.13.57c-.26.13-.72.27-1.38.28-1.28,0-2.04-.87-2.05-2.18,0-1.31.72-2.35,1.93-2.36,1.35,0,1.72,1.24,1.72,2.04,0,.16-.02.29-.02.37l-2.91.02ZM232.12,155.69c0-.5-.21-1.29-1.05-1.28-.76,0-1.09.75-1.15,1.3l2.2-.02Z"/>
      <path class="cls-3" d="M233.78,155.11c0-.45-.01-.82-.04-1.18h.66s.04.7.04.7h.03c.23-.42.61-.81,1.3-.81.56,0,.99.35,1.18.87h.02c.13-.24.29-.44.46-.57.25-.2.52-.31.91-.31.55,0,1.36.37,1.37,1.88l.02,2.57h-.74s-.02-2.46-.02-2.46c0-.84-.3-1.34-.91-1.33-.43,0-.76.34-.89.73-.03.11-.06.25-.06.4l.02,2.69h-.74s-.02-2.6-.02-2.6c0-.69-.3-1.2-.87-1.19-.47,0-.81.4-.93.8-.04.12-.06.25-.06.39l.02,2.63h-.74s-.02-3.17-.02-3.17Z"/>
      <path class="cls-3" d="M241.34,156.2c.02,1.07.68,1.51,1.43,1.5.54,0,.86-.1,1.14-.23l.13.57c-.26.13-.72.27-1.38.28-1.28,0-2.04-.87-2.05-2.18,0-1.31.72-2.35,1.93-2.36,1.35,0,1.72,1.24,1.72,2.04,0,.16-.02.29-.02.37l-2.91.02ZM243.55,155.61c0-.5-.21-1.29-1.05-1.28-.76,0-1.09.75-1.15,1.3l2.2-.02Z"/>
      <path class="cls-3" d="M245.2,155.02c0-.45-.01-.82-.04-1.18h.67s.05.72.05.72h.02c.2-.42.68-.82,1.36-.83.57,0,1.47.35,1.48,1.84l.02,2.6h-.75s-.02-2.51-.02-2.51c0-.7-.26-1.29-.97-1.28-.5,0-.88.38-1,.82-.03.1-.05.23-.05.37l.02,2.62h-.75s-.02-3.17-.02-3.17Z"/>
      <path class="cls-3" d="M250.81,152.55v1.25s1.09,0,1.09,0v.6s-1.08,0-1.08,0l.02,2.35c0,.54.15.84.57.84.2,0,.34-.03.44-.06l.04.59c-.15.06-.38.11-.67.11-.35,0-.63-.11-.82-.33-.21-.23-.29-.62-.3-1.13l-.02-2.38h-.64s0-.6,0-.6h.64s0-1.05,0-1.05l.73-.21Z"/>
      <path class="cls-3" d="M255.45,152.52v1.25s1.09,0,1.09,0v.6s-1.08,0-1.08,0l.02,2.35c0,.54.15.84.57.84.2,0,.34-.03.44-.06l.04.59c-.15.06-.38.11-.67.11-.35,0-.63-.11-.82-.33-.21-.23-.29-.62-.3-1.13l-.02-2.38h-.64s0-.6,0-.6h.64s0-1.05,0-1.05l.73-.21Z"/>
      <path class="cls-3" d="M261.1,155.87c0,1.61-1.05,2.32-2.05,2.33-1.12,0-1.99-.85-2-2.23,0-1.46.89-2.32,2.04-2.33,1.19,0,2,.89,2.01,2.23ZM257.81,155.94c0,.95.53,1.67,1.27,1.67.72,0,1.25-.72,1.25-1.7,0-.74-.36-1.67-1.25-1.67-.89,0-1.27.87-1.26,1.7Z"/>
      <path class="cls-3" d="M264.6,155.71h.02c.1-.15.25-.34.36-.5l1.21-1.51h.91s-1.59,1.8-1.59,1.8l1.84,2.55h-.92s-1.44-2.07-1.44-2.07l-.38.45v1.64s-.73,0-.73,0l-.04-6.39h.75s.03,4.03.03,4.03Z"/>
      <path class="cls-3" d="M268.29,156c.02,1.07.68,1.51,1.43,1.5.54,0,.86-.11,1.15-.23l.13.57c-.26.13-.72.27-1.38.28-1.28,0-2.04-.87-2.05-2.18,0-1.31.72-2.35,1.93-2.36,1.35,0,1.72,1.24,1.72,2.04,0,.16-.02.29-.02.37l-2.91.02ZM270.5,155.42c0-.5-.21-1.29-1.05-1.28-.76,0-1.09.75-1.15,1.29l2.2-.02Z"/>
      <path class="cls-3" d="M272.58,155.97c.02,1.07.68,1.51,1.43,1.5.54,0,.86-.11,1.15-.23l.13.57c-.26.13-.72.28-1.38.28-1.28,0-2.04-.87-2.05-2.18,0-1.31.72-2.35,1.93-2.36,1.35,0,1.72,1.24,1.72,2.04,0,.16-.02.29-.02.37l-2.91.02ZM274.78,155.39c0-.5-.21-1.29-1.05-1.28-.76,0-1.09.74-1.15,1.29l2.2-.02Z"/>
      <path class="cls-3" d="M276.44,155.05c0-.56-.02-1.01-.04-1.42h.68s.04.74.04.74h.02c.3-.53.79-.85,1.47-.86,1,0,1.76.88,1.77,2.2.01,1.57-.89,2.35-1.87,2.35-.55,0-1.03-.24-1.28-.67h-.02l.02,2.37h-.74s-.03-4.71-.03-4.71ZM277.19,156.2c0,.12.02.22.04.32.14.55.6.92,1.14.92.8,0,1.25-.69,1.25-1.69,0-.87-.45-1.62-1.24-1.61-.51,0-.99.39-1.13.99-.02.1-.05.22-.05.32v.75Z"/>
      <path class="cls-3" d="M215.27,167.18c.02,1.07.68,1.51,1.43,1.5.54,0,.86-.1,1.15-.23l.13.57c-.26.13-.72.27-1.38.28-1.28,0-2.04-.87-2.05-2.18,0-1.31.72-2.36,1.93-2.36,1.35,0,1.72,1.24,1.73,2.04,0,.16-.02.29-.02.37l-2.91.02ZM217.48,166.6c0-.5-.21-1.29-1.05-1.28-.76,0-1.09.75-1.15,1.3h2.2Z"/>
      <path class="cls-3" d="M219.42,164.83l.83,2.44c.14.39.25.75.34,1.11h.03c.09-.36.21-.72.34-1.12l.79-2.46h.79s-1.6,4.36-1.6,4.36h-.72s-1.6-4.34-1.6-4.34h.8Z"/>
      <path class="cls-3" d="M223.59,167.12c.02,1.07.68,1.51,1.43,1.5.54,0,.86-.1,1.15-.23l.13.57c-.26.13-.72.27-1.38.28-1.28,0-2.04-.87-2.05-2.18,0-1.31.72-2.35,1.93-2.36,1.35,0,1.72,1.24,1.73,2.04,0,.16-.02.29-.02.37l-2.91.02ZM225.79,166.54c0-.5-.21-1.29-1.05-1.28-.76,0-1.09.75-1.15,1.3l2.2-.02Z"/>
      <path class="cls-3" d="M227.45,166.13c0-.51-.01-.95-.04-1.36h.66s.03.85.03.85h.03c.18-.59.64-.96,1.14-.96.09,0,.15,0,.21.02v.75c-.07-.02-.15-.03-.25-.03-.53,0-.91.43-1,1.02-.02.11-.03.23-.03.37v2.32s-.73,0-.73,0l-.02-3Z"/>
      <path class="cls-3" d="M230.73,164.75l.92,2.57c.1.29.2.63.27.89h.02c.08-.26.16-.6.26-.91l.8-2.56h.8s-1.11,3.11-1.11,3.11c-.53,1.5-.89,2.27-1.4,2.74-.37.34-.73.48-.92.52l-.19-.66c.19-.06.44-.19.66-.39.2-.17.46-.48.63-.89.03-.08.06-.14.06-.19s-.02-.11-.05-.21l-1.56-4h.82Z"/>
      <path class="cls-3" d="M235.38,163.46v1.25s1.09,0,1.09,0v.6s-1.08,0-1.08,0l.02,2.35c0,.54.15.84.57.84.2,0,.34-.03.44-.06l.04.59c-.15.06-.38.11-.67.11-.35,0-.63-.11-.82-.33-.21-.23-.29-.62-.3-1.13l-.02-2.38h-.64s0-.6,0-.6h.64s0-1.05,0-1.05l.74-.21Z"/>
      <path class="cls-3" d="M237.3,162.67h.75s.02,2.71.02,2.71h.02c.12-.23.3-.43.54-.56.22-.14.49-.23.77-.23.56,0,1.45.35,1.46,1.85l.02,2.59h-.75s-.02-2.5-.02-2.5c0-.7-.26-1.29-.97-1.29-.49,0-.87.37-1,.8-.04.11-.05.22-.05.38l.02,2.63h-.75s-.04-6.39-.04-6.39Z"/>
      <path class="cls-3" d="M242.89,163.44c.01.27-.18.49-.48.49-.27,0-.46-.21-.46-.48,0-.28.19-.5.47-.5.28,0,.46.21.46.49ZM242.09,169.02l-.03-4.36h.75s.03,4.35.03,4.35h-.75Z"/>
      <path class="cls-3" d="M244.07,165.83c0-.45-.01-.82-.04-1.18h.67s.05.71.05.71h.02c.2-.42.68-.82,1.36-.83.57,0,1.46.35,1.47,1.84l.02,2.6h-.75s-.02-2.51-.02-2.51c0-.7-.26-1.29-.97-1.28-.5,0-.88.38-1,.82-.03.1-.05.23-.05.37l.02,2.62h-.75s-.02-3.17-.02-3.17Z"/>
      <path class="cls-3" d="M252.38,164.59c-.01.32-.03.67-.03,1.2l.02,2.53c0,1-.18,1.61-.58,1.99-.4.4-.98.53-1.5.53-.5,0-1.05-.12-1.38-.35l.18-.6c.28.18.7.34,1.22.33.77,0,1.33-.43,1.33-1.53v-.49h-.02c-.23.41-.67.73-1.31.74-1.03,0-1.77-.91-1.78-2.11,0-1.48.9-2.32,1.85-2.33.72,0,1.12.39,1.3.75h.02l.03-.66h.66ZM251.61,166.32c0-.13,0-.25-.04-.36-.14-.46-.51-.83-1.06-.83-.72,0-1.23.65-1.22,1.66,0,.86.42,1.56,1.23,1.56.46,0,.88-.31,1.04-.82.04-.13.06-.29.06-.42v-.78Z"/>
      <path class="cls-3" d="M254.2,167.22l-.02-.23c-.05-.49.1-1.02.52-1.56.38-.48.59-.83.59-1.24,0-.46-.28-.76-.82-.77-.31,0-.65.11-.86.29l-.21-.57c.28-.22.77-.37,1.22-.37.98,0,1.43.63,1.44,1.31,0,.61-.32,1.06-.73,1.57-.37.47-.51.87-.48,1.33v.23s-.66,0-.66,0ZM254.02,168.48c0-.33.21-.57.51-.57.3,0,.51.23.51.56,0,.32-.19.56-.51.56-.3,0-.51-.24-.51-.55Z"/>
    </g>
  </g>
</svg>