<?xml version="1.0" encoding="UTF-8"?>
<svg id="Polygon" xmlns="http://www.w3.org/2000/svg" viewBox="0 0 638.58 348.6">
  <defs>
    <style>
      .cls-1 {
        fill: #c92027;
      }

      .cls-2 {
        fill: #231f20;
      }

      .cls-3 {
        fill: #6dbae7;
        opacity: .31;
      }

      .cls-4 {
        fill: #fff;
      }

      .cls-5 {
        stroke: #9b9a9a;
      }

      .cls-5, .cls-6, .cls-7 {
        fill: none;
      }

      .cls-5, .cls-7 {
        stroke-miterlimit: 10;
        stroke-width: 2.83px;
      }

      .cls-8 {
        fill: #9b9a9a;
      }

      .cls-7 {
        stroke: #437898;
      }

      .cls-9 {
        fill: #39b54a;
      }
    </style>
  </defs>
  <g>
    <rect class="cls-3" x="31.67" y="20.57" width="145" height="66"/>
    <rect class="cls-7" x="30.17" y="20.07" width="146" height="67"/>
    <g>
      <circle class="cls-2" cx="29.92" cy="17.82" r="7.75"/>
      <path class="cls-4" d="M28.71,19.25l-.7,2.12h-.9l2.29-6.74h1.05l2.3,6.74h-.93l-.72-2.12h-2.39ZM30.92,18.57l-.66-1.94c-.15-.44-.25-.84-.35-1.23h-.02c-.1.4-.21.81-.34,1.22l-.66,1.95h2.03Z"/>
    </g>
    <g>
      <circle class="cls-2" cx="175.8" cy="87.39" r="7.75"/>
      <path class="cls-4" d="M178.37,90.72c-.32.16-.96.32-1.78.32-1.9,0-3.33-1.2-3.33-3.41s1.43-3.54,3.52-3.54c.84,0,1.37.18,1.6.3l-.21.71c-.33-.16-.8-.28-1.36-.28-1.58,0-2.63,1.01-2.63,2.78,0,1.65.95,2.71,2.59,2.71.53,0,1.07-.11,1.42-.28l.18.69Z"/>
    </g>
    <g>
      <circle class="cls-2" cx="29.8" cy="87.39" r="7.75"/>
      <path class="cls-4" d="M27.85,84.29c.38-.08.98-.14,1.59-.14.87,0,1.43.15,1.85.49.35.26.56.66.56,1.19,0,.65-.43,1.22-1.14,1.48v.02c.64.16,1.39.69,1.39,1.69,0,.58-.23,1.02-.57,1.35-.47.43-1.23.63-2.33.63-.6,0-1.06-.04-1.35-.08v-6.63ZM28.72,87.05h.79c.92,0,1.46-.48,1.46-1.13,0-.79-.6-1.1-1.48-1.1-.4,0-.63.03-.77.06v2.17ZM28.72,90.28c.17.03.42.04.73.04.9,0,1.73-.33,1.73-1.31,0-.92-.79-1.3-1.74-1.3h-.72v2.57Z"/>
    </g>
    <g>
      <circle class="cls-2" cx="174.8" cy="17.39" r="7.75"/>
      <path class="cls-4" d="M172.49,14.6c.48-.07,1.04-.13,1.67-.13,1.13,0,1.93.26,2.46.76.54.5.86,1.2.86,2.18s-.31,1.8-.87,2.36c-.57.57-1.5.87-2.68.87-.56,0-1.03-.03-1.42-.07v-5.97ZM173.27,19.96c.2.04.49.04.79.04,1.67,0,2.58-.94,2.58-2.57,0-1.43-.8-2.34-2.46-2.34-.41,0-.71.04-.92.08v4.79Z"/>
    </g>
    <g>
      <rect class="cls-6" x="36.15" y="103.05" width="134.61" height="23.48"/>
      <path class="cls-2" d="M73.74,115.37v-11.95h2.74v.83h-1.72v10.3h1.72v.83h-2.74Z"/>
      <path class="cls-2" d="M78,115.37v-11.95h2.74v.83h-1.72v10.3h1.72v.83h-2.74Z"/>
      <path class="cls-2" d="M83.64,110.52l-1.05,3.18h-1.35l3.44-10.11h1.57l3.45,10.11h-1.4l-1.08-3.18h-3.58ZM86.95,109.49l-.99-2.91c-.22-.66-.38-1.26-.52-1.85h-.03c-.15.6-.31,1.22-.51,1.83l-.99,2.92h3.04Z"/>
      <path class="cls-2" d="M90.28,115.54c.33-.88.73-2.49.9-3.58l1.47-.15c-.34,1.27-1,2.94-1.42,3.64l-.94.09Z"/>
      <path class="cls-2" d="M94.29,103.72c.57-.12,1.47-.21,2.38-.21,1.3,0,2.15.22,2.77.74.52.39.84.99.84,1.78,0,.98-.65,1.83-1.71,2.22v.03c.96.24,2.08,1.04,2.08,2.54,0,.87-.34,1.53-.85,2.03-.71.64-1.84.94-3.49.94-.9,0-1.59-.06-2.02-.12v-9.94ZM95.59,107.86h1.19c1.38,0,2.19-.72,2.19-1.69,0-1.19-.9-1.65-2.22-1.65-.6,0-.94.04-1.15.09v3.25ZM95.59,112.7c.25.04.63.06,1.1.06,1.35,0,2.59-.5,2.59-1.96,0-1.38-1.19-1.95-2.61-1.95h-1.08v3.85Z"/>
      <path class="cls-2" d="M101.32,115.54c.33-.88.73-2.49.9-3.58l1.47-.15c-.34,1.27-1,2.94-1.42,3.64l-.94.09Z"/>
      <path class="cls-2" d="M112.39,113.36c-.48.24-1.44.48-2.67.48-2.85,0-4.99-1.8-4.99-5.12s2.15-5.31,5.28-5.31c1.26,0,2.05.27,2.4.45l-.31,1.06c-.5-.24-1.2-.42-2.04-.42-2.37,0-3.94,1.51-3.94,4.17,0,2.47,1.42,4.06,3.88,4.06.79,0,1.6-.17,2.13-.42l.27,1.04Z"/>
      <path class="cls-2" d="M113.13,115.54c.33-.88.73-2.49.9-3.58l1.47-.15c-.34,1.27-1,2.94-1.42,3.64l-.94.09Z"/>
      <path class="cls-2" d="M117.13,103.72c.79-.12,1.74-.21,2.77-.21,1.87,0,3.21.43,4.09,1.26.9.83,1.42,2,1.42,3.63s-.51,3-1.46,3.93c-.94.95-2.5,1.46-4.47,1.46-.93,0-1.71-.04-2.37-.12v-9.94ZM118.44,112.66c.33.06.81.08,1.32.08,2.79,0,4.31-1.56,4.31-4.29.01-2.38-1.33-3.9-4.1-3.9-.67,0-1.18.06-1.53.13v7.98Z"/>
      <path class="cls-2" d="M128.91,103.4v11.97h-2.74v-.83h1.72v-10.32h-1.72v-.83h2.74Z"/>
      <path class="cls-2" d="M133.17,103.4v11.97h-2.74v-.83h1.72v-10.32h-1.72v-.83h2.74Z"/>
    </g>
  </g>
  <g>
    <path class="cls-3" d="M29.67,145.57s1.64-2.77,3.82-4.88c2.18-2.12,139.68-5.62,139.68-5.62l1.28,12.32-141.98-.95"/>
    <line class="cls-7" x1="29.67" y1="145.57" x2="174.17" y2="145.57"/>
    <line class="cls-7" x1="176.17" y1="135.07" x2="32.17" y2="142.07"/>
    <line class="cls-7" x1="173.17" y1="145.07" x2="173.17" y2="135.07"/>
    <g>
      <circle class="cls-2" cx="173.47" cy="144.68" r="7.75"/>
      <path class="cls-4" d="M176.03,148.01c-.32.16-.96.32-1.78.32-1.9,0-3.33-1.2-3.33-3.41s1.43-3.54,3.52-3.54c.84,0,1.37.18,1.6.3l-.21.71c-.33-.16-.8-.28-1.36-.28-1.58,0-2.63,1.01-2.63,2.78,0,1.65.95,2.71,2.59,2.71.53,0,1.07-.11,1.42-.28l.18.69Z"/>
    </g>
    <g>
      <circle class="cls-2" cx="172.75" cy="131.75" r="7.75"/>
      <path class="cls-4" d="M170.44,128.95c.48-.07,1.04-.13,1.67-.13,1.13,0,1.93.26,2.46.76.54.5.86,1.2.86,2.18s-.31,1.8-.87,2.36c-.57.57-1.5.87-2.68.87-.56,0-1.03-.03-1.42-.07v-5.97ZM171.22,134.32c.2.04.49.04.79.04,1.67,0,2.58-.94,2.58-2.57,0-1.43-.8-2.34-2.46-2.34-.41,0-.71.04-.92.08v4.79Z"/>
    </g>
    <g>
      <circle class="cls-2" cx="33.47" cy="139.68" r="7.75"/>
      <path class="cls-4" d="M32.26,141.11l-.7,2.12h-.9l2.29-6.74h1.05l2.3,6.74h-.93l-.72-2.12h-2.39ZM34.46,140.44l-.66-1.94c-.15-.44-.25-.84-.35-1.23h-.02c-.1.4-.21.81-.34,1.22l-.66,1.95h2.03Z"/>
    </g>
    <g>
      <rect class="cls-6" x="37.99" y="158.01" width="134.61" height="23.48"/>
      <path class="cls-2" d="M82.32,165.26c.47.29,1.15.53,1.87.53,1.07,0,1.69-.56,1.69-1.38,0-.76-.43-1.19-1.52-1.61-1.32-.47-2.13-1.15-2.13-2.29,0-1.26,1.04-2.2,2.61-2.2.83,0,1.43.19,1.79.4l-.29.85c-.26-.14-.8-.38-1.54-.38-1.1,0-1.52.66-1.52,1.21,0,.76.49,1.13,1.61,1.56,1.37.53,2.06,1.19,2.06,2.37,0,1.25-.92,2.33-2.83,2.33-.78,0-1.63-.23-2.06-.52l.26-.88Z"/>
      <path class="cls-2" d="M89.52,159.1c.01.36-.25.65-.67.65-.37,0-.64-.29-.64-.65s.28-.66.66-.66.65.29.65.66ZM88.35,166.53v-5.8h1.06v5.8h-1.06Z"/>
      <path class="cls-2" d="M96.17,158.02v7.02c0,.52.01,1.1.05,1.5h-.95l-.05-1.01h-.02c-.32.65-1.03,1.14-1.98,1.14-1.4,0-2.48-1.19-2.48-2.95-.01-1.93,1.19-3.12,2.6-3.12.89,0,1.49.42,1.75.89h.02v-3.47h1.06ZM95.11,163.09c0-.13-.01-.31-.05-.44-.16-.67-.73-1.22-1.52-1.22-1.09,0-1.74.96-1.74,2.24,0,1.17.58,2.15,1.72,2.15.71,0,1.35-.47,1.55-1.26.04-.14.05-.29.05-.46v-1.01Z"/>
      <path class="cls-2" d="M98.51,163.82c.02,1.43.94,2.02,1.99,2.02.76,0,1.21-.13,1.61-.3l.18.75c-.37.17-1.01.36-1.93.36-1.79,0-2.85-1.18-2.85-2.93s1.03-3.13,2.72-3.13c1.9,0,2.4,1.67,2.4,2.73,0,.22-.02.38-.04.49h-4.08ZM101.61,163.07c.01-.67-.28-1.72-1.46-1.72-1.07,0-1.54.98-1.62,1.72h3.08Z"/>
      <path class="cls-2" d="M106.89,160.73l1.14,3.26c.19.53.35,1.01.47,1.49h.04c.13-.48.3-.96.49-1.49l1.13-3.26h1.1l-2.28,5.8h-1.01l-2.21-5.8h1.13Z"/>
      <path class="cls-2" d="M113.43,159.1c.01.36-.25.65-.67.65-.37,0-.64-.29-.64-.65s.28-.66.66-.66.65.29.65.66ZM112.25,166.53v-5.8h1.06v5.8h-1.06Z"/>
      <path class="cls-2" d="M115.65,163.82c.02,1.43.94,2.02,1.99,2.02.76,0,1.21-.13,1.61-.3l.18.75c-.37.17-1.01.36-1.93.36-1.79,0-2.85-1.18-2.85-2.93s1.03-3.13,2.72-3.13c1.9,0,2.4,1.67,2.4,2.73,0,.22-.02.38-.04.49h-4.08ZM118.74,163.07c.01-.67-.28-1.72-1.46-1.72-1.07,0-1.54.98-1.62,1.72h3.08Z"/>
      <path class="cls-2" d="M121.49,160.73l.77,2.95c.17.65.32,1.25.43,1.85h.04c.13-.59.32-1.21.52-1.83l.95-2.96h.89l.9,2.9c.22.7.38,1.31.52,1.89h.04c.1-.59.25-1.2.44-1.88l.83-2.91h1.04l-1.87,5.8h-.96l-.89-2.77c-.2-.65-.37-1.22-.52-1.91h-.02c-.14.7-.32,1.3-.53,1.92l-.94,2.76h-.96l-1.75-5.8h1.08Z"/>
    </g>
    <g>
      <circle class="cls-2" cx="31.26" cy="144.47" r="7.75"/>
      <path class="cls-4" d="M29.31,141.38c.38-.08.98-.14,1.59-.14.87,0,1.43.15,1.85.49.35.26.56.66.56,1.19,0,.65-.43,1.22-1.14,1.48v.02c.64.16,1.39.69,1.39,1.69,0,.58-.23,1.02-.57,1.35-.47.43-1.23.63-2.33.63-.6,0-1.06-.04-1.35-.08v-6.63ZM30.17,144.14h.79c.92,0,1.46-.48,1.46-1.13,0-.79-.6-1.1-1.48-1.1-.4,0-.63.03-.77.06v2.17ZM30.17,147.36c.17.03.42.04.73.04.9,0,1.73-.33,1.73-1.31,0-.92-.79-1.3-1.74-1.3h-.72v2.57Z"/>
    </g>
  </g>
  <g>
    <g>
      <line class="cls-5" x1="320.67" y1="81.07" x2="428.33" y2="81.07"/>
      <polygon class="cls-8" points="424.19 95.2 448.67 81.07 424.19 66.93 424.19 95.2"/>
    </g>
    <g>
      <rect class="cls-6" x="322.71" y="72.13" width="94.96" height="17.93"/>
      <path class="cls-2" d="M326.4,72.53c.38-.06.87-.12,1.5-.12.77,0,1.34.18,1.7.5.33.29.53.73.53,1.27s-.16.98-.47,1.3c-.41.44-1.09.67-1.85.67-.23,0-.45,0-.63-.05v2.43h-.78v-6ZM327.18,75.45c.17.04.39.06.65.06.95,0,1.52-.46,1.52-1.3s-.57-1.19-1.43-1.19c-.34,0-.6.03-.74.06v2.36Z"/>
      <path class="cls-2" d="M331.02,75.52c0-.51,0-.95-.04-1.36h.69l.03.86h.04c.2-.58.68-.95,1.21-.95.09,0,.15,0,.22.03v.75c-.08-.02-.16-.03-.27-.03-.56,0-.96.42-1.06,1.02-.02.11-.04.23-.04.37v2.32h-.78v-3Z"/>
      <path class="cls-2" d="M337.81,76.31c0,1.61-1.12,2.31-2.17,2.31-1.18,0-2.09-.86-2.09-2.24,0-1.46.96-2.31,2.16-2.31s2.1.91,2.1,2.24ZM334.36,76.35c0,.95.55,1.67,1.32,1.67s1.32-.71,1.32-1.69c0-.74-.37-1.67-1.31-1.67s-1.34.86-1.34,1.69Z"/>
      <path class="cls-2" d="M337.75,79.78c.36-.03.68-.13.86-.33.22-.25.3-.59.3-1.64v-3.65h.79v3.95c0,.85-.14,1.39-.52,1.79-.35.35-.93.5-1.35.5l-.08-.62ZM339.79,72.94c0,.26-.18.49-.5.49-.3,0-.49-.22-.49-.49,0-.28.21-.5.5-.5s.48.22.48.5Z"/>
      <path class="cls-2" d="M341.44,76.49c.02,1.07.7,1.51,1.49,1.51.57,0,.91-.1,1.21-.22l.14.57c-.28.13-.76.27-1.45.27-1.34,0-2.14-.88-2.14-2.2s.77-2.35,2.04-2.35c1.42,0,1.8,1.25,1.8,2.05,0,.16-.02.29-.03.37h-3.06ZM343.76,75.92c0-.5-.21-1.29-1.1-1.29-.8,0-1.15.74-1.21,1.29h2.31Z"/>
      <path class="cls-2" d="M348.61,78.36c-.21.11-.67.25-1.25.25-1.31,0-2.17-.89-2.17-2.22s.92-2.31,2.34-2.31c.47,0,.88.12,1.1.23l-.18.61c-.19-.11-.49-.21-.92-.21-1,0-1.54.74-1.54,1.65,0,1.01.65,1.63,1.51,1.63.45,0,.75-.12.97-.22l.13.59Z"/>
      <path class="cls-2" d="M350.61,72.91v1.25h1.13v.6h-1.13v2.35c0,.54.15.85.59.85.21,0,.36-.03.46-.05l.04.59c-.15.06-.4.11-.7.11-.37,0-.67-.12-.86-.33-.23-.23-.31-.62-.31-1.13v-2.38h-.67v-.6h.67v-1.04l.77-.21Z"/>
      <path class="cls-2" d="M358.48,76.31c0,1.61-1.12,2.31-2.17,2.31-1.18,0-2.09-.86-2.09-2.24,0-1.46.96-2.31,2.16-2.31s2.1.91,2.1,2.24ZM355.03,76.35c0,.95.55,1.67,1.32,1.67s1.32-.71,1.32-1.69c0-.74-.37-1.67-1.31-1.67s-1.34.86-1.34,1.69Z"/>
      <path class="cls-2" d="M359.48,75.34c0-.45,0-.82-.04-1.18h.7l.04.72h.02c.22-.41.72-.82,1.44-.82.6,0,1.54.36,1.54,1.85v2.6h-.79v-2.51c0-.7-.26-1.29-1.01-1.29-.52,0-.93.37-1.06.81-.04.1-.05.23-.05.37v2.62h-.79v-3.18Z"/>
      <path class="cls-2" d="M367.34,72.91v1.25h1.13v.6h-1.13v2.35c0,.54.15.85.59.85.21,0,.36-.03.46-.05l.04.59c-.15.06-.4.11-.7.11-.37,0-.67-.12-.86-.33-.23-.23-.31-.62-.31-1.13v-2.38h-.67v-.6h.67v-1.04l.77-.21Z"/>
      <path class="cls-2" d="M373.25,76.31c0,1.61-1.12,2.31-2.17,2.31-1.18,0-2.09-.86-2.09-2.24,0-1.46.96-2.31,2.16-2.31s2.1.91,2.1,2.24ZM369.8,76.35c0,.95.55,1.67,1.32,1.67s1.32-.71,1.32-1.69c0-.74-.37-1.67-1.31-1.67s-1.34.86-1.34,1.69Z"/>
      <path class="cls-2" d="M376.12,78.52c.02-.3.04-.74.04-1.12v-5.27h.78v2.74h.02c.28-.49.78-.8,1.49-.8,1.08,0,1.84.9,1.84,2.22,0,1.56-.98,2.33-1.95,2.33-.63,0-1.13-.24-1.46-.82h-.03l-.04.72h-.68ZM376.94,76.78c0,.1.02.2.04.29.15.55.61.93,1.19.93.83,0,1.32-.67,1.32-1.67,0-.87-.45-1.62-1.3-1.62-.54,0-1.04.37-1.21.97-.02.09-.04.2-.04.32v.78Z"/>
      <path class="cls-2" d="M381.72,76.49c.02,1.07.7,1.51,1.49,1.51.57,0,.91-.1,1.21-.22l.14.57c-.28.13-.76.27-1.45.27-1.34,0-2.14-.88-2.14-2.2s.77-2.35,2.04-2.35c1.42,0,1.8,1.25,1.8,2.05,0,.16-.02.29-.03.37h-3.06ZM384.05,75.92c0-.5-.21-1.29-1.1-1.29-.8,0-1.15.74-1.21,1.29h2.31Z"/>
      <path class="cls-2" d="M385.68,77.71c.23.15.65.32,1.04.32.58,0,.85-.29.85-.65,0-.38-.22-.59-.81-.8-.78-.28-1.15-.71-1.15-1.23,0-.7.57-1.28,1.5-1.28.44,0,.83.13,1.07.27l-.2.58c-.17-.11-.49-.25-.89-.25-.47,0-.73.27-.73.59,0,.36.26.52.83.74.76.29,1.14.67,1.14,1.31,0,.77-.59,1.3-1.63,1.3-.48,0-.92-.12-1.22-.3l.2-.6Z"/>
      <path class="cls-2" d="M390.31,72.91v1.25h1.13v.6h-1.13v2.35c0,.54.15.85.59.85.21,0,.36-.03.46-.05l.04.59c-.15.06-.4.11-.7.11-.37,0-.67-.12-.86-.33-.23-.23-.31-.62-.31-1.13v-2.38h-.67v-.6h.67v-1.04l.77-.21Z"/>
      <path class="cls-2" d="M394.24,75.59c0-.56-.02-1.01-.04-1.42h.71l.04.75h.02c.32-.53.84-.85,1.55-.85,1.05,0,1.85.89,1.85,2.21,0,1.57-.95,2.34-1.98,2.34-.58,0-1.08-.25-1.34-.68h-.02v2.37h-.78v-4.72ZM395.02,76.75c0,.12.02.23.04.32.14.55.62.93,1.19.93.84,0,1.32-.68,1.32-1.68,0-.87-.46-1.62-1.3-1.62-.54,0-1.04.39-1.2.98-.03.1-.05.21-.05.32v.75Z"/>
      <path class="cls-2" d="M399.36,72.13h.79v6.39h-.79v-6.39Z"/>
      <path class="cls-2" d="M403.9,78.52l-.06-.55h-.03c-.24.34-.71.65-1.33.65-.88,0-1.33-.62-1.33-1.25,0-1.05.94-1.63,2.62-1.62v-.09c0-.36-.1-1.01-.99-1.01-.41,0-.83.13-1.13.32l-.18-.52c.36-.23.88-.39,1.43-.39,1.33,0,1.66.91,1.66,1.78v1.63c0,.38.02.75.07,1.04h-.72ZM403.78,76.3c-.86-.02-1.85.13-1.85.98,0,.51.34.76.75.76.57,0,.93-.36,1.05-.73.03-.08.04-.17.04-.25v-.76Z"/>
      <path class="cls-2" d="M405.82,75.34c0-.45,0-.82-.04-1.18h.7l.04.72h.02c.22-.41.72-.82,1.44-.82.6,0,1.54.36,1.54,1.85v2.6h-.79v-2.51c0-.7-.26-1.29-1.01-1.29-.52,0-.93.37-1.06.81-.04.1-.05.23-.05.37v2.62h-.79v-3.18Z"/>
      <path class="cls-2" d="M411.26,76.49c.02,1.07.7,1.51,1.49,1.51.57,0,.91-.1,1.21-.22l.14.57c-.28.13-.76.27-1.45.27-1.34,0-2.14-.88-2.14-2.2s.77-2.35,2.04-2.35c1.42,0,1.8,1.25,1.8,2.05,0,.16-.02.29-.03.37h-3.06ZM413.58,75.92c0-.5-.21-1.29-1.1-1.29-.8,0-1.15.74-1.21,1.29h2.31Z"/>
    </g>
  </g>
  <g>
    <path class="cls-3" d="M474.26,144.04s1.64-1.7,3.82-3.01c2.18-1.31,139.68-3.46,139.68-3.46l1.28,7.59-141.98-.59"/>
    <line class="cls-7" x1="474.17" y1="144.84" x2="618.76" y2="144.84"/>
    <line class="cls-7" x1="617.17" y1="139.07" x2="479.17" y2="139.07"/>
    <line class="cls-7" x1="617.76" y1="142.84" x2="617.76" y2="132.84"/>
    <g>
      <circle class="cls-2" cx="478.08" cy="138.46" r="7.75"/>
      <path class="cls-4" d="M476.87,139.89l-.7,2.12h-.9l2.29-6.74h1.05l2.3,6.74h-.93l-.72-2.12h-2.39ZM479.08,139.21l-.66-1.94c-.15-.44-.25-.84-.35-1.23h-.02c-.1.4-.21.81-.34,1.22l-.66,1.95h2.03Z"/>
    </g>
    <g>
      <circle class="cls-2" cx="476.06" cy="143.46" r="7.75"/>
      <path class="cls-4" d="M474.11,140.36c.38-.08.98-.14,1.59-.14.87,0,1.43.15,1.85.49.35.26.56.66.56,1.19,0,.65-.43,1.22-1.14,1.48v.02c.64.16,1.39.69,1.39,1.69,0,.58-.23,1.02-.57,1.35-.47.43-1.23.63-2.33.63-.6,0-1.06-.04-1.35-.08v-6.63ZM474.98,143.12h.79c.92,0,1.46-.48,1.46-1.13,0-.79-.6-1.1-1.48-1.1-.4,0-.63.03-.77.06v2.17ZM474.98,146.35c.17.03.42.04.73.04.9,0,1.73-.33,1.73-1.31,0-.92-.79-1.3-1.74-1.3h-.72v2.57Z"/>
    </g>
    <g>
      <rect class="cls-6" x="482.58" y="150.79" width="134.61" height="23.48"/>
      <path class="cls-2" d="M526.91,158.03c.47.29,1.15.53,1.87.53,1.07,0,1.69-.56,1.69-1.38,0-.76-.43-1.19-1.52-1.61-1.32-.47-2.13-1.15-2.13-2.29,0-1.26,1.04-2.2,2.61-2.2.83,0,1.43.19,1.79.4l-.29.85c-.26-.14-.8-.38-1.54-.38-1.1,0-1.52.66-1.52,1.21,0,.76.49,1.13,1.61,1.56,1.37.53,2.06,1.19,2.06,2.37,0,1.25-.92,2.33-2.83,2.33-.78,0-1.63-.23-2.06-.52l.26-.88Z"/>
      <path class="cls-2" d="M534.11,151.87c.01.36-.25.65-.67.65-.37,0-.64-.29-.64-.65s.28-.66.66-.66.65.29.65.66ZM532.94,159.31v-5.8h1.06v5.8h-1.06Z"/>
      <path class="cls-2" d="M540.76,150.79v7.02c0,.52.01,1.1.05,1.5h-.95l-.05-1.01h-.02c-.32.65-1.03,1.14-1.98,1.14-1.4,0-2.48-1.19-2.48-2.95-.01-1.93,1.19-3.12,2.6-3.12.89,0,1.49.42,1.75.89h.02v-3.47h1.05ZM539.7,155.86c0-.13-.01-.31-.05-.44-.16-.67-.73-1.22-1.52-1.22-1.09,0-1.74.96-1.74,2.24,0,1.17.58,2.15,1.71,2.15.71,0,1.36-.47,1.55-1.26.04-.14.05-.29.05-.46v-1.01Z"/>
      <path class="cls-2" d="M543.1,156.6c.02,1.43.94,2.02,1.99,2.02.75,0,1.21-.13,1.61-.3l.18.75c-.37.17-1.01.36-1.93.36-1.79,0-2.85-1.18-2.85-2.93s1.03-3.13,2.72-3.13c1.9,0,2.4,1.67,2.4,2.73,0,.22-.02.38-.04.49h-4.08ZM546.2,155.84c.01-.67-.28-1.72-1.46-1.72-1.07,0-1.54.98-1.62,1.72h3.08Z"/>
      <path class="cls-2" d="M551.48,153.5l1.14,3.26c.19.53.35,1.01.47,1.49h.04c.13-.48.3-.96.49-1.49l1.13-3.26h1.1l-2.28,5.8h-1.01l-2.21-5.8h1.13Z"/>
      <path class="cls-2" d="M558.02,151.87c.01.36-.25.65-.67.65-.37,0-.64-.29-.64-.65s.28-.66.66-.66.65.29.65.66ZM556.84,159.31v-5.8h1.06v5.8h-1.06Z"/>
      <path class="cls-2" d="M560.24,156.6c.02,1.43.94,2.02,1.99,2.02.75,0,1.21-.13,1.61-.3l.18.75c-.37.17-1.01.36-1.93.36-1.79,0-2.85-1.18-2.85-2.93s1.03-3.13,2.72-3.13c1.9,0,2.4,1.67,2.4,2.73,0,.22-.02.38-.04.49h-4.08ZM563.33,155.84c.01-.67-.28-1.72-1.46-1.72-1.07,0-1.54.98-1.62,1.72h3.08Z"/>
      <path class="cls-2" d="M566.08,153.5l.77,2.95c.17.65.32,1.25.43,1.85h.04c.13-.59.32-1.21.52-1.83l.95-2.96h.89l.9,2.9c.22.7.38,1.31.52,1.89h.04c.1-.59.25-1.2.44-1.88l.83-2.91h1.04l-1.87,5.8h-.96l-.89-2.77c-.2-.65-.37-1.22-.52-1.91h-.02c-.14.7-.32,1.3-.53,1.92l-.94,2.76h-.96l-1.75-5.8h1.08Z"/>
    </g>
    <g>
      <circle class="cls-2" cx="617.71" cy="139.8" r="7.75"/>
      <path class="cls-4" d="M619.5,140.19h-2.62v2.43h2.92v.73h-3.79v-6.74h3.64v.73h-2.77v2.13h2.62v.72Z"/>
    </g>
    <g>
      <circle class="cls-2" cx="618.06" cy="144.46" r="7.75"/>
      <path class="cls-4" d="M620.63,147.79c-.32.16-.96.32-1.78.32-1.9,0-3.33-1.2-3.33-3.41s1.43-3.54,3.52-3.54c.84,0,1.37.18,1.6.3l-.21.71c-.33-.16-.8-.28-1.36-.28-1.58,0-2.63,1.01-2.63,2.78,0,1.65.95,2.71,2.59,2.71.53,0,1.07-.11,1.42-.28l.18.69Z"/>
    </g>
  </g>
  <g>
    <rect class="cls-3" x="474.67" y="22.57" width="145" height="66"/>
    <rect class="cls-7" x="473.17" y="22.07" width="146" height="67"/>
    <g>
      <circle class="cls-2" cx="472.92" cy="19.82" r="7.75"/>
      <path class="cls-4" d="M471.71,21.25l-.7,2.12h-.9l2.29-6.74h1.05l2.3,6.74h-.93l-.72-2.12h-2.39ZM473.92,20.57l-.66-1.94c-.15-.44-.25-.84-.35-1.23h-.02c-.1.4-.21.81-.34,1.22l-.66,1.95h2.03Z"/>
    </g>
    <g>
      <circle class="cls-2" cx="618.8" cy="89.39" r="7.75"/>
      <path class="cls-4" d="M621.37,92.72c-.32.16-.96.32-1.78.32-1.9,0-3.33-1.2-3.33-3.41s1.43-3.54,3.52-3.54c.84,0,1.37.18,1.6.3l-.21.71c-.33-.16-.8-.28-1.36-.28-1.58,0-2.63,1.01-2.63,2.78,0,1.65.95,2.71,2.59,2.71.53,0,1.07-.11,1.42-.28l.18.69Z"/>
    </g>
    <g>
      <circle class="cls-2" cx="472.8" cy="89.39" r="7.75"/>
      <path class="cls-4" d="M470.85,86.29c.38-.08.98-.14,1.59-.14.87,0,1.43.15,1.85.49.35.26.56.66.56,1.19,0,.65-.43,1.22-1.14,1.48v.02c.64.16,1.39.69,1.39,1.69,0,.58-.23,1.02-.57,1.35-.47.43-1.23.63-2.33.63-.6,0-1.06-.04-1.35-.08v-6.63ZM471.72,89.05h.79c.92,0,1.46-.48,1.46-1.13,0-.79-.6-1.1-1.48-1.1-.4,0-.63.03-.77.06v2.17ZM471.72,92.28c.17.03.42.04.73.04.9,0,1.73-.33,1.73-1.31,0-.92-.79-1.3-1.74-1.3h-.72v2.57Z"/>
    </g>
    <g>
      <circle class="cls-2" cx="617.8" cy="19.39" r="7.75"/>
      <path class="cls-4" d="M615.49,16.6c.48-.07,1.04-.13,1.67-.13,1.13,0,1.93.26,2.46.76.54.5.85,1.2.85,2.18s-.31,1.8-.87,2.36c-.57.57-1.5.87-2.68.87-.56,0-1.03-.03-1.42-.07v-5.97ZM616.27,21.96c.2.04.49.04.79.04,1.67,0,2.58-.94,2.58-2.57,0-1.43-.8-2.34-2.46-2.34-.41,0-.71.04-.92.08v4.79Z"/>
    </g>
    <g>
      <rect class="cls-6" x="479.15" y="105.05" width="134.61" height="23.48"/>
      <path class="cls-2" d="M516.74,117.37v-11.95h2.74v.83h-1.72v10.3h1.72v.83h-2.74Z"/>
      <path class="cls-2" d="M521,117.37v-11.95h2.74v.83h-1.72v10.3h1.72v.83h-2.74Z"/>
      <path class="cls-2" d="M526.64,112.52l-1.05,3.18h-1.35l3.43-10.11h1.58l3.45,10.11h-1.4l-1.08-3.18h-3.59ZM529.95,111.49l-.99-2.91c-.22-.66-.38-1.26-.52-1.85h-.03c-.15.6-.32,1.22-.51,1.83l-.99,2.92h3.04Z"/>
      <path class="cls-2" d="M533.28,117.54c.33-.88.73-2.49.9-3.58l1.47-.15c-.34,1.27-1,2.94-1.42,3.64l-.95.09Z"/>
      <path class="cls-2" d="M537.29,105.72c.57-.12,1.47-.21,2.38-.21,1.3,0,2.15.22,2.78.74.53.39.84.99.84,1.78,0,.98-.64,1.83-1.71,2.22v.03c.96.24,2.08,1.04,2.08,2.54,0,.87-.34,1.53-.86,2.03-.71.64-1.84.94-3.49.94-.9,0-1.59-.06-2.03-.12v-9.94ZM538.59,109.86h1.19c1.38,0,2.19-.72,2.19-1.69,0-1.19-.9-1.65-2.22-1.65-.6,0-.94.04-1.16.09v3.25ZM538.59,114.7c.26.04.63.06,1.1.06,1.35,0,2.59-.5,2.59-1.96,0-1.38-1.18-1.95-2.61-1.95h-1.08v3.85Z"/>
      <path class="cls-2" d="M544.32,117.54c.33-.88.74-2.49.9-3.58l1.47-.15c-.35,1.27-1.01,2.94-1.43,3.64l-.94.09Z"/>
      <path class="cls-2" d="M555.39,115.36c-.48.24-1.44.48-2.67.48-2.85,0-4.99-1.8-4.99-5.12s2.14-5.31,5.28-5.31c1.26,0,2.05.27,2.4.45l-.32,1.06c-.5-.24-1.2-.42-2.04-.42-2.37,0-3.95,1.51-3.95,4.17,0,2.47,1.43,4.06,3.88,4.06.79,0,1.61-.17,2.13-.42l.27,1.04Z"/>
      <path class="cls-2" d="M556.13,117.54c.33-.88.74-2.49.9-3.58l1.47-.15c-.35,1.27-1.01,2.94-1.43,3.64l-.94.09Z"/>
      <path class="cls-2" d="M560.13,105.72c.79-.12,1.74-.21,2.78-.21,1.87,0,3.21.43,4.09,1.26.9.83,1.43,2,1.43,3.63s-.51,3-1.46,3.93c-.95.95-2.51,1.46-4.47,1.46-.93,0-1.71-.04-2.37-.12v-9.94ZM561.44,114.66c.33.06.81.08,1.32.08,2.79,0,4.3-1.56,4.3-4.29.01-2.38-1.33-3.9-4.1-3.9-.67,0-1.18.06-1.53.13v7.98Z"/>
      <path class="cls-2" d="M571.91,105.4v11.97h-2.75v-.83h1.72v-10.32h-1.72v-.83h2.75Z"/>
      <path class="cls-2" d="M576.17,105.4v11.97h-2.75v-.83h1.72v-10.32h-1.72v-.83h2.75Z"/>
    </g>
  </g>
  <g>
    <rect class="cls-3" x="34.8" y="199.69" width="145" height="66"/>
    <rect class="cls-7" x="33.3" y="199.19" width="146" height="67"/>
    <g>
      <circle class="cls-2" cx="33.05" cy="196.94" r="7.75"/>
      <path class="cls-4" d="M31.84,198.38l-.7,2.12h-.9l2.29-6.74h1.05l2.3,6.74h-.93l-.72-2.12h-2.39ZM34.04,197.7l-.66-1.94c-.15-.44-.25-.84-.35-1.23h-.02c-.1.4-.21.81-.34,1.22l-.66,1.95h2.03Z"/>
    </g>
    <g>
      <circle class="cls-2" cx="178.93" cy="266.51" r="7.75"/>
      <path class="cls-4" d="M181.5,269.84c-.32.16-.96.32-1.78.32-1.9,0-3.33-1.2-3.33-3.41s1.43-3.54,3.52-3.54c.84,0,1.37.18,1.6.3l-.21.71c-.33-.16-.8-.28-1.36-.28-1.58,0-2.63,1.01-2.63,2.78,0,1.65.95,2.71,2.59,2.71.53,0,1.07-.11,1.42-.28l.18.69Z"/>
    </g>
    <g>
      <circle class="cls-2" cx="32.93" cy="266.51" r="7.75"/>
      <path class="cls-4" d="M30.98,263.42c.38-.08.98-.14,1.59-.14.87,0,1.43.15,1.85.49.35.26.56.66.56,1.19,0,.65-.43,1.22-1.14,1.48v.02c.64.16,1.39.69,1.39,1.69,0,.58-.23,1.02-.57,1.35-.47.43-1.23.63-2.33.63-.6,0-1.06-.04-1.35-.08v-6.63ZM31.85,266.18h.79c.92,0,1.46-.48,1.46-1.13,0-.79-.6-1.1-1.48-1.1-.4,0-.63.03-.77.06v2.17ZM31.85,269.4c.17.03.42.04.73.04.9,0,1.73-.33,1.73-1.31,0-.92-.79-1.3-1.74-1.3h-.72v2.57Z"/>
    </g>
    <g>
      <circle class="cls-2" cx="177.93" cy="196.51" r="7.75"/>
      <path class="cls-4" d="M175.62,193.72c.48-.07,1.04-.13,1.67-.13,1.13,0,1.93.26,2.46.76.54.5.86,1.2.86,2.18s-.31,1.8-.87,2.36c-.57.57-1.5.87-2.68.87-.56,0-1.03-.03-1.42-.07v-5.97ZM176.4,199.09c.2.04.49.04.79.04,1.67,0,2.58-.94,2.58-2.58,0-1.43-.8-2.34-2.46-2.34-.41,0-.71.04-.92.08v4.79Z"/>
    </g>
    <g>
      <rect class="cls-6" x="39.27" y="282.17" width="134.61" height="23.48"/>
      <path class="cls-2" d="M76.86,294.5v-11.95h2.74v.83h-1.72v10.3h1.72v.83h-2.74Z"/>
      <path class="cls-2" d="M81.12,294.5v-11.95h2.74v.83h-1.72v10.3h1.72v.83h-2.74Z"/>
      <path class="cls-2" d="M86.76,289.64l-1.05,3.18h-1.35l3.44-10.11h1.57l3.45,10.11h-1.4l-1.08-3.18h-3.58ZM90.08,288.62l-.99-2.91c-.22-.66-.38-1.26-.52-1.85h-.03c-.15.6-.31,1.22-.51,1.83l-.99,2.92h3.04Z"/>
      <path class="cls-2" d="M93.41,294.67c.33-.88.73-2.49.9-3.58l1.47-.15c-.34,1.27-1,2.94-1.42,3.64l-.94.09Z"/>
      <path class="cls-2" d="M97.41,282.85c.57-.12,1.47-.21,2.38-.21,1.3,0,2.15.22,2.77.74.52.39.84.99.84,1.78,0,.98-.65,1.83-1.71,2.22v.03c.96.24,2.08,1.04,2.08,2.54,0,.87-.34,1.53-.85,2.03-.71.64-1.84.94-3.49.94-.9,0-1.59-.06-2.02-.12v-9.94ZM98.72,286.99h1.19c1.38,0,2.19-.72,2.19-1.69,0-1.19-.9-1.65-2.22-1.65-.6,0-.94.04-1.15.09v3.25ZM98.72,291.83c.25.04.63.06,1.1.06,1.35,0,2.59-.5,2.59-1.96,0-1.38-1.19-1.95-2.61-1.95h-1.08v3.85Z"/>
      <path class="cls-2" d="M104.45,294.67c.33-.88.73-2.49.9-3.58l1.47-.15c-.34,1.27-1,2.94-1.42,3.64l-.94.09Z"/>
      <path class="cls-2" d="M115.52,292.49c-.48.24-1.44.48-2.67.48-2.85,0-4.99-1.8-4.99-5.12s2.15-5.31,5.28-5.31c1.26,0,2.05.27,2.4.45l-.31,1.06c-.5-.24-1.2-.42-2.04-.42-2.37,0-3.94,1.51-3.94,4.17,0,2.47,1.42,4.06,3.88,4.06.79,0,1.6-.17,2.13-.42l.27,1.04Z"/>
      <path class="cls-2" d="M116.25,294.67c.33-.88.73-2.49.9-3.58l1.47-.15c-.34,1.27-1,2.94-1.42,3.64l-.94.09Z"/>
      <path class="cls-2" d="M120.26,282.85c.79-.12,1.74-.21,2.77-.21,1.87,0,3.21.43,4.09,1.26.9.83,1.42,2,1.42,3.63s-.51,3-1.46,3.93c-.94.95-2.5,1.46-4.47,1.46-.93,0-1.71-.04-2.37-.12v-9.94ZM121.56,291.79c.33.06.81.08,1.32.08,2.79,0,4.31-1.56,4.31-4.29.01-2.38-1.33-3.9-4.1-3.9-.67,0-1.18.06-1.53.13v7.98Z"/>
      <path class="cls-2" d="M132.03,282.53v11.97h-2.74v-.83h1.72v-10.32h-1.72v-.83h2.74Z"/>
      <path class="cls-2" d="M136.29,282.53v11.97h-2.74v-.83h1.72v-10.32h-1.72v-.83h2.74Z"/>
    </g>
  </g>
  <g>
    <path class="cls-3" d="M33.89,324.47s4.61-.3,6.78-3.9,136-18,136-18l1,23-141,.38"/>
    <line class="cls-7" x1="32.8" y1="324.69" x2="177.3" y2="324.69"/>
    <line class="cls-7" x1="175.17" y1="303.07" x2="35.3" y2="321.19"/>
    <line class="cls-7" x1="176.3" y1="324.19" x2="176.17" y2="304.07"/>
    <g>
      <circle class="cls-2" cx="176.59" cy="323.81" r="7.75"/>
      <path class="cls-4" d="M179.16,327.14c-.32.16-.96.32-1.78.32-1.9,0-3.33-1.2-3.33-3.41s1.43-3.54,3.52-3.54c.84,0,1.37.18,1.6.3l-.21.71c-.33-.16-.8-.28-1.36-.28-1.58,0-2.63,1.01-2.63,2.78,0,1.65.95,2.71,2.59,2.71.53,0,1.07-.11,1.42-.28l.18.69Z"/>
    </g>
    <g>
      <circle class="cls-2" cx="175.88" cy="299.87" r="7.75"/>
      <path class="cls-4" d="M173.56,297.08c.48-.07,1.04-.13,1.67-.13,1.13,0,1.93.26,2.46.76.54.5.86,1.2.86,2.18s-.31,1.8-.87,2.36c-.57.57-1.5.87-2.68.87-.56,0-1.03-.03-1.42-.07v-5.97ZM174.35,302.45c.2.04.49.04.79.04,1.67,0,2.58-.94,2.58-2.58,0-1.43-.8-2.34-2.46-2.34-.41,0-.71.04-.92.08v4.79Z"/>
    </g>
    <g>
      <circle class="cls-2" cx="36.59" cy="318.81" r="7.75"/>
      <path class="cls-4" d="M35.38,320.24l-.7,2.12h-.9l2.29-6.74h1.05l2.3,6.74h-.93l-.72-2.12h-2.39ZM37.59,319.56l-.66-1.94c-.15-.44-.25-.84-.35-1.23h-.02c-.1.4-.21.81-.34,1.22l-.66,1.95h2.03Z"/>
    </g>
    <g>
      <rect class="cls-6" x="41.11" y="337.14" width="134.61" height="23.48"/>
      <path class="cls-2" d="M85.45,344.39c.47.29,1.15.53,1.87.53,1.07,0,1.69-.56,1.69-1.38,0-.76-.43-1.19-1.52-1.61-1.32-.47-2.13-1.15-2.13-2.29,0-1.26,1.04-2.2,2.61-2.2.83,0,1.43.19,1.79.4l-.29.85c-.26-.14-.8-.38-1.54-.38-1.1,0-1.52.66-1.52,1.21,0,.76.49,1.13,1.61,1.56,1.37.53,2.06,1.19,2.06,2.37,0,1.25-.92,2.33-2.83,2.33-.78,0-1.63-.23-2.06-.52l.26-.88Z"/>
      <path class="cls-2" d="M92.65,338.22c.01.36-.25.65-.67.65-.37,0-.64-.29-.64-.65s.28-.66.66-.66.65.29.65.66ZM91.47,345.66v-5.8h1.06v5.8h-1.06Z"/>
      <path class="cls-2" d="M99.3,337.14v7.02c0,.52.01,1.1.05,1.5h-.95l-.05-1.01h-.02c-.32.65-1.03,1.14-1.98,1.14-1.4,0-2.48-1.19-2.48-2.95-.01-1.93,1.19-3.12,2.6-3.12.89,0,1.49.42,1.75.89h.02v-3.47h1.06ZM98.24,342.22c0-.13-.01-.31-.05-.44-.16-.67-.73-1.22-1.52-1.22-1.09,0-1.74.96-1.74,2.24,0,1.17.58,2.15,1.72,2.15.71,0,1.35-.47,1.55-1.26.04-.14.05-.29.05-.46v-1.01Z"/>
      <path class="cls-2" d="M101.64,342.95c.02,1.43.94,2.02,1.99,2.02.76,0,1.21-.13,1.61-.3l.18.75c-.37.17-1.01.36-1.93.36-1.79,0-2.85-1.18-2.85-2.93s1.03-3.13,2.72-3.13c1.9,0,2.4,1.67,2.4,2.73,0,.22-.02.38-.04.49h-4.08ZM104.73,342.19c.01-.67-.28-1.72-1.46-1.72-1.07,0-1.54.98-1.62,1.72h3.08Z"/>
      <path class="cls-2" d="M110.01,339.86l1.14,3.26c.19.53.35,1.01.47,1.49h.04c.13-.48.3-.96.49-1.49l1.13-3.26h1.1l-2.28,5.8h-1.01l-2.21-5.8h1.13Z"/>
      <path class="cls-2" d="M116.55,338.22c.01.36-.25.65-.67.65-.37,0-.64-.29-.64-.65s.28-.66.66-.66.65.29.65.66ZM115.38,345.66v-5.8h1.06v5.8h-1.06Z"/>
      <path class="cls-2" d="M118.77,342.95c.02,1.43.94,2.02,1.99,2.02.76,0,1.21-.13,1.61-.3l.18.75c-.37.17-1.01.36-1.93.36-1.79,0-2.85-1.18-2.85-2.93s1.03-3.13,2.72-3.13c1.9,0,2.4,1.67,2.4,2.73,0,.22-.02.38-.04.49h-4.08ZM121.87,342.19c.01-.67-.28-1.72-1.46-1.72-1.07,0-1.54.98-1.62,1.72h3.08Z"/>
      <path class="cls-2" d="M124.62,339.86l.77,2.95c.17.65.32,1.25.43,1.85h.04c.13-.59.32-1.21.52-1.83l.95-2.96h.89l.9,2.9c.22.7.38,1.31.52,1.89h.04c.1-.59.25-1.2.44-1.88l.83-2.91h1.04l-1.87,5.8h-.96l-.89-2.77c-.2-.65-.37-1.22-.52-1.91h-.02c-.14.7-.32,1.3-.53,1.92l-.94,2.76h-.96l-1.75-5.8h1.08Z"/>
    </g>
    <g>
      <circle class="cls-2" cx="34.38" cy="323.6" r="7.75"/>
      <path class="cls-4" d="M32.43,320.5c.38-.08.98-.14,1.59-.14.87,0,1.43.15,1.85.49.35.26.56.66.56,1.19,0,.65-.43,1.22-1.14,1.48v.02c.64.16,1.39.69,1.39,1.69,0,.58-.23,1.02-.57,1.35-.47.43-1.23.63-2.33.63-.6,0-1.06-.04-1.35-.08v-6.63ZM33.3,323.26h.79c.92,0,1.46-.48,1.46-1.13,0-.79-.6-1.1-1.48-1.1-.4,0-.63.03-.77.06v2.17ZM33.3,326.49c.17.03.42.04.73.04.9,0,1.73-.33,1.73-1.31,0-.92-.79-1.3-1.74-1.3h-.72v2.57Z"/>
    </g>
  </g>
  <g>
    <rect class="cls-3" x="477.14" y="201.48" width="145" height="66"/>
    <rect class="cls-7" x="475.64" y="200.98" width="146" height="67"/>
    <line class="cls-7" x1="477.17" y1="201.07" x2="619.17" y2="266.07"/>
    <g>
      <circle class="cls-2" cx="475.39" cy="198.73" r="7.75"/>
      <path class="cls-4" d="M474.18,200.16l-.7,2.12h-.9l2.29-6.74h1.05l2.3,6.74h-.93l-.72-2.12h-2.39ZM476.39,199.48l-.66-1.94c-.15-.44-.25-.84-.35-1.23h-.02c-.1.4-.21.81-.34,1.22l-.66,1.95h2.03Z"/>
    </g>
    <g>
      <circle class="cls-2" cx="621.28" cy="268.3" r="7.75"/>
      <path class="cls-4" d="M623.84,271.63c-.32.16-.96.32-1.78.32-1.9,0-3.33-1.2-3.33-3.41s1.43-3.54,3.52-3.54c.84,0,1.37.18,1.6.3l-.21.71c-.33-.16-.8-.28-1.36-.28-1.58,0-2.63,1.01-2.63,2.78,0,1.65.95,2.71,2.59,2.71.53,0,1.07-.11,1.42-.28l.18.69Z"/>
    </g>
    <g>
      <circle class="cls-2" cx="475.28" cy="268.3" r="7.75"/>
      <path class="cls-4" d="M473.33,265.2c.38-.08.98-.14,1.59-.14.87,0,1.43.15,1.85.49.35.26.56.66.56,1.19,0,.65-.43,1.22-1.14,1.48v.02c.64.16,1.39.69,1.39,1.69,0,.58-.23,1.02-.57,1.35-.47.43-1.23.63-2.33.63-.6,0-1.06-.04-1.35-.08v-6.63ZM474.2,267.96h.79c.92,0,1.46-.48,1.46-1.13,0-.79-.6-1.1-1.48-1.1-.4,0-.63.03-.77.06v2.17ZM474.2,271.19c.17.03.42.04.73.04.9,0,1.73-.33,1.73-1.31,0-.92-.79-1.3-1.74-1.3h-.72v2.57Z"/>
    </g>
    <g>
      <circle class="cls-2" cx="620.28" cy="198.3" r="7.75"/>
      <path class="cls-4" d="M617.96,195.51c.48-.07,1.04-.13,1.67-.13,1.12,0,1.93.26,2.46.76.54.5.85,1.2.85,2.18s-.31,1.8-.87,2.36c-.57.57-1.5.87-2.68.87-.56,0-1.03-.03-1.42-.07v-5.97ZM618.75,200.87c.2.04.49.04.79.04,1.67,0,2.58-.94,2.58-2.57,0-1.43-.8-2.34-2.46-2.34-.41,0-.71.04-.92.08v4.79Z"/>
    </g>
    <g>
      <rect class="cls-6" x="481.62" y="283.96" width="134.61" height="23.48"/>
      <path class="cls-2" d="M498.6,296.28v-11.95h2.75v.83h-1.72v10.3h1.72v.83h-2.75Z"/>
      <path class="cls-2" d="M502.86,296.28v-11.95h2.75v.83h-1.72v10.3h1.72v.83h-2.75Z"/>
      <path class="cls-2" d="M508.5,291.43l-1.05,3.18h-1.35l3.44-10.11h1.57l3.45,10.11h-1.4l-1.08-3.18h-3.58ZM511.82,290.4l-.99-2.91c-.22-.66-.38-1.26-.52-1.85h-.03c-.15.6-.31,1.22-.51,1.83l-.99,2.92h3.04Z"/>
      <path class="cls-2" d="M515.15,296.45c.33-.88.74-2.49.9-3.58l1.47-.15c-.34,1.27-1,2.94-1.42,3.64l-.95.09Z"/>
      <path class="cls-2" d="M519.15,284.63c.57-.12,1.47-.21,2.38-.21,1.3,0,2.14.22,2.77.74.53.39.84.99.84,1.78,0,.98-.64,1.83-1.71,2.22v.03c.96.24,2.08,1.04,2.08,2.54,0,.87-.34,1.53-.85,2.03-.71.64-1.84.94-3.5.94-.9,0-1.59-.06-2.02-.12v-9.94ZM520.46,288.77h1.18c1.38,0,2.19-.72,2.19-1.69,0-1.19-.9-1.65-2.22-1.65-.6,0-.94.04-1.15.09v3.25ZM520.46,293.61c.25.04.63.06,1.09.06,1.35,0,2.59-.5,2.59-1.96,0-1.38-1.18-1.95-2.61-1.95h-1.08v3.85Z"/>
      <path class="cls-2" d="M526.19,296.45c.33-.88.74-2.49.9-3.58l1.47-.15c-.34,1.27-1,2.94-1.42,3.64l-.95.09Z"/>
      <path class="cls-2" d="M537.26,294.27c-.48.24-1.44.48-2.67.48-2.85,0-5-1.8-5-5.12s2.15-5.31,5.28-5.31c1.26,0,2.05.27,2.4.45l-.31,1.06c-.5-.24-1.2-.42-2.04-.42-2.37,0-3.95,1.51-3.95,4.17,0,2.47,1.42,4.06,3.88,4.06.79,0,1.61-.17,2.13-.42l.27,1.04Z"/>
      <path class="cls-2" d="M541.04,284.31v11.97h-2.74v-.83h1.72v-10.32h-1.72v-.83h2.74Z"/>
      <path class="cls-2" d="M545.3,284.31v11.97h-2.74v-.83h1.72v-10.32h-1.72v-.83h2.74Z"/>
      <path class="cls-2" d="M546.77,296.45c.33-.88.74-2.49.9-3.58l1.47-.15c-.34,1.27-1,2.94-1.42,3.64l-.95.09Z"/>
      <path class="cls-2" d="M550.86,296.28v-11.95h2.74v.83h-1.72v10.3h1.72v.83h-2.74Z"/>
      <path class="cls-2" d="M555.12,296.28v-11.95h2.74v.83h-1.72v10.3h1.72v.83h-2.74Z"/>
      <path class="cls-2" d="M560.76,291.43l-1.05,3.18h-1.35l3.44-10.11h1.57l3.45,10.11h-1.4l-1.08-3.18h-3.58ZM564.08,290.4l-.99-2.91c-.22-.66-.38-1.26-.52-1.85h-.03c-.15.6-.31,1.22-.51,1.83l-.99,2.92h3.04Z"/>
      <path class="cls-2" d="M567.41,296.45c.33-.88.74-2.49.9-3.58l1.47-.15c-.34,1.27-1,2.94-1.42,3.64l-.95.09Z"/>
      <path class="cls-2" d="M578.48,294.27c-.48.24-1.44.48-2.67.48-2.85,0-5-1.8-5-5.12s2.15-5.31,5.28-5.31c1.26,0,2.05.27,2.4.45l-.31,1.06c-.5-.24-1.2-.42-2.04-.42-2.37,0-3.95,1.51-3.95,4.17,0,2.47,1.42,4.06,3.88,4.06.79,0,1.61-.17,2.13-.42l.27,1.04Z"/>
      <path class="cls-2" d="M579.21,296.45c.33-.88.74-2.49.9-3.58l1.47-.15c-.34,1.27-1,2.94-1.42,3.64l-.95.09Z"/>
      <path class="cls-2" d="M583.22,284.63c.79-.12,1.74-.21,2.77-.21,1.88,0,3.21.43,4.09,1.26.9.83,1.42,2,1.42,3.63s-.51,3-1.46,3.93c-.94.95-2.5,1.46-4.47,1.46-.93,0-1.71-.04-2.37-.12v-9.94ZM584.52,293.57c.33.06.81.08,1.32.08,2.79,0,4.31-1.56,4.31-4.29.01-2.38-1.33-3.9-4.1-3.9-.67,0-1.18.06-1.53.13v7.98Z"/>
      <path class="cls-2" d="M594.99,284.31v11.97h-2.74v-.83h1.72v-10.32h-1.72v-.83h2.74Z"/>
      <path class="cls-2" d="M599.25,284.31v11.97h-2.74v-.83h1.72v-10.32h-1.72v-.83h2.74Z"/>
    </g>
  </g>
  <g>
    <path class="cls-3" d="M476.24,326.25s4.61-.3,6.78-3.9,136-18,136-18l1,23-141,.38"/>
    <line class="cls-7" x1="475.14" y1="326.48" x2="619.64" y2="326.48"/>
    <line class="cls-7" x1="617.52" y1="304.85" x2="477.64" y2="322.98"/>
    <line class="cls-7" x1="618.64" y1="325.98" x2="618.52" y2="305.85"/>
    <line class="cls-7" x1="482.67" y1="321.57" x2="618.67" y2="324.57"/>
    <g>
      <circle class="cls-2" cx="618.94" cy="325.59" r="7.75"/>
      <path class="cls-4" d="M621.51,328.92c-.32.16-.96.32-1.78.32-1.9,0-3.33-1.2-3.33-3.41s1.43-3.54,3.52-3.54c.84,0,1.37.18,1.6.3l-.21.71c-.33-.16-.8-.28-1.36-.28-1.58,0-2.63,1.01-2.63,2.78,0,1.65.95,2.71,2.59,2.71.53,0,1.07-.11,1.42-.28l.18.69Z"/>
    </g>
    <g>
      <circle class="cls-2" cx="618.23" cy="301.66" r="7.75"/>
      <path class="cls-4" d="M615.91,298.86c.48-.07,1.04-.12,1.67-.12,1.12,0,1.93.26,2.46.76.54.5.85,1.2.85,2.18s-.31,1.8-.87,2.36c-.57.57-1.5.87-2.68.87-.56,0-1.03-.03-1.42-.07v-5.97ZM616.7,304.23c.2.04.49.04.79.04,1.67,0,2.58-.94,2.58-2.58,0-1.43-.8-2.34-2.46-2.34-.41,0-.71.04-.92.08v4.79Z"/>
    </g>
    <g>
      <circle class="cls-2" cx="478.94" cy="320.59" r="7.75"/>
      <path class="cls-4" d="M477.73,322.02l-.7,2.12h-.9l2.29-6.74h1.05l2.3,6.74h-.93l-.72-2.12h-2.39ZM479.94,321.35l-.66-1.94c-.15-.44-.25-.84-.35-1.23h-.02c-.1.4-.21.81-.34,1.22l-.66,1.95h2.03Z"/>
    </g>
    <g>
      <rect class="cls-6" x="483.46" y="338.92" width="134.61" height="23.48"/>
      <path class="cls-2" d="M527.8,346.17c.47.29,1.15.53,1.87.53,1.07,0,1.69-.56,1.69-1.38,0-.76-.43-1.19-1.52-1.61-1.32-.47-2.13-1.15-2.13-2.29,0-1.26,1.04-2.2,2.61-2.2.83,0,1.43.19,1.79.4l-.29.85c-.26-.14-.8-.38-1.54-.38-1.1,0-1.52.66-1.52,1.21,0,.76.49,1.13,1.61,1.56,1.37.53,2.06,1.19,2.06,2.37,0,1.25-.92,2.33-2.83,2.33-.78,0-1.63-.23-2.06-.52l.26-.88Z"/>
      <path class="cls-2" d="M535,340.01c.01.36-.25.65-.67.65-.37,0-.64-.29-.64-.65s.28-.66.66-.66.65.29.65.66ZM533.82,347.44v-5.8h1.06v5.8h-1.06Z"/>
      <path class="cls-2" d="M541.64,338.93v7.02c0,.52.01,1.1.05,1.5h-.95l-.05-1.01h-.02c-.32.65-1.03,1.14-1.98,1.14-1.4,0-2.48-1.19-2.48-2.95-.01-1.93,1.19-3.12,2.6-3.12.89,0,1.49.42,1.75.89h.02v-3.47h1.05ZM540.59,344c0-.13-.01-.31-.05-.44-.16-.67-.73-1.22-1.52-1.22-1.09,0-1.74.96-1.74,2.24,0,1.17.58,2.15,1.71,2.15.71,0,1.36-.47,1.55-1.26.04-.14.05-.29.05-.46v-1.01Z"/>
      <path class="cls-2" d="M543.99,344.73c.02,1.43.94,2.02,1.99,2.02.75,0,1.21-.13,1.61-.3l.18.75c-.37.17-1.01.36-1.93.36-1.79,0-2.85-1.18-2.85-2.93s1.03-3.13,2.72-3.13c1.9,0,2.4,1.67,2.4,2.73,0,.21-.02.38-.04.49h-4.08ZM547.08,343.98c.01-.67-.28-1.72-1.46-1.72-1.07,0-1.54.98-1.62,1.72h3.08Z"/>
      <path class="cls-2" d="M552.36,341.64l1.14,3.26c.19.53.35,1.01.47,1.49h.04c.13-.48.3-.96.49-1.49l1.13-3.26h1.1l-2.28,5.8h-1.01l-2.21-5.8h1.13Z"/>
      <path class="cls-2" d="M558.9,340.01c.01.36-.25.65-.67.65-.37,0-.64-.29-.64-.65s.28-.66.66-.66.65.29.65.66ZM557.73,347.44v-5.8h1.06v5.8h-1.06Z"/>
      <path class="cls-2" d="M561.12,344.73c.02,1.43.94,2.02,1.99,2.02.75,0,1.21-.13,1.61-.3l.18.75c-.37.17-1.01.36-1.93.36-1.79,0-2.85-1.18-2.85-2.93s1.03-3.13,2.72-3.13c1.9,0,2.4,1.67,2.4,2.73,0,.21-.02.38-.04.49h-4.08ZM564.22,343.98c.01-.67-.28-1.72-1.46-1.72-1.07,0-1.54.98-1.62,1.72h3.08Z"/>
      <path class="cls-2" d="M566.97,341.64l.77,2.95c.17.65.32,1.25.43,1.85h.04c.13-.59.32-1.21.52-1.83l.95-2.96h.89l.9,2.9c.22.7.38,1.31.52,1.89h.04c.1-.59.25-1.2.44-1.88l.83-2.91h1.04l-1.87,5.8h-.96l-.89-2.77c-.2-.65-.37-1.22-.52-1.91h-.02c-.14.7-.32,1.3-.53,1.92l-.94,2.76h-.96l-1.75-5.8h1.08Z"/>
    </g>
    <g>
      <circle class="cls-2" cx="476.73" cy="325.38" r="7.75"/>
      <path class="cls-4" d="M474.78,322.29c.38-.08.98-.14,1.59-.14.87,0,1.43.15,1.85.49.35.26.56.66.56,1.19,0,.65-.43,1.22-1.14,1.48v.02c.64.16,1.39.69,1.39,1.69,0,.58-.23,1.02-.57,1.35-.47.43-1.23.63-2.33.63-.6,0-1.06-.04-1.35-.08v-6.63ZM475.65,325.05h.79c.92,0,1.46-.48,1.46-1.13,0-.79-.6-1.1-1.48-1.1-.4,0-.63.03-.77.06v2.17ZM475.65,328.27c.17.03.42.04.73.04.9,0,1.73-.33,1.73-1.31,0-.92-.79-1.3-1.74-1.3h-.72v2.57Z"/>
    </g>
  </g>
  <g>
    <g>
      <line class="cls-5" x1="325.63" y1="277.04" x2="433.29" y2="277.04"/>
      <polygon class="cls-8" points="429.15 291.18 453.63 277.04 429.15 262.91 429.15 291.18"/>
    </g>
    <g>
      <rect class="cls-6" x="328.63" y="268.78" width="100" height="30.77"/>
      <path class="cls-2" d="M359.3,269.77h-1.85v-.67h4.49v.67h-1.85v5.4h-.79v-5.4Z"/>
      <path class="cls-2" d="M362.19,272.17c0-.51,0-.95-.04-1.36h.69l.03.86h.04c.2-.59.68-.96,1.21-.96.09,0,.15,0,.22.03v.75c-.08-.02-.16-.03-.27-.03-.56,0-.96.42-1.06,1.02-.02.11-.04.23-.04.37v2.32h-.78v-3Z"/>
      <path class="cls-2" d="M366.05,269.59c0,.27-.19.49-.5.49-.28,0-.48-.22-.48-.49s.21-.5.5-.5.49.22.49.5ZM365.17,275.17v-4.36h.79v4.36h-.79Z"/>
      <path class="cls-2" d="M369.69,275.17l-.06-.55h-.03c-.24.34-.71.65-1.33.65-.88,0-1.33-.62-1.33-1.25,0-1.05.94-1.63,2.62-1.62v-.09c0-.36-.1-1.01-.99-1.01-.41,0-.83.13-1.13.32l-.18-.52c.36-.23.88-.39,1.43-.39,1.33,0,1.66.91,1.66,1.78v1.63c0,.38.02.75.07,1.04h-.72ZM369.57,272.95c-.86-.02-1.85.13-1.85.98,0,.51.34.76.75.76.57,0,.93-.36,1.05-.73.03-.08.04-.17.04-.25v-.76Z"/>
      <path class="cls-2" d="M371.61,271.99c0-.45,0-.82-.04-1.18h.7l.04.72h.02c.22-.41.72-.82,1.44-.82.6,0,1.54.36,1.54,1.86v2.6h-.79v-2.51c0-.7-.26-1.29-1.01-1.29-.52,0-.93.37-1.06.81-.04.1-.05.23-.05.37v2.62h-.79v-3.18Z"/>
      <path class="cls-2" d="M380.36,270.81c-.02.32-.04.67-.04,1.2v2.53c0,1-.2,1.61-.62,1.99-.42.4-1.04.52-1.58.52s-1.1-.13-1.45-.36l.2-.6c.29.18.74.34,1.28.34.81,0,1.41-.42,1.41-1.52v-.49h-.02c-.24.4-.71.73-1.39.73-1.08,0-1.85-.92-1.85-2.12,0-1.48.96-2.31,1.96-2.31.76,0,1.17.4,1.36.76h.02l.04-.66h.69ZM379.54,272.53c0-.14,0-.25-.04-.36-.14-.46-.53-.84-1.11-.84-.76,0-1.3.64-1.3,1.65,0,.85.43,1.57,1.29,1.57.49,0,.93-.31,1.1-.81.04-.13.06-.29.06-.42v-.78Z"/>
      <path class="cls-2" d="M385.28,273.98c0,.45,0,.85.04,1.19h-.7l-.04-.71h-.02c-.21.35-.67.81-1.44.81-.68,0-1.5-.38-1.5-1.91v-2.55h.79v2.41c0,.83.25,1.39.97,1.39.53,0,.9-.37,1.04-.72.04-.12.07-.26.07-.41v-2.67h.79v3.17Z"/>
      <path class="cls-2" d="M386.6,268.78h.79v6.39h-.79v-6.39Z"/>
      <path class="cls-2" d="M391.13,275.17l-.06-.55h-.03c-.24.34-.71.65-1.33.65-.88,0-1.33-.62-1.33-1.25,0-1.05.94-1.63,2.62-1.62v-.09c0-.36-.1-1.01-.99-1.01-.41,0-.83.13-1.13.32l-.18-.52c.36-.23.88-.39,1.43-.39,1.33,0,1.66.91,1.66,1.78v1.63c0,.38.02.75.07,1.04h-.72ZM391.02,272.95c-.86-.02-1.85.13-1.85.98,0,.51.34.76.75.76.57,0,.93-.36,1.05-.73.03-.08.04-.17.04-.25v-.76Z"/>
      <path class="cls-2" d="M393.98,269.56v1.25h1.13v.6h-1.13v2.35c0,.54.15.85.59.85.21,0,.36-.03.46-.05l.04.59c-.15.06-.4.11-.7.11-.37,0-.67-.12-.86-.33-.23-.23-.31-.62-.31-1.13v-2.38h-.67v-.6h.67v-1.04l.77-.21Z"/>
      <path class="cls-2" d="M396.39,273.13c.02,1.07.7,1.51,1.49,1.51.57,0,.91-.1,1.21-.22l.14.57c-.28.13-.76.27-1.45.27-1.34,0-2.14-.88-2.14-2.2s.77-2.35,2.04-2.35c1.42,0,1.8,1.25,1.8,2.05,0,.16-.02.29-.03.37h-3.06ZM398.71,272.57c0-.5-.21-1.29-1.1-1.29-.8,0-1.15.74-1.21,1.29h2.31Z"/>
    </g>
  </g>
  <g>
    <rect class="cls-6" x="294.34" y="245.35" width="45.04" height="70.6"/>
    <path class="cls-1" d="M302.54,261.61l4.97,7.49c1.3,1.94,2.38,3.74,3.53,5.69h.22c1.15-2.09,2.3-3.89,3.46-5.76l4.9-7.42h6.84l-11.88,16.85,12.24,18h-7.2l-5.11-7.85c-1.37-2.02-2.52-3.96-3.75-6.05h-.14c-1.15,2.09-2.38,3.96-3.67,6.05l-5.04,7.85h-6.98l12.38-17.79-11.81-17.07h7.06Z"/>
  </g>
  <path class="cls-9" d="M296.56,64.67l6.84,19.58c1.15,3.17,2.09,6.05,2.81,8.93h.22c.79-2.88,1.8-5.76,2.95-8.93l6.77-19.58h6.62l-13.68,34.85h-6.05l-13.25-34.85h6.77Z"/>
  <g>
    <g>
      <line class="cls-8" x1="194.59" y1="176.48" x2="322.58" y2="175.61"/>
      <g>
        <line class="cls-5" x1="194.59" y1="176.48" x2="302.24" y2="175.75"/>
        <polygon class="cls-8" points="298.2 189.91 322.58 175.61 298.01 161.64 298.2 189.91"/>
      </g>
    </g>
    <g>
      <rect class="cls-6" x="197.63" y="167.85" width="100" height="30.77" transform="translate(-1.23 1.67) rotate(-.39)"/>
      <path class="cls-2" d="M207.62,174.56l-1.58-6.06h.83s.74,3.06.74,3.06c.18.75.35,1.51.46,2.09h.02c.1-.6.28-1.33.48-2.11l.79-3.07h.82s.76,3.07.76,3.07c.18.72.34,1.44.44,2.08h.02c.12-.67.29-1.34.47-2.1l.78-3.07h.8s-1.68,6.07-1.68,6.07h-.82s-.79-3.15-.79-3.15c-.19-.77-.32-1.37-.41-1.98h-.02c-.1.6-.24,1.2-.46,1.98l-.84,3.17h-.82Z"/>
      <path class="cls-2" d="M214.92,168.93c.01.27-.19.49-.5.49-.28,0-.48-.21-.48-.48,0-.28.2-.5.49-.5.3,0,.49.21.49.49ZM214.07,174.52l-.03-4.36h.79s.03,4.35.03,4.35h-.79Z"/>
      <path class="cls-2" d="M217.09,168.89v1.25s1.14,0,1.14,0v.6s-1.13,0-1.13,0l.02,2.35c0,.54.16.85.6.84.21,0,.36-.03.46-.06l.04.59c-.15.06-.4.11-.7.11-.37,0-.67-.11-.86-.33-.23-.23-.31-.62-.31-1.13l-.02-2.38h-.67s0-.6,0-.6h.67s0-1.05,0-1.05l.77-.21Z"/>
      <path class="cls-2" d="M219.11,168.09h.79s.02,2.71.02,2.71h.02c.12-.23.32-.42.56-.56.23-.14.51-.23.81-.23.58,0,1.52.35,1.53,1.85l.02,2.59h-.79s-.02-2.5-.02-2.5c0-.7-.27-1.29-1.02-1.29-.51,0-.92.37-1.06.8-.05.11-.05.22-.05.38l.02,2.63h-.79s-.04-6.39-.04-6.39Z"/>
      <path class="cls-2" d="M225,168.86c.01.27-.19.49-.5.49-.28,0-.48-.21-.48-.48,0-.28.2-.5.49-.5.3,0,.49.21.49.49ZM224.15,174.45l-.03-4.36h.79s.03,4.35.03,4.35h-.79Z"/>
      <path class="cls-2" d="M226.23,171.26c0-.45-.01-.82-.04-1.18h.7s.05.71.05.71h.02c.21-.42.71-.82,1.44-.83.6,0,1.54.35,1.55,1.84l.02,2.6h-.79s-.02-2.51-.02-2.51c0-.7-.27-1.29-1.02-1.28-.52,0-.92.38-1.06.82-.04.1-.05.23-.05.37l.02,2.62h-.79s-.02-3.17-.02-3.17Z"/>
      <path class="cls-2" d="M233.14,171.21c0-.45-.01-.82-.04-1.18h.69s.04.7.04.7h.03c.24-.42.64-.81,1.36-.81.59,0,1.05.35,1.24.87h.02c.13-.24.3-.43.48-.57.26-.2.55-.31.96-.31.58,0,1.43.37,1.44,1.88l.02,2.57h-.77s-.02-2.46-.02-2.46c0-.84-.31-1.34-.95-1.33-.45,0-.8.34-.93.73-.04.11-.06.25-.06.4l.02,2.69h-.77s-.02-2.61-.02-2.61c0-.69-.31-1.19-.92-1.19-.5,0-.85.4-.98.8-.04.12-.06.25-.06.39l.02,2.63h-.77s-.02-3.17-.02-3.17Z"/>
      <path class="cls-2" d="M243.08,174.32l-.07-.55h-.03c-.24.34-.71.65-1.33.66-.88,0-1.34-.61-1.34-1.24,0-1.05.92-1.64,2.61-1.64v-.09c0-.36-.11-1.01-1-1-.41,0-.83.13-1.13.33l-.18-.52c.36-.24.88-.39,1.43-.4,1.33,0,1.66.9,1.67,1.77v1.63c.01.38.03.75.09,1.04h-.72ZM242.95,172.1c-.86-.01-1.84.15-1.84.99,0,.51.35.75.75.75.57,0,.92-.37,1.05-.74.03-.08.04-.17.04-.25v-.76Z"/>
      <path class="cls-2" d="M245.34,169.95l.63.93c.16.24.3.47.45.71h.03c.14-.26.28-.49.43-.72l.61-.93h.86s-1.47,2.11-1.47,2.11l1.55,2.24h-.9s-.65-.97-.65-.97c-.17-.25-.32-.49-.47-.75h-.02c-.14.26-.29.5-.45.76l-.62.99h-.87s1.53-2.23,1.53-2.23l-1.49-2.12h.88Z"/>
      <path class="cls-2" d="M251.06,171.33c0-.56-.02-1.01-.05-1.42h.71s.04.74.04.74h.02c.32-.53.83-.85,1.54-.86,1.05,0,1.85.88,1.86,2.2.01,1.57-.94,2.35-1.96,2.35-.58,0-1.08-.25-1.35-.67h-.02l.02,2.37h-.78s-.03-4.71-.03-4.71ZM251.85,172.49c0,.12.02.22.04.32.15.55.63.92,1.2.92.84,0,1.32-.69,1.31-1.69,0-.87-.47-1.62-1.31-1.61-.54,0-1.04.39-1.19.99-.03.1-.05.22-.05.32v.75Z"/>
      <path class="cls-2" d="M256.18,171.23c0-.51-.02-.95-.05-1.36h.69s.03.85.03.85h.04c.19-.59.67-.96,1.2-.96.09,0,.15,0,.22.03v.75c-.08-.02-.16-.03-.26-.02-.56,0-.95.43-1.06,1.02-.02.11-.04.23-.03.37l.02,2.32h-.78s-.02-2.99-.02-2.99Z"/>
      <path class="cls-2" d="M262.98,171.97c.01,1.61-1.1,2.32-2.15,2.33-1.18,0-2.09-.85-2.1-2.23,0-1.46.94-2.32,2.15-2.33,1.25,0,2.1.9,2.11,2.23ZM259.52,172.04c0,.95.56,1.67,1.33,1.67.76,0,1.32-.72,1.31-1.7,0-.74-.38-1.67-1.32-1.67-.94,0-1.33.87-1.33,1.7Z"/>
      <path class="cls-2" d="M262.94,175.45c.36-.03.67-.13.86-.34.21-.25.29-.6.29-1.64l-.02-3.65h.79s.03,3.95.03,3.95c0,.85-.13,1.4-.51,1.79-.35.35-.92.5-1.35.5l-.08-.62ZM264.94,168.59c.01.26-.18.49-.49.49-.3,0-.49-.22-.49-.48,0-.28.2-.5.5-.5.29,0,.48.21.48.49Z"/>
      <path class="cls-2" d="M266.61,172.13c.03,1.07.71,1.51,1.5,1.5.57,0,.91-.11,1.2-.23l.14.57c-.28.13-.75.28-1.45.28-1.34,0-2.15-.87-2.16-2.18s.76-2.36,2.03-2.36c1.42,0,1.81,1.24,1.81,2.04,0,.16-.02.29-.03.37l-3.06.02ZM268.93,171.55c0-.5-.22-1.29-1.11-1.28-.8,0-1.15.75-1.21,1.3l2.31-.02Z"/>
      <path class="cls-2" d="M273.79,173.95c-.21.11-.66.26-1.25.26-1.31,0-2.18-.88-2.18-2.21,0-1.34.9-2.32,2.33-2.33.47,0,.88.11,1.1.22l-.18.61c-.19-.11-.49-.2-.92-.2-1,0-1.53.75-1.53,1.66,0,1.01.66,1.62,1.52,1.62.45,0,.75-.12.97-.22l.14.59Z"/>
      <path class="cls-2" d="M275.75,168.49v1.25s1.14,0,1.14,0v.6s-1.13,0-1.13,0l.02,2.35c0,.54.16.84.6.84.21,0,.36-.03.46-.06l.04.59c-.15.06-.4.11-.7.11-.37,0-.67-.11-.86-.33-.23-.23-.31-.62-.31-1.13l-.02-2.38h-.67s0-.6,0-.6h.67s0-1.05,0-1.05l.77-.21Z"/>
      <path class="cls-2" d="M278.66,168.5c.01.27-.19.49-.5.49-.28,0-.48-.21-.48-.48,0-.28.2-.5.49-.5.3,0,.49.21.49.49ZM277.82,174.09l-.03-4.36h.79s.03,4.35.03,4.35h-.79Z"/>
      <path class="cls-2" d="M283.85,171.83c.01,1.61-1.1,2.32-2.15,2.33-1.18,0-2.09-.85-2.1-2.23,0-1.46.94-2.32,2.15-2.33,1.25,0,2.1.9,2.11,2.23ZM280.39,171.9c0,.95.56,1.67,1.33,1.67.76,0,1.32-.72,1.31-1.7,0-.74-.38-1.67-1.32-1.67-.94,0-1.33.87-1.33,1.7Z"/>
      <path class="cls-2" d="M284.84,170.86c0-.45-.01-.82-.04-1.18h.7s.05.72.05.72h.02c.21-.42.71-.83,1.44-.83.6,0,1.54.35,1.55,1.84l.02,2.6h-.79s-.02-2.51-.02-2.51c0-.7-.27-1.29-1.02-1.28-.52,0-.92.38-1.06.82-.04.1-.05.23-.05.37l.02,2.62h-.79s-.02-3.17-.02-3.17Z"/>
      <path class="cls-2" d="M230.55,179.6v1.25s1.14,0,1.14,0v.6s-1.13,0-1.13,0l.02,2.35c0,.54.16.85.6.84.21,0,.36-.03.46-.06l.04.59c-.15.06-.4.11-.7.11-.37,0-.67-.11-.86-.33-.23-.23-.31-.62-.31-1.13l-.02-2.38h-.67s0-.6,0-.6h.67s0-1.05,0-1.05l.77-.21Z"/>
      <path class="cls-2" d="M236.49,182.95c.01,1.61-1.1,2.32-2.16,2.33-1.18,0-2.09-.85-2.1-2.23,0-1.46.94-2.32,2.15-2.33,1.25,0,2.1.9,2.11,2.23ZM233.03,183.02c0,.95.56,1.67,1.33,1.67.76,0,1.32-.72,1.31-1.7,0-.74-.38-1.67-1.32-1.67-.94,0-1.33.87-1.33,1.7Z"/>
      <path class="cls-2" d="M237.46,178.77h.79s.04,6.39.04,6.39h-.79s-.04-6.39-.04-6.39Z"/>
      <path class="cls-2" d="M239.58,178.75h.79s.04,6.39.04,6.39h-.79s-.04-6.39-.04-6.39Z"/>
      <path class="cls-2" d="M242.18,183.09c.02,1.07.71,1.51,1.5,1.5.57,0,.91-.11,1.21-.23l.14.57c-.28.13-.76.28-1.45.28-1.34,0-2.15-.87-2.16-2.18s.76-2.36,2.03-2.36c1.42,0,1.81,1.24,1.81,2.04,0,.16-.02.29-.02.37l-3.06.02ZM244.49,182.51c0-.5-.22-1.29-1.11-1.28-.8,0-1.15.75-1.21,1.3l2.31-.02Z"/>
      <path class="cls-2" d="M246.24,182.1c0-.51-.01-.95-.04-1.36h.69s.03.85.03.85h.04c.19-.59.67-.96,1.2-.96.09,0,.15,0,.22.03v.75c-.08-.02-.16-.03-.26-.03-.56,0-.95.43-1.06,1.02-.02.11-.03.23-.03.37l.02,2.32h-.78s-.02-2.99-.02-2.99Z"/>
      <path class="cls-2" d="M251.57,185.06l-.07-.55h-.03c-.24.34-.71.65-1.33.66-.88,0-1.34-.61-1.34-1.24,0-1.05.92-1.64,2.61-1.64v-.09c0-.36-.11-1.01-1-1-.4,0-.83.13-1.13.33l-.18-.52c.36-.24.88-.39,1.43-.4,1.33,0,1.66.9,1.67,1.77v1.63c.01.38.04.75.09,1.04h-.72ZM251.43,182.84c-.86-.01-1.84.15-1.84.99,0,.51.35.75.75.75.57,0,.93-.37,1.05-.74.03-.08.04-.17.04-.25v-.76Z"/>
      <path class="cls-2" d="M253.47,181.87c0-.45-.01-.82-.04-1.18h.7s.05.72.05.72h.02c.21-.42.71-.83,1.43-.83.6,0,1.54.35,1.55,1.84l.02,2.6h-.79s-.02-2.51-.02-2.51c0-.7-.27-1.29-1.02-1.28-.52,0-.92.38-1.06.82-.04.1-.05.23-.05.37l.02,2.62h-.79s-.02-3.17-.02-3.17Z"/>
      <path class="cls-2" d="M261.59,184.83c-.21.11-.67.26-1.25.26-1.31,0-2.18-.88-2.18-2.21,0-1.34.9-2.32,2.33-2.33.47,0,.88.11,1.1.22l-.18.61c-.19-.11-.49-.2-.92-.2-1,0-1.53.75-1.53,1.66,0,1.01.66,1.62,1.52,1.62.45,0,.75-.12.97-.22l.14.59Z"/>
      <path class="cls-2" d="M262.89,182.95c.02,1.07.71,1.51,1.5,1.5.57,0,.91-.11,1.21-.23l.14.57c-.28.13-.76.28-1.45.28-1.34,0-2.15-.87-2.16-2.18s.76-2.36,2.03-2.36c1.42,0,1.81,1.24,1.81,2.04,0,.16-.02.29-.02.37l-3.06.02ZM265.21,182.37c0-.5-.22-1.29-1.11-1.28-.8,0-1.15.75-1.21,1.3l2.31-.02Z"/>
    </g>
  </g>
</svg>