<?xml version="1.0" encoding="UTF-8"?>
<svg id="Polygon" xmlns="http://www.w3.org/2000/svg" viewBox="0 0 538.58 188.6">
  <defs>
    <style>
      .cls-1 {
        fill: #437898;
        opacity: .41;
      }

      .cls-2 {
        fill: #231f20;
      }

      .cls-3 {
        fill: #6dbae7;
        opacity: .31;
      }

      .cls-4 {
        fill: #fff;
      }

      .cls-5 {
        stroke: #9b9a9a;
      }

      .cls-5, .cls-6, .cls-7 {
        fill: none;
      }

      .cls-5, .cls-7 {
        stroke-miterlimit: 10;
        stroke-width: 2.83px;
      }

      .cls-8 {
        fill: #9b9a9a;
      }

      .cls-7 {
        stroke: #437898;
      }

      .cls-9 {
        fill: #010101;
      }
    </style>
  </defs>
  <g>
    <rect class="cls-3" x="31.34" y="28.57" width="145" height="115"/>
    <rect class="cls-1" x="57.34" y="61.57" width="90" height="38"/>
    <rect class="cls-7" x="29.84" y="27.07" width="146" height="117"/>
    <g>
      <circle class="cls-2" cx="30.59" cy="27.82" r="7.75"/>
      <path class="cls-4" d="M29.38,29.25l-.7,2.12h-.9l2.29-6.74h1.05l2.3,6.74h-.93l-.72-2.12h-2.39ZM31.59,28.57l-.66-1.94c-.15-.44-.25-.84-.35-1.23h-.02c-.1.4-.21.81-.34,1.22l-.66,1.95h2.03Z"/>
    </g>
    <g>
      <circle class="cls-2" cx="175.47" cy="144.39" r="7.75"/>
      <path class="cls-4" d="M178.04,147.72c-.32.16-.96.32-1.78.32-1.9,0-3.33-1.2-3.33-3.41s1.43-3.54,3.52-3.54c.84,0,1.37.18,1.6.3l-.21.71c-.33-.16-.8-.28-1.36-.28-1.58,0-2.63,1.01-2.63,2.78,0,1.65.95,2.71,2.59,2.71.53,0,1.07-.11,1.42-.28l.18.69Z"/>
    </g>
    <g>
      <circle class="cls-2" cx="29.47" cy="144.39" r="7.75"/>
      <path class="cls-4" d="M27.52,141.29c.38-.08.98-.14,1.59-.14.87,0,1.43.15,1.85.49.35.26.56.66.56,1.19,0,.65-.43,1.22-1.14,1.48v.02c.64.16,1.39.69,1.39,1.69,0,.58-.23,1.02-.57,1.35-.47.43-1.23.63-2.33.63-.6,0-1.06-.04-1.35-.08v-6.63ZM28.39,144.05h.79c.92,0,1.46-.48,1.46-1.13,0-.79-.6-1.1-1.48-1.1-.4,0-.63.03-.77.06v2.17ZM28.39,147.28c.17.03.42.04.73.04.9,0,1.73-.33,1.73-1.31,0-.92-.79-1.3-1.74-1.3h-.72v2.57Z"/>
    </g>
    <g>
      <circle class="cls-2" cx="175.47" cy="27.39" r="7.75"/>
      <path class="cls-4" d="M173.16,24.6c.48-.07,1.04-.13,1.67-.13,1.12,0,1.93.26,2.46.76.54.5.85,1.2.85,2.18s-.31,1.8-.87,2.36c-.57.57-1.5.87-2.68.87-.56,0-1.03-.03-1.42-.07v-5.97ZM173.94,29.96c.2.04.49.04.79.04,1.67,0,2.58-.94,2.58-2.57,0-1.43-.8-2.34-2.46-2.34-.41,0-.71.04-.92.08v4.79Z"/>
    </g>
    <g>
      <rect class="cls-6" x="2.34" y="160.05" width="189" height="23.48"/>
      <path class="cls-2" d="M41.16,172.37v-11.95h2.74v.83h-1.72v10.3h1.72v.83h-2.74Z"/>
      <path class="cls-2" d="M45.42,172.37v-11.95h2.74v.83h-1.72v10.3h1.72v.83h-2.74Z"/>
      <path class="cls-2" d="M51.06,167.52l-1.05,3.18h-1.35l3.44-10.11h1.57l3.45,10.11h-1.4l-1.08-3.18h-3.58ZM54.37,166.49l-.99-2.91c-.22-.66-.38-1.26-.52-1.85h-.03c-.15.6-.31,1.22-.51,1.83l-.99,2.92h3.04Z"/>
      <path class="cls-2" d="M57.7,172.54c.33-.88.73-2.49.9-3.58l1.47-.15c-.34,1.27-1,2.94-1.42,3.64l-.94.09Z"/>
      <path class="cls-2" d="M61.71,160.72c.57-.12,1.47-.21,2.38-.21,1.3,0,2.15.22,2.77.74.52.39.84.99.84,1.78,0,.98-.65,1.83-1.71,2.22v.03c.96.24,2.08,1.04,2.08,2.54,0,.87-.34,1.53-.85,2.03-.71.64-1.84.94-3.49.94-.9,0-1.59-.06-2.02-.12v-9.94ZM63.01,164.86h1.19c1.38,0,2.19-.72,2.19-1.69,0-1.19-.9-1.65-2.22-1.65-.6,0-.94.04-1.15.09v3.25ZM63.01,169.7c.25.04.63.06,1.1.06,1.35,0,2.59-.5,2.59-1.96,0-1.38-1.19-1.95-2.61-1.95h-1.08v3.85Z"/>
      <path class="cls-2" d="M68.74,172.54c.33-.88.73-2.49.9-3.58l1.47-.15c-.34,1.27-1,2.94-1.42,3.64l-.94.09Z"/>
      <path class="cls-2" d="M79.81,170.36c-.48.24-1.44.48-2.67.48-2.85,0-4.99-1.8-4.99-5.12s2.15-5.31,5.28-5.31c1.26,0,2.05.27,2.4.45l-.31,1.06c-.5-.24-1.2-.42-2.04-.42-2.37,0-3.94,1.51-3.94,4.17,0,2.47,1.42,4.06,3.88,4.06.79,0,1.6-.17,2.13-.42l.27,1.04Z"/>
      <path class="cls-2" d="M80.55,172.54c.33-.88.73-2.49.9-3.58l1.47-.15c-.34,1.27-1,2.94-1.42,3.64l-.94.09Z"/>
      <path class="cls-2" d="M84.55,160.72c.79-.12,1.74-.21,2.77-.21,1.87,0,3.21.43,4.09,1.26.9.83,1.42,2,1.42,3.63s-.51,3-1.46,3.93c-.94.95-2.5,1.46-4.47,1.46-.93,0-1.71-.04-2.37-.12v-9.94ZM85.86,169.66c.33.06.81.08,1.32.08,2.79,0,4.31-1.56,4.31-4.29.01-2.38-1.33-3.9-4.1-3.9-.67,0-1.18.06-1.53.13v7.98Z"/>
      <path class="cls-2" d="M96.33,160.4v11.97h-2.74v-.83h1.72v-10.32h-1.72v-.83h2.74Z"/>
      <path class="cls-2" d="M98.79,172.37v-11.95h2.74v.83h-1.72v10.3h1.72v.83h-2.74Z"/>
      <path class="cls-2" d="M108.19,165.95h-3.93v3.65h4.38v1.09h-5.68v-10.11h5.46v1.09h-4.15v3.2h3.93v1.08Z"/>
      <path class="cls-2" d="M109.38,172.54c.33-.88.73-2.49.9-3.58l1.47-.15c-.34,1.27-1,2.94-1.42,3.64l-.94.09Z"/>
      <path class="cls-2" d="M114.69,160.59v4.23h4.89v-4.23h1.32v10.11h-1.32v-4.74h-4.89v4.74h-1.3v-10.11h1.3Z"/>
      <path class="cls-2" d="M122.26,172.54c.33-.88.73-2.49.9-3.58l1.47-.15c-.34,1.27-1,2.94-1.42,3.64l-.94.09Z"/>
      <path class="cls-2" d="M133.96,170.24c-.58.21-1.74.56-3.1.56-1.53,0-2.79-.39-3.78-1.33-.87-.84-1.41-2.19-1.41-3.77.02-3.01,2.08-5.22,5.47-5.22,1.17,0,2.08.25,2.52.46l-.31,1.07c-.54-.24-1.21-.44-2.23-.44-2.46,0-4.06,1.53-4.06,4.07s1.54,4.08,3.9,4.08c.85,0,1.44-.12,1.74-.27v-3.01h-2.05v-1.05h3.33v4.86Z"/>
      <path class="cls-2" d="M135.06,172.54c.33-.88.73-2.49.9-3.58l1.47-.15c-.34,1.27-1,2.94-1.42,3.64l-.94.09Z"/>
      <path class="cls-2" d="M139.06,160.59h5.44v1.09h-4.14v3.36h3.82v1.08h-3.82v4.58h-1.3v-10.11Z"/>
      <path class="cls-2" d="M148.26,160.4v11.97h-2.74v-.83h1.72v-10.32h-1.72v-.83h2.74Z"/>
      <path class="cls-2" d="M152.52,160.4v11.97h-2.74v-.83h1.72v-10.32h-1.72v-.83h2.74Z"/>
    </g>
    <rect class="cls-7" x="56.84" y="61.07" width="92" height="38"/>
    <g>
      <circle class="cls-2" cx="150.38" cy="99.8" r="7.75"/>
      <path class="cls-4" d="M153.04,103.05c-.39.14-1.16.37-2.07.37-1.02,0-1.86-.26-2.52-.89-.58-.56-.94-1.46-.94-2.51,0-2.01,1.39-3.48,3.65-3.48.78,0,1.39.17,1.68.31l-.21.71c-.36-.16-.81-.29-1.49-.29-1.64,0-2.71,1.02-2.71,2.71s1.03,2.72,2.6,2.72c.57,0,.96-.08,1.16-.18v-2.01h-1.37v-.7h2.22v3.24Z"/>
    </g>
    <g>
      <circle class="cls-2" cx="147.38" cy="60.8" r="7.75"/>
      <path class="cls-4" d="M145.71,57.61h3.63v.73h-2.76v2.24h2.55v.72h-2.55v3.05h-.87v-6.74Z"/>
    </g>
    <g>
      <circle class="cls-2" cx="57.38" cy="101.8" r="7.75"/>
      <path class="cls-4" d="M55.92,98.93v2.54h2.94v-2.54h.79v6.07h-.79v-2.84h-2.94v2.84h-.78v-6.07h.78Z"/>
    </g>
    <g>
      <circle class="cls-2" cx="56.38" cy="60.8" r="7.75"/>
      <path class="cls-4" d="M58.17,61.19h-2.62v2.43h2.92v.73h-3.79v-6.74h3.64v.73h-2.77v2.13h2.62v.72Z"/>
    </g>
  </g>
  <g>
    <line class="cls-5" x1="201.34" y1="91.07" x2="309" y2="91.07"/>
    <polygon class="cls-8" points="304.86 105.2 329.34 91.07 304.86 76.93 304.86 105.2"/>
  </g>
  <g>
    <rect class="cls-6" x="205.38" y="82.13" width="94.96" height="17.93"/>
    <path class="cls-2" d="M221.39,88.32c-.29.14-.86.29-1.6.29-1.71,0-3-1.08-3-3.07s1.29-3.19,3.17-3.19c.76,0,1.23.16,1.44.27l-.19.64c-.3-.14-.72-.25-1.22-.25-1.42,0-2.37.91-2.37,2.5,0,1.48.86,2.44,2.33,2.44.48,0,.96-.1,1.28-.25l.16.62Z"/>
    <path class="cls-2" d="M222.34,82.13h.79v2.72h.02c.13-.22.32-.42.57-.56.23-.13.51-.23.81-.23.58,0,1.52.36,1.52,1.86v2.59h-.79v-2.5c0-.7-.26-1.3-1.01-1.3-.51,0-.92.36-1.06.79-.05.11-.05.22-.05.38v2.63h-.79v-6.39Z"/>
    <path class="cls-2" d="M229.75,88.52l-.06-.55h-.03c-.24.34-.71.65-1.33.65-.88,0-1.33-.62-1.33-1.25,0-1.05.94-1.63,2.62-1.62v-.09c0-.36-.1-1.01-.99-1.01-.41,0-.83.13-1.13.32l-.18-.52c.36-.23.88-.39,1.43-.39,1.33,0,1.66.91,1.66,1.78v1.63c0,.38.02.75.07,1.04h-.72ZM229.63,86.3c-.86-.02-1.85.13-1.85.98,0,.51.34.76.75.76.57,0,.93-.36,1.05-.73.03-.08.04-.17.04-.25v-.76Z"/>
    <path class="cls-2" d="M231.68,85.34c0-.45,0-.82-.04-1.18h.7l.04.72h.02c.22-.41.72-.82,1.44-.82.6,0,1.54.36,1.54,1.85v2.6h-.79v-2.51c0-.7-.26-1.29-1.01-1.29-.52,0-.93.37-1.06.81-.04.1-.05.23-.05.37v2.62h-.79v-3.18Z"/>
    <path class="cls-2" d="M240.42,84.16c-.02.32-.04.67-.04,1.2v2.53c0,1-.2,1.61-.62,1.99-.42.4-1.04.52-1.58.52s-1.1-.13-1.45-.36l.2-.6c.29.18.74.34,1.28.34.81,0,1.4-.42,1.4-1.52v-.49h-.02c-.24.4-.71.73-1.39.73-1.08,0-1.85-.92-1.85-2.12,0-1.48.96-2.31,1.96-2.31.76,0,1.17.4,1.36.76h.02l.04-.66h.69ZM239.61,85.89c0-.14,0-.25-.04-.36-.14-.46-.53-.84-1.11-.84-.76,0-1.3.64-1.3,1.65,0,.86.43,1.57,1.29,1.57.49,0,.93-.31,1.1-.81.04-.13.06-.29.06-.42v-.78Z"/>
    <path class="cls-2" d="M242.14,86.49c.02,1.07.7,1.51,1.49,1.51.57,0,.91-.1,1.21-.22l.14.57c-.28.13-.76.27-1.45.27-1.34,0-2.14-.88-2.14-2.2s.77-2.35,2.04-2.35c1.42,0,1.8,1.25,1.8,2.05,0,.16-.02.29-.03.37h-3.06ZM244.47,85.92c0-.5-.21-1.29-1.1-1.29-.8,0-1.15.74-1.21,1.29h2.31Z"/>
    <path class="cls-2" d="M252.06,86.31c0,1.61-1.12,2.31-2.17,2.31-1.18,0-2.09-.86-2.09-2.24,0-1.46.96-2.31,2.16-2.31s2.1.91,2.1,2.24ZM248.61,86.35c0,.95.55,1.67,1.32,1.67s1.32-.71,1.32-1.69c0-.74-.37-1.67-1.31-1.67s-1.34.86-1.34,1.69Z"/>
    <path class="cls-2" d="M253.06,85.52c0-.51,0-.95-.04-1.36h.69l.03.86h.04c.2-.58.68-.95,1.21-.95.09,0,.15,0,.22.03v.75c-.08-.02-.16-.03-.27-.03-.56,0-.96.42-1.06,1.02-.02.11-.04.23-.04.37v2.32h-.78v-3Z"/>
    <path class="cls-2" d="M256.92,82.94c0,.27-.19.49-.5.49-.28,0-.48-.21-.48-.49s.21-.5.5-.5.49.22.49.5ZM256.04,88.52v-4.36h.79v4.36h-.79Z"/>
    <path class="cls-2" d="M258.59,86.49c.02,1.07.7,1.51,1.49,1.51.57,0,.91-.1,1.21-.22l.14.57c-.28.13-.76.27-1.45.27-1.34,0-2.14-.88-2.14-2.2s.77-2.35,2.04-2.35c1.42,0,1.8,1.25,1.8,2.05,0,.16-.02.29-.03.37h-3.06ZM260.91,85.92c0-.5-.21-1.29-1.1-1.29-.8,0-1.15.74-1.21,1.29h2.31Z"/>
    <path class="cls-2" d="M262.65,85.34c0-.45,0-.82-.04-1.18h.7l.04.72h.02c.22-.41.72-.82,1.44-.82.6,0,1.54.36,1.54,1.85v2.6h-.79v-2.51c0-.7-.26-1.29-1.01-1.29-.52,0-.93.37-1.06.81-.04.1-.05.23-.05.37v2.62h-.79v-3.18Z"/>
    <path class="cls-2" d="M268.57,82.91v1.25h1.13v.6h-1.13v2.35c0,.54.15.85.59.85.21,0,.36-.03.46-.05l.04.59c-.15.06-.4.11-.7.11-.37,0-.67-.12-.86-.33-.23-.23-.31-.62-.31-1.13v-2.38h-.67v-.6h.67v-1.04l.77-.21Z"/>
    <path class="cls-2" d="M273,88.52l-.06-.55h-.03c-.24.34-.71.65-1.33.65-.88,0-1.33-.62-1.33-1.25,0-1.05.94-1.63,2.62-1.62v-.09c0-.36-.1-1.01-.99-1.01-.41,0-.83.13-1.13.32l-.18-.52c.36-.23.88-.39,1.43-.39,1.33,0,1.66.91,1.66,1.78v1.63c0,.38.02.75.07,1.04h-.72ZM272.89,86.3c-.86-.02-1.85.13-1.85.98,0,.51.34.76.75.76.57,0,.93-.36,1.05-.73.03-.08.04-.17.04-.25v-.76Z"/>
    <path class="cls-2" d="M275.85,82.91v1.25h1.13v.6h-1.13v2.35c0,.54.15.85.59.85.21,0,.36-.03.46-.05l.04.59c-.15.06-.4.11-.7.11-.37,0-.67-.12-.86-.33-.23-.23-.31-.62-.31-1.13v-2.38h-.67v-.6h.67v-1.04l.77-.21Z"/>
    <path class="cls-2" d="M278.75,82.94c0,.27-.19.49-.5.49-.28,0-.48-.21-.48-.49s.21-.5.5-.5.49.22.49.5ZM277.87,88.52v-4.36h.79v4.36h-.79Z"/>
    <path class="cls-2" d="M283.92,86.31c0,1.61-1.12,2.31-2.17,2.31-1.18,0-2.09-.86-2.09-2.24,0-1.46.95-2.31,2.16-2.31s2.1.91,2.1,2.24ZM280.46,86.35c0,.95.55,1.67,1.32,1.67s1.32-.71,1.32-1.69c0-.74-.37-1.67-1.31-1.67s-1.34.86-1.34,1.69Z"/>
    <path class="cls-2" d="M284.92,85.34c0-.45,0-.82-.04-1.18h.7l.04.72h.02c.22-.41.72-.82,1.44-.82.6,0,1.54.36,1.54,1.85v2.6h-.79v-2.51c0-.7-.26-1.29-1.01-1.29-.52,0-.93.37-1.06.81-.04.1-.05.23-.05.37v2.62h-.79v-3.18Z"/>
    <path class="cls-2" d="M240.83,97.11c0,1.61-1.12,2.31-2.17,2.31-1.18,0-2.09-.86-2.09-2.24,0-1.46.96-2.31,2.16-2.31s2.1.91,2.1,2.24ZM237.37,97.15c0,.95.55,1.67,1.32,1.67s1.32-.71,1.32-1.69c0-.74-.37-1.68-1.31-1.68s-1.34.87-1.34,1.69Z"/>
    <path class="cls-2" d="M241.91,99.32v-3.75h-.61v-.6h.61v-.21c0-.61.13-1.17.5-1.52.3-.29.69-.41,1.06-.41.28,0,.52.06.67.13l-.11.61c-.12-.05-.28-.1-.5-.1-.68,0-.85.59-.85,1.26v.23h1.05v.6h-1.05v3.75h-.78Z"/>
    <path class="cls-2" d="M246.36,96.32c0-.51,0-.96-.04-1.36h.69l.03.86h.04c.2-.59.68-.96,1.21-.96.09,0,.15,0,.22.03v.75c-.08-.02-.16-.03-.27-.03-.56,0-.95.42-1.06,1.02-.02.11-.04.23-.04.37v2.32h-.78v-3Z"/>
    <path class="cls-2" d="M250.23,93.74c0,.27-.19.49-.5.49-.28,0-.48-.22-.48-.49s.21-.5.5-.5.49.22.49.5ZM249.34,99.32v-4.36h.79v4.36h-.79Z"/>
    <path class="cls-2" d="M251.45,96.15c0-.45,0-.82-.04-1.18h.7l.04.72h.02c.22-.41.72-.82,1.44-.82.6,0,1.54.36,1.54,1.86v2.6h-.79v-2.51c0-.7-.26-1.29-1.01-1.29-.52,0-.93.37-1.06.81-.04.1-.05.23-.05.37v2.62h-.79v-3.18Z"/>
    <path class="cls-2" d="M260.2,94.97c-.02.31-.04.67-.04,1.2v2.53c0,1-.2,1.61-.62,1.99-.42.4-1.04.52-1.58.52s-1.1-.13-1.45-.36l.2-.6c.29.18.74.34,1.28.34.81,0,1.4-.42,1.4-1.52v-.49h-.02c-.24.41-.71.73-1.39.73-1.08,0-1.85-.92-1.85-2.12,0-1.48.96-2.31,1.96-2.31.76,0,1.17.4,1.36.76h.02l.04-.66h.69ZM259.38,96.68c0-.13,0-.25-.04-.36-.14-.46-.53-.84-1.11-.84-.76,0-1.3.64-1.3,1.65,0,.85.43,1.57,1.29,1.57.49,0,.93-.31,1.1-.81.04-.13.06-.29.06-.42v-.78Z"/>
    <path class="cls-2" d="M263.2,93.07c-.66.88-1.13,2.05-1.13,3.68s.5,2.75,1.13,3.66h-.62c-.57-.75-1.18-1.9-1.18-3.66,0-1.77.61-2.93,1.18-3.68h.62Z"/>
    <path class="cls-2" d="M263.92,98.51c.23.15.65.31,1.04.31.58,0,.85-.29.85-.65s-.22-.58-.81-.8c-.78-.28-1.15-.71-1.15-1.23,0-.7.57-1.28,1.5-1.28.44,0,.83.13,1.07.27l-.2.58c-.17-.11-.49-.25-.89-.25-.47,0-.73.27-.73.59,0,.36.26.52.83.74.76.29,1.14.67,1.14,1.31,0,.76-.59,1.31-1.63,1.31-.48,0-.92-.12-1.22-.3l.2-.6Z"/>
    <path class="cls-2" d="M267.12,100.41c.64-.89,1.13-2.06,1.13-3.68s-.49-2.76-1.13-3.65h.61c.58.74,1.18,1.89,1.18,3.66s-.6,2.91-1.18,3.67h-.61Z"/>
  </g>
  <g>
    <rect class="cls-3" x="347.34" y="27.57" width="145" height="115"/>
    <rect class="cls-4" x="373.34" y="60.57" width="90" height="38"/>
    <rect class="cls-7" x="345.84" y="26.07" width="146" height="117"/>
    <g>
      <circle class="cls-2" cx="346.59" cy="26.82" r="7.75"/>
      <path class="cls-4" d="M345.38,28.25l-.7,2.12h-.9l2.29-6.74h1.05l2.3,6.74h-.93l-.72-2.12h-2.39ZM347.59,27.57l-.66-1.94c-.15-.44-.25-.84-.35-1.23h-.02c-.1.4-.21.81-.34,1.22l-.66,1.95h2.03Z"/>
    </g>
    <g>
      <circle class="cls-2" cx="491.47" cy="143.39" r="7.75"/>
      <path class="cls-4" d="M494.04,146.72c-.32.16-.96.32-1.78.32-1.9,0-3.33-1.2-3.33-3.41s1.43-3.54,3.52-3.54c.84,0,1.37.18,1.6.3l-.21.71c-.33-.16-.8-.28-1.36-.28-1.58,0-2.63,1.01-2.63,2.78,0,1.65.95,2.71,2.59,2.71.53,0,1.07-.11,1.42-.28l.18.69Z"/>
    </g>
    <g>
      <circle class="cls-2" cx="345.47" cy="143.39" r="7.75"/>
      <path class="cls-4" d="M343.52,140.29c.38-.08.98-.14,1.59-.14.87,0,1.43.15,1.85.49.35.26.56.66.56,1.19,0,.65-.43,1.22-1.14,1.48v.02c.64.16,1.39.69,1.39,1.69,0,.58-.23,1.02-.57,1.35-.47.43-1.23.63-2.33.63-.6,0-1.06-.04-1.35-.08v-6.63ZM344.39,143.05h.79c.92,0,1.46-.48,1.46-1.13,0-.79-.6-1.1-1.48-1.1-.4,0-.63.03-.77.06v2.17ZM344.39,146.28c.17.03.42.04.73.04.9,0,1.73-.33,1.73-1.31,0-.92-.79-1.3-1.74-1.3h-.72v2.57Z"/>
    </g>
    <g>
      <circle class="cls-2" cx="491.47" cy="26.39" r="7.75"/>
      <path class="cls-4" d="M489.16,23.6c.48-.07,1.04-.13,1.67-.13,1.12,0,1.93.26,2.46.76.54.5.85,1.2.85,2.18s-.31,1.8-.87,2.36c-.57.57-1.5.87-2.68.87-.56,0-1.03-.03-1.42-.07v-5.97ZM489.94,28.96c.2.04.49.04.79.04,1.67,0,2.58-.94,2.58-2.57,0-1.43-.8-2.34-2.46-2.34-.41,0-.71.04-.92.08v4.79Z"/>
    </g>
    <rect class="cls-7" x="372.84" y="60.07" width="92" height="38"/>
    <g>
      <circle class="cls-2" cx="466.38" cy="98.8" r="7.75"/>
      <path class="cls-4" d="M469.04,102.05c-.39.14-1.16.37-2.07.37-1.02,0-1.86-.26-2.52-.89-.58-.56-.94-1.46-.94-2.51,0-2.01,1.39-3.48,3.65-3.48.78,0,1.39.17,1.68.31l-.21.71c-.36-.16-.81-.29-1.49-.29-1.64,0-2.71,1.02-2.71,2.71s1.03,2.72,2.6,2.72c.57,0,.96-.08,1.16-.18v-2.01h-1.37v-.7h2.22v3.24Z"/>
    </g>
    <g>
      <circle class="cls-2" cx="463.38" cy="59.8" r="7.75"/>
      <path class="cls-4" d="M461.71,56.61h3.63v.73h-2.76v2.24h2.55v.72h-2.55v3.05h-.87v-6.74Z"/>
    </g>
    <g>
      <circle class="cls-2" cx="373.38" cy="100.8" r="7.75"/>
      <path class="cls-4" d="M371.92,97.93v2.54h2.94v-2.54h.79v6.07h-.79v-2.84h-2.94v2.84h-.78v-6.07h.78Z"/>
    </g>
    <g>
      <circle class="cls-2" cx="372.38" cy="59.8" r="7.75"/>
      <path class="cls-4" d="M374.17,60.19h-2.62v2.43h2.92v.73h-3.79v-6.74h3.64v.73h-2.77v2.13h2.62v.72Z"/>
    </g>
    <g>
      <rect class="cls-6" x="323.77" y="158.04" width="189" height="23.48"/>
      <path class="cls-2" d="M363.32,170.37v-11.95h2.75v.83h-1.72v10.3h1.72v.83h-2.75Z"/>
      <path class="cls-2" d="M367.58,170.37v-11.95h2.75v.83h-1.72v10.3h1.72v.83h-2.75Z"/>
      <path class="cls-2" d="M373.22,165.51l-1.05,3.18h-1.35l3.43-10.11h1.58l3.45,10.11h-1.39l-1.08-3.18h-3.58ZM376.54,164.49l-.99-2.91c-.22-.66-.38-1.26-.53-1.85h-.03c-.15.6-.32,1.22-.51,1.83l-.99,2.92h3.04Z"/>
      <path class="cls-2" d="M379.87,170.54c.33-.88.73-2.49.9-3.58l1.47-.15c-.34,1.27-1,2.94-1.42,3.64l-.94.09Z"/>
      <path class="cls-2" d="M383.87,158.72c.57-.12,1.47-.21,2.38-.21,1.3,0,2.15.22,2.78.74.52.39.84.99.84,1.78,0,.98-.65,1.83-1.71,2.22v.03c.96.24,2.08,1.04,2.08,2.54,0,.87-.34,1.53-.86,2.03-.71.64-1.84.94-3.49.94-.9,0-1.59-.06-2.03-.12v-9.94ZM385.18,162.86h1.19c1.38,0,2.19-.72,2.19-1.69,0-1.19-.9-1.65-2.22-1.65-.6,0-.95.04-1.16.09v3.25ZM385.18,167.7c.25.04.63.06,1.1.06,1.35,0,2.59-.5,2.59-1.96,0-1.38-1.19-1.95-2.61-1.95h-1.08v3.85Z"/>
      <path class="cls-2" d="M390.91,170.54c.33-.88.73-2.49.9-3.58l1.47-.15c-.34,1.27-1,2.94-1.42,3.64l-.94.09Z"/>
      <path class="cls-2" d="M401.98,168.36c-.48.24-1.44.48-2.67.48-2.85,0-5-1.8-5-5.12s2.15-5.31,5.28-5.31c1.26,0,2.05.27,2.4.45l-.31,1.06c-.5-.24-1.2-.42-2.04-.42-2.37,0-3.95,1.51-3.95,4.17,0,2.47,1.42,4.06,3.88,4.06.79,0,1.61-.17,2.13-.42l.27,1.04Z"/>
      <path class="cls-2" d="M402.71,170.54c.33-.88.73-2.49.9-3.58l1.47-.15c-.34,1.27-1,2.94-1.42,3.64l-.94.09Z"/>
      <path class="cls-2" d="M406.72,158.72c.79-.12,1.74-.21,2.77-.21,1.88,0,3.21.43,4.09,1.26.9.83,1.42,2,1.42,3.63s-.51,3-1.46,3.93c-.94.95-2.5,1.46-4.47,1.46-.93,0-1.71-.04-2.37-.12v-9.94ZM408.02,167.66c.33.06.81.08,1.32.08,2.79,0,4.31-1.56,4.31-4.29.01-2.38-1.33-3.9-4.1-3.9-.67,0-1.18.06-1.53.13v7.98Z"/>
      <path class="cls-2" d="M418.49,158.4v11.97h-2.75v-.83h1.72v-10.32h-1.72v-.83h2.75Z"/>
      <path class="cls-2" d="M420.95,170.37v-11.95h2.74v.83h-1.72v10.3h1.72v.83h-2.74Z"/>
      <path class="cls-2" d="M430.36,163.95h-3.93v3.65h4.38v1.09h-5.68v-10.11h5.46v1.09h-4.15v3.2h3.93v1.08Z"/>
      <path class="cls-2" d="M431.54,170.54c.33-.88.73-2.49.9-3.58l1.47-.15c-.34,1.27-1,2.94-1.42,3.64l-.94.09Z"/>
      <path class="cls-2" d="M435.55,158.58h5.44v1.09h-4.14v3.36h3.82v1.08h-3.82v4.58h-1.3v-10.11Z"/>
      <path class="cls-2" d="M440.5,170.54c.33-.88.74-2.49.9-3.58l1.47-.15c-.34,1.27-1,2.94-1.42,3.64l-.95.09Z"/>
      <path class="cls-2" d="M452.2,168.24c-.58.21-1.74.56-3.1.56-1.53,0-2.79-.39-3.78-1.33-.87-.84-1.41-2.19-1.41-3.77.01-3.01,2.08-5.22,5.47-5.22,1.17,0,2.08.25,2.52.46l-.31,1.07c-.54-.24-1.21-.44-2.24-.44-2.46,0-4.06,1.53-4.06,4.07s1.54,4.08,3.9,4.08c.86,0,1.44-.12,1.74-.27v-3.01h-2.05v-1.05h3.33v4.86Z"/>
      <path class="cls-2" d="M453.29,170.54c.33-.88.74-2.49.9-3.58l1.47-.15c-.34,1.27-1,2.94-1.42,3.64l-.95.09Z"/>
      <path class="cls-2" d="M458.6,158.58v4.23h4.89v-4.23h1.32v10.11h-1.32v-4.74h-4.89v4.74h-1.3v-10.11h1.3Z"/>
      <path class="cls-2" d="M468.97,158.4v11.97h-2.75v-.83h1.72v-10.32h-1.72v-.83h2.75Z"/>
      <path class="cls-2" d="M473.23,158.4v11.97h-2.75v-.83h1.72v-10.32h-1.72v-.83h2.75Z"/>
    </g>
  </g>
  <path class="cls-9" d="M86.28,83.48c.17.21.46.21.63,0l3.76-4.6c.17-.21.09-.39-.18-.4h-1.99c-.28,0-.46-.21-.4-.48,1.03-4.67,5.19-8.18,10.17-8.18,5.74,0,10.41,4.67,10.41,10.41s-4.67,10.41-10.41,10.41c-.69,0-1.25.56-1.25,1.25s.56,1.25,1.25,1.25c7.11,0,12.9-5.79,12.9-12.9s-5.79-12.9-12.9-12.9c-6.35,0-11.64,4.61-12.7,10.67-.05.27-.3.49-.58.52h-2.26c-.28-.03-.36.15-.18.36l3.76,4.6Z"/>
  <path class="cls-9" d="M426.75,83.1c-.16.2-.42.2-.58,0l-3.43-4.33c-.16-.2-.08-.36.17-.37h1.82c.25,0,.42-.2.37-.45-.94-4.4-4.74-7.71-9.28-7.71-5.24,0-9.5,4.4-9.5,9.82s4.26,9.82,9.5,9.82c.63,0,1.14.53,1.14,1.18s-.51,1.18-1.14,1.18c-6.49,0-11.78-5.46-11.78-12.17s5.28-12.17,11.78-12.17c5.8,0,10.63,4.35,11.59,10.06.04.26.27.46.52.49h2.07c.25-.03.33.14.17.34l-3.43,4.33Z"/>
</svg>