<?xml version="1.0" encoding="UTF-8"?>
<svg id="Shell" xmlns="http://www.w3.org/2000/svg" viewBox="0 0 852.58 424.6">
  <defs>
    <style>
      .cls-1 {
        fill: #231f20;
      }

      .cls-2, .cls-3, .cls-4, .cls-5, .cls-6, .cls-7 {
        fill: none;
      }

      .cls-2, .cls-3, .cls-5, .cls-6, .cls-7 {
        stroke-miterlimit: 10;
        stroke-width: 2.83px;
      }

      .cls-2, .cls-6 {
        stroke: #c92027;
      }

      .cls-2, .cls-7 {
        stroke-dasharray: 5.67;
      }

      .cls-8 {
        fill: #6dbae7;
        opacity: .31;
      }

      .cls-9 {
        fill: #fff;
      }

      .cls-3 {
        stroke: #9b9a9a;
      }

      .cls-10 {
        fill: #9b9a9a;
      }

      .cls-5, .cls-7 {
        stroke: #437898;
      }
    </style>
  </defs>
  <g>
    <polyline class="cls-8" points="64.87 64.73 33.3 160.08 86.5 116.8"/>
    <polyline class="cls-8" points="35.04 161.38 86.26 119.07 155.66 139.75"/>
    <line class="cls-7" x1="67.26" y1="63.07" x2="86.26" y2="119.07"/>
    <line class="cls-7" x1="86.26" y1="119.07" x2="154.26" y2="140.07"/>
    <line class="cls-7" x1="33.26" y1="161.07" x2="82.26" y2="120.07"/>
    <g>
      <circle class="cls-1" cx="84.66" cy="116.75" r="7.75"/>
      <path class="cls-9" d="M82.34,113.96c.48-.07,1.04-.13,1.67-.13,1.12,0,1.93.26,2.46.76.54.5.85,1.2.85,2.18s-.31,1.8-.87,2.36c-.57.57-1.5.87-2.68.87-.56,0-1.03-.03-1.42-.07v-5.97ZM83.13,119.33c.2.04.49.04.79.04,1.67,0,2.58-.94,2.58-2.58,0-1.43-.8-2.34-2.46-2.34-.41,0-.71.04-.92.08v4.79Z"/>
    </g>
    <polyline class="cls-8" points="65.75 61.94 32.76 160.57 158.03 137.47"/>
    <line class="cls-5" x1="68.76" y1="57.57" x2="32.76" y2="160.57"/>
    <line class="cls-5" x1="154.26" y1="140.07" x2="33.26" y2="161.07"/>
    <line class="cls-5" x1="67.26" y1="63.07" x2="154.26" y2="140.07"/>
    <g>
      <circle class="cls-1" cx="66.78" cy="61.18" r="7.75"/>
      <path class="cls-9" d="M65.57,62.62l-.7,2.12h-.9l2.29-6.74h1.05l2.3,6.74h-.93l-.72-2.12h-2.39ZM67.77,61.94l-.66-1.94c-.15-.44-.25-.84-.35-1.23h-.02c-.1.4-.21.81-.34,1.22l-.66,1.95h2.03Z"/>
    </g>
    <g>
      <circle class="cls-1" cx="155.66" cy="139.75" r="7.75"/>
      <path class="cls-9" d="M158.22,143.08c-.32.16-.96.32-1.78.32-1.9,0-3.33-1.2-3.33-3.41s1.43-3.54,3.52-3.54c.84,0,1.37.18,1.6.3l-.21.71c-.33-.16-.8-.28-1.36-.28-1.58,0-2.63,1.01-2.63,2.78,0,1.65.95,2.71,2.59,2.71.53,0,1.07-.11,1.42-.28l.18.69Z"/>
    </g>
    <g>
      <circle class="cls-1" cx="33.66" cy="159.75" r="7.75"/>
      <path class="cls-9" d="M31.71,156.66c.38-.08.98-.14,1.59-.14.87,0,1.43.15,1.85.49.35.26.56.66.56,1.19,0,.65-.43,1.22-1.14,1.48v.02c.64.16,1.39.69,1.39,1.69,0,.58-.23,1.02-.57,1.35-.47.43-1.23.63-2.33.63-.6,0-1.06-.04-1.35-.08v-6.63ZM32.58,159.42h.79c.92,0,1.46-.48,1.46-1.13,0-.79-.6-1.1-1.48-1.1-.4,0-.63.03-.77.06v2.17ZM32.58,162.65c.17.03.42.04.73.04.9,0,1.73-.33,1.73-1.31,0-.92-.79-1.3-1.74-1.3h-.72v2.57Z"/>
    </g>
  </g>
  <g>
    <polyline class="cls-8" points="384.65 63.73 353.08 159.08 406.29 115.8"/>
    <polyline class="cls-8" points="354.82 160.38 406.04 118.07 475.44 138.76"/>
    <line class="cls-2" x1="387.04" y1="62.07" x2="406.04" y2="118.07"/>
    <line class="cls-2" x1="406.04" y1="118.07" x2="474.04" y2="139.07"/>
    <line class="cls-7" x1="353.04" y1="160.07" x2="402.04" y2="119.07"/>
    <g>
      <circle class="cls-1" cx="404.44" cy="115.76" r="7.75"/>
      <path class="cls-9" d="M402.13,112.96c.48-.07,1.04-.13,1.67-.13,1.12,0,1.93.26,2.46.76.54.5.85,1.2.85,2.18s-.31,1.8-.87,2.36c-.57.57-1.5.87-2.68.87-.56,0-1.03-.03-1.42-.07v-5.97ZM402.91,118.33c.2.04.49.04.79.04,1.67,0,2.58-.94,2.58-2.57,0-1.43-.8-2.34-2.46-2.34-.41,0-.71.04-.92.08v4.79Z"/>
    </g>
    <polyline class="cls-8" points="385.53 60.94 352.54 159.57 477.81 136.47"/>
    <line class="cls-5" x1="388.54" y1="56.57" x2="352.54" y2="159.57"/>
    <line class="cls-5" x1="474.04" y1="139.07" x2="353.04" y2="160.07"/>
    <line class="cls-6" x1="387.04" y1="62.07" x2="474.04" y2="139.07"/>
    <g>
      <circle class="cls-1" cx="386.56" cy="60.18" r="7.75"/>
      <path class="cls-9" d="M385.35,61.62l-.7,2.12h-.9l2.29-6.74h1.05l2.3,6.74h-.93l-.72-2.12h-2.39ZM387.55,60.94l-.66-1.94c-.15-.44-.25-.84-.35-1.23h-.02c-.1.4-.21.81-.34,1.22l-.66,1.95h2.03Z"/>
    </g>
    <g>
      <circle class="cls-1" cx="475.44" cy="138.76" r="7.75"/>
      <path class="cls-9" d="M478.01,142.09c-.32.16-.96.32-1.78.32-1.9,0-3.33-1.2-3.33-3.41s1.43-3.54,3.52-3.54c.84,0,1.37.18,1.6.3l-.21.71c-.33-.16-.8-.28-1.36-.28-1.58,0-2.63,1.01-2.63,2.78,0,1.65.95,2.71,2.59,2.71.53,0,1.07-.11,1.42-.28l.18.69Z"/>
    </g>
    <g>
      <circle class="cls-1" cx="353.44" cy="158.76" r="7.75"/>
      <path class="cls-9" d="M351.49,155.66c.38-.08.98-.14,1.59-.14.87,0,1.43.15,1.85.49.35.26.56.66.56,1.19,0,.65-.43,1.22-1.14,1.48v.02c.64.16,1.39.69,1.39,1.69,0,.58-.23,1.02-.57,1.35-.47.43-1.23.63-2.33.63-.6,0-1.06-.04-1.35-.08v-6.63ZM352.36,158.42h.79c.92,0,1.46-.48,1.46-1.13,0-.79-.6-1.1-1.48-1.1-.4,0-.63.03-.77.06v2.17ZM352.36,161.65c.17.03.42.04.73.04.9,0,1.73-.33,1.73-1.31,0-.92-.79-1.3-1.74-1.3h-.72v2.57Z"/>
    </g>
  </g>
  <g>
    <polygon class="cls-8" points="694.77 59.18 712.65 114.75 783.65 137.75 694.77 59.18"/>
    <polyline class="cls-8" points="692.85 62.73 661.29 158.08 714.49 114.8"/>
    <polyline class="cls-8" points="663.03 159.38 714.25 117.07 783.65 137.75"/>
    <line class="cls-7" x1="695.25" y1="61.07" x2="714.25" y2="117.07"/>
    <line class="cls-7" x1="714.25" y1="117.07" x2="782.25" y2="138.07"/>
    <line class="cls-7" x1="661.25" y1="159.07" x2="710.25" y2="118.07"/>
    <g>
      <circle class="cls-1" cx="712.65" cy="114.75" r="7.75"/>
      <path class="cls-9" d="M710.33,111.96c.48-.07,1.04-.13,1.67-.13,1.12,0,1.93.26,2.46.76.54.5.85,1.2.85,2.18s-.31,1.8-.87,2.36c-.57.57-1.5.87-2.68.87-.56,0-1.03-.03-1.42-.07v-5.97ZM711.12,117.33c.2.04.49.04.79.04,1.67,0,2.58-.94,2.58-2.58,0-1.43-.8-2.34-2.46-2.34-.41,0-.71.04-.92.08v4.79Z"/>
    </g>
    <polyline class="cls-8" points="693.73 59.94 660.75 158.57 786.01 135.47"/>
    <line class="cls-5" x1="696.75" y1="55.57" x2="660.75" y2="158.57"/>
    <line class="cls-5" x1="782.25" y1="138.07" x2="661.25" y2="159.07"/>
    <line class="cls-5" x1="695.25" y1="61.07" x2="782.25" y2="138.07"/>
    <g>
      <circle class="cls-1" cx="694.77" cy="59.18" r="7.75"/>
      <path class="cls-9" d="M693.55,60.62l-.7,2.12h-.9l2.29-6.74h1.05l2.3,6.74h-.93l-.72-2.12h-2.39ZM695.76,59.94l-.66-1.94c-.15-.44-.25-.84-.35-1.23h-.02c-.1.4-.21.81-.34,1.22l-.66,1.95h2.03Z"/>
    </g>
    <g>
      <circle class="cls-1" cx="783.65" cy="137.75" r="7.75"/>
      <path class="cls-9" d="M786.21,141.08c-.32.16-.96.32-1.78.32-1.9,0-3.33-1.2-3.33-3.41s1.43-3.54,3.52-3.54c.84,0,1.37.18,1.6.3l-.21.71c-.33-.16-.8-.28-1.36-.28-1.58,0-2.63,1.01-2.63,2.78,0,1.65.95,2.71,2.59,2.71.53,0,1.07-.11,1.42-.28l.18.69Z"/>
    </g>
    <g>
      <circle class="cls-1" cx="661.65" cy="157.75" r="7.75"/>
      <path class="cls-9" d="M659.7,154.66c.38-.08.98-.14,1.59-.14.87,0,1.43.15,1.85.49.35.26.56.66.56,1.19,0,.65-.43,1.22-1.14,1.48v.02c.64.16,1.39.69,1.39,1.69,0,.58-.23,1.02-.57,1.35-.47.43-1.23.63-2.33.63-.6,0-1.06-.04-1.35-.08v-6.63ZM660.57,157.42h.79c.92,0,1.46-.48,1.46-1.13,0-.79-.6-1.1-1.48-1.1-.4,0-.63.03-.77.06v2.17ZM660.57,160.65c.17.03.42.04.73.04.9,0,1.73-.33,1.73-1.31,0-.92-.79-1.3-1.74-1.3h-.72v2.57Z"/>
    </g>
  </g>
  <g>
    <polyline class="cls-8" points="37.79 261.25 36.81 376.71 74.89 342.39 152.27 363.99 142.87 311.53 175.54 279.3 154.59 254.47 106.18 271.42"/>
    <line class="cls-5" x1="37.76" y1="261.57" x2="37.26" y2="377.07"/>
    <line class="cls-5" x1="107.26" y1="269.07" x2="41.26" y2="263.07"/>
    <line class="cls-5" x1="73.26" y1="343.07" x2="107.26" y2="269.07"/>
    <line class="cls-5" x1="36.26" y1="380.07" x2="75.26" y2="340.07"/>
    <line class="cls-5" x1="107.26" y1="269.07" x2="155.26" y2="258.07"/>
    <line class="cls-5" x1="173.26" y1="282.07" x2="155.26" y2="258.07"/>
    <line class="cls-5" x1="107.26" y1="269.07" x2="143.26" y2="309.07"/>
    <line class="cls-5" x1="175.26" y1="279.07" x2="145.26" y2="312.07"/>
    <line class="cls-5" x1="153.26" y1="364.07" x2="145.26" y2="312.07"/>
    <line class="cls-5" x1="74.26" y1="341.07" x2="153.26" y2="364.07"/>
    <g>
      <circle class="cls-1" cx="39.01" cy="259.82" r="7.75"/>
      <path class="cls-9" d="M37.79,261.25l-.7,2.12h-.9l2.29-6.74h1.05l2.3,6.74h-.93l-.72-2.12h-2.39ZM40,260.57l-.66-1.94c-.15-.44-.25-.84-.35-1.23h-.02c-.1.4-.21.81-.34,1.22l-.66,1.95h2.03Z"/>
    </g>
    <g>
      <circle class="cls-1" cx="74.89" cy="342.39" r="7.75"/>
      <path class="cls-9" d="M77.46,345.72c-.32.16-.96.32-1.78.32-1.9,0-3.33-1.2-3.33-3.41s1.43-3.54,3.52-3.54c.84,0,1.37.18,1.6.3l-.21.71c-.33-.16-.8-.28-1.36-.28-1.58,0-2.63,1.01-2.63,2.78,0,1.65.95,2.71,2.59,2.71.53,0,1.07-.11,1.42-.28l.18.69Z"/>
    </g>
    <g>
      <circle class="cls-1" cx="37.89" cy="376.39" r="7.75"/>
      <path class="cls-9" d="M35.94,373.29c.38-.08.98-.14,1.59-.14.87,0,1.43.15,1.85.49.35.26.56.66.56,1.19,0,.65-.43,1.22-1.14,1.48v.02c.64.16,1.39.69,1.39,1.69,0,.58-.23,1.02-.57,1.35-.47.43-1.23.63-2.33.63-.6,0-1.06-.04-1.35-.08v-6.63ZM36.81,376.05h.79c.92,0,1.46-.48,1.46-1.13,0-.79-.6-1.1-1.48-1.1-.4,0-.63.03-.77.06v2.17ZM36.81,379.28c.17.03.42.04.73.04.9,0,1.73-.33,1.73-1.31,0-.92-.79-1.3-1.74-1.3h-.72v2.57Z"/>
    </g>
    <g>
      <circle class="cls-1" cx="107.89" cy="265.39" r="7.75"/>
      <path class="cls-9" d="M105.58,262.6c.48-.07,1.04-.13,1.67-.13,1.13,0,1.93.26,2.46.76.54.5.85,1.2.85,2.18s-.31,1.8-.87,2.36c-.57.57-1.5.87-2.68.87-.56,0-1.03-.03-1.42-.07v-5.97ZM106.36,267.96c.2.04.49.04.79.04,1.67,0,2.58-.94,2.58-2.57,0-1.43-.8-2.34-2.46-2.34-.41,0-.71.04-.92.08v4.79Z"/>
    </g>
    <g>
      <circle class="cls-1" cx="144.8" cy="308.8" r="7.75"/>
      <path class="cls-9" d="M147.46,312.05c-.39.14-1.16.37-2.07.37-1.02,0-1.86-.26-2.52-.89-.58-.56-.94-1.46-.94-2.51,0-2.01,1.39-3.48,3.65-3.48.78,0,1.39.17,1.68.31l-.21.71c-.36-.16-.81-.29-1.49-.29-1.64,0-2.71,1.02-2.71,2.71s1.03,2.72,2.6,2.72c.57,0,.96-.08,1.16-.18v-2.01h-1.37v-.7h2.22v3.24Z"/>
    </g>
    <g>
      <circle class="cls-1" cx="150.8" cy="360.8" r="7.75"/>
      <path class="cls-9" d="M149.33,357.93v2.54h2.94v-2.54h.79v6.07h-.79v-2.84h-2.94v2.84h-.78v-6.07h.78Z"/>
    </g>
    <g>
      <circle class="cls-1" cx="173.8" cy="278.8" r="7.75"/>
      <path class="cls-9" d="M172.13,275.61h3.63v.73h-2.76v2.24h2.55v.72h-2.55v3.05h-.87v-6.74Z"/>
    </g>
    <g>
      <circle class="cls-1" cx="152.8" cy="254.8" r="7.75"/>
      <path class="cls-9" d="M154.59,255.19h-2.62v2.43h2.92v.73h-3.79v-6.74h3.64v.73h-2.77v2.13h2.62v.72Z"/>
    </g>
  </g>
  <g>
    <polyline class="cls-8" points="351.47 260.82 350.49 376.28 388.57 341.96 465.95 363.57 456.55 311.11 489.22 278.88 468.27 254.05 419.86 270.99"/>
    <line class="cls-6" x1="351.44" y1="261.14" x2="350.94" y2="376.64"/>
    <line class="cls-6" x1="420.94" y1="268.64" x2="354.94" y2="262.64"/>
    <line class="cls-5" x1="386.94" y1="342.64" x2="420.94" y2="268.64"/>
    <line class="cls-6" x1="349.94" y1="379.64" x2="388.94" y2="339.64"/>
    <line class="cls-6" x1="420.94" y1="268.64" x2="468.94" y2="257.64"/>
    <line class="cls-6" x1="486.94" y1="281.64" x2="468.94" y2="257.64"/>
    <line class="cls-5" x1="420.94" y1="268.64" x2="456.94" y2="308.64"/>
    <line class="cls-6" x1="488.94" y1="278.64" x2="458.94" y2="311.64"/>
    <line class="cls-6" x1="466.94" y1="363.64" x2="458.94" y2="311.64"/>
    <line class="cls-6" x1="387.94" y1="340.64" x2="466.94" y2="363.64"/>
    <g>
      <circle class="cls-1" cx="352.69" cy="259.39" r="7.75"/>
      <path class="cls-9" d="M351.47,260.82l-.7,2.12h-.9l2.29-6.74h1.05l2.3,6.74h-.93l-.72-2.12h-2.39ZM353.68,260.14l-.66-1.94c-.15-.44-.25-.84-.35-1.23h-.02c-.1.4-.21.81-.34,1.22l-.66,1.95h2.03Z"/>
    </g>
    <g>
      <circle class="cls-1" cx="388.57" cy="341.96" r="7.75"/>
      <path class="cls-9" d="M391.13,345.29c-.32.16-.96.32-1.78.32-1.9,0-3.33-1.2-3.33-3.41s1.43-3.54,3.52-3.54c.84,0,1.37.18,1.6.3l-.21.71c-.33-.16-.8-.28-1.36-.28-1.58,0-2.63,1.01-2.63,2.78,0,1.65.95,2.71,2.59,2.71.53,0,1.07-.11,1.42-.28l.18.69Z"/>
    </g>
    <g>
      <circle class="cls-1" cx="351.57" cy="375.96" r="7.75"/>
      <path class="cls-9" d="M349.62,372.87c.38-.08.98-.14,1.59-.14.87,0,1.43.15,1.85.49.35.26.56.66.56,1.19,0,.65-.43,1.22-1.14,1.48v.02c.64.16,1.39.69,1.39,1.69,0,.58-.23,1.02-.57,1.35-.47.43-1.23.63-2.33.63-.6,0-1.06-.04-1.35-.08v-6.63ZM350.49,375.62h.79c.92,0,1.46-.48,1.46-1.13,0-.79-.6-1.1-1.48-1.1-.4,0-.63.03-.77.06v2.17ZM350.49,378.85c.17.03.42.04.73.04.9,0,1.73-.33,1.73-1.31,0-.92-.79-1.3-1.74-1.3h-.72v2.57Z"/>
    </g>
    <g>
      <circle class="cls-1" cx="421.57" cy="264.96" r="7.75"/>
      <path class="cls-9" d="M419.25,262.17c.48-.07,1.04-.13,1.67-.13,1.12,0,1.93.26,2.46.76.54.5.85,1.2.85,2.18s-.31,1.8-.87,2.36c-.57.57-1.5.87-2.68.87-.56,0-1.03-.03-1.42-.07v-5.97ZM420.04,267.54c.2.04.49.04.79.04,1.67,0,2.58-.94,2.58-2.58,0-1.43-.8-2.34-2.46-2.34-.41,0-.71.04-.92.08v4.79Z"/>
    </g>
    <g>
      <circle class="cls-1" cx="458.48" cy="308.38" r="7.75"/>
      <path class="cls-9" d="M461.14,311.63c-.39.14-1.16.37-2.07.37-1.02,0-1.86-.26-2.52-.89-.58-.56-.94-1.46-.94-2.51,0-2.01,1.39-3.48,3.65-3.48.78,0,1.39.17,1.68.31l-.21.71c-.36-.16-.81-.29-1.49-.29-1.64,0-2.71,1.02-2.71,2.71s1.03,2.72,2.6,2.72c.57,0,.96-.08,1.16-.18v-2.01h-1.37v-.7h2.22v3.24Z"/>
    </g>
    <g>
      <circle class="cls-1" cx="464.48" cy="360.38" r="7.75"/>
      <path class="cls-9" d="M463.01,357.5v2.54h2.93v-2.54h.79v6.07h-.79v-2.84h-2.93v2.84h-.78v-6.07h.78Z"/>
    </g>
    <g>
      <circle class="cls-1" cx="487.48" cy="278.38" r="7.75"/>
      <path class="cls-9" d="M485.81,275.19h3.63v.73h-2.76v2.24h2.55v.72h-2.55v3.05h-.87v-6.74Z"/>
    </g>
    <g>
      <circle class="cls-1" cx="466.48" cy="254.38" r="7.75"/>
      <path class="cls-9" d="M468.27,254.77h-2.62v2.43h2.92v.73h-3.79v-6.74h3.64v.73h-2.77v2.13h2.62v.72Z"/>
    </g>
  </g>
  <g>
    <line class="cls-5" x1="680.26" y1="256.07" x2="795.26" y2="250.07"/>
    <line class="cls-5" x1="676.26" y1="376.07" x2="789.26" y2="360.07"/>
    <line class="cls-7" x1="681.46" y1="256.77" x2="787.05" y2="362.36"/>
    <line class="cls-5" x1="813.26" y1="278.07" x2="792.26" y2="357.07"/>
    <line class="cls-7" x1="795.26" y1="250.07" x2="789.26" y2="356.07"/>
    <line class="cls-7" x1="793.26" y1="256.07" x2="681.26" y2="259.07"/>
    <polygon class="cls-8" points="678.21 257.19 676.76 375.57 792.69 359.94 813.41 275.25 792.97 250.19 678.21 257.19"/>
    <polygon class="cls-8" points="675.76 257.19 674.3 375.56 790.23 359.93 810.96 275.24 790.51 250.18 675.76 257.19"/>
    <line class="cls-5" x1="678.17" y1="257.51" x2="677.67" y2="373.01"/>
    <line class="cls-5" x1="747.67" y1="265.01" x2="681.67" y2="259.01"/>
    <line class="cls-5" x1="713.67" y1="339.01" x2="747.67" y2="265.01"/>
    <line class="cls-5" x1="676.67" y1="376.01" x2="715.67" y2="336.01"/>
    <line class="cls-5" x1="747.67" y1="265.01" x2="795.67" y2="254.01"/>
    <line class="cls-5" x1="813.67" y1="278.01" x2="795.67" y2="254.01"/>
    <line class="cls-5" x1="747.67" y1="265.01" x2="783.67" y2="305.01"/>
    <line class="cls-5" x1="815.67" y1="275.01" x2="785.67" y2="308.01"/>
    <line class="cls-5" x1="793.67" y1="360.01" x2="785.67" y2="308.01"/>
    <line class="cls-5" x1="714.67" y1="337.01" x2="793.67" y2="360.01"/>
    <g>
      <circle class="cls-1" cx="679.42" cy="255.76" r="7.75"/>
      <path class="cls-9" d="M678.21,257.19l-.7,2.12h-.9l2.29-6.74h1.05l2.3,6.74h-.93l-.72-2.12h-2.39ZM680.42,256.51l-.66-1.94c-.15-.44-.25-.84-.35-1.23h-.02c-.1.4-.21.81-.34,1.22l-.66,1.95h2.03Z"/>
    </g>
    <g>
      <circle class="cls-1" cx="715.31" cy="338.33" r="7.75"/>
      <path class="cls-9" d="M717.87,341.66c-.32.16-.96.32-1.78.32-1.9,0-3.33-1.2-3.33-3.41s1.43-3.54,3.52-3.54c.84,0,1.37.18,1.6.3l-.21.71c-.33-.16-.8-.28-1.36-.28-1.58,0-2.63,1.01-2.63,2.78,0,1.65.95,2.71,2.59,2.71.53,0,1.07-.11,1.42-.28l.18.69Z"/>
    </g>
    <g>
      <circle class="cls-1" cx="678.31" cy="372.33" r="7.75"/>
      <path class="cls-9" d="M676.36,369.24c.38-.08.98-.14,1.59-.14.87,0,1.43.15,1.85.49.35.26.56.66.56,1.19,0,.65-.43,1.22-1.14,1.48v.02c.64.16,1.39.69,1.39,1.69,0,.58-.23,1.02-.57,1.35-.47.43-1.23.63-2.33.63-.6,0-1.06-.04-1.35-.08v-6.63ZM677.23,371.99h.79c.92,0,1.46-.48,1.46-1.13,0-.79-.6-1.1-1.48-1.1-.4,0-.63.03-.77.06v2.17ZM677.23,375.22c.17.03.42.04.73.04.9,0,1.73-.33,1.73-1.31,0-.92-.79-1.3-1.74-1.3h-.72v2.57Z"/>
    </g>
    <g>
      <circle class="cls-1" cx="748.31" cy="261.33" r="7.75"/>
      <path class="cls-9" d="M745.99,258.54c.48-.07,1.04-.13,1.67-.13,1.12,0,1.93.26,2.46.76.54.5.85,1.2.85,2.18s-.31,1.8-.87,2.36c-.57.57-1.5.87-2.68.87-.56,0-1.03-.03-1.42-.07v-5.97ZM746.78,263.91c.2.04.49.04.79.04,1.67,0,2.58-.94,2.58-2.57,0-1.43-.8-2.34-2.46-2.34-.41,0-.71.04-.92.08v4.79Z"/>
    </g>
    <g>
      <circle class="cls-1" cx="785.22" cy="304.75" r="7.75"/>
      <path class="cls-9" d="M787.88,308c-.39.14-1.16.37-2.07.37-1.02,0-1.86-.26-2.52-.89-.58-.56-.94-1.46-.94-2.51,0-2.01,1.39-3.48,3.65-3.48.78,0,1.39.17,1.68.31l-.21.71c-.36-.16-.81-.29-1.49-.29-1.64,0-2.71,1.02-2.71,2.71s1.03,2.72,2.6,2.72c.57,0,.96-.08,1.16-.18v-2.01h-1.37v-.7h2.22v3.24Z"/>
    </g>
    <g>
      <circle class="cls-1" cx="791.22" cy="356.75" r="7.75"/>
      <path class="cls-9" d="M789.75,353.87v2.54h2.93v-2.54h.79v6.07h-.79v-2.84h-2.93v2.84h-.78v-6.07h.78Z"/>
    </g>
    <g>
      <circle class="cls-1" cx="814.22" cy="274.75" r="7.75"/>
      <path class="cls-9" d="M812.54,271.56h3.63v.73h-2.76v2.24h2.55v.72h-2.55v3.05h-.87v-6.74Z"/>
    </g>
    <g>
      <circle class="cls-1" cx="793.22" cy="250.75" r="7.75"/>
      <path class="cls-9" d="M795.01,251.14h-2.62v2.43h2.92v.73h-3.79v-6.74h3.64v.73h-2.77v2.13h2.62v.72Z"/>
    </g>
  </g>
  <g>
    <g>
      <line class="cls-3" x1="202.76" y1="208.07" x2="310.41" y2="208.07"/>
      <polygon class="cls-10" points="306.28 222.2 330.76 208.07 306.28 193.93 306.28 222.2"/>
    </g>
    <g>
      <rect class="cls-4" x="206.8" y="199.13" width="94.96" height="17.93"/>
      <path class="cls-1" d="M221.98,199.45h3.27v.66h-2.48v2.02h2.29v.65h-2.29v2.75h-.78v-6.07Z"/>
      <path class="cls-1" d="M226.98,199.94c0,.27-.19.49-.5.49-.28,0-.48-.21-.48-.49s.21-.5.5-.5.49.22.49.5ZM226.1,205.52v-4.36h.79v4.36h-.79Z"/>
      <path class="cls-1" d="M228.21,202.34c0-.45,0-.82-.04-1.18h.7l.04.72h.02c.22-.41.72-.82,1.44-.82.6,0,1.54.36,1.54,1.85v2.6h-.79v-2.51c0-.7-.26-1.29-1.01-1.29-.52,0-.93.37-1.06.81-.04.1-.05.23-.05.37v2.62h-.79v-3.18Z"/>
      <path class="cls-1" d="M236.96,199.13v5.27c0,.39,0,.83.04,1.12h-.71l-.04-.76h-.02c-.24.49-.77.86-1.49.86-1.05,0-1.86-.89-1.86-2.21,0-1.45.89-2.34,1.95-2.34.67,0,1.12.32,1.31.67h.02v-2.6h.79ZM236.17,202.94c0-.1,0-.23-.04-.33-.12-.5-.55-.92-1.14-.92-.82,0-1.31.72-1.31,1.68,0,.88.43,1.61,1.29,1.61.53,0,1.02-.35,1.16-.95.03-.11.04-.22.04-.34v-.76Z"/>
      <path class="cls-1" d="M240.18,202.34c0-.45,0-.82-.04-1.18h.7l.04.72h.02c.22-.41.72-.82,1.44-.82.6,0,1.54.36,1.54,1.85v2.6h-.79v-2.51c0-.7-.26-1.29-1.01-1.29-.52,0-.93.37-1.06.81-.04.1-.05.23-.05.37v2.62h-.79v-3.18Z"/>
      <path class="cls-1" d="M247.59,205.52l-.06-.55h-.03c-.24.34-.71.65-1.33.65-.88,0-1.33-.62-1.33-1.25,0-1.05.94-1.63,2.62-1.62v-.09c0-.36-.1-1.01-.99-1.01-.41,0-.83.13-1.13.32l-.18-.52c.36-.23.88-.39,1.43-.39,1.33,0,1.66.91,1.66,1.78v1.63c0,.38.02.75.07,1.04h-.72ZM247.48,203.3c-.86-.02-1.85.13-1.85.98,0,.51.34.76.75.76.57,0,.93-.36,1.05-.73.03-.08.04-.17.04-.25v-.76Z"/>
      <path class="cls-1" d="M250.3,203.16h.02c.11-.15.26-.34.39-.5l1.28-1.5h.95l-1.68,1.79,1.92,2.57h-.96l-1.5-2.09-.41.45v1.64h-.78v-6.39h.78v4.03Z"/>
      <path class="cls-1" d="M254.18,203.49c.02,1.07.7,1.51,1.49,1.51.57,0,.91-.1,1.21-.22l.14.57c-.28.13-.76.27-1.45.27-1.34,0-2.14-.88-2.14-2.2s.77-2.35,2.04-2.35c1.42,0,1.8,1.25,1.8,2.05,0,.16-.02.29-.03.37h-3.06ZM256.5,202.92c0-.5-.21-1.29-1.1-1.29-.8,0-1.15.74-1.21,1.29h2.31Z"/>
      <path class="cls-1" d="M262.01,199.13v5.27c0,.39,0,.83.04,1.12h-.71l-.04-.76h-.02c-.24.49-.77.86-1.49.86-1.05,0-1.86-.89-1.86-2.21,0-1.45.89-2.34,1.95-2.34.67,0,1.12.32,1.31.67h.02v-2.6h.79ZM261.22,202.94c0-.1,0-.23-.04-.33-.12-.5-.55-.92-1.14-.92-.82,0-1.31.72-1.31,1.68,0,.88.43,1.61,1.29,1.61.53,0,1.02-.35,1.16-.95.03-.11.04-.22.04-.34v-.76Z"/>
      <path class="cls-1" d="M265.67,203.49c.02,1.07.7,1.51,1.49,1.51.57,0,.91-.1,1.21-.22l.14.57c-.28.13-.76.27-1.45.27-1.34,0-2.14-.88-2.14-2.2s.77-2.35,2.04-2.35c1.42,0,1.8,1.25,1.8,2.05,0,.16-.02.29-.03.37h-3.06ZM268,202.92c0-.5-.21-1.29-1.1-1.29-.8,0-1.15.74-1.21,1.29h2.31Z"/>
      <path class="cls-1" d="M273.5,199.13v5.27c0,.39,0,.83.04,1.12h-.71l-.04-.76h-.02c-.24.49-.77.86-1.49.86-1.05,0-1.86-.89-1.86-2.21,0-1.45.89-2.34,1.95-2.34.67,0,1.12.32,1.31.67h.02v-2.6h.79ZM272.71,202.94c0-.1,0-.23-.04-.33-.12-.5-.55-.92-1.14-.92-.82,0-1.3.72-1.3,1.68,0,.88.43,1.61,1.29,1.61.53,0,1.02-.35,1.16-.95.03-.11.04-.22.04-.34v-.76Z"/>
      <path class="cls-1" d="M278.57,201.16c-.02.32-.04.67-.04,1.2v2.53c0,1-.2,1.61-.62,1.99-.42.4-1.04.52-1.58.52s-1.1-.13-1.45-.36l.2-.6c.29.18.74.34,1.28.34.81,0,1.4-.42,1.4-1.52v-.49h-.02c-.24.4-.71.73-1.39.73-1.08,0-1.85-.92-1.85-2.12,0-1.48.96-2.31,1.96-2.31.76,0,1.17.4,1.36.76h.02l.04-.66h.69ZM277.75,202.89c0-.14,0-.25-.04-.36-.14-.46-.53-.84-1.11-.84-.76,0-1.3.64-1.3,1.65,0,.86.43,1.57,1.29,1.57.49,0,.93-.31,1.1-.81.04-.13.06-.29.06-.42v-.78Z"/>
      <path class="cls-1" d="M280.29,203.49c.02,1.07.7,1.51,1.49,1.51.57,0,.91-.1,1.21-.22l.14.57c-.28.13-.76.27-1.45.27-1.34,0-2.14-.88-2.14-2.2s.77-2.35,2.04-2.35c1.42,0,1.8,1.25,1.8,2.05,0,.16-.02.29-.03.37h-3.06ZM282.61,202.92c0-.5-.21-1.29-1.1-1.29-.8,0-1.15.74-1.21,1.29h2.31Z"/>
      <path class="cls-1" d="M284.25,204.71c.23.15.65.32,1.04.32.58,0,.85-.29.85-.65,0-.38-.22-.59-.81-.8-.78-.28-1.15-.71-1.15-1.23,0-.7.57-1.28,1.5-1.28.44,0,.83.13,1.07.27l-.2.58c-.17-.11-.49-.25-.89-.25-.47,0-.73.27-.73.59,0,.36.26.52.83.74.76.29,1.14.67,1.14,1.31,0,.77-.59,1.3-1.63,1.3-.48,0-.92-.12-1.22-.3l.2-.6Z"/>
    </g>
  </g>
  <g>
    <g>
      <line class="cls-3" x1="521.76" y1="104.07" x2="629.41" y2="104.07"/>
      <polygon class="cls-10" points="625.28 118.2 649.76 104.07 625.28 89.93 625.28 118.2"/>
    </g>
    <g>
      <rect class="cls-4" x="525.8" y="95.13" width="94.96" height="17.93"/>
      <path class="cls-1" d="M559.04,95.54c.4-.08.96-.13,1.5-.13.84,0,1.38.15,1.76.5.31.27.48.68.48,1.15,0,.8-.5,1.33-1.14,1.55v.03c.47.16.75.59.89,1.22.2.85.34,1.43.47,1.67h-.81c-.1-.17-.23-.69-.41-1.45-.18-.84-.5-1.15-1.21-1.18h-.74v2.63h-.78v-5.99ZM559.82,98.3h.8c.84,0,1.37-.46,1.37-1.15,0-.78-.57-1.12-1.4-1.13-.38,0-.65.04-.77.07v2.21Z"/>
      <path class="cls-1" d="M564.33,99.49c.02,1.07.7,1.51,1.49,1.51.57,0,.91-.1,1.21-.22l.14.57c-.28.13-.76.27-1.45.27-1.34,0-2.14-.88-2.14-2.2s.77-2.35,2.04-2.35c1.42,0,1.8,1.25,1.8,2.05,0,.16-.02.29-.03.37h-3.06ZM566.66,98.92c0-.5-.21-1.29-1.1-1.29-.8,0-1.15.74-1.21,1.29h2.31Z"/>
      <path class="cls-1" d="M571.51,101.36c-.21.11-.67.25-1.25.25-1.31,0-2.17-.89-2.17-2.22s.92-2.31,2.34-2.31c.47,0,.88.12,1.1.23l-.18.61c-.19-.11-.49-.21-.92-.21-1,0-1.54.74-1.54,1.65,0,1.01.65,1.63,1.51,1.63.45,0,.75-.12.97-.22l.13.59Z"/>
      <path class="cls-1" d="M576.32,99.31c0,1.61-1.12,2.31-2.17,2.31-1.18,0-2.09-.86-2.09-2.24,0-1.46.95-2.31,2.16-2.31s2.1.91,2.1,2.24ZM572.87,99.35c0,.95.55,1.67,1.32,1.67s1.32-.71,1.32-1.69c0-.74-.37-1.67-1.31-1.67s-1.34.86-1.34,1.69Z"/>
      <path class="cls-1" d="M577.32,98.34c0-.45,0-.82-.04-1.18h.7l.04.72h.02c.22-.41.72-.82,1.44-.82.6,0,1.54.36,1.54,1.85v2.6h-.79v-2.51c0-.7-.26-1.29-1.01-1.29-.52,0-.93.37-1.06.81-.04.1-.05.23-.05.37v2.62h-.79v-3.18Z"/>
      <path class="cls-1" d="M582.21,100.71c.23.15.65.32,1.04.32.58,0,.85-.29.85-.65,0-.38-.22-.59-.81-.8-.78-.28-1.15-.71-1.15-1.23,0-.7.57-1.28,1.5-1.28.44,0,.83.13,1.07.27l-.2.58c-.17-.11-.49-.25-.89-.25-.47,0-.73.27-.73.59,0,.36.26.52.83.74.76.29,1.14.67,1.14,1.31,0,.77-.59,1.3-1.63,1.3-.48,0-.92-.12-1.22-.3l.2-.6Z"/>
      <path class="cls-1" d="M586.83,95.91v1.25h1.13v.6h-1.13v2.35c0,.54.15.85.59.85.21,0,.36-.03.46-.05l.04.59c-.15.06-.4.11-.7.11-.37,0-.67-.12-.86-.33-.23-.23-.31-.62-.31-1.13v-2.38h-.67v-.6h.67v-1.04l.77-.21Z"/>
    </g>
  </g>
  <g>
    <g>
      <line class="cls-3" x1="519.76" y1="309.07" x2="627.41" y2="309.07"/>
      <polygon class="cls-10" points="623.28 323.2 647.76 309.07 623.28 294.93 623.28 323.2"/>
    </g>
    <g>
      <rect class="cls-4" x="523.8" y="300.13" width="94.96" height="17.93"/>
      <path class="cls-1" d="M532.79,300.94c0,.27-.19.49-.5.49-.28,0-.48-.21-.48-.49s.21-.5.5-.5.49.22.49.5ZM531.9,306.52v-4.36h.79v4.36h-.79Z"/>
      <path class="cls-1" d="M534.09,306.52v-3.75h-.61v-.6h.61v-.21c0-.61.13-1.17.5-1.52.3-.29.69-.4,1.06-.4.28,0,.52.06.67.13l-.11.61c-.12-.05-.28-.1-.5-.1-.68,0-.85.59-.85,1.26v.23h1.05v.6h-1.05v3.75h-.78Z"/>
      <path class="cls-1" d="M538.54,303.52c0-.51,0-.95-.04-1.36h.69l.03.86h.04c.2-.58.68-.95,1.21-.95.09,0,.15,0,.22.03v.75c-.08-.02-.16-.03-.27-.03-.56,0-.95.42-1.06,1.02-.02.11-.04.23-.04.37v2.32h-.78v-3Z"/>
      <path class="cls-1" d="M541.84,304.49c.02,1.07.7,1.51,1.49,1.51.57,0,.91-.1,1.21-.22l.14.57c-.28.13-.76.27-1.45.27-1.34,0-2.14-.88-2.14-2.2s.77-2.35,2.04-2.35c1.42,0,1.8,1.25,1.8,2.05,0,.16-.02.29-.03.37h-3.06ZM544.16,303.92c0-.5-.21-1.29-1.1-1.29-.8,0-1.15.74-1.21,1.29h2.31Z"/>
      <path class="cls-1" d="M549.01,306.36c-.21.11-.67.25-1.25.25-1.31,0-2.17-.89-2.17-2.22s.92-2.31,2.34-2.31c.47,0,.88.12,1.1.23l-.18.61c-.19-.11-.49-.21-.92-.21-1,0-1.54.74-1.54,1.65,0,1.01.65,1.63,1.51,1.63.45,0,.75-.12.97-.22l.13.59Z"/>
      <path class="cls-1" d="M553.83,304.31c0,1.61-1.12,2.31-2.17,2.31-1.18,0-2.09-.86-2.09-2.24,0-1.46.96-2.31,2.16-2.31s2.1.91,2.1,2.24ZM550.37,304.35c0,.95.55,1.67,1.32,1.67s1.32-.71,1.32-1.69c0-.74-.37-1.67-1.31-1.67s-1.34.86-1.34,1.69Z"/>
      <path class="cls-1" d="M554.83,303.34c0-.45,0-.82-.04-1.18h.7l.04.72h.02c.22-.41.72-.82,1.44-.82.6,0,1.54.36,1.54,1.85v2.6h-.79v-2.51c0-.7-.26-1.29-1.01-1.29-.52,0-.93.37-1.06.81-.04.1-.05.23-.05.37v2.62h-.79v-3.18Z"/>
      <path class="cls-1" d="M559.71,305.71c.23.15.65.32,1.04.32.58,0,.85-.29.85-.65,0-.38-.22-.59-.81-.8-.78-.28-1.15-.71-1.15-1.23,0-.7.57-1.28,1.5-1.28.44,0,.83.13,1.07.27l-.2.58c-.17-.11-.49-.25-.89-.25-.47,0-.73.27-.73.59,0,.36.26.52.83.74.76.29,1.14.67,1.14,1.31,0,.77-.59,1.3-1.63,1.3-.48,0-.92-.12-1.22-.3l.2-.6Z"/>
      <path class="cls-1" d="M564.34,300.91v1.25h1.13v.6h-1.13v2.35c0,.54.15.85.59.85.21,0,.36-.03.46-.05l.04.59c-.15.06-.4.11-.7.11-.37,0-.67-.12-.86-.33-.23-.23-.31-.62-.31-1.13v-2.38h-.67v-.6h.67v-1.04l.77-.21Z"/>
      <path class="cls-1" d="M566.37,303.52c0-.51,0-.95-.04-1.36h.69l.03.86h.04c.2-.58.68-.95,1.21-.95.09,0,.15,0,.22.03v.75c-.08-.02-.16-.03-.27-.03-.56,0-.95.42-1.06,1.02-.02.11-.04.23-.04.37v2.32h-.78v-3Z"/>
      <path class="cls-1" d="M572.96,305.33c0,.45,0,.85.04,1.19h-.7l-.04-.71h-.02c-.21.35-.67.81-1.44.81-.68,0-1.5-.38-1.5-1.91v-2.55h.79v2.41c0,.83.25,1.39.97,1.39.53,0,.9-.37,1.04-.72.04-.12.07-.26.07-.41v-2.67h.79v3.17Z"/>
      <path class="cls-1" d="M577.37,306.36c-.21.11-.67.25-1.25.25-1.31,0-2.17-.89-2.17-2.22s.92-2.31,2.34-2.31c.47,0,.88.12,1.1.23l-.18.61c-.19-.11-.49-.21-.92-.21-1,0-1.54.74-1.54,1.65,0,1.01.65,1.63,1.51,1.63.45,0,.75-.12.97-.22l.13.59Z"/>
      <path class="cls-1" d="M579.37,300.91v1.25h1.13v.6h-1.13v2.35c0,.54.15.85.59.85.21,0,.36-.03.46-.05l.04.59c-.15.06-.4.11-.7.11-.37,0-.67-.12-.86-.33-.23-.23-.31-.62-.31-1.13v-2.38h-.67v-.6h.67v-1.04l.77-.21Z"/>
      <path class="cls-1" d="M582.28,300.94c0,.27-.19.49-.5.49-.28,0-.48-.21-.48-.49s.21-.5.5-.5.49.22.49.5ZM581.39,306.52v-4.36h.79v4.36h-.79Z"/>
      <path class="cls-1" d="M587.44,304.31c0,1.61-1.12,2.31-2.17,2.31-1.18,0-2.09-.86-2.09-2.24,0-1.46.95-2.31,2.16-2.31s2.1.91,2.1,2.24ZM583.99,304.35c0,.95.55,1.67,1.32,1.67s1.32-.71,1.32-1.69c0-.74-.37-1.67-1.31-1.67s-1.34.86-1.34,1.69Z"/>
      <path class="cls-1" d="M588.44,303.34c0-.45,0-.82-.04-1.18h.7l.04.72h.02c.22-.41.72-.82,1.44-.82.6,0,1.54.36,1.54,1.85v2.6h-.79v-2.51c0-.7-.26-1.29-1.01-1.29-.52,0-.93.37-1.06.81-.04.1-.05.23-.05.37v2.62h-.79v-3.18Z"/>
      <path class="cls-1" d="M595.43,306.52v-3.75h-.61v-.6h.61v-.21c0-.61.13-1.17.5-1.52.3-.29.69-.4,1.06-.4.28,0,.52.06.67.13l-.11.61c-.12-.05-.28-.1-.5-.1-.68,0-.85.59-.85,1.26v.23h1.05v.6h-1.05v3.75h-.78Z"/>
      <path class="cls-1" d="M600.39,306.52l-.06-.55h-.03c-.24.34-.71.65-1.33.65-.88,0-1.33-.62-1.33-1.25,0-1.05.94-1.63,2.62-1.62v-.09c0-.36-.1-1.01-.99-1.01-.41,0-.83.13-1.13.32l-.18-.52c.36-.23.88-.39,1.43-.39,1.33,0,1.66.91,1.66,1.78v1.63c0,.38.02.75.07,1.04h-.72ZM600.27,304.3c-.86-.02-1.85.13-1.85.98,0,.51.34.76.75.76.57,0,.93-.36,1.05-.73.03-.08.04-.17.04-.25v-.76Z"/>
      <path class="cls-1" d="M603.19,300.94c0,.27-.19.49-.5.49-.28,0-.48-.21-.48-.49s.21-.5.5-.5.49.22.49.5ZM602.31,306.52v-4.36h.79v4.36h-.79Z"/>
      <path class="cls-1" d="M604.42,300.13h.79v6.39h-.79v-6.39Z"/>
      <path class="cls-1" d="M606.43,305.71c.23.15.65.32,1.04.32.58,0,.85-.29.85-.65,0-.38-.22-.59-.81-.8-.78-.28-1.15-.71-1.15-1.23,0-.7.57-1.28,1.5-1.28.44,0,.83.13,1.07.27l-.2.58c-.17-.11-.49-.25-.89-.25-.47,0-.73.27-.73.59,0,.36.26.52.83.74.76.29,1.14.67,1.14,1.31,0,.77-.59,1.3-1.63,1.3-.48,0-.92-.12-1.22-.3l.2-.6Z"/>
      <path class="cls-1" d="M609.92,302.89c0-.33.23-.57.54-.57s.52.23.53.57c0,.32-.21.56-.54.56-.31,0-.53-.24-.53-.56ZM609.92,306.06c0-.33.23-.57.54-.57s.52.23.53.57c0,.32-.21.56-.54.56-.31,0-.53-.24-.53-.56Z"/>
      <path class="cls-1" d="M551.47,315.41l-.63,1.91h-.81l2.06-6.07h.95l2.07,6.07h-.84l-.65-1.91h-2.15ZM553.46,314.8l-.59-1.75c-.13-.4-.22-.76-.31-1.11h-.02c-.09.36-.19.73-.31,1.1l-.59,1.76h1.83Z"/>
      <path class="cls-1" d="M555.94,310.93h.79v6.39h-.79v-6.39Z"/>
      <path class="cls-1" d="M558.07,314.39c0-.56-.02-1.01-.04-1.42h.71l.04.75h.02c.32-.53.84-.85,1.55-.85,1.05,0,1.85.89,1.85,2.21,0,1.57-.95,2.34-1.98,2.34-.58,0-1.08-.25-1.34-.68h-.02v2.37h-.78v-4.72ZM558.85,315.55c0,.12.02.22.04.32.14.55.62.93,1.19.93.84,0,1.32-.68,1.32-1.68,0-.87-.46-1.62-1.3-1.62-.54,0-1.04.39-1.2.98-.03.1-.05.22-.05.32v.75Z"/>
      <path class="cls-1" d="M563.19,310.93h.79v2.72h.02c.13-.22.32-.42.57-.56.23-.13.51-.22.81-.22.58,0,1.52.36,1.52,1.86v2.59h-.79v-2.5c0-.7-.26-1.3-1.01-1.3-.51,0-.92.36-1.06.79-.05.11-.05.23-.05.38v2.63h-.79v-6.39Z"/>
      <path class="cls-1" d="M570.59,317.32l-.06-.55h-.03c-.24.34-.71.65-1.33.65-.88,0-1.33-.62-1.33-1.25,0-1.05.94-1.63,2.62-1.62v-.09c0-.36-.1-1.01-.99-1.01-.41,0-.83.12-1.13.32l-.18-.52c.36-.23.88-.39,1.43-.39,1.33,0,1.66.91,1.66,1.78v1.63c0,.38.02.75.07,1.04h-.72ZM570.48,315.1c-.86-.02-1.85.14-1.85.98,0,.51.34.76.75.76.57,0,.93-.36,1.05-.73.03-.08.04-.17.04-.25v-.76Z"/>
      <path class="cls-1" d="M574.74,312.97l.58,2.21c.13.49.24.94.32,1.39h.03c.1-.44.24-.91.39-1.38l.71-2.22h.67l.67,2.18c.16.52.29.98.39,1.42h.03c.07-.44.19-.9.33-1.41l.62-2.19h.78l-1.4,4.36h-.72l-.67-2.08c-.15-.49-.28-.92-.39-1.43h-.02c-.11.52-.24.97-.4,1.44l-.7,2.07h-.72l-1.31-4.36h.81Z"/>
      <path class="cls-1" d="M581.05,314.32c0-.51,0-.96-.04-1.36h.69l.03.86h.04c.2-.59.68-.96,1.21-.96.09,0,.15,0,.22.03v.75c-.08-.02-.16-.03-.27-.03-.56,0-.96.42-1.06,1.02-.02.11-.04.23-.04.37v2.32h-.78v-3Z"/>
      <path class="cls-1" d="M586.36,317.32l-.06-.55h-.03c-.24.34-.71.65-1.33.65-.88,0-1.33-.62-1.33-1.25,0-1.05.94-1.63,2.62-1.62v-.09c0-.36-.1-1.01-.99-1.01-.41,0-.83.12-1.13.32l-.18-.52c.36-.23.88-.39,1.43-.39,1.33,0,1.66.91,1.66,1.78v1.63c0,.38.02.75.07,1.04h-.72ZM586.25,315.1c-.86-.02-1.85.14-1.85.98,0,.51.34.76.75.76.57,0,.93-.36,1.05-.73.03-.08.04-.17.04-.25v-.76Z"/>
      <path class="cls-1" d="M588.29,314.39c0-.56-.02-1.01-.04-1.42h.71l.04.75h.02c.32-.53.84-.85,1.55-.85,1.05,0,1.85.89,1.85,2.21,0,1.57-.95,2.34-1.98,2.34-.58,0-1.08-.25-1.34-.68h-.02v2.37h-.78v-4.72ZM589.07,315.55c0,.12.02.22.04.32.14.55.62.93,1.19.93.84,0,1.32-.68,1.32-1.68,0-.87-.46-1.62-1.3-1.62-.54,0-1.04.39-1.2.98-.03.1-.05.22-.05.32v.75Z"/>
    </g>
  </g>
</svg>