<?xml version="1.0" encoding="UTF-8"?>
<svg id="Polygon" xmlns="http://www.w3.org/2000/svg" viewBox="0 0 538.58 348.6">
  <defs>
    <style>
      .cls-1 {
        fill: #231f20;
      }

      .cls-2 {
        fill: #6dbae7;
        opacity: .31;
      }

      .cls-3 {
        fill: #fff;
      }

      .cls-4 {
        stroke: #9b9a9a;
      }

      .cls-4, .cls-5, .cls-6 {
        fill: none;
      }

      .cls-4, .cls-6 {
        stroke-miterlimit: 10;
        stroke-width: 2.83px;
      }

      .cls-7 {
        fill: #9b9a9a;
      }

      .cls-6 {
        stroke: #437898;
      }
    </style>
  </defs>
  <g>
    <rect class="cls-2" x="350.09" y="191.57" width="145" height="115"/>
    <rect class="cls-3" x="444.09" y="223.57" width="62" height="38"/>
    <line class="cls-6" x1="348.59" y1="190.07" x2="350.59" y2="307.07"/>
    <line class="cls-6" x1="495.59" y1="192.07" x2="350.59" y2="192.07"/>
    <line class="cls-6" x1="495.59" y1="307.07" x2="350.59" y2="307.07"/>
    <line class="cls-6" x1="495.59" y1="192.07" x2="495.59" y2="225.07"/>
    <line class="cls-6" x1="442.59" y1="223.07" x2="495.59" y2="223.07"/>
    <line class="cls-6" x1="443.59" y1="264.07" x2="443.59" y2="226.07"/>
    <line class="cls-6" x1="494.59" y1="261.07" x2="442.59" y2="261.07"/>
    <line class="cls-6" x1="495.59" y1="307.07" x2="495.59" y2="261.07"/>
    <g>
      <circle class="cls-1" cx="349.34" cy="190.82" r="7.75"/>
      <path class="cls-3" d="M348.13,192.25l-.7,2.12h-.9l2.29-6.74h1.05l2.3,6.74h-.93l-.72-2.12h-2.39ZM350.34,191.57l-.66-1.94c-.15-.44-.25-.84-.35-1.23h-.02c-.1.4-.21.81-.34,1.22l-.66,1.95h2.03Z"/>
    </g>
    <g>
      <circle class="cls-1" cx="494.22" cy="307.39" r="7.75"/>
      <path class="cls-3" d="M496.79,310.72c-.32.16-.96.32-1.78.32-1.9,0-3.33-1.2-3.33-3.41s1.43-3.54,3.52-3.54c.84,0,1.37.18,1.6.3l-.21.71c-.33-.16-.8-.28-1.36-.28-1.58,0-2.63,1.01-2.63,2.78,0,1.65.95,2.71,2.59,2.71.53,0,1.07-.11,1.42-.28l.18.69Z"/>
    </g>
    <g>
      <circle class="cls-1" cx="348.22" cy="307.39" r="7.75"/>
      <path class="cls-3" d="M346.27,304.29c.38-.08.98-.14,1.59-.14.87,0,1.43.15,1.85.49.35.26.56.66.56,1.19,0,.65-.43,1.22-1.14,1.48v.02c.64.16,1.39.69,1.39,1.69,0,.58-.23,1.02-.57,1.35-.47.43-1.23.63-2.33.63-.6,0-1.06-.04-1.35-.08v-6.63ZM347.14,307.05h.79c.92,0,1.46-.48,1.46-1.13,0-.79-.6-1.1-1.48-1.1-.4,0-.63.03-.77.06v2.17ZM347.14,310.28c.17.03.42.04.73.04.9,0,1.73-.33,1.73-1.31,0-.92-.79-1.3-1.74-1.3h-.72v2.57Z"/>
    </g>
    <g>
      <circle class="cls-1" cx="494.22" cy="190.39" r="7.75"/>
      <path class="cls-3" d="M491.91,187.59c.48-.07,1.04-.13,1.67-.13,1.13,0,1.93.26,2.46.76.54.5.85,1.2.85,2.18s-.31,1.8-.87,2.36c-.57.57-1.5.87-2.68.87-.56,0-1.03-.03-1.42-.07v-5.97ZM492.69,192.96c.2.04.49.04.79.04,1.67,0,2.58-.94,2.58-2.57,0-1.43-.8-2.34-2.46-2.34-.41,0-.71.04-.92.08v4.79Z"/>
    </g>
    <g>
      <rect class="cls-5" x="354.57" y="323.05" width="134.61" height="23.48"/>
      <path class="cls-1" d="M369.63,335.37v-11.95h2.74v.83h-1.72v10.3h1.72v.83h-2.74Z"/>
      <path class="cls-1" d="M373.89,335.37v-11.95h2.74v.83h-1.72v10.3h1.72v.83h-2.74Z"/>
      <path class="cls-1" d="M379.53,330.52l-1.05,3.18h-1.35l3.43-10.11h1.58l3.45,10.11h-1.4l-1.08-3.18h-3.59ZM382.84,329.49l-.99-2.91c-.22-.66-.38-1.26-.52-1.85h-.03c-.15.6-.32,1.22-.51,1.83l-.99,2.92h3.04Z"/>
      <path class="cls-1" d="M386.17,335.54c.33-.88.73-2.49.9-3.58l1.47-.15c-.34,1.27-1,2.94-1.42,3.64l-.95.09Z"/>
      <path class="cls-1" d="M390.18,323.72c.57-.12,1.47-.21,2.38-.21,1.3,0,2.15.22,2.78.74.53.39.84.99.84,1.78,0,.98-.64,1.83-1.71,2.22v.03c.96.24,2.08,1.04,2.08,2.54,0,.87-.34,1.53-.86,2.03-.71.64-1.84.94-3.49.94-.9,0-1.59-.06-2.03-.12v-9.94ZM391.48,327.86h1.19c1.38,0,2.19-.72,2.19-1.69,0-1.19-.9-1.65-2.22-1.65-.6,0-.94.04-1.16.09v3.25ZM391.48,332.7c.26.04.63.06,1.1.06,1.35,0,2.59-.5,2.59-1.96,0-1.38-1.18-1.95-2.61-1.95h-1.08v3.85Z"/>
      <path class="cls-1" d="M397.21,335.54c.33-.88.74-2.49.9-3.58l1.47-.15c-.35,1.27-1.01,2.94-1.43,3.64l-.94.09Z"/>
      <path class="cls-1" d="M408.28,333.36c-.48.24-1.44.48-2.67.48-2.85,0-4.99-1.8-4.99-5.12s2.14-5.31,5.28-5.31c1.26,0,2.05.27,2.4.45l-.32,1.06c-.5-.24-1.2-.42-2.04-.42-2.37,0-3.95,1.51-3.95,4.17,0,2.47,1.43,4.06,3.88,4.06.79,0,1.61-.17,2.13-.42l.27,1.04Z"/>
      <path class="cls-1" d="M409.02,335.54c.33-.88.74-2.49.9-3.58l1.47-.15c-.35,1.27-1.01,2.94-1.43,3.64l-.94.09Z"/>
      <path class="cls-1" d="M420.72,333.24c-.58.21-1.74.56-3.1.56-1.53,0-2.79-.39-3.78-1.33-.87-.84-1.41-2.19-1.41-3.77.01-3.01,2.08-5.22,5.47-5.22,1.17,0,2.08.25,2.52.46l-.31,1.07c-.54-.24-1.21-.44-2.24-.44-2.46,0-4.07,1.53-4.07,4.07s1.54,4.08,3.9,4.08c.86,0,1.44-.12,1.74-.27v-3.01h-2.05v-1.05h3.33v4.86Z"/>
      <path class="cls-1" d="M421.81,335.54c.33-.88.74-2.49.9-3.58l1.47-.15c-.35,1.27-1.01,2.94-1.43,3.64l-.94.09Z"/>
      <path class="cls-1" d="M427.12,323.59v4.23h4.89v-4.23h1.32v10.11h-1.32v-4.74h-4.89v4.74h-1.3v-10.11h1.3Z"/>
      <path class="cls-1" d="M434.7,335.54c.33-.88.74-2.49.9-3.58l1.47-.15c-.35,1.27-1.01,2.94-1.43,3.64l-.94.09Z"/>
      <path class="cls-1" d="M443.94,328.95h-3.93v3.65h4.38v1.09h-5.68v-10.11h5.46v1.09h-4.15v3.2h3.93v1.08Z"/>
      <path class="cls-1" d="M445.12,335.54c.33-.88.73-2.49.9-3.58l1.47-.15c-.34,1.27-1,2.94-1.42,3.64l-.95.09Z"/>
      <path class="cls-1" d="M449.13,323.59h5.44v1.09h-4.14v3.36h3.83v1.08h-3.83v4.58h-1.3v-10.11Z"/>
      <path class="cls-1" d="M454.08,335.54c.33-.88.73-2.49.9-3.58l1.47-.15c-.34,1.27-1,2.94-1.42,3.64l-.95.09Z"/>
      <path class="cls-1" d="M458.08,323.72c.79-.12,1.74-.21,2.77-.21,1.88,0,3.21.43,4.1,1.26.9.83,1.42,2,1.42,3.63s-.51,3-1.46,3.93c-.94.95-2.5,1.46-4.47,1.46-.93,0-1.71-.04-2.37-.12v-9.94ZM459.39,332.66c.33.06.81.08,1.32.08,2.79,0,4.31-1.56,4.31-4.29.01-2.38-1.33-3.9-4.09-3.9-.68,0-1.19.06-1.53.13v7.98Z"/>
      <path class="cls-1" d="M469.86,323.4v11.97h-2.74v-.83h1.72v-10.32h-1.72v-.83h2.74Z"/>
      <path class="cls-1" d="M474.12,323.4v11.97h-2.74v-.83h1.72v-10.32h-1.72v-.83h2.74Z"/>
    </g>
    <g>
      <circle class="cls-1" cx="494.14" cy="263.8" r="7.75"/>
      <path class="cls-3" d="M496.79,267.05c-.39.14-1.16.37-2.07.37-1.02,0-1.86-.26-2.52-.89-.58-.56-.94-1.46-.94-2.51,0-2.01,1.39-3.48,3.65-3.48.78,0,1.39.17,1.68.31l-.21.71c-.36-.16-.81-.29-1.49-.29-1.64,0-2.71,1.02-2.71,2.71s1.03,2.72,2.6,2.72c.57,0,.96-.08,1.16-.18v-2.01h-1.37v-.7h2.22v3.24Z"/>
    </g>
    <g>
      <circle class="cls-1" cx="494.14" cy="223.8" r="7.75"/>
      <path class="cls-3" d="M492.46,220.61h3.63v.73h-2.76v2.24h2.55v.72h-2.55v3.05h-.87v-6.74Z"/>
    </g>
    <g>
      <circle class="cls-1" cx="444.14" cy="263.8" r="7.75"/>
      <path class="cls-3" d="M442.67,260.93v2.54h2.94v-2.54h.79v6.07h-.79v-2.84h-2.94v2.84h-.78v-6.07h.78Z"/>
    </g>
    <g>
      <circle class="cls-1" cx="443.14" cy="222.8" r="7.75"/>
      <path class="cls-3" d="M444.92,223.19h-2.62v2.43h2.92v.73h-3.79v-6.74h3.64v.73h-2.77v2.13h2.62v.72Z"/>
    </g>
  </g>
  <g>
    <rect class="cls-2" x="31.09" y="192.57" width="145" height="115"/>
    <rect class="cls-3" x="125.09" y="224.57" width="62" height="38"/>
    <rect class="cls-6" x="29.59" y="191.07" width="146" height="117"/>
    <g>
      <circle class="cls-1" cx="30.34" cy="191.82" r="7.75"/>
      <path class="cls-3" d="M29.13,193.25l-.7,2.12h-.9l2.29-6.74h1.05l2.3,6.74h-.93l-.72-2.12h-2.39ZM31.34,192.57l-.66-1.94c-.15-.44-.25-.84-.35-1.23h-.02c-.1.4-.21.81-.34,1.22l-.66,1.95h2.03Z"/>
    </g>
    <g>
      <circle class="cls-1" cx="175.22" cy="308.39" r="7.75"/>
      <path class="cls-3" d="M177.79,311.72c-.32.16-.96.32-1.78.32-1.9,0-3.33-1.2-3.33-3.41s1.43-3.54,3.52-3.54c.84,0,1.37.18,1.6.3l-.21.71c-.33-.16-.8-.28-1.36-.28-1.58,0-2.63,1.01-2.63,2.78,0,1.65.95,2.71,2.59,2.71.53,0,1.07-.11,1.42-.28l.18.69Z"/>
    </g>
    <g>
      <circle class="cls-1" cx="29.22" cy="308.39" r="7.75"/>
      <path class="cls-3" d="M27.27,305.29c.38-.08.98-.14,1.59-.14.87,0,1.43.15,1.85.49.35.26.56.66.56,1.19,0,.65-.43,1.22-1.14,1.48v.02c.64.16,1.39.69,1.39,1.69,0,.58-.23,1.02-.57,1.35-.47.43-1.23.63-2.33.63-.6,0-1.06-.04-1.35-.08v-6.63ZM28.14,308.05h.79c.92,0,1.46-.48,1.46-1.13,0-.79-.6-1.1-1.48-1.1-.4,0-.63.03-.77.06v2.17ZM28.14,311.28c.17.03.42.04.73.04.9,0,1.73-.33,1.73-1.31,0-.92-.79-1.3-1.74-1.3h-.72v2.57Z"/>
    </g>
    <g>
      <circle class="cls-1" cx="175.22" cy="191.39" r="7.75"/>
      <path class="cls-3" d="M172.91,188.59c.48-.07,1.04-.13,1.67-.13,1.13,0,1.93.26,2.46.76.54.5.86,1.2.86,2.18s-.31,1.8-.87,2.36c-.57.57-1.5.87-2.68.87-.56,0-1.03-.03-1.42-.07v-5.97ZM173.69,193.96c.2.04.49.04.79.04,1.67,0,2.58-.94,2.58-2.57,0-1.43-.8-2.34-2.46-2.34-.41,0-.71.04-.92.08v4.79Z"/>
    </g>
    <g>
      <rect class="cls-5" x="35.57" y="324.05" width="134.61" height="23.48"/>
      <path class="cls-1" d="M47.92,336.37v-11.95h2.74v.83h-1.72v10.3h1.72v.83h-2.74Z"/>
      <path class="cls-1" d="M52.18,336.37v-11.95h2.74v.83h-1.72v10.3h1.72v.83h-2.74Z"/>
      <path class="cls-1" d="M57.82,331.52l-1.05,3.18h-1.35l3.44-10.11h1.57l3.45,10.11h-1.4l-1.08-3.18h-3.58ZM61.14,330.49l-.99-2.91c-.22-.66-.38-1.26-.52-1.85h-.03c-.15.6-.31,1.22-.51,1.83l-.99,2.92h3.04Z"/>
      <path class="cls-1" d="M64.47,336.54c.33-.88.73-2.49.9-3.58l1.47-.15c-.34,1.27-1,2.94-1.42,3.64l-.94.09Z"/>
      <path class="cls-1" d="M68.47,324.72c.57-.12,1.47-.21,2.38-.21,1.3,0,2.15.22,2.77.74.52.39.84.99.84,1.78,0,.98-.65,1.83-1.71,2.22v.03c.96.24,2.08,1.04,2.08,2.54,0,.87-.34,1.53-.85,2.03-.71.64-1.84.94-3.49.94-.9,0-1.59-.06-2.02-.12v-9.94ZM69.78,328.86h1.19c1.38,0,2.19-.72,2.19-1.69,0-1.19-.9-1.65-2.22-1.65-.6,0-.94.04-1.15.09v3.25ZM69.78,333.7c.25.04.63.06,1.1.06,1.35,0,2.59-.5,2.59-1.96,0-1.38-1.19-1.95-2.61-1.95h-1.08v3.85Z"/>
      <path class="cls-1" d="M75.51,336.54c.33-.88.73-2.49.9-3.58l1.47-.15c-.34,1.27-1,2.94-1.42,3.64l-.94.09Z"/>
      <path class="cls-1" d="M86.58,334.36c-.48.24-1.44.48-2.67.48-2.85,0-4.99-1.8-4.99-5.12s2.15-5.31,5.28-5.31c1.26,0,2.05.27,2.4.45l-.31,1.06c-.5-.24-1.2-.42-2.04-.42-2.37,0-3.94,1.51-3.94,4.17,0,2.47,1.42,4.06,3.88,4.06.79,0,1.6-.17,2.13-.42l.27,1.04Z"/>
      <path class="cls-1" d="M87.31,336.54c.33-.88.73-2.49.9-3.58l1.47-.15c-.34,1.27-1,2.94-1.42,3.64l-.94.09Z"/>
      <path class="cls-1" d="M91.32,324.72c.79-.12,1.74-.21,2.77-.21,1.87,0,3.21.43,4.09,1.26.9.83,1.42,2,1.42,3.63s-.51,3-1.46,3.93c-.94.95-2.5,1.46-4.47,1.46-.93,0-1.71-.04-2.37-.12v-9.94ZM92.62,333.66c.33.06.81.08,1.32.08,2.79,0,4.31-1.56,4.31-4.29.01-2.38-1.33-3.9-4.1-3.9-.67,0-1.18.06-1.53.13v7.98Z"/>
      <path class="cls-1" d="M103.09,324.4v11.97h-2.74v-.83h1.72v-10.32h-1.72v-.83h2.74Z"/>
      <path class="cls-1" d="M105.55,336.37v-11.95h2.74v.83h-1.72v10.3h1.72v.83h-2.74Z"/>
      <path class="cls-1" d="M114.95,329.95h-3.93v3.65h4.38v1.09h-5.68v-10.11h5.46v1.09h-4.15v3.2h3.93v1.08Z"/>
      <path class="cls-1" d="M116.14,336.54c.33-.88.73-2.49.9-3.58l1.47-.15c-.34,1.27-1,2.94-1.42,3.64l-.94.09Z"/>
      <path class="cls-1" d="M120.15,324.59h5.44v1.09h-4.14v3.36h3.82v1.08h-3.82v4.58h-1.3v-10.11Z"/>
      <path class="cls-1" d="M125.1,336.54c.33-.88.74-2.49.9-3.58l1.47-.15c-.34,1.27-1,2.94-1.42,3.64l-.95.09Z"/>
      <path class="cls-1" d="M136.8,334.24c-.58.21-1.74.56-3.1.56-1.53,0-2.79-.39-3.78-1.33-.87-.84-1.41-2.19-1.41-3.77.02-3.01,2.08-5.22,5.47-5.22,1.17,0,2.08.25,2.52.46l-.31,1.07c-.54-.24-1.21-.44-2.23-.44-2.46,0-4.06,1.53-4.06,4.07s1.54,4.08,3.9,4.08c.85,0,1.44-.12,1.74-.27v-3.01h-2.05v-1.05h3.33v4.86Z"/>
      <path class="cls-1" d="M137.89,336.54c.33-.88.74-2.49.9-3.58l1.47-.15c-.34,1.27-1,2.94-1.42,3.64l-.95.09Z"/>
      <path class="cls-1" d="M143.2,324.59v4.23h4.89v-4.23h1.32v10.11h-1.32v-4.74h-4.89v4.74h-1.3v-10.11h1.3Z"/>
      <path class="cls-1" d="M153.57,324.4v11.97h-2.74v-.83h1.72v-10.32h-1.72v-.83h2.74Z"/>
      <path class="cls-1" d="M157.82,324.4v11.97h-2.74v-.83h1.72v-10.32h-1.72v-.83h2.74Z"/>
    </g>
    <rect class="cls-6" x="124.59" y="224.07" width="51" height="38"/>
    <g>
      <circle class="cls-1" cx="175.14" cy="264.8" r="7.75"/>
      <path class="cls-3" d="M177.79,268.05c-.39.14-1.16.37-2.07.37-1.02,0-1.86-.26-2.52-.89-.58-.56-.94-1.46-.94-2.51,0-2.01,1.39-3.48,3.65-3.48.78,0,1.39.17,1.68.31l-.21.71c-.36-.16-.81-.29-1.49-.29-1.64,0-2.71,1.02-2.71,2.71s1.03,2.72,2.6,2.72c.57,0,.96-.08,1.16-.18v-2.01h-1.37v-.7h2.22v3.24Z"/>
    </g>
    <g>
      <circle class="cls-1" cx="177.14" cy="223.8" r="7.75"/>
      <path class="cls-3" d="M175.46,220.61h3.63v.73h-2.76v2.24h2.55v.72h-2.55v3.05h-.87v-6.74Z"/>
    </g>
    <g>
      <circle class="cls-1" cx="125.14" cy="262.8" r="7.75"/>
      <path class="cls-3" d="M123.67,259.93v2.54h2.94v-2.54h.79v6.07h-.79v-2.84h-2.94v2.84h-.78v-6.07h.78Z"/>
    </g>
    <g>
      <circle class="cls-1" cx="124.14" cy="223.8" r="7.75"/>
      <path class="cls-3" d="M125.92,224.19h-2.62v2.43h2.92v.73h-3.79v-6.74h3.64v.73h-2.77v2.13h2.62v.72Z"/>
    </g>
  </g>
  <g>
    <rect class="cls-2" x="348.83" y="24.57" width="145" height="115"/>
    <rect class="cls-3" x="442.83" y="56.57" width="62" height="38"/>
    <line class="cls-6" x1="347.33" y1="23.07" x2="349.33" y2="140.07"/>
    <line class="cls-6" x1="494.33" y1="25.07" x2="349.33" y2="25.07"/>
    <line class="cls-6" x1="494.33" y1="140.07" x2="349.33" y2="140.07"/>
    <line class="cls-6" x1="494.33" y1="25.07" x2="494.33" y2="58.07"/>
    <line class="cls-6" x1="441.33" y1="56.07" x2="494.33" y2="56.07"/>
    <line class="cls-6" x1="442.33" y1="97.07" x2="442.33" y2="59.07"/>
    <line class="cls-6" x1="493.33" y1="94.07" x2="441.33" y2="94.07"/>
    <line class="cls-6" x1="494.33" y1="140.07" x2="494.33" y2="94.07"/>
    <g>
      <circle class="cls-1" cx="348.08" cy="23.82" r="7.75"/>
      <path class="cls-3" d="M346.87,25.25l-.7,2.12h-.9l2.29-6.74h1.05l2.3,6.74h-.93l-.72-2.12h-2.39ZM349.08,24.57l-.66-1.94c-.15-.44-.25-.84-.35-1.23h-.02c-.1.4-.21.81-.34,1.22l-.66,1.95h2.03Z"/>
    </g>
    <g>
      <circle class="cls-1" cx="492.97" cy="140.39" r="7.75"/>
      <path class="cls-3" d="M495.53,143.72c-.32.16-.96.32-1.78.32-1.9,0-3.33-1.2-3.33-3.41s1.43-3.54,3.52-3.54c.84,0,1.37.18,1.6.3l-.21.71c-.33-.16-.8-.28-1.36-.28-1.58,0-2.63,1.01-2.63,2.78,0,1.65.95,2.71,2.59,2.71.53,0,1.07-.11,1.42-.28l.18.69Z"/>
    </g>
    <g>
      <circle class="cls-1" cx="346.97" cy="140.39" r="7.75"/>
      <path class="cls-3" d="M345.02,137.29c.38-.08.98-.14,1.59-.14.87,0,1.43.15,1.85.49.35.26.56.66.56,1.19,0,.65-.43,1.22-1.14,1.48v.02c.64.16,1.39.69,1.39,1.69,0,.58-.23,1.02-.57,1.35-.47.43-1.23.63-2.33.63-.6,0-1.06-.04-1.35-.08v-6.63ZM345.89,140.05h.79c.92,0,1.46-.48,1.46-1.13,0-.79-.6-1.1-1.48-1.1-.4,0-.63.03-.77.06v2.17ZM345.89,143.28c.17.03.42.04.73.04.9,0,1.73-.33,1.73-1.31,0-.92-.79-1.3-1.74-1.3h-.72v2.57Z"/>
    </g>
    <g>
      <circle class="cls-1" cx="492.97" cy="23.39" r="7.75"/>
      <path class="cls-3" d="M490.65,20.6c.48-.07,1.04-.13,1.67-.13,1.13,0,1.93.26,2.46.76.54.5.85,1.2.85,2.18s-.31,1.8-.87,2.36c-.57.57-1.5.87-2.68.87-.56,0-1.03-.03-1.42-.07v-5.97ZM491.44,25.96c.2.04.49.04.79.04,1.67,0,2.58-.94,2.58-2.57,0-1.43-.8-2.34-2.46-2.34-.41,0-.71.04-.92.08v4.79Z"/>
    </g>
    <g>
      <rect class="cls-5" x="353.31" y="156.05" width="134.61" height="23.48"/>
      <path class="cls-1" d="M371.67,168.37v-11.95h2.75v.83h-1.72v10.3h1.72v.83h-2.75Z"/>
      <path class="cls-1" d="M375.93,168.37v-11.95h2.75v.83h-1.72v10.3h1.72v.83h-2.75Z"/>
      <path class="cls-1" d="M381.57,163.52l-1.05,3.18h-1.35l3.43-10.11h1.58l3.45,10.11h-1.4l-1.08-3.18h-3.59ZM384.88,162.49l-.99-2.91c-.22-.66-.38-1.26-.52-1.85h-.03c-.15.6-.32,1.22-.51,1.83l-.99,2.92h3.04Z"/>
      <path class="cls-1" d="M388.21,168.54c.33-.88.74-2.49.9-3.58l1.47-.15c-.35,1.27-1.01,2.94-1.43,3.64l-.94.09Z"/>
      <path class="cls-1" d="M392.22,156.72c.57-.12,1.47-.21,2.38-.21,1.3,0,2.15.22,2.78.74.53.39.84.99.84,1.78,0,.98-.64,1.83-1.71,2.22v.03c.96.24,2.08,1.04,2.08,2.54,0,.87-.34,1.53-.86,2.03-.71.64-1.84.94-3.49.94-.9,0-1.59-.06-2.03-.12v-9.94ZM393.52,160.86h1.19c1.38,0,2.19-.72,2.19-1.69,0-1.19-.9-1.65-2.22-1.65-.6,0-.94.04-1.16.09v3.25ZM393.52,165.7c.26.04.63.06,1.1.06,1.35,0,2.59-.5,2.59-1.96,0-1.38-1.18-1.95-2.61-1.95h-1.08v3.85Z"/>
      <path class="cls-1" d="M399.25,168.54c.33-.88.74-2.49.9-3.58l1.47-.15c-.34,1.27-1,2.94-1.42,3.64l-.95.09Z"/>
      <path class="cls-1" d="M410.32,166.36c-.48.24-1.44.48-2.67.48-2.85,0-5-1.8-5-5.12s2.15-5.31,5.28-5.31c1.26,0,2.05.27,2.4.45l-.32,1.06c-.49-.24-1.2-.42-2.04-.42-2.37,0-3.95,1.51-3.95,4.17,0,2.47,1.42,4.06,3.88,4.06.79,0,1.61-.17,2.13-.42l.27,1.04Z"/>
      <path class="cls-1" d="M411.06,168.54c.33-.88.74-2.49.9-3.58l1.47-.15c-.34,1.27-1,2.94-1.42,3.64l-.95.09Z"/>
      <path class="cls-1" d="M416.37,156.59v10.11h-1.3v-10.11h1.3Z"/>
      <path class="cls-1" d="M417.75,168.54c.33-.88.74-2.49.9-3.58l1.47-.15c-.35,1.27-1.01,2.94-1.43,3.64l-.94.09Z"/>
      <path class="cls-1" d="M423.06,156.59v4.23h4.89v-4.23h1.32v10.11h-1.32v-4.74h-4.89v4.74h-1.3v-10.11h1.3Z"/>
      <path class="cls-1" d="M430.63,168.54c.33-.88.74-2.49.9-3.58l1.47-.15c-.35,1.27-1.01,2.94-1.43,3.64l-.94.09Z"/>
      <path class="cls-1" d="M439.87,161.95h-3.93v3.65h4.38v1.09h-5.68v-10.11h5.46v1.09h-4.15v3.2h3.93v1.08Z"/>
      <path class="cls-1" d="M441.06,168.54c.33-.88.73-2.49.9-3.58l1.47-.15c-.34,1.27-1,2.94-1.42,3.64l-.95.09Z"/>
      <path class="cls-1" d="M447.13,156.59h1.3v6.76c0,2.68-1.32,3.51-3.06,3.51-.48,0-1.07-.11-1.4-.24l.19-1.06c.27.1.66.19,1.1.19,1.17,0,1.86-.52,1.86-2.5v-6.66Z"/>
      <path class="cls-1" d="M449.53,168.54c.33-.88.73-2.49.9-3.58l1.47-.15c-.34,1.27-1,2.94-1.42,3.64l-.95.09Z"/>
      <path class="cls-1" d="M453.53,156.72c.79-.12,1.74-.21,2.77-.21,1.88,0,3.21.43,4.1,1.26.9.83,1.42,2,1.42,3.63s-.51,3-1.46,3.93c-.94.95-2.5,1.46-4.47,1.46-.93,0-1.71-.04-2.37-.12v-9.94ZM454.84,165.66c.33.06.81.08,1.32.08,2.79,0,4.31-1.56,4.31-4.29.01-2.38-1.33-3.9-4.09-3.9-.68,0-1.19.06-1.53.13v7.98Z"/>
      <path class="cls-1" d="M465.31,156.4v11.97h-2.74v-.83h1.72v-10.32h-1.72v-.83h2.74Z"/>
      <path class="cls-1" d="M469.57,156.4v11.97h-2.74v-.83h1.72v-10.32h-1.72v-.83h2.74Z"/>
    </g>
    <g>
      <circle class="cls-1" cx="492.88" cy="96.8" r="7.75"/>
      <path class="cls-3" d="M493.31,93.61v6.74h-.87v-6.74h.87Z"/>
    </g>
    <g>
      <circle class="cls-1" cx="492.88" cy="56.8" r="7.75"/>
      <path class="cls-3" d="M493.17,53.61h.87v4.51c0,1.79-.88,2.34-2.04,2.34-.32,0-.71-.07-.93-.16l.13-.71c.18.07.44.13.73.13.78,0,1.24-.35,1.24-1.67v-4.44Z"/>
    </g>
    <g>
      <circle class="cls-1" cx="442.88" cy="96.8" r="7.75"/>
      <path class="cls-3" d="M441.41,93.93v2.54h2.94v-2.54h.79v6.07h-.79v-2.84h-2.94v2.84h-.78v-6.07h.78Z"/>
    </g>
    <g>
      <circle class="cls-1" cx="441.88" cy="55.8" r="7.75"/>
      <path class="cls-3" d="M443.67,56.19h-2.62v2.43h2.92v.73h-3.79v-6.74h3.64v.73h-2.77v2.13h2.62v.72Z"/>
    </g>
  </g>
  <g>
    <rect class="cls-2" x="29.83" y="25.57" width="145" height="115"/>
    <rect class="cls-3" x="123.83" y="57.57" width="62" height="38"/>
    <rect class="cls-6" x="28.33" y="24.07" width="146" height="117"/>
    <g>
      <circle class="cls-1" cx="29.08" cy="24.82" r="7.75"/>
      <path class="cls-3" d="M27.87,26.25l-.7,2.12h-.9l2.29-6.74h1.05l2.3,6.74h-.93l-.72-2.12h-2.39ZM30.08,25.57l-.66-1.94c-.15-.44-.25-.84-.35-1.23h-.02c-.1.4-.21.81-.34,1.22l-.66,1.95h2.03Z"/>
    </g>
    <g>
      <circle class="cls-1" cx="173.97" cy="141.39" r="7.75"/>
      <path class="cls-3" d="M176.53,144.72c-.32.16-.96.32-1.78.32-1.9,0-3.33-1.2-3.33-3.41s1.43-3.54,3.52-3.54c.84,0,1.37.18,1.6.3l-.21.71c-.33-.16-.8-.28-1.36-.28-1.58,0-2.63,1.01-2.63,2.78,0,1.65.95,2.71,2.59,2.71.53,0,1.07-.11,1.42-.28l.18.69Z"/>
    </g>
    <g>
      <circle class="cls-1" cx="27.97" cy="141.39" r="7.75"/>
      <path class="cls-3" d="M26.02,138.29c.38-.08.98-.14,1.59-.14.87,0,1.43.15,1.85.49.35.26.56.66.56,1.19,0,.65-.43,1.22-1.14,1.48v.02c.64.16,1.39.69,1.39,1.69,0,.58-.23,1.02-.57,1.35-.47.43-1.23.63-2.33.63-.6,0-1.06-.04-1.35-.08v-6.63ZM26.89,141.05h.79c.92,0,1.46-.48,1.46-1.13,0-.79-.6-1.1-1.48-1.1-.4,0-.63.03-.77.06v2.17ZM26.89,144.28c.17.03.42.04.73.04.9,0,1.73-.33,1.73-1.31,0-.92-.79-1.3-1.74-1.3h-.72v2.57Z"/>
    </g>
    <g>
      <circle class="cls-1" cx="173.97" cy="24.39" r="7.75"/>
      <path class="cls-3" d="M171.65,21.6c.48-.07,1.04-.13,1.67-.13,1.13,0,1.93.26,2.46.76.54.5.86,1.2.86,2.18s-.31,1.8-.87,2.36c-.57.57-1.5.87-2.68.87-.56,0-1.03-.03-1.42-.07v-5.97ZM172.44,26.96c.2.04.49.04.79.04,1.67,0,2.58-.94,2.58-2.57,0-1.43-.8-2.34-2.46-2.34-.41,0-.71.04-.92.08v4.79Z"/>
    </g>
    <g>
      <rect class="cls-5" x="34.31" y="157.05" width="134.61" height="23.48"/>
      <path class="cls-1" d="M46.67,169.37v-11.95h2.74v.83h-1.72v10.3h1.72v.83h-2.74Z"/>
      <path class="cls-1" d="M50.93,169.37v-11.95h2.74v.83h-1.72v10.3h1.72v.83h-2.74Z"/>
      <path class="cls-1" d="M56.56,164.52l-1.05,3.18h-1.35l3.44-10.11h1.57l3.45,10.11h-1.4l-1.08-3.18h-3.58ZM59.88,163.49l-.99-2.91c-.22-.66-.38-1.26-.52-1.85h-.03c-.15.6-.31,1.22-.51,1.83l-.99,2.92h3.04Z"/>
      <path class="cls-1" d="M63.21,169.54c.33-.88.73-2.49.9-3.58l1.47-.15c-.34,1.27-1,2.94-1.42,3.64l-.94.09Z"/>
      <path class="cls-1" d="M67.22,157.72c.57-.12,1.47-.21,2.38-.21,1.3,0,2.15.22,2.77.74.52.39.84.99.84,1.78,0,.98-.65,1.83-1.71,2.22v.03c.96.24,2.08,1.04,2.08,2.54,0,.87-.34,1.53-.85,2.03-.71.64-1.84.94-3.49.94-.9,0-1.59-.06-2.02-.12v-9.94ZM68.52,161.86h1.19c1.38,0,2.19-.72,2.19-1.69,0-1.19-.9-1.65-2.22-1.65-.6,0-.94.04-1.15.09v3.25ZM68.52,166.7c.25.04.63.06,1.1.06,1.35,0,2.59-.5,2.59-1.96,0-1.38-1.19-1.95-2.61-1.95h-1.08v3.85Z"/>
      <path class="cls-1" d="M74.25,169.54c.33-.88.73-2.49.9-3.58l1.47-.15c-.34,1.27-1,2.94-1.42,3.64l-.94.09Z"/>
      <path class="cls-1" d="M85.32,167.36c-.48.24-1.44.48-2.67.48-2.85,0-4.99-1.8-4.99-5.12s2.15-5.31,5.28-5.31c1.26,0,2.05.27,2.4.45l-.31,1.06c-.5-.24-1.2-.42-2.04-.42-2.37,0-3.94,1.51-3.94,4.17,0,2.47,1.42,4.06,3.88,4.06.79,0,1.6-.17,2.13-.42l.27,1.04Z"/>
      <path class="cls-1" d="M86.06,169.54c.33-.88.73-2.49.9-3.58l1.47-.15c-.34,1.27-1,2.94-1.42,3.64l-.94.09Z"/>
      <path class="cls-1" d="M90.06,157.72c.79-.12,1.74-.21,2.77-.21,1.87,0,3.21.43,4.09,1.26.9.83,1.42,2,1.42,3.63s-.51,3-1.46,3.93c-.94.95-2.5,1.46-4.47,1.46-.93,0-1.71-.04-2.37-.12v-9.94ZM91.36,166.66c.33.06.81.08,1.32.08,2.79,0,4.31-1.56,4.31-4.29.01-2.38-1.33-3.9-4.1-3.9-.67,0-1.18.06-1.53.13v7.98Z"/>
      <path class="cls-1" d="M101.83,157.4v11.97h-2.74v-.83h1.72v-10.32h-1.72v-.83h2.74Z"/>
      <path class="cls-1" d="M104.29,169.37v-11.95h2.74v.83h-1.72v10.3h1.72v.83h-2.74Z"/>
      <path class="cls-1" d="M113.7,162.95h-3.93v3.65h4.38v1.09h-5.68v-10.11h5.46v1.09h-4.15v3.2h3.93v1.08Z"/>
      <path class="cls-1" d="M114.88,169.54c.33-.88.73-2.49.9-3.58l1.47-.15c-.34,1.27-1,2.94-1.42,3.64l-.94.09Z"/>
      <path class="cls-1" d="M118.89,157.59h5.44v1.09h-4.14v3.36h3.82v1.08h-3.82v4.58h-1.3v-10.11Z"/>
      <path class="cls-1" d="M123.84,169.54c.33-.88.74-2.49.9-3.58l1.47-.15c-.34,1.27-1,2.94-1.42,3.64l-.95.09Z"/>
      <path class="cls-1" d="M135.54,167.24c-.58.21-1.74.56-3.1.56-1.53,0-2.79-.39-3.78-1.33-.87-.84-1.41-2.19-1.41-3.77.02-3.01,2.08-5.22,5.47-5.22,1.17,0,2.08.25,2.52.46l-.31,1.07c-.54-.24-1.21-.44-2.23-.44-2.46,0-4.06,1.53-4.06,4.07s1.54,4.08,3.9,4.08c.85,0,1.44-.12,1.74-.27v-3.01h-2.05v-1.05h3.33v4.86Z"/>
      <path class="cls-1" d="M136.63,169.54c.33-.88.74-2.49.9-3.58l1.47-.15c-.34,1.27-1,2.94-1.42,3.64l-.95.09Z"/>
      <path class="cls-1" d="M141.94,157.59v4.23h4.89v-4.23h1.32v10.11h-1.32v-4.74h-4.89v4.74h-1.3v-10.11h1.3Z"/>
      <path class="cls-1" d="M152.31,157.4v11.97h-2.74v-.83h1.72v-10.32h-1.72v-.83h2.74Z"/>
      <path class="cls-1" d="M156.57,157.4v11.97h-2.74v-.83h1.72v-10.32h-1.72v-.83h2.74Z"/>
    </g>
    <rect class="cls-6" x="123.33" y="57.07" width="92" height="38"/>
    <g>
      <circle class="cls-1" cx="216.88" cy="95.8" r="7.75"/>
      <path class="cls-3" d="M219.54,99.05c-.39.14-1.16.37-2.07.37-1.02,0-1.86-.26-2.52-.89-.58-.56-.94-1.46-.94-2.51,0-2.01,1.39-3.48,3.65-3.48.78,0,1.39.17,1.68.31l-.21.71c-.36-.16-.81-.29-1.49-.29-1.64,0-2.71,1.02-2.71,2.71s1.03,2.72,2.6,2.72c.57,0,.96-.08,1.16-.18v-2.01h-1.37v-.7h2.22v3.24Z"/>
    </g>
    <g>
      <circle class="cls-1" cx="213.88" cy="56.8" r="7.75"/>
      <path class="cls-3" d="M212.21,53.61h3.63v.73h-2.76v2.24h2.55v.72h-2.55v3.05h-.87v-6.74Z"/>
    </g>
    <g>
      <circle class="cls-1" cx="123.88" cy="97.8" r="7.75"/>
      <path class="cls-3" d="M122.41,94.93v2.54h2.94v-2.54h.79v6.07h-.79v-2.84h-2.94v2.84h-.78v-6.07h.78Z"/>
    </g>
    <g>
      <circle class="cls-1" cx="122.88" cy="56.8" r="7.75"/>
      <path class="cls-3" d="M124.67,57.19h-2.62v2.43h2.92v.73h-3.79v-6.74h3.64v.73h-2.77v2.13h2.62v.72Z"/>
    </g>
  </g>
  <g>
    <g>
      <line class="cls-4" x1="202.83" y1="169.07" x2="310.49" y2="169.07"/>
      <polygon class="cls-7" points="306.36 183.2 330.83 169.07 306.36 154.93 306.36 183.2"/>
    </g>
    <g>
      <rect class="cls-5" x="206.88" y="160.13" width="94.96" height="17.93"/>
      <path class="cls-1" d="M219.87,160.54c.34-.07.88-.13,1.43-.13.78,0,1.29.13,1.67.44.32.23.5.59.5,1.07,0,.59-.39,1.1-1.03,1.33v.02c.58.14,1.25.62,1.25,1.52,0,.52-.21.92-.51,1.22-.42.39-1.11.57-2.1.57-.54,0-.95-.04-1.21-.07v-5.97ZM220.66,163.02h.71c.83,0,1.31-.43,1.31-1.02,0-.71-.54-.99-1.33-.99-.36,0-.57.03-.69.05v1.95ZM220.66,165.93c.15.03.38.04.66.04.81,0,1.56-.3,1.56-1.18,0-.83-.71-1.17-1.57-1.17h-.65v2.31Z"/>
      <path class="cls-1" d="M228.7,164.31c0,1.61-1.12,2.31-2.17,2.31-1.18,0-2.09-.86-2.09-2.24,0-1.46.95-2.31,2.16-2.31s2.1.91,2.1,2.24ZM225.25,164.35c0,.95.55,1.67,1.32,1.67s1.32-.71,1.32-1.69c0-.74-.37-1.67-1.31-1.67s-1.34.86-1.34,1.69Z"/>
      <path class="cls-1" d="M233.65,164.31c0,1.61-1.12,2.31-2.17,2.31-1.18,0-2.09-.86-2.09-2.24,0-1.46.95-2.31,2.16-2.31s2.1.91,2.1,2.24ZM230.19,164.35c0,.95.55,1.67,1.32,1.67s1.32-.71,1.32-1.69c0-.74-.37-1.67-1.31-1.67s-1.34.86-1.34,1.69Z"/>
      <path class="cls-1" d="M234.64,160.13h.79v6.39h-.79v-6.39Z"/>
      <path class="cls-1" d="M237.21,164.49c.02,1.07.7,1.51,1.49,1.51.57,0,.91-.1,1.21-.23l.14.57c-.28.13-.76.27-1.45.27-1.34,0-2.14-.88-2.14-2.2s.77-2.35,2.04-2.35c1.42,0,1.8,1.25,1.8,2.05,0,.16-.02.29-.03.37h-3.06ZM239.53,163.92c0-.5-.21-1.29-1.1-1.29-.8,0-1.15.74-1.21,1.29h2.31Z"/>
      <path class="cls-1" d="M243.69,166.52l-.06-.55h-.03c-.24.34-.71.65-1.33.65-.88,0-1.33-.62-1.33-1.25,0-1.05.94-1.63,2.62-1.62v-.09c0-.36-.1-1.01-.99-1.01-.41,0-.83.13-1.13.32l-.18-.52c.36-.23.88-.39,1.43-.39,1.33,0,1.66.91,1.66,1.78v1.63c0,.38.02.75.07,1.04h-.72ZM243.57,164.3c-.86-.02-1.85.14-1.85.98,0,.51.34.76.75.76.57,0,.93-.36,1.05-.73.03-.08.04-.17.04-.25v-.76Z"/>
      <path class="cls-1" d="M245.61,163.34c0-.45,0-.82-.04-1.18h.7l.04.72h.02c.22-.41.72-.82,1.44-.82.6,0,1.54.36,1.54,1.85v2.6h-.79v-2.51c0-.7-.26-1.29-1.01-1.29-.52,0-.93.37-1.06.81-.04.1-.05.23-.05.37v2.62h-.79v-3.18Z"/>
      <path class="cls-1" d="M256.28,160.13v5.27c0,.39,0,.83.04,1.13h-.71l-.04-.76h-.02c-.24.49-.77.86-1.49.86-1.05,0-1.86-.89-1.86-2.21,0-1.45.89-2.34,1.95-2.34.67,0,1.12.32,1.31.67h.02v-2.6h.79ZM255.49,163.94c0-.1,0-.23-.04-.33-.12-.5-.55-.92-1.14-.92-.82,0-1.31.72-1.31,1.68,0,.88.43,1.61,1.29,1.61.53,0,1.02-.35,1.16-.95.03-.11.04-.22.04-.34v-.76Z"/>
      <path class="cls-1" d="M258.48,160.94c0,.27-.19.49-.5.49-.28,0-.48-.22-.48-.49s.21-.5.5-.5.49.22.49.5ZM257.59,166.52v-4.36h.79v4.36h-.79Z"/>
      <path class="cls-1" d="M262.39,166.52v-3.75h-1.83v3.75h-.78v-3.75h-.61v-.6h.61v-.14c0-.61.14-1.14.49-1.49.25-.25.61-.41,1.1-.41.25,0,.49.08.62.15l-.16.58c-.12-.05-.29-.11-.47-.11-.62,0-.79.53-.79,1.22v.19h1.83v-.21c0-.61.14-1.17.51-1.52.3-.29.69-.4,1.05-.4.29,0,.52.06.68.13l-.1.61c-.13-.05-.28-.1-.51-.1-.67,0-.85.59-.85,1.26v.23h1.05v.6h-1.04v3.75h-.79Z"/>
      <path class="cls-1" d="M265.27,164.49c.02,1.07.7,1.51,1.49,1.51.57,0,.91-.1,1.21-.23l.14.57c-.28.13-.76.27-1.45.27-1.34,0-2.14-.88-2.14-2.2s.77-2.35,2.04-2.35c1.42,0,1.8,1.25,1.8,2.05,0,.16-.02.29-.03.37h-3.06ZM267.59,163.92c0-.5-.21-1.29-1.1-1.29-.8,0-1.15.74-1.21,1.29h2.31Z"/>
      <path class="cls-1" d="M269.34,163.52c0-.51,0-.95-.04-1.36h.69l.03.86h.04c.2-.59.68-.95,1.21-.95.09,0,.15,0,.22.03v.75c-.08-.02-.16-.03-.27-.03-.56,0-.96.42-1.06,1.02-.02.11-.04.23-.04.37v2.32h-.78v-3Z"/>
      <path class="cls-1" d="M272.63,164.49c.02,1.07.7,1.51,1.49,1.51.57,0,.91-.1,1.21-.23l.14.57c-.28.13-.76.27-1.45.27-1.34,0-2.14-.88-2.14-2.2s.77-2.35,2.04-2.35c1.42,0,1.8,1.25,1.8,2.05,0,.16-.02.29-.03.37h-3.06ZM274.95,163.92c0-.5-.21-1.29-1.1-1.29-.8,0-1.15.74-1.21,1.29h2.31Z"/>
      <path class="cls-1" d="M276.7,163.34c0-.45,0-.82-.04-1.18h.7l.04.72h.02c.22-.41.72-.82,1.44-.82.6,0,1.54.36,1.54,1.85v2.6h-.79v-2.51c0-.7-.26-1.29-1.01-1.29-.52,0-.93.37-1.06.81-.04.1-.05.23-.05.37v2.62h-.79v-3.18Z"/>
      <path class="cls-1" d="M284.8,166.36c-.21.11-.67.25-1.25.25-1.31,0-2.17-.89-2.17-2.22s.92-2.31,2.34-2.31c.47,0,.88.12,1.1.23l-.18.61c-.19-.11-.49-.21-.92-.21-1,0-1.54.74-1.54,1.65,0,1.01.65,1.63,1.51,1.63.45,0,.75-.12.97-.22l.13.59Z"/>
      <path class="cls-1" d="M286.11,164.49c.02,1.07.7,1.51,1.49,1.51.57,0,.91-.1,1.21-.23l.14.57c-.28.13-.76.27-1.45.27-1.34,0-2.14-.88-2.14-2.2s.77-2.35,2.04-2.35c1.42,0,1.8,1.25,1.8,2.05,0,.16-.02.29-.03.37h-3.06ZM288.44,163.92c0-.5-.21-1.29-1.1-1.29-.8,0-1.15.74-1.21,1.29h2.31Z"/>
    </g>
  </g>
</svg>