<?xml version="1.0" encoding="UTF-8"?>
<svg id="Shell" xmlns="http://www.w3.org/2000/svg" viewBox="0 0 721.58 427.6">
  <defs>
    <style>
      .cls-1 {
        fill: #c92027;
      }

      .cls-2 {
        fill: #437898;
        opacity: .41;
      }

      .cls-3 {
        fill: #231f20;
      }

      .cls-4 {
        stroke-width: 2px;
      }

      .cls-4, .cls-5, .cls-6, .cls-7, .cls-8 {
        fill: none;
      }

      .cls-4, .cls-5, .cls-7, .cls-8 {
        stroke-miterlimit: 10;
      }

      .cls-4, .cls-7, .cls-8 {
        stroke: #437898;
      }

      .cls-9 {
        fill: #6dbae7;
        opacity: .31;
      }

      .cls-10 {
        fill: #fff;
      }

      .cls-5 {
        stroke: #9b9a9a;
      }

      .cls-5, .cls-7, .cls-8 {
        stroke-width: 2.83px;
      }

      .cls-11 {
        fill: #9b9a9a;
      }

      .cls-12 {
        fill: #39b54a;
      }

      .cls-8 {
        stroke-dasharray: 5.67;
      }
    </style>
  </defs>
  <g>
    <rect class="cls-9" x="56.59" y="44.57" width="124" height="115"/>
    <polyline class="cls-9" points="54.59 44.57 54.59 44.57 56.09 160.07 33.64 192.71 35.09 75.07 56.59 44.57"/>
    <line class="cls-7" x1="181.09" y1="45.07" x2="56.09" y2="45.07"/>
    <line class="cls-7" x1="158.09" y1="75.07" x2="181.09" y2="45.07"/>
    <line class="cls-7" x1="162.09" y1="195.07" x2="182.09" y2="161.07"/>
    <line class="cls-7" x1="181.09" y1="45.07" x2="181.09" y2="161.07"/>
    <line class="cls-8" x1="56.09" y1="45.07" x2="56.09" y2="160.07"/>
    <line class="cls-7" x1="34.85" y1="74.51" x2="57.85" y2="44.51"/>
    <line class="cls-8" x1="181.09" y1="160.07" x2="54.09" y2="160.07"/>
    <polyline class="cls-8" points="56.09 160.07 36.09 191.07 56.09 160.07"/>
    <polygon class="cls-9" points="56.09 45.07 36.18 74.63 159.72 75.39 181.35 44.02 56.09 45.07"/>
    <polyline class="cls-9" points="34.72 192.39 56.09 160.07 181.09 161.07 161.09 192.07"/>
    <polygon class="cls-9" points="159.72 75.39 180.31 46 179.26 163.58 159.1 192.6 159.72 75.39"/>
    <polygon class="cls-9" points="180.59 44.57 199.22 11.8 219.89 52.01 180.59 44.57"/>
    <polyline class="cls-9" points="162.09 195.07 182.98 163.58 214.54 186.07 161.09 192.07"/>
    <polygon class="cls-4" points="180.59 44.57 199.22 11.8 219 49.25 180.59 44.57"/>
    <polygon class="cls-4" points="161.09 192.07 182.09 161.07 212.67 186.1 161.09 192.07"/>
    <g>
      <circle class="cls-3" cx="55.84" cy="43.82" r="7.75"/>
      <path class="cls-10" d="M57.63,44.21h-2.62v2.43h2.92v.73h-3.79v-6.74h3.64v.73h-2.77v2.13h2.62v.72Z"/>
    </g>
    <g>
      <circle class="cls-3" cx="180.72" cy="160.39" r="7.75"/>
      <path class="cls-10" d="M179.26,157.51v2.54h2.93v-2.54h.79v6.07h-.79v-2.84h-2.93v2.84h-.78v-6.07h.78Z"/>
    </g>
    <g>
      <circle class="cls-3" cx="54.72" cy="160.39" r="7.75"/>
      <path class="cls-10" d="M53.05,157.2h3.63v.73h-2.76v2.24h2.55v.72h-2.55v3.05h-.87v-6.74Z"/>
    </g>
    <g>
      <circle class="cls-3" cx="179.72" cy="43.39" r="7.75"/>
      <path class="cls-10" d="M182.12,46.31c-.35.13-1.04.33-1.86.33-.92,0-1.67-.23-2.27-.8-.52-.5-.85-1.31-.85-2.26,0-1.81,1.25-3.13,3.29-3.13.7,0,1.25.15,1.51.28l-.19.64c-.32-.14-.73-.26-1.34-.26-1.48,0-2.44.92-2.44,2.44s.93,2.45,2.34,2.45c.51,0,.86-.07,1.04-.16v-1.81h-1.23v-.63h2v2.92Z"/>
    </g>
    <rect class="cls-9" x="36.59" y="76.57" width="124" height="115"/>
    <rect class="cls-7" x="35.09" y="75.07" width="126" height="117"/>
    <g>
      <circle class="cls-3" cx="35.84" cy="75.82" r="7.75"/>
      <path class="cls-10" d="M34.63,77.25l-.7,2.12h-.9l2.29-6.74h1.05l2.3,6.74h-.93l-.72-2.12h-2.39ZM36.84,76.57l-.66-1.94c-.15-.44-.25-.84-.35-1.23h-.02c-.1.4-.21.81-.34,1.22l-.66,1.95h2.03Z"/>
    </g>
    <g>
      <circle class="cls-3" cx="160.72" cy="192.39" r="7.75"/>
      <path class="cls-10" d="M163.29,195.72c-.32.16-.96.32-1.78.32-1.9,0-3.33-1.2-3.33-3.41s1.43-3.54,3.52-3.54c.84,0,1.37.18,1.6.3l-.21.71c-.33-.16-.8-.28-1.36-.28-1.58,0-2.63,1.01-2.63,2.78,0,1.65.95,2.71,2.59,2.71.53,0,1.07-.11,1.42-.28l.18.69Z"/>
    </g>
    <g>
      <circle class="cls-3" cx="34.72" cy="192.39" r="7.75"/>
      <path class="cls-10" d="M32.77,189.29c.38-.08.98-.14,1.59-.14.87,0,1.43.15,1.85.49.35.26.56.66.56,1.19,0,.65-.43,1.22-1.14,1.48v.02c.64.16,1.39.69,1.39,1.69,0,.58-.23,1.02-.57,1.35-.47.43-1.23.63-2.33.63-.6,0-1.06-.04-1.35-.08v-6.63ZM33.64,192.05h.79c.92,0,1.46-.48,1.46-1.13,0-.79-.6-1.1-1.48-1.1-.4,0-.63.03-.77.06v2.17ZM33.64,195.28c.17.03.42.04.73.04.9,0,1.73-.33,1.73-1.31,0-.92-.79-1.3-1.74-1.3h-.72v2.57Z"/>
    </g>
    <g>
      <circle class="cls-3" cx="159.72" cy="75.39" r="7.75"/>
      <path class="cls-10" d="M157.41,72.6c.48-.07,1.04-.13,1.67-.13,1.13,0,1.93.26,2.46.76.54.5.85,1.2.85,2.18s-.31,1.8-.87,2.36c-.57.57-1.5.87-2.68.87-.56,0-1.03-.03-1.42-.07v-5.97ZM158.19,77.96c.2.04.49.04.79.04,1.67,0,2.58-.94,2.58-2.57,0-1.43-.8-2.34-2.46-2.34-.41,0-.71.04-.92.08v4.79Z"/>
    </g>
    <g>
      <circle class="cls-3" cx="196.52" cy="12.01" r="7.75"/>
      <path class="cls-10" d="M196.91,9.14v6.07h-.78v-6.07h.78Z"/>
    </g>
    <g>
      <circle class="cls-3" cx="221.52" cy="52.01" r="7.75"/>
      <path class="cls-10" d="M221.78,49.14h.78v4.06c0,1.61-.79,2.11-1.84,2.11-.29,0-.64-.06-.84-.14l.12-.64c.16.06.4.12.66.12.7,0,1.12-.31,1.12-1.5v-4Z"/>
    </g>
    <g>
      <circle class="cls-3" cx="215.52" cy="186.01" r="7.75"/>
      <path class="cls-10" d="M213.76,183.14h.78v2.93h.03c.16-.23.32-.45.48-.65l1.85-2.28h.97l-2.2,2.57,2.37,3.49h-.93l-2-2.98-.58.67v2.31h-.78v-6.07Z"/>
    </g>
  </g>
  <g>
    <polyline class="cls-9" points="138.86 265.94 138.86 265.94 139.82 339.9 125.44 360.8 126.37 285.47 140.14 265.94"/>
    <line class="cls-7" x1="219.86" y1="266.26" x2="139.82" y2="266.26"/>
    <line class="cls-7" x1="205.14" y1="285.47" x2="219.86" y2="266.26"/>
    <line class="cls-7" x1="207.7" y1="362.31" x2="220.5" y2="340.54"/>
    <line class="cls-7" x1="219.86" y1="266.26" x2="219.86" y2="340.54"/>
    <line class="cls-8" x1="139.82" y1="266.26" x2="139.82" y2="339.9"/>
    <line class="cls-7" x1="126.22" y1="285.11" x2="140.95" y2="265.9"/>
    <line class="cls-8" x1="219.86" y1="339.9" x2="138.54" y2="339.9"/>
    <polyline class="cls-8" points="139.82 339.9 127.01 359.75 139.82 339.9"/>
    <polygon class="cls-9" points="139.82 266.26 127.07 285.19 206.18 285.67 220.03 265.59 139.82 266.26"/>
    <polyline class="cls-9" points="126.14 360.59 139.82 339.9 219.86 340.54 207.06 360.39"/>
    <polygon class="cls-9" points="206.18 285.67 219.36 266.85 218.69 342.15 205.78 360.73 206.18 285.67"/>
    <rect class="cls-9" x="140.14" y="265.94" width="79.4" height="73.64"/>
    <g>
      <circle class="cls-3" cx="139.66" cy="265.46" r="4.96"/>
      <path class="cls-10" d="M139.94,263.41v4.32h-.56v-4.32h.56Z"/>
    </g>
    <g>
      <circle class="cls-3" cx="219.63" cy="340.1" r="4.96"/>
      <path class="cls-10" d="M220.59,340.34c-.02-.38-.04-.83-.04-1.16h-.01c-.09.32-.2.65-.34,1.02l-.48,1.31h-.26l-.44-1.28c-.13-.38-.24-.73-.31-1.05h0c0,.34-.03.79-.05,1.19l-.07,1.16h-.33l.19-2.69h.44l.46,1.3c.11.33.2.63.27.91h.01c.07-.27.16-.57.28-.91l.48-1.3h.44l.17,2.69h-.34l-.07-1.18Z"/>
    </g>
    <g>
      <circle class="cls-3" cx="218.99" cy="265.18" r="4.96"/>
      <path class="cls-10" d="M219.16,263.34h.5v2.6c0,1.03-.51,1.35-1.18,1.35-.18,0-.41-.04-.54-.09l.07-.41c.1.04.25.08.42.08.45,0,.71-.2.71-.96v-2.56Z"/>
    </g>
    <g>
      <circle class="cls-3" cx="138.94" cy="340.1" r="4.96"/>
      <path class="cls-10" d="M137.68,341.88v-3.37h.47l1.08,1.71c.25.4.45.75.61,1.1h0c-.04-.46-.05-.87-.05-1.39v-1.41h.41v3.37h-.44l-1.07-1.71c-.24-.38-.46-.76-.63-1.13h-.01c.03.43.04.84.04,1.4v1.44h-.41Z"/>
    </g>
    <rect class="cls-9" x="127.33" y="286.43" width="79.4" height="73.64"/>
    <rect class="cls-7" x="126.37" y="285.47" width="80.68" height="74.92"/>
    <g>
      <circle class="cls-3" cx="206.82" cy="360.59" r="4.96"/>
      <path class="cls-10" d="M205.8,358.55h.56v3.85h1.85v.47h-2.4v-4.32Z"/>
    </g>
    <g>
      <circle class="cls-3" cx="206.18" cy="285.67" r="4.96"/>
      <path class="cls-10" d="M205.06,283.83h.5v1.88h.02c.1-.15.21-.29.31-.42l1.19-1.46h.62l-1.41,1.65,1.52,2.24h-.59l-1.28-1.91-.37.43v1.48h-.5v-3.89Z"/>
    </g>
    <rect class="cls-9" x="47.73" y="286.58" width="79.4" height="73.64"/>
    <polyline class="cls-9" points="46.45 286.58 46.45 286.58 47.41 360.54 33.03 381.44 33.96 306.11 47.73 286.58"/>
    <line class="cls-7" x1="127.45" y1="286.9" x2="47.41" y2="286.9"/>
    <line class="cls-7" x1="112.72" y1="306.11" x2="127.45" y2="286.9"/>
    <line class="cls-7" x1="115.28" y1="382.95" x2="128.09" y2="361.18"/>
    <line class="cls-7" x1="127.45" y1="286.9" x2="127.45" y2="361.18"/>
    <line class="cls-8" x1="47.41" y1="286.9" x2="47.41" y2="360.54"/>
    <line class="cls-7" x1="33.81" y1="305.75" x2="48.53" y2="286.54"/>
    <line class="cls-8" x1="127.45" y1="360.54" x2="46.13" y2="360.54"/>
    <polyline class="cls-8" points="47.41 360.54 34.6 380.39 47.41 360.54"/>
    <polygon class="cls-9" points="47.41 286.9 34.66 305.83 113.77 306.31 127.62 286.23 47.41 286.9"/>
    <polyline class="cls-9" points="33.72 381.23 47.41 360.54 127.45 361.18 114.64 381.03"/>
    <polygon class="cls-9" points="113.77 306.31 126.95 287.49 126.27 362.79 113.37 381.37 113.77 306.31"/>
    <g>
      <circle class="cls-3" cx="47.25" cy="286.1" r="4.96"/>
      <path class="cls-10" d="M48.39,286.34h-1.68v1.56h1.87v.47h-2.43v-4.32h2.33v.47h-1.78v1.37h1.68v.46Z"/>
    </g>
    <g>
      <circle class="cls-3" cx="127.21" cy="360.74" r="4.96"/>
      <path class="cls-10" d="M126.28,358.9v1.63h1.88v-1.63h.51v3.89h-.51v-1.82h-1.88v1.82h-.5v-3.89h.5Z"/>
    </g>
    <g>
      <circle class="cls-3" cx="46.53" cy="360.74" r="4.96"/>
      <path class="cls-10" d="M45.46,358.69h2.33v.47h-1.77v1.44h1.63v.46h-1.63v1.96h-.56v-4.32Z"/>
    </g>
    <g>
      <circle class="cls-3" cx="126.57" cy="285.82" r="4.96"/>
      <path class="cls-10" d="M128.11,287.69c-.23.08-.67.21-1.19.21-.59,0-1.07-.15-1.45-.51-.33-.32-.54-.84-.54-1.45,0-1.16.8-2.01,2.1-2.01.45,0,.8.1.97.18l-.12.41c-.21-.09-.47-.17-.86-.17-.95,0-1.56.59-1.56,1.56s.59,1.57,1.5,1.57c.33,0,.55-.05.67-.1v-1.16h-.79v-.4h1.28v1.87Z"/>
    </g>
    <rect class="cls-9" x="34.92" y="307.07" width="79.4" height="73.64"/>
    <rect class="cls-7" x="33.96" y="306.11" width="80.68" height="74.92"/>
    <g>
      <circle class="cls-3" cx="34.44" cy="306.59" r="4.96"/>
      <path class="cls-10" d="M33.66,307.5l-.45,1.36h-.58l1.47-4.32h.67l1.47,4.32h-.6l-.46-1.36h-1.53ZM35.08,307.06l-.42-1.24c-.1-.28-.16-.54-.22-.79h-.01c-.06.26-.13.52-.22.78l-.42,1.25h1.3Z"/>
    </g>
    <g>
      <circle class="cls-3" cx="114.41" cy="381.23" r="4.96"/>
      <path class="cls-10" d="M116.06,383.36c-.21.1-.62.21-1.14.21-1.22,0-2.13-.77-2.13-2.19s.92-2.27,2.26-2.27c.54,0,.88.12,1.03.19l-.13.45c-.21-.1-.51-.18-.87-.18-1.01,0-1.69.65-1.69,1.78,0,1.06.61,1.74,1.66,1.74.34,0,.69-.07.91-.18l.12.44Z"/>
    </g>
    <g>
      <circle class="cls-3" cx="33.72" cy="381.23" r="4.96"/>
      <path class="cls-10" d="M32.48,379.24c.24-.05.63-.09,1.02-.09.56,0,.92.1,1.19.31.22.17.36.42.36.76,0,.42-.28.78-.73.95h0c.41.12.89.46.89,1.1,0,.37-.15.65-.37.87-.3.28-.79.4-1.49.4-.38,0-.68-.03-.87-.05v-4.25ZM33.03,381.01h.51c.59,0,.94-.31.94-.72,0-.51-.38-.71-.95-.71-.26,0-.4.02-.49.04v1.39ZM33.03,383.08c.11.02.27.03.47.03.58,0,1.11-.21,1.11-.84,0-.59-.51-.83-1.12-.83h-.46v1.65Z"/>
    </g>
    <g>
      <circle class="cls-3" cx="113.77" cy="306.31" r="4.96"/>
      <path class="cls-10" d="M112.29,304.52c.31-.05.67-.08,1.07-.08.72,0,1.23.17,1.57.48.35.32.55.77.55,1.4s-.2,1.15-.56,1.51c-.36.36-.96.56-1.72.56-.36,0-.66-.02-.91-.05v-3.82ZM112.79,307.96c.13.02.31.03.51.03,1.07,0,1.66-.6,1.66-1.65,0-.92-.51-1.5-1.58-1.5-.26,0-.46.02-.59.05v3.07Z"/>
    </g>
  </g>
  <g>
    <g>
      <line class="cls-5" x1="204.59" y1="235.07" x2="312.25" y2="235.07"/>
      <polygon class="cls-11" points="308.11 249.2 332.59 235.07 308.11 220.93 308.11 249.2"/>
    </g>
    <g>
      <rect class="cls-6" x="208.63" y="226.13" width="94.96" height="17.93"/>
      <path class="cls-3" d="M215.61,226.54c.48-.07,1.04-.13,1.67-.13,1.12,0,1.93.26,2.46.76.54.49.86,1.2.86,2.18s-.31,1.8-.87,2.36c-.57.57-1.5.87-2.68.87-.56,0-1.03-.03-1.42-.07v-5.97ZM216.39,231.9c.2.04.49.04.79.04,1.67,0,2.58-.94,2.58-2.57,0-1.43-.8-2.34-2.46-2.34-.41,0-.71.04-.92.08v4.79Z"/>
      <path class="cls-3" d="M225.55,230.31c0,1.61-1.12,2.31-2.17,2.31-1.18,0-2.09-.86-2.09-2.24,0-1.46.95-2.31,2.16-2.31s2.1.91,2.1,2.24ZM222.09,230.35c0,.95.55,1.67,1.32,1.67s1.32-.71,1.32-1.69c0-.74-.37-1.67-1.31-1.67s-1.34.86-1.34,1.69Z"/>
      <path class="cls-3" d="M226.99,230.49c.02,1.07.7,1.51,1.49,1.51.57,0,.91-.1,1.21-.22l.14.57c-.28.13-.76.27-1.45.27-1.34,0-2.14-.88-2.14-2.2s.77-2.35,2.04-2.35c1.42,0,1.8,1.25,1.8,2.05,0,.16-.02.29-.03.37h-3.06ZM229.31,229.92c0-.5-.21-1.29-1.1-1.29-.8,0-1.15.74-1.21,1.29h2.31Z"/>
      <path class="cls-3" d="M230.95,231.71c.23.15.65.32,1.04.32.58,0,.85-.29.85-.65,0-.38-.22-.59-.81-.8-.78-.28-1.15-.71-1.15-1.23,0-.7.57-1.28,1.5-1.28.44,0,.83.13,1.07.27l-.2.58c-.17-.11-.49-.25-.89-.25-.47,0-.73.27-.73.59,0,.36.26.52.83.74.76.29,1.14.67,1.14,1.31,0,.77-.59,1.3-1.63,1.3-.48,0-.92-.12-1.22-.3l.2-.6Z"/>
      <path class="cls-3" d="M237.41,226.94c0,.27-.19.49-.5.49-.28,0-.48-.21-.48-.49s.21-.5.5-.5.49.22.49.5ZM236.53,232.52v-4.36h.79v4.36h-.79Z"/>
      <path class="cls-3" d="M239.59,226.91v1.25h1.13v.6h-1.13v2.35c0,.54.15.85.59.85.21,0,.36-.03.46-.05l.04.59c-.15.06-.4.11-.7.11-.37,0-.67-.12-.86-.33-.23-.23-.31-.62-.31-1.13v-2.38h-.67v-.6h.67v-1.04l.77-.21Z"/>
      <path class="cls-3" d="M243.52,226.13h.79v2.72h.02c.13-.22.32-.42.57-.56.23-.13.51-.23.81-.23.58,0,1.52.36,1.52,1.86v2.59h-.79v-2.5c0-.7-.26-1.3-1.01-1.3-.51,0-.92.36-1.06.79-.05.11-.05.22-.05.38v2.63h-.79v-6.39Z"/>
      <path class="cls-3" d="M250.93,232.52l-.06-.55h-.03c-.24.34-.71.65-1.33.65-.88,0-1.33-.62-1.33-1.25,0-1.05.94-1.63,2.62-1.62v-.09c0-.36-.1-1.01-.99-1.01-.41,0-.83.13-1.13.32l-.18-.52c.36-.23.88-.39,1.43-.39,1.33,0,1.66.91,1.66,1.78v1.63c0,.38.02.75.07,1.04h-.72ZM250.81,230.3c-.86-.02-1.85.13-1.85.98,0,.51.34.76.75.76.57,0,.93-.36,1.05-.73.03-.08.04-.17.04-.25v-.76Z"/>
      <path class="cls-3" d="M253.09,228.16l.86,2.45c.14.4.26.76.35,1.12h.03c.1-.36.23-.72.37-1.12l.85-2.45h.83l-1.71,4.36h-.76l-1.66-4.36h.85Z"/>
      <path class="cls-3" d="M257.46,230.49c.02,1.07.7,1.51,1.49,1.51.57,0,.91-.1,1.21-.22l.14.57c-.28.13-.76.27-1.45.27-1.34,0-2.14-.88-2.14-2.2s.77-2.35,2.04-2.35c1.42,0,1.8,1.25,1.8,2.05,0,.16-.02.29-.03.37h-3.06ZM259.79,229.92c0-.5-.21-1.29-1.1-1.29-.8,0-1.15.74-1.21,1.29h2.31Z"/>
      <path class="cls-3" d="M265.85,232.52l-.06-.55h-.03c-.24.34-.71.65-1.33.65-.88,0-1.33-.62-1.33-1.25,0-1.05.94-1.63,2.62-1.62v-.09c0-.36-.1-1.01-.99-1.01-.41,0-.83.13-1.13.32l-.18-.52c.36-.23.88-.39,1.43-.39,1.33,0,1.66.91,1.66,1.78v1.63c0,.38.02.75.07,1.04h-.72ZM265.74,230.3c-.86-.02-1.85.13-1.85.98,0,.51.34.76.75.76.57,0,.93-.36,1.05-.73.03-.08.04-.17.04-.25v-.76Z"/>
      <path class="cls-3" d="M269.99,228.16l.86,2.45c.14.4.26.76.35,1.12h.03c.1-.36.23-.72.37-1.12l.85-2.45h.83l-1.71,4.36h-.76l-1.66-4.36h.85Z"/>
      <path class="cls-3" d="M277.87,230.31c0,1.61-1.12,2.31-2.17,2.31-1.18,0-2.09-.86-2.09-2.24,0-1.46.95-2.31,2.16-2.31s2.1.91,2.1,2.24ZM274.41,230.35c0,.95.55,1.67,1.32,1.67s1.32-.71,1.32-1.69c0-.74-.37-1.67-1.31-1.67s-1.34.86-1.34,1.69Z"/>
      <path class="cls-3" d="M278.87,226.13h.79v6.39h-.79v-6.39Z"/>
      <path class="cls-3" d="M284.64,231.33c0,.45,0,.85.04,1.19h-.7l-.04-.71h-.02c-.21.35-.67.81-1.44.81-.68,0-1.5-.38-1.5-1.91v-2.55h.79v2.41c0,.83.25,1.39.97,1.39.53,0,.9-.37,1.04-.72.04-.12.07-.26.07-.41v-2.67h.79v3.17Z"/>
      <path class="cls-3" d="M285.95,229.34c0-.45,0-.82-.04-1.18h.69l.04.7h.03c.24-.41.65-.8,1.37-.8.59,0,1.04.36,1.23.87h.02c.13-.24.31-.43.49-.57.26-.2.55-.31.96-.31.58,0,1.43.38,1.43,1.89v2.57h-.77v-2.47c0-.84-.31-1.34-.95-1.34-.45,0-.8.33-.94.72-.04.11-.06.25-.06.4v2.69h-.77v-2.61c0-.69-.31-1.2-.91-1.2-.5,0-.86.4-.98.79-.04.12-.06.25-.06.39v2.63h-.77v-3.18Z"/>
      <path class="cls-3" d="M293.9,230.49c.02,1.07.7,1.51,1.49,1.51.57,0,.91-.1,1.21-.22l.14.57c-.28.13-.76.27-1.45.27-1.34,0-2.14-.88-2.14-2.2s.77-2.35,2.04-2.35c1.42,0,1.8,1.25,1.8,2.05,0,.16-.02.29-.03.37h-3.06ZM296.22,229.92c0-.5-.21-1.29-1.1-1.29-.8,0-1.15.74-1.21,1.29h2.31Z"/>
    </g>
  </g>
  <g>
    <g>
      <line class="cls-5" x1="386.59" y1="177.07" x2="494.25" y2="177.07"/>
      <polygon class="cls-11" points="490.11 191.2 514.59 177.07 490.11 162.93 490.11 191.2"/>
    </g>
    <g>
      <rect class="cls-6" x="391.63" y="167.13" width="94.96" height="17.93"/>
      <path class="cls-3" d="M406.89,170.86c-.04-.85-.1-1.86-.09-2.62h-.03c-.21.71-.46,1.47-.77,2.3l-1.07,2.94h-.59l-.98-2.89c-.29-.86-.53-1.64-.7-2.36h-.02c-.02.76-.06,1.77-.12,2.68l-.16,2.6h-.75l.42-6.07h1l1.04,2.93c.25.75.46,1.41.61,2.04h.03c.15-.61.37-1.28.64-2.04l1.08-2.93h1l.38,6.07h-.76l-.15-2.66Z"/>
      <path class="cls-3" d="M411.45,173.52l-.06-.55h-.03c-.24.34-.71.65-1.33.65-.88,0-1.33-.62-1.33-1.25,0-1.05.94-1.63,2.62-1.62v-.09c0-.36-.1-1.01-.99-1.01-.41,0-.83.13-1.13.32l-.18-.52c.36-.23.88-.39,1.43-.39,1.33,0,1.66.91,1.66,1.78v1.63c0,.38.02.75.07,1.04h-.72ZM411.33,171.3c-.86-.02-1.85.13-1.85.98,0,.51.34.76.75.76.57,0,.93-.36,1.05-.73.03-.08.04-.17.04-.25v-.76Z"/>
      <path class="cls-3" d="M414.16,171.16h.02c.11-.15.26-.34.39-.5l1.28-1.5h.95l-1.68,1.79,1.92,2.57h-.96l-1.5-2.09-.41.45v1.64h-.78v-6.39h.78v4.03Z"/>
      <path class="cls-3" d="M418.03,171.49c.02,1.07.7,1.51,1.49,1.51.57,0,.91-.1,1.21-.22l.14.57c-.28.13-.76.27-1.45.27-1.34,0-2.14-.88-2.14-2.2s.77-2.35,2.04-2.35c1.42,0,1.8,1.25,1.8,2.05,0,.16-.02.29-.03.37h-3.06ZM420.36,170.92c0-.5-.21-1.29-1.1-1.29-.8,0-1.15.74-1.21,1.29h2.31Z"/>
      <path class="cls-3" d="M424.01,170.34c0-.45,0-.82-.04-1.18h.7l.04.72h.02c.22-.41.72-.82,1.44-.82.6,0,1.54.36,1.54,1.85v2.6h-.79v-2.51c0-.7-.26-1.29-1.01-1.29-.52,0-.93.37-1.06.81-.04.1-.05.23-.05.37v2.62h-.79v-3.18Z"/>
      <path class="cls-3" d="M432.95,171.31c0,1.61-1.12,2.31-2.17,2.31-1.18,0-2.09-.86-2.09-2.24,0-1.46.96-2.31,2.16-2.31s2.1.91,2.1,2.24ZM429.49,171.35c0,.95.55,1.67,1.32,1.67s1.32-.71,1.32-1.69c0-.74-.37-1.67-1.31-1.67s-1.34.86-1.34,1.69Z"/>
      <path class="cls-3" d="M433.95,170.34c0-.45,0-.82-.04-1.18h.7l.04.72h.02c.22-.41.72-.82,1.44-.82.6,0,1.54.36,1.54,1.85v2.6h-.79v-2.51c0-.7-.26-1.29-1.01-1.29-.52,0-.93.37-1.06.81-.04.1-.05.23-.05.37v2.62h-.79v-3.18Z"/>
      <path class="cls-3" d="M445.99,170.86c-.04-.85-.1-1.86-.09-2.62h-.03c-.21.71-.46,1.47-.77,2.3l-1.07,2.94h-.59l-.98-2.89c-.29-.86-.53-1.64-.7-2.36h-.02c-.02.76-.06,1.77-.12,2.68l-.16,2.6h-.75l.42-6.07h1l1.04,2.93c.25.75.46,1.41.61,2.04h.03c.15-.61.37-1.28.64-2.04l1.08-2.93h1l.38,6.07h-.76l-.15-2.66Z"/>
      <path class="cls-3" d="M450.55,173.52l-.06-.55h-.03c-.24.34-.71.65-1.33.65-.88,0-1.33-.62-1.33-1.25,0-1.05.94-1.63,2.62-1.62v-.09c0-.36-.1-1.01-.99-1.01-.41,0-.83.13-1.13.32l-.18-.52c.36-.23.88-.39,1.43-.39,1.33,0,1.66.91,1.66,1.78v1.63c0,.38.02.75.07,1.04h-.72ZM450.44,171.3c-.86-.02-1.85.13-1.85.98,0,.51.34.76.75.76.57,0,.93-.36,1.05-.73.03-.08.04-.17.04-.25v-.76Z"/>
      <path class="cls-3" d="M452.48,170.34c0-.45,0-.82-.04-1.18h.7l.04.72h.02c.22-.41.72-.82,1.44-.82.6,0,1.54.36,1.54,1.85v2.6h-.79v-2.51c0-.7-.26-1.29-1.01-1.29-.52,0-.93.37-1.06.81-.04.1-.05.23-.05.37v2.62h-.79v-3.18Z"/>
      <path class="cls-3" d="M458.36,167.94c0,.27-.19.49-.5.49-.28,0-.48-.21-.48-.49s.21-.5.5-.5.49.22.49.5ZM457.47,173.52v-4.36h.79v4.36h-.79Z"/>
      <path class="cls-3" d="M459.66,173.52v-3.75h-.61v-.6h.61v-.21c0-.61.13-1.17.5-1.52.3-.29.69-.4,1.06-.4.28,0,.52.06.67.13l-.11.61c-.12-.05-.28-.1-.5-.1-.68,0-.85.59-.85,1.26v.23h1.05v.6h-1.05v3.75h-.78Z"/>
      <path class="cls-3" d="M466.03,171.31c0,1.61-1.12,2.31-2.17,2.31-1.18,0-2.09-.86-2.09-2.24,0-1.46.95-2.31,2.16-2.31s2.1.91,2.1,2.24ZM462.58,171.35c0,.95.55,1.67,1.32,1.67s1.32-.71,1.32-1.69c0-.74-.37-1.67-1.31-1.67s-1.34.86-1.34,1.69Z"/>
      <path class="cls-3" d="M467.03,167.13h.79v6.39h-.79v-6.39Z"/>
      <path class="cls-3" d="M472.92,167.13v5.27c0,.39,0,.83.04,1.12h-.71l-.04-.76h-.02c-.24.49-.77.86-1.49.86-1.05,0-1.86-.89-1.86-2.21,0-1.45.89-2.34,1.95-2.34.67,0,1.12.32,1.31.67h.02v-2.6h.79ZM472.13,170.94c0-.1,0-.23-.04-.33-.12-.5-.55-.92-1.14-.92-.82,0-1.31.72-1.31,1.68,0,.88.43,1.61,1.29,1.61.53,0,1.02-.35,1.16-.95.03-.11.04-.22.04-.34v-.76Z"/>
      <path class="cls-3" d="M474.12,172.71c.23.15.65.32,1.04.32.58,0,.85-.29.85-.65,0-.38-.22-.59-.81-.8-.78-.28-1.15-.71-1.15-1.23,0-.7.57-1.28,1.5-1.28.44,0,.83.13,1.07.27l-.2.58c-.17-.11-.49-.25-.89-.25-.47,0-.73.27-.73.59,0,.36.26.52.83.74.76.29,1.14.67,1.14,1.31,0,.77-.59,1.3-1.63,1.3-.48,0-.92-.12-1.22-.3l.2-.6Z"/>
      <path class="cls-3" d="M398.28,183.51c.23.15.65.31,1.04.31.58,0,.85-.29.85-.65s-.22-.58-.81-.8c-.78-.28-1.15-.71-1.15-1.23,0-.7.57-1.28,1.5-1.28.44,0,.83.13,1.07.27l-.2.58c-.17-.11-.49-.25-.89-.25-.47,0-.73.27-.73.59,0,.36.26.52.83.74.76.29,1.14.67,1.14,1.31,0,.76-.59,1.31-1.63,1.31-.48,0-.92-.12-1.22-.3l.2-.6Z"/>
      <path class="cls-3" d="M402.39,182.29c.02,1.07.7,1.51,1.49,1.51.57,0,.91-.1,1.21-.23l.14.57c-.28.13-.76.27-1.45.27-1.34,0-2.14-.88-2.14-2.2s.77-2.35,2.04-2.35c1.42,0,1.8,1.25,1.8,2.05,0,.16-.02.29-.03.37h-3.06ZM404.71,181.72c0-.5-.21-1.29-1.1-1.29-.8,0-1.15.74-1.21,1.29h2.31Z"/>
      <path class="cls-3" d="M406.46,181.39c0-.56-.02-1.01-.04-1.42h.71l.04.75h.02c.32-.53.84-.85,1.55-.85,1.05,0,1.85.89,1.85,2.21,0,1.57-.95,2.34-1.98,2.34-.58,0-1.08-.25-1.34-.68h-.02v2.37h-.78v-4.72ZM407.24,182.55c0,.12.02.22.04.32.14.55.62.93,1.19.93.84,0,1.32-.68,1.32-1.68,0-.87-.46-1.62-1.3-1.62-.54,0-1.04.39-1.2.98-.03.1-.05.22-.05.32v.75Z"/>
      <path class="cls-3" d="M412.02,182.29c.02,1.07.7,1.51,1.49,1.51.57,0,.91-.1,1.21-.23l.14.57c-.28.13-.76.27-1.45.27-1.34,0-2.14-.88-2.14-2.2s.77-2.35,2.04-2.35c1.42,0,1.8,1.25,1.8,2.05,0,.16-.02.29-.03.37h-3.06ZM414.34,181.72c0-.5-.21-1.29-1.1-1.29-.8,0-1.15.74-1.21,1.29h2.31Z"/>
      <path class="cls-3" d="M416.09,181.32c0-.51,0-.96-.04-1.36h.69l.03.86h.04c.2-.59.68-.96,1.21-.96.09,0,.15,0,.22.03v.75c-.08-.02-.16-.03-.27-.03-.56,0-.96.42-1.06,1.02-.02.11-.04.23-.04.37v2.32h-.78v-3Z"/>
      <path class="cls-3" d="M421.4,184.32l-.06-.55h-.03c-.24.34-.71.65-1.33.65-.88,0-1.33-.62-1.33-1.25,0-1.05.94-1.63,2.62-1.62v-.09c0-.36-.1-1.01-.99-1.01-.41,0-.83.12-1.13.32l-.18-.52c.36-.23.88-.39,1.43-.39,1.33,0,1.66.91,1.66,1.78v1.63c0,.38.02.75.07,1.04h-.72ZM421.28,182.1c-.86-.02-1.85.14-1.85.98,0,.51.34.76.75.76.57,0,.93-.36,1.05-.73.03-.08.04-.17.04-.25v-.76Z"/>
      <path class="cls-3" d="M424.24,178.71v1.25h1.13v.6h-1.13v2.35c0,.54.15.85.59.85.21,0,.36-.03.46-.05l.04.59c-.15.06-.4.11-.7.11-.37,0-.67-.12-.86-.33-.23-.23-.31-.62-.31-1.13v-2.38h-.67v-.6h.67v-1.04l.77-.21Z"/>
      <path class="cls-3" d="M426.65,182.29c.02,1.07.7,1.51,1.49,1.51.57,0,.91-.1,1.21-.23l.14.57c-.28.13-.76.27-1.45.27-1.34,0-2.14-.88-2.14-2.2s.77-2.35,2.04-2.35c1.42,0,1.8,1.25,1.8,2.05,0,.16-.02.29-.03.37h-3.06ZM428.97,181.72c0-.5-.21-1.29-1.1-1.29-.8,0-1.15.74-1.21,1.29h2.31Z"/>
      <path class="cls-3" d="M437.77,181.66c-.04-.85-.1-1.86-.09-2.62h-.03c-.21.71-.46,1.47-.77,2.3l-1.07,2.94h-.59l-.98-2.89c-.29-.86-.53-1.64-.7-2.36h-.02c-.02.76-.06,1.77-.12,2.68l-.16,2.6h-.75l.42-6.07h1l1.04,2.94c.25.75.46,1.41.61,2.04h.03c.15-.61.37-1.28.64-2.04l1.08-2.94h1l.38,6.07h-.76l-.15-2.67Z"/>
      <path class="cls-3" d="M443.54,183.13c0,.45,0,.85.04,1.19h-.7l-.04-.71h-.02c-.21.35-.67.81-1.44.81-.68,0-1.5-.38-1.5-1.91v-2.55h.79v2.41c0,.83.25,1.39.97,1.39.53,0,.9-.37,1.04-.72.04-.12.07-.26.07-.4v-2.67h.79v3.17Z"/>
      <path class="cls-3" d="M444.85,177.93h.79v6.39h-.79v-6.39Z"/>
      <path class="cls-3" d="M447.93,178.71v1.25h1.13v.6h-1.13v2.35c0,.54.15.85.59.85.21,0,.36-.03.46-.05l.04.59c-.15.06-.4.11-.7.11-.37,0-.67-.12-.86-.33-.23-.23-.31-.62-.31-1.13v-2.38h-.67v-.6h.67v-1.04l.77-.21Z"/>
      <path class="cls-3" d="M450.83,178.74c0,.27-.19.49-.5.49-.28,0-.48-.22-.48-.49s.21-.5.5-.5.49.22.49.5ZM449.95,184.32v-4.36h.79v4.36h-.79Z"/>
      <path class="cls-3" d="M453.86,183.51c.23.15.65.31,1.04.31.58,0,.85-.29.85-.65s-.22-.58-.81-.8c-.78-.28-1.15-.71-1.15-1.23,0-.7.57-1.28,1.5-1.28.44,0,.83.13,1.07.27l-.2.58c-.17-.11-.49-.25-.89-.25-.47,0-.73.27-.73.59,0,.36.26.52.83.74.76.29,1.14.67,1.14,1.31,0,.76-.59,1.31-1.63,1.31-.48,0-.92-.12-1.22-.3l.2-.6Z"/>
      <path class="cls-3" d="M461.18,183.13c0,.45,0,.85.04,1.19h-.7l-.04-.71h-.02c-.21.35-.67.81-1.44.81-.68,0-1.5-.38-1.5-1.91v-2.55h.79v2.41c0,.83.25,1.39.97,1.39.53,0,.9-.37,1.04-.72.04-.12.07-.26.07-.4v-2.67h.79v3.17Z"/>
      <path class="cls-3" d="M462.49,181.32c0-.51,0-.96-.04-1.36h.69l.03.86h.04c.2-.59.68-.96,1.21-.96.09,0,.15,0,.22.03v.75c-.08-.02-.16-.03-.27-.03-.56,0-.95.42-1.06,1.02-.02.11-.04.23-.04.37v2.32h-.78v-3Z"/>
      <path class="cls-3" d="M465.78,184.32v-3.75h-.61v-.6h.61v-.21c0-.61.13-1.17.5-1.52.3-.29.69-.41,1.06-.41.28,0,.52.06.67.13l-.11.61c-.12-.05-.28-.1-.5-.1-.68,0-.85.59-.85,1.26v.23h1.05v.6h-1.05v3.75h-.78Z"/>
      <path class="cls-3" d="M470.74,184.32l-.06-.55h-.03c-.24.34-.71.65-1.33.65-.88,0-1.33-.62-1.33-1.25,0-1.05.94-1.63,2.62-1.62v-.09c0-.36-.1-1.01-.99-1.01-.41,0-.83.12-1.13.32l-.18-.52c.36-.23.88-.39,1.43-.39,1.33,0,1.66.91,1.66,1.78v1.63c0,.38.02.75.07,1.04h-.72ZM470.63,182.1c-.86-.02-1.85.14-1.85.98,0,.51.34.76.75.76.57,0,.93-.36,1.05-.73.03-.08.04-.17.04-.25v-.76Z"/>
      <path class="cls-3" d="M475.77,184.16c-.21.11-.67.25-1.25.25-1.31,0-2.17-.89-2.17-2.22s.92-2.31,2.34-2.31c.47,0,.88.12,1.1.22l-.18.61c-.19-.11-.49-.21-.92-.21-1,0-1.54.74-1.54,1.65,0,1.01.65,1.63,1.51,1.63.45,0,.75-.12.97-.22l.13.59Z"/>
      <path class="cls-3" d="M477.09,182.29c.02,1.07.7,1.51,1.49,1.51.57,0,.91-.1,1.21-.23l.14.57c-.28.13-.76.27-1.45.27-1.34,0-2.14-.88-2.14-2.2s.77-2.35,2.04-2.35c1.42,0,1.8,1.25,1.8,2.05,0,.16-.02.29-.03.37h-3.06ZM479.41,181.72c0-.5-.21-1.29-1.1-1.29-.8,0-1.15.74-1.21,1.29h2.31Z"/>
    </g>
  </g>
  <g>
    <g>
      <line class="cls-5" x1="386.59" y1="79.07" x2="494.25" y2="79.07"/>
      <polygon class="cls-11" points="490.11 93.2 514.59 79.07 490.11 64.93 490.11 93.2"/>
    </g>
    <g>
      <rect class="cls-6" x="390.63" y="70.13" width="94.96" height="17.93"/>
      <path class="cls-3" d="M400.32,70.54c.48-.07,1.04-.13,1.67-.13,1.12,0,1.93.26,2.46.76.54.49.86,1.2.86,2.18s-.31,1.8-.87,2.36c-.57.57-1.5.87-2.68.87-.56,0-1.03-.03-1.42-.07v-5.97ZM401.11,75.9c.2.04.49.04.79.04,1.67,0,2.58-.94,2.58-2.57,0-1.43-.8-2.34-2.46-2.34-.41,0-.71.04-.92.08v4.79Z"/>
      <path class="cls-3" d="M406.77,74.49c.02,1.07.7,1.51,1.49,1.51.57,0,.91-.1,1.21-.22l.14.57c-.28.13-.76.27-1.45.27-1.34,0-2.14-.88-2.14-2.2s.77-2.35,2.04-2.35c1.42,0,1.8,1.25,1.8,2.05,0,.16-.02.29-.03.37h-3.06ZM409.09,73.92c0-.5-.21-1.29-1.1-1.29-.8,0-1.15.74-1.21,1.29h2.31Z"/>
      <path class="cls-3" d="M410.83,70.13h.79v6.39h-.79v-6.39Z"/>
      <path class="cls-3" d="M413.4,74.49c.02,1.07.7,1.51,1.49,1.51.57,0,.91-.1,1.21-.22l.14.57c-.28.13-.76.27-1.45.27-1.34,0-2.14-.88-2.14-2.2s.77-2.35,2.04-2.35c1.42,0,1.8,1.25,1.8,2.05,0,.16-.02.29-.03.37h-3.06ZM415.72,73.92c0-.5-.21-1.29-1.1-1.29-.8,0-1.15.74-1.21,1.29h2.31Z"/>
      <path class="cls-3" d="M418.42,70.91v1.25h1.13v.6h-1.13v2.35c0,.54.15.85.59.85.21,0,.36-.03.46-.05l.04.59c-.15.06-.4.11-.7.11-.37,0-.67-.12-.86-.33-.23-.23-.31-.62-.31-1.13v-2.38h-.67v-.6h.67v-1.04l.77-.21Z"/>
      <path class="cls-3" d="M420.83,74.49c.02,1.07.7,1.51,1.49,1.51.57,0,.91-.1,1.21-.22l.14.57c-.28.13-.76.27-1.45.27-1.34,0-2.14-.88-2.14-2.2s.77-2.35,2.04-2.35c1.42,0,1.8,1.25,1.8,2.05,0,.16-.02.29-.03.37h-3.06ZM423.16,73.92c0-.5-.21-1.29-1.1-1.29-.8,0-1.15.74-1.21,1.29h2.31Z"/>
      <path class="cls-3" d="M426.81,73.34c0-.45,0-.82-.04-1.18h.7l.04.72h.02c.22-.41.72-.82,1.44-.82.6,0,1.54.36,1.54,1.85v2.6h-.79v-2.51c0-.7-.26-1.29-1.01-1.29-.52,0-.93.37-1.06.81-.04.1-.05.23-.05.37v2.62h-.79v-3.18Z"/>
      <path class="cls-3" d="M435.75,74.31c0,1.61-1.12,2.31-2.17,2.31-1.18,0-2.09-.86-2.09-2.24,0-1.46.96-2.31,2.16-2.31s2.1.91,2.1,2.24ZM432.29,74.35c0,.95.55,1.67,1.32,1.67s1.32-.71,1.32-1.69c0-.74-.37-1.67-1.31-1.67s-1.34.86-1.34,1.69Z"/>
      <path class="cls-3" d="M436.75,73.34c0-.45,0-.82-.04-1.18h.7l.04.72h.02c.22-.41.72-.82,1.44-.82.6,0,1.54.36,1.54,1.85v2.6h-.79v-2.51c0-.7-.26-1.29-1.01-1.29-.52,0-.93.37-1.06.81-.04.1-.05.23-.05.37v2.62h-.79v-3.18Z"/>
      <path class="cls-3" d="M443.65,73.34c0-.45,0-.82-.04-1.18h.69l.04.7h.03c.24-.41.65-.8,1.37-.8.59,0,1.04.36,1.23.87h.02c.13-.24.31-.43.49-.57.26-.2.55-.31.96-.31.58,0,1.43.38,1.43,1.89v2.57h-.77v-2.47c0-.84-.31-1.34-.95-1.34-.45,0-.8.33-.94.72-.04.11-.06.25-.06.4v2.69h-.77v-2.61c0-.69-.31-1.2-.91-1.2-.5,0-.86.4-.98.79-.04.12-.06.25-.06.39v2.63h-.77v-3.18Z"/>
      <path class="cls-3" d="M453.57,76.52l-.06-.55h-.03c-.24.34-.71.65-1.33.65-.88,0-1.33-.62-1.33-1.25,0-1.05.94-1.63,2.62-1.62v-.09c0-.36-.1-1.01-.99-1.01-.41,0-.83.13-1.13.32l-.18-.52c.36-.23.88-.39,1.43-.39,1.33,0,1.66.91,1.66,1.78v1.63c0,.38.02.75.07,1.04h-.72ZM453.45,74.3c-.86-.02-1.85.13-1.85.98,0,.51.34.76.75.76.57,0,.93-.36,1.05-.73.03-.08.04-.17.04-.25v-.76Z"/>
      <path class="cls-3" d="M455.49,73.34c0-.45,0-.82-.04-1.18h.7l.04.72h.02c.22-.41.72-.82,1.44-.82.6,0,1.54.36,1.54,1.85v2.6h-.79v-2.51c0-.7-.26-1.29-1.01-1.29-.52,0-.93.37-1.06.81-.04.1-.05.23-.05.37v2.62h-.79v-3.18Z"/>
      <path class="cls-3" d="M461.37,70.94c0,.27-.19.49-.5.49-.28,0-.48-.21-.48-.49s.21-.5.5-.5.49.22.49.5ZM460.49,76.52v-4.36h.79v4.36h-.79Z"/>
      <path class="cls-3" d="M462.67,76.52v-3.75h-.61v-.6h.61v-.21c0-.61.13-1.17.5-1.52.3-.29.69-.4,1.06-.4.28,0,.52.06.67.13l-.11.61c-.12-.05-.28-.1-.5-.1-.68,0-.85.59-.85,1.26v.23h1.05v.6h-1.05v3.75h-.78Z"/>
      <path class="cls-3" d="M469.05,74.31c0,1.61-1.12,2.31-2.17,2.31-1.18,0-2.09-.86-2.09-2.24,0-1.46.95-2.31,2.16-2.31s2.1.91,2.1,2.24ZM465.59,74.35c0,.95.55,1.67,1.32,1.67s1.32-.71,1.32-1.69c0-.74-.37-1.67-1.31-1.67s-1.34.86-1.34,1.69Z"/>
      <path class="cls-3" d="M470.05,70.13h.79v6.39h-.79v-6.39Z"/>
      <path class="cls-3" d="M475.93,70.13v5.27c0,.39,0,.83.04,1.12h-.71l-.04-.76h-.02c-.24.49-.77.86-1.49.86-1.05,0-1.86-.89-1.86-2.21,0-1.45.89-2.34,1.95-2.34.67,0,1.12.32,1.31.67h.02v-2.6h.79ZM475.14,73.94c0-.1,0-.23-.04-.33-.12-.5-.55-.92-1.14-.92-.82,0-1.31.72-1.31,1.68,0,.88.43,1.61,1.29,1.61.53,0,1.02-.35,1.16-.95.03-.11.04-.22.04-.34v-.76Z"/>
      <path class="cls-3" d="M430.97,84.39c0-.56-.02-1.01-.04-1.42h.71l.04.75h.02c.32-.53.84-.85,1.55-.85,1.05,0,1.85.89,1.85,2.21,0,1.57-.95,2.34-1.98,2.34-.58,0-1.08-.25-1.34-.68h-.02v2.37h-.78v-4.72ZM431.75,85.55c0,.12.02.22.04.32.14.55.62.93,1.19.93.84,0,1.32-.68,1.32-1.68,0-.87-.46-1.62-1.3-1.62-.54,0-1.04.39-1.2.98-.03.1-.05.22-.05.32v.75Z"/>
      <path class="cls-3" d="M438.51,87.32l-.06-.55h-.03c-.24.34-.71.65-1.33.65-.88,0-1.33-.62-1.33-1.25,0-1.05.94-1.63,2.62-1.62v-.09c0-.36-.1-1.01-.99-1.01-.41,0-.83.12-1.13.32l-.18-.52c.36-.23.88-.39,1.43-.39,1.33,0,1.66.91,1.66,1.78v1.63c0,.38.02.75.07,1.04h-.72ZM438.39,85.1c-.86-.02-1.85.14-1.85.98,0,.51.34.76.75.76.57,0,.93-.36,1.05-.73.03-.08.04-.17.04-.25v-.76Z"/>
      <path class="cls-3" d="M440.43,84.32c0-.51,0-.96-.04-1.36h.69l.03.86h.04c.2-.59.68-.96,1.21-.96.09,0,.15,0,.22.03v.75c-.08-.02-.16-.03-.27-.03-.56,0-.95.42-1.06,1.02-.02.11-.04.23-.04.37v2.32h-.78v-3Z"/>
      <path class="cls-3" d="M444.54,81.71v1.25h1.13v.6h-1.13v2.35c0,.54.15.85.59.85.21,0,.36-.03.46-.05l.04.59c-.15.06-.4.11-.7.11-.37,0-.67-.12-.86-.33-.23-.23-.31-.62-.31-1.13v-2.38h-.67v-.6h.67v-1.04l.77-.21Z"/>
    </g>
  </g>
  <g>
    <g>
      <line class="cls-5" x1="386.59" y1="299.07" x2="494.25" y2="299.07"/>
      <polygon class="cls-11" points="490.11 313.2 514.59 299.07 490.11 284.93 490.11 313.2"/>
    </g>
    <g>
      <rect class="cls-6" x="390.63" y="290.13" width="94.96" height="17.93"/>
      <path class="cls-3" d="M401.53,293.86c-.04-.85-.1-1.86-.09-2.62h-.03c-.21.71-.46,1.47-.77,2.3l-1.07,2.94h-.59l-.98-2.89c-.29-.86-.53-1.64-.7-2.36h-.02c-.02.76-.06,1.77-.12,2.68l-.16,2.6h-.75l.42-6.07h1l1.04,2.93c.25.75.46,1.41.61,2.04h.03c.15-.61.37-1.28.64-2.04l1.08-2.93h1l.38,6.07h-.76l-.15-2.66Z"/>
      <path class="cls-3" d="M406.1,296.52l-.06-.55h-.03c-.24.34-.71.65-1.33.65-.88,0-1.33-.62-1.33-1.25,0-1.05.94-1.63,2.62-1.62v-.09c0-.36-.1-1.01-.99-1.01-.41,0-.83.13-1.13.32l-.18-.52c.36-.23.88-.39,1.43-.39,1.33,0,1.66.91,1.66,1.78v1.63c0,.38.02.75.07,1.04h-.72ZM405.98,294.3c-.86-.02-1.85.13-1.85.98,0,.51.34.76.75.76.57,0,.93-.36,1.05-.73.03-.08.04-.17.04-.25v-.76Z"/>
      <path class="cls-3" d="M408.81,294.16h.02c.11-.15.26-.34.39-.5l1.28-1.5h.95l-1.68,1.79,1.92,2.57h-.96l-1.5-2.09-.41.45v1.64h-.78v-6.39h.78v4.03Z"/>
      <path class="cls-3" d="M412.68,294.49c.02,1.07.7,1.51,1.49,1.51.57,0,.91-.1,1.21-.22l.14.57c-.28.13-.76.27-1.45.27-1.34,0-2.14-.88-2.14-2.2s.77-2.35,2.04-2.35c1.42,0,1.8,1.25,1.8,2.05,0,.16-.02.29-.03.37h-3.06ZM415.01,293.92c0-.5-.21-1.29-1.1-1.29-.8,0-1.15.74-1.21,1.29h2.31Z"/>
      <path class="cls-3" d="M422.93,296.32c-.29.14-.86.29-1.6.29-1.71,0-3-1.08-3-3.07s1.29-3.19,3.17-3.19c.76,0,1.23.16,1.44.27l-.19.64c-.3-.14-.72-.25-1.22-.25-1.42,0-2.37.91-2.37,2.5,0,1.48.86,2.44,2.33,2.44.48,0,.96-.1,1.28-.25l.16.62Z"/>
      <path class="cls-3" d="M427.72,294.31c0,1.61-1.12,2.31-2.17,2.31-1.18,0-2.09-.86-2.09-2.24,0-1.46.96-2.31,2.16-2.31s2.1.91,2.1,2.24ZM424.27,294.35c0,.95.55,1.67,1.32,1.67s1.32-.71,1.32-1.69c0-.74-.37-1.67-1.31-1.67s-1.34.86-1.34,1.69Z"/>
      <path class="cls-3" d="M428.72,293.34c0-.45,0-.82-.04-1.18h.69l.04.7h.03c.24-.41.65-.8,1.37-.8.59,0,1.04.36,1.23.87h.02c.13-.24.31-.43.49-.57.26-.2.55-.31.96-.31.58,0,1.43.38,1.43,1.89v2.57h-.77v-2.47c0-.84-.31-1.34-.95-1.34-.45,0-.8.33-.94.72-.04.11-.06.25-.06.4v2.69h-.77v-2.61c0-.69-.31-1.2-.91-1.2-.5,0-.86.4-.98.79-.04.12-.06.25-.06.39v2.63h-.77v-3.18Z"/>
      <path class="cls-3" d="M436.23,293.59c0-.56-.02-1.01-.04-1.42h.71l.04.75h.02c.32-.53.84-.85,1.55-.85,1.05,0,1.85.89,1.85,2.21,0,1.57-.95,2.34-1.98,2.34-.58,0-1.08-.25-1.34-.68h-.02v2.37h-.78v-4.72ZM437.01,294.75c0,.12.02.23.04.32.14.55.62.93,1.19.93.84,0,1.32-.68,1.32-1.68,0-.87-.46-1.62-1.3-1.62-.54,0-1.04.39-1.2.98-.03.1-.05.21-.05.32v.75Z"/>
      <path class="cls-3" d="M445.29,294.31c0,1.61-1.12,2.31-2.17,2.31-1.18,0-2.09-.86-2.09-2.24,0-1.46.96-2.31,2.16-2.31s2.1.91,2.1,2.24ZM441.84,294.35c0,.95.55,1.67,1.32,1.67s1.32-.71,1.32-1.69c0-.74-.37-1.67-1.31-1.67s-1.34.86-1.34,1.69Z"/>
      <path class="cls-3" d="M446.18,295.71c.23.15.65.32,1.04.32.58,0,.85-.29.85-.65,0-.38-.22-.59-.81-.8-.78-.28-1.15-.71-1.15-1.23,0-.7.57-1.28,1.5-1.28.44,0,.83.13,1.07.27l-.2.58c-.17-.11-.49-.25-.89-.25-.47,0-.73.27-.73.59,0,.36.26.52.83.74.76.29,1.14.67,1.14,1.31,0,.77-.59,1.3-1.63,1.3-.48,0-.92-.12-1.22-.3l.2-.6Z"/>
      <path class="cls-3" d="M450.74,290.94c0,.27-.19.49-.5.49-.28,0-.48-.21-.48-.49s.21-.5.5-.5.49.22.49.5ZM449.86,296.52v-4.36h.79v4.36h-.79Z"/>
      <path class="cls-3" d="M452.91,290.91v1.25h1.13v.6h-1.13v2.35c0,.54.15.85.59.85.21,0,.36-.03.46-.05l.04.59c-.15.06-.4.11-.7.11-.37,0-.67-.12-.86-.33-.23-.23-.31-.62-.31-1.13v-2.38h-.67v-.6h.67v-1.04l.77-.21Z"/>
      <path class="cls-3" d="M455.33,294.49c.02,1.07.7,1.51,1.49,1.51.57,0,.91-.1,1.21-.22l.14.57c-.28.13-.76.27-1.45.27-1.34,0-2.14-.88-2.14-2.2s.77-2.35,2.04-2.35c1.42,0,1.8,1.25,1.8,2.05,0,.16-.02.29-.03.37h-3.06ZM457.65,293.92c0-.5-.21-1.29-1.1-1.29-.8,0-1.15.74-1.21,1.29h2.31Z"/>
      <path class="cls-3" d="M461.48,293.79v.58h-2.22v-.58h2.22Z"/>
      <path class="cls-3" d="M462.33,295.57c.35.21.86.4,1.4.4.8,0,1.27-.42,1.27-1.04,0-.57-.32-.89-1.14-1.21-.99-.35-1.6-.87-1.6-1.72,0-.95.78-1.65,1.96-1.65.62,0,1.07.14,1.34.3l-.22.64c-.2-.11-.6-.29-1.15-.29-.83,0-1.14.49-1.14.91,0,.57.37.85,1.21,1.17,1.03.4,1.55.89,1.55,1.78,0,.94-.69,1.75-2.12,1.75-.58,0-1.22-.17-1.55-.39l.2-.66Z"/>
      <path class="cls-3" d="M470.84,294.31c0,1.61-1.12,2.31-2.17,2.31-1.18,0-2.09-.86-2.09-2.24,0-1.46.95-2.31,2.16-2.31s2.1.91,2.1,2.24ZM467.39,294.35c0,.95.55,1.67,1.32,1.67s1.32-.71,1.32-1.69c0-.74-.37-1.67-1.31-1.67s-1.34.86-1.34,1.69Z"/>
      <path class="cls-3" d="M471.84,290.13h.79v6.39h-.79v-6.39Z"/>
      <path class="cls-3" d="M474.85,290.94c0,.27-.19.49-.5.49-.28,0-.48-.21-.48-.49s.21-.5.5-.5.49.22.49.5ZM473.96,296.52v-4.36h.79v4.36h-.79Z"/>
      <path class="cls-3" d="M479.83,290.13v5.27c0,.39,0,.83.04,1.12h-.71l-.04-.76h-.02c-.24.49-.77.86-1.49.86-1.05,0-1.86-.89-1.86-2.21,0-1.45.89-2.34,1.95-2.34.67,0,1.12.32,1.31.67h.02v-2.6h.79ZM479.04,293.94c0-.1,0-.23-.04-.33-.12-.5-.55-.92-1.14-.92-.82,0-1.31.72-1.31,1.68,0,.88.43,1.61,1.29,1.61.53,0,1.02-.35,1.16-.95.03-.11.04-.22.04-.34v-.76Z"/>
      <path class="cls-3" d="M410.87,302.97l.58,2.21c.13.49.24.94.32,1.39h.03c.1-.44.24-.91.39-1.38l.71-2.22h.67l.67,2.18c.16.52.29.98.39,1.42h.03c.07-.44.19-.9.33-1.41l.62-2.19h.78l-1.4,4.36h-.72l-.67-2.08c-.15-.49-.28-.92-.39-1.43h-.02c-.11.52-.24.97-.4,1.44l-.7,2.07h-.72l-1.31-4.36h.81Z"/>
      <path class="cls-3" d="M418.06,301.74c0,.27-.19.49-.5.49-.28,0-.48-.22-.48-.49s.21-.5.5-.5.49.22.49.5ZM417.18,307.32v-4.36h.79v4.36h-.79Z"/>
      <path class="cls-3" d="M420.24,301.71v1.25h1.13v.6h-1.13v2.35c0,.54.15.85.59.85.21,0,.36-.03.46-.05l.04.59c-.15.06-.4.11-.7.11-.37,0-.67-.12-.86-.33-.23-.23-.31-.62-.31-1.13v-2.38h-.67v-.6h.67v-1.04l.77-.21Z"/>
      <path class="cls-3" d="M422.26,300.93h.79v2.72h.02c.13-.22.32-.42.57-.56.23-.13.51-.22.81-.22.58,0,1.52.36,1.52,1.86v2.59h-.79v-2.5c0-.7-.26-1.3-1.01-1.3-.51,0-.92.36-1.06.79-.05.11-.05.23-.05.38v2.63h-.79v-6.39Z"/>
      <path class="cls-3" d="M430.12,301.71v1.25h1.13v.6h-1.13v2.35c0,.54.15.85.59.85.21,0,.36-.03.46-.05l.04.59c-.15.06-.4.11-.7.11-.37,0-.67-.12-.86-.33-.23-.23-.31-.62-.31-1.13v-2.38h-.67v-.6h.67v-1.04l.77-.21Z"/>
      <path class="cls-3" d="M432.54,302.97l.58,2.21c.13.49.24.94.32,1.39h.03c.1-.44.24-.91.39-1.38l.71-2.22h.67l.67,2.18c.16.52.29.98.39,1.42h.03c.07-.44.19-.9.33-1.41l.62-2.19h.78l-1.4,4.36h-.72l-.67-2.08c-.15-.49-.28-.92-.39-1.43h-.02c-.11.52-.24.97-.4,1.44l-.7,2.07h-.72l-1.31-4.36h.81Z"/>
      <path class="cls-3" d="M442.7,305.11c0,1.61-1.12,2.31-2.17,2.31-1.18,0-2.09-.86-2.09-2.24,0-1.46.95-2.31,2.16-2.31s2.1.91,2.1,2.24ZM439.25,305.15c0,.95.55,1.67,1.32,1.67s1.32-.71,1.32-1.69c0-.74-.37-1.68-1.31-1.68s-1.34.87-1.34,1.69Z"/>
      <path class="cls-3" d="M445.5,306.51c.23.15.65.31,1.04.31.58,0,.85-.29.85-.65s-.22-.58-.81-.8c-.78-.28-1.15-.71-1.15-1.23,0-.7.57-1.28,1.5-1.28.44,0,.83.13,1.07.27l-.2.58c-.17-.11-.49-.25-.89-.25-.47,0-.73.27-.73.59,0,.36.26.52.83.74.76.29,1.14.67,1.14,1.31,0,.76-.59,1.31-1.63,1.31-.48,0-.92-.12-1.22-.3l.2-.6Z"/>
      <path class="cls-3" d="M453.12,305.11c0,1.61-1.12,2.31-2.17,2.31-1.18,0-2.09-.86-2.09-2.24,0-1.46.95-2.31,2.16-2.31s2.1.91,2.1,2.24ZM449.66,305.15c0,.95.55,1.67,1.32,1.67s1.32-.71,1.32-1.69c0-.74-.37-1.68-1.31-1.68s-1.34.87-1.34,1.69Z"/>
      <path class="cls-3" d="M454.12,300.93h.79v6.39h-.79v-6.39Z"/>
      <path class="cls-3" d="M457.12,301.74c0,.27-.19.49-.5.49-.28,0-.48-.22-.48-.49s.21-.5.5-.5.49.22.49.5ZM456.24,307.32v-4.36h.79v4.36h-.79Z"/>
      <path class="cls-3" d="M462.11,300.93v5.27c0,.39,0,.83.04,1.13h-.71l-.04-.76h-.02c-.24.49-.77.86-1.49.86-1.05,0-1.86-.89-1.86-2.21,0-1.45.89-2.34,1.95-2.34.67,0,1.12.32,1.31.67h.02v-2.6h.79ZM461.32,304.74c0-.1,0-.23-.04-.33-.12-.5-.55-.92-1.14-.92-.82,0-1.31.72-1.31,1.68,0,.88.43,1.61,1.29,1.61.53,0,1.02-.35,1.16-.95.03-.11.04-.22.04-.34v-.76Z"/>
      <path class="cls-3" d="M463.31,306.51c.23.15.65.31,1.04.31.58,0,.85-.29.85-.65s-.22-.58-.81-.8c-.78-.28-1.15-.71-1.15-1.23,0-.7.57-1.28,1.5-1.28.44,0,.83.13,1.07.27l-.2.58c-.17-.11-.49-.25-.89-.25-.47,0-.73.27-.73.59,0,.36.26.52.83.74.76.29,1.14.67,1.14,1.31,0,.76-.59,1.31-1.63,1.31-.48,0-.92-.12-1.22-.3l.2-.6Z"/>
    </g>
  </g>
  <g>
    <polyline class="cls-9" points="626.29 280.72 626.29 280.72 627.26 354.68 612.88 375.58 613.81 300.25 627.58 280.72"/>
    <line class="cls-7" x1="707.3" y1="281.04" x2="627.26" y2="281.04"/>
    <line class="cls-7" x1="692.57" y1="300.25" x2="707.3" y2="281.04"/>
    <line class="cls-7" x1="695.13" y1="377.09" x2="707.94" y2="355.32"/>
    <line class="cls-7" x1="707.3" y1="281.04" x2="707.3" y2="355.32"/>
    <line class="cls-8" x1="627.26" y1="281.04" x2="627.26" y2="354.68"/>
    <line class="cls-7" x1="613.66" y1="299.9" x2="628.38" y2="280.69"/>
    <line class="cls-8" x1="707.3" y1="354.68" x2="625.97" y2="354.68"/>
    <polyline class="cls-8" points="627.26 354.68 614.45 374.53 627.26 354.68"/>
    <polygon class="cls-2" points="627.26 281.04 614.5 299.97 693.62 300.46 707.47 280.38 627.26 281.04"/>
    <polyline class="cls-9" points="613.57 375.38 627.26 354.68 707.3 355.32 694.49 375.17"/>
    <polygon class="cls-2" points="693.62 300.46 706.8 281.64 706.12 356.93 693.22 375.51 693.62 300.46"/>
    <rect class="cls-9" x="627.58" y="280.72" width="79.4" height="73.64"/>
    <g>
      <circle class="cls-3" cx="627.1" cy="280.24" r="4.96"/>
      <path class="cls-10" d="M627.38,278.2v4.32h-.56v-4.32h.56Z"/>
    </g>
    <g>
      <circle class="cls-3" cx="707.06" cy="354.89" r="4.96"/>
      <path class="cls-10" d="M708.03,355.12c-.02-.38-.04-.83-.04-1.16h-.01c-.09.32-.21.65-.34,1.02l-.48,1.31h-.26l-.44-1.28c-.13-.38-.24-.73-.31-1.05h0c0,.34-.03.79-.05,1.19l-.07,1.16h-.33l.19-2.69h.44l.46,1.3c.11.33.2.63.27.91h.01c.07-.27.16-.57.28-.91l.48-1.3h.44l.17,2.69h-.34l-.07-1.18Z"/>
    </g>
    <g>
      <circle class="cls-3" cx="706.42" cy="279.97" r="4.96"/>
      <path class="cls-10" d="M706.59,278.12h.5v2.6c0,1.03-.51,1.35-1.18,1.35-.19,0-.41-.04-.54-.09l.07-.41c.11.04.25.08.42.08.45,0,.71-.2.71-.96v-2.56Z"/>
    </g>
    <g>
      <circle class="cls-3" cx="626.38" cy="354.89" r="4.96"/>
      <path class="cls-10" d="M625.12,356.66v-3.37h.47l1.08,1.71c.25.4.45.75.61,1.1h0c-.04-.46-.05-.87-.05-1.39v-1.41h.41v3.37h-.44l-1.07-1.71c-.23-.38-.46-.76-.63-1.13h-.01c.03.43.04.84.04,1.4v1.44h-.41Z"/>
    </g>
    <rect class="cls-2" x="614.77" y="301.21" width="79.4" height="73.64"/>
    <rect class="cls-7" x="613.81" y="300.25" width="80.68" height="74.92"/>
    <g>
      <circle class="cls-3" cx="694.26" cy="375.38" r="4.96"/>
      <path class="cls-10" d="M693.23,373.33h.56v3.85h1.85v.47h-2.4v-4.32Z"/>
    </g>
    <g>
      <circle class="cls-3" cx="693.62" cy="300.46" r="4.96"/>
      <path class="cls-10" d="M692.49,298.62h.5v1.88h.02c.11-.15.21-.29.31-.42l1.19-1.46h.62l-1.41,1.65,1.52,2.24h-.59l-1.28-1.91-.37.43v1.48h-.5v-3.89Z"/>
    </g>
    <rect class="cls-9" x="535.16" y="301.36" width="79.4" height="73.64"/>
    <polyline class="cls-9" points="533.88 301.36 533.88 301.36 534.84 375.32 520.47 396.23 521.39 320.89 535.16 301.36"/>
    <line class="cls-7" x1="614.88" y1="301.68" x2="534.84" y2="301.68"/>
    <line class="cls-7" x1="600.16" y1="320.89" x2="614.88" y2="301.68"/>
    <line class="cls-7" x1="602.72" y1="397.74" x2="615.52" y2="375.96"/>
    <line class="cls-7" x1="614.88" y1="301.68" x2="614.88" y2="375.96"/>
    <line class="cls-8" x1="534.84" y1="301.68" x2="534.84" y2="375.32"/>
    <line class="cls-7" x1="521.24" y1="320.54" x2="535.97" y2="301.33"/>
    <line class="cls-8" x1="614.88" y1="375.32" x2="533.56" y2="375.32"/>
    <polyline class="cls-8" points="534.84 375.32 522.03 395.17 534.84 375.32"/>
    <polygon class="cls-9" points="534.84 301.68 522.09 320.61 601.2 321.1 615.05 301.02 534.84 301.68"/>
    <polyline class="cls-9" points="521.16 396.02 534.84 375.32 614.88 375.96 602.08 395.81"/>
    <polygon class="cls-9" points="601.2 321.1 614.38 302.28 613.71 377.57 600.8 396.15 601.2 321.1"/>
    <g>
      <circle class="cls-3" cx="534.68" cy="300.88" r="4.96"/>
      <path class="cls-10" d="M535.83,301.13h-1.68v1.56h1.87v.47h-2.43v-4.32h2.33v.47h-1.78v1.37h1.68v.46Z"/>
    </g>
    <g>
      <circle class="cls-3" cx="614.65" cy="375.53" r="4.96"/>
      <path class="cls-10" d="M613.71,373.69v1.63h1.88v-1.63h.51v3.89h-.51v-1.82h-1.88v1.82h-.5v-3.89h.5Z"/>
    </g>
    <g>
      <circle class="cls-3" cx="533.97" cy="375.53" r="4.96"/>
      <path class="cls-10" d="M532.89,373.48h2.33v.47h-1.77v1.44h1.63v.46h-1.63v1.96h-.56v-4.32Z"/>
    </g>
    <g>
      <circle class="cls-3" cx="614.01" cy="300.61" r="4.96"/>
      <path class="cls-10" d="M615.54,302.48c-.22.08-.67.21-1.19.21-.59,0-1.07-.15-1.45-.51-.34-.32-.54-.84-.54-1.45,0-1.16.8-2.01,2.11-2.01.45,0,.8.1.97.18l-.12.41c-.21-.09-.47-.17-.86-.17-.95,0-1.56.59-1.56,1.56s.59,1.57,1.5,1.57c.33,0,.55-.05.67-.1v-1.16h-.79v-.4h1.28v1.87Z"/>
    </g>
    <rect class="cls-9" x="522.35" y="321.85" width="79.4" height="73.64"/>
    <rect class="cls-7" x="521.39" y="320.89" width="80.68" height="74.92"/>
    <g>
      <circle class="cls-3" cx="521.87" cy="321.37" r="4.96"/>
      <path class="cls-10" d="M521.1,322.29l-.45,1.36h-.58l1.47-4.32h.67l1.47,4.32h-.6l-.46-1.36h-1.53ZM522.52,321.85l-.42-1.24c-.1-.28-.16-.54-.22-.79h-.01c-.06.26-.13.52-.22.78l-.42,1.25h1.3Z"/>
    </g>
    <g>
      <circle class="cls-3" cx="601.84" cy="396.02" r="4.96"/>
      <path class="cls-10" d="M603.49,398.15c-.21.1-.62.21-1.14.21-1.22,0-2.13-.77-2.13-2.19s.92-2.27,2.26-2.27c.54,0,.88.12,1.03.19l-.13.45c-.21-.1-.51-.18-.87-.18-1.01,0-1.69.65-1.69,1.78,0,1.06.61,1.74,1.66,1.74.34,0,.69-.07.91-.18l.12.44Z"/>
    </g>
    <g>
      <circle class="cls-3" cx="521.16" cy="396.02" r="4.96"/>
      <path class="cls-10" d="M519.91,394.03c.24-.05.63-.09,1.02-.09.56,0,.92.1,1.19.31.22.17.36.42.36.76,0,.42-.28.78-.73.95h0c.41.12.89.46.89,1.1,0,.37-.15.65-.37.87-.3.28-.79.4-1.49.4-.38,0-.68-.03-.87-.05v-4.25ZM520.47,395.8h.51c.59,0,.94-.31.94-.72,0-.51-.38-.71-.95-.71-.26,0-.4.02-.49.04v1.39ZM520.47,397.87c.11.02.27.03.47.03.58,0,1.11-.21,1.11-.84,0-.59-.51-.83-1.12-.83h-.46v1.65Z"/>
    </g>
    <g>
      <circle class="cls-3" cx="601.2" cy="321.1" r="4.96"/>
      <path class="cls-10" d="M599.72,319.31c.3-.05.67-.08,1.07-.08.72,0,1.23.17,1.57.48.35.32.55.77.55,1.4s-.2,1.15-.56,1.51c-.36.36-.96.56-1.72.56-.36,0-.66-.02-.91-.05v-3.82ZM600.22,322.75c.13.02.31.03.51.03,1.07,0,1.66-.6,1.66-1.65,0-.92-.51-1.5-1.57-1.5-.26,0-.46.02-.59.05v3.07Z"/>
    </g>
  </g>
  <g>
    <rect class="cls-9" x="538.98" y="21.59" width="92.36" height="85.65"/>
    <polyline class="cls-9" points="537.49 21.59 537.49 21.59 538.61 107.61 521.89 131.92 522.97 44.3 538.98 21.59"/>
    <line class="cls-7" x1="631.71" y1="21.96" x2="538.61" y2="21.96"/>
    <line class="cls-7" x1="614.58" y1="44.3" x2="631.71" y2="21.96"/>
    <line class="cls-7" x1="617.56" y1="133.68" x2="632.45" y2="108.36"/>
    <line class="cls-7" x1="631.71" y1="21.96" x2="631.71" y2="108.36"/>
    <line class="cls-8" x1="538.61" y1="21.96" x2="538.61" y2="107.61"/>
    <line class="cls-7" x1="522.79" y1="43.89" x2="539.92" y2="21.55"/>
    <line class="cls-8" x1="631.71" y1="107.61" x2="537.12" y2="107.61"/>
    <polyline class="cls-8" points="538.61 107.61 523.71 130.7 538.61 107.61"/>
    <polygon class="cls-9" points="538.61 21.96 523.78 43.98 615.79 44.54 631.9 21.18 538.61 21.96"/>
    <polyline class="cls-9" points="522.69 131.68 538.61 107.61 631.71 108.36 616.81 131.45"/>
    <polygon class="cls-9" points="615.79 44.54 631.13 22.65 630.34 110.23 615.33 131.84 615.79 44.54"/>
    <g>
      <circle class="cls-3" cx="538.42" cy="21.03" r="5.77"/>
      <path class="cls-10" d="M539.75,21.32h-1.95v1.81h2.17v.54h-2.82v-5.02h2.71v.54h-2.06v1.59h1.95v.54Z"/>
    </g>
    <g>
      <circle class="cls-3" cx="631.43" cy="107.85" r="5.77"/>
      <path class="cls-10" d="M630.34,105.72v1.89h2.18v-1.89h.59v4.51h-.59v-2.12h-2.18v2.12h-.58v-4.51h.58Z"/>
    </g>
    <g>
      <circle class="cls-3" cx="537.59" cy="107.85" r="5.77"/>
      <path class="cls-10" d="M536.34,105.48h2.7v.54h-2.05v1.67h1.9v.54h-1.9v2.27h-.65v-5.02Z"/>
    </g>
    <g>
      <circle class="cls-3" cx="630.69" cy="20.71" r="5.77"/>
      <path class="cls-10" d="M632.47,22.89c-.26.09-.78.25-1.39.25-.68,0-1.25-.17-1.69-.6-.39-.38-.63-.98-.63-1.68,0-1.35.93-2.33,2.45-2.33.52,0,.93.11,1.12.21l-.14.48c-.24-.11-.54-.19-1-.19-1.1,0-1.82.68-1.82,1.81s.69,1.82,1.74,1.82c.38,0,.64-.05.78-.12v-1.35h-.92v-.47h1.49v2.17Z"/>
    </g>
    <rect class="cls-9" x="524.08" y="45.42" width="92.36" height="85.65"/>
    <rect class="cls-7" x="522.97" y="44.3" width="93.85" height="87.14"/>
    <g>
      <circle class="cls-3" cx="523.52" cy="44.86" r="5.77"/>
      <path class="cls-10" d="M522.62,45.93l-.52,1.58h-.67l1.71-5.02h.78l1.71,5.02h-.69l-.54-1.58h-1.78ZM524.27,45.42l-.49-1.44c-.11-.33-.19-.63-.26-.92h-.02c-.07.3-.16.6-.25.91l-.49,1.45h1.51Z"/>
    </g>
    <g>
      <circle class="cls-3" cx="616.54" cy="131.68" r="5.77"/>
      <path class="cls-10" d="M618.45,134.16c-.24.12-.71.24-1.33.24-1.42,0-2.48-.89-2.48-2.54s1.06-2.64,2.62-2.64c.62,0,1.02.13,1.19.22l-.16.53c-.25-.12-.6-.21-1.01-.21-1.18,0-1.96.75-1.96,2.07,0,1.23.71,2.02,1.93,2.02.39,0,.8-.08,1.06-.21l.13.51Z"/>
    </g>
    <g>
      <circle class="cls-3" cx="522.69" cy="131.68" r="5.77"/>
      <path class="cls-10" d="M521.24,129.38c.28-.06.73-.1,1.18-.1.65,0,1.06.11,1.38.36.26.19.42.49.42.89,0,.48-.32.91-.85,1.1h0c.48.13,1.04.53,1.04,1.27,0,.43-.17.76-.42,1-.35.32-.92.47-1.73.47-.45,0-.79-.03-1.01-.06v-4.94ZM521.89,131.43h.59c.69,0,1.09-.36,1.09-.84,0-.59-.45-.82-1.1-.82-.3,0-.47.02-.57.04v1.62ZM521.89,133.84c.13.02.31.03.54.03.67,0,1.29-.25,1.29-.98,0-.68-.59-.97-1.3-.97h-.54v1.91Z"/>
    </g>
    <g>
      <circle class="cls-3" cx="615.79" cy="44.54" r="5.77"/>
      <path class="cls-10" d="M614.07,42.47c.36-.05.78-.09,1.24-.09.84,0,1.43.19,1.83.56.4.37.64.89.64,1.62s-.23,1.34-.65,1.75c-.42.42-1.12.65-2,.65-.42,0-.76-.02-1.06-.05v-4.44ZM614.65,46.46c.15.03.36.03.59.03,1.25,0,1.92-.7,1.92-1.92,0-1.06-.6-1.74-1.83-1.74-.3,0-.53.03-.68.06v3.56Z"/>
    </g>
  </g>
  <g>
    <rect class="cls-9" x="538.59" y="148.28" width="92.36" height="85.65"/>
    <polyline class="cls-9" points="537.1 148.28 537.1 148.28 538.22 234.3 521.5 258.61 522.58 170.99 538.59 148.28"/>
    <line class="cls-7" x1="631.32" y1="148.65" x2="538.22" y2="148.65"/>
    <line class="cls-7" x1="614.19" y1="170.99" x2="631.32" y2="148.65"/>
    <line class="cls-7" x1="617.17" y1="260.37" x2="632.07" y2="235.05"/>
    <line class="cls-7" x1="631.32" y1="148.65" x2="631.32" y2="235.05"/>
    <line class="cls-8" x1="538.22" y1="148.65" x2="538.22" y2="234.3"/>
    <line class="cls-7" x1="522.4" y1="170.58" x2="539.53" y2="148.24"/>
    <line class="cls-8" x1="631.32" y1="234.3" x2="536.73" y2="234.3"/>
    <polyline class="cls-8" points="538.22 234.3 523.32 257.39 538.22 234.3"/>
    <polygon class="cls-9" points="538.22 148.65 523.39 170.67 615.41 171.23 631.52 147.87 538.22 148.65"/>
    <polyline class="cls-9" points="522.3 258.38 538.22 234.3 631.32 235.05 616.42 258.14"/>
    <polygon class="cls-9" points="615.41 171.23 630.74 149.34 629.96 236.92 614.94 258.53 615.41 171.23"/>
    <polygon class="cls-2" points="630.95 148.28 644.82 123.87 660.22 153.82 630.95 148.28"/>
    <polyline class="cls-2" points="617.17 260.37 632.73 236.92 656.24 253.67 616.42 258.14"/>
    <polygon class="cls-4" points="630.95 148.28 644.82 123.87 659.56 151.76 630.95 148.28"/>
    <polygon class="cls-4" points="616.42 258.14 632.07 235.05 654.84 253.69 616.42 258.14"/>
    <g>
      <circle class="cls-3" cx="538.03" cy="147.72" r="5.77"/>
      <path class="cls-10" d="M539.37,148.01h-1.95v1.81h2.17v.54h-2.82v-5.02h2.71v.54h-2.06v1.59h1.95v.54Z"/>
    </g>
    <g>
      <circle class="cls-3" cx="631.05" cy="234.54" r="5.77"/>
      <path class="cls-10" d="M629.95,232.41v1.89h2.18v-1.89h.59v4.51h-.59v-2.12h-2.18v2.12h-.58v-4.51h.58Z"/>
    </g>
    <g>
      <circle class="cls-3" cx="537.2" cy="234.54" r="5.77"/>
      <path class="cls-10" d="M535.95,232.17h2.7v.54h-2.05v1.67h1.9v.54h-1.9v2.27h-.65v-5.02Z"/>
    </g>
    <g>
      <circle class="cls-3" cx="630.3" cy="147.4" r="5.77"/>
      <path class="cls-10" d="M632.08,149.58c-.26.09-.78.25-1.39.25-.68,0-1.25-.17-1.69-.6-.39-.38-.63-.98-.63-1.68,0-1.35.93-2.33,2.45-2.33.52,0,.93.11,1.12.21l-.14.48c-.24-.11-.54-.19-1-.19-1.1,0-1.82.68-1.82,1.81s.69,1.82,1.74,1.82c.38,0,.64-.05.78-.12v-1.35h-.92v-.47h1.49v2.17Z"/>
    </g>
    <rect class="cls-9" x="523.7" y="172.11" width="92.36" height="85.65"/>
    <rect class="cls-7" x="522.58" y="170.99" width="93.85" height="87.14"/>
    <g>
      <circle class="cls-3" cx="523.14" cy="171.55" r="5.77"/>
      <path class="cls-10" d="M522.24,172.62l-.52,1.58h-.67l1.71-5.02h.78l1.71,5.02h-.69l-.54-1.58h-1.78ZM523.88,172.11l-.49-1.44c-.11-.33-.19-.63-.26-.92h-.02c-.07.3-.16.6-.25.91l-.49,1.45h1.51Z"/>
    </g>
    <g>
      <circle class="cls-3" cx="616.15" cy="258.38" r="5.77"/>
      <path class="cls-10" d="M618.06,260.86c-.24.12-.71.24-1.33.24-1.42,0-2.48-.89-2.48-2.54s1.07-2.64,2.62-2.64c.63,0,1.02.13,1.19.22l-.16.53c-.25-.12-.6-.21-1.01-.21-1.18,0-1.96.75-1.96,2.07,0,1.23.71,2.02,1.93,2.02.39,0,.8-.08,1.06-.21l.13.51Z"/>
    </g>
    <g>
      <circle class="cls-3" cx="522.3" cy="258.38" r="5.77"/>
      <path class="cls-10" d="M520.85,256.07c.28-.06.73-.1,1.18-.1.65,0,1.06.11,1.38.36.26.19.42.49.42.89,0,.48-.32.91-.85,1.1h0c.48.13,1.04.53,1.04,1.27,0,.43-.17.76-.42,1-.35.32-.92.47-1.74.47-.45,0-.79-.03-1-.06v-4.94ZM521.5,258.12h.59c.69,0,1.09-.36,1.09-.84,0-.59-.45-.82-1.1-.82-.3,0-.47.02-.57.04v1.62ZM521.5,260.53c.13.02.31.03.54.03.67,0,1.29-.25,1.29-.98,0-.68-.59-.97-1.3-.97h-.54v1.91Z"/>
    </g>
    <g>
      <circle class="cls-3" cx="615.41" cy="171.23" r="5.77"/>
      <path class="cls-10" d="M613.68,169.16c.36-.05.78-.09,1.24-.09.84,0,1.43.19,1.83.56.4.37.64.89.64,1.62s-.23,1.34-.65,1.75c-.42.42-1.12.65-2,.65-.42,0-.76-.02-1.06-.05v-4.44ZM614.27,173.15c.15.03.36.03.59.03,1.25,0,1.92-.7,1.92-1.92,0-1.06-.6-1.74-1.83-1.74-.3,0-.53.03-.68.06v3.56Z"/>
    </g>
    <g>
      <circle class="cls-3" cx="642.81" cy="124.03" r="5.77"/>
      <path class="cls-10" d="M643.1,121.9v4.51h-.58v-4.51h.58Z"/>
    </g>
    <g>
      <circle class="cls-3" cx="661.43" cy="153.82" r="5.77"/>
      <path class="cls-10" d="M661.62,151.69h.58v3.02c0,1.2-.59,1.57-1.37,1.57-.21,0-.48-.05-.62-.11l.09-.48c.12.05.29.09.49.09.52,0,.83-.23.83-1.12v-2.97Z"/>
    </g>
    <g>
      <circle class="cls-3" cx="656.96" cy="253.63" r="5.77"/>
      <path class="cls-10" d="M655.66,251.49h.58v2.18h.02c.12-.17.24-.33.35-.48l1.38-1.69h.72l-1.63,1.92,1.76,2.6h-.69l-1.49-2.22-.43.5v1.72h-.58v-4.51Z"/>
    </g>
  </g>
  <g>
    <rect class="cls-6" x="329.55" y="90.97" width="45.04" height="70.6"/>
    <path class="cls-1" d="M337.76,107.24l4.97,7.49c1.3,1.94,2.38,3.74,3.53,5.69h.22c1.15-2.09,2.3-3.89,3.46-5.76l4.9-7.42h6.84l-11.88,16.85,12.24,18h-7.2l-5.11-7.85c-1.37-2.02-2.52-3.96-3.75-6.05h-.14c-1.15,2.09-2.38,3.96-3.67,6.05l-5.04,7.85h-6.98l12.38-17.79-11.81-17.07h7.06Z"/>
  </g>
  <path class="cls-12" d="M334.73,310.27l6.84,19.58c1.15,3.17,2.09,6.05,2.81,8.93h.22c.79-2.88,1.8-5.76,2.95-8.93l6.77-19.58h6.62l-13.68,34.85h-6.05l-13.25-34.85h6.77Z"/>
  <g>
    <rect class="cls-6" x="385.59" y="119.57" width="114.68" height="30.64"/>
    <path class="cls-11" d="M386.28,119.97c.34-.07.88-.13,1.43-.13.78,0,1.29.14,1.67.44.32.23.5.59.5,1.07,0,.58-.39,1.1-1.03,1.33v.02c.58.14,1.25.62,1.25,1.52,0,.52-.21.92-.51,1.22-.42.39-1.11.57-2.1.57-.54,0-.95-.04-1.21-.07v-5.97ZM387.06,122.45h.71c.83,0,1.31-.43,1.31-1.02,0-.71-.54-.99-1.33-.99-.36,0-.57.03-.69.05v1.95ZM387.06,125.36c.15.03.38.04.66.04.81,0,1.56-.3,1.56-1.18,0-.83-.71-1.17-1.57-1.17h-.65v2.31Z"/>
    <path class="cls-11" d="M393.54,125.96l-.06-.55h-.03c-.24.34-.71.65-1.33.65-.88,0-1.33-.62-1.33-1.25,0-1.05.94-1.63,2.62-1.62v-.09c0-.36-.1-1.01-.99-1.01-.41,0-.83.13-1.13.32l-.18-.52c.36-.23.88-.39,1.43-.39,1.33,0,1.66.91,1.66,1.78v1.63c0,.38.02.75.07,1.04h-.72ZM393.42,123.73c-.86-.02-1.85.13-1.85.98,0,.51.34.76.75.76.57,0,.93-.36,1.05-.73.03-.08.04-.17.04-.25v-.76Z"/>
    <path class="cls-11" d="M395.36,125.15c.23.15.65.32,1.04.32.58,0,.85-.29.85-.65s-.22-.58-.81-.8c-.78-.28-1.15-.71-1.15-1.23,0-.7.57-1.28,1.5-1.28.44,0,.83.13,1.07.27l-.2.58c-.17-.11-.49-.25-.89-.25-.47,0-.73.27-.73.59,0,.36.26.52.83.74.76.29,1.14.67,1.14,1.31,0,.77-.59,1.31-1.63,1.31-.48,0-.92-.12-1.22-.3l.2-.6Z"/>
    <path class="cls-11" d="M399.47,123.92c.02,1.07.7,1.51,1.49,1.51.57,0,.91-.1,1.21-.22l.14.57c-.28.13-.76.27-1.45.27-1.34,0-2.14-.88-2.14-2.2s.77-2.35,2.04-2.35c1.42,0,1.8,1.25,1.8,2.05,0,.16-.02.29-.03.37h-3.06ZM401.79,123.36c0-.5-.21-1.29-1.1-1.29-.8,0-1.15.74-1.21,1.29h2.31Z"/>
    <path class="cls-11" d="M407.3,119.56v5.27c0,.39,0,.83.04,1.12h-.71l-.04-.76h-.02c-.24.49-.77.85-1.49.85-1.05,0-1.86-.89-1.86-2.21,0-1.45.89-2.34,1.95-2.34.67,0,1.12.31,1.31.67h.02v-2.6h.79ZM406.51,123.37c0-.1,0-.23-.04-.33-.12-.5-.55-.92-1.14-.92-.82,0-1.3.72-1.3,1.68,0,.88.43,1.61,1.29,1.61.53,0,1.02-.35,1.16-.95.03-.11.04-.22.04-.34v-.76Z"/>
    <path class="cls-11" d="M414.46,123.74c0,1.61-1.12,2.31-2.17,2.31-1.18,0-2.09-.86-2.09-2.24,0-1.46.95-2.31,2.16-2.31s2.1.91,2.1,2.24ZM411.01,123.79c0,.95.55,1.67,1.32,1.67s1.32-.71,1.32-1.69c0-.74-.37-1.67-1.31-1.67s-1.34.86-1.34,1.69Z"/>
    <path class="cls-11" d="M415.46,122.78c0-.45,0-.82-.04-1.18h.7l.04.72h.02c.22-.41.72-.82,1.44-.82.6,0,1.54.36,1.54,1.85v2.6h-.79v-2.51c0-.7-.26-1.29-1.01-1.29-.52,0-.93.37-1.06.81-.04.1-.05.23-.05.37v2.62h-.79v-3.18Z"/>
    <path class="cls-11" d="M426.01,124.77c0,.45,0,.85.04,1.19h-.7l-.04-.71h-.02c-.21.35-.67.81-1.44.81-.68,0-1.5-.38-1.5-1.91v-2.55h.79v2.41c0,.83.25,1.39.97,1.39.53,0,.9-.37,1.04-.72.04-.12.07-.26.07-.41v-2.67h.79v3.17Z"/>
    <path class="cls-11" d="M427.22,125.15c.23.15.65.32,1.04.32.58,0,.85-.29.85-.65s-.22-.58-.81-.8c-.78-.28-1.15-.71-1.15-1.23,0-.7.57-1.28,1.5-1.28.44,0,.83.13,1.07.27l-.2.58c-.17-.11-.49-.25-.89-.25-.47,0-.73.27-.73.59,0,.36.26.52.83.74.76.29,1.14.67,1.14,1.31,0,.77-.59,1.31-1.63,1.31-.48,0-.92-.12-1.22-.3l.2-.6Z"/>
    <path class="cls-11" d="M431.33,123.92c.02,1.07.7,1.51,1.49,1.51.57,0,.91-.1,1.21-.22l.14.57c-.28.13-.76.27-1.45.27-1.34,0-2.14-.88-2.14-2.2s.77-2.35,2.04-2.35c1.42,0,1.8,1.25,1.8,2.05,0,.16-.02.29-.03.37h-3.06ZM433.65,123.36c0-.5-.21-1.29-1.1-1.29-.8,0-1.15.74-1.21,1.29h2.31Z"/>
    <path class="cls-11" d="M435.4,122.96c0-.51,0-.95-.04-1.36h.69l.03.86h.04c.2-.58.68-.95,1.21-.95.09,0,.15,0,.22.03v.75c-.08-.02-.16-.03-.27-.03-.56,0-.95.42-1.06,1.02-.02.11-.04.23-.04.37v2.32h-.78v-3Z"/>
    <path class="cls-11" d="M440.25,122.96c0-.51,0-.95-.04-1.36h.69l.03.86h.04c.2-.58.68-.95,1.21-.95.09,0,.15,0,.22.03v.75c-.08-.02-.16-.03-.27-.03-.56,0-.95.42-1.06,1.02-.02.11-.04.23-.04.37v2.32h-.78v-3Z"/>
    <path class="cls-11" d="M443.54,123.92c.02,1.07.7,1.51,1.49,1.51.57,0,.91-.1,1.21-.22l.14.57c-.28.13-.76.27-1.45.27-1.34,0-2.14-.88-2.14-2.2s.77-2.35,2.04-2.35c1.42,0,1.8,1.25,1.8,2.05,0,.16-.02.29-.03.37h-3.06ZM445.87,123.36c0-.5-.21-1.29-1.1-1.29-.8,0-1.15.74-1.21,1.29h2.31Z"/>
    <path class="cls-11" d="M450.58,125.28h-.02c-.23.43-.72.77-1.42.77-1.02,0-1.85-.88-1.85-2.21,0-1.63,1.05-2.35,1.97-2.35.68,0,1.13.33,1.34.76h.02l.03-.66h.75c-.02.37-.03.75-.03,1.2v4.94h-.79v-2.46ZM450.58,123.36c0-.11,0-.23-.04-.33-.12-.49-.54-.9-1.13-.9-.82,0-1.31.69-1.31,1.67,0,.86.41,1.62,1.29,1.62.51,0,.95-.32,1.13-.86.04-.11.06-.26.06-.38v-.82Z"/>
    <path class="cls-11" d="M456.32,124.77c0,.45,0,.85.04,1.19h-.7l-.04-.71h-.02c-.21.35-.67.81-1.44.81-.68,0-1.5-.38-1.5-1.91v-2.55h.79v2.41c0,.83.25,1.39.97,1.39.53,0,.9-.37,1.04-.72.04-.12.07-.26.07-.41v-2.67h.79v3.17Z"/>
    <path class="cls-11" d="M458.52,120.37c0,.27-.19.49-.5.49-.28,0-.48-.22-.48-.49s.21-.5.5-.5.49.22.49.5ZM457.64,125.96v-4.36h.79v4.36h-.79Z"/>
    <path class="cls-11" d="M459.74,122.96c0-.51,0-.95-.04-1.36h.69l.03.86h.04c.2-.58.68-.95,1.21-.95.09,0,.15,0,.22.03v.75c-.08-.02-.16-.03-.27-.03-.56,0-.96.42-1.06,1.02-.02.11-.04.23-.04.37v2.32h-.78v-3Z"/>
    <path class="cls-11" d="M463.04,123.92c.02,1.07.7,1.51,1.49,1.51.57,0,.91-.1,1.21-.22l.14.57c-.28.13-.76.27-1.45.27-1.34,0-2.14-.88-2.14-2.2s.77-2.35,2.04-2.35c1.42,0,1.8,1.25,1.8,2.05,0,.16-.02.29-.03.37h-3.06ZM465.36,123.36c0-.5-.21-1.29-1.1-1.29-.8,0-1.15.74-1.21,1.29h2.31Z"/>
    <path class="cls-11" d="M467.1,122.78c0-.45,0-.82-.04-1.18h.69l.04.7h.03c.24-.41.65-.8,1.37-.8.59,0,1.04.36,1.23.87h.02c.13-.24.31-.43.49-.57.26-.2.55-.31.96-.31.58,0,1.43.38,1.43,1.89v2.57h-.77v-2.47c0-.84-.31-1.34-.95-1.34-.45,0-.8.33-.94.72-.04.11-.06.25-.06.4v2.69h-.77v-2.61c0-.69-.31-1.2-.91-1.2-.5,0-.86.4-.98.79-.04.12-.06.25-.06.39v2.63h-.77v-3.18Z"/>
    <path class="cls-11" d="M475.05,123.92c.02,1.07.7,1.51,1.49,1.51.57,0,.91-.1,1.21-.22l.14.57c-.28.13-.76.27-1.45.27-1.34,0-2.14-.88-2.14-2.2s.77-2.35,2.04-2.35c1.42,0,1.8,1.25,1.8,2.05,0,.16-.02.29-.03.37h-3.06ZM477.37,123.36c0-.5-.21-1.29-1.1-1.29-.8,0-1.15.74-1.21,1.29h2.31Z"/>
    <path class="cls-11" d="M479.12,122.78c0-.45,0-.82-.04-1.18h.7l.04.72h.02c.22-.41.72-.82,1.44-.82.6,0,1.54.36,1.54,1.85v2.6h-.79v-2.51c0-.7-.26-1.29-1.01-1.29-.52,0-.93.37-1.06.81-.04.1-.05.23-.05.37v2.62h-.79v-3.18Z"/>
    <path class="cls-11" d="M485.03,120.35v1.25h1.13v.6h-1.13v2.35c0,.54.15.85.59.85.21,0,.36-.03.46-.05l.04.59c-.15.06-.4.11-.7.11-.37,0-.67-.12-.86-.33-.23-.23-.31-.62-.31-1.13v-2.38h-.67v-.6h.67v-1.04l.77-.21Z"/>
    <path class="cls-11" d="M486.95,125.15c.23.15.65.32,1.04.32.58,0,.85-.29.85-.65s-.22-.58-.81-.8c-.78-.28-1.15-.71-1.15-1.23,0-.7.57-1.28,1.5-1.28.44,0,.83.13,1.07.27l-.2.58c-.17-.11-.49-.25-.89-.25-.47,0-.73.27-.73.59,0,.36.26.52.83.74.76.29,1.14.67,1.14,1.31,0,.77-.59,1.31-1.63,1.31-.48,0-.92-.12-1.22-.3l.2-.6Z"/>
  </g>
  <g>
    <rect class="cls-6" x="389.69" y="330.26" width="114.68" height="30.64"/>
    <path class="cls-11" d="M390.37,330.66c.34-.07.88-.13,1.43-.13.78,0,1.29.14,1.67.44.32.23.5.59.5,1.07,0,.58-.39,1.1-1.03,1.33v.02c.58.14,1.25.62,1.25,1.52,0,.52-.21.92-.51,1.22-.42.39-1.11.57-2.1.57-.54,0-.95-.04-1.21-.07v-5.97ZM391.15,333.14h.71c.83,0,1.31-.43,1.31-1.02,0-.71-.54-.99-1.33-.99-.36,0-.57.03-.69.05v1.95ZM391.15,336.05c.15.03.38.04.66.04.81,0,1.56-.3,1.56-1.18,0-.83-.71-1.17-1.57-1.17h-.65v2.31Z"/>
    <path class="cls-11" d="M397.63,336.65l-.06-.55h-.03c-.24.34-.71.65-1.33.65-.88,0-1.33-.62-1.33-1.25,0-1.05.94-1.63,2.62-1.62v-.09c0-.36-.1-1.01-.99-1.01-.41,0-.83.13-1.13.32l-.18-.52c.36-.23.88-.39,1.43-.39,1.33,0,1.66.91,1.66,1.78v1.63c0,.38.02.75.07,1.04h-.72ZM397.52,334.42c-.86-.02-1.85.13-1.85.98,0,.51.34.76.75.76.57,0,.93-.36,1.05-.73.03-.08.04-.17.04-.25v-.76Z"/>
    <path class="cls-11" d="M399.45,335.83c.23.15.65.32,1.04.32.58,0,.85-.29.85-.65s-.22-.58-.81-.8c-.78-.28-1.15-.71-1.15-1.23,0-.7.57-1.28,1.5-1.28.44,0,.83.13,1.07.27l-.2.58c-.17-.11-.49-.25-.89-.25-.47,0-.73.27-.73.59,0,.36.26.52.83.74.76.29,1.14.67,1.14,1.31,0,.77-.59,1.31-1.63,1.31-.48,0-.92-.12-1.22-.3l.2-.6Z"/>
    <path class="cls-11" d="M403.56,334.61c.02,1.07.7,1.51,1.49,1.51.57,0,.91-.1,1.21-.22l.14.57c-.28.13-.76.27-1.45.27-1.34,0-2.14-.88-2.14-2.2s.77-2.35,2.04-2.35c1.42,0,1.8,1.25,1.8,2.05,0,.16-.02.29-.03.37h-3.06ZM405.89,334.04c0-.5-.21-1.29-1.1-1.29-.8,0-1.15.74-1.21,1.29h2.31Z"/>
    <path class="cls-11" d="M411.39,330.25v5.27c0,.39,0,.83.04,1.12h-.71l-.04-.76h-.02c-.24.49-.77.85-1.49.85-1.05,0-1.86-.89-1.86-2.21,0-1.45.89-2.34,1.95-2.34.67,0,1.12.31,1.31.67h.02v-2.6h.79ZM410.6,334.06c0-.1,0-.23-.04-.33-.12-.5-.55-.92-1.14-.92-.82,0-1.3.72-1.3,1.68,0,.88.43,1.61,1.29,1.61.53,0,1.02-.35,1.16-.95.03-.11.04-.22.04-.34v-.76Z"/>
    <path class="cls-11" d="M418.56,334.43c0,1.61-1.12,2.31-2.17,2.31-1.18,0-2.09-.86-2.09-2.24,0-1.46.95-2.31,2.16-2.31s2.1.91,2.1,2.24ZM415.1,334.48c0,.95.55,1.67,1.32,1.67s1.32-.71,1.32-1.69c0-.74-.37-1.67-1.31-1.67s-1.34.86-1.34,1.69Z"/>
    <path class="cls-11" d="M419.56,333.47c0-.45,0-.82-.04-1.18h.7l.04.72h.02c.22-.41.72-.82,1.44-.82.6,0,1.54.36,1.54,1.85v2.6h-.79v-2.51c0-.7-.26-1.29-1.01-1.29-.52,0-.93.37-1.06.81-.04.1-.05.23-.05.37v2.62h-.79v-3.18Z"/>
    <path class="cls-11" d="M430.11,335.46c0,.45,0,.85.04,1.19h-.7l-.04-.71h-.02c-.21.35-.67.81-1.44.81-.68,0-1.5-.38-1.5-1.91v-2.55h.79v2.41c0,.83.25,1.39.97,1.39.53,0,.9-.37,1.04-.72.04-.12.07-.26.07-.41v-2.67h.79v3.17Z"/>
    <path class="cls-11" d="M431.31,335.83c.23.15.65.32,1.04.32.58,0,.85-.29.85-.65s-.22-.58-.81-.8c-.78-.28-1.15-.71-1.15-1.23,0-.7.57-1.28,1.5-1.28.44,0,.83.13,1.07.27l-.2.58c-.17-.11-.49-.25-.89-.25-.47,0-.73.27-.73.59,0,.36.26.52.83.74.76.29,1.14.67,1.14,1.31,0,.77-.59,1.31-1.63,1.31-.48,0-.92-.12-1.22-.3l.2-.6Z"/>
    <path class="cls-11" d="M435.43,334.61c.02,1.07.7,1.51,1.49,1.51.57,0,.91-.1,1.21-.22l.14.57c-.28.13-.76.27-1.45.27-1.34,0-2.14-.88-2.14-2.2s.77-2.35,2.04-2.35c1.42,0,1.8,1.25,1.8,2.05,0,.16-.02.29-.03.37h-3.06ZM437.75,334.04c0-.5-.21-1.29-1.1-1.29-.8,0-1.15.74-1.21,1.29h2.31Z"/>
    <path class="cls-11" d="M439.49,333.65c0-.51,0-.95-.04-1.36h.69l.03.86h.04c.2-.58.68-.95,1.21-.95.09,0,.15,0,.22.03v.75c-.08-.02-.16-.03-.27-.03-.56,0-.95.42-1.06,1.02-.02.11-.04.23-.04.37v2.32h-.78v-3Z"/>
    <path class="cls-11" d="M444.34,333.65c0-.51,0-.95-.04-1.36h.69l.03.86h.04c.2-.58.68-.95,1.21-.95.09,0,.15,0,.22.03v.75c-.08-.02-.16-.03-.27-.03-.56,0-.95.42-1.06,1.02-.02.11-.04.23-.04.37v2.32h-.78v-3Z"/>
    <path class="cls-11" d="M447.64,334.61c.02,1.07.7,1.51,1.49,1.51.57,0,.91-.1,1.21-.22l.14.57c-.28.13-.76.27-1.45.27-1.34,0-2.14-.88-2.14-2.2s.77-2.35,2.04-2.35c1.42,0,1.8,1.25,1.8,2.05,0,.16-.02.29-.03.37h-3.06ZM449.96,334.04c0-.5-.21-1.29-1.1-1.29-.8,0-1.15.74-1.21,1.29h2.31Z"/>
    <path class="cls-11" d="M454.68,335.97h-.02c-.23.43-.72.77-1.42.77-1.02,0-1.85-.88-1.85-2.21,0-1.63,1.05-2.35,1.97-2.35.68,0,1.13.33,1.34.76h.02l.03-.66h.75c-.02.37-.03.75-.03,1.2v4.94h-.79v-2.46ZM454.68,334.05c0-.11,0-.23-.04-.33-.12-.49-.54-.9-1.13-.9-.82,0-1.31.69-1.31,1.67,0,.86.41,1.62,1.29,1.62.51,0,.95-.32,1.13-.86.04-.11.06-.26.06-.38v-.82Z"/>
    <path class="cls-11" d="M460.42,335.46c0,.45,0,.85.04,1.19h-.7l-.04-.71h-.02c-.21.35-.67.81-1.44.81-.68,0-1.5-.38-1.5-1.91v-2.55h.79v2.41c0,.83.25,1.39.97,1.39.53,0,.9-.37,1.04-.72.04-.12.07-.26.07-.41v-2.67h.79v3.17Z"/>
    <path class="cls-11" d="M462.61,331.06c0,.27-.19.49-.5.49-.28,0-.48-.22-.48-.49s.21-.5.5-.5.49.22.49.5ZM461.73,336.65v-4.36h.79v4.36h-.79Z"/>
    <path class="cls-11" d="M463.84,333.65c0-.51,0-.95-.04-1.36h.69l.03.86h.04c.2-.58.68-.95,1.21-.95.09,0,.15,0,.22.03v.75c-.08-.02-.16-.03-.27-.03-.56,0-.96.42-1.06,1.02-.02.11-.04.23-.04.37v2.32h-.78v-3Z"/>
    <path class="cls-11" d="M467.13,334.61c.02,1.07.7,1.51,1.49,1.51.57,0,.91-.1,1.21-.22l.14.57c-.28.13-.76.27-1.45.27-1.34,0-2.14-.88-2.14-2.2s.77-2.35,2.04-2.35c1.42,0,1.8,1.25,1.8,2.05,0,.16-.02.29-.03.37h-3.06ZM469.45,334.04c0-.5-.21-1.29-1.1-1.29-.8,0-1.15.74-1.21,1.29h2.31Z"/>
    <path class="cls-11" d="M471.2,333.47c0-.45,0-.82-.04-1.18h.69l.04.7h.03c.24-.41.65-.8,1.37-.8.59,0,1.04.36,1.23.87h.02c.13-.24.31-.43.49-.57.26-.2.55-.31.96-.31.58,0,1.43.38,1.43,1.89v2.57h-.77v-2.47c0-.84-.31-1.34-.95-1.34-.45,0-.8.33-.94.72-.04.11-.06.25-.06.4v2.69h-.77v-2.61c0-.69-.31-1.2-.91-1.2-.5,0-.86.4-.98.79-.04.12-.06.25-.06.39v2.63h-.77v-3.18Z"/>
    <path class="cls-11" d="M479.15,334.61c.02,1.07.7,1.51,1.49,1.51.57,0,.91-.1,1.21-.22l.14.57c-.28.13-.76.27-1.45.27-1.34,0-2.14-.88-2.14-2.2s.77-2.35,2.04-2.35c1.42,0,1.8,1.25,1.8,2.05,0,.16-.02.29-.03.37h-3.06ZM481.47,334.04c0-.5-.21-1.29-1.1-1.29-.8,0-1.15.74-1.21,1.29h2.31Z"/>
    <path class="cls-11" d="M483.21,333.47c0-.45,0-.82-.04-1.18h.7l.04.72h.02c.22-.41.72-.82,1.44-.82.6,0,1.54.36,1.54,1.85v2.6h-.79v-2.51c0-.7-.26-1.29-1.01-1.29-.52,0-.93.37-1.06.81-.04.1-.05.23-.05.37v2.62h-.79v-3.18Z"/>
    <path class="cls-11" d="M489.13,331.04v1.25h1.13v.6h-1.13v2.35c0,.54.15.85.59.85.21,0,.36-.03.46-.05l.04.59c-.15.06-.4.11-.7.11-.37,0-.67-.12-.86-.33-.23-.23-.31-.62-.31-1.13v-2.38h-.67v-.6h.67v-1.04l.77-.21Z"/>
    <path class="cls-11" d="M491.04,335.83c.23.15.65.32,1.04.32.58,0,.85-.29.85-.65s-.22-.58-.81-.8c-.78-.28-1.15-.71-1.15-1.23,0-.7.57-1.28,1.5-1.28.44,0,.83.13,1.07.27l-.2.58c-.17-.11-.49-.25-.89-.25-.47,0-.73.27-.73.59,0,.36.26.52.83.74.76.29,1.14.67,1.14,1.31,0,.77-.59,1.31-1.63,1.31-.48,0-.92-.12-1.22-.3l.2-.6Z"/>
  </g>
  <g>
    <g>
      <line class="cls-5" x1="386.59" y1="365.07" x2="494.25" y2="365.07"/>
      <polygon class="cls-11" points="490.11 379.2 514.59 365.07 490.11 350.93 490.11 379.2"/>
    </g>
    <g>
      <rect class="cls-6" x="390.63" y="356.13" width="94.96" height="17.93"/>
      <path class="cls-3" d="M408.3,361.57c.35.21.86.4,1.4.4.8,0,1.27-.42,1.27-1.04,0-.57-.32-.89-1.14-1.21-.99-.35-1.6-.87-1.6-1.72,0-.95.78-1.65,1.96-1.65.62,0,1.07.14,1.34.3l-.22.64c-.2-.11-.6-.29-1.15-.29-.83,0-1.14.49-1.14.91,0,.57.37.85,1.21,1.17,1.03.4,1.55.89,1.55,1.78,0,.94-.69,1.75-2.12,1.75-.58,0-1.22-.17-1.55-.39l.2-.66Z"/>
      <path class="cls-3" d="M412.82,359.59c0-.56-.02-1.01-.04-1.42h.71l.04.75h.02c.32-.53.84-.85,1.55-.85,1.05,0,1.85.89,1.85,2.21,0,1.57-.95,2.34-1.98,2.34-.58,0-1.08-.25-1.34-.68h-.02v2.37h-.78v-4.72ZM413.6,360.75c0,.12.02.23.04.32.14.55.62.93,1.19.93.84,0,1.32-.68,1.32-1.68,0-.87-.46-1.62-1.3-1.62-.54,0-1.04.39-1.2.98-.03.1-.05.21-.05.32v.75Z"/>
      <path class="cls-3" d="M417.94,356.13h.79v6.39h-.79v-6.39Z"/>
      <path class="cls-3" d="M420.95,356.94c0,.27-.19.49-.5.49-.28,0-.48-.21-.48-.49s.21-.5.5-.5.49.22.49.5ZM420.06,362.52v-4.36h.79v4.36h-.79Z"/>
      <path class="cls-3" d="M423.12,356.91v1.25h1.13v.6h-1.13v2.35c0,.54.15.85.59.85.21,0,.36-.03.46-.05l.04.59c-.15.06-.4.11-.7.11-.37,0-.67-.12-.86-.33-.23-.23-.31-.62-.31-1.13v-2.38h-.67v-.6h.67v-1.04l.77-.21Z"/>
      <path class="cls-3" d="M427.94,356.94c0,.27-.19.49-.5.49-.28,0-.48-.21-.48-.49s.21-.5.5-.5.49.22.49.5ZM427.06,362.52v-4.36h.79v4.36h-.79Z"/>
      <path class="cls-3" d="M429.16,359.34c0-.45,0-.82-.04-1.18h.7l.04.72h.02c.22-.41.72-.82,1.44-.82.6,0,1.54.36,1.54,1.85v2.6h-.79v-2.51c0-.7-.26-1.29-1.01-1.29-.52,0-.93.37-1.06.81-.04.1-.05.23-.05.37v2.62h-.79v-3.18Z"/>
      <path class="cls-3" d="M435.07,356.91v1.25h1.13v.6h-1.13v2.35c0,.54.15.85.59.85.21,0,.36-.03.46-.05l.04.59c-.15.06-.4.11-.7.11-.37,0-.67-.12-.86-.33-.23-.23-.31-.62-.31-1.13v-2.38h-.67v-.6h.67v-1.04l.77-.21Z"/>
      <path class="cls-3" d="M440.99,360.31c0,1.61-1.12,2.31-2.17,2.31-1.18,0-2.09-.86-2.09-2.24,0-1.46.96-2.31,2.16-2.31s2.1.91,2.1,2.24ZM437.53,360.35c0,.95.55,1.67,1.32,1.67s1.32-.71,1.32-1.69c0-.74-.37-1.67-1.31-1.67s-1.34.86-1.34,1.69Z"/>
      <path class="cls-3" d="M443.64,362.52v-.49l.62-.6c1.49-1.42,2.17-2.18,2.18-3.06,0-.59-.29-1.14-1.16-1.14-.53,0-.97.27-1.24.5l-.25-.56c.41-.34.98-.59,1.66-.59,1.26,0,1.79.86,1.79,1.7,0,1.08-.78,1.95-2.02,3.14l-.47.43v.02h2.63v.66h-3.74Z"/>
      <path class="cls-3" d="M450.34,361.57c.35.21.86.4,1.4.4.8,0,1.27-.42,1.27-1.04,0-.57-.32-.89-1.14-1.21-.99-.35-1.6-.87-1.6-1.72,0-.95.78-1.65,1.96-1.65.62,0,1.07.14,1.34.3l-.22.64c-.2-.11-.6-.29-1.15-.29-.83,0-1.14.49-1.14.91,0,.57.37.85,1.21,1.17,1.03.4,1.55.89,1.55,1.78,0,.94-.69,1.75-2.12,1.75-.58,0-1.22-.17-1.55-.39l.2-.66Z"/>
      <path class="cls-3" d="M458.85,360.31c0,1.61-1.12,2.31-2.17,2.31-1.18,0-2.09-.86-2.09-2.24,0-1.46.96-2.31,2.16-2.31s2.1.91,2.1,2.24ZM455.4,360.35c0,.95.55,1.67,1.32,1.67s1.32-.71,1.32-1.69c0-.74-.37-1.67-1.31-1.67s-1.34.86-1.34,1.69Z"/>
      <path class="cls-3" d="M459.85,356.13h.79v6.39h-.79v-6.39Z"/>
      <path class="cls-3" d="M462.86,356.94c0,.27-.19.49-.5.49-.28,0-.48-.21-.48-.49s.21-.5.5-.5.49.22.49.5ZM461.98,362.52v-4.36h.79v4.36h-.79Z"/>
      <path class="cls-3" d="M467.84,356.13v5.27c0,.39,0,.83.04,1.12h-.71l-.04-.76h-.02c-.24.49-.77.86-1.49.86-1.05,0-1.86-.89-1.86-2.21,0-1.45.89-2.34,1.95-2.34.67,0,1.12.32,1.31.67h.02v-2.6h.79ZM467.05,359.94c0-.1,0-.23-.04-.33-.12-.5-.55-.92-1.14-.92-.82,0-1.3.72-1.3,1.68,0,.88.43,1.61,1.29,1.61.53,0,1.02-.35,1.16-.95.03-.11.04-.22.04-.34v-.76Z"/>
    </g>
  </g>
</svg>