<?xml version="1.0" encoding="UTF-8"?>
<svg id="Solidinteraction" xmlns="http://www.w3.org/2000/svg" viewBox="0 0 657.58 427.6">
  <defs>
    <style>
      .cls-1 {
        font-size: 4px;
      }

      .cls-1, .cls-2, .cls-3, .cls-4, .cls-5, .cls-6, .cls-7, .cls-8 {
        font-family: MyriadPro-Regular, 'Myriad Pro';
      }

      .cls-1, .cls-2, .cls-5, .cls-6, .cls-8 {
        fill: #fff;
      }

      .cls-2 {
        font-size: 6.6px;
      }

      .cls-9 {
        letter-spacing: 0em;
      }

      .cls-10 {
        stroke-dasharray: 4.19 4.19;
      }

      .cls-10, .cls-11, .cls-12, .cls-13, .cls-14, .cls-15, .cls-16, .cls-17, .cls-18, .cls-19, .cls-20 {
        stroke-miterlimit: 10;
      }

      .cls-10, .cls-11, .cls-12, .cls-13, .cls-14, .cls-15, .cls-17, .cls-18, .cls-19, .cls-20 {
        stroke: #437898;
      }

      .cls-10, .cls-11, .cls-12, .cls-13, .cls-14, .cls-15, .cls-18, .cls-19 {
        stroke-width: 2px;
      }

      .cls-10, .cls-11, .cls-12, .cls-13, .cls-16, .cls-17, .cls-18, .cls-19, .cls-20 {
        fill: none;
      }

      .cls-21 {
        opacity: .55;
      }

      .cls-21, .cls-22, .cls-15 {
        fill: #437898;
      }

      .cls-23, .cls-7 {
        fill: #231f20;
      }

      .cls-22 {
        opacity: .5;
      }

      .cls-12 {
        stroke-dasharray: 5.69 5.69;
      }

      .cls-24 {
        letter-spacing: 0em;
      }

      .cls-13 {
        stroke-dasharray: 5.9 5.9;
      }

      .cls-25 {
        letter-spacing: 0em;
      }

      .cls-26 {
        opacity: .31;
      }

      .cls-26, .cls-14 {
        fill: #6dbae7;
      }

      .cls-14 {
        stroke-dasharray: 5.67;
      }

      .cls-27 {
        letter-spacing: 0em;
      }

      .cls-16 {
        stroke: #9b9a9a;
      }

      .cls-16, .cls-17, .cls-20 {
        stroke-width: 2.83px;
      }

      .cls-28 {
        letter-spacing: -.01em;
      }

      .cls-29 {
        fill: #9b9a9a;
      }

      .cls-3 {
        fill: #39b54a;
      }

      .cls-3, .cls-4 {
        font-size: 72px;
      }

      .cls-4 {
        fill: #c92027;
      }

      .cls-5 {
        font-size: 5px;
      }

      .cls-6 {
        font-size: 5.94px;
      }

      .cls-7 {
        font-size: 9px;
      }

      .cls-18 {
        stroke-dasharray: 6.35 6.35;
      }

      .cls-30 {
        letter-spacing: 0em;
      }

      .cls-8 {
        font-size: 6px;
      }

      .cls-31 {
        letter-spacing: .01em;
      }

      .cls-19 {
        stroke-dasharray: 6.3 6.3;
      }

      .cls-32 {
        letter-spacing: 0em;
      }

      .cls-33 {
        letter-spacing: 0em;
      }

      .cls-20 {
        stroke-dasharray: 5.67;
      }

      .cls-34 {
        letter-spacing: 0em;
      }

      .cls-35 {
        letter-spacing: 0em;
      }
    </style>
  </defs>
  <g>
    <g>
      <line class="cls-16" x1="178.59" y1="235.07" x2="286.25" y2="235.07"/>
      <polygon class="cls-29" points="282.11 249.2 306.59 235.07 282.11 220.93 282.11 249.2"/>
    </g>
    <text class="cls-7" transform="translate(189.63 232.52)"><tspan class="cls-31" x="0" y="0">O</tspan><tspan class="cls-32" x="6.33" y="0">v</tspan><tspan x="10.57" y="0">e</tspan><tspan class="cls-25" x="15.08" y="0">r</tspan><tspan x="18.05" y="0">lap ab</tspan><tspan class="cls-27" x="41" y="0">o</tspan><tspan class="cls-32" x="45.88" y="0">v</tspan><tspan x="50.12" y="0">e me</tspan><tspan class="cls-34" x="68.55" y="0">r</tspan><tspan x="71.42" y="0">ge </tspan><tspan class="cls-35" x="22.87" y="10.8">t</tspan><tspan x="25.8" y="10.8">ole</tspan><tspan class="cls-24" x="37.37" y="10.8">r</tspan><tspan x="40.27" y="10.8">an</tspan><tspan class="cls-30" x="49.6" y="10.8">c</tspan><tspan x="53.58" y="10.8">e</tspan></text>
  </g>
  <g>
    <g>
      <line class="cls-16" x1="336.67" y1="287.63" x2="444.33" y2="287.63"/>
      <polygon class="cls-29" points="440.2 301.77 464.67 287.63 440.2 273.5 440.2 301.77"/>
    </g>
    <text class="cls-7" transform="translate(342.77 284.09)"><tspan class="cls-33" x="0" y="0">M</tspan><tspan x="7.29" y="0">ake a union </tspan><tspan class="cls-35" x="52.42" y="0">c</tspan><tspan x="56.39" y="0">o</tspan><tspan class="cls-9" x="61.34" y="0">n</tspan><tspan x="66.29" y="0">taining </tspan><tspan x="29.34" y="10.8">one solid</tspan></text>
  </g>
  <g>
    <g>
      <line class="cls-16" x1="335.67" y1="125.63" x2="443.33" y2="125.63"/>
      <polygon class="cls-29" points="439.2 139.77 463.67 125.63 439.2 111.5 439.2 139.77"/>
    </g>
    <text class="cls-7" transform="translate(345.24 123.09)"><tspan class="cls-33" x="0" y="0">S</tspan><tspan x="4.49" y="0">e</tspan><tspan class="cls-35" x="9" y="0">c</tspan><tspan x="12.98" y="0">ond solid only gets </tspan><tspan x="15.92" y="10.8">the di</tspan><tspan class="cls-28" x="37.5" y="10.8">ff</tspan><tspan x="42.63" y="10.8">e</tspan><tspan class="cls-32" x="47.14" y="10.8">r</tspan><tspan x="49.99" y="10.8">en</tspan><tspan class="cls-35" x="59.49" y="10.8">c</tspan><tspan x="63.47" y="10.8">e</tspan></text>
  </g>
  <text class="cls-4" transform="translate(303.55 142.09)"><tspan x="0" y="0">x</tspan></text>
  <text class="cls-3" transform="translate(304.03 303.12)"><tspan x="0" y="0">v</tspan></text>
  <g>
    <rect class="cls-26" x="90.64" y="169.16" width="81.82" height="75.88"/>
    <polyline class="cls-26" points="89.32 169.16 89.32 169.16 90.31 245.38 75.5 266.92 76.46 189.29 90.64 169.16"/>
    <line class="cls-17" x1="172.8" y1="169.49" x2="90.31" y2="169.49"/>
    <line class="cls-17" x1="157.62" y1="189.29" x2="172.8" y2="169.49"/>
    <line class="cls-17" x1="160.26" y1="268.47" x2="173.46" y2="246.04"/>
    <line class="cls-17" x1="172.8" y1="169.49" x2="172.8" y2="246.04"/>
    <line class="cls-20" x1="90.31" y1="169.49" x2="90.31" y2="245.38"/>
    <line class="cls-20" x1="172.8" y1="245.38" x2="88.99" y2="245.38"/>
    <polyline class="cls-20" points="90.31 245.38 77.12 265.83 90.31 245.38"/>
    <polygon class="cls-22" points="90.31 169.49 77.17 189 158.7 189.5 172.97 168.81 90.31 169.49"/>
    <polyline class="cls-22" points="76.21 266.7 90.31 245.38 172.8 246.04 159.6 266.49"/>
    <polygon class="cls-22" points="158.7 189.5 172.28 170.11 171.59 247.7 158.29 266.84 158.7 189.5"/>
    <circle class="cls-23" cx="89.41" cy="245.59" r="5.11"/>
    <text class="cls-5" transform="translate(87.77 247.36)"><tspan x="0" y="0">N</tspan></text>
    <circle class="cls-23" cx="172.55" cy="245.59" r="5.11"/>
    <text class="cls-5" transform="translate(170.83 247.36)"><tspan x="0" y="0">O</tspan></text>
    <circle class="cls-23" cx="171.89" cy="168.39" r="5.11"/>
    <text class="cls-6" transform="translate(170.31 170.49)"><tspan x="0" y="0">P</tspan></text>
    <rect class="cls-22" x="77.45" y="190.28" width="81.82" height="75.88"/>
    <g>
      <line class="cls-11" x1="77.45" y1="190.28" x2="77.45" y2="193.28"/>
      <line class="cls-18" x1="77.45" y1="199.63" x2="77.45" y2="259.99"/>
      <polyline class="cls-11" points="77.45 263.16 77.45 266.16 80.45 266.2"/>
      <line class="cls-13" x1="86.34" y1="266.26" x2="118.77" y2="266.64"/>
      <line class="cls-11" x1="121.71" y1="266.67" x2="124.71" y2="266.7"/>
    </g>
    <circle class="cls-23" cx="76.21" cy="266.7" r="5.11"/>
    <text class="cls-2" transform="translate(74.99 269.05)"><tspan x="0" y="0">J</tspan></text>
    <g>
      <rect class="cls-26" x="49.65" y="179.71" width="81.82" height="75.88"/>
      <polyline class="cls-26" points="48.33 179.71 48.33 179.71 49.32 255.92 34.51 277.46 35.46 199.83 49.65 179.71"/>
      <polygon class="cls-26" points="49.32 180.04 36.18 199.55 117.7 200.05 131.97 179.35 49.32 180.04"/>
      <line class="cls-17" x1="131.8" y1="180.04" x2="49.32" y2="180.04"/>
      <line class="cls-17" x1="116.63" y1="199.83" x2="131.8" y2="180.04"/>
      <line class="cls-17" x1="119.26" y1="279.02" x2="132.46" y2="256.58"/>
      <line class="cls-17" x1="131.8" y1="180.04" x2="131.8" y2="256.58"/>
      <line class="cls-20" x1="49.32" y1="180.04" x2="49.32" y2="255.92"/>
      <line class="cls-17" x1="35.31" y1="199.47" x2="50.48" y2="179.67"/>
      <line class="cls-20" x1="131.8" y1="255.92" x2="48" y2="255.92"/>
      <polyline class="cls-20" points="49.32 255.92 36.12 276.38 49.32 255.92"/>
      <polyline class="cls-26" points="35.22 277.25 49.32 255.92 131.8 256.58 118.6 277.04"/>
      <polygon class="cls-26" points="117.7 200.05 131.29 180.65 130.59 258.24 117.29 277.39 117.7 200.05"/>
      <circle class="cls-23" cx="49.16" cy="179.21" r="5.11"/>
      <text class="cls-2" transform="translate(47.53 181.56)"><tspan x="0" y="0">E</tspan></text>
      <circle class="cls-23" cx="131.56" cy="256.13" r="5.11"/>
      <text class="cls-6" transform="translate(129.62 258.24)"><tspan x="0" y="0">H</tspan></text>
      <circle class="cls-23" cx="48.42" cy="256.13" r="5.11"/>
      <text class="cls-2" transform="translate(46.81 258.47)"><tspan x="0" y="0">F</tspan></text>
      <circle class="cls-23" cx="130.9" cy="178.93" r="5.11"/>
      <text class="cls-6" transform="translate(128.98 181.04)"><tspan x="0" y="0">G</tspan></text>
      <rect class="cls-26" x="36.45" y="200.82" width="81.82" height="75.88"/>
      <rect class="cls-17" x="35.46" y="199.83" width="83.14" height="77.2"/>
      <circle class="cls-23" cx="35.96" cy="200.33" r="5.11"/>
      <text class="cls-2" transform="translate(33.94 202.67)"><tspan x="0" y="0">A</tspan></text>
      <circle class="cls-23" cx="118.36" cy="277.25" r="5.11"/>
      <text class="cls-2" transform="translate(116.45 279.59)"><tspan x="0" y="0">C</tspan></text>
      <circle class="cls-23" cx="35.22" cy="277.25" r="5.11"/>
      <text class="cls-2" transform="translate(33.43 279.59)"><tspan x="0" y="0">B</tspan></text>
      <circle class="cls-23" cx="117.7" cy="200.05" r="5.11"/>
      <text class="cls-6" transform="translate(115.72 202.15)"><tspan x="0" y="0">D</tspan></text>
    </g>
    <line class="cls-17" x1="76.3" y1="188.92" x2="91.48" y2="169.13"/>
    <circle class="cls-23" cx="90.15" cy="168.67" r="5.11"/>
    <text class="cls-5" transform="translate(88.14 170.44)"><tspan x="0" y="0">M</tspan></text>
    <line class="cls-15" x1="77.45" y1="190.28" x2="157.75" y2="190.28"/>
    <line class="cls-11" x1="126.63" y1="266.49" x2="159.6" y2="266.49"/>
    <line class="cls-15" x1="159.6" y1="266.49" x2="159.27" y2="190.28"/>
    <circle class="cls-23" cx="159.36" cy="266.7" r="5.11"/>
    <text class="cls-2" transform="translate(157.57 269.05)"><tspan x="0" y="0">K</tspan></text>
    <circle class="cls-23" cx="158.7" cy="189.5" r="5.11"/>
    <text class="cls-6" transform="translate(157.29 191.61)"><tspan x="0" y="0">L</tspan></text>
    <circle class="cls-23" cx="76.95" cy="189.78" r="5.11"/>
    <text class="cls-8" transform="translate(76.23 191.91)"><tspan x="0" y="0">I</tspan></text>
  </g>
  <g>
    <rect class="cls-26" x="71.3" y="307.24" width="81.82" height="75.88"/>
    <polyline class="cls-26" points="69.98 307.24 69.98 307.24 70.97 383.45 56.16 404.99 57.11 327.36 71.3 307.24"/>
    <line class="cls-17" x1="153.45" y1="307.57" x2="70.97" y2="307.57"/>
    <line class="cls-17" x1="138.27" y1="327.36" x2="153.45" y2="307.57"/>
    <line class="cls-17" x1="140.91" y1="406.54" x2="154.11" y2="384.11"/>
    <line class="cls-17" x1="153.45" y1="307.57" x2="153.45" y2="384.11"/>
    <line class="cls-20" x1="70.97" y1="307.57" x2="70.97" y2="383.45"/>
    <line class="cls-20" x1="153.45" y1="383.45" x2="69.65" y2="383.45"/>
    <polyline class="cls-20" points="70.97 383.45 57.77 403.9 70.97 383.45"/>
    <polygon class="cls-22" points="70.97 307.57 57.83 327.07 139.35 327.57 153.62 306.88 70.97 307.57"/>
    <polyline class="cls-22" points="56.87 404.78 70.97 383.45 153.45 384.11 140.25 404.56"/>
    <polygon class="cls-22" points="139.35 327.57 152.93 308.18 152.24 385.77 138.94 404.91 139.35 327.57"/>
    <circle class="cls-23" cx="70.07" cy="383.66" r="5.11"/>
    <text class="cls-5" transform="translate(68.42 385.44)"><tspan x="0" y="0">N</tspan></text>
    <circle class="cls-23" cx="153.21" cy="383.66" r="5.11"/>
    <text class="cls-5" transform="translate(151.49 385.44)"><tspan x="0" y="0">O</tspan></text>
    <circle class="cls-23" cx="152.55" cy="306.46" r="5.11"/>
    <text class="cls-6" transform="translate(150.97 308.57)"><tspan x="0" y="0">P</tspan></text>
    <rect class="cls-22" x="58.1" y="328.35" width="81.82" height="75.88"/>
    <g>
      <line class="cls-11" x1="58.1" y1="328.35" x2="58.1" y2="331.35"/>
      <line class="cls-18" x1="58.1" y1="337.7" x2="58.1" y2="398.06"/>
      <polyline class="cls-11" points="58.1 401.23 58.1 404.23 61.1 404.26"/>
      <line class="cls-12" x1="66.79" y1="404.3" x2="120.83" y2="404.73"/>
      <line class="cls-11" x1="123.67" y1="404.75" x2="126.67" y2="404.78"/>
    </g>
    <circle class="cls-23" cx="56.87" cy="404.78" r="5.11"/>
    <text class="cls-2" transform="translate(55.65 407.12)"><tspan x="0" y="0">J</tspan></text>
    <g>
      <rect class="cls-26" x="51.31" y="314.78" width="81.82" height="75.88"/>
      <polyline class="cls-26" points="49.99 314.78 49.99 314.78 50.98 390.99 36.16 412.53 37.12 334.91 51.31 314.78"/>
      <polygon class="cls-26" points="50.98 315.11 37.84 334.62 119.36 335.12 133.63 314.42 50.98 315.11"/>
      <line class="cls-17" x1="133.46" y1="315.11" x2="50.98" y2="315.11"/>
      <line class="cls-17" x1="118.28" y1="334.91" x2="133.46" y2="315.11"/>
      <line class="cls-17" x1="120.92" y1="414.09" x2="134.12" y2="391.65"/>
      <line class="cls-17" x1="133.46" y1="315.11" x2="133.46" y2="391.65"/>
      <line class="cls-20" x1="50.98" y1="315.11" x2="50.98" y2="390.99"/>
      <line class="cls-17" x1="36.96" y1="334.54" x2="52.14" y2="314.75"/>
      <line class="cls-20" x1="133.46" y1="390.99" x2="49.66" y2="390.99"/>
      <polyline class="cls-20" points="50.98 390.99 37.78 411.45 50.98 390.99"/>
      <polyline class="cls-26" points="36.88 412.32 50.98 390.99 133.46 391.65 120.26 412.11"/>
      <polygon class="cls-26" points="119.36 335.12 132.94 315.72 132.25 393.31 118.95 412.46 119.36 335.12"/>
      <circle class="cls-23" cx="50.81" cy="314.29" r="5.11"/>
      <text class="cls-2" transform="translate(49.19 316.63)"><tspan x="0" y="0">E</tspan></text>
      <circle class="cls-23" cx="133.21" cy="391.2" r="5.11"/>
      <text class="cls-6" transform="translate(131.28 393.31)"><tspan x="0" y="0">H</tspan></text>
      <circle class="cls-23" cx="50.07" cy="391.2" r="5.11"/>
      <text class="cls-2" transform="translate(48.47 393.55)"><tspan x="0" y="0">F</tspan></text>
      <circle class="cls-23" cx="132.55" cy="314" r="5.11"/>
      <text class="cls-6" transform="translate(130.64 316.11)"><tspan x="0" y="0">G</tspan></text>
      <rect class="cls-26" x="38.11" y="335.9" width="81.82" height="75.88"/>
      <rect class="cls-17" x="37.12" y="334.91" width="83.14" height="77.2"/>
      <circle class="cls-23" cx="37.61" cy="335.4" r="5.11"/>
      <text class="cls-2" transform="translate(35.59 337.74)"><tspan x="0" y="0">A</tspan></text>
      <circle class="cls-23" cx="120.02" cy="412.32" r="5.11"/>
      <text class="cls-2" transform="translate(118.1 414.66)"><tspan x="0" y="0">C</tspan></text>
      <circle class="cls-23" cx="36.88" cy="412.32" r="5.11"/>
      <text class="cls-2" transform="translate(35.09 414.66)"><tspan x="0" y="0">B</tspan></text>
      <circle class="cls-23" cx="119.36" cy="335.12" r="5.11"/>
      <text class="cls-6" transform="translate(117.38 337.23)"><tspan x="0" y="0">D</tspan></text>
    </g>
    <line class="cls-17" x1="56.96" y1="327" x2="72.13" y2="307.2"/>
    <circle class="cls-23" cx="70.8" cy="306.74" r="5.11"/>
    <text class="cls-5" transform="translate(68.79 308.52)"><tspan x="0" y="0">M</tspan></text>
    <line class="cls-15" x1="58.1" y1="328.35" x2="138.4" y2="328.35"/>
    <line class="cls-11" x1="124.67" y1="404.56" x2="140.25" y2="404.56"/>
    <line class="cls-15" x1="140.25" y1="404.56" x2="139.92" y2="328.35"/>
    <circle class="cls-23" cx="140.01" cy="404.78" r="5.11"/>
    <text class="cls-2" transform="translate(138.22 407.12)"><tspan x="0" y="0">K</tspan></text>
    <circle class="cls-23" cx="139.35" cy="327.57" r="5.11"/>
    <text class="cls-6" transform="translate(137.95 329.68)"><tspan x="0" y="0">L</tspan></text>
    <circle class="cls-23" cx="57.61" cy="327.86" r="5.11"/>
    <text class="cls-8" transform="translate(56.89 329.99)"><tspan x="0" y="0">I</tspan></text>
  </g>
  <g>
    <rect class="cls-26" x="126.3" y="29.24" width="81.82" height="75.88"/>
    <polyline class="cls-26" points="124.98 29.24 124.98 29.24 125.97 105.45 111.16 126.99 112.11 49.36 126.3 29.24"/>
    <line class="cls-17" x1="208.45" y1="29.57" x2="125.97" y2="29.57"/>
    <line class="cls-17" x1="193.27" y1="49.36" x2="208.45" y2="29.57"/>
    <line class="cls-17" x1="195.91" y1="128.54" x2="209.11" y2="106.11"/>
    <line class="cls-17" x1="208.45" y1="29.57" x2="208.45" y2="106.11"/>
    <line class="cls-20" x1="125.97" y1="29.57" x2="125.97" y2="105.45"/>
    <line class="cls-17" x1="111.96" y1="49" x2="127.13" y2="29.2"/>
    <line class="cls-20" x1="208.45" y1="105.45" x2="124.65" y2="105.45"/>
    <polyline class="cls-20" points="125.97 105.45 112.77 125.9 125.97 105.45"/>
    <polygon class="cls-22" points="125.97 29.57 112.83 49.07 194.35 49.57 208.62 28.88 125.97 29.57"/>
    <polyline class="cls-22" points="111.87 126.78 125.97 105.45 208.45 106.11 195.25 126.56"/>
    <polygon class="cls-22" points="194.35 49.57 207.93 30.18 207.24 107.77 193.94 126.91 194.35 49.57"/>
    <circle class="cls-23" cx="125.07" cy="105.66" r="5.11"/>
    <text class="cls-5" transform="translate(123.42 107.44)"><tspan x="0" y="0">N</tspan></text>
    <circle class="cls-23" cx="125.8" cy="28.74" r="5.11"/>
    <text class="cls-5" transform="translate(123.79 30.52)"><tspan x="0" y="0">M</tspan></text>
    <circle class="cls-23" cx="208.21" cy="105.66" r="5.11"/>
    <text class="cls-5" transform="translate(206.49 107.44)"><tspan x="0" y="0">O</tspan></text>
    <circle class="cls-23" cx="207.55" cy="28.46" r="5.11"/>
    <text class="cls-6" transform="translate(205.97 30.57)"><tspan x="0" y="0">P</tspan></text>
    <rect class="cls-22" x="113.1" y="50.35" width="81.82" height="75.88"/>
    <g>
      <line class="cls-11" x1="113.1" y1="50.35" x2="113.1" y2="53.35"/>
      <line class="cls-19" x1="113.1" y1="59.65" x2="113.1" y2="119.45"/>
      <polyline class="cls-11" points="113.1 122.6 113.1 125.6 116.1 125.68"/>
      <line class="cls-10" x1="120.29" y1="125.81" x2="126.58" y2="125.99"/>
      <line class="cls-11" x1="128.67" y1="126.05" x2="131.67" y2="126.13"/>
    </g>
    <circle class="cls-23" cx="111.87" cy="126.78" r="5.11"/>
    <text class="cls-2" transform="translate(110.65 129.12)"><tspan x="0" y="0">J</tspan></text>
    <g>
      <rect class="cls-26" x="51.31" y="43.78" width="81.82" height="75.88"/>
      <polyline class="cls-26" points="49.99 43.78 49.99 43.78 50.98 119.99 36.16 141.53 37.12 63.91 51.31 43.78"/>
      <polygon class="cls-26" points="50.98 44.11 37.84 63.62 119.36 64.12 133.63 43.42 50.98 44.11"/>
      <line class="cls-17" x1="133.46" y1="44.11" x2="50.98" y2="44.11"/>
      <line class="cls-17" x1="118.28" y1="63.91" x2="133.46" y2="44.11"/>
      <line class="cls-17" x1="120.92" y1="143.09" x2="134.12" y2="120.65"/>
      <line class="cls-17" x1="133.46" y1="44.11" x2="133.46" y2="120.65"/>
      <line class="cls-20" x1="50.98" y1="44.11" x2="50.98" y2="119.99"/>
      <line class="cls-17" x1="36.96" y1="63.54" x2="52.14" y2="43.75"/>
      <line class="cls-20" x1="133.46" y1="119.99" x2="49.66" y2="119.99"/>
      <polyline class="cls-20" points="50.98 119.99 37.78 140.45 50.98 119.99"/>
      <polyline class="cls-26" points="36.88 141.32 50.98 119.99 133.46 120.65 120.26 141.11"/>
      <polygon class="cls-26" points="119.36 64.12 132.94 44.72 132.25 122.31 118.95 141.46 119.36 64.12"/>
      <circle class="cls-23" cx="50.81" cy="43.29" r="5.11"/>
      <text class="cls-2" transform="translate(49.19 45.63)"><tspan x="0" y="0">E</tspan></text>
      <circle class="cls-23" cx="133.21" cy="120.2" r="5.11"/>
      <text class="cls-6" transform="translate(131.28 122.31)"><tspan x="0" y="0">H</tspan></text>
      <circle class="cls-23" cx="50.07" cy="120.2" r="5.11"/>
      <text class="cls-2" transform="translate(48.47 122.55)"><tspan x="0" y="0">F</tspan></text>
      <circle class="cls-23" cx="132.55" cy="43" r="5.11"/>
      <text class="cls-6" transform="translate(130.64 45.11)"><tspan x="0" y="0">G</tspan></text>
      <rect class="cls-26" x="38.11" y="64.9" width="81.82" height="75.88"/>
      <rect class="cls-17" x="37.12" y="63.91" width="83.14" height="77.2"/>
      <circle class="cls-23" cx="37.61" cy="64.4" r="5.11"/>
      <text class="cls-2" transform="translate(35.59 66.74)"><tspan x="0" y="0">A</tspan></text>
      <circle class="cls-23" cx="120.02" cy="141.32" r="5.11"/>
      <text class="cls-2" transform="translate(118.1 143.66)"><tspan x="0" y="0">C</tspan></text>
      <circle class="cls-23" cx="36.88" cy="141.32" r="5.11"/>
      <text class="cls-2" transform="translate(35.09 143.66)"><tspan x="0" y="0">B</tspan></text>
      <circle class="cls-23" cx="119.36" cy="64.12" r="5.11"/>
      <text class="cls-6" transform="translate(117.38 66.23)"><tspan x="0" y="0">D</tspan></text>
    </g>
    <line class="cls-15" x1="113.1" y1="50.35" x2="193.4" y2="50.35"/>
    <line class="cls-11" x1="131.67" y1="126.56" x2="195.25" y2="126.56"/>
    <line class="cls-15" x1="195.25" y1="126.56" x2="194.92" y2="50.35"/>
    <circle class="cls-23" cx="195.01" cy="126.78" r="5.11"/>
    <text class="cls-2" transform="translate(193.22 129.12)"><tspan x="0" y="0">K</tspan></text>
    <circle class="cls-23" cx="194.35" cy="49.57" r="5.11"/>
    <text class="cls-6" transform="translate(192.95 51.68)"><tspan x="0" y="0">L</tspan></text>
    <circle class="cls-23" cx="112.61" cy="49.86" r="5.11"/>
    <text class="cls-8" transform="translate(111.89 51.99)"><tspan x="0" y="0">I</tspan></text>
  </g>
  <g>
    <line class="cls-20" x1="528.18" y1="160.63" x2="528.18" y2="236.51"/>
    <line class="cls-20" x1="610.67" y1="236.51" x2="526.86" y2="236.51"/>
    <circle class="cls-23" cx="527.28" cy="236.73" r="5.11"/>
    <text class="cls-5" transform="translate(525.64 238.5)"><tspan x="0" y="0">N</tspan></text>
    <line class="cls-20" x1="487.19" y1="171.18" x2="487.19" y2="247.06"/>
    <line class="cls-20" x1="523.17" y1="246.63" x2="485.87" y2="247.06"/>
    <polyline class="cls-20" points="487.19 247.06 473.99 267.51 487.19 247.06"/>
    <circle class="cls-23" cx="522.43" cy="246.27" r="5.11"/>
    <text class="cls-6" transform="translate(520.49 248.38)"><tspan x="0" y="0">H</tspan></text>
    <circle class="cls-23" cx="486.29" cy="247.27" r="5.11"/>
    <text class="cls-2" transform="translate(484.68 249.61)"><tspan x="0" y="0">F</tspan></text>
    <polyline class="cls-26" points="474.05 190.68 488.35 170.81 519.61 171.18 528.18 160.63 610.67 160.63 611.33 237.17 597.47 257.63 564.17 257.63 557.33 268.39 474.61 269.46"/>
    <polyline class="cls-26" points="473.84 190.32 488.15 170.45 519.4 170.82 527.98 160.27 610.46 160.27 611.12 236.81 597.26 257.27 563.97 257.27 557.12 268.03 474.4 269.1"/>
    <line class="cls-17" x1="610.67" y1="160.63" x2="528.18" y2="160.63"/>
    <line class="cls-17" x1="595.49" y1="180.43" x2="610.67" y2="160.63"/>
    <line class="cls-17" x1="598.13" y1="259.61" x2="611.33" y2="237.17"/>
    <line class="cls-17" x1="610.67" y1="160.63" x2="610.67" y2="237.17"/>
    <line class="cls-17" x1="521.17" y1="170.63" x2="487.19" y2="171.18"/>
    <line class="cls-17" x1="554.5" y1="190.97" x2="561.17" y2="179.63"/>
    <line class="cls-17" x1="557.13" y1="270.15" x2="564.17" y2="257.63"/>
    <line class="cls-17" x1="473.18" y1="190.61" x2="488.35" y2="170.81"/>
    <line class="cls-11" x1="564.5" y1="257.63" x2="597.47" y2="257.63"/>
    <circle class="cls-23" cx="610.42" cy="236.73" r="5.11"/>
    <text class="cls-5" transform="translate(608.7 238.5)"><tspan x="0" y="0">O</tspan></text>
    <circle class="cls-23" cx="609.76" cy="159.52" r="5.11"/>
    <text class="cls-6" transform="translate(608.18 161.63)"><tspan x="0" y="0">P</tspan></text>
    <circle class="cls-23" cx="487.03" cy="170.35" r="5.11"/>
    <text class="cls-2" transform="translate(485.4 172.69)"><tspan x="0" y="0">E</tspan></text>
    <circle class="cls-23" cx="564.08" cy="257.84" r="5.11"/>
    <text class="cls-2" transform="translate(562.86 260.18)"><tspan x="0" y="0">J</tspan></text>
    <rect class="cls-17" x="473.33" y="190.97" width="83.14" height="77.2"/>
    <circle class="cls-23" cx="473.83" cy="191.47" r="5.11"/>
    <text class="cls-2" transform="translate(471.81 193.81)"><tspan x="0" y="0">A</tspan></text>
    <circle class="cls-23" cx="556.23" cy="268.39" r="5.11"/>
    <text class="cls-2" transform="translate(554.32 270.73)"><tspan x="0" y="0">C</tspan></text>
    <circle class="cls-23" cx="473.09" cy="268.39" r="5.11"/>
    <text class="cls-2" transform="translate(471.3 270.73)"><tspan x="0" y="0">B</tspan></text>
    <circle class="cls-23" cx="555.57" cy="191.18" r="5.11"/>
    <text class="cls-6" transform="translate(553.59 193.29)"><tspan x="0" y="0">D</tspan></text>
    <line class="cls-17" x1="521.17" y1="170.63" x2="529.35" y2="160.27"/>
    <circle class="cls-23" cx="520.77" cy="171.07" r="5.11"/>
    <text class="cls-6" transform="translate(518.85 173.18)"><tspan x="0" y="0">G</tspan></text>
    <circle class="cls-23" cx="528.02" cy="159.81" r="5.11"/>
    <text class="cls-5" transform="translate(526.01 161.58)"><tspan x="0" y="0">M</tspan></text>
    <line class="cls-15" x1="561.67" y1="181.42" x2="595.62" y2="181.42"/>
    <line class="cls-15" x1="597.47" y1="257.63" x2="597.14" y2="181.42"/>
    <circle class="cls-23" cx="597.23" cy="257.84" r="5.11"/>
    <text class="cls-2" transform="translate(595.44 260.18)"><tspan x="0" y="0">K</tspan></text>
    <circle class="cls-23" cx="596.57" cy="180.64" r="5.11"/>
    <text class="cls-6" transform="translate(595.16 182.75)"><tspan x="0" y="0">L</tspan></text>
    <circle class="cls-23" cx="560.82" cy="179.92" r="5.11"/>
    <text class="cls-8" transform="translate(560.1 182.05)"><tspan x="0" y="0">I</tspan></text>
  </g>
  <g>
    <rect class="cls-26" x="564.17" y="20.37" width="81.82" height="75.88"/>
    <polyline class="cls-21" points="553.8 37.07 570.81 35.86 571 110.8 553.8 111.13"/>
    <path class="cls-26" d="M564.67,22.13c2.97.7,2.45,11.3,3,29,.47,15.26,1.47,27.55,2.22,35.37-4.08,5.87-8.17,11.74-12.25,17.61-.99-22.66-1.98-45.32-2.96-67.98,5.73-12.33,8.52-14.35,10-14Z"/>
    <line class="cls-17" x1="646.32" y1="20.7" x2="563.84" y2="20.7"/>
    <line class="cls-17" x1="631.14" y1="40.5" x2="646.32" y2="20.7"/>
    <line class="cls-17" x1="633.78" y1="119.68" x2="646.98" y2="97.25"/>
    <line class="cls-17" x1="646.32" y1="20.7" x2="646.32" y2="97.25"/>
    <line class="cls-20" x1="563.84" y1="20.7" x2="563.84" y2="96.59"/>
    <line class="cls-17" x1="553.17" y1="35.63" x2="565" y2="20.34"/>
    <line class="cls-20" x1="646.32" y1="96.59" x2="562.52" y2="96.59"/>
    <polyline class="cls-20" points="563.84 96.59 553.67 112.13 563.84 96.59"/>
    <path class="cls-26" d="M564.54,96.84c-7.99,7.81-9.31,11.22-8.41,12.74,2.05,3.46,16.5-1.52,17.27.68.53,1.52-6.18,4.58-5.56,6.59.47,1.51,4.77,1.42,5.56,1.41,8.24-.17,30.04-.5,59.54-1,4.76-7.04,9.52-14.08,14.28-21.12l-82.68.7Z"/>
    <path class="cls-22" d="M563.82,20.72c-7.99,7.81-9.31,11.22-8.41,12.74,2.05,3.46,16.5-1.52,17.27.68.53,1.52-6.18,4.58-5.56,6.59.47,1.51,4.77,1.42,5.56,1.41,8.24-.17,30.04-.5,59.54-1,4.76-7.04,9.52-14.08,14.28-21.12l-82.68.7Z"/>
    <polygon class="cls-22" points="632.22 40.71 645.8 21.32 645.11 98.91 631.81 118.05 632.22 40.71"/>
    <circle class="cls-23" cx="562.94" cy="96.8" r="5.11"/>
    <text class="cls-5" transform="translate(561.29 98.57)"><tspan x="0" y="0">N</tspan></text>
    <circle class="cls-23" cx="563.67" cy="19.88" r="5.11"/>
    <text class="cls-5" transform="translate(561.66 21.65)"><tspan x="0" y="0">M</tspan></text>
    <circle class="cls-23" cx="646.08" cy="96.8" r="5.11"/>
    <text class="cls-5" transform="translate(644.36 98.57)"><tspan x="0" y="0">O</tspan></text>
    <circle class="cls-23" cx="645.42" cy="19.6" r="5.11"/>
    <text class="cls-6" transform="translate(643.84 21.7)"><tspan x="0" y="0">P</tspan></text>
    <rect class="cls-22" x="565.67" y="41.49" width="67.12" height="75.88"/>
    <line class="cls-14" x1="553.8" y1="111.13" x2="553.8" y2="37.07"/>
    <g>
      <rect class="cls-26" x="489.18" y="34.92" width="81.82" height="75.88"/>
      <polyline class="cls-26" points="487.86 34.92 487.86 34.92 488.85 111.13 474.03 132.67 474.99 55.04 489.18 34.92"/>
      <polygon class="cls-26" points="488.85 35.25 475.71 54.76 557.23 55.26 571.5 34.56 488.85 35.25"/>
      <line class="cls-17" x1="571.33" y1="35.25" x2="488.85" y2="35.25"/>
      <line class="cls-17" x1="556.15" y1="55.04" x2="571.33" y2="35.25"/>
      <line class="cls-17" x1="558.79" y1="134.23" x2="571.99" y2="111.79"/>
      <line class="cls-17" x1="571.33" y1="35.25" x2="571.33" y2="111.79"/>
      <line class="cls-20" x1="488.85" y1="35.25" x2="488.85" y2="111.13"/>
      <line class="cls-17" x1="474.83" y1="54.68" x2="490.01" y2="34.88"/>
      <line class="cls-20" x1="571.33" y1="111.13" x2="487.53" y2="111.13"/>
      <polyline class="cls-20" points="488.85 111.13 475.65 131.59 488.85 111.13"/>
      <polyline class="cls-26" points="474.75 132.46 488.85 111.13 571.33 111.79 558.13 132.25"/>
      <polygon class="cls-26" points="557.23 55.26 570.81 35.86 570.12 113.45 556.82 132.6 557.23 55.26"/>
      <circle class="cls-23" cx="553.8" cy="110.89" r="5.11"/>
      <text class="cls-8" transform="translate(552.19 113.02)"><tspan x="0" y="0">R</tspan></text>
      <circle class="cls-23" cx="488.68" cy="34.42" r="5.11"/>
      <text class="cls-2" transform="translate(487.06 36.77)"><tspan x="0" y="0">E</tspan></text>
      <circle class="cls-23" cx="571.08" cy="111.34" r="5.11"/>
      <text class="cls-6" transform="translate(569.15 113.45)"><tspan x="0" y="0">H</tspan></text>
      <circle class="cls-23" cx="487.94" cy="111.34" r="5.11"/>
      <text class="cls-2" transform="translate(486.34 113.68)"><tspan x="0" y="0">F</tspan></text>
      <circle class="cls-23" cx="570.42" cy="34.14" r="5.11"/>
      <text class="cls-6" transform="translate(568.51 36.25)"><tspan x="0" y="0">G</tspan></text>
      <rect class="cls-26" x="475.98" y="56.03" width="81.82" height="75.88"/>
      <rect class="cls-17" x="474.99" y="55.04" width="83.14" height="77.2"/>
      <circle class="cls-23" cx="475.48" cy="55.54" r="5.11"/>
      <text class="cls-2" transform="translate(473.46 57.88)"><tspan x="0" y="0">A</tspan></text>
      <circle class="cls-23" cx="557.89" cy="132.46" r="5.11"/>
      <text class="cls-2" transform="translate(555.97 134.8)"><tspan x="0" y="0">C</tspan></text>
      <circle class="cls-23" cx="474.75" cy="132.46" r="5.11"/>
      <text class="cls-2" transform="translate(472.96 134.8)"><tspan x="0" y="0">B</tspan></text>
      <circle class="cls-23" cx="557.23" cy="55.26" r="5.11"/>
      <text class="cls-6" transform="translate(555.25 57.36)"><tspan x="0" y="0">D</tspan></text>
    </g>
    <line class="cls-15" x1="569.67" y1="41.49" x2="631.27" y2="41.49"/>
    <line class="cls-11" x1="569.54" y1="117.7" x2="633.12" y2="117.7"/>
    <line class="cls-15" x1="633.12" y1="117.7" x2="632.79" y2="41.49"/>
    <line class="cls-15" x1="564.48" y1="41.49" x2="565.67" y2="117.37"/>
    <circle class="cls-23" cx="565.74" cy="117.91" r="5.11"/>
    <text class="cls-2" transform="translate(564.52 120.26)"><tspan x="0" y="0">J</tspan></text>
    <circle class="cls-23" cx="632.88" cy="117.91" r="5.11"/>
    <text class="cls-2" transform="translate(631.09 120.26)"><tspan x="0" y="0">K</tspan></text>
    <circle class="cls-23" cx="632.22" cy="40.71" r="5.11"/>
    <text class="cls-6" transform="translate(630.82 42.82)"><tspan x="0" y="0">L</tspan></text>
    <circle class="cls-23" cx="564.48" cy="40.99" r="5.11"/>
    <text class="cls-8" transform="translate(563.76 43.12)"><tspan x="0" y="0">I</tspan></text>
    <circle class="cls-23" cx="553.8" cy="35.89" r="5.11"/>
    <text class="cls-1" transform="translate(552.43 37.31)"><tspan x="0" y="0">Q</tspan></text>
  </g>
  <g>
    <line class="cls-20" x1="508.2" y1="296.63" x2="508.2" y2="372.51"/>
    <line class="cls-20" x1="590.17" y1="376.63" x2="508.17" y2="376.63"/>
    <circle class="cls-23" cx="507.3" cy="374.72" r="5.11"/>
    <text class="cls-5" transform="translate(505.66 376.5)"><tspan x="0" y="0">N</tspan></text>
    <line class="cls-20" x1="488.21" y1="307.17" x2="488.21" y2="383.06"/>
    <line class="cls-20" x1="500.17" y1="382.63" x2="486.89" y2="383.06"/>
    <polyline class="cls-20" points="488.21 383.06 475.01 403.51 488.21 383.06"/>
    <circle class="cls-23" cx="502.45" cy="383.27" r="5.11"/>
    <text class="cls-6" transform="translate(500.51 385.38)"><tspan x="0" y="0">H</tspan></text>
    <circle class="cls-23" cx="487.31" cy="383.27" r="5.11"/>
    <text class="cls-2" transform="translate(485.7 385.61)"><tspan x="0" y="0">F</tspan></text>
    <polyline class="cls-26" points="475.5 327.96 488.21 307.17 502.17 307.63 509.84 297.52 589.58 298.06 590.44 376.2 579.46 396.63 564.29 396.67 557.49 404.17 474.35 404.17"/>
    <polyline class="cls-26" points="475.16 327.99 487.87 307.21 501.83 307.67 509.5 297.55 589.24 298.09 590.1 376.23 579.12 396.66 563.95 396.7 557.15 404.2 474.01 404.2"/>
    <line class="cls-17" x1="592.17" y1="296.63" x2="508.17" y2="296.63"/>
    <line class="cls-17" x1="575.51" y1="318.43" x2="590.68" y2="298.63"/>
    <line class="cls-17" x1="577.15" y1="399.61" x2="590.34" y2="377.17"/>
    <line class="cls-17" x1="590.68" y1="297.63" x2="590.68" y2="374.17"/>
    <line class="cls-17" x1="502.17" y1="307.63" x2="488.21" y2="307.17"/>
    <line class="cls-17" x1="555.51" y1="326.97" x2="562.19" y2="315.63"/>
    <line class="cls-17" x1="558.15" y1="406.15" x2="565.19" y2="393.63"/>
    <line class="cls-17" x1="474.2" y1="326.6" x2="489.37" y2="306.81"/>
    <line class="cls-11" x1="563.52" y1="396.63" x2="577.67" y2="396.63"/>
    <circle class="cls-23" cx="590.44" cy="374.72" r="5.11"/>
    <text class="cls-5" transform="translate(588.72 376.5)"><tspan x="0" y="0">O</tspan></text>
    <circle class="cls-23" cx="589.78" cy="297.52" r="5.11"/>
    <text class="cls-6" transform="translate(588.2 299.63)"><tspan x="0" y="0">P</tspan></text>
    <circle class="cls-23" cx="488.04" cy="306.35" r="5.11"/>
    <text class="cls-2" transform="translate(486.42 308.69)"><tspan x="0" y="0">E</tspan></text>
    <circle class="cls-23" cx="564.1" cy="395.84" r="5.11"/>
    <text class="cls-2" transform="translate(562.88 398.18)"><tspan x="0" y="0">J</tspan></text>
    <rect class="cls-17" x="474.35" y="326.97" width="83.14" height="77.2"/>
    <circle class="cls-23" cx="474.85" cy="327.46" r="5.11"/>
    <text class="cls-2" transform="translate(472.83 329.81)"><tspan x="0" y="0">A</tspan></text>
    <circle class="cls-23" cx="557.25" cy="404.38" r="5.11"/>
    <text class="cls-2" transform="translate(555.34 406.73)"><tspan x="0" y="0">C</tspan></text>
    <circle class="cls-23" cx="474.11" cy="404.38" r="5.11"/>
    <text class="cls-2" transform="translate(472.32 406.73)"><tspan x="0" y="0">B</tspan></text>
    <circle class="cls-23" cx="556.59" cy="327.18" r="5.11"/>
    <text class="cls-6" transform="translate(554.61 329.29)"><tspan x="0" y="0">D</tspan></text>
    <line class="cls-17" x1="501.19" y1="308.63" x2="509.37" y2="298.26"/>
    <circle class="cls-23" cx="501.79" cy="307.07" r="5.11"/>
    <text class="cls-6" transform="translate(499.87 309.17)"><tspan x="0" y="0">G</tspan></text>
    <circle class="cls-23" cx="507.04" cy="297.8" r="5.11"/>
    <text class="cls-5" transform="translate(505.03 299.58)"><tspan x="0" y="0">M</tspan></text>
    <line class="cls-15" x1="562.69" y1="317.41" x2="576.67" y2="317.41"/>
    <line class="cls-15" x1="578.49" y1="397.63" x2="578.16" y2="321.41"/>
    <circle class="cls-23" cx="578.24" cy="395.84" r="5.11"/>
    <text class="cls-2" transform="translate(576.46 398.18)"><tspan x="0" y="0">K</tspan></text>
    <circle class="cls-23" cx="576.58" cy="318.64" r="5.11"/>
    <text class="cls-6" transform="translate(575.18 320.74)"><tspan x="0" y="0">L</tspan></text>
    <circle class="cls-23" cx="561.84" cy="315.92" r="5.11"/>
    <text class="cls-8" transform="translate(561.12 318.05)"><tspan x="0" y="0">I</tspan></text>
  </g>
</svg>