<?xml version="1.0" encoding="UTF-8"?>
<svg id="Ring" xmlns="http://www.w3.org/2000/svg" viewBox="0 0 538.58 60.6">
  <defs>
    <style>
      .cls-1 {
        fill: #231f20;
      }

      .cls-2 {
        fill: #fff;
      }

      .cls-3 {
        stroke: #9b9a9a;
      }

      .cls-3, .cls-4, .cls-5 {
        fill: none;
      }

      .cls-3, .cls-5 {
        stroke-miterlimit: 10;
        stroke-width: 2.83px;
      }

      .cls-6 {
        fill: #9b9a9a;
      }

      .cls-5 {
        stroke: #437898;
      }
    </style>
  </defs>
  <g>
    <rect class="cls-5" x="28.5" y="25.07" width="146.42" height="0"/>
    <g>
      <circle class="cls-1" cx="29.25" cy="25.82" r="7.75"/>
      <path class="cls-2" d="M28.04,27.25l-.7,2.12h-.9l2.29-6.74h1.05l2.3,6.74h-.93l-.72-2.12h-2.39ZM30.25,26.57l-.66-1.94c-.15-.44-.25-.84-.35-1.23h-.02c-.1.4-.21.81-.34,1.22l-.66,1.95h2.03Z"/>
    </g>
    <g>
      <circle class="cls-1" cx="174.13" cy="25.39" r="7.75"/>
      <path class="cls-2" d="M172.38,22.59c.34-.07.88-.13,1.43-.13.78,0,1.29.13,1.67.44.31.23.5.59.5,1.07,0,.59-.39,1.1-1.03,1.33v.02c.58.14,1.25.62,1.25,1.52,0,.52-.21.92-.51,1.22-.42.39-1.11.57-2.1.57-.54,0-.95-.04-1.22-.07v-5.97ZM173.16,25.08h.71c.83,0,1.31-.43,1.31-1.02,0-.71-.54-.99-1.33-.99-.36,0-.57.03-.69.05v1.95ZM173.16,27.99c.15.03.38.04.66.04.81,0,1.56-.3,1.56-1.18,0-.83-.71-1.17-1.57-1.17h-.65v2.31Z"/>
    </g>
    <g>
      <rect class="cls-4" x="28.48" y="35.05" width="134.61" height="23.48"/>
      <path class="cls-1" d="M82.63,47.37v-11.95h2.74v.83h-1.72v10.3h1.72v.83h-2.74Z"/>
      <path class="cls-1" d="M88.27,42.52l-1.05,3.18h-1.35l3.44-10.11h1.57l3.45,10.11h-1.4l-1.08-3.18h-3.58ZM91.58,41.49l-.99-2.91c-.22-.66-.38-1.26-.52-1.85h-.03c-.15.6-.31,1.22-.51,1.83l-.99,2.92h3.04Z"/>
      <path class="cls-1" d="M94.91,47.54c.33-.88.73-2.49.9-3.58l1.47-.15c-.34,1.27-1,2.94-1.42,3.64l-.94.09Z"/>
      <path class="cls-1" d="M98.92,35.72c.57-.12,1.47-.21,2.38-.21,1.3,0,2.15.22,2.77.74.52.39.84.99.84,1.78,0,.98-.65,1.83-1.71,2.22v.03c.96.24,2.08,1.04,2.08,2.54,0,.87-.34,1.53-.85,2.03-.71.64-1.84.94-3.49.94-.9,0-1.59-.06-2.02-.12v-9.94ZM100.22,39.86h1.19c1.38,0,2.19-.72,2.19-1.69,0-1.19-.9-1.65-2.22-1.65-.6,0-.94.04-1.15.09v3.25ZM100.22,44.7c.25.04.63.06,1.1.06,1.35,0,2.59-.5,2.59-1.96,0-1.38-1.19-1.95-2.61-1.95h-1.08v3.85Z"/>
      <path class="cls-1" d="M108.94,35.4v11.97h-2.74v-.83h1.72v-10.32h-1.72v-.83h2.74Z"/>
    </g>
  </g>
  <g>
    <rect class="cls-4" x="362.68" y="23.91" width="134.61" height="23.48"/>
    <path class="cls-1" d="M406.79,27.95c.35-1.26.99-2.88,1.41-3.57l.84-.09c-.33.88-.72,2.43-.88,3.51l-1.37.15ZM409.03,27.95c.33-1.26.99-2.88,1.39-3.57l.84-.09c-.33.88-.72,2.43-.89,3.51l-1.35.15Z"/>
    <path class="cls-1" d="M417.98,23.91v8.77c0,.65.02,1.38.06,1.88h-1.19l-.06-1.26h-.03c-.41.81-1.29,1.42-2.48,1.42-1.75,0-3.1-1.49-3.1-3.69-.01-2.42,1.48-3.9,3.25-3.9,1.11,0,1.86.53,2.19,1.11h.03v-4.33h1.32ZM416.66,30.26c0-.17-.02-.39-.06-.55-.2-.84-.92-1.53-1.91-1.53-1.36,0-2.17,1.2-2.17,2.8,0,1.47.72,2.68,2.15,2.68.88,0,1.69-.58,1.94-1.57.04-.18.06-.36.06-.57v-1.26Z"/>
    <path class="cls-1" d="M420.91,31.17c.03,1.79,1.17,2.52,2.49,2.52.94,0,1.52-.17,2.01-.38l.23.95c-.46.21-1.26.45-2.42.45-2.23,0-3.57-1.47-3.57-3.66s1.29-3.92,3.4-3.92c2.37,0,3,2.08,3,3.42,0,.27-.03.48-.04.62h-5.1ZM424.78,30.23c.02-.84-.34-2.14-1.83-2.14-1.33,0-1.92,1.23-2.02,2.14h3.85Z"/>
    <path class="cls-1" d="M427.69,23.91h1.32v10.65h-1.32v-10.65Z"/>
    <path class="cls-1" d="M431.96,31.17c.03,1.79,1.17,2.52,2.49,2.52.94,0,1.52-.17,2.01-.38l.23.95c-.46.21-1.26.45-2.42.45-2.23,0-3.57-1.47-3.57-3.66s1.29-3.92,3.4-3.92c2.37,0,3,2.08,3,3.42,0,.27-.03.48-.04.62h-5.1ZM435.83,30.23c.02-.84-.34-2.14-1.83-2.14-1.33,0-1.92,1.23-2.02,2.14h3.85Z"/>
    <path class="cls-1" d="M440.33,25.22v2.08h1.89v1h-1.89v3.92c0,.9.25,1.41.99,1.41.35,0,.6-.04.77-.09l.06.99c-.26.11-.66.18-1.17.18-.62,0-1.11-.2-1.43-.56-.38-.39-.51-1.04-.51-1.89v-3.96h-1.12v-1h1.12v-1.74l1.29-.34Z"/>
    <path class="cls-1" d="M444.35,31.17c.03,1.79,1.17,2.52,2.49,2.52.94,0,1.52-.17,2.01-.38l.23.95c-.46.21-1.26.45-2.42.45-2.23,0-3.57-1.47-3.57-3.66s1.29-3.92,3.4-3.92c2.37,0,3,2.08,3,3.42,0,.27-.03.48-.04.62h-5.1ZM448.22,30.23c.02-.84-.34-2.14-1.83-2.14-1.33,0-1.92,1.23-2.02,2.14h3.85Z"/>
    <path class="cls-1" d="M452.41,24.29c-.35,1.26-.99,2.86-1.4,3.55l-.84.11c.32-.89.72-2.45.89-3.53l1.35-.13ZM454.63,24.29c-.35,1.26-.99,2.86-1.4,3.55l-.84.11c.33-.89.72-2.45.88-3.53l1.35-.13Z"/>
  </g>
  <g>
    <g>
      <line class="cls-3" x1="209.42" y1="31.07" x2="317.08" y2="31.07"/>
      <polygon class="cls-6" points="312.94 45.2 337.42 31.07 312.94 16.93 312.94 45.2"/>
    </g>
    <g>
      <rect class="cls-4" x="212.07" y="22.45" width="94.96" height="17.93"/>
      <path class="cls-1" d="M247.93,22.86c.48-.07,1.04-.13,1.67-.13,1.12,0,1.93.26,2.46.76.54.5.86,1.2.86,2.18s-.31,1.8-.87,2.36c-.57.57-1.5.87-2.68.87-.56,0-1.03-.03-1.42-.07v-5.97ZM248.71,28.22c.2.04.49.04.79.04,1.67,0,2.58-.94,2.58-2.57,0-1.43-.8-2.34-2.46-2.34-.41,0-.71.04-.92.08v4.79Z"/>
      <path class="cls-1" d="M254.37,26.81c.02,1.07.7,1.51,1.49,1.51.57,0,.91-.1,1.21-.23l.14.57c-.28.13-.76.27-1.45.27-1.34,0-2.14-.88-2.14-2.2s.77-2.35,2.04-2.35c1.42,0,1.8,1.25,1.8,2.05,0,.16-.02.29-.03.37h-3.06ZM256.7,26.24c0-.5-.21-1.29-1.1-1.29-.8,0-1.15.74-1.21,1.29h2.31Z"/>
      <path class="cls-1" d="M258.44,22.45h.79v6.39h-.79v-6.39Z"/>
      <path class="cls-1" d="M261.01,26.81c.02,1.07.7,1.51,1.49,1.51.57,0,.91-.1,1.21-.23l.14.57c-.28.13-.76.27-1.45.27-1.34,0-2.14-.88-2.14-2.2s.77-2.35,2.04-2.35c1.42,0,1.8,1.25,1.8,2.05,0,.16-.02.29-.03.37h-3.06ZM263.33,26.24c0-.5-.21-1.29-1.1-1.29-.8,0-1.15.74-1.21,1.29h2.31Z"/>
      <path class="cls-1" d="M266.03,23.23v1.25h1.13v.6h-1.13v2.35c0,.54.15.85.59.85.21,0,.36-.03.46-.05l.04.59c-.15.06-.4.11-.7.11-.37,0-.67-.12-.86-.33-.23-.23-.31-.62-.31-1.13v-2.38h-.67v-.6h.67v-1.04l.77-.21Z"/>
      <path class="cls-1" d="M268.44,26.81c.02,1.07.7,1.51,1.49,1.51.57,0,.91-.1,1.21-.23l.14.57c-.28.13-.76.27-1.45.27-1.34,0-2.14-.88-2.14-2.2s.77-2.35,2.04-2.35c1.42,0,1.8,1.25,1.8,2.05,0,.16-.02.29-.03.37h-3.06ZM270.76,26.24c0-.5-.21-1.29-1.1-1.29-.8,0-1.15.74-1.21,1.29h2.31Z"/>
    </g>
  </g>
</svg>