<?xml version="1.0" encoding="UTF-8"?>
<svg id="Polygon" xmlns="http://www.w3.org/2000/svg" viewBox="0 0 538.58 286.6">
  <defs>
    <style>
      .cls-1 {
        stroke-width: 5px;
      }

      .cls-1, .cls-2, .cls-3, .cls-4 {
        fill: none;
      }

      .cls-1, .cls-2, .cls-4 {
        stroke-miterlimit: 10;
      }

      .cls-1, .cls-4 {
        stroke: #437898;
      }

      .cls-5 {
        fill: #231f20;
      }

      .cls-6 {
        fill: #6dbae7;
        opacity: .31;
      }

      .cls-7 {
        fill: #fff;
      }

      .cls-2 {
        stroke: #9b9a9a;
      }

      .cls-2, .cls-4 {
        stroke-width: 2.83px;
      }

      .cls-8 {
        fill: #9b9a9a;
      }
    </style>
  </defs>
  <g>
    <rect class="cls-6" x="29.93" y="36.76" width="145" height="115"/>
    <rect class="cls-4" x="28.43" y="35.26" width="146" height="117"/>
    <g>
      <circle class="cls-5" cx="29.18" cy="36.01" r="7.75"/>
      <path class="cls-7" d="M27.97,37.44l-.7,2.12h-.9l2.29-6.74h1.05l2.3,6.74h-.93l-.72-2.12h-2.39ZM30.18,36.76l-.66-1.94c-.15-.44-.25-.84-.35-1.23h-.02c-.1.4-.21.81-.34,1.22l-.66,1.95h2.03Z"/>
    </g>
    <g>
      <circle class="cls-5" cx="174.06" cy="152.58" r="7.75"/>
      <path class="cls-7" d="M176.63,155.91c-.32.16-.96.32-1.78.32-1.9,0-3.33-1.2-3.33-3.41s1.43-3.54,3.52-3.54c.84,0,1.37.18,1.6.3l-.21.71c-.33-.16-.8-.28-1.36-.28-1.58,0-2.63,1.01-2.63,2.78,0,1.65.95,2.71,2.59,2.71.53,0,1.07-.11,1.42-.28l.18.69Z"/>
    </g>
    <g>
      <circle class="cls-5" cx="28.06" cy="152.58" r="7.75"/>
      <path class="cls-7" d="M26.11,149.49c.38-.08.98-.14,1.59-.14.87,0,1.43.15,1.85.49.35.26.56.66.56,1.19,0,.65-.43,1.22-1.14,1.48v.02c.64.16,1.39.69,1.39,1.69,0,.58-.23,1.02-.57,1.35-.47.43-1.23.63-2.33.63-.6,0-1.06-.04-1.35-.08v-6.63ZM26.98,152.24h.79c.92,0,1.46-.48,1.46-1.13,0-.79-.6-1.1-1.48-1.1-.4,0-.63.03-.77.06v2.17ZM26.98,155.47c.17.03.42.04.73.04.9,0,1.73-.33,1.73-1.31,0-.92-.79-1.3-1.74-1.3h-.72v2.57Z"/>
    </g>
    <g>
      <circle class="cls-5" cx="174.06" cy="35.58" r="7.75"/>
      <path class="cls-7" d="M171.75,32.79c.48-.07,1.04-.13,1.67-.13,1.13,0,1.93.26,2.46.76.54.5.86,1.2.86,2.18s-.31,1.8-.87,2.36c-.57.57-1.5.87-2.68.87-.56,0-1.03-.03-1.42-.07v-5.97ZM172.53,38.16c.2.04.49.04.79.04,1.67,0,2.58-.94,2.58-2.58,0-1.43-.8-2.34-2.46-2.34-.41,0-.71.04-.92.08v4.79Z"/>
    </g>
    <g>
      <rect class="cls-3" x="34.41" y="168.24" width="134.61" height="23.48"/>
      <path class="cls-5" d="M49.64,180.57v-11.95h2.74v.83h-1.72v10.3h1.72v.83h-2.74Z"/>
      <path class="cls-5" d="M53.9,180.57v-11.95h2.74v.83h-1.72v10.3h1.72v.83h-2.74Z"/>
      <path class="cls-5" d="M59.54,175.71l-1.05,3.18h-1.35l3.44-10.11h1.57l3.45,10.11h-1.4l-1.08-3.18h-3.58ZM62.85,174.69l-.99-2.91c-.22-.66-.38-1.26-.52-1.85h-.03c-.15.6-.31,1.22-.51,1.83l-.99,2.92h3.04Z"/>
      <path class="cls-5" d="M66.18,180.73c.33-.88.73-2.49.9-3.58l1.47-.15c-.34,1.27-1,2.94-1.42,3.64l-.94.09Z"/>
      <path class="cls-5" d="M70.19,168.92c.57-.12,1.47-.21,2.38-.21,1.3,0,2.15.22,2.77.74.52.39.84.99.84,1.78,0,.98-.65,1.83-1.71,2.22v.03c.96.24,2.08,1.04,2.08,2.54,0,.87-.34,1.53-.85,2.03-.71.64-1.84.94-3.49.94-.9,0-1.59-.06-2.02-.12v-9.94ZM71.49,173.06h1.19c1.38,0,2.19-.72,2.19-1.69,0-1.19-.9-1.65-2.22-1.65-.6,0-.94.04-1.15.09v3.25ZM71.49,177.9c.25.04.63.06,1.1.06,1.35,0,2.59-.5,2.59-1.96,0-1.38-1.19-1.95-2.61-1.95h-1.08v3.85Z"/>
      <path class="cls-5" d="M77.22,180.73c.33-.88.74-2.49.9-3.58l1.47-.15c-.34,1.27-1,2.94-1.42,3.64l-.95.09Z"/>
      <path class="cls-5" d="M88.92,178.44c-.58.21-1.74.56-3.1.56-1.53,0-2.79-.39-3.78-1.33-.87-.84-1.41-2.19-1.41-3.77.02-3.01,2.08-5.22,5.47-5.22,1.17,0,2.08.25,2.52.46l-.31,1.07c-.54-.24-1.21-.44-2.23-.44-2.46,0-4.06,1.53-4.06,4.07s1.54,4.08,3.9,4.08c.85,0,1.44-.12,1.74-.27v-3.01h-2.05v-1.05h3.33v4.86Z"/>
      <path class="cls-5" d="M90.02,180.73c.33-.88.74-2.49.9-3.58l1.47-.15c-.34,1.27-1,2.94-1.42,3.64l-.95.09Z"/>
      <path class="cls-5" d="M95.33,168.78v4.23h4.89v-4.23h1.32v10.11h-1.32v-4.74h-4.89v4.74h-1.3v-10.11h1.3Z"/>
      <path class="cls-5" d="M102.9,180.73c.33-.88.74-2.49.9-3.58l1.47-.15c-.34,1.27-1,2.94-1.42,3.64l-.95.09Z"/>
      <path class="cls-5" d="M113.97,178.56c-.48.24-1.44.48-2.67.48-2.85,0-4.99-1.8-4.99-5.12s2.15-5.31,5.28-5.31c1.26,0,2.05.27,2.4.45l-.31,1.06c-.5-.24-1.2-.42-2.04-.42-2.37,0-3.94,1.51-3.94,4.17,0,2.47,1.42,4.06,3.88,4.06.79,0,1.6-.17,2.13-.42l.27,1.04Z"/>
      <path class="cls-5" d="M114.71,180.73c.33-.88.74-2.49.9-3.58l1.47-.15c-.34,1.27-1,2.94-1.42,3.64l-.95.09Z"/>
      <path class="cls-5" d="M118.71,168.92c.79-.12,1.74-.21,2.77-.21,1.87,0,3.21.43,4.09,1.26.9.83,1.42,2,1.42,3.63s-.51,3-1.46,3.93c-.94.95-2.5,1.46-4.47,1.46-.93,0-1.71-.04-2.37-.12v-9.94ZM120.02,177.86c.33.06.81.08,1.32.08,2.79,0,4.31-1.56,4.31-4.29.01-2.38-1.33-3.9-4.1-3.9-.67,0-1.18.06-1.53.13v7.98Z"/>
      <path class="cls-5" d="M127.29,180.73c.33-.88.73-2.49.9-3.58l1.47-.15c-.34,1.27-1,2.94-1.42,3.64l-.94.09Z"/>
      <path class="cls-5" d="M131.3,168.78h5.44v1.09h-4.14v3.36h3.82v1.08h-3.82v4.58h-1.3v-10.11Z"/>
      <path class="cls-5" d="M136.25,180.73c.33-.88.74-2.49.9-3.58l1.47-.15c-.34,1.27-1,2.94-1.42,3.64l-.95.09Z"/>
      <path class="cls-5" d="M145.49,174.15h-3.93v3.65h4.38v1.09h-5.68v-10.11h5.46v1.09h-4.15v3.2h3.93v1.08Z"/>
      <path class="cls-5" d="M149.52,168.6v11.97h-2.74v-.83h1.72v-10.32h-1.72v-.83h2.74Z"/>
      <path class="cls-5" d="M153.78,168.6v11.97h-2.74v-.83h1.72v-10.32h-1.72v-.83h2.74Z"/>
    </g>
    <g>
      <circle class="cls-5" cx="97.59" cy="151.82" r="7.75"/>
      <path class="cls-7" d="M96.12,148.95v2.54h2.94v-2.54h.79v6.07h-.79v-2.85h-2.94v2.85h-.78v-6.07h.78Z"/>
    </g>
    <g>
      <circle class="cls-5" cx="100.59" cy="34.82" r="7.75"/>
      <path class="cls-7" d="M98.91,31.64h3.63v.73h-2.76v2.24h2.55v.72h-2.55v3.05h-.87v-6.74Z"/>
    </g>
    <g>
      <circle class="cls-5" cx="83.59" cy="151.82" r="7.75"/>
      <path class="cls-7" d="M86.25,155.07c-.39.14-1.16.37-2.07.37-1.02,0-1.86-.26-2.52-.89-.58-.56-.94-1.46-.94-2.51,0-2.01,1.39-3.48,3.65-3.48.78,0,1.39.17,1.68.31l-.21.71c-.36-.16-.81-.29-1.49-.29-1.64,0-2.71,1.02-2.71,2.71s1.03,2.72,2.6,2.72c.57,0,.96-.08,1.16-.18v-2.01h-1.37v-.7h2.22v3.24Z"/>
    </g>
    <g>
      <circle class="cls-5" cx="85.59" cy="34.82" r="7.75"/>
      <path class="cls-7" d="M87.38,35.22h-2.62v2.43h2.92v.73h-3.79v-6.74h3.64v.73h-2.77v2.13h2.62v.72Z"/>
    </g>
  </g>
  <g>
    <path class="cls-6" d="M28.42,224.03s1.64-1.7,3.82-3.01c2.18-1.31,139.68-3.46,139.68-3.46l1.28,7.59-141.98-.59"/>
    <line class="cls-4" x1="28.33" y1="224.83" x2="172.92" y2="224.83"/>
    <line class="cls-4" x1="171.33" y1="219.06" x2="33.33" y2="219.06"/>
    <line class="cls-4" x1="171.92" y1="222.83" x2="171.92" y2="212.83"/>
    <g>
      <circle class="cls-5" cx="32.24" cy="218.45" r="7.75"/>
      <path class="cls-7" d="M30.28,215.35c.38-.08.98-.14,1.59-.14.87,0,1.43.15,1.85.49.35.26.56.66.56,1.19,0,.65-.43,1.22-1.14,1.48v.02c.64.16,1.39.69,1.39,1.69,0,.58-.23,1.02-.57,1.35-.47.43-1.23.63-2.33.63-.6,0-1.06-.04-1.35-.08v-6.63ZM31.15,218.11h.79c.92,0,1.46-.48,1.46-1.13,0-.79-.6-1.1-1.48-1.1-.4,0-.63.03-.77.06v2.17ZM31.15,221.34c.17.03.42.04.73.04.9,0,1.73-.33,1.73-1.31,0-.92-.79-1.3-1.74-1.3h-.72v2.57Z"/>
    </g>
    <g>
      <circle class="cls-5" cx="30.21" cy="223.45" r="7.75"/>
      <path class="cls-7" d="M29,224.88l-.7,2.12h-.9l2.29-6.74h1.05l2.3,6.74h-.93l-.72-2.12h-2.39ZM31.21,224.2l-.66-1.94c-.15-.44-.25-.84-.35-1.23h-.02c-.1.4-.21.81-.34,1.22l-.66,1.95h2.03Z"/>
    </g>
    <g>
      <rect class="cls-3" x="28.73" y="263.77" width="134.61" height="23.48"/>
      <path class="cls-5" d="M73.07,271.02c.47.29,1.15.53,1.87.53,1.07,0,1.69-.56,1.69-1.38,0-.76-.43-1.19-1.52-1.61-1.32-.47-2.13-1.15-2.13-2.29,0-1.26,1.04-2.2,2.61-2.2.83,0,1.43.19,1.79.4l-.29.85c-.26-.14-.8-.38-1.54-.38-1.1,0-1.52.66-1.52,1.21,0,.76.49,1.13,1.61,1.56,1.37.53,2.06,1.19,2.06,2.37,0,1.25-.92,2.33-2.83,2.33-.78,0-1.63-.23-2.06-.52l.26-.88Z"/>
      <path class="cls-5" d="M80.27,264.86c.01.36-.25.65-.67.65-.37,0-.64-.29-.64-.65s.28-.66.66-.66.65.29.65.66ZM79.09,272.29v-5.8h1.06v5.8h-1.06Z"/>
      <path class="cls-5" d="M86.92,263.78v7.02c0,.52.01,1.1.05,1.5h-.95l-.05-1.01h-.02c-.32.65-1.03,1.14-1.98,1.14-1.4,0-2.48-1.19-2.48-2.95-.01-1.93,1.19-3.12,2.6-3.12.89,0,1.49.42,1.75.89h.02v-3.47h1.06ZM85.86,268.85c0-.13-.01-.31-.05-.44-.16-.67-.73-1.22-1.52-1.22-1.09,0-1.74.96-1.74,2.24,0,1.17.58,2.15,1.72,2.15.71,0,1.35-.47,1.55-1.26.04-.14.05-.29.05-.46v-1.01Z"/>
      <path class="cls-5" d="M89.26,269.58c.02,1.43.94,2.02,1.99,2.02.76,0,1.21-.13,1.61-.3l.18.75c-.37.17-1.01.36-1.93.36-1.79,0-2.85-1.18-2.85-2.93s1.03-3.13,2.72-3.13c1.9,0,2.4,1.67,2.4,2.73,0,.22-.02.38-.04.49h-4.08ZM92.35,268.83c.01-.67-.28-1.72-1.46-1.72-1.07,0-1.54.98-1.62,1.72h3.08Z"/>
      <path class="cls-5" d="M97.63,266.49l1.14,3.26c.19.53.35,1.01.47,1.49h.04c.13-.48.3-.96.49-1.49l1.13-3.26h1.1l-2.28,5.8h-1.01l-2.21-5.8h1.13Z"/>
      <path class="cls-5" d="M104.17,264.86c.01.36-.25.65-.67.65-.37,0-.64-.29-.64-.65s.28-.66.66-.66.65.29.65.66ZM103,272.29v-5.8h1.06v5.8h-1.06Z"/>
      <path class="cls-5" d="M106.39,269.58c.02,1.43.94,2.02,1.99,2.02.76,0,1.21-.13,1.61-.3l.18.75c-.37.17-1.01.36-1.93.36-1.79,0-2.85-1.18-2.85-2.93s1.03-3.13,2.72-3.13c1.9,0,2.4,1.67,2.4,2.73,0,.22-.02.38-.04.49h-4.08ZM109.49,268.83c.01-.67-.28-1.72-1.46-1.72-1.07,0-1.54.98-1.62,1.72h3.08Z"/>
      <path class="cls-5" d="M112.24,266.49l.77,2.95c.17.65.32,1.25.43,1.85h.04c.13-.59.32-1.21.52-1.83l.95-2.96h.89l.9,2.9c.22.7.38,1.31.52,1.89h.04c.1-.59.25-1.2.44-1.88l.83-2.91h1.04l-1.87,5.8h-.96l-.89-2.77c-.2-.65-.37-1.22-.52-1.91h-.02c-.14.7-.32,1.3-.53,1.92l-.94,2.76h-.96l-1.75-5.8h1.08Z"/>
    </g>
    <g>
      <circle class="cls-5" cx="171.87" cy="219.79" r="7.75"/>
      <path class="cls-7" d="M173.66,220.18h-2.62v2.43h2.92v.73h-3.79v-6.74h3.64v.73h-2.77v2.13h2.62v.72Z"/>
    </g>
    <g>
      <circle class="cls-5" cx="172.22" cy="224.45" r="7.75"/>
      <path class="cls-7" d="M174.78,227.78c-.32.16-.96.32-1.78.32-1.9,0-3.33-1.2-3.33-3.41s1.43-3.54,3.52-3.54c.84,0,1.37.18,1.6.3l-.21.71c-.33-.16-.8-.28-1.36-.28-1.58,0-2.63,1.01-2.63,2.78,0,1.65.95,2.71,2.59,2.71.53,0,1.07-.11,1.42-.28l.18.69Z"/>
    </g>
    <g>
      <circle class="cls-5" cx="102.4" cy="218.59" r="7.75"/>
      <path class="cls-7" d="M104.18,218.98h-2.62v2.43h2.92v.73h-3.79v-6.74h3.64v.73h-2.77v2.13h2.62v.72Z"/>
    </g>
    <g>
      <circle class="cls-5" cx="87.4" cy="218.59" r="7.75"/>
      <path class="cls-7" d="M89.18,218.98h-2.62v2.43h2.92v.73h-3.79v-6.74h3.64v.73h-2.77v2.13h2.62v.72Z"/>
    </g>
    <g>
      <g>
        <path class="cls-7" d="M74.67,225.71c-.03-14.13,11.73-25.74,25.96-25.89,12.59-.13,25.91,9.74,26.09,26.3.15,14.14-11.75,25.85-26.04,25.87-14.39.01-25.98-11.69-26.01-26.27ZM89.95,246.67c7.88,4.54,20.61,4.02,28.82-5.78,7.32-8.73,6.11-20.05,2.88-25.28,5.63,17.63-11.03,36.87-31.7,31.06Z"/>
        <polyline class="cls-1" points="71.59 220.07 97.59 217.07 102.59 230.07 128.09 227.57"/>
        <path d="M121.66,256.47c-.29.09-.67.25-1.06.33-.83.16-1.39-.24-1.25-1.07.15-.83.56-1.62.87-2.43.05-.13.14-.25.22-.38,1.21-1.89,1.14-2.2-.81-3.54-14.97,12.57-35.34,6.17-43.84-6.37-8.53-12.57-6.49-29.49,5.1-39.79,11.13-9.9,28.21-9.88,39.49-.11,11.4,9.88,14.95,28.85,2.96,42.59.58.54,1.15,1.12,1.79,1.61.18.14.63.08.87-.05.94-.51,1.82-1.14,2.77-1.64.55-.29,1.23-.57,1.79-.02.58.57.18,1.19-.03,1.78-.06.16-.14.32-.2.47,3.26,1.71,5.64,4.47,8.39,6.75,2.78,2.3,5.46,4.72,8.18,7.08,2.11,1.83,4.18,3.71,6.35,5.47,1.22.98,1.65,2.15,1.36,3.61-1.11,5.49-5.33,9.31-10.33,10.01-1.12.16-2.07-.19-2.87-1.11-6.06-6.99-12.15-13.95-18.22-20.94-.58-.67-1.01-1.46-1.54-2.26ZM74.67,225.71c.03,14.58,11.62,26.29,26.01,26.27,14.29-.01,26.19-11.73,26.04-25.87-.18-16.56-13.49-26.43-26.09-26.3-14.23.15-25.99,11.76-25.96,25.89ZM124.51,256.08c1.78,2.08,3.51,4.12,5.25,6.15,4.53,5.32,9.05,10.64,13.59,15.95.2.23.61.56.79.49,1.12-.43,2.2-.96,3.44-1.53-.42-.44-.63-.67-.85-.89-6.83-6.75-13.65-13.51-20.48-20.26-.79-.79-.82-.79-1.74.08ZM123.12,252.42c-.77.54-1.48,1.05-2.2,1.56.87.99,1.43.82,2.76-.74-.17-.25-.34-.5-.56-.83Z"/>
        <path d="M89.95,246.67c20.67,5.82,37.32-13.43,31.7-31.06,3.23,5.23,4.44,16.55-2.88,25.28-8.21,9.79-20.94,10.32-28.82,5.78Z"/>
      </g>
      <g>
        <circle class="cls-5" cx="97.4" cy="214.59" r="7.75"/>
        <path class="cls-7" d="M99.79,217.52c-.35.13-1.04.33-1.86.33-.92,0-1.67-.23-2.27-.8-.52-.5-.85-1.31-.85-2.26,0-1.81,1.25-3.13,3.29-3.13.7,0,1.25.15,1.51.28l-.19.64c-.32-.14-.73-.26-1.34-.26-1.48,0-2.44.92-2.44,2.44s.93,2.45,2.34,2.45c.51,0,.86-.07,1.04-.16v-1.81h-1.23v-.63h2v2.92Z"/>
      </g>
      <g>
        <circle class="cls-5" cx="102.4" cy="230.59" r="7.75"/>
        <path class="cls-7" d="M100.93,227.72v2.54h2.94v-2.54h.79v6.07h-.79v-2.84h-2.94v2.84h-.78v-6.07h.78Z"/>
      </g>
    </g>
  </g>
  <g>
    <rect class="cls-6" x="348.57" y="37.09" width="145" height="115"/>
    <rect class="cls-4" x="347.07" y="35.59" width="146" height="117"/>
    <g>
      <circle class="cls-5" cx="347.82" cy="36.34" r="7.75"/>
      <path class="cls-7" d="M346.61,37.78l-.7,2.12h-.9l2.29-6.74h1.05l2.3,6.74h-.93l-.72-2.12h-2.39ZM348.82,37.1l-.66-1.94c-.15-.44-.25-.84-.35-1.23h-.02c-.1.4-.21.81-.34,1.22l-.66,1.95h2.03Z"/>
    </g>
    <g>
      <circle class="cls-5" cx="492.71" cy="152.91" r="7.75"/>
      <path class="cls-7" d="M495.27,156.24c-.32.16-.96.32-1.78.32-1.9,0-3.33-1.2-3.33-3.41s1.43-3.54,3.52-3.54c.84,0,1.37.18,1.6.3l-.21.71c-.33-.16-.8-.28-1.36-.28-1.58,0-2.63,1.01-2.63,2.78,0,1.65.95,2.71,2.59,2.71.53,0,1.07-.11,1.42-.28l.18.69Z"/>
    </g>
    <g>
      <circle class="cls-5" cx="346.71" cy="152.91" r="7.75"/>
      <path class="cls-7" d="M344.75,149.82c.38-.08.98-.14,1.59-.14.87,0,1.43.15,1.85.49.35.26.56.66.56,1.19,0,.65-.43,1.22-1.14,1.48v.02c.64.16,1.39.69,1.39,1.69,0,.58-.23,1.02-.57,1.35-.47.43-1.23.63-2.33.63-.6,0-1.06-.04-1.35-.08v-6.63ZM345.62,152.58h.79c.92,0,1.46-.48,1.46-1.13,0-.79-.6-1.1-1.48-1.1-.4,0-.63.03-.77.06v2.17ZM345.62,155.8c.17.03.42.04.73.04.9,0,1.73-.33,1.73-1.31,0-.92-.79-1.3-1.74-1.3h-.72v2.57Z"/>
    </g>
    <g>
      <circle class="cls-5" cx="492.71" cy="35.91" r="7.75"/>
      <path class="cls-7" d="M490.39,33.12c.48-.07,1.04-.13,1.67-.13,1.13,0,1.93.26,2.46.76.54.5.86,1.2.86,2.18s-.31,1.8-.87,2.36c-.57.57-1.5.87-2.68.87-.56,0-1.03-.03-1.42-.07v-5.97ZM491.18,38.49c.2.04.49.04.79.04,1.67,0,2.58-.94,2.58-2.57,0-1.43-.8-2.34-2.46-2.34-.41,0-.71.04-.92.08v4.79Z"/>
    </g>
    <g>
      <rect class="cls-3" x="353.05" y="168.57" width="134.61" height="23.48"/>
      <path class="cls-5" d="M368.28,180.9v-11.95h2.74v.83h-1.72v10.3h1.72v.83h-2.74Z"/>
      <path class="cls-5" d="M372.54,180.9v-11.95h2.74v.83h-1.72v10.3h1.72v.83h-2.74Z"/>
      <path class="cls-5" d="M378.18,176.04l-1.05,3.18h-1.35l3.43-10.11h1.58l3.45,10.11h-1.39l-1.08-3.18h-3.58ZM381.5,175.02l-.99-2.91c-.22-.66-.38-1.26-.53-1.85h-.03c-.15.6-.32,1.22-.51,1.83l-.99,2.92h3.04Z"/>
      <path class="cls-5" d="M384.83,181.07c.33-.88.73-2.49.9-3.58l1.47-.15c-.34,1.27-1,2.94-1.42,3.64l-.94.09Z"/>
      <path class="cls-5" d="M388.83,169.25c.57-.12,1.47-.21,2.38-.21,1.3,0,2.15.22,2.78.74.52.39.84.99.84,1.78,0,.98-.65,1.83-1.71,2.22v.03c.96.24,2.08,1.04,2.08,2.54,0,.87-.34,1.53-.86,2.03-.71.64-1.84.94-3.49.94-.9,0-1.59-.06-2.03-.12v-9.94ZM390.14,173.39h1.19c1.38,0,2.19-.72,2.19-1.69,0-1.19-.9-1.65-2.22-1.65-.6,0-.95.04-1.16.09v3.25ZM390.14,178.23c.25.04.63.06,1.1.06,1.35,0,2.59-.5,2.59-1.96,0-1.38-1.19-1.95-2.61-1.95h-1.08v3.85Z"/>
      <path class="cls-5" d="M395.87,181.07c.33-.88.74-2.49.9-3.58l1.47-.15c-.34,1.27-1,2.94-1.42,3.64l-.95.09Z"/>
      <path class="cls-5" d="M407.57,178.77c-.58.21-1.74.56-3.1.56-1.53,0-2.79-.39-3.78-1.33-.87-.84-1.41-2.19-1.41-3.77.01-3.01,2.08-5.22,5.47-5.22,1.17,0,2.08.25,2.52.46l-.31,1.07c-.54-.24-1.21-.44-2.24-.44-2.46,0-4.06,1.53-4.06,4.07s1.54,4.08,3.9,4.08c.86,0,1.44-.12,1.74-.27v-3.01h-2.05v-1.05h3.33v4.86Z"/>
      <path class="cls-5" d="M408.66,181.07c.33-.88.74-2.49.9-3.58l1.47-.15c-.34,1.27-1,2.94-1.42,3.64l-.95.09Z"/>
      <path class="cls-5" d="M413.97,169.11v4.23h4.89v-4.23h1.32v10.11h-1.32v-4.74h-4.89v4.74h-1.3v-10.11h1.3Z"/>
      <path class="cls-5" d="M421.55,181.07c.33-.88.74-2.49.9-3.58l1.47-.15c-.34,1.27-1,2.94-1.42,3.64l-.95.09Z"/>
      <path class="cls-5" d="M432.62,178.89c-.48.24-1.44.48-2.67.48-2.85,0-4.99-1.8-4.99-5.12s2.14-5.31,5.28-5.31c1.26,0,2.05.27,2.4.45l-.32,1.06c-.5-.24-1.2-.42-2.04-.42-2.37,0-3.94,1.51-3.94,4.17,0,2.47,1.42,4.06,3.88,4.06.79,0,1.6-.17,2.13-.42l.27,1.04Z"/>
      <path class="cls-5" d="M433.35,181.07c.33-.88.74-2.49.9-3.58l1.47-.15c-.34,1.27-1,2.94-1.42,3.64l-.95.09Z"/>
      <path class="cls-5" d="M437.36,169.25c.79-.12,1.74-.21,2.78-.21,1.87,0,3.21.43,4.09,1.26.9.83,1.42,2,1.42,3.63s-.51,3-1.46,3.93c-.95.95-2.5,1.46-4.47,1.46-.93,0-1.71-.04-2.37-.12v-9.94ZM438.66,178.19c.33.06.81.08,1.32.08,2.79,0,4.3-1.56,4.3-4.29.01-2.38-1.33-3.9-4.09-3.9-.67,0-1.18.06-1.53.13v7.98Z"/>
      <path class="cls-5" d="M445.94,181.07c.33-.88.73-2.49.9-3.58l1.47-.15c-.34,1.27-1,2.94-1.42,3.64l-.94.09Z"/>
      <path class="cls-5" d="M449.94,169.11h5.44v1.09h-4.14v3.36h3.82v1.08h-3.82v4.58h-1.3v-10.11Z"/>
      <path class="cls-5" d="M454.89,181.07c.33-.88.74-2.49.9-3.58l1.47-.15c-.34,1.27-1,2.94-1.42,3.64l-.95.09Z"/>
      <path class="cls-5" d="M464.13,174.48h-3.93v3.65h4.38v1.09h-5.68v-10.11h5.46v1.09h-4.16v3.2h3.93v1.08Z"/>
      <path class="cls-5" d="M468.17,168.93v11.97h-2.74v-.83h1.72v-10.32h-1.72v-.83h2.74Z"/>
      <path class="cls-5" d="M472.43,168.93v11.97h-2.74v-.83h1.72v-10.32h-1.72v-.83h2.74Z"/>
    </g>
    <g>
      <circle class="cls-5" cx="416.23" cy="152.16" r="7.75"/>
      <path class="cls-7" d="M414.77,149.28v2.54h2.93v-2.54h.79v6.07h-.79v-2.84h-2.93v2.84h-.78v-6.07h.78Z"/>
    </g>
    <g>
      <circle class="cls-5" cx="419.23" cy="35.16" r="7.75"/>
      <path class="cls-7" d="M417.56,31.97h3.63v.73h-2.76v2.24h2.55v.72h-2.55v3.05h-.87v-6.74Z"/>
    </g>
    <g>
      <circle class="cls-5" cx="402.23" cy="152.16" r="7.75"/>
      <path class="cls-7" d="M404.89,155.41c-.39.14-1.16.37-2.07.37-1.02,0-1.86-.26-2.52-.89-.58-.56-.94-1.46-.94-2.51,0-2.01,1.39-3.48,3.65-3.48.78,0,1.39.17,1.68.31l-.21.71c-.36-.16-.81-.29-1.49-.29-1.64,0-2.71,1.02-2.71,2.71s1.03,2.72,2.6,2.72c.57,0,.96-.08,1.16-.18v-2.01h-1.37v-.7h2.22v3.24Z"/>
    </g>
    <g>
      <circle class="cls-5" cx="404.23" cy="35.16" r="7.75"/>
      <path class="cls-7" d="M406.02,35.55h-2.62v2.43h2.92v.73h-3.79v-6.74h3.64v.73h-2.77v2.13h2.62v.72Z"/>
    </g>
  </g>
  <g>
    <path class="cls-6" d="M348.06,224.36s1.64-1.7,3.82-3.01c2.18-1.31,139.68-3.46,139.68-3.46l1.28,7.59-141.98-.59"/>
    <line class="cls-4" x1="347.97" y1="225.16" x2="492.56" y2="225.16"/>
    <line class="cls-4" x1="490.97" y1="219.39" x2="352.97" y2="219.39"/>
    <line class="cls-4" x1="491.56" y1="223.16" x2="491.56" y2="213.16"/>
    <g>
      <circle class="cls-5" cx="351.88" cy="218.78" r="7.75"/>
      <path class="cls-7" d="M349.93,215.68c.38-.08.98-.14,1.59-.14.87,0,1.43.15,1.85.49.35.26.56.66.56,1.19,0,.65-.43,1.22-1.14,1.48v.02c.64.16,1.39.69,1.39,1.69,0,.58-.23,1.02-.57,1.35-.47.43-1.23.63-2.33.63-.6,0-1.06-.04-1.35-.08v-6.63ZM350.8,218.44h.79c.92,0,1.46-.48,1.46-1.13,0-.79-.6-1.1-1.48-1.1-.4,0-.63.03-.77.06v2.17ZM350.8,221.67c.17.03.42.04.73.04.9,0,1.73-.33,1.73-1.31,0-.92-.79-1.3-1.74-1.3h-.72v2.57Z"/>
    </g>
    <g>
      <circle class="cls-5" cx="349.86" cy="223.78" r="7.75"/>
      <path class="cls-7" d="M348.65,225.21l-.7,2.12h-.9l2.29-6.74h1.05l2.3,6.74h-.93l-.72-2.12h-2.39ZM350.86,224.53l-.66-1.94c-.15-.44-.25-.84-.35-1.23h-.02c-.1.4-.21.81-.34,1.22l-.66,1.95h2.03Z"/>
    </g>
    <g>
      <rect class="cls-3" x="348.38" y="264.11" width="134.61" height="23.48"/>
      <path class="cls-5" d="M392.72,271.36c.47.29,1.15.53,1.87.53,1.07,0,1.69-.56,1.69-1.38,0-.76-.43-1.19-1.52-1.61-1.32-.47-2.13-1.15-2.13-2.29,0-1.26,1.04-2.2,2.61-2.2.83,0,1.43.19,1.79.4l-.29.85c-.26-.14-.8-.38-1.54-.38-1.1,0-1.52.66-1.52,1.21,0,.76.49,1.13,1.61,1.56,1.37.53,2.06,1.19,2.06,2.37,0,1.25-.92,2.33-2.83,2.33-.78,0-1.63-.23-2.06-.52l.26-.88Z"/>
      <path class="cls-5" d="M399.91,265.19c.01.36-.25.65-.67.65-.37,0-.64-.29-.64-.65s.28-.66.66-.66.65.29.65.66ZM398.74,272.63v-5.8h1.06v5.8h-1.06Z"/>
      <path class="cls-5" d="M406.56,264.11v7.02c0,.52.01,1.1.05,1.5h-.95l-.05-1.01h-.02c-.32.65-1.03,1.14-1.98,1.14-1.4,0-2.48-1.19-2.48-2.95-.01-1.93,1.19-3.12,2.6-3.12.89,0,1.49.42,1.75.89h.02v-3.47h1.05ZM405.51,269.18c0-.13-.01-.31-.05-.44-.16-.67-.73-1.22-1.52-1.22-1.09,0-1.74.96-1.74,2.24,0,1.17.58,2.15,1.71,2.15.71,0,1.36-.47,1.55-1.26.04-.14.05-.29.05-.46v-1.01Z"/>
      <path class="cls-5" d="M408.9,269.92c.02,1.43.94,2.02,1.99,2.02.75,0,1.21-.13,1.61-.3l.18.75c-.37.17-1.01.36-1.93.36-1.79,0-2.85-1.18-2.85-2.93s1.03-3.13,2.72-3.13c1.9,0,2.4,1.67,2.4,2.73,0,.22-.02.38-.04.49h-4.08ZM412,269.16c.01-.67-.28-1.72-1.46-1.72-1.07,0-1.54.98-1.62,1.72h3.08Z"/>
      <path class="cls-5" d="M417.28,266.82l1.14,3.26c.19.53.35,1.01.47,1.49h.04c.13-.48.3-.96.49-1.49l1.13-3.26h1.1l-2.28,5.8h-1.01l-2.21-5.8h1.13Z"/>
      <path class="cls-5" d="M423.82,265.19c.01.36-.25.65-.67.65-.37,0-.64-.29-.64-.65s.28-.66.66-.66.65.29.65.66ZM422.64,272.63v-5.8h1.06v5.8h-1.06Z"/>
      <path class="cls-5" d="M426.04,269.92c.02,1.43.94,2.02,1.99,2.02.75,0,1.21-.13,1.61-.3l.18.75c-.37.17-1.01.36-1.93.36-1.79,0-2.85-1.18-2.85-2.93s1.03-3.13,2.72-3.13c1.9,0,2.4,1.67,2.4,2.73,0,.22-.02.38-.04.49h-4.08ZM429.13,269.16c.01-.67-.28-1.72-1.46-1.72-1.07,0-1.54.98-1.62,1.72h3.08Z"/>
      <path class="cls-5" d="M431.88,266.82l.77,2.95c.17.65.32,1.25.43,1.85h.04c.13-.59.32-1.21.52-1.83l.95-2.96h.89l.9,2.9c.22.7.38,1.31.52,1.89h.04c.1-.59.25-1.2.44-1.88l.83-2.91h1.04l-1.87,5.8h-.96l-.89-2.77c-.2-.65-.37-1.22-.52-1.91h-.02c-.14.7-.32,1.3-.53,1.92l-.94,2.76h-.96l-1.75-5.8h1.08Z"/>
    </g>
    <g>
      <circle class="cls-5" cx="491.52" cy="220.12" r="7.75"/>
      <path class="cls-7" d="M493.3,220.51h-2.62v2.43h2.92v.73h-3.79v-6.74h3.64v.73h-2.77v2.13h2.62v.72Z"/>
    </g>
    <g>
      <circle class="cls-5" cx="491.86" cy="224.78" r="7.75"/>
      <path class="cls-7" d="M494.43,228.11c-.32.16-.96.32-1.78.32-1.9,0-3.33-1.2-3.33-3.41s1.43-3.54,3.52-3.54c.84,0,1.37.18,1.6.3l-.21.71c-.33-.16-.8-.28-1.36-.28-1.58,0-2.63,1.01-2.63,2.78,0,1.65.95,2.71,2.59,2.71.53,0,1.07-.11,1.42-.28l.18.69Z"/>
    </g>
    <g>
      <circle class="cls-5" cx="422.04" cy="218.92" r="7.75"/>
      <path class="cls-7" d="M423.83,219.31h-2.62v2.43h2.92v.73h-3.79v-6.74h3.64v.73h-2.77v2.13h2.62v.72Z"/>
    </g>
    <g>
      <circle class="cls-5" cx="407.04" cy="218.92" r="7.75"/>
      <path class="cls-7" d="M408.83,219.31h-2.62v2.43h2.92v.73h-3.79v-6.74h3.64v.73h-2.77v2.13h2.62v.72Z"/>
    </g>
    <g>
      <g>
        <path class="cls-7" d="M396.31,227.04c-.03-14.13,11.73-25.74,25.96-25.89,12.59-.13,25.91,9.74,26.09,26.3.15,14.14-11.75,25.85-26.04,25.87-14.39.01-25.98-11.69-26.01-26.27ZM411.59,248c7.88,4.54,20.61,4.02,28.82-5.78,7.32-8.73,6.11-20.05,2.88-25.28,5.63,17.63-11.03,36.87-31.7,31.06Z"/>
        <line class="cls-1" x1="394.59" y1="225.07" x2="449.59" y2="225.07"/>
        <path d="M443.3,257.8c-.29.09-.67.25-1.06.33-.83.16-1.39-.24-1.25-1.07.15-.83.56-1.62.87-2.43.05-.13.14-.25.22-.38,1.21-1.89,1.14-2.2-.81-3.54-14.97,12.57-35.34,6.17-43.84-6.37-8.53-12.57-6.49-29.49,5.1-39.79,11.13-9.9,28.21-9.88,39.49-.11,11.4,9.88,14.95,28.85,2.96,42.59.58.54,1.15,1.12,1.79,1.61.18.14.63.08.87-.05.94-.51,1.82-1.14,2.77-1.64.55-.29,1.23-.57,1.79-.02.58.57.18,1.19-.03,1.78-.06.16-.14.32-.2.47,3.26,1.71,5.64,4.47,8.39,6.75,2.78,2.3,5.46,4.72,8.18,7.08,2.11,1.83,4.18,3.71,6.35,5.47,1.22.98,1.65,2.15,1.36,3.61-1.11,5.49-5.33,9.31-10.33,10.01-1.12.16-2.07-.19-2.87-1.11-6.06-6.99-12.15-13.95-18.22-20.94-.58-.67-1.01-1.46-1.54-2.26ZM396.31,227.04c.03,14.58,11.62,26.29,26.01,26.27,14.29-.01,26.19-11.73,26.04-25.87-.18-16.56-13.49-26.43-26.09-26.3-14.23.15-25.99,11.76-25.96,25.89ZM446.15,257.41c1.78,2.08,3.51,4.12,5.25,6.15,4.53,5.32,9.05,10.64,13.59,15.95.2.23.61.56.79.49,1.12-.43,2.2-.96,3.44-1.53-.42-.44-.63-.67-.85-.89-6.83-6.75-13.65-13.51-20.48-20.26-.79-.79-.82-.79-1.74.08ZM444.76,253.75c-.77.54-1.48,1.05-2.2,1.56.87.99,1.43.82,2.76-.74-.17-.25-.34-.5-.56-.83Z"/>
        <path d="M411.59,248c20.67,5.82,37.32-13.43,31.7-31.06,3.23,5.23,4.44,16.55-2.88,25.28-8.21,9.79-20.94,10.32-28.82,5.78Z"/>
      </g>
      <g>
        <circle class="cls-5" cx="430.04" cy="224.92" r="7.75"/>
        <path class="cls-7" d="M428.57,222.05v2.54h2.94v-2.54h.79v6.07h-.79v-2.84h-2.94v2.84h-.78v-6.07h.78Z"/>
      </g>
      <g>
        <circle class="cls-5" cx="412.04" cy="224.92" r="7.75"/>
        <path class="cls-7" d="M414.7,228.17c-.39.14-1.16.37-2.07.37-1.02,0-1.86-.26-2.52-.89-.58-.56-.94-1.46-.94-2.51,0-2.01,1.39-3.48,3.65-3.48.78,0,1.39.17,1.68.31l-.21.71c-.36-.16-.81-.29-1.49-.29-1.64,0-2.71,1.02-2.71,2.71s1.03,2.72,2.6,2.72c.57,0,.96-.08,1.16-.18v-2.01h-1.37v-.7h2.22v3.24Z"/>
      </g>
    </g>
  </g>
  <g>
    <g>
      <line class="cls-2" x1="200.09" y1="152.07" x2="307.74" y2="152.07"/>
      <polygon class="cls-8" points="303.61 166.2 328.09 152.07 303.61 137.93 303.61 166.2"/>
    </g>
    <g>
      <rect class="cls-3" x="202.13" y="143.13" width="94.96" height="17.93"/>
      <path class="cls-5" d="M205.03,143.53c.38-.06.87-.12,1.5-.12.77,0,1.34.18,1.7.5.33.29.53.73.53,1.27s-.16.98-.47,1.3c-.41.44-1.09.67-1.85.67-.23,0-.45,0-.63-.05v2.43h-.78v-6ZM205.82,146.45c.17.04.39.06.65.06.95,0,1.52-.46,1.52-1.3s-.57-1.19-1.43-1.19c-.34,0-.6.03-.74.06v2.36Z"/>
      <path class="cls-5" d="M209.65,146.52c0-.51,0-.95-.04-1.36h.69l.03.86h.04c.2-.58.68-.95,1.21-.95.09,0,.15,0,.22.03v.75c-.08-.02-.16-.03-.27-.03-.56,0-.96.42-1.06,1.02-.02.11-.04.23-.04.37v2.32h-.78v-3Z"/>
      <path class="cls-5" d="M216.45,147.31c0,1.61-1.12,2.31-2.17,2.31-1.18,0-2.09-.86-2.09-2.24,0-1.46.96-2.31,2.16-2.31s2.1.91,2.1,2.24ZM212.99,147.35c0,.95.55,1.67,1.32,1.67s1.32-.71,1.32-1.69c0-.74-.37-1.67-1.31-1.67s-1.34.86-1.34,1.69Z"/>
      <path class="cls-5" d="M216.38,150.78c.36-.03.68-.13.86-.33.22-.25.3-.59.3-1.64v-3.65h.79v3.95c0,.85-.14,1.39-.52,1.79-.35.35-.93.5-1.35.5l-.08-.62ZM218.43,143.94c0,.26-.18.49-.5.49-.3,0-.49-.22-.49-.49,0-.28.21-.5.5-.5s.48.22.48.5Z"/>
      <path class="cls-5" d="M220.07,147.49c.02,1.07.7,1.51,1.49,1.51.57,0,.91-.1,1.21-.22l.14.57c-.28.13-.76.27-1.45.27-1.34,0-2.14-.88-2.14-2.2s.77-2.35,2.04-2.35c1.42,0,1.8,1.25,1.8,2.05,0,.16-.02.29-.03.37h-3.06ZM222.4,146.92c0-.5-.21-1.29-1.1-1.29-.8,0-1.15.74-1.21,1.29h2.31Z"/>
      <path class="cls-5" d="M227.25,149.36c-.21.11-.67.25-1.25.25-1.31,0-2.17-.89-2.17-2.22s.92-2.31,2.34-2.31c.47,0,.88.12,1.1.23l-.18.61c-.19-.11-.49-.21-.92-.21-1,0-1.54.74-1.54,1.65,0,1.01.65,1.63,1.51,1.63.45,0,.75-.12.97-.22l.13.59Z"/>
      <path class="cls-5" d="M229.24,143.91v1.25h1.13v.6h-1.13v2.35c0,.54.15.85.59.85.21,0,.36-.03.46-.05l.04.59c-.15.06-.4.11-.7.11-.37,0-.67-.12-.86-.33-.23-.23-.31-.62-.31-1.13v-2.38h-.67v-.6h.67v-1.04l.77-.21Z"/>
      <path class="cls-5" d="M232.08,145.55c.21-.76.59-1.73.85-2.14l.5-.05c-.2.53-.43,1.46-.53,2.11l-.82.09ZM233.42,145.55c.2-.76.59-1.73.84-2.14l.5-.05c-.2.53-.43,1.46-.53,2.11l-.81.09Z"/>
      <path class="cls-5" d="M235.7,149.52v-3.75h-.61v-.6h.61v-.21c0-.61.13-1.17.5-1.52.3-.29.69-.4,1.06-.4.28,0,.52.06.67.13l-.11.61c-.12-.05-.28-.1-.5-.1-.68,0-.85.59-.85,1.26v.23h1.05v.6h-1.05v3.75h-.78Z"/>
      <path class="cls-5" d="M242.07,147.31c0,1.61-1.12,2.31-2.17,2.31-1.18,0-2.09-.86-2.09-2.24,0-1.46.95-2.31,2.16-2.31s2.1.91,2.1,2.24ZM238.61,147.35c0,.95.55,1.67,1.32,1.67s1.32-.71,1.32-1.69c0-.74-.37-1.67-1.31-1.67s-1.34.86-1.34,1.69Z"/>
      <path class="cls-5" d="M243.07,143.13h.79v6.39h-.79v-6.39Z"/>
      <path class="cls-5" d="M248.95,143.13v5.27c0,.39,0,.83.04,1.12h-.71l-.04-.76h-.02c-.24.49-.77.86-1.49.86-1.05,0-1.86-.89-1.86-2.21,0-1.45.89-2.34,1.95-2.34.67,0,1.12.32,1.31.67h.02v-2.6h.79ZM248.16,146.94c0-.1,0-.23-.04-.33-.12-.5-.55-.92-1.14-.92-.82,0-1.31.72-1.31,1.68,0,.88.43,1.61,1.29,1.61.53,0,1.02-.35,1.16-.95.03-.11.04-.22.04-.34v-.76Z"/>
      <path class="cls-5" d="M251.31,143.36c-.21.76-.59,1.72-.84,2.13l-.5.06c.19-.53.43-1.47.53-2.12l.81-.08ZM252.64,143.36c-.21.76-.59,1.72-.84,2.13l-.5.06c.2-.53.43-1.47.53-2.12l.81-.08Z"/>
      <path class="cls-5" d="M254.95,145.16l.86,2.45c.14.4.26.76.35,1.12h.03c.1-.36.23-.72.37-1.12l.85-2.45h.83l-1.71,4.36h-.76l-1.66-4.36h.85Z"/>
      <path class="cls-5" d="M259.32,147.49c.02,1.07.7,1.51,1.49,1.51.57,0,.91-.1,1.21-.22l.14.57c-.28.13-.76.27-1.45.27-1.34,0-2.14-.88-2.14-2.2s.77-2.35,2.04-2.35c1.42,0,1.8,1.25,1.8,2.05,0,.16-.02.29-.03.37h-3.06ZM261.64,146.92c0-.5-.21-1.29-1.1-1.29-.8,0-1.15.74-1.21,1.29h2.31Z"/>
      <path class="cls-5" d="M263.39,146.52c0-.51,0-.95-.04-1.36h.69l.03.86h.04c.2-.58.68-.95,1.21-.95.09,0,.15,0,.22.03v.75c-.08-.02-.16-.03-.27-.03-.56,0-.96.42-1.06,1.02-.02.11-.04.23-.04.37v2.32h-.78v-3Z"/>
      <path class="cls-5" d="M267.5,143.91v1.25h1.13v.6h-1.13v2.35c0,.54.15.85.59.85.21,0,.36-.03.46-.05l.04.59c-.15.06-.4.11-.7.11-.37,0-.67-.12-.86-.33-.23-.23-.31-.62-.31-1.13v-2.38h-.67v-.6h.67v-1.04l.77-.21Z"/>
      <path class="cls-5" d="M270.41,143.94c0,.27-.19.49-.5.49-.28,0-.48-.21-.48-.49s.21-.5.5-.5.49.22.49.5ZM269.53,149.52v-4.36h.79v4.36h-.79Z"/>
      <path class="cls-5" d="M274.74,149.36c-.21.11-.67.25-1.25.25-1.31,0-2.17-.89-2.17-2.22s.92-2.31,2.34-2.31c.47,0,.88.12,1.1.23l-.18.61c-.19-.11-.49-.21-.92-.21-1,0-1.54.74-1.54,1.65,0,1.01.65,1.63,1.51,1.63.45,0,.75-.12.97-.22l.13.59Z"/>
      <path class="cls-5" d="M276.05,147.49c.02,1.07.7,1.51,1.49,1.51.57,0,.91-.1,1.21-.22l.14.57c-.28.13-.76.27-1.45.27-1.34,0-2.14-.88-2.14-2.2s.77-2.35,2.04-2.35c1.42,0,1.8,1.25,1.8,2.05,0,.16-.02.29-.03.37h-3.06ZM278.37,146.92c0-.5-.21-1.29-1.1-1.29-.8,0-1.15.74-1.21,1.29h2.31Z"/>
      <path class="cls-5" d="M280.01,148.71c.23.15.65.32,1.04.32.58,0,.85-.29.85-.65,0-.38-.22-.59-.81-.8-.78-.28-1.15-.71-1.15-1.23,0-.7.57-1.28,1.5-1.28.44,0,.83.13,1.07.27l-.2.58c-.17-.11-.49-.25-.89-.25-.47,0-.73.27-.73.59,0,.36.26.52.83.74.76.29,1.14.67,1.14,1.31,0,.77-.59,1.3-1.63,1.3-.48,0-.92-.12-1.22-.3l.2-.6Z"/>
      <path class="cls-5" d="M289.53,147.31c0,1.61-1.12,2.31-2.17,2.31-1.18,0-2.09-.86-2.09-2.24,0-1.46.96-2.31,2.16-2.31s2.1.91,2.1,2.24ZM286.08,147.35c0,.95.55,1.67,1.32,1.67s1.32-.71,1.32-1.69c0-.74-.37-1.67-1.31-1.67s-1.34.86-1.34,1.69Z"/>
      <path class="cls-5" d="M290.53,146.34c0-.45,0-.82-.04-1.18h.7l.04.72h.02c.22-.41.72-.82,1.44-.82.6,0,1.54.36,1.54,1.85v2.6h-.79v-2.51c0-.7-.26-1.29-1.01-1.29-.52,0-.93.37-1.06.81-.04.1-.05.23-.05.37v2.62h-.79v-3.18Z"/>
      <path class="cls-5" d="M230.65,160.32c.02-.3.04-.74.04-1.13v-5.27h.78v2.74h.02c.28-.49.78-.8,1.49-.8,1.08,0,1.84.9,1.84,2.22,0,1.56-.98,2.33-1.95,2.33-.63,0-1.13-.24-1.46-.82h-.03l-.04.72h-.68ZM231.47,158.58c0,.1.02.2.04.29.15.55.61.93,1.19.93.83,0,1.32-.68,1.32-1.67,0-.87-.45-1.62-1.3-1.62-.54,0-1.04.37-1.21.97-.02.09-.04.2-.04.32v.78Z"/>
      <path class="cls-5" d="M236.24,158.29c.02,1.07.7,1.51,1.49,1.51.57,0,.91-.1,1.21-.23l.14.57c-.28.13-.76.27-1.45.27-1.34,0-2.14-.88-2.14-2.2s.77-2.35,2.04-2.35c1.42,0,1.8,1.25,1.8,2.05,0,.16-.02.29-.03.37h-3.06ZM238.57,157.72c0-.5-.21-1.29-1.1-1.29-.8,0-1.15.74-1.21,1.29h2.31Z"/>
      <path class="cls-5" d="M240.2,159.51c.23.15.65.31,1.04.31.58,0,.85-.29.85-.65s-.22-.58-.81-.8c-.78-.28-1.15-.71-1.15-1.23,0-.7.57-1.28,1.5-1.28.44,0,.83.13,1.07.27l-.2.58c-.17-.11-.49-.25-.89-.25-.47,0-.73.27-.73.59,0,.36.26.52.83.74.76.29,1.14.67,1.14,1.31,0,.76-.59,1.31-1.63,1.31-.48,0-.92-.12-1.22-.3l.2-.6Z"/>
      <path class="cls-5" d="M244.83,154.71v1.25h1.13v.6h-1.13v2.35c0,.54.15.85.59.85.21,0,.36-.03.46-.05l.04.59c-.15.06-.4.11-.7.11-.37,0-.67-.12-.86-.33-.23-.23-.31-.62-.31-1.13v-2.38h-.67v-.6h.67v-1.04l.77-.21Z"/>
      <path class="cls-5" d="M248.76,157.39c0-.56-.02-1.01-.04-1.42h.71l.04.75h.02c.32-.53.84-.85,1.55-.85,1.05,0,1.85.89,1.85,2.21,0,1.57-.95,2.34-1.98,2.34-.58,0-1.08-.25-1.34-.68h-.02v2.37h-.78v-4.72ZM249.55,158.55c0,.12.02.22.04.32.14.55.62.93,1.19.93.84,0,1.32-.68,1.32-1.68,0-.87-.46-1.62-1.3-1.62-.54,0-1.04.39-1.2.98-.03.1-.05.22-.05.32v.75Z"/>
      <path class="cls-5" d="M253.88,153.93h.79v6.39h-.79v-6.39Z"/>
      <path class="cls-5" d="M258.42,160.32l-.06-.55h-.03c-.24.34-.71.65-1.33.65-.88,0-1.33-.62-1.33-1.25,0-1.05.94-1.63,2.62-1.62v-.09c0-.36-.1-1.01-.99-1.01-.41,0-.83.12-1.13.32l-.18-.52c.36-.23.88-.39,1.43-.39,1.33,0,1.66.91,1.66,1.78v1.63c0,.38.02.75.07,1.04h-.72ZM258.3,158.1c-.86-.02-1.85.14-1.85.98,0,.51.34.76.75.76.57,0,.93-.36,1.05-.73.03-.08.04-.17.04-.25v-.76Z"/>
      <path class="cls-5" d="M260.35,157.15c0-.45,0-.82-.04-1.18h.7l.04.72h.02c.22-.41.72-.82,1.44-.82.6,0,1.54.36,1.54,1.86v2.6h-.79v-2.51c0-.7-.26-1.29-1.01-1.29-.52,0-.93.37-1.06.81-.04.1-.05.23-.05.37v2.62h-.79v-3.18Z"/>
      <path class="cls-5" d="M265.78,158.29c.02,1.07.7,1.51,1.49,1.51.57,0,.91-.1,1.21-.23l.14.57c-.28.13-.76.27-1.45.27-1.34,0-2.14-.88-2.14-2.2s.77-2.35,2.04-2.35c1.42,0,1.8,1.25,1.8,2.05,0,.16-.02.29-.03.37h-3.06ZM268.11,157.72c0-.5-.21-1.29-1.1-1.29-.8,0-1.15.74-1.21,1.29h2.31Z"/>
    </g>
  </g>
</svg>