<?xml version="1.0" encoding="UTF-8"?>
<svg id="Shell" xmlns="http://www.w3.org/2000/svg" viewBox="0 0 852.58 424.6">
  <defs>
    <style>
      .cls-1 {
        fill: #231f20;
      }

      .cls-2, .cls-3, .cls-4, .cls-5, .cls-6, .cls-7, .cls-8 {
        fill: none;
      }

      .cls-2, .cls-3, .cls-5, .cls-6, .cls-7, .cls-8 {
        stroke-miterlimit: 10;
        stroke-width: 2.83px;
      }

      .cls-2, .cls-7 {
        stroke: #c92027;
      }

      .cls-2, .cls-8 {
        stroke-dasharray: 5.67;
      }

      .cls-9 {
        fill: #6dbae7;
        opacity: .31;
      }

      .cls-10 {
        fill: #fff;
      }

      .cls-3 {
        stroke: #9b9a9a;
      }

      .cls-11 {
        fill: #9b9a9a;
      }

      .cls-5, .cls-8 {
        stroke: #437898;
      }

      .cls-6 {
        stroke: #ed1c24;
      }
    </style>
  </defs>
  <g>
    <rect class="cls-9" x="53.76" y="41.16" width="124" height="115"/>
    <polyline class="cls-9" points="51.76 41.16 51.76 41.16 53.26 156.66 30.81 189.3 32.26 71.66 53.76 41.16"/>
    <line class="cls-5" x1="178.26" y1="41.66" x2="53.26" y2="41.66"/>
    <line class="cls-5" x1="155.26" y1="71.66" x2="178.26" y2="41.66"/>
    <line class="cls-5" x1="159.26" y1="191.66" x2="179.26" y2="157.66"/>
    <line class="cls-5" x1="178.26" y1="41.66" x2="178.26" y2="157.66"/>
    <line class="cls-8" x1="53.26" y1="41.66" x2="53.26" y2="156.66"/>
    <line class="cls-5" x1="32.02" y1="71.1" x2="55.02" y2="41.1"/>
    <line class="cls-8" x1="178.26" y1="156.66" x2="51.26" y2="156.66"/>
    <polyline class="cls-8" points="53.26 156.66 33.26 187.66 53.26 156.66"/>
    <polygon class="cls-9" points="53.26 41.66 33.34 71.22 156.89 71.98 178.52 40.61 53.26 41.66"/>
    <polyline class="cls-9" points="31.89 188.98 53.26 156.66 178.26 157.66 158.26 188.66"/>
    <polygon class="cls-9" points="156.89 71.98 177.47 42.59 176.42 160.17 156.27 189.19 156.89 71.98"/>
    <g>
      <circle class="cls-1" cx="53.01" cy="40.41" r="7.75"/>
      <path class="cls-10" d="M54.79,40.8h-2.62v2.43h2.92v.73h-3.79v-6.74h3.64v.73h-2.77v2.13h2.62v.72Z"/>
    </g>
    <g>
      <circle class="cls-1" cx="177.89" cy="156.98" r="7.75"/>
      <path class="cls-10" d="M176.42,154.1v2.54h2.93v-2.54h.79v6.07h-.79v-2.84h-2.93v2.84h-.78v-6.07h.78Z"/>
    </g>
    <g>
      <circle class="cls-1" cx="51.89" cy="156.98" r="7.75"/>
      <path class="cls-10" d="M50.21,153.79h3.63v.73h-2.76v2.24h2.55v.72h-2.55v3.05h-.87v-6.74Z"/>
    </g>
    <g>
      <circle class="cls-1" cx="176.89" cy="39.98" r="7.75"/>
      <path class="cls-10" d="M179.28,42.9c-.35.13-1.04.33-1.86.33-.92,0-1.67-.23-2.27-.8-.52-.5-.85-1.31-.85-2.26,0-1.81,1.25-3.13,3.29-3.13.7,0,1.25.15,1.51.28l-.19.64c-.32-.14-.73-.26-1.34-.26-1.48,0-2.44.92-2.44,2.44s.93,2.45,2.34,2.45c.51,0,.86-.07,1.04-.16v-1.81h-1.23v-.63h2v2.92Z"/>
    </g>
    <rect class="cls-9" x="33.76" y="73.16" width="124" height="115"/>
    <rect class="cls-5" x="32.26" y="71.66" width="126" height="117"/>
    <g>
      <circle class="cls-1" cx="33.01" cy="72.41" r="7.75"/>
      <path class="cls-10" d="M31.8,73.84l-.7,2.12h-.9l2.29-6.74h1.05l2.3,6.74h-.93l-.72-2.12h-2.39ZM34,73.16l-.66-1.94c-.15-.44-.25-.84-.35-1.23h-.02c-.1.4-.21.81-.34,1.22l-.66,1.95h2.03Z"/>
    </g>
    <g>
      <circle class="cls-1" cx="157.89" cy="188.98" r="7.75"/>
      <path class="cls-10" d="M160.45,192.31c-.32.16-.96.32-1.78.32-1.9,0-3.33-1.2-3.33-3.41s1.43-3.54,3.52-3.54c.84,0,1.37.18,1.6.3l-.21.71c-.33-.16-.8-.28-1.36-.28-1.58,0-2.63,1.01-2.63,2.78,0,1.65.95,2.71,2.59,2.71.53,0,1.07-.11,1.42-.28l.18.69Z"/>
    </g>
    <g>
      <circle class="cls-1" cx="31.89" cy="188.98" r="7.75"/>
      <path class="cls-10" d="M29.94,185.88c.38-.08.98-.14,1.59-.14.87,0,1.43.15,1.85.49.35.26.56.66.56,1.19,0,.65-.43,1.22-1.14,1.48v.02c.64.16,1.39.69,1.39,1.69,0,.58-.23,1.02-.57,1.35-.47.43-1.23.63-2.33.63-.6,0-1.06-.04-1.35-.08v-6.63ZM30.81,188.64h.79c.92,0,1.46-.48,1.46-1.13,0-.79-.6-1.1-1.48-1.1-.4,0-.63.03-.77.06v2.17ZM30.81,191.87c.17.03.42.04.73.04.9,0,1.73-.33,1.73-1.31,0-.92-.79-1.3-1.74-1.3h-.72v2.57Z"/>
    </g>
    <g>
      <circle class="cls-1" cx="156.89" cy="71.98" r="7.75"/>
      <path class="cls-10" d="M154.57,69.18c.48-.07,1.04-.13,1.67-.13,1.12,0,1.93.26,2.46.76.54.5.85,1.2.85,2.18s-.31,1.8-.87,2.36c-.57.57-1.5.87-2.68.87-.56,0-1.03-.03-1.42-.07v-5.97ZM155.36,74.55c.2.04.49.04.79.04,1.67,0,2.58-.94,2.58-2.58,0-1.43-.8-2.34-2.46-2.34-.41,0-.71.04-.92.08v4.79Z"/>
    </g>
    <polygon class="cls-10" points="77.33 63.19 109.78 49.73 108.81 65.71 77.33 63.19"/>
    <line class="cls-5" x1="78.67" y1="61.07" x2="110.67" y2="67.07"/>
    <line class="cls-5" x1="111.67" y1="66.07" x2="109.67" y2="49.07"/>
    <line class="cls-5" x1="79.17" y1="60.57" x2="110.17" y2="48.57"/>
    <g>
      <circle class="cls-1" cx="111.9" cy="48.02" r="7.75"/>
      <path class="cls-10" d="M112.19,44.83h.87v4.51c0,1.79-.88,2.34-2.04,2.34-.32,0-.71-.07-.93-.16l.13-.71c.18.07.44.13.73.13.78,0,1.24-.35,1.24-1.67v-4.44Z"/>
    </g>
    <g>
      <circle class="cls-1" cx="111.78" cy="66.59" r="7.75"/>
      <path class="cls-10" d="M110.02,63.71h.78v2.93h.03c.16-.23.32-.45.48-.65l1.85-2.28h.97l-2.2,2.58,2.37,3.49h-.93l-2-2.98-.58.67v2.31h-.78v-6.07Z"/>
    </g>
    <g>
      <circle class="cls-1" cx="78.9" cy="61.02" r="7.75"/>
      <path class="cls-10" d="M79.33,57.83v6.74h-.87v-6.74h.87Z"/>
    </g>
  </g>
  <g>
    <polyline class="cls-9" points="50.76 238.94 50.76 238.94 52.26 354.44 29.81 387.08 31.26 269.44 52.76 238.94"/>
    <line class="cls-5" x1="158.26" y1="389.44" x2="178.26" y2="355.44"/>
    <line class="cls-8" x1="52.26" y1="239.44" x2="52.26" y2="354.44"/>
    <line class="cls-5" x1="31.02" y1="268.89" x2="54.02" y2="238.89"/>
    <line class="cls-8" x1="177.26" y1="354.44" x2="50.26" y2="354.44"/>
    <polyline class="cls-8" points="52.26 354.44 32.26 385.44 52.26 354.44"/>
    <polyline class="cls-9" points="30.89 386.76 52.26 354.44 177.26 355.44 157.26 386.44"/>
    <line class="cls-8" x1="95.67" y1="258.07" x2="115.67" y2="290.07"/>
    <line class="cls-8" x1="154.67" y1="273.07" x2="113.67" y2="290.07"/>
    <polygon class="cls-9" points="54.02 238.89 30.97 270.94 155.89 269.76 93.43 255.47 54.02 238.89"/>
    <polyline class="cls-9" points="178.26 355.44 177.12 357.11 156.89 386.76 155.89 269.76 169.43 315.6"/>
    <polyline class="cls-9" points="94.35 258.08 115.67 290.07 157.73 269.8"/>
    <g>
      <circle class="cls-1" cx="115.43" cy="289.6" r="7.75"/>
      <path class="cls-10" d="M115.86,286.41v6.74h-.87v-6.74h.87Z"/>
    </g>
    <g>
      <circle class="cls-1" cx="50.89" cy="354.76" r="7.75"/>
      <path class="cls-10" d="M49.21,351.57h3.63v.73h-2.76v2.24h2.55v.72h-2.55v3.05h-.87v-6.74Z"/>
    </g>
    <rect class="cls-9" x="32.76" y="270.94" width="124" height="115"/>
    <rect class="cls-5" x="31.26" y="269.44" width="126" height="117"/>
    <line class="cls-5" x1="50.67" y1="239.07" x2="95.67" y2="258.07"/>
    <line class="cls-5" x1="32.67" y1="271.07" x2="93.67" y2="256.07"/>
    <line class="cls-5" x1="157.67" y1="269.07" x2="93.67" y2="256.07"/>
    <line class="cls-5" x1="160.67" y1="276.07" x2="169.67" y2="317.07"/>
    <line class="cls-5" x1="178.67" y1="355.07" x2="167.67" y2="318.07"/>
    <g>
      <circle class="cls-1" cx="52.01" cy="238.19" r="7.75"/>
      <path class="cls-10" d="M53.79,238.58h-2.62v2.43h2.92v.73h-3.79v-6.74h3.64v.73h-2.77v2.13h2.62v.72Z"/>
    </g>
    <g>
      <circle class="cls-1" cx="176.89" cy="354.76" r="7.75"/>
      <path class="cls-10" d="M175.42,351.89v2.54h2.93v-2.54h.79v6.07h-.79v-2.84h-2.93v2.84h-.78v-6.07h.78Z"/>
    </g>
    <g>
      <circle class="cls-1" cx="32.01" cy="270.19" r="7.75"/>
      <path class="cls-10" d="M30.8,271.62l-.7,2.12h-.9l2.29-6.74h1.05l2.3,6.74h-.93l-.72-2.12h-2.39ZM33,270.94l-.66-1.94c-.15-.44-.25-.84-.35-1.23h-.02c-.1.4-.21.81-.34,1.22l-.66,1.95h2.03Z"/>
    </g>
    <g>
      <circle class="cls-1" cx="156.89" cy="386.76" r="7.75"/>
      <path class="cls-10" d="M159.45,390.09c-.32.16-.96.32-1.78.32-1.9,0-3.33-1.2-3.33-3.41s1.43-3.54,3.52-3.54c.84,0,1.37.18,1.6.3l-.21.71c-.33-.16-.8-.28-1.36-.28-1.58,0-2.63,1.01-2.63,2.78,0,1.65.95,2.71,2.59,2.71.53,0,1.07-.11,1.42-.28l.18.69Z"/>
    </g>
    <g>
      <circle class="cls-1" cx="30.89" cy="386.76" r="7.75"/>
      <path class="cls-10" d="M28.94,383.66c.38-.08.98-.14,1.59-.14.87,0,1.43.15,1.85.49.35.26.56.66.56,1.19,0,.65-.43,1.22-1.14,1.48v.02c.64.16,1.39.69,1.39,1.69,0,.58-.23,1.02-.57,1.35-.47.43-1.23.63-2.33.63-.6,0-1.06-.04-1.35-.08v-6.63ZM29.81,386.42h.79c.92,0,1.46-.48,1.46-1.13,0-.79-.6-1.1-1.48-1.1-.4,0-.63.03-.77.06v2.17ZM29.81,389.65c.17.03.42.04.73.04.9,0,1.73-.33,1.73-1.31,0-.92-.79-1.3-1.74-1.3h-.72v2.57Z"/>
    </g>
    <g>
      <circle class="cls-1" cx="155.89" cy="269.76" r="7.75"/>
      <path class="cls-10" d="M153.57,266.97c.48-.07,1.04-.13,1.67-.13,1.12,0,1.93.26,2.46.76.54.5.85,1.2.85,2.18s-.31,1.8-.87,2.36c-.57.57-1.5.87-2.68.87-.56,0-1.03-.03-1.42-.07v-5.97ZM154.36,272.33c.2.04.49.04.79.04,1.67,0,2.58-.94,2.58-2.57,0-1.43-.8-2.34-2.46-2.34-.41,0-.71.04-.92.08v4.79Z"/>
    </g>
    <g>
      <circle class="cls-1" cx="93.76" cy="255.47" r="7.75"/>
      <path class="cls-10" d="M96.16,258.4c-.35.13-1.04.33-1.86.33-.92,0-1.67-.23-2.27-.8-.52-.5-.85-1.31-.85-2.26,0-1.81,1.25-3.13,3.29-3.13.7,0,1.25.15,1.51.28l-.19.64c-.32-.14-.73-.26-1.34-.26-1.48,0-2.44.92-2.44,2.44s.93,2.45,2.34,2.45c.51,0,.86-.07,1.04-.16v-1.81h-1.23v-.63h2v2.92Z"/>
    </g>
    <g>
      <circle class="cls-1" cx="169.43" cy="315.6" r="7.75"/>
      <path class="cls-10" d="M169.72,312.41h.87v4.51c0,1.79-.88,2.34-2.04,2.34-.32,0-.71-.07-.93-.16l.13-.71c.18.07.44.13.73.13.78,0,1.24-.35,1.24-1.67v-4.44Z"/>
    </g>
  </g>
  <g>
    <rect class="cls-9" x="369.26" y="43.24" width="124" height="115"/>
    <polyline class="cls-9" points="367.26 43.24 367.26 43.24 368.76 158.74 346.31 191.38 347.76 73.74 369.26 43.24"/>
    <line class="cls-5" x1="493.76" y1="43.74" x2="368.76" y2="43.74"/>
    <line class="cls-5" x1="470.76" y1="73.74" x2="493.76" y2="43.74"/>
    <line class="cls-5" x1="474.76" y1="193.74" x2="494.76" y2="159.74"/>
    <line class="cls-5" x1="493.76" y1="43.74" x2="493.76" y2="159.74"/>
    <line class="cls-8" x1="368.76" y1="43.74" x2="368.76" y2="158.74"/>
    <line class="cls-5" x1="347.52" y1="73.19" x2="370.52" y2="43.19"/>
    <line class="cls-8" x1="493.76" y1="158.74" x2="366.76" y2="158.74"/>
    <polyline class="cls-8" points="368.76 158.74 348.76 189.74 368.76 158.74"/>
    <polygon class="cls-9" points="368.76 43.74 348.84 73.31 472.39 74.06 494.02 42.7 368.76 43.74"/>
    <polyline class="cls-9" points="347.39 191.06 368.76 158.74 493.76 159.74 473.76 190.74"/>
    <polygon class="cls-9" points="472.39 74.06 492.97 44.67 491.92 162.26 471.77 191.27 472.39 74.06"/>
    <g>
      <circle class="cls-1" cx="368.51" cy="42.49" r="7.75"/>
      <path class="cls-10" d="M370.29,42.89h-2.62v2.43h2.92v.73h-3.79v-6.74h3.64v.73h-2.77v2.13h2.62v.72Z"/>
    </g>
    <g>
      <circle class="cls-1" cx="493.39" cy="159.06" r="7.75"/>
      <path class="cls-10" d="M491.92,156.19v2.54h2.93v-2.54h.79v6.07h-.79v-2.84h-2.93v2.84h-.78v-6.07h.78Z"/>
    </g>
    <g>
      <circle class="cls-1" cx="367.39" cy="159.06" r="7.75"/>
      <path class="cls-10" d="M365.71,155.88h3.63v.73h-2.76v2.24h2.55v.72h-2.55v3.05h-.87v-6.74Z"/>
    </g>
    <g>
      <circle class="cls-1" cx="492.39" cy="42.06" r="7.75"/>
      <path class="cls-10" d="M494.78,44.99c-.35.13-1.04.33-1.86.33-.92,0-1.67-.23-2.27-.8-.52-.5-.85-1.31-.85-2.26,0-1.81,1.25-3.13,3.29-3.13.7,0,1.25.15,1.51.28l-.19.64c-.32-.14-.73-.26-1.34-.26-1.48,0-2.44.92-2.44,2.44s.93,2.45,2.34,2.45c.51,0,.86-.07,1.04-.16v-1.81h-1.23v-.63h2v2.92Z"/>
    </g>
    <rect class="cls-9" x="349.26" y="75.24" width="124" height="115"/>
    <rect class="cls-5" x="347.76" y="73.74" width="126" height="117"/>
    <g>
      <circle class="cls-1" cx="348.51" cy="74.49" r="7.75"/>
      <path class="cls-10" d="M347.29,75.92l-.7,2.12h-.9l2.29-6.74h1.05l2.3,6.74h-.93l-.72-2.12h-2.39ZM349.5,75.24l-.66-1.94c-.15-.44-.25-.84-.35-1.23h-.02c-.1.4-.21.81-.34,1.22l-.66,1.95h2.03Z"/>
    </g>
    <g>
      <circle class="cls-1" cx="473.39" cy="191.06" r="7.75"/>
      <path class="cls-10" d="M475.95,194.39c-.32.16-.96.32-1.78.32-1.9,0-3.33-1.2-3.33-3.41s1.43-3.54,3.52-3.54c.84,0,1.37.18,1.6.3l-.21.71c-.33-.16-.8-.28-1.36-.28-1.58,0-2.63,1.01-2.63,2.78,0,1.65.95,2.71,2.59,2.71.53,0,1.07-.11,1.42-.28l.18.69Z"/>
    </g>
    <g>
      <circle class="cls-1" cx="347.39" cy="191.06" r="7.75"/>
      <path class="cls-10" d="M345.44,187.97c.38-.08.98-.14,1.59-.14.87,0,1.43.15,1.85.49.35.26.56.66.56,1.19,0,.65-.43,1.22-1.14,1.48v.02c.64.16,1.39.69,1.39,1.69,0,.58-.23,1.02-.57,1.35-.47.43-1.23.63-2.33.63-.6,0-1.06-.04-1.35-.08v-6.63ZM346.31,190.73h.79c.92,0,1.46-.48,1.46-1.13,0-.79-.6-1.1-1.48-1.1-.4,0-.63.03-.77.06v2.17ZM346.31,193.95c.17.03.42.04.73.04.9,0,1.73-.33,1.73-1.31,0-.92-.79-1.3-1.74-1.3h-.72v2.57Z"/>
    </g>
    <g>
      <circle class="cls-1" cx="472.39" cy="74.06" r="7.75"/>
      <path class="cls-10" d="M470.07,71.27c.48-.07,1.04-.13,1.67-.13,1.12,0,1.93.26,2.46.76.54.5.85,1.2.85,2.18s-.31,1.8-.87,2.36c-.57.57-1.5.87-2.68.87-.56,0-1.03-.03-1.42-.07v-5.97ZM470.86,76.64c.2.04.49.04.79.04,1.67,0,2.58-.94,2.58-2.58,0-1.43-.8-2.34-2.46-2.34-.41,0-.71.04-.92.08v4.79Z"/>
    </g>
    <polygon class="cls-10" points="392.83 65.28 425.28 51.81 424.31 67.8 392.83 65.28"/>
    <line class="cls-7" x1="394.17" y1="63.15" x2="426.17" y2="69.15"/>
    <line class="cls-7" x1="427.17" y1="68.15" x2="425.17" y2="51.15"/>
    <line class="cls-6" x1="394.67" y1="62.65" x2="425.67" y2="50.65"/>
    <g>
      <circle class="cls-1" cx="427.4" cy="50.1" r="7.75"/>
      <path class="cls-10" d="M427.69,46.92h.87v4.51c0,1.79-.88,2.34-2.04,2.34-.32,0-.71-.07-.93-.16l.13-.71c.18.07.44.13.73.13.78,0,1.24-.35,1.24-1.67v-4.44Z"/>
    </g>
    <g>
      <circle class="cls-1" cx="427.28" cy="68.67" r="7.75"/>
      <path class="cls-10" d="M425.52,65.8h.78v2.93h.03c.16-.23.32-.45.48-.65l1.85-2.28h.97l-2.2,2.58,2.37,3.49h-.93l-2-2.98-.58.67v2.31h-.78v-6.07Z"/>
    </g>
    <g>
      <circle class="cls-1" cx="394.4" cy="63.1" r="7.75"/>
      <path class="cls-10" d="M394.83,59.92v6.74h-.87v-6.74h.87Z"/>
    </g>
  </g>
  <g>
    <polyline class="cls-9" points="366.26 241.03 366.26 241.03 367.76 356.53 345.31 389.17 346.76 271.53 368.26 241.03"/>
    <line class="cls-5" x1="473.76" y1="391.53" x2="493.76" y2="357.53"/>
    <line class="cls-2" x1="367.76" y1="241.53" x2="367.76" y2="356.53"/>
    <line class="cls-5" x1="346.52" y1="270.97" x2="369.52" y2="240.97"/>
    <line class="cls-2" x1="492.76" y1="356.53" x2="365.76" y2="356.53"/>
    <polyline class="cls-8" points="367.76 356.53 347.76 387.53 367.76 356.53"/>
    <polyline class="cls-9" points="346.39 388.85 367.76 356.53 492.76 357.53 472.76 388.53"/>
    <line class="cls-2" x1="411.17" y1="260.15" x2="431.17" y2="292.15"/>
    <line class="cls-2" x1="470.17" y1="275.15" x2="429.17" y2="292.15"/>
    <polygon class="cls-9" points="369.52 240.97 346.47 273.03 471.39 271.85 408.93 257.56 369.52 240.97"/>
    <polyline class="cls-9" points="493.76 357.53 492.62 359.2 472.39 388.85 471.39 271.85 484.93 317.69"/>
    <polyline class="cls-9" points="409.85 260.17 431.17 292.15 473.23 271.89"/>
    <g>
      <circle class="cls-1" cx="430.93" cy="291.69" r="7.75"/>
      <path class="cls-10" d="M431.36,288.5v6.74h-.87v-6.74h.87Z"/>
    </g>
    <g>
      <circle class="cls-1" cx="366.39" cy="356.85" r="7.75"/>
      <path class="cls-10" d="M364.71,353.66h3.63v.73h-2.76v2.24h2.55v.72h-2.55v3.05h-.87v-6.74Z"/>
    </g>
    <rect class="cls-9" x="348.26" y="273.03" width="124" height="115"/>
    <rect class="cls-5" x="346.76" y="271.53" width="126" height="117"/>
    <line class="cls-7" x1="366.17" y1="241.15" x2="411.17" y2="260.15"/>
    <line class="cls-5" x1="348.17" y1="273.15" x2="409.17" y2="258.15"/>
    <line class="cls-5" x1="473.17" y1="271.15" x2="409.17" y2="258.15"/>
    <line class="cls-7" x1="476.17" y1="278.15" x2="485.17" y2="319.15"/>
    <line class="cls-7" x1="494.17" y1="357.15" x2="483.17" y2="320.15"/>
    <g>
      <circle class="cls-1" cx="367.51" cy="240.28" r="7.75"/>
      <path class="cls-10" d="M369.29,240.67h-2.62v2.43h2.92v.73h-3.79v-6.74h3.64v.73h-2.77v2.13h2.62v.72Z"/>
    </g>
    <g>
      <circle class="cls-1" cx="492.39" cy="356.85" r="7.75"/>
      <path class="cls-10" d="M490.92,353.97v2.54h2.93v-2.54h.79v6.07h-.79v-2.84h-2.93v2.84h-.78v-6.07h.78Z"/>
    </g>
    <g>
      <circle class="cls-1" cx="347.51" cy="272.28" r="7.75"/>
      <path class="cls-10" d="M346.29,273.71l-.7,2.12h-.9l2.29-6.74h1.05l2.3,6.74h-.93l-.72-2.12h-2.39ZM348.5,273.03l-.66-1.94c-.15-.44-.25-.84-.35-1.23h-.02c-.1.4-.21.81-.34,1.22l-.66,1.95h2.03Z"/>
    </g>
    <g>
      <circle class="cls-1" cx="472.39" cy="388.85" r="7.75"/>
      <path class="cls-10" d="M474.95,392.18c-.32.16-.96.32-1.78.32-1.9,0-3.33-1.2-3.33-3.41s1.43-3.54,3.52-3.54c.84,0,1.37.18,1.6.3l-.21.71c-.33-.16-.8-.28-1.36-.28-1.58,0-2.63,1.01-2.63,2.78,0,1.65.95,2.71,2.59,2.71.53,0,1.07-.11,1.42-.28l.18.69Z"/>
    </g>
    <g>
      <circle class="cls-1" cx="346.39" cy="388.85" r="7.75"/>
      <path class="cls-10" d="M344.44,385.75c.38-.08.98-.14,1.59-.14.87,0,1.43.15,1.85.49.35.26.56.66.56,1.19,0,.65-.43,1.22-1.14,1.48v.02c.64.16,1.39.69,1.39,1.69,0,.58-.23,1.02-.57,1.35-.47.43-1.23.63-2.33.63-.6,0-1.06-.04-1.35-.08v-6.63ZM345.31,388.51h.79c.92,0,1.46-.48,1.46-1.13,0-.79-.6-1.1-1.48-1.1-.4,0-.63.03-.77.06v2.17ZM345.31,391.74c.17.03.42.04.73.04.9,0,1.73-.33,1.73-1.31,0-.92-.79-1.3-1.74-1.3h-.72v2.57Z"/>
    </g>
    <g>
      <circle class="cls-1" cx="471.39" cy="271.85" r="7.75"/>
      <path class="cls-10" d="M469.07,269.05c.48-.07,1.04-.13,1.67-.13,1.12,0,1.93.26,2.46.76.54.5.85,1.2.85,2.18s-.31,1.8-.87,2.36c-.57.57-1.5.87-2.68.87-.56,0-1.03-.03-1.42-.07v-5.97ZM469.86,274.42c.2.04.49.04.79.04,1.67,0,2.58-.94,2.58-2.57,0-1.43-.8-2.34-2.46-2.34-.41,0-.71.04-.92.08v4.79Z"/>
    </g>
    <g>
      <circle class="cls-1" cx="409.26" cy="257.56" r="7.75"/>
      <path class="cls-10" d="M411.66,260.48c-.35.13-1.04.33-1.86.33-.92,0-1.67-.23-2.27-.8-.52-.5-.85-1.31-.85-2.26,0-1.81,1.25-3.13,3.29-3.13.7,0,1.25.15,1.51.28l-.19.64c-.32-.14-.73-.26-1.34-.26-1.48,0-2.44.92-2.44,2.44s.93,2.45,2.34,2.45c.51,0,.86-.07,1.04-.16v-1.81h-1.23v-.63h2v2.92Z"/>
    </g>
    <g>
      <circle class="cls-1" cx="484.93" cy="317.69" r="7.75"/>
      <path class="cls-10" d="M485.22,314.5h.87v4.51c0,1.79-.88,2.34-2.04,2.34-.32,0-.71-.07-.93-.16l.13-.71c.18.07.44.13.73.13.78,0,1.24-.35,1.24-1.67v-4.44Z"/>
    </g>
  </g>
  <g>
    <rect class="cls-9" x="685.26" y="50.24" width="124" height="115"/>
    <polyline class="cls-9" points="683.26 50.24 683.26 50.24 684.76 165.74 662.31 198.38 663.76 80.74 685.26 50.24"/>
    <line class="cls-5" x1="809.76" y1="50.74" x2="684.76" y2="50.74"/>
    <line class="cls-5" x1="786.76" y1="80.74" x2="809.76" y2="50.74"/>
    <line class="cls-5" x1="790.76" y1="200.74" x2="810.76" y2="166.74"/>
    <line class="cls-5" x1="809.76" y1="50.74" x2="809.76" y2="166.74"/>
    <line class="cls-8" x1="684.76" y1="50.74" x2="684.76" y2="165.74"/>
    <line class="cls-5" x1="663.52" y1="80.19" x2="686.52" y2="50.19"/>
    <line class="cls-8" x1="809.76" y1="165.74" x2="682.76" y2="165.74"/>
    <polyline class="cls-8" points="684.76 165.74 664.76 196.74 684.76 165.74"/>
    <polygon class="cls-9" points="684.76 50.74 664.84 80.31 788.39 81.06 810.02 49.7 684.76 50.74"/>
    <polyline class="cls-9" points="663.39 198.06 684.76 165.74 809.76 166.74 789.76 197.74"/>
    <polygon class="cls-9" points="788.39 81.06 808.97 51.67 807.92 169.26 787.77 198.27 788.39 81.06"/>
    <g>
      <circle class="cls-1" cx="684.51" cy="49.49" r="7.75"/>
      <path class="cls-10" d="M686.29,49.89h-2.62v2.43h2.92v.73h-3.79v-6.74h3.64v.73h-2.77v2.13h2.62v.72Z"/>
    </g>
    <g>
      <circle class="cls-1" cx="809.39" cy="166.06" r="7.75"/>
      <path class="cls-10" d="M807.92,163.19v2.54h2.93v-2.54h.79v6.07h-.79v-2.84h-2.93v2.84h-.78v-6.07h.78Z"/>
    </g>
    <g>
      <circle class="cls-1" cx="683.39" cy="166.06" r="7.75"/>
      <path class="cls-10" d="M681.71,162.88h3.63v.73h-2.76v2.24h2.55v.72h-2.55v3.05h-.87v-6.74Z"/>
    </g>
    <g>
      <circle class="cls-1" cx="808.39" cy="49.06" r="7.75"/>
      <path class="cls-10" d="M810.78,51.99c-.35.13-1.04.33-1.86.33-.92,0-1.67-.23-2.27-.8-.52-.5-.85-1.31-.85-2.26,0-1.81,1.25-3.13,3.29-3.13.7,0,1.25.15,1.51.28l-.19.64c-.32-.14-.73-.26-1.34-.26-1.48,0-2.44.92-2.44,2.44s.93,2.45,2.34,2.45c.51,0,.86-.07,1.04-.16v-1.81h-1.23v-.63h2v2.92Z"/>
    </g>
    <rect class="cls-9" x="665.26" y="82.24" width="124" height="115"/>
    <rect class="cls-5" x="663.76" y="80.74" width="126" height="117"/>
    <g>
      <circle class="cls-1" cx="664.51" cy="81.49" r="7.75"/>
      <path class="cls-10" d="M663.29,82.92l-.7,2.12h-.9l2.29-6.74h1.05l2.3,6.74h-.93l-.72-2.12h-2.39ZM665.5,82.24l-.66-1.94c-.15-.44-.25-.84-.35-1.23h-.02c-.1.4-.21.81-.34,1.22l-.66,1.95h2.03Z"/>
    </g>
    <g>
      <circle class="cls-1" cx="789.39" cy="198.06" r="7.75"/>
      <path class="cls-10" d="M791.95,201.39c-.32.16-.96.32-1.78.32-1.9,0-3.33-1.2-3.33-3.41s1.43-3.54,3.52-3.54c.84,0,1.37.18,1.6.3l-.21.71c-.33-.16-.8-.28-1.36-.28-1.58,0-2.63,1.01-2.63,2.78,0,1.65.95,2.71,2.59,2.71.53,0,1.07-.11,1.42-.28l.18.69Z"/>
    </g>
    <g>
      <circle class="cls-1" cx="663.39" cy="198.06" r="7.75"/>
      <path class="cls-10" d="M661.44,194.97c.38-.08.98-.14,1.59-.14.87,0,1.43.15,1.85.49.35.26.56.66.56,1.19,0,.65-.43,1.22-1.14,1.48v.02c.64.16,1.39.69,1.39,1.69,0,.58-.23,1.02-.57,1.35-.47.43-1.23.63-2.33.63-.6,0-1.06-.04-1.35-.08v-6.63ZM662.31,197.73h.79c.92,0,1.46-.48,1.46-1.13,0-.79-.6-1.1-1.48-1.1-.4,0-.63.03-.77.06v2.17ZM662.31,200.95c.17.03.42.04.73.04.9,0,1.73-.33,1.73-1.31,0-.92-.79-1.3-1.74-1.3h-.72v2.57Z"/>
    </g>
    <g>
      <circle class="cls-1" cx="788.39" cy="81.06" r="7.75"/>
      <path class="cls-10" d="M786.07,78.27c.48-.07,1.04-.13,1.67-.13,1.12,0,1.93.26,2.46.76.54.5.85,1.2.85,2.18s-.31,1.8-.87,2.36c-.57.57-1.5.87-2.68.87-.56,0-1.03-.03-1.42-.07v-5.97ZM786.86,83.64c.2.04.49.04.79.04,1.67,0,2.58-.94,2.58-2.58,0-1.43-.8-2.34-2.46-2.34-.41,0-.71.04-.92.08v4.79Z"/>
    </g>
    <line class="cls-5" x1="710.17" y1="70.15" x2="742.17" y2="76.15"/>
    <line class="cls-5" x1="743.17" y1="75.15" x2="741.17" y2="58.15"/>
    <line class="cls-5" x1="710.67" y1="69.65" x2="741.67" y2="57.65"/>
    <g>
      <circle class="cls-1" cx="743.4" cy="57.1" r="7.75"/>
      <path class="cls-10" d="M743.69,53.92h.87v4.51c0,1.79-.88,2.34-2.04,2.34-.32,0-.71-.07-.93-.16l.13-.71c.18.07.44.13.73.13.78,0,1.24-.35,1.24-1.67v-4.44Z"/>
    </g>
    <g>
      <circle class="cls-1" cx="743.28" cy="75.67" r="7.75"/>
      <path class="cls-10" d="M741.52,72.8h.78v2.93h.03c.16-.23.32-.45.48-.65l1.85-2.28h.97l-2.2,2.58,2.37,3.49h-.93l-2-2.98-.58.67v2.31h-.78v-6.07Z"/>
    </g>
    <g>
      <circle class="cls-1" cx="710.4" cy="70.1" r="7.75"/>
      <path class="cls-10" d="M710.83,66.92v6.74h-.87v-6.74h.87Z"/>
    </g>
  </g>
  <g>
    <line class="cls-5" x1="789.76" y1="398.53" x2="809.76" y2="364.53"/>
    <line class="cls-8" x1="683.76" y1="248.53" x2="683.76" y2="363.53"/>
    <line class="cls-5" x1="662.52" y1="277.97" x2="685.52" y2="247.97"/>
    <line class="cls-8" x1="808.76" y1="363.53" x2="681.76" y2="363.53"/>
    <polyline class="cls-8" points="683.76 363.53 663.76 394.53 683.76 363.53"/>
    <line class="cls-8" x1="727.17" y1="267.15" x2="747.17" y2="299.15"/>
    <line class="cls-8" x1="786.17" y1="282.15" x2="745.17" y2="299.15"/>
    <line class="cls-8" x1="681.67" y1="363.07" x2="724.67" y2="266.07"/>
    <line class="cls-8" x1="746.67" y1="299.07" x2="684.67" y2="362.07"/>
    <line class="cls-8" x1="800.67" y1="326.07" x2="746.67" y2="299.07"/>
    <line class="cls-8" x1="808.67" y1="364.07" x2="746.67" y2="299.07"/>
    <g>
      <circle class="cls-1" cx="746.93" cy="298.69" r="7.75"/>
      <path class="cls-10" d="M747.36,295.5v6.74h-.87v-6.74h.87Z"/>
    </g>
    <g>
      <circle class="cls-1" cx="682.39" cy="363.85" r="7.75"/>
      <path class="cls-10" d="M680.71,360.66h3.63v.73h-2.76v2.24h2.55v.72h-2.55v3.05h-.87v-6.74Z"/>
    </g>
    <polyline class="cls-9" points="683.76 248.53 662.29 280.71 662.29 398 788.76 395.53 809.18 365.51 799.98 327.61 799.76 322.48 790.05 279.28 724.17 265.57"/>
    <polyline class="cls-9" points="683.63 248.62 662.17 280.8 662.17 398.1 788.63 395.62 809.05 365.61 799.86 327.7 799.63 322.58 789.93 279.37 724.05 265.66"/>
    <rect class="cls-5" x="662.76" y="278.53" width="126" height="117"/>
    <line class="cls-5" x1="682.17" y1="248.15" x2="727.17" y2="267.15"/>
    <line class="cls-5" x1="664.17" y1="280.15" x2="725.17" y2="265.15"/>
    <line class="cls-5" x1="789.17" y1="278.15" x2="725.17" y2="265.15"/>
    <line class="cls-5" x1="792.17" y1="285.15" x2="801.17" y2="326.15"/>
    <line class="cls-5" x1="810.17" y1="364.15" x2="799.17" y2="327.15"/>
    <g>
      <circle class="cls-1" cx="683.51" cy="247.28" r="7.75"/>
      <path class="cls-10" d="M685.29,247.67h-2.62v2.43h2.92v.73h-3.79v-6.74h3.64v.73h-2.77v2.13h2.62v.72Z"/>
    </g>
    <g>
      <circle class="cls-1" cx="808.39" cy="363.85" r="7.75"/>
      <path class="cls-10" d="M806.92,360.97v2.54h2.93v-2.54h.79v6.07h-.79v-2.84h-2.93v2.84h-.78v-6.07h.78Z"/>
    </g>
    <g>
      <circle class="cls-1" cx="663.51" cy="279.28" r="7.75"/>
      <path class="cls-10" d="M662.29,280.71l-.7,2.12h-.9l2.29-6.74h1.05l2.3,6.74h-.93l-.72-2.12h-2.39ZM664.5,280.03l-.66-1.94c-.15-.44-.25-.84-.35-1.23h-.02c-.1.4-.21.81-.34,1.22l-.66,1.95h2.03Z"/>
    </g>
    <g>
      <circle class="cls-1" cx="788.39" cy="395.85" r="7.75"/>
      <path class="cls-10" d="M790.95,399.18c-.32.16-.96.32-1.78.32-1.9,0-3.33-1.2-3.33-3.41s1.43-3.54,3.52-3.54c.84,0,1.37.18,1.6.3l-.21.71c-.33-.16-.8-.28-1.36-.28-1.58,0-2.63,1.01-2.63,2.78,0,1.65.95,2.71,2.59,2.71.53,0,1.07-.11,1.42-.28l.18.69Z"/>
    </g>
    <g>
      <circle class="cls-1" cx="662.39" cy="395.85" r="7.75"/>
      <path class="cls-10" d="M660.44,392.75c.38-.08.98-.14,1.59-.14.87,0,1.43.15,1.85.49.35.26.56.66.56,1.19,0,.65-.43,1.22-1.14,1.48v.02c.64.16,1.39.69,1.39,1.69,0,.58-.23,1.02-.57,1.35-.47.43-1.23.63-2.33.63-.6,0-1.06-.04-1.35-.08v-6.63ZM661.31,395.51h.79c.92,0,1.46-.48,1.46-1.13,0-.79-.6-1.1-1.48-1.1-.4,0-.63.03-.77.06v2.17ZM661.31,398.74c.17.03.42.04.73.04.9,0,1.73-.33,1.73-1.31,0-.92-.79-1.3-1.74-1.3h-.72v2.57Z"/>
    </g>
    <g>
      <circle class="cls-1" cx="787.39" cy="278.85" r="7.75"/>
      <path class="cls-10" d="M785.07,276.05c.48-.07,1.04-.13,1.67-.13,1.12,0,1.93.26,2.46.76.54.5.85,1.2.85,2.18s-.31,1.8-.87,2.36c-.57.57-1.5.87-2.68.87-.56,0-1.03-.03-1.42-.07v-5.97ZM785.86,281.42c.2.04.49.04.79.04,1.67,0,2.58-.94,2.58-2.57,0-1.43-.8-2.34-2.46-2.34-.41,0-.71.04-.92.08v4.79Z"/>
    </g>
    <g>
      <circle class="cls-1" cx="725.26" cy="264.56" r="7.75"/>
      <path class="cls-10" d="M727.66,267.48c-.35.13-1.04.33-1.86.33-.92,0-1.67-.23-2.27-.8-.52-.5-.85-1.31-.85-2.26,0-1.81,1.25-3.13,3.29-3.13.7,0,1.25.15,1.51.28l-.19.64c-.32-.14-.73-.26-1.34-.26-1.48,0-2.44.92-2.44,2.44s.93,2.45,2.34,2.45c.51,0,.86-.07,1.04-.16v-1.81h-1.23v-.63h2v2.92Z"/>
    </g>
    <g>
      <circle class="cls-1" cx="800.93" cy="324.69" r="7.75"/>
      <path class="cls-10" d="M801.22,321.5h.87v4.51c0,1.79-.88,2.34-2.04,2.34-.32,0-.71-.07-.93-.16l.13-.71c.18.07.44.13.73.13.78,0,1.24-.35,1.24-1.67v-4.44Z"/>
    </g>
    <line class="cls-8" x1="844.67" y1="305.07" x2="844.67" y2="306.07"/>
  </g>
  <g>
    <g>
      <line class="cls-3" x1="202.17" y1="218.07" x2="309.83" y2="218.07"/>
      <polygon class="cls-11" points="305.7 232.2 330.17 218.07 305.7 203.93 305.7 232.2"/>
    </g>
    <g>
      <rect class="cls-4" x="206.22" y="209.13" width="94.96" height="17.93"/>
      <path class="cls-1" d="M221.39,209.45h3.27v.66h-2.48v2.02h2.29v.65h-2.29v2.75h-.78v-6.07Z"/>
      <path class="cls-1" d="M226.4,209.94c0,.27-.19.49-.5.49-.28,0-.48-.21-.48-.49s.21-.5.5-.5.49.22.49.5ZM225.52,215.52v-4.36h.79v4.36h-.79Z"/>
      <path class="cls-1" d="M227.62,212.34c0-.45,0-.82-.04-1.18h.7l.04.72h.02c.22-.41.72-.82,1.44-.82.6,0,1.54.36,1.54,1.85v2.6h-.79v-2.51c0-.7-.26-1.29-1.01-1.29-.52,0-.93.37-1.06.81-.04.1-.05.23-.05.37v2.62h-.79v-3.18Z"/>
      <path class="cls-1" d="M236.38,209.13v5.27c0,.39,0,.83.04,1.12h-.71l-.04-.76h-.02c-.24.49-.77.86-1.49.86-1.05,0-1.86-.89-1.86-2.21,0-1.45.89-2.34,1.95-2.34.67,0,1.12.32,1.31.67h.02v-2.6h.79ZM235.59,212.94c0-.1,0-.23-.04-.33-.12-.5-.55-.92-1.14-.92-.82,0-1.31.72-1.31,1.68,0,.88.43,1.61,1.29,1.61.53,0,1.02-.35,1.16-.95.03-.11.04-.22.04-.34v-.76Z"/>
      <path class="cls-1" d="M239.6,212.34c0-.45,0-.82-.04-1.18h.7l.04.72h.02c.22-.41.72-.82,1.44-.82.6,0,1.54.36,1.54,1.85v2.6h-.79v-2.51c0-.7-.26-1.29-1.01-1.29-.52,0-.93.37-1.06.81-.04.1-.05.23-.05.37v2.62h-.79v-3.18Z"/>
      <path class="cls-1" d="M247.01,215.52l-.06-.55h-.03c-.24.34-.71.65-1.33.65-.88,0-1.33-.62-1.33-1.25,0-1.05.94-1.63,2.62-1.62v-.09c0-.36-.1-1.01-.99-1.01-.41,0-.83.13-1.13.32l-.18-.52c.36-.23.88-.39,1.43-.39,1.33,0,1.66.91,1.66,1.78v1.63c0,.38.02.75.07,1.04h-.72ZM246.89,213.3c-.86-.02-1.85.13-1.85.98,0,.51.34.76.75.76.57,0,.93-.36,1.05-.73.03-.08.04-.17.04-.25v-.76Z"/>
      <path class="cls-1" d="M249.72,213.16h.02c.11-.15.26-.34.39-.5l1.28-1.5h.95l-1.68,1.79,1.92,2.57h-.96l-1.5-2.09-.41.45v1.64h-.78v-6.39h.78v4.03Z"/>
      <path class="cls-1" d="M253.6,213.49c.02,1.07.7,1.51,1.49,1.51.57,0,.91-.1,1.21-.22l.14.57c-.28.13-.76.27-1.45.27-1.34,0-2.14-.88-2.14-2.2s.77-2.35,2.04-2.35c1.42,0,1.8,1.25,1.8,2.05,0,.16-.02.29-.03.37h-3.06ZM255.92,212.92c0-.5-.21-1.29-1.1-1.29-.8,0-1.15.74-1.21,1.29h2.31Z"/>
      <path class="cls-1" d="M261.43,209.13v5.27c0,.39,0,.83.04,1.12h-.71l-.04-.76h-.02c-.24.49-.77.86-1.49.86-1.05,0-1.86-.89-1.86-2.21,0-1.45.89-2.34,1.95-2.34.67,0,1.12.32,1.31.67h.02v-2.6h.79ZM260.64,212.94c0-.1,0-.23-.04-.33-.12-.5-.55-.92-1.14-.92-.82,0-1.31.72-1.31,1.68,0,.88.43,1.61,1.29,1.61.53,0,1.02-.35,1.16-.95.03-.11.04-.22.04-.34v-.76Z"/>
      <path class="cls-1" d="M265.09,213.49c.02,1.07.7,1.51,1.49,1.51.57,0,.91-.1,1.21-.22l.14.57c-.28.13-.76.27-1.45.27-1.34,0-2.14-.88-2.14-2.2s.77-2.35,2.04-2.35c1.42,0,1.8,1.25,1.8,2.05,0,.16-.02.29-.03.37h-3.06ZM267.41,212.92c0-.5-.21-1.29-1.1-1.29-.8,0-1.15.74-1.21,1.29h2.31Z"/>
      <path class="cls-1" d="M272.92,209.13v5.27c0,.39,0,.83.04,1.12h-.71l-.04-.76h-.02c-.24.49-.77.86-1.49.86-1.05,0-1.86-.89-1.86-2.21,0-1.45.89-2.34,1.95-2.34.67,0,1.12.32,1.31.67h.02v-2.6h.79ZM272.13,212.94c0-.1,0-.23-.04-.33-.12-.5-.55-.92-1.14-.92-.82,0-1.3.72-1.3,1.68,0,.88.43,1.61,1.29,1.61.53,0,1.02-.35,1.16-.95.03-.11.04-.22.04-.34v-.76Z"/>
      <path class="cls-1" d="M277.99,211.16c-.02.32-.04.67-.04,1.2v2.53c0,1-.2,1.61-.62,1.99-.42.4-1.04.52-1.58.52s-1.1-.13-1.45-.36l.2-.6c.29.18.74.34,1.28.34.81,0,1.4-.42,1.4-1.52v-.49h-.02c-.24.4-.71.73-1.39.73-1.08,0-1.85-.92-1.85-2.12,0-1.48.96-2.31,1.96-2.31.76,0,1.17.4,1.36.76h.02l.04-.66h.69ZM277.17,212.89c0-.14,0-.25-.04-.36-.14-.46-.53-.84-1.11-.84-.76,0-1.3.64-1.3,1.65,0,.86.43,1.57,1.29,1.57.49,0,.93-.31,1.1-.81.04-.13.06-.29.06-.42v-.78Z"/>
      <path class="cls-1" d="M279.71,213.49c.02,1.07.7,1.51,1.49,1.51.57,0,.91-.1,1.21-.22l.14.57c-.28.13-.76.27-1.45.27-1.34,0-2.14-.88-2.14-2.2s.77-2.35,2.04-2.35c1.42,0,1.8,1.25,1.8,2.05,0,.16-.02.29-.03.37h-3.06ZM282.03,212.92c0-.5-.21-1.29-1.1-1.29-.8,0-1.15.74-1.21,1.29h2.31Z"/>
      <path class="cls-1" d="M283.67,214.71c.23.15.65.32,1.04.32.58,0,.85-.29.85-.65,0-.38-.22-.59-.81-.8-.78-.28-1.15-.71-1.15-1.23,0-.7.57-1.28,1.5-1.28.44,0,.83.13,1.07.27l-.2.58c-.17-.11-.49-.25-.89-.25-.47,0-.73.27-.73.59,0,.36.26.52.83.74.76.29,1.14.67,1.14,1.31,0,.77-.59,1.3-1.63,1.3-.48,0-.92-.12-1.22-.3l.2-.6Z"/>
    </g>
  </g>
  <g>
    <g>
      <line class="cls-3" x1="521.17" y1="114.07" x2="628.83" y2="114.07"/>
      <polygon class="cls-11" points="624.7 128.2 649.17 114.07 624.7 99.93 624.7 128.2"/>
    </g>
    <g>
      <rect class="cls-4" x="525.22" y="105.13" width="94.96" height="17.93"/>
      <path class="cls-1" d="M544.44,105.54c.4-.08.96-.13,1.5-.13.84,0,1.38.15,1.76.5.31.27.48.68.48,1.15,0,.8-.5,1.33-1.14,1.55v.03c.47.16.75.59.89,1.22.2.85.34,1.43.47,1.67h-.81c-.1-.17-.23-.69-.41-1.45-.18-.84-.5-1.15-1.21-1.18h-.74v2.63h-.78v-5.99ZM545.23,108.3h.8c.84,0,1.37-.46,1.37-1.15,0-.78-.57-1.12-1.4-1.13-.38,0-.65.04-.77.07v2.21Z"/>
      <path class="cls-1" d="M549.74,109.49c.02,1.07.7,1.51,1.49,1.51.57,0,.91-.1,1.21-.22l.14.57c-.28.13-.76.27-1.45.27-1.34,0-2.14-.88-2.14-2.2s.77-2.35,2.04-2.35c1.42,0,1.8,1.25,1.8,2.05,0,.16-.02.29-.03.37h-3.06ZM552.06,108.92c0-.5-.21-1.29-1.1-1.29-.8,0-1.15.74-1.21,1.29h2.31Z"/>
      <path class="cls-1" d="M556.91,111.36c-.21.11-.67.25-1.25.25-1.31,0-2.17-.89-2.17-2.22s.92-2.31,2.34-2.31c.47,0,.88.12,1.1.23l-.18.61c-.19-.11-.49-.21-.92-.21-1,0-1.54.74-1.54,1.65,0,1.01.65,1.63,1.51,1.63.45,0,.75-.12.97-.22l.13.59Z"/>
      <path class="cls-1" d="M561.73,109.31c0,1.61-1.12,2.31-2.17,2.31-1.18,0-2.09-.86-2.09-2.24,0-1.46.95-2.31,2.16-2.31s2.1.91,2.1,2.24ZM558.27,109.35c0,.95.55,1.67,1.32,1.67s1.32-.71,1.32-1.69c0-.74-.37-1.67-1.31-1.67s-1.34.86-1.34,1.69Z"/>
      <path class="cls-1" d="M562.72,108.34c0-.45,0-.82-.04-1.18h.7l.04.72h.02c.22-.41.72-.82,1.44-.82.6,0,1.54.36,1.54,1.85v2.6h-.79v-2.51c0-.7-.26-1.29-1.01-1.29-.52,0-.93.37-1.06.81-.04.1-.05.23-.05.37v2.62h-.79v-3.18Z"/>
      <path class="cls-1" d="M567.61,110.71c.23.15.65.32,1.04.32.58,0,.85-.29.85-.65,0-.38-.22-.59-.81-.8-.78-.28-1.15-.71-1.15-1.23,0-.7.57-1.28,1.5-1.28.44,0,.83.13,1.07.27l-.2.58c-.17-.11-.49-.25-.89-.25-.47,0-.73.27-.73.59,0,.36.26.52.83.74.76.29,1.14.67,1.14,1.31,0,.77-.59,1.3-1.63,1.3-.48,0-.92-.12-1.22-.3l.2-.6Z"/>
      <path class="cls-1" d="M572.24,105.91v1.25h1.13v.6h-1.13v2.35c0,.54.15.85.59.85.21,0,.36-.03.46-.05l.04.59c-.15.06-.4.11-.7.11-.37,0-.67-.12-.86-.33-.23-.23-.31-.62-.31-1.13v-2.38h-.67v-.6h.67v-1.04l.77-.21Z"/>
      <path class="cls-1" d="M576.98,105.45v2.54h2.93v-2.54h.79v6.07h-.79v-2.84h-2.93v2.84h-.78v-6.07h.78Z"/>
      <path class="cls-1" d="M585.98,109.31c0,1.61-1.12,2.31-2.17,2.31-1.18,0-2.09-.86-2.09-2.24,0-1.46.95-2.31,2.16-2.31s2.1.91,2.1,2.24ZM582.52,109.35c0,.95.55,1.67,1.32,1.67s1.32-.71,1.32-1.69c0-.74-.37-1.67-1.31-1.67s-1.34.86-1.34,1.69Z"/>
      <path class="cls-1" d="M586.98,105.13h.79v6.39h-.79v-6.39Z"/>
      <path class="cls-1" d="M589.55,109.49c.02,1.07.7,1.51,1.49,1.51.57,0,.91-.1,1.21-.22l.14.57c-.28.13-.76.27-1.45.27-1.34,0-2.14-.88-2.14-2.2s.77-2.35,2.04-2.35c1.42,0,1.8,1.25,1.8,2.05,0,.16-.02.29-.03.37h-3.06ZM591.87,108.92c0-.5-.21-1.29-1.1-1.29-.8,0-1.15.74-1.21,1.29h2.31Z"/>
      <path class="cls-1" d="M595.33,105.27c-.66.88-1.13,2.05-1.13,3.68s.5,2.75,1.13,3.66h-.62c-.57-.75-1.18-1.9-1.18-3.66,0-1.77.61-2.93,1.18-3.68h.62Z"/>
      <path class="cls-1" d="M596.06,110.71c.23.15.65.32,1.04.32.58,0,.85-.29.85-.65,0-.38-.22-.59-.81-.8-.78-.28-1.15-.71-1.15-1.23,0-.7.57-1.28,1.5-1.28.44,0,.83.13,1.07.27l-.2.58c-.17-.11-.49-.25-.89-.25-.47,0-.73.27-.73.59,0,.36.26.52.83.74.76.29,1.14.67,1.14,1.31,0,.77-.59,1.3-1.63,1.3-.48,0-.92-.12-1.22-.3l.2-.6Z"/>
      <path class="cls-1" d="M599.26,112.61c.64-.89,1.13-2.06,1.13-3.68s-.49-2.76-1.13-3.66h.61c.58.74,1.18,1.89,1.18,3.66s-.6,2.91-1.18,3.67h-.61Z"/>
    </g>
  </g>
  <g>
    <g>
      <line class="cls-3" x1="519.17" y1="319.07" x2="626.83" y2="319.07"/>
      <polygon class="cls-11" points="622.7 333.2 647.17 319.07 622.7 304.93 622.7 333.2"/>
    </g>
    <g>
      <rect class="cls-4" x="523.22" y="310.13" width="94.96" height="17.93"/>
      <path class="cls-1" d="M532.2,310.94c0,.27-.19.49-.5.49-.28,0-.48-.21-.48-.49s.21-.5.5-.5.49.22.49.5ZM531.32,316.52v-4.36h.79v4.36h-.79Z"/>
      <path class="cls-1" d="M533.51,316.52v-3.75h-.61v-.6h.61v-.21c0-.61.13-1.17.5-1.52.3-.29.69-.4,1.06-.4.28,0,.52.06.67.13l-.11.61c-.12-.05-.28-.1-.5-.1-.68,0-.85.59-.85,1.26v.23h1.05v.6h-1.05v3.75h-.78Z"/>
      <path class="cls-1" d="M537.96,313.52c0-.51,0-.95-.04-1.36h.69l.03.86h.04c.2-.58.68-.95,1.21-.95.09,0,.15,0,.22.03v.75c-.08-.02-.16-.03-.27-.03-.56,0-.95.42-1.06,1.02-.02.11-.04.23-.04.37v2.32h-.78v-3Z"/>
      <path class="cls-1" d="M541.26,314.49c.02,1.07.7,1.51,1.49,1.51.57,0,.91-.1,1.21-.22l.14.57c-.28.13-.76.27-1.45.27-1.34,0-2.14-.88-2.14-2.2s.77-2.35,2.04-2.35c1.42,0,1.8,1.25,1.8,2.05,0,.16-.02.29-.03.37h-3.06ZM543.58,313.92c0-.5-.21-1.29-1.1-1.29-.8,0-1.15.74-1.21,1.29h2.31Z"/>
      <path class="cls-1" d="M548.43,316.36c-.21.11-.67.25-1.25.25-1.31,0-2.17-.89-2.17-2.22s.92-2.31,2.34-2.31c.47,0,.88.12,1.1.23l-.18.61c-.19-.11-.49-.21-.92-.21-1,0-1.54.74-1.54,1.65,0,1.01.65,1.63,1.51,1.63.45,0,.75-.12.97-.22l.13.59Z"/>
      <path class="cls-1" d="M553.25,314.31c0,1.61-1.12,2.31-2.17,2.31-1.18,0-2.09-.86-2.09-2.24,0-1.46.96-2.31,2.16-2.31s2.1.91,2.1,2.24ZM549.79,314.35c0,.95.55,1.67,1.32,1.67s1.32-.71,1.32-1.69c0-.74-.37-1.67-1.31-1.67s-1.34.86-1.34,1.69Z"/>
      <path class="cls-1" d="M554.24,313.34c0-.45,0-.82-.04-1.18h.7l.04.72h.02c.22-.41.72-.82,1.44-.82.6,0,1.54.36,1.54,1.85v2.6h-.79v-2.51c0-.7-.26-1.29-1.01-1.29-.52,0-.93.37-1.06.81-.04.1-.05.23-.05.37v2.62h-.79v-3.18Z"/>
      <path class="cls-1" d="M559.13,315.71c.23.15.65.32,1.04.32.58,0,.85-.29.85-.65,0-.38-.22-.59-.81-.8-.78-.28-1.15-.71-1.15-1.23,0-.7.57-1.28,1.5-1.28.44,0,.83.13,1.07.27l-.2.58c-.17-.11-.49-.25-.89-.25-.47,0-.73.27-.73.59,0,.36.26.52.83.74.76.29,1.14.67,1.14,1.31,0,.77-.59,1.3-1.63,1.3-.48,0-.92-.12-1.22-.3l.2-.6Z"/>
      <path class="cls-1" d="M563.76,310.91v1.25h1.13v.6h-1.13v2.35c0,.54.15.85.59.85.21,0,.36-.03.46-.05l.04.59c-.15.06-.4.11-.7.11-.37,0-.67-.12-.86-.33-.23-.23-.31-.62-.31-1.13v-2.38h-.67v-.6h.67v-1.04l.77-.21Z"/>
      <path class="cls-1" d="M565.78,313.52c0-.51,0-.95-.04-1.36h.69l.03.86h.04c.2-.58.68-.95,1.21-.95.09,0,.15,0,.22.03v.75c-.08-.02-.16-.03-.27-.03-.56,0-.95.42-1.06,1.02-.02.11-.04.23-.04.37v2.32h-.78v-3Z"/>
      <path class="cls-1" d="M572.37,315.33c0,.45,0,.85.04,1.19h-.7l-.04-.71h-.02c-.21.35-.67.81-1.44.81-.68,0-1.5-.38-1.5-1.91v-2.55h.79v2.41c0,.83.25,1.39.97,1.39.53,0,.9-.37,1.04-.72.04-.12.07-.26.07-.41v-2.67h.79v3.17Z"/>
      <path class="cls-1" d="M576.79,316.36c-.21.11-.67.25-1.25.25-1.31,0-2.17-.89-2.17-2.22s.92-2.31,2.34-2.31c.47,0,.88.12,1.1.23l-.18.61c-.19-.11-.49-.21-.92-.21-1,0-1.54.74-1.54,1.65,0,1.01.65,1.63,1.51,1.63.45,0,.75-.12.97-.22l.13.59Z"/>
      <path class="cls-1" d="M578.79,310.91v1.25h1.13v.6h-1.13v2.35c0,.54.15.85.59.85.21,0,.36-.03.46-.05l.04.59c-.15.06-.4.11-.7.11-.37,0-.67-.12-.86-.33-.23-.23-.31-.62-.31-1.13v-2.38h-.67v-.6h.67v-1.04l.77-.21Z"/>
      <path class="cls-1" d="M581.69,310.94c0,.27-.19.49-.5.49-.28,0-.48-.21-.48-.49s.21-.5.5-.5.49.22.49.5ZM580.81,316.52v-4.36h.79v4.36h-.79Z"/>
      <path class="cls-1" d="M586.86,314.31c0,1.61-1.12,2.31-2.17,2.31-1.18,0-2.09-.86-2.09-2.24,0-1.46.95-2.31,2.16-2.31s2.1.91,2.1,2.24ZM583.4,314.35c0,.95.55,1.67,1.32,1.67s1.32-.71,1.32-1.69c0-.74-.37-1.67-1.31-1.67s-1.34.86-1.34,1.69Z"/>
      <path class="cls-1" d="M587.86,313.34c0-.45,0-.82-.04-1.18h.7l.04.72h.02c.22-.41.72-.82,1.44-.82.6,0,1.54.36,1.54,1.85v2.6h-.79v-2.51c0-.7-.26-1.29-1.01-1.29-.52,0-.93.37-1.06.81-.04.1-.05.23-.05.37v2.62h-.79v-3.18Z"/>
      <path class="cls-1" d="M594.84,316.52v-3.75h-.61v-.6h.61v-.21c0-.61.13-1.17.5-1.52.3-.29.69-.4,1.06-.4.28,0,.52.06.67.13l-.11.61c-.12-.05-.28-.1-.5-.1-.68,0-.85.59-.85,1.26v.23h1.05v.6h-1.05v3.75h-.78Z"/>
      <path class="cls-1" d="M599.8,316.52l-.06-.55h-.03c-.24.34-.71.65-1.33.65-.88,0-1.33-.62-1.33-1.25,0-1.05.94-1.63,2.62-1.62v-.09c0-.36-.1-1.01-.99-1.01-.41,0-.83.13-1.13.32l-.18-.52c.36-.23.88-.39,1.43-.39,1.33,0,1.66.91,1.66,1.78v1.63c0,.38.02.75.07,1.04h-.72ZM599.69,314.3c-.86-.02-1.85.13-1.85.98,0,.51.34.76.75.76.57,0,.93-.36,1.05-.73.03-.08.04-.17.04-.25v-.76Z"/>
      <path class="cls-1" d="M602.61,310.94c0,.27-.19.49-.5.49-.28,0-.48-.21-.48-.49s.21-.5.5-.5.49.22.49.5ZM601.73,316.52v-4.36h.79v4.36h-.79Z"/>
      <path class="cls-1" d="M603.83,310.13h.79v6.39h-.79v-6.39Z"/>
      <path class="cls-1" d="M605.85,315.71c.23.15.65.32,1.04.32.58,0,.85-.29.85-.65,0-.38-.22-.59-.81-.8-.78-.28-1.15-.71-1.15-1.23,0-.7.57-1.28,1.5-1.28.44,0,.83.13,1.07.27l-.2.58c-.17-.11-.49-.25-.89-.25-.47,0-.73.27-.73.59,0,.36.26.52.83.74.76.29,1.14.67,1.14,1.31,0,.77-.59,1.3-1.63,1.3-.48,0-.92-.12-1.22-.3l.2-.6Z"/>
      <path class="cls-1" d="M609.33,312.89c0-.33.23-.57.54-.57s.52.23.53.57c0,.32-.21.56-.54.56-.31,0-.53-.24-.53-.56ZM609.33,316.06c0-.33.23-.57.54-.57s.52.23.53.57c0,.32-.21.56-.54.56-.31,0-.53-.24-.53-.56Z"/>
      <path class="cls-1" d="M550.89,325.41l-.63,1.91h-.81l2.06-6.07h.95l2.07,6.07h-.84l-.65-1.91h-2.15ZM552.88,324.8l-.59-1.75c-.13-.4-.22-.76-.31-1.11h-.02c-.09.36-.19.73-.31,1.1l-.59,1.76h1.83Z"/>
      <path class="cls-1" d="M555.36,320.93h.79v6.39h-.79v-6.39Z"/>
      <path class="cls-1" d="M557.48,324.39c0-.56-.02-1.01-.04-1.42h.71l.04.75h.02c.32-.53.84-.85,1.55-.85,1.05,0,1.85.89,1.85,2.21,0,1.57-.95,2.34-1.98,2.34-.58,0-1.08-.25-1.34-.68h-.02v2.37h-.78v-4.72ZM558.27,325.55c0,.12.02.22.04.32.14.55.62.93,1.19.93.84,0,1.32-.68,1.32-1.68,0-.87-.46-1.62-1.3-1.62-.54,0-1.04.39-1.2.98-.03.1-.05.22-.05.32v.75Z"/>
      <path class="cls-1" d="M562.6,320.93h.79v2.72h.02c.13-.22.32-.42.57-.56.23-.13.51-.22.81-.22.58,0,1.52.36,1.52,1.86v2.59h-.79v-2.5c0-.7-.26-1.3-1.01-1.3-.51,0-.92.36-1.06.79-.05.11-.05.23-.05.38v2.63h-.79v-6.39Z"/>
      <path class="cls-1" d="M570.01,327.32l-.06-.55h-.03c-.24.34-.71.65-1.33.65-.88,0-1.33-.62-1.33-1.25,0-1.05.94-1.63,2.62-1.62v-.09c0-.36-.1-1.01-.99-1.01-.41,0-.83.12-1.13.32l-.18-.52c.36-.23.88-.39,1.43-.39,1.33,0,1.66.91,1.66,1.78v1.63c0,.38.02.75.07,1.04h-.72ZM569.89,325.1c-.86-.02-1.85.14-1.85.98,0,.51.34.76.75.76.57,0,.93-.36,1.05-.73.03-.08.04-.17.04-.25v-.76Z"/>
      <path class="cls-1" d="M574.16,322.97l.58,2.21c.13.49.24.94.32,1.39h.03c.1-.44.24-.91.39-1.38l.71-2.22h.67l.67,2.18c.16.52.29.98.39,1.42h.03c.07-.44.19-.9.33-1.41l.62-2.19h.78l-1.4,4.36h-.72l-.67-2.08c-.15-.49-.28-.92-.39-1.43h-.02c-.11.52-.24.97-.4,1.44l-.7,2.07h-.72l-1.31-4.36h.81Z"/>
      <path class="cls-1" d="M580.47,324.32c0-.51,0-.96-.04-1.36h.69l.03.86h.04c.2-.59.68-.96,1.21-.96.09,0,.15,0,.22.03v.75c-.08-.02-.16-.03-.27-.03-.56,0-.96.42-1.06,1.02-.02.11-.04.23-.04.37v2.32h-.78v-3Z"/>
      <path class="cls-1" d="M585.78,327.32l-.06-.55h-.03c-.24.34-.71.65-1.33.65-.88,0-1.33-.62-1.33-1.25,0-1.05.94-1.63,2.62-1.62v-.09c0-.36-.1-1.01-.99-1.01-.41,0-.83.12-1.13.32l-.18-.52c.36-.23.88-.39,1.43-.39,1.33,0,1.66.91,1.66,1.78v1.63c0,.38.02.75.07,1.04h-.72ZM585.66,325.1c-.86-.02-1.85.14-1.85.98,0,.51.34.76.75.76.57,0,.93-.36,1.05-.73.03-.08.04-.17.04-.25v-.76Z"/>
      <path class="cls-1" d="M587.71,324.39c0-.56-.02-1.01-.04-1.42h.71l.04.75h.02c.32-.53.84-.85,1.55-.85,1.05,0,1.85.89,1.85,2.21,0,1.57-.95,2.34-1.98,2.34-.58,0-1.08-.25-1.34-.68h-.02v2.37h-.78v-4.72ZM588.49,325.55c0,.12.02.22.04.32.14.55.62.93,1.19.93.84,0,1.32-.68,1.32-1.68,0-.87-.46-1.62-1.3-1.62-.54,0-1.04.39-1.2.98-.03.1-.05.22-.05.32v.75Z"/>
    </g>
  </g>
</svg>