<?xml version="1.0" encoding="UTF-8"?>
<svg id="Solidinteraction" xmlns="http://www.w3.org/2000/svg" viewBox="0 0 657.58 427.6">
  <defs>
    <style>
      .cls-1 {
        stroke-dasharray: 4.19 4.19;
      }

      .cls-1, .cls-2, .cls-3, .cls-4, .cls-5, .cls-6, .cls-7, .cls-8, .cls-9, .cls-10, .cls-11 {
        stroke-miterlimit: 10;
      }

      .cls-1, .cls-2, .cls-3, .cls-4, .cls-5, .cls-6, .cls-8, .cls-9, .cls-10, .cls-11 {
        stroke: #437898;
      }

      .cls-1, .cls-2, .cls-3, .cls-4, .cls-5, .cls-6, .cls-9, .cls-10 {
        stroke-width: 2px;
      }

      .cls-1, .cls-2, .cls-3, .cls-4, .cls-7, .cls-12, .cls-8, .cls-9, .cls-10, .cls-11 {
        fill: none;
      }

      .cls-13 {
        opacity: .55;
      }

      .cls-13, .cls-14, .cls-6 {
        fill: #437898;
      }

      .cls-15 {
        fill: #c92027;
      }

      .cls-16 {
        fill: #231f20;
      }

      .cls-14 {
        opacity: .5;
      }

      .cls-3 {
        stroke-dasharray: 5.69 5.69;
      }

      .cls-4 {
        stroke-dasharray: 5.9 5.9;
      }

      .cls-17 {
        opacity: .31;
      }

      .cls-17, .cls-5 {
        fill: #6dbae7;
      }

      .cls-18 {
        fill: #fff;
      }

      .cls-5 {
        stroke-dasharray: 5.67;
      }

      .cls-7 {
        stroke: #9b9a9a;
      }

      .cls-7, .cls-8, .cls-11 {
        stroke-width: 2.83px;
      }

      .cls-19 {
        fill: #9b9a9a;
      }

      .cls-9 {
        stroke-dasharray: 6.35 6.35;
      }

      .cls-10 {
        stroke-dasharray: 6.3 6.3;
      }

      .cls-20 {
        fill: #39b54a;
      }

      .cls-11 {
        stroke-dasharray: 5.67;
      }
    </style>
  </defs>
  <g>
    <g>
      <line class="cls-7" x1="178.59" y1="235.07" x2="286.25" y2="235.07"/>
      <polygon class="cls-19" points="282.11 249.2 306.59 235.07 282.11 220.93 282.11 249.2"/>
    </g>
    <g>
      <rect class="cls-12" x="182.63" y="226.13" width="94.96" height="17.93"/>
      <path class="cls-16" d="M195.5,229.43c0,2.09-1.27,3.2-2.82,3.2s-2.73-1.24-2.73-3.08c0-1.93,1.2-3.19,2.82-3.19s2.73,1.27,2.73,3.07ZM190.79,229.52c0,1.3.7,2.46,1.94,2.46s1.94-1.14,1.94-2.52c0-1.21-.63-2.47-1.94-2.47s-1.94,1.2-1.94,2.53Z"/>
      <path class="cls-16" d="M196.92,228.17l.86,2.45c.14.4.26.76.35,1.12h.03c.1-.36.23-.72.37-1.12l.85-2.45h.83l-1.71,4.36h-.76l-1.66-4.36h.85Z"/>
      <path class="cls-16" d="M201.3,230.49c.02,1.07.7,1.51,1.49,1.51.57,0,.91-.1,1.21-.23l.14.57c-.28.13-.76.27-1.45.27-1.34,0-2.14-.88-2.14-2.2s.77-2.35,2.04-2.35c1.42,0,1.8,1.25,1.8,2.05,0,.16-.02.29-.03.37h-3.06ZM203.62,229.92c0-.5-.21-1.29-1.1-1.29-.8,0-1.15.74-1.21,1.29h2.31Z"/>
      <path class="cls-16" d="M205.36,229.52c0-.51,0-.95-.04-1.36h.69l.03.86h.04c.2-.58.68-.95,1.21-.95.09,0,.15,0,.22.03v.75c-.08-.02-.16-.03-.27-.03-.56,0-.95.42-1.06,1.02-.02.11-.04.23-.04.37v2.32h-.78v-3Z"/>
      <path class="cls-16" d="M208.34,226.13h.79v6.39h-.79v-6.39Z"/>
      <path class="cls-16" d="M212.88,232.52l-.06-.55h-.03c-.24.34-.71.65-1.33.65-.88,0-1.33-.62-1.33-1.25,0-1.05.94-1.63,2.62-1.62v-.09c0-.36-.1-1.01-.99-1.01-.41,0-.83.13-1.13.32l-.18-.52c.36-.23.88-.39,1.43-.39,1.33,0,1.66.91,1.66,1.78v1.63c0,.38.02.75.07,1.04h-.72ZM212.76,230.3c-.86-.02-1.85.14-1.85.98,0,.51.34.76.75.76.57,0,.93-.36,1.05-.73.03-.08.04-.17.04-.25v-.76Z"/>
      <path class="cls-16" d="M214.81,229.59c0-.56-.02-1.01-.04-1.42h.71l.04.75h.02c.32-.53.84-.85,1.55-.85,1.05,0,1.85.89,1.85,2.21,0,1.57-.95,2.34-1.98,2.34-.58,0-1.08-.25-1.34-.68h-.02v2.37h-.78v-4.72ZM215.59,230.75c0,.12.02.23.04.32.14.55.62.93,1.19.93.84,0,1.32-.68,1.32-1.68,0-.87-.46-1.62-1.3-1.62-.54,0-1.04.39-1.2.98-.03.1-.05.22-.05.32v.75Z"/>
      <path class="cls-16" d="M224.25,232.52l-.06-.55h-.03c-.24.34-.71.65-1.33.65-.88,0-1.33-.62-1.33-1.25,0-1.05.94-1.63,2.62-1.62v-.09c0-.36-.1-1.01-.99-1.01-.41,0-.83.13-1.13.32l-.18-.52c.36-.23.88-.39,1.43-.39,1.33,0,1.66.91,1.66,1.78v1.63c0,.38.02.75.07,1.04h-.72ZM224.13,230.3c-.86-.02-1.85.14-1.85.98,0,.51.34.76.75.76.57,0,.93-.36,1.05-.73.03-.08.04-.17.04-.25v-.76Z"/>
      <path class="cls-16" d="M226.14,232.52c.02-.3.04-.74.04-1.12v-5.27h.78v2.74h.02c.28-.49.78-.8,1.49-.8,1.08,0,1.84.9,1.84,2.22,0,1.56-.98,2.33-1.95,2.33-.63,0-1.13-.24-1.46-.82h-.03l-.04.72h-.68ZM226.96,230.78c0,.1.02.2.04.29.15.55.61.93,1.19.93.83,0,1.32-.67,1.32-1.67,0-.87-.45-1.62-1.3-1.62-.54,0-1.04.37-1.21.97-.02.09-.04.2-.04.32v.78Z"/>
      <path class="cls-16" d="M235.24,230.31c0,1.61-1.12,2.31-2.17,2.31-1.18,0-2.09-.86-2.09-2.24,0-1.46.95-2.31,2.16-2.31s2.1.91,2.1,2.24ZM231.78,230.35c0,.95.55,1.67,1.32,1.67s1.32-.71,1.32-1.69c0-.74-.37-1.67-1.31-1.67s-1.34.86-1.34,1.69Z"/>
      <path class="cls-16" d="M236.48,228.17l.86,2.45c.14.4.26.76.35,1.12h.03c.1-.36.23-.72.37-1.12l.85-2.45h.83l-1.71,4.36h-.76l-1.66-4.36h.85Z"/>
      <path class="cls-16" d="M240.85,230.49c.02,1.07.7,1.51,1.49,1.51.57,0,.91-.1,1.21-.23l.14.57c-.28.13-.76.27-1.45.27-1.34,0-2.14-.88-2.14-2.2s.77-2.35,2.04-2.35c1.42,0,1.8,1.25,1.8,2.05,0,.16-.02.29-.03.37h-3.06ZM243.17,229.92c0-.5-.21-1.29-1.1-1.29-.8,0-1.15.74-1.21,1.29h2.31Z"/>
      <path class="cls-16" d="M246.83,229.34c0-.45,0-.82-.04-1.18h.69l.04.7h.03c.24-.41.65-.8,1.37-.8.59,0,1.04.36,1.23.87h.02c.13-.24.31-.43.49-.57.26-.2.55-.31.96-.31.58,0,1.43.38,1.43,1.89v2.57h-.77v-2.47c0-.84-.31-1.34-.95-1.34-.45,0-.8.33-.94.72-.04.11-.06.25-.06.4v2.69h-.77v-2.61c0-.69-.31-1.2-.91-1.2-.5,0-.86.4-.98.79-.04.12-.06.25-.06.39v2.63h-.77v-3.18Z"/>
      <path class="cls-16" d="M254.77,230.49c.02,1.07.7,1.51,1.49,1.51.57,0,.91-.1,1.21-.23l.14.57c-.28.13-.76.27-1.45.27-1.34,0-2.14-.88-2.14-2.2s.77-2.35,2.04-2.35c1.42,0,1.8,1.25,1.8,2.05,0,.16-.02.29-.03.37h-3.06ZM257.1,229.92c0-.5-.21-1.29-1.1-1.29-.8,0-1.15.74-1.21,1.29h2.31Z"/>
      <path class="cls-16" d="M258.84,229.52c0-.51,0-.95-.04-1.36h.69l.03.86h.04c.2-.58.68-.95,1.21-.95.09,0,.15,0,.22.03v.75c-.08-.02-.16-.03-.27-.03-.56,0-.95.42-1.06,1.02-.02.11-.04.23-.04.37v2.32h-.78v-3Z"/>
      <path class="cls-16" d="M265.47,228.17c-.02.32-.04.67-.04,1.2v2.53c0,1-.2,1.61-.62,1.99-.42.4-1.04.52-1.58.52s-1.1-.13-1.45-.36l.2-.6c.29.18.74.34,1.28.34.81,0,1.4-.42,1.4-1.52v-.49h-.02c-.24.41-.71.73-1.39.73-1.08,0-1.85-.92-1.85-2.12,0-1.48.96-2.31,1.96-2.31.76,0,1.17.4,1.36.76h.02l.04-.66h.69ZM264.65,229.88c0-.13,0-.25-.04-.36-.14-.46-.53-.84-1.11-.84-.76,0-1.3.64-1.3,1.65,0,.86.43,1.57,1.29,1.57.49,0,.93-.31,1.1-.81.04-.13.06-.29.06-.42v-.78Z"/>
      <path class="cls-16" d="M267.19,230.49c.02,1.07.7,1.51,1.49,1.51.57,0,.91-.1,1.21-.23l.14.57c-.28.13-.76.27-1.45.27-1.34,0-2.14-.88-2.14-2.2s.77-2.35,2.04-2.35c1.42,0,1.8,1.25,1.8,2.05,0,.16-.02.29-.03.37h-3.06ZM269.51,229.92c0-.5-.21-1.29-1.1-1.29-.8,0-1.15.74-1.21,1.29h2.31Z"/>
      <path class="cls-16" d="M214.12,237.71v1.25h1.13v.6h-1.13v2.35c0,.54.15.85.59.85.21,0,.36-.03.46-.05l.04.59c-.15.06-.4.11-.7.11-.37,0-.67-.12-.86-.33-.23-.23-.31-.62-.31-1.13v-2.38h-.67v-.6h.67v-1.04l.77-.21Z"/>
      <path class="cls-16" d="M220.03,241.11c0,1.61-1.12,2.31-2.17,2.31-1.18,0-2.09-.86-2.09-2.24,0-1.46.95-2.31,2.16-2.31s2.1.91,2.1,2.24ZM216.57,241.15c0,.95.55,1.67,1.32,1.67s1.32-.71,1.32-1.69c0-.74-.37-1.67-1.31-1.67s-1.34.86-1.34,1.69Z"/>
      <path class="cls-16" d="M221.03,236.93h.79v6.39h-.79v-6.39Z"/>
      <path class="cls-16" d="M223.59,241.29c.02,1.07.7,1.51,1.49,1.51.57,0,.91-.1,1.21-.23l.14.57c-.28.13-.76.27-1.45.27-1.34,0-2.14-.88-2.14-2.2s.77-2.35,2.04-2.35c1.42,0,1.8,1.25,1.8,2.05,0,.16-.02.29-.03.37h-3.06ZM225.92,240.72c0-.5-.21-1.29-1.1-1.29-.8,0-1.15.74-1.21,1.29h2.31Z"/>
      <path class="cls-16" d="M227.66,240.32c0-.51,0-.95-.04-1.36h.69l.03.86h.04c.2-.58.68-.95,1.21-.95.09,0,.15,0,.22.03v.75c-.08-.02-.16-.03-.27-.03-.56,0-.95.42-1.06,1.02-.02.11-.04.23-.04.37v2.32h-.78v-3Z"/>
      <path class="cls-16" d="M232.97,243.32l-.06-.55h-.03c-.24.34-.71.65-1.33.65-.88,0-1.33-.62-1.33-1.25,0-1.05.94-1.63,2.62-1.62v-.09c0-.36-.1-1.01-.99-1.01-.41,0-.83.13-1.13.32l-.18-.52c.36-.23.88-.39,1.43-.39,1.33,0,1.66.91,1.66,1.78v1.63c0,.38.02.75.07,1.04h-.72ZM232.85,241.1c-.86-.02-1.85.14-1.85.98,0,.51.34.76.75.76.57,0,.93-.36,1.05-.73.03-.08.04-.17.04-.25v-.76Z"/>
      <path class="cls-16" d="M234.9,240.14c0-.45,0-.82-.04-1.18h.7l.04.72h.02c.22-.41.72-.82,1.44-.82.6,0,1.54.36,1.54,1.85v2.6h-.79v-2.51c0-.7-.26-1.29-1.01-1.29-.52,0-.93.37-1.06.81-.04.1-.05.23-.05.37v2.62h-.79v-3.18Z"/>
      <path class="cls-16" d="M243,243.16c-.21.11-.67.25-1.25.25-1.31,0-2.17-.89-2.17-2.22s.92-2.31,2.34-2.31c.47,0,.88.12,1.1.23l-.18.61c-.19-.11-.49-.21-.92-.21-1,0-1.54.74-1.54,1.65,0,1.01.65,1.63,1.51,1.63.45,0,.75-.12.97-.22l.13.59Z"/>
      <path class="cls-16" d="M244.31,241.29c.02,1.07.7,1.51,1.49,1.51.57,0,.91-.1,1.21-.23l.14.57c-.28.13-.76.27-1.45.27-1.34,0-2.14-.88-2.14-2.2s.77-2.35,2.04-2.35c1.42,0,1.8,1.25,1.8,2.05,0,.16-.02.29-.03.37h-3.06ZM246.63,240.72c0-.5-.21-1.29-1.1-1.29-.8,0-1.15.74-1.21,1.29h2.31Z"/>
    </g>
  </g>
  <g>
    <g>
      <line class="cls-7" x1="336.67" y1="287.63" x2="444.33" y2="287.63"/>
      <polygon class="cls-19" points="440.2 301.77 464.67 287.63 440.2 273.5 440.2 301.77"/>
    </g>
    <g>
      <rect class="cls-12" x="341.72" y="277.7" width="94.96" height="17.93"/>
      <path class="cls-16" d="M348.57,281.42c-.04-.85-.1-1.86-.09-2.62h-.03c-.21.71-.46,1.47-.77,2.3l-1.07,2.94h-.59l-.98-2.89c-.29-.86-.53-1.64-.7-2.36h-.02c-.02.76-.06,1.77-.12,2.68l-.16,2.6h-.75l.42-6.07h1l1.04,2.94c.25.75.46,1.41.61,2.04h.03c.15-.61.37-1.28.64-2.04l1.08-2.94h1l.38,6.07h-.76l-.15-2.67Z"/>
      <path class="cls-16" d="M353.13,284.09l-.06-.55h-.03c-.24.34-.71.65-1.33.65-.88,0-1.33-.62-1.33-1.25,0-1.05.94-1.63,2.62-1.62v-.09c0-.36-.1-1.01-.99-1.01-.41,0-.83.13-1.13.32l-.18-.52c.36-.23.88-.39,1.43-.39,1.33,0,1.66.91,1.66,1.78v1.63c0,.38.02.75.07,1.04h-.72ZM353.02,281.87c-.86-.02-1.85.13-1.85.98,0,.51.34.76.75.76.57,0,.93-.36,1.05-.73.03-.08.04-.17.04-.25v-.76Z"/>
      <path class="cls-16" d="M355.84,281.73h.02c.11-.15.26-.34.39-.5l1.28-1.5h.95l-1.68,1.79,1.92,2.57h-.96l-1.5-2.09-.41.45v1.64h-.78v-6.39h.78v4.03Z"/>
      <path class="cls-16" d="M359.72,282.05c.02,1.07.7,1.51,1.49,1.51.57,0,.91-.1,1.21-.22l.14.57c-.28.13-.76.27-1.45.27-1.34,0-2.14-.88-2.14-2.2s.77-2.35,2.04-2.35c1.42,0,1.8,1.25,1.8,2.05,0,.16-.02.29-.03.37h-3.06ZM362.04,281.49c0-.5-.21-1.29-1.1-1.29-.8,0-1.15.74-1.21,1.29h2.31Z"/>
      <path class="cls-16" d="M368.11,284.09l-.06-.55h-.03c-.24.34-.71.65-1.33.65-.88,0-1.33-.62-1.33-1.25,0-1.05.94-1.63,2.62-1.62v-.09c0-.36-.1-1.01-.99-1.01-.41,0-.83.13-1.13.32l-.18-.52c.36-.23.88-.39,1.43-.39,1.33,0,1.66.91,1.66,1.78v1.63c0,.38.02.75.07,1.04h-.72ZM367.99,281.87c-.86-.02-1.85.13-1.85.98,0,.51.34.76.75.76.57,0,.93-.36,1.05-.73.03-.08.04-.17.04-.25v-.76Z"/>
      <path class="cls-16" d="M375.59,282.9c0,.45,0,.85.04,1.19h-.7l-.04-.71h-.02c-.21.35-.67.81-1.44.81-.68,0-1.5-.38-1.5-1.91v-2.55h.79v2.41c0,.83.25,1.39.97,1.39.53,0,.9-.37,1.04-.72.04-.12.07-.26.07-.41v-2.67h.79v3.17Z"/>
      <path class="cls-16" d="M376.9,280.91c0-.45,0-.82-.04-1.18h.7l.04.72h.02c.22-.41.72-.82,1.44-.82.6,0,1.54.36,1.54,1.86v2.6h-.79v-2.51c0-.7-.26-1.29-1.01-1.29-.52,0-.93.37-1.06.81-.04.1-.05.23-.05.37v2.62h-.79v-3.18Z"/>
      <path class="cls-16" d="M382.78,278.51c0,.27-.19.49-.5.49-.28,0-.48-.22-.48-.49s.21-.5.5-.5.49.22.49.5ZM381.9,284.09v-4.36h.79v4.36h-.79Z"/>
      <path class="cls-16" d="M387.95,281.88c0,1.61-1.12,2.31-2.17,2.31-1.18,0-2.09-.86-2.09-2.24,0-1.46.96-2.31,2.16-2.31s2.1.91,2.1,2.24ZM384.49,281.92c0,.95.55,1.67,1.32,1.67s1.32-.71,1.32-1.69c0-.74-.37-1.67-1.31-1.67s-1.34.86-1.34,1.69Z"/>
      <path class="cls-16" d="M388.94,280.91c0-.45,0-.82-.04-1.18h.7l.04.72h.02c.22-.41.72-.82,1.44-.82.6,0,1.54.36,1.54,1.86v2.6h-.79v-2.51c0-.7-.26-1.29-1.01-1.29-.52,0-.93.37-1.06.81-.04.1-.05.23-.05.37v2.62h-.79v-3.18Z"/>
      <path class="cls-16" d="M398.95,283.93c-.21.11-.67.25-1.25.25-1.31,0-2.17-.89-2.17-2.22s.92-2.31,2.34-2.31c.47,0,.88.12,1.1.22l-.18.61c-.19-.11-.49-.21-.92-.21-1,0-1.54.74-1.54,1.65,0,1.01.65,1.63,1.51,1.63.45,0,.75-.12.97-.22l.13.59Z"/>
      <path class="cls-16" d="M403.77,281.88c0,1.61-1.12,2.31-2.17,2.31-1.18,0-2.09-.86-2.09-2.24,0-1.46.95-2.31,2.16-2.31s2.1.91,2.1,2.24ZM400.31,281.92c0,.95.55,1.67,1.32,1.67s1.32-.71,1.32-1.69c0-.74-.37-1.67-1.31-1.67s-1.34.86-1.34,1.69Z"/>
      <path class="cls-16" d="M404.77,280.91c0-.45,0-.82-.04-1.18h.7l.04.72h.02c.22-.41.72-.82,1.44-.82.6,0,1.54.36,1.54,1.86v2.6h-.79v-2.51c0-.7-.26-1.29-1.01-1.29-.52,0-.93.37-1.06.81-.04.1-.05.23-.05.37v2.62h-.79v-3.18Z"/>
      <path class="cls-16" d="M410.68,278.48v1.25h1.13v.6h-1.13v2.35c0,.54.15.85.59.85.21,0,.36-.03.46-.05l.04.59c-.15.06-.4.11-.7.11-.37,0-.67-.12-.86-.33-.23-.23-.31-.62-.31-1.13v-2.38h-.67v-.6h.67v-1.04l.77-.21Z"/>
      <path class="cls-16" d="M415.12,284.09l-.06-.55h-.03c-.24.34-.71.65-1.33.65-.88,0-1.33-.62-1.33-1.25,0-1.05.94-1.63,2.62-1.62v-.09c0-.36-.1-1.01-.99-1.01-.41,0-.83.13-1.13.32l-.18-.52c.36-.23.88-.39,1.43-.39,1.33,0,1.66.91,1.66,1.78v1.63c0,.38.02.75.07,1.04h-.72ZM415,281.87c-.86-.02-1.85.13-1.85.98,0,.51.34.76.75.76.57,0,.93-.36,1.05-.73.03-.08.04-.17.04-.25v-.76Z"/>
      <path class="cls-16" d="M417.92,278.51c0,.27-.19.49-.5.49-.28,0-.48-.22-.48-.49s.21-.5.5-.5.49.22.49.5ZM417.04,284.09v-4.36h.79v4.36h-.79Z"/>
      <path class="cls-16" d="M419.15,280.91c0-.45,0-.82-.04-1.18h.7l.04.72h.02c.22-.41.72-.82,1.44-.82.6,0,1.54.36,1.54,1.86v2.6h-.79v-2.51c0-.7-.26-1.29-1.01-1.29-.52,0-.93.37-1.06.81-.04.1-.05.23-.05.37v2.62h-.79v-3.18Z"/>
      <path class="cls-16" d="M425.02,278.51c0,.27-.19.49-.5.49-.28,0-.48-.22-.48-.49s.21-.5.5-.5.49.22.49.5ZM424.14,284.09v-4.36h.79v4.36h-.79Z"/>
      <path class="cls-16" d="M426.25,280.91c0-.45,0-.82-.04-1.18h.7l.04.72h.02c.22-.41.72-.82,1.44-.82.6,0,1.54.36,1.54,1.86v2.6h-.79v-2.51c0-.7-.26-1.29-1.01-1.29-.52,0-.93.37-1.06.81-.04.1-.05.23-.05.37v2.62h-.79v-3.18Z"/>
      <path class="cls-16" d="M435,279.73c-.02.32-.04.67-.04,1.2v2.53c0,1-.2,1.61-.62,1.99-.42.4-1.04.52-1.58.52s-1.1-.13-1.45-.36l.2-.6c.29.18.74.34,1.28.34.81,0,1.4-.42,1.4-1.52v-.49h-.02c-.24.4-.71.73-1.39.73-1.08,0-1.85-.92-1.85-2.12,0-1.48.96-2.31,1.96-2.31.76,0,1.17.4,1.36.76h.02l.04-.66h.69ZM434.18,281.45c0-.14,0-.25-.04-.36-.14-.46-.53-.84-1.11-.84-.76,0-1.3.64-1.3,1.65,0,.85.43,1.57,1.29,1.57.49,0,.93-.31,1.1-.81.04-.13.06-.29.06-.42v-.78Z"/>
      <path class="cls-16" d="M376.71,292.67c0,1.61-1.12,2.31-2.17,2.31-1.18,0-2.09-.86-2.09-2.24,0-1.46.95-2.31,2.16-2.31s2.1.91,2.1,2.24ZM373.26,292.72c0,.95.55,1.67,1.32,1.67s1.32-.71,1.32-1.69c0-.74-.37-1.67-1.31-1.67s-1.34.86-1.34,1.69Z"/>
      <path class="cls-16" d="M377.71,291.71c0-.45,0-.82-.04-1.18h.7l.04.72h.02c.22-.41.72-.82,1.44-.82.6,0,1.54.36,1.54,1.86v2.6h-.79v-2.51c0-.7-.26-1.29-1.01-1.29-.52,0-.93.37-1.06.81-.04.1-.05.23-.05.37v2.62h-.79v-3.18Z"/>
      <path class="cls-16" d="M383.15,292.85c.02,1.07.7,1.51,1.49,1.51.57,0,.91-.1,1.21-.22l.14.57c-.28.13-.76.27-1.45.27-1.34,0-2.14-.88-2.14-2.2s.77-2.35,2.04-2.35c1.42,0,1.8,1.25,1.8,2.05,0,.16-.02.29-.03.37h-3.06ZM385.47,292.29c0-.5-.21-1.29-1.1-1.29-.8,0-1.15.74-1.21,1.29h2.31Z"/>
      <path class="cls-16" d="M389.02,294.08c.23.15.65.32,1.04.32.58,0,.85-.29.85-.65s-.22-.58-.81-.8c-.78-.28-1.15-.71-1.15-1.23,0-.7.57-1.28,1.5-1.28.44,0,.83.13,1.07.27l-.2.58c-.17-.11-.49-.25-.89-.25-.47,0-.73.27-.73.59,0,.36.26.52.83.74.76.29,1.14.67,1.14,1.31,0,.77-.59,1.31-1.63,1.31-.48,0-.92-.12-1.22-.3l.2-.6Z"/>
      <path class="cls-16" d="M396.63,292.67c0,1.61-1.12,2.31-2.17,2.31-1.18,0-2.09-.86-2.09-2.24,0-1.46.96-2.31,2.16-2.31s2.1.91,2.1,2.24ZM393.17,292.72c0,.95.55,1.67,1.32,1.67s1.32-.71,1.32-1.69c0-.74-.37-1.67-1.31-1.67s-1.34.86-1.34,1.69Z"/>
      <path class="cls-16" d="M397.63,288.5h.79v6.39h-.79v-6.39Z"/>
      <path class="cls-16" d="M400.64,289.31c0,.27-.19.49-.5.49-.28,0-.48-.22-.48-.49s.21-.5.5-.5.49.22.49.5ZM399.75,294.89v-4.36h.79v4.36h-.79Z"/>
      <path class="cls-16" d="M405.62,288.5v5.27c0,.39,0,.83.04,1.13h-.71l-.04-.76h-.02c-.24.49-.77.86-1.49.86-1.05,0-1.86-.89-1.86-2.21,0-1.45.89-2.34,1.95-2.34.67,0,1.12.32,1.31.67h.02v-2.6h.79ZM404.83,292.31c0-.1,0-.23-.04-.33-.12-.5-.55-.92-1.14-.92-.82,0-1.3.72-1.3,1.68,0,.88.43,1.61,1.29,1.61.53,0,1.02-.35,1.16-.95.03-.11.04-.22.04-.34v-.76Z"/>
    </g>
  </g>
  <g>
    <g>
      <line class="cls-7" x1="335.67" y1="125.63" x2="443.33" y2="125.63"/>
      <polygon class="cls-19" points="439.2 139.77 463.67 125.63 439.2 111.5 439.2 139.77"/>
    </g>
    <g>
      <rect class="cls-12" x="339.72" y="116.7" width="94.96" height="17.93"/>
      <path class="cls-16" d="M345.82,122.14c.35.22.86.4,1.4.4.8,0,1.27-.42,1.27-1.04,0-.57-.32-.89-1.14-1.21-.99-.35-1.6-.86-1.6-1.72,0-.95.78-1.65,1.96-1.65.62,0,1.07.14,1.34.3l-.22.64c-.2-.11-.6-.29-1.15-.29-.83,0-1.14.5-1.14.91,0,.57.37.85,1.21,1.17,1.03.4,1.55.89,1.55,1.78,0,.94-.69,1.75-2.12,1.75-.58,0-1.22-.17-1.55-.39l.2-.66Z"/>
      <path class="cls-16" d="M350.83,121.05c.02,1.07.7,1.51,1.49,1.51.57,0,.91-.1,1.21-.23l.14.57c-.28.13-.76.27-1.45.27-1.34,0-2.14-.88-2.14-2.2s.77-2.35,2.04-2.35c1.42,0,1.8,1.25,1.8,2.05,0,.16-.02.29-.03.37h-3.06ZM353.15,120.49c0-.5-.21-1.29-1.1-1.29-.8,0-1.15.74-1.21,1.29h2.31Z"/>
      <path class="cls-16" d="M358,122.93c-.21.11-.67.25-1.25.25-1.31,0-2.17-.89-2.17-2.22s.92-2.31,2.34-2.31c.47,0,.88.12,1.1.23l-.18.61c-.19-.11-.49-.21-.92-.21-1,0-1.54.74-1.54,1.65,0,1.01.65,1.63,1.51,1.63.45,0,.75-.12.97-.22l.13.59Z"/>
      <path class="cls-16" d="M362.82,120.87c0,1.61-1.12,2.31-2.17,2.31-1.18,0-2.09-.86-2.09-2.24,0-1.46.96-2.31,2.16-2.31s2.1.91,2.1,2.24ZM359.36,120.92c0,.95.55,1.67,1.32,1.67s1.32-.71,1.32-1.69c0-.74-.37-1.67-1.31-1.67s-1.34.86-1.34,1.69Z"/>
      <path class="cls-16" d="M363.82,119.91c0-.45,0-.82-.04-1.18h.7l.04.72h.02c.22-.41.72-.82,1.44-.82.6,0,1.54.36,1.54,1.85v2.6h-.79v-2.51c0-.7-.26-1.29-1.01-1.29-.52,0-.93.37-1.06.81-.04.1-.05.23-.05.37v2.62h-.79v-3.18Z"/>
      <path class="cls-16" d="M372.58,116.7v5.27c0,.39,0,.83.04,1.13h-.71l-.04-.76h-.02c-.24.49-.77.86-1.49.86-1.05,0-1.86-.89-1.86-2.21,0-1.45.89-2.34,1.95-2.34.67,0,1.12.32,1.31.67h.02v-2.6h.79ZM371.78,120.51c0-.1,0-.23-.04-.33-.12-.5-.55-.92-1.14-.92-.82,0-1.3.72-1.3,1.68,0,.88.43,1.61,1.29,1.61.53,0,1.02-.35,1.16-.95.03-.11.04-.22.04-.34v-.76Z"/>
      <path class="cls-16" d="M375.69,122.28c.23.15.65.31,1.04.31.58,0,.85-.29.85-.65s-.22-.58-.81-.8c-.78-.28-1.15-.71-1.15-1.23,0-.7.57-1.28,1.5-1.28.44,0,.83.13,1.07.27l-.2.58c-.17-.11-.49-.25-.89-.25-.47,0-.73.27-.73.59,0,.36.26.52.83.74.76.29,1.14.67,1.14,1.31,0,.77-.59,1.31-1.63,1.31-.48,0-.92-.12-1.22-.3l.2-.6Z"/>
      <path class="cls-16" d="M383.31,120.87c0,1.61-1.12,2.31-2.17,2.31-1.18,0-2.09-.86-2.09-2.24,0-1.46.96-2.31,2.16-2.31s2.1.91,2.1,2.24ZM379.85,120.92c0,.95.55,1.67,1.32,1.67s1.32-.71,1.32-1.69c0-.74-.37-1.67-1.31-1.67s-1.34.86-1.34,1.69Z"/>
      <path class="cls-16" d="M384.3,116.7h.79v6.39h-.79v-6.39Z"/>
      <path class="cls-16" d="M387.31,117.51c0,.27-.19.49-.5.49-.28,0-.48-.22-.48-.49s.21-.5.5-.5.49.22.49.5ZM386.43,123.09v-4.36h.79v4.36h-.79Z"/>
      <path class="cls-16" d="M392.3,116.7v5.27c0,.39,0,.83.04,1.13h-.71l-.04-.76h-.02c-.24.49-.77.86-1.49.86-1.05,0-1.86-.89-1.86-2.21,0-1.45.89-2.34,1.95-2.34.67,0,1.12.32,1.31.67h.02v-2.6h.79ZM391.5,120.51c0-.1,0-.23-.04-.33-.12-.5-.55-.92-1.14-.92-.82,0-1.3.72-1.3,1.68,0,.88.43,1.61,1.29,1.61.53,0,1.02-.35,1.16-.95.03-.11.04-.22.04-.34v-.76Z"/>
      <path class="cls-16" d="M399.46,120.87c0,1.61-1.12,2.31-2.17,2.31-1.18,0-2.09-.86-2.09-2.24,0-1.46.95-2.31,2.16-2.31s2.1.91,2.1,2.24ZM396,120.92c0,.95.55,1.67,1.32,1.67s1.32-.71,1.32-1.69c0-.74-.37-1.67-1.31-1.67s-1.34.86-1.34,1.69Z"/>
      <path class="cls-16" d="M400.46,119.91c0-.45,0-.82-.04-1.18h.7l.04.72h.02c.22-.41.72-.82,1.44-.82.6,0,1.54.36,1.54,1.85v2.6h-.79v-2.51c0-.7-.26-1.29-1.01-1.29-.52,0-.93.37-1.06.81-.04.1-.05.23-.05.37v2.62h-.79v-3.18Z"/>
      <path class="cls-16" d="M405.45,116.7h.79v6.39h-.79v-6.39Z"/>
      <path class="cls-16" d="M407.87,118.73l.95,2.57c.1.29.21.63.28.89h.02c.08-.26.17-.59.28-.91l.86-2.56h.84l-1.19,3.11c-.57,1.49-.96,2.26-1.5,2.73-.39.34-.77.48-.97.51l-.2-.67c.2-.06.46-.19.69-.39.22-.17.49-.48.67-.88.04-.08.06-.14.06-.19s-.02-.11-.05-.21l-1.61-4.02h.86Z"/>
      <path class="cls-16" d="M417.48,118.73c-.02.32-.04.67-.04,1.2v2.53c0,1-.2,1.61-.62,1.99-.42.4-1.04.52-1.58.52s-1.1-.13-1.45-.36l.2-.6c.29.18.74.34,1.28.34.81,0,1.41-.42,1.41-1.52v-.49h-.02c-.24.4-.71.73-1.39.73-1.08,0-1.85-.92-1.85-2.12,0-1.48.96-2.31,1.96-2.31.76,0,1.17.4,1.36.76h.02l.04-.66h.69ZM416.66,120.45c0-.14,0-.25-.04-.36-.14-.46-.53-.84-1.11-.84-.76,0-1.3.64-1.3,1.65,0,.85.43,1.57,1.29,1.57.49,0,.93-.31,1.1-.81.04-.13.06-.29.06-.42v-.78Z"/>
      <path class="cls-16" d="M419.2,121.05c.02,1.07.7,1.51,1.49,1.51.57,0,.91-.1,1.21-.23l.14.57c-.28.13-.76.27-1.45.27-1.34,0-2.14-.88-2.14-2.2s.77-2.35,2.04-2.35c1.42,0,1.8,1.25,1.8,2.05,0,.16-.02.29-.03.37h-3.06ZM421.52,120.49c0-.5-.21-1.29-1.1-1.29-.8,0-1.15.74-1.21,1.29h2.31Z"/>
      <path class="cls-16" d="M424.22,117.48v1.25h1.13v.6h-1.13v2.35c0,.54.15.85.59.85.21,0,.36-.03.46-.05l.04.59c-.15.06-.4.11-.7.11-.37,0-.67-.12-.86-.33-.23-.23-.31-.62-.31-1.13v-2.38h-.67v-.6h.67v-1.04l.77-.21Z"/>
      <path class="cls-16" d="M426.14,122.28c.23.15.65.31,1.04.31.58,0,.85-.29.85-.65s-.22-.58-.81-.8c-.78-.28-1.15-.71-1.15-1.23,0-.7.57-1.28,1.5-1.28.44,0,.83.13,1.07.27l-.2.58c-.17-.11-.49-.25-.89-.25-.47,0-.73.27-.73.59,0,.36.26.52.83.74.76.29,1.14.67,1.14,1.31,0,.77-.59,1.31-1.63,1.31-.48,0-.92-.12-1.22-.3l.2-.6Z"/>
      <path class="cls-16" d="M362.78,128.28v1.25h1.13v.6h-1.13v2.35c0,.54.15.85.59.85.21,0,.36-.03.46-.05l.04.59c-.15.06-.4.11-.7.11-.37,0-.67-.12-.86-.33-.23-.23-.31-.62-.31-1.13v-2.38h-.67v-.6h.67v-1.04l.77-.21Z"/>
      <path class="cls-16" d="M364.8,127.5h.79v2.72h.02c.13-.22.32-.42.57-.56.23-.13.51-.23.81-.23.58,0,1.52.36,1.52,1.86v2.59h-.79v-2.5c0-.7-.26-1.3-1.01-1.3-.51,0-.92.36-1.06.79-.05.11-.05.23-.05.38v2.63h-.79v-6.39Z"/>
      <path class="cls-16" d="M370.24,131.85c.02,1.07.7,1.51,1.49,1.51.57,0,.91-.1,1.21-.23l.14.57c-.28.13-.76.27-1.45.27-1.34,0-2.14-.88-2.14-2.2s.77-2.35,2.04-2.35c1.42,0,1.8,1.25,1.8,2.05,0,.16-.02.29-.03.37h-3.06ZM372.56,131.29c0-.5-.21-1.29-1.1-1.29-.8,0-1.15.74-1.21,1.29h2.31Z"/>
      <path class="cls-16" d="M379.98,127.5v5.27c0,.39,0,.83.04,1.13h-.71l-.04-.76h-.02c-.24.49-.77.86-1.49.86-1.05,0-1.86-.89-1.86-2.21,0-1.45.89-2.34,1.95-2.34.67,0,1.12.32,1.31.67h.02v-2.6h.79ZM379.19,131.31c0-.1,0-.23-.04-.33-.12-.5-.55-.92-1.14-.92-.82,0-1.31.72-1.31,1.68,0,.88.43,1.61,1.29,1.61.53,0,1.02-.35,1.16-.95.03-.11.04-.22.04-.34v-.76Z"/>
      <path class="cls-16" d="M382.17,128.31c0,.27-.19.49-.5.49-.28,0-.48-.22-.48-.49s.21-.5.5-.5.49.22.49.5ZM381.29,133.89v-4.36h.79v4.36h-.79Z"/>
      <path class="cls-16" d="M386.09,133.89v-3.75h-1.83v3.75h-.78v-3.75h-.61v-.6h.61v-.14c0-.61.14-1.14.49-1.49.25-.25.61-.41,1.1-.41.25,0,.49.08.62.15l-.16.58c-.12-.05-.29-.11-.47-.11-.62,0-.79.53-.79,1.22v.19h1.83v-.21c0-.61.14-1.17.51-1.52.3-.29.69-.4,1.05-.4.29,0,.52.06.68.13l-.1.61c-.13-.05-.28-.1-.51-.1-.67,0-.85.59-.85,1.26v.23h1.05v.6h-1.04v3.75h-.79Z"/>
      <path class="cls-16" d="M388.97,131.85c.02,1.07.7,1.51,1.49,1.51.57,0,.91-.1,1.21-.23l.14.57c-.28.13-.76.27-1.45.27-1.34,0-2.14-.88-2.14-2.2s.77-2.35,2.04-2.35c1.42,0,1.8,1.25,1.8,2.05,0,.16-.02.29-.03.37h-3.06ZM391.29,131.29c0-.5-.21-1.29-1.1-1.29-.8,0-1.15.74-1.21,1.29h2.31Z"/>
      <path class="cls-16" d="M393.04,130.89c0-.51,0-.95-.04-1.36h.69l.03.86h.04c.2-.59.68-.95,1.21-.95.09,0,.15,0,.22.03v.75c-.08-.02-.16-.03-.27-.03-.56,0-.96.42-1.06,1.02-.02.11-.04.23-.04.37v2.32h-.78v-3Z"/>
      <path class="cls-16" d="M396.33,131.85c.02,1.07.7,1.51,1.49,1.51.57,0,.91-.1,1.21-.23l.14.57c-.28.13-.76.27-1.45.27-1.34,0-2.14-.88-2.14-2.2s.77-2.35,2.04-2.35c1.42,0,1.8,1.25,1.8,2.05,0,.16-.02.29-.03.37h-3.06ZM398.65,131.29c0-.5-.21-1.29-1.1-1.29-.8,0-1.15.74-1.21,1.29h2.31Z"/>
      <path class="cls-16" d="M400.4,130.71c0-.45,0-.82-.04-1.18h.7l.04.72h.02c.22-.41.72-.82,1.44-.82.6,0,1.54.36,1.54,1.85v2.6h-.79v-2.51c0-.7-.26-1.29-1.01-1.29-.52,0-.93.37-1.06.81-.04.1-.05.23-.05.37v2.62h-.79v-3.18Z"/>
      <path class="cls-16" d="M408.5,133.73c-.21.11-.67.25-1.25.25-1.31,0-2.17-.89-2.17-2.22s.92-2.31,2.34-2.31c.47,0,.88.12,1.1.23l-.18.61c-.19-.11-.49-.21-.92-.21-1,0-1.54.74-1.54,1.65,0,1.01.65,1.63,1.51,1.63.45,0,.75-.12.97-.22l.13.59Z"/>
      <path class="cls-16" d="M409.81,131.85c.02,1.07.7,1.51,1.49,1.51.57,0,.91-.1,1.21-.23l.14.57c-.28.13-.76.27-1.45.27-1.34,0-2.14-.88-2.14-2.2s.77-2.35,2.04-2.35c1.42,0,1.8,1.25,1.8,2.05,0,.16-.02.29-.03.37h-3.06ZM412.14,131.29c0-.5-.21-1.29-1.1-1.29-.8,0-1.15.74-1.21,1.29h2.31Z"/>
    </g>
  </g>
  <g>
    <rect class="cls-12" x="303.55" y="90.97" width="45.04" height="70.6"/>
    <path class="cls-15" d="M311.76,107.24l4.97,7.49c1.3,1.94,2.38,3.74,3.53,5.69h.22c1.15-2.09,2.3-3.89,3.46-5.76l4.9-7.42h6.84l-11.88,16.85,12.24,18h-7.2l-5.11-7.85c-1.37-2.02-2.52-3.96-3.75-6.05h-.14c-1.15,2.09-2.38,3.96-3.67,6.05l-5.04,7.85h-6.98l12.38-17.79-11.81-17.07h7.06Z"/>
  </g>
  <path class="cls-20" d="M311.73,268.27l6.84,19.58c1.15,3.17,2.09,6.05,2.81,8.93h.22c.79-2.88,1.8-5.76,2.95-8.93l6.77-19.58h6.62l-13.68,34.85h-6.05l-13.25-34.85h6.77Z"/>
  <g>
    <rect class="cls-17" x="90.64" y="169.16" width="81.82" height="75.88"/>
    <polyline class="cls-17" points="89.32 169.16 89.32 169.16 90.31 245.38 75.5 266.92 76.46 189.29 90.64 169.16"/>
    <line class="cls-8" x1="172.8" y1="169.49" x2="90.31" y2="169.49"/>
    <line class="cls-8" x1="157.62" y1="189.29" x2="172.8" y2="169.49"/>
    <line class="cls-8" x1="160.26" y1="268.47" x2="173.46" y2="246.04"/>
    <line class="cls-8" x1="172.8" y1="169.49" x2="172.8" y2="246.04"/>
    <line class="cls-11" x1="90.31" y1="169.49" x2="90.31" y2="245.38"/>
    <line class="cls-11" x1="172.8" y1="245.38" x2="88.99" y2="245.38"/>
    <polyline class="cls-11" points="90.31 245.38 77.12 265.83 90.31 245.38"/>
    <polygon class="cls-14" points="90.31 169.49 77.17 189 158.7 189.5 172.97 168.81 90.31 169.49"/>
    <polyline class="cls-14" points="76.21 266.7 90.31 245.38 172.8 246.04 159.6 266.49"/>
    <polygon class="cls-14" points="158.7 189.5 172.28 170.11 171.59 247.7 158.29 266.84 158.7 189.5"/>
    <g>
      <circle class="cls-16" cx="89.41" cy="245.59" r="5.11"/>
      <path class="cls-18" d="M88.15,247.36v-3.37h.47l1.08,1.71c.25.4.45.75.61,1.1h0c-.04-.46-.05-.87-.05-1.39v-1.41h.41v3.37h-.44l-1.07-1.71c-.24-.38-.46-.76-.63-1.13h-.01c.03.43.04.84.04,1.4v1.44h-.41Z"/>
    </g>
    <g>
      <circle class="cls-16" cx="172.55" cy="245.59" r="5.11"/>
      <path class="cls-18" d="M174.09,245.64c0,1.16-.71,1.78-1.57,1.78s-1.52-.69-1.52-1.71c0-1.07.67-1.77,1.57-1.77s1.52.71,1.52,1.71ZM171.48,245.7c0,.72.39,1.37,1.08,1.37s1.08-.64,1.08-1.4c0-.67-.35-1.37-1.08-1.37s-1.08.67-1.08,1.41Z"/>
    </g>
    <g>
      <circle class="cls-16" cx="171.89" cy="168.39" r="5.11"/>
      <path class="cls-18" d="M170.76,166.54c.25-.04.58-.08.99-.08.51,0,.88.12,1.12.33.22.19.35.48.35.84s-.11.65-.31.86c-.27.29-.72.44-1.22.44-.15,0-.3,0-.42-.04v1.6h-.52v-3.95ZM171.28,168.47c.11.03.25.04.43.04.62,0,1-.3,1-.85s-.37-.78-.94-.78c-.23,0-.4.02-.49.04v1.55Z"/>
    </g>
    <rect class="cls-14" x="77.45" y="190.28" width="81.82" height="75.88"/>
    <g>
      <line class="cls-2" x1="77.45" y1="190.28" x2="77.45" y2="193.28"/>
      <line class="cls-9" x1="77.45" y1="199.63" x2="77.45" y2="259.99"/>
      <polyline class="cls-2" points="77.45 263.16 77.45 266.16 80.45 266.2"/>
      <line class="cls-4" x1="86.34" y1="266.26" x2="118.77" y2="266.64"/>
      <line class="cls-2" x1="121.71" y1="266.67" x2="124.71" y2="266.7"/>
    </g>
    <g>
      <circle class="cls-16" cx="76.21" cy="266.7" r="5.11"/>
      <path class="cls-18" d="M76.4,264.6h.57v2.97c0,1.18-.58,1.54-1.34,1.54-.21,0-.47-.05-.61-.11l.09-.47c.12.05.29.09.48.09.51,0,.82-.23.82-1.1v-2.93Z"/>
    </g>
    <g>
      <rect class="cls-17" x="49.65" y="179.71" width="81.82" height="75.88"/>
      <polyline class="cls-17" points="48.33 179.71 48.33 179.71 49.32 255.92 34.51 277.46 35.46 199.83 49.65 179.71"/>
      <polygon class="cls-17" points="49.32 180.04 36.18 199.55 117.7 200.05 131.97 179.35 49.32 180.04"/>
      <line class="cls-8" x1="131.8" y1="180.04" x2="49.32" y2="180.04"/>
      <line class="cls-8" x1="116.63" y1="199.83" x2="131.8" y2="180.04"/>
      <line class="cls-8" x1="119.26" y1="279.02" x2="132.46" y2="256.58"/>
      <line class="cls-8" x1="131.8" y1="180.04" x2="131.8" y2="256.58"/>
      <line class="cls-11" x1="49.32" y1="180.04" x2="49.32" y2="255.92"/>
      <line class="cls-8" x1="35.31" y1="199.47" x2="50.48" y2="179.67"/>
      <line class="cls-11" x1="131.8" y1="255.92" x2="48" y2="255.92"/>
      <polyline class="cls-11" points="49.32 255.92 36.12 276.38 49.32 255.92"/>
      <polyline class="cls-17" points="35.22 277.25 49.32 255.92 131.8 256.58 118.6 277.04"/>
      <polygon class="cls-17" points="117.7 200.05 131.29 180.65 130.59 258.24 117.29 277.39 117.7 200.05"/>
      <g>
        <circle class="cls-16" cx="49.16" cy="179.21" r="5.11"/>
        <path class="cls-18" d="M50.33,179.47h-1.73v1.6h1.92v.48h-2.5v-4.44h2.4v.48h-1.83v1.4h1.73v.47Z"/>
      </g>
      <g>
        <circle class="cls-16" cx="131.56" cy="256.13" r="5.11"/>
        <path class="cls-18" d="M130.59,254.24v1.67h1.93v-1.67h.52v4h-.52v-1.88h-1.93v1.88h-.52v-4h.52Z"/>
      </g>
      <g>
        <circle class="cls-16" cx="48.42" cy="256.13" r="5.11"/>
        <path class="cls-18" d="M47.31,254.03h2.39v.48h-1.82v1.48h1.68v.47h-1.68v2.01h-.57v-4.44Z"/>
      </g>
      <g>
        <circle class="cls-16" cx="130.9" cy="178.93" r="5.11"/>
        <path class="cls-18" d="M132.48,180.86c-.23.08-.69.22-1.23.22-.61,0-1.1-.15-1.5-.53-.34-.33-.56-.87-.56-1.49,0-1.19.83-2.07,2.17-2.07.46,0,.83.1,1,.18l-.12.42c-.21-.09-.48-.17-.88-.17-.97,0-1.61.61-1.61,1.61s.61,1.61,1.54,1.61c.34,0,.57-.05.69-.11v-1.19h-.81v-.42h1.32v1.92Z"/>
      </g>
      <rect class="cls-17" x="36.45" y="200.82" width="81.82" height="75.88"/>
      <rect class="cls-8" x="35.46" y="199.83" width="83.14" height="77.2"/>
      <g>
        <circle class="cls-16" cx="35.96" cy="200.33" r="5.11"/>
        <path class="cls-18" d="M35.16,201.27l-.46,1.4h-.59l1.51-4.44h.69l1.52,4.44h-.61l-.47-1.4h-1.58ZM36.61,200.83l-.43-1.28c-.1-.29-.17-.55-.23-.81h-.01c-.07.26-.14.53-.22.8l-.44,1.29h1.34Z"/>
      </g>
      <g>
        <circle class="cls-16" cx="118.36" cy="277.25" r="5.11"/>
        <path class="cls-18" d="M120.05,279.44c-.21.11-.63.21-1.17.21-1.25,0-2.2-.79-2.2-2.25s.94-2.33,2.32-2.33c.55,0,.9.12,1.05.2l-.14.47c-.22-.11-.53-.18-.9-.18-1.04,0-1.73.67-1.73,1.83,0,1.09.63,1.79,1.71,1.79.35,0,.71-.07.94-.18l.12.45Z"/>
      </g>
      <g>
        <circle class="cls-16" cx="35.22" cy="277.25" r="5.11"/>
        <path class="cls-18" d="M33.93,275.21c.25-.05.65-.09,1.05-.09.57,0,.94.1,1.22.32.23.17.37.44.37.79,0,.43-.28.8-.75.98h0c.42.12.92.47.92,1.13,0,.38-.15.67-.38.89-.31.28-.81.42-1.54.42-.4,0-.7-.03-.89-.05v-4.37ZM34.51,277.03h.52c.61,0,.96-.32.96-.75,0-.52-.4-.72-.98-.72-.26,0-.42.02-.51.04v1.43ZM34.51,279.16c.11.02.28.03.48.03.59,0,1.14-.22,1.14-.86,0-.61-.52-.86-1.15-.86h-.47v1.69Z"/>
      </g>
      <g>
        <circle class="cls-16" cx="117.7" cy="200.05" r="5.11"/>
        <path class="cls-18" d="M116.18,198.21c.31-.05.69-.08,1.1-.08.74,0,1.27.17,1.62.5.36.33.56.79.56,1.44s-.2,1.19-.58,1.56c-.37.37-.99.58-1.77.58-.37,0-.68-.02-.94-.05v-3.94ZM116.69,201.74c.13.02.32.03.52.03,1.1,0,1.7-.62,1.7-1.7,0-.94-.53-1.54-1.62-1.54-.27,0-.47.02-.61.05v3.16Z"/>
      </g>
    </g>
    <line class="cls-8" x1="76.3" y1="188.92" x2="91.48" y2="169.13"/>
    <g>
      <circle class="cls-16" cx="90.15" cy="168.67" r="5.11"/>
      <path class="cls-18" d="M91.36,168.96c-.02-.47-.05-1.04-.05-1.46h-.01c-.12.39-.26.82-.43,1.28l-.6,1.64h-.33l-.54-1.61c-.16-.47-.3-.91-.39-1.31h0c-.01.42-.04.99-.07,1.49l-.09,1.45h-.42l.24-3.37h.56l.58,1.63c.14.42.26.79.34,1.14h.01c.08-.34.21-.71.36-1.14l.6-1.63h.56l.21,3.37h-.42l-.09-1.48Z"/>
    </g>
    <line class="cls-6" x1="77.45" y1="190.28" x2="157.75" y2="190.28"/>
    <line class="cls-2" x1="126.63" y1="266.49" x2="159.6" y2="266.49"/>
    <line class="cls-6" x1="159.6" y1="266.49" x2="159.27" y2="190.28"/>
    <g>
      <circle class="cls-16" cx="159.36" cy="266.7" r="5.11"/>
      <path class="cls-18" d="M158.07,264.6h.57v2.14h.02c.12-.17.24-.33.35-.47l1.36-1.67h.71l-1.61,1.89,1.73,2.56h-.68l-1.46-2.18-.42.49v1.69h-.57v-4.44Z"/>
    </g>
    <g>
      <circle class="cls-16" cx="158.7" cy="189.5" r="5.11"/>
      <path class="cls-18" d="M157.75,187.61h.52v3.57h1.71v.43h-2.23v-4Z"/>
    </g>
    <g>
      <circle class="cls-16" cx="76.95" cy="189.78" r="5.11"/>
      <path class="cls-18" d="M77.21,187.87v4.04h-.52v-4.04h.52Z"/>
    </g>
  </g>
  <g>
    <rect class="cls-17" x="71.3" y="307.24" width="81.82" height="75.88"/>
    <polyline class="cls-17" points="69.98 307.24 69.98 307.24 70.97 383.45 56.16 404.99 57.11 327.36 71.3 307.24"/>
    <line class="cls-8" x1="153.45" y1="307.57" x2="70.97" y2="307.57"/>
    <line class="cls-8" x1="138.27" y1="327.36" x2="153.45" y2="307.57"/>
    <line class="cls-8" x1="140.91" y1="406.54" x2="154.11" y2="384.11"/>
    <line class="cls-8" x1="153.45" y1="307.57" x2="153.45" y2="384.11"/>
    <line class="cls-11" x1="70.97" y1="307.57" x2="70.97" y2="383.45"/>
    <line class="cls-11" x1="153.45" y1="383.45" x2="69.65" y2="383.45"/>
    <polyline class="cls-11" points="70.97 383.45 57.77 403.9 70.97 383.45"/>
    <polygon class="cls-14" points="70.97 307.57 57.83 327.07 139.35 327.57 153.62 306.88 70.97 307.57"/>
    <polyline class="cls-14" points="56.87 404.78 70.97 383.45 153.45 384.11 140.25 404.56"/>
    <polygon class="cls-14" points="139.35 327.57 152.93 308.18 152.24 385.77 138.94 404.91 139.35 327.57"/>
    <g>
      <circle class="cls-16" cx="70.07" cy="383.66" r="5.11"/>
      <path class="cls-18" d="M68.8,385.44v-3.37h.47l1.08,1.71c.25.4.45.75.61,1.1h0c-.04-.46-.05-.87-.05-1.39v-1.41h.41v3.37h-.44l-1.07-1.71c-.24-.38-.46-.76-.63-1.13h-.01c.03.43.04.84.04,1.4v1.44h-.41Z"/>
    </g>
    <g>
      <circle class="cls-16" cx="153.21" cy="383.66" r="5.11"/>
      <path class="cls-18" d="M154.75,383.71c0,1.16-.71,1.78-1.57,1.78s-1.52-.69-1.52-1.71c0-1.07.67-1.77,1.57-1.77s1.52.71,1.52,1.71ZM152.13,383.77c0,.72.39,1.37,1.08,1.37s1.08-.64,1.08-1.4c0-.67-.35-1.37-1.08-1.37s-1.08.67-1.08,1.41Z"/>
    </g>
    <g>
      <circle class="cls-16" cx="152.55" cy="306.46" r="5.11"/>
      <path class="cls-18" d="M151.42,304.61c.25-.04.58-.08.99-.08.51,0,.88.12,1.12.33.22.19.35.48.35.84s-.11.65-.31.86c-.27.29-.72.44-1.22.44-.15,0-.3,0-.42-.04v1.6h-.52v-3.95ZM151.94,306.54c.11.03.25.04.43.04.62,0,1-.3,1-.85s-.37-.78-.94-.78c-.23,0-.4.02-.49.04v1.55Z"/>
    </g>
    <rect class="cls-14" x="58.1" y="328.35" width="81.82" height="75.88"/>
    <g>
      <line class="cls-2" x1="58.1" y1="328.35" x2="58.1" y2="331.35"/>
      <line class="cls-9" x1="58.1" y1="337.7" x2="58.1" y2="398.06"/>
      <polyline class="cls-2" points="58.1 401.23 58.1 404.23 61.1 404.26"/>
      <line class="cls-3" x1="66.79" y1="404.3" x2="120.83" y2="404.73"/>
      <line class="cls-2" x1="123.67" y1="404.75" x2="126.67" y2="404.78"/>
    </g>
    <g>
      <circle class="cls-16" cx="56.87" cy="404.78" r="5.11"/>
      <path class="cls-18" d="M57.06,402.67h.57v2.97c0,1.18-.58,1.54-1.34,1.54-.21,0-.47-.05-.61-.11l.09-.47c.12.05.29.09.48.09.51,0,.82-.23.82-1.1v-2.93Z"/>
    </g>
    <g>
      <rect class="cls-17" x="51.31" y="314.78" width="81.82" height="75.88"/>
      <polyline class="cls-17" points="49.99 314.78 49.99 314.78 50.98 390.99 36.16 412.53 37.12 334.91 51.31 314.78"/>
      <polygon class="cls-17" points="50.98 315.11 37.84 334.62 119.36 335.12 133.63 314.42 50.98 315.11"/>
      <line class="cls-8" x1="133.46" y1="315.11" x2="50.98" y2="315.11"/>
      <line class="cls-8" x1="118.28" y1="334.91" x2="133.46" y2="315.11"/>
      <line class="cls-8" x1="120.92" y1="414.09" x2="134.12" y2="391.65"/>
      <line class="cls-8" x1="133.46" y1="315.11" x2="133.46" y2="391.65"/>
      <line class="cls-11" x1="50.98" y1="315.11" x2="50.98" y2="390.99"/>
      <line class="cls-8" x1="36.96" y1="334.54" x2="52.14" y2="314.75"/>
      <line class="cls-11" x1="133.46" y1="390.99" x2="49.66" y2="390.99"/>
      <polyline class="cls-11" points="50.98 390.99 37.78 411.45 50.98 390.99"/>
      <polyline class="cls-17" points="36.88 412.32 50.98 390.99 133.46 391.65 120.26 412.11"/>
      <polygon class="cls-17" points="119.36 335.12 132.94 315.72 132.25 393.31 118.95 412.46 119.36 335.12"/>
      <g>
        <circle class="cls-16" cx="50.81" cy="314.29" r="5.11"/>
        <path class="cls-18" d="M51.99,314.54h-1.73v1.6h1.92v.48h-2.5v-4.44h2.4v.48h-1.83v1.4h1.73v.47Z"/>
      </g>
      <g>
        <circle class="cls-16" cx="133.21" cy="391.2" r="5.11"/>
        <path class="cls-18" d="M132.25,389.31v1.67h1.93v-1.67h.52v4h-.52v-1.88h-1.93v1.88h-.52v-4h.52Z"/>
      </g>
      <g>
        <circle class="cls-16" cx="50.07" cy="391.2" r="5.11"/>
        <path class="cls-18" d="M48.97,389.1h2.39v.48h-1.82v1.48h1.68v.47h-1.68v2.01h-.57v-4.44Z"/>
      </g>
      <g>
        <circle class="cls-16" cx="132.55" cy="314" r="5.11"/>
        <path class="cls-18" d="M134.13,315.93c-.23.08-.69.22-1.23.22-.61,0-1.1-.15-1.5-.53-.34-.33-.56-.87-.56-1.49,0-1.19.83-2.07,2.17-2.07.46,0,.83.1,1,.18l-.12.42c-.21-.09-.48-.17-.88-.17-.97,0-1.61.61-1.61,1.61s.61,1.61,1.54,1.61c.34,0,.57-.05.69-.11v-1.19h-.81v-.42h1.32v1.92Z"/>
      </g>
      <rect class="cls-17" x="38.11" y="335.9" width="81.82" height="75.88"/>
      <rect class="cls-8" x="37.12" y="334.91" width="83.14" height="77.2"/>
      <g>
        <circle class="cls-16" cx="37.61" cy="335.4" r="5.11"/>
        <path class="cls-18" d="M36.81,336.35l-.46,1.4h-.59l1.51-4.44h.69l1.52,4.44h-.61l-.47-1.4h-1.58ZM38.27,335.9l-.43-1.28c-.1-.29-.17-.55-.23-.81h-.01c-.07.26-.14.53-.22.8l-.44,1.29h1.34Z"/>
      </g>
      <g>
        <circle class="cls-16" cx="120.02" cy="412.32" r="5.11"/>
        <path class="cls-18" d="M121.71,414.52c-.21.11-.63.21-1.17.21-1.25,0-2.2-.79-2.2-2.25s.94-2.33,2.32-2.33c.55,0,.9.12,1.05.2l-.14.47c-.22-.11-.53-.18-.9-.18-1.04,0-1.73.67-1.73,1.83,0,1.09.63,1.79,1.71,1.79.35,0,.71-.07.94-.18l.12.45Z"/>
      </g>
      <g>
        <circle class="cls-16" cx="36.88" cy="412.32" r="5.11"/>
        <path class="cls-18" d="M35.59,410.28c.25-.05.65-.09,1.05-.09.57,0,.94.1,1.22.32.23.17.37.44.37.79,0,.43-.28.8-.75.98h0c.42.12.92.47.92,1.13,0,.38-.15.67-.38.89-.31.28-.81.42-1.54.42-.4,0-.7-.03-.89-.05v-4.37ZM36.16,412.1h.52c.61,0,.96-.32.96-.75,0-.52-.4-.72-.98-.72-.26,0-.42.02-.51.04v1.43ZM36.16,414.23c.11.02.28.03.48.03.59,0,1.14-.22,1.14-.86,0-.61-.52-.86-1.15-.86h-.47v1.69Z"/>
      </g>
      <g>
        <circle class="cls-16" cx="119.36" cy="335.12" r="5.11"/>
        <path class="cls-18" d="M117.83,333.28c.31-.05.69-.08,1.1-.08.74,0,1.27.17,1.62.5.36.33.56.79.56,1.44s-.2,1.19-.58,1.56c-.37.37-.99.58-1.77.58-.37,0-.68-.02-.94-.05v-3.94ZM118.35,336.82c.13.02.32.03.52.03,1.1,0,1.7-.62,1.7-1.7,0-.94-.53-1.54-1.62-1.54-.27,0-.47.02-.61.05v3.16Z"/>
      </g>
    </g>
    <line class="cls-8" x1="56.96" y1="327" x2="72.13" y2="307.2"/>
    <g>
      <circle class="cls-16" cx="70.8" cy="306.74" r="5.11"/>
      <path class="cls-18" d="M72.02,307.04c-.02-.47-.05-1.04-.05-1.46h-.01c-.12.39-.26.82-.43,1.28l-.6,1.64h-.33l-.54-1.61c-.16-.47-.3-.91-.39-1.31h0c-.01.42-.04.99-.07,1.49l-.09,1.45h-.42l.24-3.37h.56l.58,1.63c.14.42.26.79.34,1.14h.01c.08-.34.21-.71.36-1.14l.6-1.63h.56l.21,3.37h-.42l-.09-1.48Z"/>
    </g>
    <line class="cls-6" x1="58.1" y1="328.35" x2="138.4" y2="328.35"/>
    <line class="cls-2" x1="124.67" y1="404.56" x2="140.25" y2="404.56"/>
    <line class="cls-6" x1="140.25" y1="404.56" x2="139.92" y2="328.35"/>
    <g>
      <circle class="cls-16" cx="140.01" cy="404.78" r="5.11"/>
      <path class="cls-18" d="M138.72,402.67h.57v2.14h.02c.12-.17.24-.33.35-.47l1.36-1.67h.71l-1.61,1.89,1.73,2.56h-.68l-1.46-2.18-.42.49v1.69h-.57v-4.44Z"/>
    </g>
    <g>
      <circle class="cls-16" cx="139.35" cy="327.57" r="5.11"/>
      <path class="cls-18" d="M138.4,325.68h.52v3.57h1.71v.43h-2.23v-4Z"/>
    </g>
    <g>
      <circle class="cls-16" cx="57.61" cy="327.86" r="5.11"/>
      <path class="cls-18" d="M57.87,325.94v4.04h-.52v-4.04h.52Z"/>
    </g>
  </g>
  <g>
    <rect class="cls-17" x="126.3" y="29.24" width="81.82" height="75.88"/>
    <polyline class="cls-17" points="124.98 29.24 124.98 29.24 125.97 105.45 111.16 126.99 112.11 49.36 126.3 29.24"/>
    <line class="cls-8" x1="208.45" y1="29.57" x2="125.97" y2="29.57"/>
    <line class="cls-8" x1="193.27" y1="49.36" x2="208.45" y2="29.57"/>
    <line class="cls-8" x1="195.91" y1="128.54" x2="209.11" y2="106.11"/>
    <line class="cls-8" x1="208.45" y1="29.57" x2="208.45" y2="106.11"/>
    <line class="cls-11" x1="125.97" y1="29.57" x2="125.97" y2="105.45"/>
    <line class="cls-8" x1="111.96" y1="49" x2="127.13" y2="29.2"/>
    <line class="cls-11" x1="208.45" y1="105.45" x2="124.65" y2="105.45"/>
    <polyline class="cls-11" points="125.97 105.45 112.77 125.9 125.97 105.45"/>
    <polygon class="cls-14" points="125.97 29.57 112.83 49.07 194.35 49.57 208.62 28.88 125.97 29.57"/>
    <polyline class="cls-14" points="111.87 126.78 125.97 105.45 208.45 106.11 195.25 126.56"/>
    <polygon class="cls-14" points="194.35 49.57 207.93 30.18 207.24 107.77 193.94 126.91 194.35 49.57"/>
    <g>
      <circle class="cls-16" cx="125.07" cy="105.66" r="5.11"/>
      <path class="cls-18" d="M123.8,107.44v-3.37h.47l1.08,1.71c.25.4.45.75.61,1.1h0c-.04-.46-.05-.87-.05-1.39v-1.41h.41v3.37h-.44l-1.07-1.71c-.24-.38-.46-.76-.63-1.13h-.01c.03.43.04.84.04,1.4v1.44h-.41Z"/>
    </g>
    <g>
      <circle class="cls-16" cx="125.8" cy="28.74" r="5.11"/>
      <path class="cls-18" d="M127.02,29.04c-.02-.47-.05-1.04-.05-1.46h-.01c-.12.39-.26.82-.43,1.28l-.6,1.64h-.33l-.54-1.61c-.16-.47-.3-.91-.39-1.31h0c-.01.42-.04.99-.07,1.49l-.09,1.45h-.42l.24-3.37h.56l.58,1.63c.14.42.26.79.34,1.14h.01c.08-.34.21-.71.36-1.14l.6-1.63h.56l.21,3.37h-.42l-.09-1.48Z"/>
    </g>
    <g>
      <circle class="cls-16" cx="208.21" cy="105.66" r="5.11"/>
      <path class="cls-18" d="M209.75,105.71c0,1.16-.71,1.78-1.57,1.78s-1.52-.69-1.52-1.71c0-1.07.67-1.77,1.57-1.77s1.52.71,1.52,1.71ZM207.13,105.77c0,.72.39,1.37,1.08,1.37s1.08-.64,1.08-1.4c0-.67-.35-1.37-1.08-1.37s-1.08.67-1.08,1.41Z"/>
    </g>
    <g>
      <circle class="cls-16" cx="207.55" cy="28.46" r="5.11"/>
      <path class="cls-18" d="M206.42,26.61c.25-.04.58-.08.99-.08.51,0,.88.12,1.12.33.22.19.35.48.35.84s-.11.65-.31.86c-.27.29-.72.44-1.22.44-.15,0-.3,0-.42-.04v1.6h-.52v-3.95ZM206.94,28.54c.11.03.25.04.43.04.62,0,1-.3,1-.85s-.37-.78-.94-.78c-.23,0-.4.02-.49.04v1.55Z"/>
    </g>
    <rect class="cls-14" x="113.1" y="50.35" width="81.82" height="75.88"/>
    <g>
      <line class="cls-2" x1="113.1" y1="50.35" x2="113.1" y2="53.35"/>
      <line class="cls-10" x1="113.1" y1="59.65" x2="113.1" y2="119.45"/>
      <polyline class="cls-2" points="113.1 122.6 113.1 125.6 116.1 125.68"/>
      <line class="cls-1" x1="120.29" y1="125.81" x2="126.58" y2="125.99"/>
      <line class="cls-2" x1="128.67" y1="126.05" x2="131.67" y2="126.13"/>
    </g>
    <g>
      <circle class="cls-16" cx="111.87" cy="126.78" r="5.11"/>
      <path class="cls-18" d="M112.06,124.67h.57v2.97c0,1.18-.58,1.54-1.34,1.54-.21,0-.47-.05-.61-.11l.09-.47c.12.05.29.09.48.09.51,0,.82-.23.82-1.1v-2.93Z"/>
    </g>
    <g>
      <rect class="cls-17" x="51.31" y="43.78" width="81.82" height="75.88"/>
      <polyline class="cls-17" points="49.99 43.78 49.99 43.78 50.98 119.99 36.16 141.53 37.12 63.91 51.31 43.78"/>
      <polygon class="cls-17" points="50.98 44.11 37.84 63.62 119.36 64.12 133.63 43.42 50.98 44.11"/>
      <line class="cls-8" x1="133.46" y1="44.11" x2="50.98" y2="44.11"/>
      <line class="cls-8" x1="118.28" y1="63.91" x2="133.46" y2="44.11"/>
      <line class="cls-8" x1="120.92" y1="143.09" x2="134.12" y2="120.65"/>
      <line class="cls-8" x1="133.46" y1="44.11" x2="133.46" y2="120.65"/>
      <line class="cls-11" x1="50.98" y1="44.11" x2="50.98" y2="119.99"/>
      <line class="cls-8" x1="36.96" y1="63.54" x2="52.14" y2="43.75"/>
      <line class="cls-11" x1="133.46" y1="119.99" x2="49.66" y2="119.99"/>
      <polyline class="cls-11" points="50.98 119.99 37.78 140.45 50.98 119.99"/>
      <polyline class="cls-17" points="36.88 141.32 50.98 119.99 133.46 120.65 120.26 141.11"/>
      <polygon class="cls-17" points="119.36 64.12 132.94 44.72 132.25 122.31 118.95 141.46 119.36 64.12"/>
      <g>
        <circle class="cls-16" cx="50.81" cy="43.29" r="5.11"/>
        <path class="cls-18" d="M51.99,43.54h-1.73v1.6h1.92v.48h-2.5v-4.44h2.4v.48h-1.83v1.4h1.73v.47Z"/>
      </g>
      <g>
        <circle class="cls-16" cx="133.21" cy="120.2" r="5.11"/>
        <path class="cls-18" d="M132.25,118.31v1.67h1.93v-1.67h.52v4h-.52v-1.88h-1.93v1.88h-.52v-4h.52Z"/>
      </g>
      <g>
        <circle class="cls-16" cx="50.07" cy="120.2" r="5.11"/>
        <path class="cls-18" d="M48.97,118.1h2.39v.48h-1.82v1.48h1.68v.47h-1.68v2.01h-.57v-4.44Z"/>
      </g>
      <g>
        <circle class="cls-16" cx="132.55" cy="43" r="5.11"/>
        <path class="cls-18" d="M134.13,44.93c-.23.08-.69.22-1.23.22-.61,0-1.1-.15-1.5-.53-.34-.33-.56-.87-.56-1.49,0-1.19.83-2.07,2.17-2.07.46,0,.83.1,1,.18l-.12.42c-.21-.09-.48-.17-.88-.17-.97,0-1.61.61-1.61,1.61s.61,1.61,1.54,1.61c.34,0,.57-.05.69-.11v-1.19h-.81v-.42h1.32v1.92Z"/>
      </g>
      <rect class="cls-17" x="38.11" y="64.9" width="81.82" height="75.88"/>
      <rect class="cls-8" x="37.12" y="63.91" width="83.14" height="77.2"/>
      <g>
        <circle class="cls-16" cx="37.61" cy="64.4" r="5.11"/>
        <path class="cls-18" d="M36.81,65.35l-.46,1.4h-.59l1.51-4.44h.69l1.52,4.44h-.61l-.47-1.4h-1.58ZM38.27,64.9l-.43-1.28c-.1-.29-.17-.55-.23-.81h-.01c-.07.26-.14.53-.22.8l-.44,1.29h1.34Z"/>
      </g>
      <g>
        <circle class="cls-16" cx="120.02" cy="141.32" r="5.11"/>
        <path class="cls-18" d="M121.71,143.52c-.21.11-.63.21-1.17.21-1.25,0-2.2-.79-2.2-2.25s.94-2.33,2.32-2.33c.55,0,.9.12,1.05.2l-.14.47c-.22-.11-.53-.18-.9-.18-1.04,0-1.73.67-1.73,1.83,0,1.09.63,1.79,1.71,1.79.35,0,.71-.07.94-.18l.12.45Z"/>
      </g>
      <g>
        <circle class="cls-16" cx="36.88" cy="141.32" r="5.11"/>
        <path class="cls-18" d="M35.59,139.28c.25-.05.65-.09,1.05-.09.57,0,.94.1,1.22.32.23.17.37.44.37.79,0,.43-.28.8-.75.98h0c.42.12.92.47.92,1.13,0,.38-.15.67-.38.89-.31.28-.81.42-1.54.42-.4,0-.7-.03-.89-.05v-4.37ZM36.16,141.1h.52c.61,0,.96-.32.96-.75,0-.52-.4-.72-.98-.72-.26,0-.42.02-.51.04v1.43ZM36.16,143.23c.11.02.28.03.48.03.59,0,1.14-.22,1.14-.86,0-.61-.52-.86-1.15-.86h-.47v1.69Z"/>
      </g>
      <g>
        <circle class="cls-16" cx="119.36" cy="64.12" r="5.11"/>
        <path class="cls-18" d="M117.83,62.28c.31-.05.69-.08,1.1-.08.74,0,1.27.17,1.62.5.36.33.56.79.56,1.44s-.2,1.19-.58,1.56c-.37.37-.99.58-1.77.58-.37,0-.68-.02-.94-.05v-3.94ZM118.35,65.82c.13.02.32.03.52.03,1.1,0,1.7-.62,1.7-1.7,0-.94-.53-1.54-1.62-1.54-.27,0-.47.02-.61.05v3.16Z"/>
      </g>
    </g>
    <line class="cls-6" x1="113.1" y1="50.35" x2="193.4" y2="50.35"/>
    <line class="cls-2" x1="131.67" y1="126.56" x2="195.25" y2="126.56"/>
    <line class="cls-6" x1="195.25" y1="126.56" x2="194.92" y2="50.35"/>
    <g>
      <circle class="cls-16" cx="195.01" cy="126.78" r="5.11"/>
      <path class="cls-18" d="M193.72,124.67h.57v2.14h.02c.12-.17.24-.33.35-.47l1.36-1.67h.71l-1.61,1.89,1.73,2.56h-.68l-1.46-2.18-.42.49v1.69h-.57v-4.44Z"/>
    </g>
    <g>
      <circle class="cls-16" cx="194.35" cy="49.57" r="5.11"/>
      <path class="cls-18" d="M193.4,47.68h.52v3.57h1.71v.43h-2.23v-4Z"/>
    </g>
    <g>
      <circle class="cls-16" cx="112.61" cy="49.86" r="5.11"/>
      <path class="cls-18" d="M112.87,47.94v4.04h-.52v-4.04h.52Z"/>
    </g>
  </g>
  <g>
    <line class="cls-11" x1="528.18" y1="160.63" x2="528.18" y2="236.51"/>
    <line class="cls-11" x1="610.67" y1="236.51" x2="526.86" y2="236.51"/>
    <g>
      <circle class="cls-16" cx="527.28" cy="236.73" r="5.11"/>
      <path class="cls-18" d="M526.02,238.5v-3.37h.47l1.08,1.71c.25.4.45.75.61,1.1h0c-.04-.46-.05-.87-.05-1.39v-1.41h.41v3.37h-.44l-1.07-1.71c-.24-.38-.46-.76-.63-1.13h-.01c.03.43.04.84.04,1.4v1.44h-.41Z"/>
    </g>
    <line class="cls-11" x1="487.19" y1="171.18" x2="487.19" y2="247.06"/>
    <line class="cls-11" x1="523.17" y1="246.63" x2="485.87" y2="247.06"/>
    <polyline class="cls-11" points="487.19 247.06 473.99 267.51 487.19 247.06"/>
    <g>
      <circle class="cls-16" cx="522.43" cy="246.27" r="5.11"/>
      <path class="cls-18" d="M521.46,244.38v1.67h1.93v-1.67h.52v4h-.52v-1.88h-1.93v1.88h-.52v-4h.52Z"/>
    </g>
    <g>
      <circle class="cls-16" cx="486.29" cy="247.27" r="5.11"/>
      <path class="cls-18" d="M485.18,245.17h2.39v.48h-1.82v1.48h1.68v.47h-1.68v2.01h-.57v-4.44Z"/>
    </g>
    <polyline class="cls-17" points="474.05 190.68 488.35 170.81 519.61 171.18 528.18 160.63 610.67 160.63 611.33 237.17 597.47 257.63 564.17 257.63 557.33 268.39 474.61 269.46"/>
    <polyline class="cls-17" points="473.84 190.32 488.15 170.45 519.4 170.82 527.98 160.27 610.46 160.27 611.12 236.81 597.26 257.27 563.97 257.27 557.12 268.03 474.4 269.1"/>
    <line class="cls-8" x1="610.67" y1="160.63" x2="528.18" y2="160.63"/>
    <line class="cls-8" x1="595.49" y1="180.43" x2="610.67" y2="160.63"/>
    <line class="cls-8" x1="598.13" y1="259.61" x2="611.33" y2="237.17"/>
    <line class="cls-8" x1="610.67" y1="160.63" x2="610.67" y2="237.17"/>
    <line class="cls-8" x1="521.17" y1="170.63" x2="487.19" y2="171.18"/>
    <line class="cls-8" x1="554.5" y1="190.97" x2="561.17" y2="179.63"/>
    <line class="cls-8" x1="557.13" y1="270.15" x2="564.17" y2="257.63"/>
    <line class="cls-8" x1="473.18" y1="190.61" x2="488.35" y2="170.81"/>
    <line class="cls-2" x1="564.5" y1="257.63" x2="597.47" y2="257.63"/>
    <g>
      <circle class="cls-16" cx="610.42" cy="236.73" r="5.11"/>
      <path class="cls-18" d="M611.96,236.78c0,1.16-.71,1.78-1.57,1.78s-1.52-.69-1.52-1.71c0-1.07.67-1.77,1.57-1.77s1.52.71,1.52,1.71ZM609.35,236.84c0,.72.39,1.37,1.08,1.37s1.08-.64,1.08-1.4c0-.67-.35-1.37-1.08-1.37s-1.08.67-1.08,1.41Z"/>
    </g>
    <g>
      <circle class="cls-16" cx="609.76" cy="159.52" r="5.11"/>
      <path class="cls-18" d="M608.63,157.68c.25-.04.58-.08.99-.08.51,0,.88.12,1.12.33.22.19.35.48.35.84s-.11.65-.31.86c-.27.29-.72.44-1.22.44-.15,0-.3,0-.42-.04v1.6h-.52v-3.95ZM609.15,159.61c.11.03.25.04.43.04.62,0,1-.3,1-.85s-.37-.78-.94-.78c-.23,0-.4.02-.49.04v1.55Z"/>
    </g>
    <g>
      <circle class="cls-16" cx="487.03" cy="170.35" r="5.11"/>
      <path class="cls-18" d="M488.2,170.61h-1.73v1.6h1.92v.48h-2.5v-4.44h2.4v.48h-1.83v1.4h1.73v.47Z"/>
    </g>
    <g>
      <circle class="cls-16" cx="564.08" cy="257.84" r="5.11"/>
      <path class="cls-18" d="M564.27,255.74h.57v2.97c0,1.18-.58,1.54-1.34,1.54-.21,0-.47-.05-.61-.11l.09-.47c.12.05.29.09.48.09.51,0,.82-.23.82-1.1v-2.93Z"/>
    </g>
    <rect class="cls-8" x="473.33" y="190.97" width="83.14" height="77.2"/>
    <g>
      <circle class="cls-16" cx="473.83" cy="191.47" r="5.11"/>
      <path class="cls-18" d="M473.03,192.41l-.46,1.4h-.59l1.51-4.44h.69l1.52,4.44h-.61l-.47-1.4h-1.58ZM474.48,191.96l-.43-1.28c-.1-.29-.17-.55-.23-.81h-.01c-.07.26-.14.53-.22.8l-.44,1.29h1.34Z"/>
    </g>
    <g>
      <circle class="cls-16" cx="556.23" cy="268.39" r="5.11"/>
      <path class="cls-18" d="M557.92,270.58c-.21.11-.63.21-1.17.21-1.25,0-2.2-.79-2.2-2.25s.94-2.33,2.32-2.33c.55,0,.9.12,1.05.2l-.14.47c-.22-.11-.53-.18-.9-.18-1.04,0-1.73.67-1.73,1.83,0,1.09.63,1.79,1.71,1.79.35,0,.71-.07.94-.18l.12.45Z"/>
    </g>
    <g>
      <circle class="cls-16" cx="473.09" cy="268.39" r="5.11"/>
      <path class="cls-18" d="M471.8,266.34c.25-.05.65-.09,1.05-.09.57,0,.94.1,1.22.32.23.17.37.44.37.79,0,.43-.28.8-.75.98h0c.42.12.92.47.92,1.13,0,.38-.15.67-.38.89-.31.28-.81.42-1.54.42-.4,0-.7-.03-.89-.05v-4.37ZM472.38,268.16h.52c.61,0,.96-.32.96-.75,0-.52-.4-.72-.98-.72-.26,0-.42.02-.51.04v1.43ZM472.38,270.29c.11.02.28.03.48.03.59,0,1.14-.22,1.14-.86,0-.61-.52-.86-1.15-.86h-.47v1.69Z"/>
    </g>
    <g>
      <circle class="cls-16" cx="555.57" cy="191.18" r="5.11"/>
      <path class="cls-18" d="M554.05,189.34c.31-.05.69-.08,1.1-.08.74,0,1.27.17,1.62.5.36.33.56.79.56,1.44s-.2,1.19-.58,1.56c-.37.37-.99.58-1.77.58-.37,0-.68-.02-.94-.05v-3.94ZM554.56,192.88c.13.02.32.03.52.03,1.1,0,1.7-.62,1.7-1.7,0-.94-.53-1.54-1.62-1.54-.27,0-.47.02-.61.05v3.16Z"/>
    </g>
    <line class="cls-8" x1="521.17" y1="170.63" x2="529.35" y2="160.27"/>
    <g>
      <circle class="cls-16" cx="520.77" cy="171.07" r="5.11"/>
      <path class="cls-18" d="M522.35,173c-.23.08-.69.22-1.23.22-.61,0-1.1-.15-1.5-.53-.34-.33-.56-.87-.56-1.49,0-1.19.83-2.07,2.17-2.07.46,0,.83.1,1,.18l-.12.42c-.21-.09-.48-.17-.88-.17-.97,0-1.61.61-1.61,1.61s.61,1.61,1.54,1.61c.34,0,.57-.05.69-.11v-1.19h-.81v-.42h1.32v1.92Z"/>
    </g>
    <g>
      <circle class="cls-16" cx="528.02" cy="159.81" r="5.11"/>
      <path class="cls-18" d="M529.23,160.1c-.02-.47-.05-1.04-.05-1.46h-.01c-.12.39-.26.82-.43,1.28l-.6,1.64h-.33l-.54-1.61c-.16-.47-.3-.91-.39-1.31h0c-.01.42-.04.99-.07,1.49l-.09,1.45h-.42l.24-3.37h.56l.58,1.63c.14.42.26.79.34,1.14h.01c.08-.34.21-.71.36-1.14l.6-1.63h.56l.21,3.37h-.42l-.09-1.48Z"/>
    </g>
    <line class="cls-6" x1="561.67" y1="181.42" x2="595.62" y2="181.42"/>
    <line class="cls-6" x1="597.47" y1="257.63" x2="597.14" y2="181.42"/>
    <g>
      <circle class="cls-16" cx="597.23" cy="257.84" r="5.11"/>
      <path class="cls-18" d="M595.94,255.74h.57v2.14h.02c.12-.17.24-.33.35-.47l1.36-1.67h.71l-1.61,1.89,1.73,2.56h-.68l-1.46-2.18-.42.49v1.69h-.57v-4.44Z"/>
    </g>
    <g>
      <circle class="cls-16" cx="596.57" cy="180.64" r="5.11"/>
      <path class="cls-18" d="M595.62,178.75h.52v3.57h1.71v.43h-2.23v-4Z"/>
    </g>
    <g>
      <circle class="cls-16" cx="560.82" cy="179.92" r="5.11"/>
      <path class="cls-18" d="M561.08,178.01v4.04h-.52v-4.04h.52Z"/>
    </g>
  </g>
  <g>
    <rect class="cls-17" x="564.17" y="20.37" width="81.82" height="75.88"/>
    <polyline class="cls-13" points="553.8 37.07 570.81 35.86 571 110.8 553.8 111.13"/>
    <path class="cls-17" d="M564.67,22.13c2.97.7,2.45,11.3,3,29,.47,15.26,1.47,27.55,2.22,35.37-4.08,5.87-8.17,11.74-12.25,17.61-.99-22.66-1.98-45.32-2.96-67.98,5.73-12.33,8.52-14.35,10-14Z"/>
    <line class="cls-8" x1="646.32" y1="20.7" x2="563.84" y2="20.7"/>
    <line class="cls-8" x1="631.14" y1="40.5" x2="646.32" y2="20.7"/>
    <line class="cls-8" x1="633.78" y1="119.68" x2="646.98" y2="97.25"/>
    <line class="cls-8" x1="646.32" y1="20.7" x2="646.32" y2="97.25"/>
    <line class="cls-11" x1="563.84" y1="20.7" x2="563.84" y2="96.59"/>
    <line class="cls-8" x1="553.17" y1="35.63" x2="565" y2="20.34"/>
    <line class="cls-11" x1="646.32" y1="96.59" x2="562.52" y2="96.59"/>
    <polyline class="cls-11" points="563.84 96.59 553.67 112.13 563.84 96.59"/>
    <path class="cls-17" d="M564.54,96.84c-7.99,7.81-9.31,11.22-8.41,12.74,2.05,3.46,16.5-1.52,17.27.68.53,1.52-6.18,4.58-5.56,6.59.47,1.51,4.77,1.42,5.56,1.41,8.24-.17,30.04-.5,59.54-1,4.76-7.04,9.52-14.08,14.28-21.12l-82.68.7Z"/>
    <path class="cls-14" d="M563.82,20.72c-7.99,7.81-9.31,11.22-8.41,12.74,2.05,3.46,16.5-1.52,17.27.68.53,1.52-6.18,4.58-5.56,6.59.47,1.51,4.77,1.42,5.56,1.41,8.24-.17,30.04-.5,59.54-1,4.76-7.04,9.52-14.08,14.28-21.12l-82.68.7Z"/>
    <polygon class="cls-14" points="632.22 40.71 645.8 21.32 645.11 98.91 631.81 118.05 632.22 40.71"/>
    <g>
      <circle class="cls-16" cx="562.94" cy="96.8" r="5.11"/>
      <path class="cls-18" d="M561.67,98.57v-3.37h.47l1.08,1.71c.25.4.45.75.61,1.1h0c-.04-.46-.05-.87-.05-1.39v-1.41h.41v3.37h-.44l-1.07-1.71c-.24-.38-.46-.76-.63-1.13h-.01c.03.43.04.84.04,1.4v1.44h-.41Z"/>
    </g>
    <g>
      <circle class="cls-16" cx="563.67" cy="19.88" r="5.11"/>
      <path class="cls-18" d="M564.89,20.17c-.02-.47-.05-1.04-.05-1.46h-.01c-.12.39-.26.82-.43,1.28l-.6,1.64h-.33l-.54-1.61c-.16-.47-.3-.91-.39-1.31h0c-.01.42-.04.99-.07,1.49l-.09,1.45h-.42l.24-3.37h.56l.58,1.63c.14.42.26.79.34,1.14h.01c.08-.34.21-.71.36-1.14l.6-1.63h.56l.21,3.37h-.42l-.09-1.48Z"/>
    </g>
    <g>
      <circle class="cls-16" cx="646.08" cy="96.8" r="5.11"/>
      <path class="cls-18" d="M647.62,96.85c0,1.16-.71,1.78-1.57,1.78s-1.52-.69-1.52-1.71c0-1.07.67-1.77,1.57-1.77s1.52.71,1.52,1.71ZM645,96.91c0,.72.39,1.37,1.08,1.37s1.08-.64,1.08-1.4c0-.67-.35-1.37-1.08-1.37s-1.08.67-1.08,1.41Z"/>
    </g>
    <g>
      <circle class="cls-16" cx="645.42" cy="19.6" r="5.11"/>
      <path class="cls-18" d="M644.29,17.75c.25-.04.58-.08.99-.08.51,0,.88.12,1.12.33.22.19.35.48.35.84s-.11.65-.31.86c-.27.29-.72.44-1.22.44-.15,0-.3,0-.42-.04v1.6h-.52v-3.95ZM644.81,19.68c.11.03.25.04.43.04.62,0,1-.3,1-.85s-.37-.78-.94-.78c-.23,0-.4.02-.49.04v1.55Z"/>
    </g>
    <rect class="cls-14" x="565.67" y="41.49" width="67.12" height="75.88"/>
    <line class="cls-5" x1="553.8" y1="111.13" x2="553.8" y2="37.07"/>
    <g>
      <rect class="cls-17" x="489.18" y="34.92" width="81.82" height="75.88"/>
      <polyline class="cls-17" points="487.86 34.92 487.86 34.92 488.85 111.13 474.03 132.67 474.99 55.04 489.18 34.92"/>
      <polygon class="cls-17" points="488.85 35.25 475.71 54.76 557.23 55.26 571.5 34.56 488.85 35.25"/>
      <line class="cls-8" x1="571.33" y1="35.25" x2="488.85" y2="35.25"/>
      <line class="cls-8" x1="556.15" y1="55.04" x2="571.33" y2="35.25"/>
      <line class="cls-8" x1="558.79" y1="134.23" x2="571.99" y2="111.79"/>
      <line class="cls-8" x1="571.33" y1="35.25" x2="571.33" y2="111.79"/>
      <line class="cls-11" x1="488.85" y1="35.25" x2="488.85" y2="111.13"/>
      <line class="cls-8" x1="474.83" y1="54.68" x2="490.01" y2="34.88"/>
      <line class="cls-11" x1="571.33" y1="111.13" x2="487.53" y2="111.13"/>
      <polyline class="cls-11" points="488.85 111.13 475.65 131.59 488.85 111.13"/>
      <polyline class="cls-17" points="474.75 132.46 488.85 111.13 571.33 111.79 558.13 132.25"/>
      <polygon class="cls-17" points="557.23 55.26 570.81 35.86 570.12 113.45 556.82 132.6 557.23 55.26"/>
      <g>
        <circle class="cls-16" cx="553.8" cy="110.89" r="5.11"/>
        <path class="cls-18" d="M552.65,109.03c.26-.05.64-.08,1-.08.56,0,.92.1,1.17.33.2.18.32.46.32.77,0,.53-.34.89-.76,1.03v.02c.31.11.5.4.59.82.13.56.23.95.31,1.11h-.54c-.07-.11-.16-.46-.27-.97-.12-.56-.33-.77-.81-.79h-.49v1.75h-.52v-3.99ZM553.17,110.88h.53c.56,0,.91-.31.91-.77,0-.52-.38-.75-.93-.76-.25,0-.43.02-.52.05v1.48Z"/>
      </g>
      <g>
        <circle class="cls-16" cx="488.68" cy="34.42" r="5.11"/>
        <path class="cls-18" d="M489.86,34.68h-1.73v1.6h1.92v.48h-2.5v-4.44h2.4v.48h-1.83v1.4h1.73v.47Z"/>
      </g>
      <g>
        <circle class="cls-16" cx="571.08" cy="111.34" r="5.11"/>
        <path class="cls-18" d="M570.12,109.45v1.67h1.93v-1.67h.52v4h-.52v-1.88h-1.93v1.88h-.52v-4h.52Z"/>
      </g>
      <g>
        <circle class="cls-16" cx="487.94" cy="111.34" r="5.11"/>
        <path class="cls-18" d="M486.84,109.24h2.39v.48h-1.82v1.48h1.68v.47h-1.68v2.01h-.57v-4.44Z"/>
      </g>
      <g>
        <circle class="cls-16" cx="570.42" cy="34.14" r="5.11"/>
        <path class="cls-18" d="M572,36.07c-.23.08-.69.22-1.23.22-.61,0-1.1-.15-1.5-.53-.34-.33-.56-.87-.56-1.49,0-1.19.83-2.07,2.17-2.07.46,0,.83.1,1,.18l-.12.42c-.21-.09-.48-.17-.88-.17-.97,0-1.61.61-1.61,1.61s.61,1.61,1.54,1.61c.34,0,.57-.05.69-.11v-1.19h-.81v-.42h1.32v1.92Z"/>
      </g>
      <rect class="cls-17" x="475.98" y="56.03" width="81.82" height="75.88"/>
      <rect class="cls-8" x="474.99" y="55.04" width="83.14" height="77.2"/>
      <g>
        <circle class="cls-16" cx="475.48" cy="55.54" r="5.11"/>
        <path class="cls-18" d="M474.68,56.48l-.46,1.4h-.59l1.51-4.44h.69l1.52,4.44h-.61l-.47-1.4h-1.58ZM476.14,56.04l-.43-1.28c-.1-.29-.17-.55-.23-.81h-.01c-.07.26-.14.53-.22.8l-.44,1.29h1.34Z"/>
      </g>
      <g>
        <circle class="cls-16" cx="557.89" cy="132.46" r="5.11"/>
        <path class="cls-18" d="M559.58,134.65c-.21.11-.63.21-1.17.21-1.25,0-2.2-.79-2.2-2.25s.94-2.33,2.32-2.33c.55,0,.9.12,1.05.2l-.14.47c-.22-.11-.53-.18-.9-.18-1.04,0-1.73.67-1.73,1.83,0,1.09.63,1.79,1.71,1.79.35,0,.71-.07.94-.18l.12.45Z"/>
      </g>
      <g>
        <circle class="cls-16" cx="474.75" cy="132.46" r="5.11"/>
        <path class="cls-18" d="M473.46,130.42c.25-.05.65-.09,1.05-.09.57,0,.94.1,1.22.32.23.17.37.44.37.79,0,.43-.28.8-.75.98h0c.42.12.92.47.92,1.13,0,.38-.15.67-.38.89-.31.28-.81.42-1.54.42-.4,0-.7-.03-.89-.05v-4.37ZM474.03,132.24h.52c.61,0,.96-.32.96-.75,0-.52-.4-.72-.98-.72-.26,0-.42.02-.51.04v1.43ZM474.03,134.37c.11.02.28.03.48.03.59,0,1.14-.22,1.14-.86,0-.61-.52-.86-1.15-.86h-.47v1.69Z"/>
      </g>
      <g>
        <circle class="cls-16" cx="557.23" cy="55.26" r="5.11"/>
        <path class="cls-18" d="M555.7,53.42c.31-.05.69-.08,1.1-.08.74,0,1.27.17,1.62.5.36.33.56.79.56,1.44s-.2,1.19-.58,1.56c-.37.37-.99.58-1.77.58-.37,0-.68-.02-.94-.05v-3.94ZM556.22,56.95c.13.02.32.03.52.03,1.1,0,1.7-.62,1.7-1.7,0-.94-.53-1.54-1.62-1.54-.27,0-.47.02-.61.05v3.16Z"/>
      </g>
    </g>
    <line class="cls-6" x1="569.67" y1="41.49" x2="631.27" y2="41.49"/>
    <line class="cls-2" x1="569.54" y1="117.7" x2="633.12" y2="117.7"/>
    <line class="cls-6" x1="633.12" y1="117.7" x2="632.79" y2="41.49"/>
    <line class="cls-6" x1="564.48" y1="41.49" x2="565.67" y2="117.37"/>
    <g>
      <circle class="cls-16" cx="565.74" cy="117.91" r="5.11"/>
      <path class="cls-18" d="M565.93,115.81h.57v2.97c0,1.18-.58,1.54-1.34,1.54-.21,0-.47-.05-.61-.11l.09-.47c.12.05.29.09.48.09.51,0,.82-.23.82-1.1v-2.93Z"/>
    </g>
    <g>
      <circle class="cls-16" cx="632.88" cy="117.91" r="5.11"/>
      <path class="cls-18" d="M631.59,115.81h.57v2.14h.02c.12-.17.24-.33.35-.47l1.36-1.67h.71l-1.61,1.89,1.73,2.56h-.68l-1.46-2.18-.42.49v1.69h-.57v-4.44Z"/>
    </g>
    <g>
      <circle class="cls-16" cx="632.22" cy="40.71" r="5.11"/>
      <path class="cls-18" d="M631.27,38.82h.52v3.57h1.71v.43h-2.23v-4Z"/>
    </g>
    <g>
      <circle class="cls-16" cx="564.48" cy="40.99" r="5.11"/>
      <path class="cls-18" d="M564.74,39.08v4.04h-.52v-4.04h.52Z"/>
    </g>
    <g>
      <circle class="cls-16" cx="553.8" cy="35.89" r="5.11"/>
      <path class="cls-18" d="M554.95,37.71c-.36-.1-.72-.2-1.03-.31-.06-.02-.11-.04-.16-.04-.64-.02-1.19-.5-1.19-1.36s.53-1.42,1.26-1.42,1.21.57,1.21,1.36c0,.69-.32,1.13-.77,1.29v.02c.27.07.56.13.79.17l-.1.29ZM554.67,35.95c0-.54-.28-1.1-.85-1.1s-.88.54-.87,1.13c0,.57.31,1.09.86,1.09s.87-.5.87-1.12Z"/>
    </g>
  </g>
  <g>
    <line class="cls-11" x1="508.2" y1="296.63" x2="508.2" y2="372.51"/>
    <line class="cls-11" x1="590.17" y1="376.63" x2="508.17" y2="376.63"/>
    <g>
      <circle class="cls-16" cx="507.3" cy="374.72" r="5.11"/>
      <path class="cls-18" d="M506.04,376.5v-3.37h.47l1.08,1.71c.25.4.45.75.61,1.1h0c-.04-.46-.05-.87-.05-1.39v-1.41h.41v3.37h-.44l-1.07-1.71c-.24-.38-.46-.76-.63-1.13h-.01c.03.43.04.84.04,1.4v1.44h-.41Z"/>
    </g>
    <line class="cls-11" x1="488.21" y1="307.17" x2="488.21" y2="383.06"/>
    <line class="cls-11" x1="500.17" y1="382.63" x2="486.89" y2="383.06"/>
    <polyline class="cls-11" points="488.21 383.06 475.01 403.51 488.21 383.06"/>
    <g>
      <circle class="cls-16" cx="502.45" cy="383.27" r="5.11"/>
      <path class="cls-18" d="M501.48,381.38v1.67h1.93v-1.67h.52v4h-.52v-1.88h-1.93v1.88h-.52v-4h.52Z"/>
    </g>
    <g>
      <circle class="cls-16" cx="487.31" cy="383.27" r="5.11"/>
      <path class="cls-18" d="M486.2,381.17h2.39v.48h-1.82v1.48h1.68v.47h-1.68v2.01h-.57v-4.44Z"/>
    </g>
    <polyline class="cls-17" points="475.5 327.96 488.21 307.17 502.17 307.63 509.84 297.52 589.58 298.06 590.44 376.2 579.46 396.63 564.29 396.67 557.49 404.17 474.35 404.17"/>
    <polyline class="cls-17" points="475.16 327.99 487.87 307.21 501.83 307.67 509.5 297.55 589.24 298.09 590.1 376.23 579.12 396.66 563.95 396.7 557.15 404.2 474.01 404.2"/>
    <line class="cls-8" x1="592.17" y1="296.63" x2="508.17" y2="296.63"/>
    <line class="cls-8" x1="575.51" y1="318.43" x2="590.68" y2="298.63"/>
    <line class="cls-8" x1="577.15" y1="399.61" x2="590.34" y2="377.17"/>
    <line class="cls-8" x1="590.68" y1="297.63" x2="590.68" y2="374.17"/>
    <line class="cls-8" x1="502.17" y1="307.63" x2="488.21" y2="307.17"/>
    <line class="cls-8" x1="555.51" y1="326.97" x2="562.19" y2="315.63"/>
    <line class="cls-8" x1="558.15" y1="406.15" x2="565.19" y2="393.63"/>
    <line class="cls-8" x1="474.2" y1="326.6" x2="489.37" y2="306.81"/>
    <line class="cls-2" x1="563.52" y1="396.63" x2="577.67" y2="396.63"/>
    <g>
      <circle class="cls-16" cx="590.44" cy="374.72" r="5.11"/>
      <path class="cls-18" d="M591.98,374.78c0,1.16-.71,1.78-1.57,1.78s-1.52-.69-1.52-1.71c0-1.07.67-1.77,1.57-1.77s1.52.71,1.52,1.71ZM589.36,374.83c0,.72.39,1.37,1.08,1.37s1.08-.64,1.08-1.4c0-.67-.35-1.37-1.08-1.37s-1.08.67-1.08,1.41Z"/>
    </g>
    <g>
      <circle class="cls-16" cx="589.78" cy="297.52" r="5.11"/>
      <path class="cls-18" d="M588.65,295.68c.25-.04.58-.08.99-.08.51,0,.88.12,1.12.33.22.19.35.48.35.84s-.11.65-.31.86c-.27.29-.72.44-1.22.44-.15,0-.3,0-.42-.04v1.6h-.52v-3.95ZM589.17,297.61c.11.03.25.04.43.04.62,0,1-.3,1-.85s-.37-.78-.94-.78c-.23,0-.4.02-.49.04v1.55Z"/>
    </g>
    <g>
      <circle class="cls-16" cx="488.04" cy="306.35" r="5.11"/>
      <path class="cls-18" d="M489.22,306.61h-1.73v1.6h1.92v.48h-2.5v-4.44h2.4v.48h-1.83v1.4h1.73v.47Z"/>
    </g>
    <g>
      <circle class="cls-16" cx="564.1" cy="395.84" r="5.11"/>
      <path class="cls-18" d="M564.29,393.74h.57v2.97c0,1.18-.58,1.54-1.34,1.54-.21,0-.47-.05-.61-.11l.09-.47c.12.05.29.09.48.09.51,0,.82-.23.82-1.1v-2.93Z"/>
    </g>
    <rect class="cls-8" x="474.35" y="326.97" width="83.14" height="77.2"/>
    <g>
      <circle class="cls-16" cx="474.85" cy="327.46" r="5.11"/>
      <path class="cls-18" d="M474.05,328.41l-.46,1.4h-.59l1.51-4.44h.69l1.52,4.44h-.61l-.47-1.4h-1.58ZM475.5,327.96l-.43-1.28c-.1-.29-.17-.55-.23-.81h-.01c-.07.26-.14.53-.22.8l-.44,1.29h1.34Z"/>
    </g>
    <g>
      <circle class="cls-16" cx="557.25" cy="404.38" r="5.11"/>
      <path class="cls-18" d="M558.94,406.58c-.21.11-.63.21-1.17.21-1.25,0-2.2-.79-2.2-2.25s.94-2.33,2.32-2.33c.55,0,.9.12,1.05.2l-.14.47c-.22-.11-.53-.18-.9-.18-1.04,0-1.73.67-1.73,1.83,0,1.09.63,1.79,1.71,1.79.35,0,.71-.07.94-.18l.12.45Z"/>
    </g>
    <g>
      <circle class="cls-16" cx="474.11" cy="404.38" r="5.11"/>
      <path class="cls-18" d="M472.82,402.34c.25-.05.65-.09,1.05-.09.57,0,.94.1,1.22.32.23.17.37.44.37.79,0,.43-.28.8-.75.98h0c.42.12.92.47.92,1.13,0,.38-.15.67-.38.89-.31.28-.81.42-1.54.42-.4,0-.7-.03-.89-.05v-4.37ZM473.4,404.16h.52c.61,0,.96-.32.96-.75,0-.52-.4-.72-.98-.72-.26,0-.42.02-.51.04v1.43ZM473.4,406.29c.11.02.28.03.48.03.59,0,1.14-.22,1.14-.86,0-.61-.52-.86-1.15-.86h-.47v1.69Z"/>
    </g>
    <g>
      <circle class="cls-16" cx="556.59" cy="327.18" r="5.11"/>
      <path class="cls-18" d="M555.06,325.34c.31-.05.69-.08,1.1-.08.74,0,1.27.17,1.62.5.36.33.56.79.56,1.44s-.2,1.19-.58,1.56c-.37.37-.99.58-1.77.58-.37,0-.68-.02-.94-.05v-3.94ZM555.58,328.88c.13.02.32.03.52.03,1.1,0,1.7-.62,1.7-1.7,0-.94-.53-1.54-1.62-1.54-.27,0-.47.02-.61.05v3.16Z"/>
    </g>
    <line class="cls-8" x1="501.19" y1="308.63" x2="509.37" y2="298.26"/>
    <g>
      <circle class="cls-16" cx="501.79" cy="307.07" r="5.11"/>
      <path class="cls-18" d="M503.37,309c-.23.08-.69.22-1.23.22-.61,0-1.1-.15-1.5-.53-.34-.33-.56-.87-.56-1.49,0-1.19.83-2.07,2.17-2.07.46,0,.83.1,1,.18l-.12.42c-.21-.09-.48-.17-.88-.17-.97,0-1.61.61-1.61,1.61s.61,1.61,1.54,1.61c.34,0,.57-.05.69-.11v-1.19h-.81v-.42h1.32v1.92Z"/>
    </g>
    <g>
      <circle class="cls-16" cx="507.04" cy="297.8" r="5.11"/>
      <path class="cls-18" d="M508.25,298.1c-.02-.47-.05-1.04-.05-1.46h-.01c-.12.39-.26.82-.43,1.28l-.6,1.64h-.33l-.54-1.61c-.16-.47-.3-.91-.39-1.31h0c-.01.42-.04.99-.07,1.49l-.09,1.45h-.42l.24-3.37h.56l.58,1.63c.14.42.26.79.34,1.14h.01c.08-.34.21-.71.36-1.14l.6-1.63h.56l.21,3.37h-.42l-.09-1.48Z"/>
    </g>
    <line class="cls-6" x1="562.69" y1="317.41" x2="576.67" y2="317.41"/>
    <line class="cls-6" x1="578.49" y1="397.63" x2="578.16" y2="321.41"/>
    <g>
      <circle class="cls-16" cx="578.24" cy="395.84" r="5.11"/>
      <path class="cls-18" d="M576.96,393.74h.57v2.14h.02c.12-.17.24-.33.35-.47l1.36-1.67h.71l-1.61,1.89,1.73,2.56h-.68l-1.46-2.18-.42.49v1.69h-.57v-4.44Z"/>
    </g>
    <g>
      <circle class="cls-16" cx="576.58" cy="318.64" r="5.11"/>
      <path class="cls-18" d="M575.63,316.74h.52v3.57h1.71v.43h-2.23v-4Z"/>
    </g>
    <g>
      <circle class="cls-16" cx="561.84" cy="315.92" r="5.11"/>
      <path class="cls-18" d="M562.1,314.01v4.04h-.52v-4.04h.52Z"/>
    </g>
  </g>
</svg>