<?xml version="1.0" encoding="UTF-8"?>
<svg id="Polygon" xmlns="http://www.w3.org/2000/svg" viewBox="0 0 538.58 348.6">
  <defs>
    <style>
      .cls-1 {
        stroke-width: 5.67px;
      }

      .cls-1, .cls-2, .cls-3, .cls-4 {
        fill: none;
      }

      .cls-1, .cls-2, .cls-4 {
        stroke-miterlimit: 10;
      }

      .cls-1, .cls-4 {
        stroke: #437898;
      }

      .cls-5 {
        fill: #231f20;
      }

      .cls-6 {
        fill: #6dbae7;
        opacity: .31;
      }

      .cls-7 {
        fill: #fff;
      }

      .cls-2 {
        stroke: #9b9a9a;
      }

      .cls-2, .cls-4 {
        stroke-width: 2.83px;
      }

      .cls-8 {
        fill: #9b9a9a;
      }
    </style>
  </defs>
  <g>
    <rect class="cls-6" x="31.25" y="25.57" width="145" height="115"/>
    <rect class="cls-7" x="57.25" y="58.57" width="90" height="38"/>
    <rect class="cls-4" x="29.75" y="24.07" width="146" height="117"/>
    <g>
      <circle class="cls-5" cx="30.5" cy="24.82" r="7.75"/>
      <path class="cls-7" d="M29.29,26.25l-.7,2.12h-.9l2.29-6.74h1.05l2.3,6.74h-.93l-.72-2.12h-2.39ZM31.5,25.57l-.66-1.94c-.15-.44-.25-.84-.35-1.23h-.02c-.1.4-.21.81-.34,1.22l-.66,1.95h2.03Z"/>
    </g>
    <g>
      <circle class="cls-5" cx="175.38" cy="141.39" r="7.75"/>
      <path class="cls-7" d="M177.95,144.72c-.32.16-.96.32-1.78.32-1.9,0-3.33-1.2-3.33-3.41s1.43-3.54,3.52-3.54c.84,0,1.37.18,1.6.3l-.21.71c-.33-.16-.8-.28-1.36-.28-1.58,0-2.63,1.01-2.63,2.78,0,1.65.95,2.71,2.59,2.71.53,0,1.07-.11,1.42-.28l.18.69Z"/>
    </g>
    <g>
      <circle class="cls-5" cx="29.38" cy="141.39" r="7.75"/>
      <path class="cls-7" d="M27.43,138.29c.38-.08.98-.14,1.59-.14.87,0,1.43.15,1.85.49.35.26.56.66.56,1.19,0,.65-.43,1.22-1.14,1.48v.02c.64.16,1.39.69,1.39,1.69,0,.58-.23,1.02-.57,1.35-.47.43-1.23.63-2.33.63-.6,0-1.06-.04-1.35-.08v-6.63ZM28.3,141.05h.79c.92,0,1.46-.48,1.46-1.13,0-.79-.6-1.1-1.48-1.1-.4,0-.63.03-.77.06v2.17ZM28.3,144.28c.17.03.42.04.73.04.9,0,1.73-.33,1.73-1.31,0-.92-.79-1.3-1.74-1.3h-.72v2.57Z"/>
    </g>
    <g>
      <circle class="cls-5" cx="175.38" cy="24.39" r="7.75"/>
      <path class="cls-7" d="M173.07,21.6c.48-.07,1.04-.13,1.67-.13,1.12,0,1.93.26,2.46.76.54.5.85,1.2.85,2.18s-.31,1.8-.87,2.36c-.57.57-1.5.87-2.68.87-.56,0-1.03-.03-1.42-.07v-5.97ZM173.85,26.96c.2.04.49.04.79.04,1.67,0,2.58-.94,2.58-2.57,0-1.43-.8-2.34-2.46-2.34-.41,0-.71.04-.92.08v4.79Z"/>
    </g>
    <g>
      <rect class="cls-3" x="2.25" y="157.05" width="189" height="23.48"/>
      <path class="cls-5" d="M16.56,169.37v-11.95h2.74v.83h-1.72v10.3h1.72v.83h-2.74Z"/>
      <path class="cls-5" d="M20.82,169.37v-11.95h2.74v.83h-1.72v10.3h1.72v.83h-2.74Z"/>
      <path class="cls-5" d="M26.46,164.52l-1.05,3.18h-1.35l3.44-10.11h1.57l3.45,10.11h-1.4l-1.08-3.18h-3.58ZM29.78,163.49l-.99-2.91c-.22-.66-.38-1.26-.52-1.85h-.03c-.15.6-.31,1.22-.51,1.83l-.99,2.92h3.04Z"/>
      <path class="cls-5" d="M33.11,169.54c.33-.88.73-2.49.9-3.58l1.47-.15c-.34,1.27-1,2.94-1.42,3.64l-.94.09Z"/>
      <path class="cls-5" d="M37.11,157.72c.57-.12,1.47-.21,2.38-.21,1.3,0,2.15.22,2.77.74.52.39.84.99.84,1.78,0,.98-.65,1.83-1.71,2.22v.03c.96.24,2.08,1.04,2.08,2.54,0,.87-.34,1.53-.85,2.03-.71.64-1.84.94-3.49.94-.9,0-1.59-.06-2.02-.12v-9.94ZM38.42,161.86h1.19c1.38,0,2.19-.72,2.19-1.69,0-1.19-.9-1.65-2.22-1.65-.6,0-.94.04-1.15.09v3.25ZM38.42,166.7c.25.04.63.06,1.1.06,1.35,0,2.59-.5,2.59-1.96,0-1.38-1.19-1.95-2.61-1.95h-1.08v3.85Z"/>
      <path class="cls-5" d="M44.15,169.54c.33-.88.73-2.49.9-3.58l1.47-.15c-.34,1.27-1,2.94-1.42,3.64l-.94.09Z"/>
      <path class="cls-5" d="M55.22,167.36c-.48.24-1.44.48-2.67.48-2.85,0-4.99-1.8-4.99-5.12s2.15-5.31,5.28-5.31c1.26,0,2.05.27,2.4.45l-.31,1.06c-.5-.24-1.2-.42-2.04-.42-2.37,0-3.94,1.51-3.94,4.17,0,2.47,1.42,4.06,3.88,4.06.79,0,1.6-.17,2.13-.42l.27,1.04Z"/>
      <path class="cls-5" d="M55.95,169.54c.33-.88.73-2.49.9-3.58l1.47-.15c-.34,1.27-1,2.94-1.42,3.64l-.94.09Z"/>
      <path class="cls-5" d="M59.96,157.72c.79-.12,1.74-.21,2.77-.21,1.87,0,3.21.43,4.09,1.26.9.83,1.42,2,1.42,3.63s-.51,3-1.46,3.93c-.94.95-2.5,1.46-4.47,1.46-.93,0-1.71-.04-2.37-.12v-9.94ZM61.26,166.66c.33.06.81.08,1.32.08,2.79,0,4.31-1.56,4.31-4.29.01-2.38-1.33-3.9-4.1-3.9-.67,0-1.18.06-1.53.13v7.98Z"/>
      <path class="cls-5" d="M71.73,157.4v11.97h-2.74v-.83h1.72v-10.32h-1.72v-.83h2.74Z"/>
      <path class="cls-5" d="M74.19,169.37v-11.95h2.74v.83h-1.72v10.3h1.72v.83h-2.74Z"/>
      <path class="cls-5" d="M83.6,162.95h-3.93v3.65h4.38v1.09h-5.68v-10.11h5.46v1.09h-4.15v3.2h3.93v1.08Z"/>
      <path class="cls-5" d="M84.78,169.54c.33-.88.73-2.49.9-3.58l1.47-.15c-.34,1.27-1,2.94-1.42,3.64l-.94.09Z"/>
      <path class="cls-5" d="M88.79,157.59h5.44v1.09h-4.14v3.36h3.82v1.08h-3.82v4.58h-1.3v-10.11Z"/>
      <path class="cls-5" d="M93.74,169.54c.33-.88.74-2.49.9-3.58l1.47-.15c-.34,1.27-1,2.94-1.42,3.64l-.95.09Z"/>
      <path class="cls-5" d="M105.44,167.24c-.58.21-1.74.56-3.1.56-1.53,0-2.79-.39-3.78-1.33-.87-.84-1.41-2.19-1.41-3.77.02-3.01,2.08-5.22,5.47-5.22,1.17,0,2.08.25,2.52.46l-.31,1.07c-.54-.24-1.21-.44-2.23-.44-2.46,0-4.06,1.53-4.06,4.07s1.54,4.08,3.9,4.08c.85,0,1.44-.12,1.74-.27v-3.01h-2.05v-1.05h3.33v4.86Z"/>
      <path class="cls-5" d="M106.53,169.54c.33-.88.74-2.49.9-3.58l1.47-.15c-.34,1.27-1,2.94-1.42,3.64l-.95.09Z"/>
      <path class="cls-5" d="M111.84,157.59v4.23h4.89v-4.23h1.32v10.11h-1.32v-4.74h-4.89v4.74h-1.3v-10.11h1.3Z"/>
      <path class="cls-5" d="M122.21,157.4v11.97h-2.74v-.83h1.72v-10.32h-1.72v-.83h2.74Z"/>
      <path class="cls-5" d="M124.67,169.37v-11.95h2.74v.83h-1.72v10.3h1.72v.83h-2.74Z"/>
      <path class="cls-5" d="M134.07,162.95h-3.93v3.65h4.38v1.09h-5.68v-10.11h5.46v1.09h-4.15v3.2h3.93v1.08Z"/>
      <path class="cls-5" d="M135.26,169.54c.33-.88.73-2.49.9-3.58l1.47-.15c-.34,1.27-1,2.94-1.42,3.64l-.94.09Z"/>
      <path class="cls-5" d="M139.26,157.59h5.44v1.09h-4.14v3.36h3.82v1.08h-3.82v4.58h-1.3v-10.11Z"/>
      <path class="cls-5" d="M144.21,169.54c.33-.88.74-2.49.9-3.58l1.47-.15c-.34,1.27-1,2.94-1.42,3.64l-.95.09Z"/>
      <path class="cls-5" d="M155.91,167.24c-.58.21-1.74.56-3.1.56-1.53,0-2.79-.39-3.78-1.33-.87-.84-1.41-2.19-1.41-3.77.02-3.01,2.08-5.22,5.47-5.22,1.17,0,2.08.25,2.52.46l-.31,1.07c-.54-.24-1.21-.44-2.23-.44-2.46,0-4.06,1.53-4.06,4.07s1.54,4.08,3.9,4.08c.85,0,1.44-.12,1.74-.27v-3.01h-2.05v-1.05h3.33v4.86Z"/>
      <path class="cls-5" d="M157.01,169.54c.33-.88.74-2.49.9-3.58l1.47-.15c-.34,1.27-1,2.94-1.42,3.64l-.95.09Z"/>
      <path class="cls-5" d="M162.32,157.59v4.23h4.89v-4.23h1.32v10.11h-1.32v-4.74h-4.89v4.74h-1.3v-10.11h1.3Z"/>
      <path class="cls-5" d="M172.68,157.4v11.97h-2.74v-.83h1.72v-10.32h-1.72v-.83h2.74Z"/>
      <path class="cls-5" d="M176.94,157.4v11.97h-2.74v-.83h1.72v-10.32h-1.72v-.83h2.74Z"/>
    </g>
    <rect class="cls-4" x="56.75" y="58.07" width="92" height="38"/>
    <g>
      <circle class="cls-5" cx="150.3" cy="96.8" r="7.75"/>
      <path class="cls-7" d="M152.95,100.05c-.39.14-1.16.37-2.07.37-1.02,0-1.86-.26-2.52-.89-.58-.56-.94-1.46-.94-2.51,0-2.01,1.39-3.48,3.65-3.48.78,0,1.39.17,1.68.31l-.21.71c-.36-.16-.81-.29-1.49-.29-1.64,0-2.71,1.02-2.71,2.71s1.03,2.72,2.6,2.72c.57,0,.96-.08,1.16-.18v-2.01h-1.37v-.7h2.22v3.24Z"/>
    </g>
    <g>
      <circle class="cls-5" cx="147.3" cy="57.8" r="7.75"/>
      <path class="cls-7" d="M145.62,54.61h3.63v.73h-2.76v2.24h2.55v.72h-2.55v3.05h-.87v-6.74Z"/>
    </g>
    <g>
      <circle class="cls-5" cx="57.3" cy="98.8" r="7.75"/>
      <path class="cls-7" d="M55.83,95.93v2.54h2.94v-2.54h.79v6.07h-.79v-2.84h-2.94v2.84h-.78v-6.07h.78Z"/>
    </g>
    <g>
      <circle class="cls-5" cx="56.3" cy="57.8" r="7.75"/>
      <path class="cls-7" d="M58.09,58.19h-2.62v2.43h2.92v.73h-3.79v-6.74h3.64v.73h-2.77v2.13h2.62v.72Z"/>
    </g>
  </g>
  <g>
    <g>
      <line class="cls-2" x1="202.25" y1="169.07" x2="309.91" y2="169.07"/>
      <polygon class="cls-8" points="305.77 183.2 330.25 169.07 305.77 154.93 305.77 183.2"/>
    </g>
    <g>
      <rect class="cls-3" x="206.3" y="160.13" width="94.96" height="17.93"/>
      <path class="cls-5" d="M229.7,160.45h.78v2.93h.03c.16-.23.32-.45.48-.65l1.85-2.28h.97l-2.2,2.58,2.37,3.49h-.93l-2-2.98-.58.67v2.31h-.78v-6.07Z"/>
      <path class="cls-5" d="M235,164.49c.02,1.07.7,1.51,1.49,1.51.57,0,.91-.1,1.21-.22l.14.57c-.28.13-.76.27-1.45.27-1.34,0-2.14-.88-2.14-2.2s.77-2.35,2.04-2.35c1.42,0,1.8,1.25,1.8,2.05,0,.16-.02.29-.03.37h-3.06ZM237.32,163.92c0-.5-.21-1.29-1.1-1.29-.8,0-1.15.74-1.21,1.29h2.31Z"/>
      <path class="cls-5" d="M239.5,164.49c.02,1.07.7,1.51,1.49,1.51.57,0,.91-.1,1.21-.22l.14.57c-.28.13-.76.27-1.45.27-1.34,0-2.14-.88-2.14-2.2s.77-2.35,2.04-2.35c1.42,0,1.8,1.25,1.8,2.05,0,.16-.02.29-.03.37h-3.06ZM241.83,163.92c0-.5-.21-1.29-1.1-1.29-.8,0-1.15.74-1.21,1.29h2.31Z"/>
      <path class="cls-5" d="M243.57,163.59c0-.56-.02-1.01-.04-1.42h.71l.04.75h.02c.32-.53.84-.85,1.55-.85,1.05,0,1.85.89,1.85,2.21,0,1.57-.95,2.34-1.98,2.34-.58,0-1.08-.25-1.34-.68h-.02v2.37h-.78v-4.72ZM244.36,164.75c0,.12.02.23.04.32.14.55.62.93,1.19.93.84,0,1.32-.68,1.32-1.68,0-.87-.46-1.62-1.3-1.62-.54,0-1.04.39-1.2.98-.03.1-.05.21-.05.32v.75Z"/>
      <path class="cls-5" d="M251.56,160.91v1.25h1.13v.6h-1.13v2.35c0,.54.15.85.59.85.21,0,.36-.03.46-.05l.04.59c-.15.06-.4.11-.7.11-.37,0-.67-.12-.86-.33-.23-.23-.31-.62-.31-1.13v-2.38h-.67v-.6h.67v-1.04l.77-.21Z"/>
      <path class="cls-5" d="M253.58,160.13h.79v2.72h.02c.13-.22.32-.42.57-.56.23-.13.51-.23.81-.23.58,0,1.52.36,1.52,1.86v2.59h-.79v-2.5c0-.7-.26-1.3-1.01-1.3-.51,0-.92.36-1.06.79-.05.11-.05.22-.05.38v2.63h-.79v-6.39Z"/>
      <path class="cls-5" d="M259.02,164.49c.02,1.07.7,1.51,1.49,1.51.57,0,.91-.1,1.21-.22l.14.57c-.28.13-.76.27-1.45.27-1.34,0-2.14-.88-2.14-2.2s.77-2.35,2.04-2.35c1.42,0,1.8,1.25,1.8,2.05,0,.16-.02.29-.03.37h-3.06ZM261.34,163.92c0-.5-.21-1.29-1.1-1.29-.8,0-1.15.74-1.21,1.29h2.31Z"/>
      <path class="cls-5" d="M265.07,166.52v-3.75h-.61v-.6h.61v-.23c0-1.15.67-1.9,1.9-1.9.41,0,.88.13,1.11.29l-.22.6c-.19-.13-.53-.25-.92-.25-.84,0-1.08.59-1.08,1.28v.21h2.53v4.36h-.78v-3.75h-1.75v3.75h-.78Z"/>
      <path class="cls-5" d="M269.7,163.52c0-.51,0-.95-.04-1.36h.69l.03.86h.04c.2-.58.68-.95,1.21-.95.09,0,.15,0,.22.03v.75c-.08-.02-.16-.03-.27-.03-.56,0-.95.42-1.06,1.02-.02.11-.04.23-.04.37v2.32h-.78v-3Z"/>
      <path class="cls-5" d="M272.53,165.71c.23.15.65.32,1.04.32.58,0,.85-.29.85-.65,0-.38-.22-.59-.81-.8-.78-.28-1.15-.71-1.15-1.23,0-.7.57-1.28,1.5-1.28.44,0,.83.13,1.07.27l-.2.58c-.17-.11-.49-.25-.89-.25-.47,0-.73.27-.73.59,0,.36.26.52.83.74.76.29,1.14.67,1.14,1.31,0,.77-.59,1.3-1.63,1.3-.48,0-.92-.12-1.22-.3l.2-.6Z"/>
      <path class="cls-5" d="M277.16,160.91v1.25h1.13v.6h-1.13v2.35c0,.54.15.85.59.85.21,0,.36-.03.46-.05l.04.59c-.15.06-.4.11-.7.11-.37,0-.67-.12-.86-.33-.23-.23-.31-.62-.31-1.13v-2.38h-.67v-.6h.67v-1.04l.77-.21Z"/>
    </g>
  </g>
  <g>
    <rect class="cls-6" x="33.25" y="190.57" width="145" height="115"/>
    <rect class="cls-7" x="59.25" y="223.57" width="90" height="38"/>
    <rect class="cls-4" x="31.75" y="189.07" width="146" height="117"/>
    <g>
      <circle class="cls-5" cx="32.5" cy="189.82" r="7.75"/>
      <path class="cls-7" d="M31.29,191.25l-.7,2.12h-.9l2.29-6.74h1.05l2.3,6.74h-.93l-.72-2.12h-2.39ZM33.5,190.57l-.66-1.94c-.15-.44-.25-.84-.35-1.23h-.02c-.1.4-.21.81-.34,1.22l-.66,1.95h2.03Z"/>
    </g>
    <g>
      <circle class="cls-5" cx="177.38" cy="306.39" r="7.75"/>
      <path class="cls-7" d="M179.95,309.72c-.32.16-.96.32-1.78.32-1.9,0-3.33-1.2-3.33-3.41s1.43-3.54,3.52-3.54c.84,0,1.37.18,1.6.3l-.21.71c-.33-.16-.8-.28-1.36-.28-1.58,0-2.63,1.01-2.63,2.78,0,1.65.95,2.71,2.59,2.71.53,0,1.07-.11,1.42-.28l.18.69Z"/>
    </g>
    <g>
      <circle class="cls-5" cx="31.38" cy="306.39" r="7.75"/>
      <path class="cls-7" d="M29.43,303.29c.38-.08.98-.14,1.59-.14.87,0,1.43.15,1.85.49.35.26.56.66.56,1.19,0,.65-.43,1.22-1.14,1.48v.02c.64.16,1.39.69,1.39,1.69,0,.58-.23,1.02-.57,1.35-.47.43-1.23.63-2.33.63-.6,0-1.06-.04-1.35-.08v-6.63ZM30.3,306.05h.79c.92,0,1.46-.48,1.46-1.13,0-.79-.6-1.1-1.48-1.1-.4,0-.63.03-.77.06v2.17ZM30.3,309.28c.17.03.42.04.73.04.9,0,1.73-.33,1.73-1.31,0-.92-.79-1.3-1.74-1.3h-.72v2.57Z"/>
    </g>
    <g>
      <circle class="cls-5" cx="177.38" cy="189.39" r="7.75"/>
      <path class="cls-7" d="M175.07,186.6c.48-.07,1.04-.13,1.67-.13,1.12,0,1.93.26,2.46.76.54.5.85,1.2.85,2.18s-.31,1.8-.87,2.36c-.57.57-1.5.87-2.68.87-.56,0-1.03-.03-1.42-.07v-5.97ZM175.85,191.96c.2.04.49.04.79.04,1.67,0,2.58-.94,2.58-2.57,0-1.43-.8-2.34-2.46-2.34-.41,0-.71.04-.92.08v4.79Z"/>
    </g>
    <rect class="cls-4" x="58.75" y="223.07" width="92" height="38"/>
    <g>
      <circle class="cls-5" cx="152.3" cy="261.8" r="7.75"/>
      <path class="cls-7" d="M154.95,265.05c-.39.14-1.16.37-2.07.37-1.02,0-1.86-.26-2.52-.89-.58-.56-.94-1.46-.94-2.51,0-2.01,1.39-3.48,3.65-3.48.78,0,1.39.17,1.68.31l-.21.71c-.36-.16-.81-.29-1.49-.29-1.64,0-2.71,1.02-2.71,2.71s1.03,2.72,2.6,2.72c.57,0,.96-.08,1.16-.18v-2.01h-1.37v-.7h2.22v3.24Z"/>
    </g>
    <g>
      <circle class="cls-5" cx="149.3" cy="222.8" r="7.75"/>
      <path class="cls-7" d="M147.62,219.61h3.63v.73h-2.76v2.24h2.55v.72h-2.55v3.05h-.87v-6.74Z"/>
    </g>
    <g>
      <circle class="cls-5" cx="59.3" cy="263.8" r="7.75"/>
      <path class="cls-7" d="M57.83,260.93v2.54h2.94v-2.54h.79v6.07h-.79v-2.84h-2.94v2.84h-.78v-6.07h.78Z"/>
    </g>
    <g>
      <circle class="cls-5" cx="58.3" cy="222.8" r="7.75"/>
      <path class="cls-7" d="M60.09,223.19h-2.62v2.43h2.92v.73h-3.79v-6.74h3.64v.73h-2.77v2.13h2.62v.72Z"/>
    </g>
    <g>
      <path class="cls-7" d="M44.77,225.66c-.02-12.09,10.04-22.03,22.22-22.16,10.78-.11,22.17,8.33,22.32,22.5.13,12.1-10.05,22.12-22.28,22.14-12.32.01-22.23-10-22.26-22.48ZM57.84,243.59c6.74,3.89,17.63,3.44,24.66-4.94,6.27-7.47,5.23-17.16,2.46-21.63,4.81,15.08-9.43,31.55-27.12,26.57Z"/>
      <polyline class="cls-6" points="54.55 222.61 67.16 222.61 66.19 216.13 86.7 215.34 79.88 207.6 69.51 203.64 59.38 203.64 51.9 209.34 44.77 215.97 42.99 231.48 55.07 246.08 55.07 227.25"/>
      <line class="cls-1" x1="55.92" y1="223.83" x2="89.29" y2="223.83"/>
      <line class="cls-1" x1="54.21" y1="224.69" x2="54.67" y2="246.7"/>
      <line class="cls-1" x1="66.19" y1="216.13" x2="67.05" y2="250.36"/>
      <line class="cls-1" x1="70.47" y1="216.13" x2="89.29" y2="216.13"/>
      <g>
        <circle class="cls-5" cx="67.16" cy="215.97" r="6.63"/>
        <path class="cls-7" d="M68.69,216.31h-2.24v2.08h2.5v.62h-3.24v-5.77h3.12v.62h-2.37v1.82h2.24v.62Z"/>
      </g>
      <g>
        <circle class="cls-5" cx="54.92" cy="223.19" r="6.63"/>
        <path class="cls-7" d="M55.3,220.46v5.77h-.75v-5.77h.75Z"/>
      </g>
      <path d="M84.97,251.98c-.25.08-.57.21-.91.28-.71.14-1.19-.21-1.07-.92.13-.71.48-1.39.74-2.08.04-.11.12-.22.19-.32,1.03-1.62.97-1.88-.7-3.03-12.81,10.75-30.24,5.28-37.52-5.45-7.29-10.75-5.55-25.24,4.36-34.05,9.52-8.47,24.14-8.45,33.79-.09,9.76,8.45,12.79,24.69,2.53,36.45.5.46.98.96,1.53,1.37.16.12.54.07.75-.04.8-.44,1.56-.97,2.37-1.4.47-.25,1.05-.49,1.53-.02.5.49.15,1.02-.03,1.52-.05.14-.12.27-.18.4,2.79,1.47,4.83,3.82,7.18,5.78,2.38,1.97,4.67,4.04,7,6.06,1.81,1.57,3.57,3.18,5.43,4.68,1.04.84,1.42,1.84,1.16,3.09-.95,4.7-4.56,7.97-8.84,8.57-.96.13-1.78-.17-2.45-.95-5.19-5.98-10.4-11.94-15.59-17.92-.49-.57-.86-1.25-1.32-1.94ZM44.77,225.66c.02,12.48,9.94,22.49,22.26,22.48,12.22-.01,22.41-10.04,22.28-22.14-.15-14.17-11.54-22.62-22.32-22.5-12.18.13-22.24,10.06-22.22,22.16ZM87.41,251.64c1.52,1.78,3.01,3.52,4.49,5.27,3.87,4.55,7.75,9.1,11.63,13.65.17.2.52.48.68.42.96-.37,1.88-.82,2.94-1.31-.36-.38-.54-.57-.73-.76-5.84-5.78-11.68-11.56-17.53-17.34-.68-.67-.7-.68-1.49.07ZM86.22,248.51c-.66.47-1.27.9-1.89,1.34.74.85,1.22.71,2.36-.63-.14-.21-.29-.43-.48-.71Z"/>
      <path d="M57.84,243.59c17.69,4.98,31.94-11.49,27.12-26.57,2.77,4.47,3.8,14.16-2.46,21.63-7.03,8.38-17.92,8.83-24.66,4.94Z"/>
    </g>
    <g>
      <rect class="cls-3" x="6.6" y="322.55" width="189" height="23.48"/>
      <path class="cls-5" d="M22.77,334.88v-11.95h2.74v.83h-1.72v10.3h1.72v.83h-2.74Z"/>
      <path class="cls-5" d="M27.03,334.88v-11.95h2.74v.83h-1.72v10.3h1.72v.83h-2.74Z"/>
      <path class="cls-5" d="M32.67,330.02l-1.05,3.18h-1.35l3.44-10.11h1.57l3.45,10.11h-1.4l-1.08-3.18h-3.58ZM35.99,329l-.99-2.91c-.22-.66-.38-1.26-.52-1.85h-.03c-.15.6-.31,1.22-.51,1.83l-.99,2.92h3.04Z"/>
      <path class="cls-5" d="M39.32,335.05c.33-.88.73-2.49.9-3.58l1.47-.15c-.34,1.27-1,2.94-1.42,3.64l-.94.09Z"/>
      <path class="cls-5" d="M43.32,323.23c.57-.12,1.47-.21,2.38-.21,1.3,0,2.15.22,2.77.74.52.39.84.99.84,1.78,0,.98-.65,1.83-1.71,2.22v.03c.96.24,2.08,1.04,2.08,2.54,0,.87-.34,1.53-.85,2.03-.71.64-1.84.94-3.49.94-.9,0-1.59-.06-2.02-.12v-9.94ZM44.63,327.37h1.19c1.38,0,2.19-.72,2.19-1.69,0-1.19-.9-1.65-2.22-1.65-.6,0-.94.04-1.15.09v3.25ZM44.63,332.21c.25.04.63.06,1.1.06,1.35,0,2.59-.5,2.59-1.96,0-1.38-1.19-1.95-2.61-1.95h-1.08v3.85Z"/>
      <path class="cls-5" d="M50.36,335.05c.33-.88.73-2.49.9-3.58l1.47-.15c-.34,1.27-1,2.94-1.42,3.64l-.94.09Z"/>
      <path class="cls-5" d="M61.43,332.87c-.48.24-1.44.48-2.67.48-2.85,0-4.99-1.8-4.99-5.12s2.15-5.31,5.28-5.31c1.26,0,2.05.27,2.4.45l-.31,1.06c-.5-.24-1.2-.42-2.04-.42-2.37,0-3.94,1.51-3.94,4.17,0,2.47,1.42,4.06,3.88,4.06.79,0,1.6-.17,2.13-.42l.27,1.04Z"/>
      <path class="cls-5" d="M62.16,335.05c.33-.88.73-2.49.9-3.58l1.47-.15c-.34,1.27-1,2.94-1.42,3.64l-.94.09Z"/>
      <path class="cls-5" d="M66.17,323.23c.79-.12,1.74-.21,2.77-.21,1.87,0,3.21.43,4.09,1.26.9.83,1.42,2,1.42,3.63s-.51,3-1.46,3.93c-.94.95-2.5,1.46-4.47,1.46-.93,0-1.71-.04-2.37-.12v-9.94ZM67.47,332.17c.33.06.81.08,1.32.08,2.79,0,4.31-1.56,4.31-4.29.01-2.38-1.33-3.9-4.1-3.9-.67,0-1.18.06-1.53.13v7.98Z"/>
      <path class="cls-5" d="M77.94,322.91v11.97h-2.74v-.83h1.72v-10.32h-1.72v-.83h2.74Z"/>
      <path class="cls-5" d="M80.4,334.88v-11.95h2.74v.83h-1.72v10.3h1.72v.83h-2.74Z"/>
      <path class="cls-5" d="M89.81,328.46h-3.93v3.65h4.38v1.09h-5.68v-10.11h5.46v1.09h-4.15v3.2h3.93v1.08Z"/>
      <path class="cls-5" d="M90.99,335.05c.33-.88.73-2.49.9-3.58l1.47-.15c-.34,1.27-1,2.94-1.42,3.64l-.94.09Z"/>
      <path class="cls-5" d="M95,323.09h5.44v1.09h-4.14v3.36h3.82v1.08h-3.82v4.58h-1.3v-10.11Z"/>
      <path class="cls-5" d="M99.95,335.05c.33-.88.74-2.49.9-3.58l1.47-.15c-.34,1.27-1,2.94-1.42,3.64l-.95.09Z"/>
      <path class="cls-5" d="M111.65,332.75c-.58.21-1.74.56-3.1.56-1.53,0-2.79-.39-3.78-1.33-.87-.84-1.41-2.19-1.41-3.77.02-3.01,2.08-5.22,5.47-5.22,1.17,0,2.08.25,2.52.46l-.31,1.07c-.54-.24-1.21-.44-2.23-.44-2.46,0-4.06,1.53-4.06,4.07s1.54,4.08,3.9,4.08c.85,0,1.44-.12,1.74-.27v-3.01h-2.05v-1.05h3.33v4.86Z"/>
      <path class="cls-5" d="M112.74,335.05c.33-.88.74-2.49.9-3.58l1.47-.15c-.34,1.27-1,2.94-1.42,3.64l-.95.09Z"/>
      <path class="cls-5" d="M118.05,323.09v4.23h4.89v-4.23h1.32v10.11h-1.32v-4.74h-4.89v4.74h-1.3v-10.11h1.3Z"/>
      <path class="cls-5" d="M128.42,322.91v11.97h-2.74v-.83h1.72v-10.32h-1.72v-.83h2.74Z"/>
      <path class="cls-5" d="M130.88,334.88v-11.95h2.74v.83h-1.72v10.3h1.72v.83h-2.74Z"/>
      <path class="cls-5" d="M136.35,323.09v10.11h-1.3v-10.11h1.3Z"/>
      <path class="cls-5" d="M137.73,335.05c.33-.88.74-2.49.9-3.58l1.47-.15c-.34,1.27-1,2.94-1.42,3.64l-.95.09Z"/>
      <path class="cls-5" d="M141.74,323.09h5.44v1.09h-4.14v3.36h3.82v1.08h-3.82v4.58h-1.3v-10.11Z"/>
      <path class="cls-5" d="M146.69,335.05c.33-.88.74-2.49.9-3.58l1.47-.15c-.34,1.27-1,2.94-1.42,3.64l-.95.09Z"/>
      <path class="cls-5" d="M158.39,332.75c-.58.21-1.74.56-3.1.56-1.53,0-2.79-.39-3.78-1.33-.87-.84-1.41-2.19-1.41-3.77.02-3.01,2.08-5.22,5.47-5.22,1.17,0,2.08.25,2.52.46l-.31,1.07c-.54-.24-1.21-.44-2.23-.44-2.46,0-4.06,1.53-4.06,4.07s1.54,4.08,3.9,4.08c.85,0,1.44-.12,1.74-.27v-3.01h-2.05v-1.05h3.33v4.86Z"/>
      <path class="cls-5" d="M159.48,335.05c.33-.88.74-2.49.9-3.58l1.47-.15c-.34,1.27-1,2.94-1.42,3.64l-.95.09Z"/>
      <path class="cls-5" d="M164.79,323.09v4.23h4.89v-4.23h1.32v10.11h-1.32v-4.74h-4.89v4.74h-1.3v-10.11h1.3Z"/>
      <path class="cls-5" d="M175.16,322.91v11.97h-2.74v-.83h1.72v-10.32h-1.72v-.83h2.74Z"/>
      <path class="cls-5" d="M179.42,322.91v11.97h-2.74v-.83h1.72v-10.32h-1.72v-.83h2.74Z"/>
    </g>
  </g>
  <g>
    <rect class="cls-6" x="349.25" y="24.57" width="145" height="115"/>
    <rect class="cls-7" x="375.25" y="57.57" width="90" height="38"/>
    <rect class="cls-4" x="347.75" y="23.07" width="146" height="117"/>
    <g>
      <circle class="cls-5" cx="348.5" cy="23.82" r="7.75"/>
      <path class="cls-7" d="M347.29,25.25l-.7,2.12h-.9l2.29-6.74h1.05l2.3,6.74h-.93l-.72-2.12h-2.39ZM349.5,24.57l-.66-1.94c-.15-.44-.25-.84-.35-1.23h-.02c-.1.4-.21.81-.34,1.22l-.66,1.95h2.03Z"/>
    </g>
    <g>
      <circle class="cls-5" cx="493.38" cy="140.39" r="7.75"/>
      <path class="cls-7" d="M495.95,143.72c-.32.16-.96.32-1.78.32-1.9,0-3.33-1.2-3.33-3.41s1.43-3.54,3.52-3.54c.84,0,1.37.18,1.6.3l-.21.71c-.33-.16-.8-.28-1.36-.28-1.58,0-2.63,1.01-2.63,2.78,0,1.65.95,2.71,2.59,2.71.53,0,1.07-.11,1.42-.28l.18.69Z"/>
    </g>
    <g>
      <circle class="cls-5" cx="347.38" cy="140.39" r="7.75"/>
      <path class="cls-7" d="M345.43,137.29c.38-.08.98-.14,1.59-.14.87,0,1.43.15,1.85.49.35.26.56.66.56,1.19,0,.65-.43,1.22-1.14,1.48v.02c.64.16,1.39.69,1.39,1.69,0,.58-.23,1.02-.57,1.35-.47.43-1.23.63-2.33.63-.6,0-1.06-.04-1.35-.08v-6.63ZM346.3,140.05h.79c.92,0,1.46-.48,1.46-1.13,0-.79-.6-1.1-1.48-1.1-.4,0-.63.03-.77.06v2.17ZM346.3,143.28c.17.03.42.04.73.04.9,0,1.73-.33,1.73-1.31,0-.92-.79-1.3-1.74-1.3h-.72v2.57Z"/>
    </g>
    <g>
      <circle class="cls-5" cx="493.38" cy="23.39" r="7.75"/>
      <path class="cls-7" d="M491.07,20.6c.48-.07,1.04-.13,1.67-.13,1.12,0,1.93.26,2.46.76.54.5.85,1.2.85,2.18s-.31,1.8-.87,2.36c-.57.57-1.5.87-2.68.87-.56,0-1.03-.03-1.42-.07v-5.97ZM491.85,25.96c.2.04.49.04.79.04,1.67,0,2.58-.94,2.58-2.57,0-1.43-.8-2.34-2.46-2.34-.41,0-.71.04-.92.08v4.79Z"/>
    </g>
    <rect class="cls-4" x="374.75" y="57.07" width="92" height="38"/>
    <g>
      <circle class="cls-5" cx="468.3" cy="95.8" r="7.75"/>
      <path class="cls-7" d="M470.96,99.05c-.39.14-1.16.37-2.07.37-1.02,0-1.86-.26-2.52-.89-.58-.56-.94-1.46-.94-2.51,0-2.01,1.39-3.48,3.65-3.48.78,0,1.39.17,1.68.31l-.21.71c-.36-.16-.81-.29-1.49-.29-1.64,0-2.71,1.02-2.71,2.71s1.03,2.72,2.6,2.72c.57,0,.96-.08,1.16-.18v-2.01h-1.37v-.7h2.22v3.24Z"/>
    </g>
    <g>
      <circle class="cls-5" cx="465.3" cy="56.8" r="7.75"/>
      <path class="cls-7" d="M463.62,53.61h3.63v.73h-2.76v2.24h2.55v.72h-2.55v3.05h-.87v-6.74Z"/>
    </g>
    <g>
      <circle class="cls-5" cx="375.3" cy="97.8" r="7.75"/>
      <path class="cls-7" d="M373.83,94.93v2.54h2.94v-2.54h.79v6.07h-.79v-2.84h-2.94v2.84h-.78v-6.07h.78Z"/>
    </g>
    <g>
      <circle class="cls-5" cx="374.3" cy="56.8" r="7.75"/>
      <path class="cls-7" d="M376.08,57.19h-2.62v2.43h2.92v.73h-3.79v-6.74h3.64v.73h-2.77v2.13h2.62v.72Z"/>
    </g>
    <g>
      <rect class="cls-3" x="325.69" y="155.04" width="189" height="23.48"/>
      <path class="cls-5" d="M365.24,167.37v-11.95h2.75v.83h-1.72v10.3h1.72v.83h-2.75Z"/>
      <path class="cls-5" d="M369.5,167.37v-11.95h2.75v.83h-1.72v10.3h1.72v.83h-2.75Z"/>
      <path class="cls-5" d="M375.13,162.51l-1.05,3.18h-1.35l3.43-10.11h1.58l3.45,10.11h-1.39l-1.08-3.18h-3.58ZM378.45,161.49l-.99-2.91c-.22-.66-.38-1.26-.53-1.85h-.03c-.15.6-.32,1.22-.51,1.83l-.99,2.92h3.04Z"/>
      <path class="cls-5" d="M381.78,167.54c.33-.88.73-2.49.9-3.58l1.47-.15c-.34,1.27-1,2.94-1.42,3.64l-.94.09Z"/>
      <path class="cls-5" d="M385.79,155.72c.57-.12,1.47-.21,2.38-.21,1.3,0,2.15.22,2.78.74.52.39.84.99.84,1.78,0,.98-.65,1.83-1.71,2.22v.03c.96.24,2.08,1.04,2.08,2.54,0,.87-.34,1.53-.86,2.03-.71.64-1.84.94-3.49.94-.9,0-1.59-.06-2.03-.12v-9.94ZM387.09,159.86h1.19c1.38,0,2.19-.72,2.19-1.69,0-1.19-.9-1.65-2.22-1.65-.6,0-.95.04-1.16.09v3.25ZM387.09,164.7c.25.04.63.06,1.1.06,1.35,0,2.59-.5,2.59-1.96,0-1.38-1.19-1.95-2.61-1.95h-1.08v3.85Z"/>
      <path class="cls-5" d="M392.82,167.54c.33-.88.73-2.49.9-3.58l1.47-.15c-.34,1.27-1,2.94-1.42,3.64l-.94.09Z"/>
      <path class="cls-5" d="M403.89,165.36c-.48.24-1.44.48-2.67.48-2.85,0-5-1.8-5-5.12s2.15-5.31,5.28-5.31c1.26,0,2.05.27,2.4.45l-.31,1.06c-.5-.24-1.2-.42-2.04-.42-2.37,0-3.95,1.51-3.95,4.17,0,2.47,1.42,4.06,3.88,4.06.79,0,1.61-.17,2.13-.42l.27,1.04Z"/>
      <path class="cls-5" d="M404.63,167.54c.33-.88.73-2.49.9-3.58l1.47-.15c-.34,1.27-1,2.94-1.42,3.64l-.94.09Z"/>
      <path class="cls-5" d="M408.63,155.72c.79-.12,1.74-.21,2.77-.21,1.88,0,3.21.43,4.09,1.26.9.83,1.42,2,1.42,3.63s-.51,3-1.46,3.93c-.94.95-2.5,1.46-4.47,1.46-.93,0-1.71-.04-2.37-.12v-9.94ZM409.94,164.66c.33.06.81.08,1.32.08,2.79,0,4.31-1.56,4.31-4.29.01-2.38-1.33-3.9-4.1-3.9-.67,0-1.18.06-1.53.13v7.98Z"/>
      <path class="cls-5" d="M420.41,155.4v11.97h-2.75v-.83h1.72v-10.32h-1.72v-.83h2.75Z"/>
      <path class="cls-5" d="M422.87,167.37v-11.95h2.74v.83h-1.72v10.3h1.72v.83h-2.74Z"/>
      <path class="cls-5" d="M432.27,160.95h-3.93v3.65h4.38v1.09h-5.68v-10.11h5.46v1.09h-4.15v3.2h3.93v1.08Z"/>
      <path class="cls-5" d="M433.46,167.54c.33-.88.73-2.49.9-3.58l1.47-.15c-.34,1.27-1,2.94-1.42,3.64l-.94.09Z"/>
      <path class="cls-5" d="M437.46,155.58h5.44v1.09h-4.14v3.36h3.82v1.08h-3.82v4.58h-1.3v-10.11Z"/>
      <path class="cls-5" d="M442.41,167.54c.33-.88.74-2.49.9-3.58l1.47-.15c-.34,1.27-1,2.94-1.42,3.64l-.95.09Z"/>
      <path class="cls-5" d="M454.11,165.24c-.58.21-1.74.56-3.1.56-1.53,0-2.79-.39-3.78-1.33-.87-.84-1.41-2.19-1.41-3.77.01-3.01,2.08-5.22,5.47-5.22,1.17,0,2.08.25,2.52.46l-.31,1.07c-.54-.24-1.21-.44-2.24-.44-2.46,0-4.06,1.53-4.06,4.07s1.54,4.08,3.9,4.08c.86,0,1.44-.12,1.74-.27v-3.01h-2.05v-1.05h3.33v4.86Z"/>
      <path class="cls-5" d="M455.21,167.54c.33-.88.74-2.49.9-3.58l1.47-.15c-.34,1.27-1,2.94-1.42,3.64l-.95.09Z"/>
      <path class="cls-5" d="M460.51,155.58v4.23h4.89v-4.23h1.32v10.11h-1.32v-4.74h-4.89v4.74h-1.3v-10.11h1.3Z"/>
      <path class="cls-5" d="M470.88,155.4v11.97h-2.75v-.83h1.72v-10.32h-1.72v-.83h2.75Z"/>
      <path class="cls-5" d="M475.14,155.4v11.97h-2.75v-.83h1.72v-10.32h-1.72v-.83h2.75Z"/>
    </g>
  </g>
  <g>
    <rect class="cls-6" x="349.25" y="189.57" width="145" height="115"/>
    <rect class="cls-7" x="375.25" y="222.57" width="90" height="38"/>
    <rect class="cls-4" x="347.75" y="188.07" width="146" height="117"/>
    <g>
      <circle class="cls-5" cx="348.5" cy="188.82" r="7.75"/>
      <path class="cls-7" d="M347.29,190.25l-.7,2.12h-.9l2.29-6.74h1.05l2.3,6.74h-.93l-.72-2.12h-2.39ZM349.5,189.57l-.66-1.94c-.15-.44-.25-.84-.35-1.23h-.02c-.1.4-.21.81-.34,1.22l-.66,1.95h2.03Z"/>
    </g>
    <g>
      <circle class="cls-5" cx="493.38" cy="305.39" r="7.75"/>
      <path class="cls-7" d="M495.95,308.72c-.32.16-.96.32-1.78.32-1.9,0-3.33-1.2-3.33-3.41s1.43-3.54,3.52-3.54c.84,0,1.37.18,1.6.3l-.21.71c-.33-.16-.8-.28-1.36-.28-1.58,0-2.63,1.01-2.63,2.78,0,1.65.95,2.71,2.59,2.71.53,0,1.07-.11,1.42-.28l.18.69Z"/>
    </g>
    <g>
      <circle class="cls-5" cx="347.38" cy="305.39" r="7.75"/>
      <path class="cls-7" d="M345.43,302.29c.38-.08.98-.14,1.59-.14.87,0,1.43.15,1.85.49.35.26.56.66.56,1.19,0,.65-.43,1.22-1.14,1.48v.02c.64.16,1.39.69,1.39,1.69,0,.58-.23,1.02-.57,1.35-.47.43-1.23.63-2.33.63-.6,0-1.06-.04-1.35-.08v-6.63ZM346.3,305.05h.79c.92,0,1.46-.48,1.46-1.13,0-.79-.6-1.1-1.48-1.1-.4,0-.63.03-.77.06v2.17ZM346.3,308.28c.17.03.42.04.73.04.9,0,1.73-.33,1.73-1.31,0-.92-.79-1.3-1.74-1.3h-.72v2.57Z"/>
    </g>
    <g>
      <circle class="cls-5" cx="493.38" cy="188.39" r="7.75"/>
      <path class="cls-7" d="M491.07,185.6c.48-.07,1.04-.13,1.67-.13,1.12,0,1.93.26,2.46.76.54.5.85,1.2.85,2.18s-.31,1.8-.87,2.36c-.57.57-1.5.87-2.68.87-.56,0-1.03-.03-1.42-.07v-5.97ZM491.85,190.96c.2.04.49.04.79.04,1.67,0,2.58-.94,2.58-2.57,0-1.43-.8-2.34-2.46-2.34-.41,0-.71.04-.92.08v4.79Z"/>
    </g>
    <rect class="cls-4" x="374.75" y="222.07" width="92" height="38"/>
    <g>
      <circle class="cls-5" cx="468.3" cy="260.8" r="7.75"/>
      <path class="cls-7" d="M470.96,264.05c-.39.14-1.16.37-2.07.37-1.02,0-1.86-.26-2.52-.89-.58-.56-.94-1.46-.94-2.51,0-2.01,1.39-3.48,3.65-3.48.78,0,1.39.17,1.68.31l-.21.71c-.36-.16-.81-.29-1.49-.29-1.64,0-2.71,1.02-2.71,2.71s1.03,2.72,2.6,2.72c.57,0,.96-.08,1.16-.18v-2.01h-1.37v-.7h2.22v3.24Z"/>
    </g>
    <g>
      <circle class="cls-5" cx="465.3" cy="221.8" r="7.75"/>
      <path class="cls-7" d="M463.62,218.61h3.63v.73h-2.76v2.24h2.55v.72h-2.55v3.05h-.87v-6.74Z"/>
    </g>
    <g>
      <circle class="cls-5" cx="375.3" cy="262.8" r="7.75"/>
      <path class="cls-7" d="M373.83,259.93v2.54h2.94v-2.54h.79v6.07h-.79v-2.84h-2.94v2.84h-.78v-6.07h.78Z"/>
    </g>
    <g>
      <circle class="cls-5" cx="374.3" cy="221.8" r="7.75"/>
      <path class="cls-7" d="M376.08,222.19h-2.62v2.43h2.92v.73h-3.79v-6.74h3.64v.73h-2.77v2.13h2.62v.72Z"/>
    </g>
    <g>
      <rect class="cls-3" x="326.79" y="323.01" width="189" height="23.48"/>
      <path class="cls-5" d="M366.34,335.34v-11.95h2.74v.83h-1.72v10.3h1.72v.83h-2.74Z"/>
      <path class="cls-5" d="M370.6,335.34v-11.95h2.74v.83h-1.72v10.3h1.72v.83h-2.74Z"/>
      <path class="cls-5" d="M376.24,330.48l-1.05,3.18h-1.35l3.44-10.11h1.57l3.45,10.11h-1.4l-1.08-3.18h-3.58ZM379.55,329.46l-.99-2.91c-.22-.66-.38-1.26-.52-1.85h-.03c-.15.6-.31,1.22-.51,1.83l-.99,2.92h3.04Z"/>
      <path class="cls-5" d="M382.88,335.51c.33-.88.74-2.49.9-3.58l1.47-.15c-.34,1.27-1,2.94-1.42,3.64l-.95.09Z"/>
      <path class="cls-5" d="M386.89,323.69c.57-.12,1.47-.21,2.38-.21,1.3,0,2.14.22,2.77.74.53.39.84.99.84,1.78,0,.98-.64,1.83-1.71,2.22v.03c.96.24,2.08,1.04,2.08,2.54,0,.87-.34,1.53-.85,2.03-.71.64-1.84.94-3.5.94-.9,0-1.59-.06-2.02-.12v-9.94ZM388.19,327.83h1.18c1.38,0,2.19-.72,2.19-1.69,0-1.19-.9-1.65-2.22-1.65-.6,0-.94.04-1.15.09v3.25ZM388.19,332.67c.25.04.63.06,1.09.06,1.35,0,2.59-.5,2.59-1.96,0-1.38-1.18-1.95-2.61-1.95h-1.08v3.85Z"/>
      <path class="cls-5" d="M393.92,335.51c.33-.88.74-2.49.9-3.58l1.47-.15c-.34,1.27-1,2.94-1.42,3.64l-.95.09Z"/>
      <path class="cls-5" d="M404.99,333.33c-.48.24-1.44.48-2.67.48-2.85,0-4.99-1.8-4.99-5.12s2.14-5.31,5.28-5.31c1.26,0,2.05.27,2.4.45l-.32,1.06c-.5-.24-1.2-.42-2.04-.42-2.37,0-3.94,1.51-3.94,4.17,0,2.47,1.42,4.06,3.88,4.06.79,0,1.6-.17,2.13-.42l.27,1.04Z"/>
      <path class="cls-5" d="M405.73,335.51c.33-.88.74-2.49.9-3.58l1.47-.15c-.34,1.27-1,2.94-1.42,3.64l-.95.09Z"/>
      <path class="cls-5" d="M409.73,323.69c.79-.12,1.74-.21,2.78-.21,1.87,0,3.21.43,4.09,1.26.9.83,1.42,2,1.42,3.63s-.51,3-1.46,3.93c-.95.95-2.5,1.46-4.47,1.46-.93,0-1.71-.04-2.37-.12v-9.94ZM411.04,332.63c.33.06.81.08,1.32.08,2.79,0,4.3-1.56,4.3-4.29.01-2.38-1.33-3.9-4.09-3.9-.67,0-1.18.06-1.53.13v7.98Z"/>
      <path class="cls-5" d="M421.51,323.37v11.97h-2.74v-.83h1.72v-10.32h-1.72v-.83h2.74Z"/>
      <path class="cls-5" d="M423.97,335.34v-11.95h2.75v.83h-1.72v10.3h1.72v.83h-2.75Z"/>
      <path class="cls-5" d="M433.37,328.92h-3.93v3.65h4.38v1.09h-5.68v-10.11h5.46v1.09h-4.16v3.2h3.93v1.08Z"/>
      <path class="cls-5" d="M434.56,335.51c.33-.88.74-2.49.9-3.58l1.47-.15c-.34,1.27-1,2.94-1.42,3.64l-.95.09Z"/>
      <path class="cls-5" d="M438.56,323.55h5.45v1.09h-4.14v3.36h3.83v1.08h-3.83v4.58h-1.3v-10.11Z"/>
      <path class="cls-5" d="M443.51,335.51c.33-.88.74-2.49.9-3.58l1.47-.15c-.34,1.27-1,2.94-1.42,3.64l-.95.09Z"/>
      <path class="cls-5" d="M455.21,333.21c-.58.21-1.74.56-3.1.56-1.53,0-2.79-.39-3.78-1.33-.87-.84-1.41-2.19-1.41-3.77.02-3.01,2.08-5.22,5.47-5.22,1.17,0,2.08.25,2.52.46l-.32,1.07c-.54-.24-1.21-.44-2.23-.44-2.46,0-4.07,1.53-4.07,4.07s1.54,4.08,3.9,4.08c.85,0,1.44-.12,1.74-.27v-3.01h-2.05v-1.05h3.33v4.86Z"/>
      <path class="cls-5" d="M456.31,335.51c.33-.88.74-2.49.9-3.58l1.47-.15c-.34,1.27-1,2.94-1.42,3.64l-.95.09Z"/>
      <path class="cls-5" d="M461.62,323.55v4.23h4.89v-4.23h1.32v10.11h-1.32v-4.74h-4.89v4.74h-1.3v-10.11h1.3Z"/>
      <path class="cls-5" d="M471.98,323.37v11.97h-2.74v-.83h1.72v-10.32h-1.72v-.83h2.74Z"/>
      <path class="cls-5" d="M476.24,323.37v11.97h-2.74v-.83h1.72v-10.32h-1.72v-.83h2.74Z"/>
    </g>
  </g>
</svg>