<?xml version="1.0" encoding="UTF-8"?>
<svg id="Shell" xmlns="http://www.w3.org/2000/svg" viewBox="0 0 721.58 427.6">
  <defs>
    <style>
      .cls-1 {
        fill: #c92027;
      }

      .cls-2 {
        opacity: .41;
      }

      .cls-2, .cls-3 {
        fill: #437898;
      }

      .cls-4 {
        fill: #231f20;
      }

      .cls-5 {
        stroke-width: 2px;
      }

      .cls-5, .cls-6, .cls-7, .cls-8, .cls-9 {
        fill: none;
      }

      .cls-5, .cls-6, .cls-8, .cls-9 {
        stroke-miterlimit: 10;
      }

      .cls-5, .cls-8, .cls-9 {
        stroke: #437898;
      }

      .cls-10 {
        fill: #6dbae7;
      }

      .cls-10, .cls-3 {
        opacity: .31;
      }

      .cls-11 {
        fill: #fff;
      }

      .cls-6 {
        stroke: #9b9a9a;
      }

      .cls-6, .cls-8, .cls-9 {
        stroke-width: 2.83px;
      }

      .cls-12 {
        fill: #9b9a9a;
      }

      .cls-13 {
        fill: #39b54a;
      }

      .cls-9 {
        stroke-dasharray: 5.67;
      }
    </style>
  </defs>
  <g>
    <rect class="cls-10" x="56.59" y="44.57" width="124" height="115"/>
    <polyline class="cls-10" points="54.59 44.57 54.59 44.57 56.09 160.07 33.64 192.71 35.09 75.07 56.59 44.57"/>
    <line class="cls-8" x1="181.09" y1="45.07" x2="56.09" y2="45.07"/>
    <line class="cls-8" x1="158.09" y1="75.07" x2="181.09" y2="45.07"/>
    <line class="cls-8" x1="162.09" y1="195.07" x2="182.09" y2="161.07"/>
    <line class="cls-8" x1="181.09" y1="45.07" x2="181.09" y2="161.07"/>
    <line class="cls-9" x1="56.09" y1="45.07" x2="56.09" y2="160.07"/>
    <line class="cls-8" x1="34.85" y1="74.51" x2="57.85" y2="44.51"/>
    <line class="cls-9" x1="181.09" y1="160.07" x2="54.09" y2="160.07"/>
    <polyline class="cls-9" points="56.09 160.07 36.09 191.07 56.09 160.07"/>
    <polygon class="cls-10" points="56.09 45.07 36.18 74.63 159.72 75.39 181.35 44.02 56.09 45.07"/>
    <polyline class="cls-10" points="34.72 192.39 56.09 160.07 181.09 161.07 161.09 192.07"/>
    <polygon class="cls-10" points="159.72 75.39 180.31 46 179.26 163.58 159.1 192.6 159.72 75.39"/>
    <polygon class="cls-10" points="205.59 43.57 224.22 10.8 244.89 51.01 205.59 43.57"/>
    <polygon class="cls-5" points="205.59 44.57 224.22 11.8 244 49.25 205.59 44.57"/>
    <g>
      <circle class="cls-4" cx="55.84" cy="43.82" r="7.75"/>
      <path class="cls-11" d="M57.63,44.21h-2.62v2.43h2.92v.73h-3.79v-6.74h3.64v.73h-2.77v2.13h2.62v.72Z"/>
    </g>
    <g>
      <circle class="cls-4" cx="180.72" cy="160.39" r="7.75"/>
      <path class="cls-11" d="M179.26,157.51v2.54h2.94v-2.54h.79v6.07h-.79v-2.84h-2.94v2.84h-.78v-6.07h.78Z"/>
    </g>
    <g>
      <circle class="cls-4" cx="54.72" cy="160.39" r="7.75"/>
      <path class="cls-11" d="M53.05,157.2h3.63v.73h-2.76v2.24h2.55v.72h-2.55v3.05h-.87v-6.74Z"/>
    </g>
    <g>
      <circle class="cls-4" cx="179.72" cy="43.39" r="7.75"/>
      <path class="cls-11" d="M182.12,46.31c-.35.13-1.04.33-1.86.33-.92,0-1.67-.23-2.27-.8-.52-.5-.85-1.31-.85-2.26,0-1.81,1.25-3.13,3.29-3.13.7,0,1.25.15,1.51.28l-.19.64c-.32-.14-.73-.26-1.34-.26-1.48,0-2.44.92-2.44,2.44s.93,2.45,2.34,2.45c.51,0,.86-.07,1.04-.16v-1.81h-1.23v-.63h2v2.92Z"/>
    </g>
    <rect class="cls-10" x="36.59" y="76.57" width="124" height="115"/>
    <rect class="cls-8" x="35.09" y="75.07" width="126" height="117"/>
    <g>
      <circle class="cls-4" cx="35.84" cy="75.82" r="7.75"/>
      <path class="cls-11" d="M34.63,77.25l-.7,2.12h-.9l2.29-6.74h1.05l2.3,6.74h-.93l-.72-2.12h-2.39ZM36.84,76.57l-.66-1.94c-.15-.44-.25-.84-.35-1.23h-.02c-.1.4-.21.81-.34,1.22l-.66,1.95h2.03Z"/>
    </g>
    <g>
      <circle class="cls-4" cx="160.72" cy="192.39" r="7.75"/>
      <path class="cls-11" d="M163.29,195.72c-.32.16-.96.32-1.78.32-1.9,0-3.33-1.2-3.33-3.41s1.43-3.54,3.52-3.54c.84,0,1.37.18,1.6.3l-.21.71c-.33-.16-.8-.28-1.36-.28-1.58,0-2.63,1.01-2.63,2.78,0,1.65.95,2.71,2.59,2.71.53,0,1.07-.11,1.42-.28l.18.69Z"/>
    </g>
    <g>
      <circle class="cls-4" cx="34.72" cy="192.39" r="7.75"/>
      <path class="cls-11" d="M32.77,189.29c.38-.08.98-.14,1.59-.14.87,0,1.43.15,1.85.49.35.26.56.66.56,1.19,0,.65-.43,1.22-1.14,1.48v.02c.64.16,1.39.69,1.39,1.69,0,.58-.23,1.02-.57,1.35-.47.43-1.23.63-2.33.63-.6,0-1.06-.04-1.35-.08v-6.63ZM33.64,192.05h.79c.92,0,1.46-.48,1.46-1.13,0-.79-.6-1.1-1.48-1.1-.4,0-.63.03-.77.06v2.17ZM33.64,195.28c.17.03.42.04.73.04.9,0,1.73-.33,1.73-1.31,0-.92-.79-1.3-1.74-1.3h-.72v2.57Z"/>
    </g>
    <g>
      <circle class="cls-4" cx="159.72" cy="75.39" r="7.75"/>
      <path class="cls-11" d="M157.41,72.6c.48-.07,1.04-.13,1.67-.13,1.13,0,1.93.26,2.46.76.54.5.86,1.2.86,2.18s-.31,1.8-.87,2.36c-.57.57-1.5.87-2.68.87-.56,0-1.03-.03-1.42-.07v-5.97ZM158.19,77.96c.2.04.49.04.79.04,1.67,0,2.58-.94,2.58-2.57,0-1.43-.8-2.34-2.46-2.34-.41,0-.71.04-.92.08v4.79Z"/>
    </g>
    <g>
      <circle class="cls-4" cx="221.52" cy="12.01" r="7.75"/>
      <path class="cls-11" d="M221.91,9.14v6.07h-.78v-6.07h.78Z"/>
    </g>
    <g>
      <circle class="cls-4" cx="246.52" cy="52.01" r="7.75"/>
      <path class="cls-11" d="M246.78,49.14h.78v4.06c0,1.61-.79,2.11-1.84,2.11-.29,0-.64-.06-.84-.14l.12-.64c.16.06.4.12.66.12.7,0,1.12-.31,1.12-1.5v-4Z"/>
    </g>
    <g>
      <circle class="cls-4" cx="205.52" cy="47.01" r="7.75"/>
      <path class="cls-11" d="M203.76,44.14h.78v2.93h.03c.16-.23.32-.45.48-.65l1.85-2.28h.97l-2.2,2.57,2.37,3.49h-.93l-2-2.98-.58.67v2.31h-.78v-6.07Z"/>
    </g>
  </g>
  <g>
    <polyline class="cls-10" points="157.86 262.94 157.86 262.94 158.82 336.9 144.44 357.8 145.37 282.47 159.14 262.94"/>
    <line class="cls-8" x1="238.86" y1="263.26" x2="158.82" y2="263.26"/>
    <line class="cls-8" x1="224.14" y1="282.47" x2="238.86" y2="263.26"/>
    <line class="cls-8" x1="226.7" y1="359.31" x2="239.5" y2="337.54"/>
    <line class="cls-8" x1="238.86" y1="263.26" x2="238.86" y2="337.54"/>
    <line class="cls-9" x1="158.82" y1="263.26" x2="158.82" y2="336.9"/>
    <line class="cls-8" x1="145.22" y1="282.11" x2="159.95" y2="262.9"/>
    <line class="cls-9" x1="238.86" y1="336.9" x2="157.54" y2="336.9"/>
    <polyline class="cls-9" points="158.82 336.9 146.01 356.75 158.82 336.9"/>
    <polygon class="cls-10" points="158.82 263.26 146.07 282.19 225.18 282.67 239.03 262.59 158.82 263.26"/>
    <polyline class="cls-10" points="145.14 357.59 158.82 336.9 238.86 337.54 226.06 357.39"/>
    <polygon class="cls-10" points="225.18 282.67 238.36 263.85 237.69 339.15 224.78 357.73 225.18 282.67"/>
    <rect class="cls-10" x="159.14" y="262.94" width="79.4" height="73.64"/>
    <g>
      <circle class="cls-4" cx="158.66" cy="262.46" r="4.96"/>
      <path class="cls-11" d="M158.94,260.41v4.32h-.56v-4.32h.56Z"/>
    </g>
    <g>
      <circle class="cls-4" cx="238.63" cy="337.1" r="4.96"/>
      <path class="cls-11" d="M239.59,337.34c-.02-.38-.04-.83-.04-1.16h-.01c-.09.32-.2.65-.34,1.02l-.48,1.31h-.26l-.44-1.28c-.13-.38-.24-.73-.31-1.05h0c0,.34-.03.79-.05,1.19l-.07,1.16h-.33l.19-2.69h.44l.46,1.3c.11.33.2.63.27.91h.01c.07-.27.16-.57.28-.91l.48-1.3h.44l.17,2.69h-.34l-.07-1.18Z"/>
    </g>
    <g>
      <circle class="cls-4" cx="237.99" cy="262.18" r="4.96"/>
      <path class="cls-11" d="M238.16,260.34h.5v2.6c0,1.03-.51,1.35-1.18,1.35-.18,0-.41-.04-.54-.09l.07-.41c.1.04.25.08.42.08.45,0,.71-.2.71-.96v-2.56Z"/>
    </g>
    <g>
      <circle class="cls-4" cx="157.94" cy="337.1" r="4.96"/>
      <path class="cls-11" d="M156.68,338.88v-3.37h.47l1.08,1.71c.25.4.45.75.61,1.1h0c-.04-.46-.05-.87-.05-1.39v-1.41h.41v3.37h-.44l-1.07-1.71c-.24-.38-.46-.76-.63-1.13h-.01c.03.43.04.84.04,1.4v1.44h-.41Z"/>
    </g>
    <rect class="cls-10" x="146.33" y="283.43" width="79.4" height="73.64"/>
    <rect class="cls-8" x="145.37" y="282.47" width="80.68" height="74.92"/>
    <g>
      <circle class="cls-4" cx="225.82" cy="357.59" r="4.96"/>
      <path class="cls-11" d="M224.8,355.55h.56v3.85h1.85v.47h-2.4v-4.32Z"/>
    </g>
    <g>
      <circle class="cls-4" cx="225.18" cy="282.67" r="4.96"/>
      <path class="cls-11" d="M224.06,280.83h.5v1.88h.02c.1-.15.21-.29.31-.42l1.19-1.46h.62l-1.41,1.65,1.52,2.24h-.59l-1.28-1.91-.37.43v1.48h-.5v-3.89Z"/>
    </g>
    <rect class="cls-10" x="47.73" y="286.58" width="79.4" height="73.64"/>
    <polyline class="cls-10" points="46.45 286.58 46.45 286.58 47.41 360.54 33.03 381.44 33.96 306.11 47.73 286.58"/>
    <line class="cls-8" x1="127.45" y1="286.9" x2="47.41" y2="286.9"/>
    <line class="cls-8" x1="112.72" y1="306.11" x2="127.45" y2="286.9"/>
    <line class="cls-8" x1="115.28" y1="382.95" x2="128.09" y2="361.18"/>
    <line class="cls-8" x1="127.45" y1="286.9" x2="127.45" y2="361.18"/>
    <line class="cls-9" x1="47.41" y1="286.9" x2="47.41" y2="360.54"/>
    <line class="cls-8" x1="33.81" y1="305.75" x2="48.53" y2="286.54"/>
    <line class="cls-9" x1="127.45" y1="360.54" x2="46.13" y2="360.54"/>
    <polyline class="cls-9" points="47.41 360.54 34.6 380.39 47.41 360.54"/>
    <polygon class="cls-10" points="47.41 286.9 34.66 305.83 113.77 306.31 127.62 286.23 47.41 286.9"/>
    <polyline class="cls-10" points="33.72 381.23 47.41 360.54 127.45 361.18 114.64 381.03"/>
    <polygon class="cls-10" points="113.77 306.31 126.95 287.49 126.27 362.79 113.37 381.37 113.77 306.31"/>
    <g>
      <circle class="cls-4" cx="47.25" cy="286.1" r="4.96"/>
      <path class="cls-11" d="M48.39,286.34h-1.68v1.56h1.87v.47h-2.43v-4.32h2.33v.47h-1.78v1.37h1.68v.46Z"/>
    </g>
    <g>
      <circle class="cls-4" cx="127.21" cy="360.74" r="4.96"/>
      <path class="cls-11" d="M126.28,358.9v1.63h1.88v-1.63h.51v3.89h-.51v-1.82h-1.88v1.82h-.5v-3.89h.5Z"/>
    </g>
    <g>
      <circle class="cls-4" cx="46.53" cy="360.74" r="4.96"/>
      <path class="cls-11" d="M45.46,358.69h2.33v.47h-1.77v1.44h1.63v.46h-1.63v1.96h-.56v-4.32Z"/>
    </g>
    <g>
      <circle class="cls-4" cx="126.57" cy="285.82" r="4.96"/>
      <path class="cls-11" d="M128.11,287.69c-.23.08-.67.21-1.19.21-.59,0-1.07-.15-1.45-.51-.33-.32-.54-.84-.54-1.45,0-1.16.8-2.01,2.1-2.01.45,0,.8.1.97.18l-.12.41c-.21-.09-.47-.17-.86-.17-.95,0-1.56.59-1.56,1.56s.59,1.57,1.5,1.57c.33,0,.55-.05.67-.1v-1.16h-.79v-.4h1.28v1.87Z"/>
    </g>
    <rect class="cls-10" x="34.92" y="307.07" width="79.4" height="73.64"/>
    <rect class="cls-8" x="33.96" y="306.11" width="80.68" height="74.92"/>
    <g>
      <circle class="cls-4" cx="34.44" cy="306.59" r="4.96"/>
      <path class="cls-11" d="M33.67,307.5l-.45,1.36h-.58l1.47-4.32h.67l1.47,4.32h-.6l-.46-1.36h-1.53ZM35.08,307.06l-.42-1.24c-.1-.28-.16-.54-.22-.79h-.01c-.06.26-.13.52-.22.78l-.42,1.25h1.3Z"/>
    </g>
    <g>
      <circle class="cls-4" cx="114.41" cy="381.23" r="4.96"/>
      <path class="cls-11" d="M116.06,383.36c-.21.1-.62.21-1.14.21-1.22,0-2.13-.77-2.13-2.19s.92-2.27,2.26-2.27c.54,0,.88.12,1.03.19l-.13.45c-.21-.1-.51-.18-.87-.18-1.01,0-1.69.65-1.69,1.78,0,1.06.61,1.74,1.66,1.74.34,0,.69-.07.91-.18l.12.44Z"/>
    </g>
    <g>
      <circle class="cls-4" cx="33.72" cy="381.23" r="4.96"/>
      <path class="cls-11" d="M32.48,379.24c.24-.05.63-.09,1.02-.09.56,0,.92.1,1.19.31.22.17.36.42.36.76,0,.42-.28.78-.73.95h0c.41.12.89.46.89,1.1,0,.37-.15.65-.37.87-.3.28-.79.4-1.49.4-.38,0-.68-.03-.87-.05v-4.25ZM33.03,381.01h.51c.59,0,.94-.31.94-.72,0-.51-.38-.71-.95-.71-.26,0-.4.02-.49.04v1.39ZM33.03,383.08c.11.02.27.03.47.03.58,0,1.11-.21,1.11-.84,0-.59-.51-.83-1.12-.83h-.46v1.65Z"/>
    </g>
    <g>
      <circle class="cls-4" cx="113.77" cy="306.31" r="4.96"/>
      <path class="cls-11" d="M112.29,304.52c.31-.05.67-.08,1.07-.08.72,0,1.23.17,1.57.48.35.32.55.77.55,1.4s-.2,1.15-.56,1.51c-.36.36-.96.56-1.72.56-.36,0-.66-.02-.91-.05v-3.82ZM112.79,307.96c.13.02.31.03.51.03,1.07,0,1.66-.6,1.66-1.65,0-.92-.51-1.5-1.58-1.5-.26,0-.46.02-.59.05v3.07Z"/>
    </g>
    <g>
      <circle class="cls-4" cx="146.11" cy="358.45" r="4.96"/>
      <path class="cls-11" d="M144.89,356.45c.27-.04.62-.08,1.07-.08.55,0,.95.13,1.21.36.24.21.38.52.38.9s-.12.7-.33.92c-.29.31-.78.47-1.32.47-.17,0-.32,0-.45-.04v1.73h-.56v-4.27ZM145.45,358.54c.12.03.28.04.46.04.67,0,1.08-.33,1.08-.92s-.4-.85-1.02-.85c-.24,0-.43.02-.53.04v1.68Z"/>
    </g>
    <g>
      <circle class="cls-4" cx="146.11" cy="282.45" r="4.96"/>
      <path class="cls-11" d="M147.65,282.5c0,1.16-.71,1.78-1.57,1.78s-1.52-.69-1.52-1.71c0-1.07.67-1.77,1.57-1.77s1.52.71,1.52,1.71ZM145.03,282.56c0,.72.39,1.37,1.08,1.37s1.08-.64,1.08-1.4c0-.67-.35-1.37-1.08-1.37s-1.08.67-1.08,1.41Z"/>
    </g>
  </g>
  <g>
    <g>
      <line class="cls-6" x1="204.59" y1="235.07" x2="312.25" y2="235.07"/>
      <polygon class="cls-12" points="308.11 249.2 332.59 235.07 308.11 220.93 308.11 249.2"/>
    </g>
    <g>
      <rect class="cls-7" x="208.63" y="226.13" width="94.96" height="17.93"/>
      <path class="cls-4" d="M215.61,226.54c.48-.07,1.04-.13,1.67-.13,1.12,0,1.93.26,2.46.76.54.49.86,1.2.86,2.18s-.31,1.8-.87,2.36c-.57.57-1.5.87-2.68.87-.56,0-1.03-.03-1.42-.07v-5.97ZM216.39,231.9c.2.04.49.04.79.04,1.67,0,2.58-.94,2.58-2.57,0-1.43-.8-2.34-2.46-2.34-.41,0-.71.04-.92.08v4.79Z"/>
      <path class="cls-4" d="M225.55,230.31c0,1.61-1.12,2.31-2.17,2.31-1.18,0-2.09-.86-2.09-2.24,0-1.46.95-2.31,2.16-2.31s2.1.91,2.1,2.24ZM222.09,230.35c0,.95.55,1.67,1.32,1.67s1.32-.71,1.32-1.69c0-.74-.37-1.67-1.31-1.67s-1.34.86-1.34,1.69Z"/>
      <path class="cls-4" d="M226.99,230.49c.02,1.07.7,1.51,1.49,1.51.57,0,.91-.1,1.21-.22l.14.57c-.28.13-.76.27-1.45.27-1.34,0-2.14-.88-2.14-2.2s.77-2.35,2.04-2.35c1.42,0,1.8,1.25,1.8,2.05,0,.16-.02.29-.03.37h-3.06ZM229.31,229.92c0-.5-.21-1.29-1.1-1.29-.8,0-1.15.74-1.21,1.29h2.31Z"/>
      <path class="cls-4" d="M230.95,231.71c.23.15.65.32,1.04.32.58,0,.85-.29.85-.65,0-.38-.22-.59-.81-.8-.78-.28-1.15-.71-1.15-1.23,0-.7.57-1.28,1.5-1.28.44,0,.83.13,1.07.27l-.2.58c-.17-.11-.49-.25-.89-.25-.47,0-.73.27-.73.59,0,.36.26.52.83.74.76.29,1.14.67,1.14,1.31,0,.77-.59,1.3-1.63,1.3-.48,0-.92-.12-1.22-.3l.2-.6Z"/>
      <path class="cls-4" d="M237.41,226.94c0,.27-.19.49-.5.49-.28,0-.48-.21-.48-.49s.21-.5.5-.5.49.22.49.5ZM236.53,232.52v-4.36h.79v4.36h-.79Z"/>
      <path class="cls-4" d="M239.59,226.91v1.25h1.13v.6h-1.13v2.35c0,.54.15.85.59.85.21,0,.36-.03.46-.05l.04.59c-.15.06-.4.11-.7.11-.37,0-.67-.12-.86-.33-.23-.23-.31-.62-.31-1.13v-2.38h-.67v-.6h.67v-1.04l.77-.21Z"/>
      <path class="cls-4" d="M243.52,226.13h.79v2.72h.02c.13-.22.32-.42.57-.56.23-.13.51-.23.81-.23.58,0,1.52.36,1.52,1.86v2.59h-.79v-2.5c0-.7-.26-1.3-1.01-1.3-.51,0-.92.36-1.06.79-.05.11-.05.22-.05.38v2.63h-.79v-6.39Z"/>
      <path class="cls-4" d="M250.93,232.52l-.06-.55h-.03c-.24.34-.71.65-1.33.65-.88,0-1.33-.62-1.33-1.25,0-1.05.94-1.63,2.62-1.62v-.09c0-.36-.1-1.01-.99-1.01-.41,0-.83.13-1.13.32l-.18-.52c.36-.23.88-.39,1.43-.39,1.33,0,1.66.91,1.66,1.78v1.63c0,.38.02.75.07,1.04h-.72ZM250.81,230.3c-.86-.02-1.85.13-1.85.98,0,.51.34.76.75.76.57,0,.93-.36,1.05-.73.03-.08.04-.17.04-.25v-.76Z"/>
      <path class="cls-4" d="M253.09,228.16l.86,2.45c.14.4.26.76.35,1.12h.03c.1-.36.23-.72.37-1.12l.85-2.45h.83l-1.71,4.36h-.76l-1.66-4.36h.85Z"/>
      <path class="cls-4" d="M257.46,230.49c.02,1.07.7,1.51,1.49,1.51.57,0,.91-.1,1.21-.22l.14.57c-.28.13-.76.27-1.45.27-1.34,0-2.14-.88-2.14-2.2s.77-2.35,2.04-2.35c1.42,0,1.8,1.25,1.8,2.05,0,.16-.02.29-.03.37h-3.06ZM259.79,229.92c0-.5-.21-1.29-1.1-1.29-.8,0-1.15.74-1.21,1.29h2.31Z"/>
      <path class="cls-4" d="M265.85,232.52l-.06-.55h-.03c-.24.34-.71.65-1.33.65-.88,0-1.33-.62-1.33-1.25,0-1.05.94-1.63,2.62-1.62v-.09c0-.36-.1-1.01-.99-1.01-.41,0-.83.13-1.13.32l-.18-.52c.36-.23.88-.39,1.43-.39,1.33,0,1.66.91,1.66,1.78v1.63c0,.38.02.75.07,1.04h-.72ZM265.74,230.3c-.86-.02-1.85.13-1.85.98,0,.51.34.76.75.76.57,0,.93-.36,1.05-.73.03-.08.04-.17.04-.25v-.76Z"/>
      <path class="cls-4" d="M269.99,228.16l.86,2.45c.14.4.26.76.35,1.12h.03c.1-.36.23-.72.37-1.12l.85-2.45h.83l-1.71,4.36h-.76l-1.66-4.36h.85Z"/>
      <path class="cls-4" d="M277.87,230.31c0,1.61-1.12,2.31-2.17,2.31-1.18,0-2.09-.86-2.09-2.24,0-1.46.95-2.31,2.16-2.31s2.1.91,2.1,2.24ZM274.41,230.35c0,.95.55,1.67,1.32,1.67s1.32-.71,1.32-1.69c0-.74-.37-1.67-1.31-1.67s-1.34.86-1.34,1.69Z"/>
      <path class="cls-4" d="M278.87,226.13h.79v6.39h-.79v-6.39Z"/>
      <path class="cls-4" d="M284.64,231.33c0,.45,0,.85.04,1.19h-.7l-.04-.71h-.02c-.21.35-.67.81-1.44.81-.68,0-1.5-.38-1.5-1.91v-2.55h.79v2.41c0,.83.25,1.39.97,1.39.53,0,.9-.37,1.04-.72.04-.12.07-.26.07-.41v-2.67h.79v3.17Z"/>
      <path class="cls-4" d="M285.95,229.34c0-.45,0-.82-.04-1.18h.69l.04.7h.03c.24-.41.65-.8,1.37-.8.59,0,1.04.36,1.23.87h.02c.13-.24.31-.43.49-.57.26-.2.55-.31.96-.31.58,0,1.43.38,1.43,1.89v2.57h-.77v-2.47c0-.84-.31-1.34-.95-1.34-.45,0-.8.33-.94.72-.04.11-.06.25-.06.4v2.69h-.77v-2.61c0-.69-.31-1.2-.91-1.2-.5,0-.86.4-.98.79-.04.12-.06.25-.06.39v2.63h-.77v-3.18Z"/>
      <path class="cls-4" d="M293.9,230.49c.02,1.07.7,1.51,1.49,1.51.57,0,.91-.1,1.21-.22l.14.57c-.28.13-.76.27-1.45.27-1.34,0-2.14-.88-2.14-2.2s.77-2.35,2.04-2.35c1.42,0,1.8,1.25,1.8,2.05,0,.16-.02.29-.03.37h-3.06ZM296.22,229.92c0-.5-.21-1.29-1.1-1.29-.8,0-1.15.74-1.21,1.29h2.31Z"/>
    </g>
  </g>
  <g>
    <g>
      <line class="cls-6" x1="386.59" y1="177.07" x2="494.25" y2="177.07"/>
      <polygon class="cls-12" points="490.11 191.2 514.59 177.07 490.11 162.93 490.11 191.2"/>
    </g>
    <g>
      <rect class="cls-7" x="391.63" y="167.13" width="94.96" height="17.93"/>
      <path class="cls-4" d="M406.89,170.86c-.04-.85-.1-1.86-.09-2.62h-.03c-.21.71-.46,1.47-.77,2.3l-1.07,2.94h-.59l-.98-2.89c-.29-.86-.53-1.64-.7-2.36h-.02c-.02.76-.06,1.77-.12,2.68l-.16,2.6h-.75l.42-6.07h1l1.04,2.93c.25.75.46,1.41.61,2.04h.03c.15-.61.37-1.28.64-2.04l1.08-2.93h1l.38,6.07h-.76l-.15-2.66Z"/>
      <path class="cls-4" d="M411.45,173.52l-.06-.55h-.03c-.24.34-.71.65-1.33.65-.88,0-1.33-.62-1.33-1.25,0-1.05.94-1.63,2.62-1.62v-.09c0-.36-.1-1.01-.99-1.01-.41,0-.83.13-1.13.32l-.18-.52c.36-.23.88-.39,1.43-.39,1.33,0,1.66.91,1.66,1.78v1.63c0,.38.02.75.07,1.04h-.72ZM411.33,171.3c-.86-.02-1.85.13-1.85.98,0,.51.34.76.75.76.57,0,.93-.36,1.05-.73.03-.08.04-.17.04-.25v-.76Z"/>
      <path class="cls-4" d="M414.16,171.16h.02c.11-.15.26-.34.39-.5l1.28-1.5h.95l-1.68,1.79,1.92,2.57h-.96l-1.5-2.09-.41.45v1.64h-.78v-6.39h.78v4.03Z"/>
      <path class="cls-4" d="M418.04,171.49c.02,1.07.7,1.51,1.49,1.51.57,0,.91-.1,1.21-.22l.14.57c-.28.13-.76.27-1.45.27-1.34,0-2.14-.88-2.14-2.2s.77-2.35,2.04-2.35c1.42,0,1.8,1.25,1.8,2.05,0,.16-.02.29-.03.37h-3.06ZM420.36,170.92c0-.5-.21-1.29-1.1-1.29-.8,0-1.15.74-1.21,1.29h2.31Z"/>
      <path class="cls-4" d="M424.01,170.34c0-.45,0-.82-.04-1.18h.7l.04.72h.02c.22-.41.72-.82,1.44-.82.6,0,1.54.36,1.54,1.85v2.6h-.79v-2.51c0-.7-.26-1.29-1.01-1.29-.52,0-.93.37-1.06.81-.04.1-.05.23-.05.37v2.62h-.79v-3.18Z"/>
      <path class="cls-4" d="M432.95,171.31c0,1.61-1.12,2.31-2.17,2.31-1.18,0-2.09-.86-2.09-2.24,0-1.46.96-2.31,2.16-2.31s2.1.91,2.1,2.24ZM429.49,171.35c0,.95.55,1.67,1.32,1.67s1.32-.71,1.32-1.69c0-.74-.37-1.67-1.31-1.67s-1.34.86-1.34,1.69Z"/>
      <path class="cls-4" d="M433.95,170.34c0-.45,0-.82-.04-1.18h.7l.04.72h.02c.22-.41.72-.82,1.44-.82.6,0,1.54.36,1.54,1.85v2.6h-.79v-2.51c0-.7-.26-1.29-1.01-1.29-.52,0-.93.37-1.06.81-.04.1-.05.23-.05.37v2.62h-.79v-3.18Z"/>
      <path class="cls-4" d="M445.99,170.86c-.04-.85-.1-1.86-.09-2.62h-.03c-.21.71-.46,1.47-.77,2.3l-1.07,2.94h-.59l-.98-2.89c-.29-.86-.53-1.64-.7-2.36h-.02c-.02.76-.06,1.77-.12,2.68l-.16,2.6h-.75l.42-6.07h1l1.04,2.93c.25.75.46,1.41.61,2.04h.03c.15-.61.37-1.28.64-2.04l1.08-2.93h1l.38,6.07h-.76l-.15-2.66Z"/>
      <path class="cls-4" d="M450.55,173.52l-.06-.55h-.03c-.24.34-.71.65-1.33.65-.88,0-1.33-.62-1.33-1.25,0-1.05.94-1.63,2.62-1.62v-.09c0-.36-.1-1.01-.99-1.01-.41,0-.83.13-1.13.32l-.18-.52c.36-.23.88-.39,1.43-.39,1.33,0,1.66.91,1.66,1.78v1.63c0,.38.02.75.07,1.04h-.72ZM450.44,171.3c-.86-.02-1.85.13-1.85.98,0,.51.34.76.75.76.57,0,.93-.36,1.05-.73.03-.08.04-.17.04-.25v-.76Z"/>
      <path class="cls-4" d="M452.48,170.34c0-.45,0-.82-.04-1.18h.7l.04.72h.02c.22-.41.72-.82,1.44-.82.6,0,1.54.36,1.54,1.85v2.6h-.79v-2.51c0-.7-.26-1.29-1.01-1.29-.52,0-.93.37-1.06.81-.04.1-.05.23-.05.37v2.62h-.79v-3.18Z"/>
      <path class="cls-4" d="M458.36,167.94c0,.27-.19.49-.5.49-.28,0-.48-.21-.48-.49s.21-.5.5-.5.49.22.49.5ZM457.47,173.52v-4.36h.79v4.36h-.79Z"/>
      <path class="cls-4" d="M459.66,173.52v-3.75h-.61v-.6h.61v-.21c0-.61.13-1.17.5-1.52.3-.29.69-.4,1.06-.4.28,0,.52.06.67.13l-.11.61c-.12-.05-.28-.1-.5-.1-.68,0-.85.59-.85,1.26v.23h1.05v.6h-1.05v3.75h-.78Z"/>
      <path class="cls-4" d="M466.03,171.31c0,1.61-1.12,2.31-2.17,2.31-1.18,0-2.09-.86-2.09-2.24,0-1.46.95-2.31,2.16-2.31s2.1.91,2.1,2.24ZM462.58,171.35c0,.95.55,1.67,1.32,1.67s1.32-.71,1.32-1.69c0-.74-.37-1.67-1.31-1.67s-1.34.86-1.34,1.69Z"/>
      <path class="cls-4" d="M467.03,167.13h.79v6.39h-.79v-6.39Z"/>
      <path class="cls-4" d="M472.92,167.13v5.27c0,.39,0,.83.04,1.12h-.71l-.04-.76h-.02c-.24.49-.77.86-1.49.86-1.05,0-1.86-.89-1.86-2.21,0-1.45.89-2.34,1.95-2.34.67,0,1.12.32,1.31.67h.02v-2.6h.79ZM472.13,170.94c0-.1,0-.23-.04-.33-.12-.5-.55-.92-1.14-.92-.82,0-1.31.72-1.31,1.68,0,.88.43,1.61,1.29,1.61.53,0,1.02-.35,1.16-.95.03-.11.04-.22.04-.34v-.76Z"/>
      <path class="cls-4" d="M474.12,172.71c.23.15.65.32,1.04.32.58,0,.85-.29.85-.65,0-.38-.22-.59-.81-.8-.78-.28-1.15-.71-1.15-1.23,0-.7.57-1.28,1.5-1.28.44,0,.83.13,1.07.27l-.2.58c-.17-.11-.49-.25-.89-.25-.47,0-.73.27-.73.59,0,.36.26.52.83.74.76.29,1.14.67,1.14,1.31,0,.77-.59,1.3-1.63,1.3-.48,0-.92-.12-1.22-.3l.2-.6Z"/>
      <path class="cls-4" d="M398.28,183.51c.23.15.65.31,1.04.31.58,0,.85-.29.85-.65s-.22-.58-.81-.8c-.78-.28-1.15-.71-1.15-1.23,0-.7.57-1.28,1.5-1.28.44,0,.83.13,1.07.27l-.2.58c-.17-.11-.49-.25-.89-.25-.47,0-.73.27-.73.59,0,.36.26.52.83.74.76.29,1.14.67,1.14,1.31,0,.76-.59,1.31-1.63,1.31-.48,0-.92-.12-1.22-.3l.2-.6Z"/>
      <path class="cls-4" d="M402.39,182.29c.02,1.07.7,1.51,1.49,1.51.57,0,.91-.1,1.21-.23l.14.57c-.28.13-.76.27-1.45.27-1.34,0-2.14-.88-2.14-2.2s.77-2.35,2.04-2.35c1.42,0,1.8,1.25,1.8,2.05,0,.16-.02.29-.03.37h-3.06ZM404.71,181.72c0-.5-.21-1.29-1.1-1.29-.8,0-1.15.74-1.21,1.29h2.31Z"/>
      <path class="cls-4" d="M406.46,181.39c0-.56-.02-1.01-.04-1.42h.71l.04.75h.02c.32-.53.84-.85,1.55-.85,1.05,0,1.85.89,1.85,2.21,0,1.57-.95,2.34-1.98,2.34-.58,0-1.08-.25-1.34-.68h-.02v2.37h-.78v-4.72ZM407.24,182.55c0,.12.02.22.04.32.14.55.62.93,1.19.93.84,0,1.32-.68,1.32-1.68,0-.87-.46-1.62-1.3-1.62-.54,0-1.04.39-1.2.98-.03.1-.05.22-.05.32v.75Z"/>
      <path class="cls-4" d="M412.02,182.29c.02,1.07.7,1.51,1.49,1.51.57,0,.91-.1,1.21-.23l.14.57c-.28.13-.76.27-1.45.27-1.34,0-2.14-.88-2.14-2.2s.77-2.35,2.04-2.35c1.42,0,1.8,1.25,1.8,2.05,0,.16-.02.29-.03.37h-3.06ZM414.34,181.72c0-.5-.21-1.29-1.1-1.29-.8,0-1.15.74-1.21,1.29h2.31Z"/>
      <path class="cls-4" d="M416.09,181.32c0-.51,0-.96-.04-1.36h.69l.03.86h.04c.2-.59.68-.96,1.21-.96.09,0,.15,0,.22.03v.75c-.08-.02-.16-.03-.27-.03-.56,0-.96.42-1.06,1.02-.02.11-.04.23-.04.37v2.32h-.78v-3Z"/>
      <path class="cls-4" d="M421.4,184.32l-.06-.55h-.03c-.24.34-.71.65-1.33.65-.88,0-1.33-.62-1.33-1.25,0-1.05.94-1.63,2.62-1.62v-.09c0-.36-.1-1.01-.99-1.01-.41,0-.83.12-1.13.32l-.18-.52c.36-.23.88-.39,1.43-.39,1.33,0,1.66.91,1.66,1.78v1.63c0,.38.02.75.07,1.04h-.72ZM421.28,182.1c-.86-.02-1.85.14-1.85.98,0,.51.34.76.75.76.57,0,.93-.36,1.05-.73.03-.08.04-.17.04-.25v-.76Z"/>
      <path class="cls-4" d="M424.24,178.71v1.25h1.13v.6h-1.13v2.35c0,.54.15.85.59.85.21,0,.36-.03.46-.05l.04.59c-.15.06-.4.11-.7.11-.37,0-.67-.12-.86-.33-.23-.23-.31-.62-.31-1.13v-2.38h-.67v-.6h.67v-1.04l.77-.21Z"/>
      <path class="cls-4" d="M426.65,182.29c.02,1.07.7,1.51,1.49,1.51.57,0,.91-.1,1.21-.23l.14.57c-.28.13-.76.27-1.45.27-1.34,0-2.14-.88-2.14-2.2s.77-2.35,2.04-2.35c1.42,0,1.8,1.25,1.8,2.05,0,.16-.02.29-.03.37h-3.06ZM428.97,181.72c0-.5-.21-1.29-1.1-1.29-.8,0-1.15.74-1.21,1.29h2.31Z"/>
      <path class="cls-4" d="M437.77,181.66c-.04-.85-.1-1.86-.09-2.62h-.03c-.21.71-.46,1.47-.77,2.3l-1.07,2.94h-.59l-.98-2.89c-.29-.86-.53-1.64-.7-2.36h-.02c-.02.76-.06,1.77-.12,2.68l-.16,2.6h-.75l.42-6.07h1l1.04,2.94c.25.75.46,1.41.61,2.04h.03c.15-.61.37-1.28.64-2.04l1.08-2.94h1l.38,6.07h-.76l-.15-2.67Z"/>
      <path class="cls-4" d="M443.54,183.13c0,.45,0,.85.04,1.19h-.7l-.04-.71h-.02c-.21.35-.67.81-1.44.81-.68,0-1.5-.38-1.5-1.91v-2.55h.79v2.41c0,.83.25,1.39.97,1.39.53,0,.9-.37,1.04-.72.04-.12.07-.26.07-.4v-2.67h.79v3.17Z"/>
      <path class="cls-4" d="M444.85,177.93h.79v6.39h-.79v-6.39Z"/>
      <path class="cls-4" d="M447.93,178.71v1.25h1.13v.6h-1.13v2.35c0,.54.15.85.59.85.21,0,.36-.03.46-.05l.04.59c-.15.06-.4.11-.7.11-.37,0-.67-.12-.86-.33-.23-.23-.31-.62-.31-1.13v-2.38h-.67v-.6h.67v-1.04l.77-.21Z"/>
      <path class="cls-4" d="M450.83,178.74c0,.27-.19.49-.5.49-.28,0-.48-.22-.48-.49s.21-.5.5-.5.49.22.49.5ZM449.95,184.32v-4.36h.79v4.36h-.79Z"/>
      <path class="cls-4" d="M453.86,183.51c.23.15.65.31,1.04.31.58,0,.85-.29.85-.65s-.22-.58-.81-.8c-.78-.28-1.15-.71-1.15-1.23,0-.7.57-1.28,1.5-1.28.44,0,.83.13,1.07.27l-.2.58c-.17-.11-.49-.25-.89-.25-.47,0-.73.27-.73.59,0,.36.26.52.83.74.76.29,1.14.67,1.14,1.31,0,.76-.59,1.31-1.63,1.31-.48,0-.92-.12-1.22-.3l.2-.6Z"/>
      <path class="cls-4" d="M461.18,183.13c0,.45,0,.85.04,1.19h-.7l-.04-.71h-.02c-.21.35-.67.81-1.44.81-.68,0-1.5-.38-1.5-1.91v-2.55h.79v2.41c0,.83.25,1.39.97,1.39.53,0,.9-.37,1.04-.72.04-.12.07-.26.07-.4v-2.67h.79v3.17Z"/>
      <path class="cls-4" d="M462.49,181.32c0-.51,0-.96-.04-1.36h.69l.03.86h.04c.2-.59.68-.96,1.21-.96.09,0,.15,0,.22.03v.75c-.08-.02-.16-.03-.27-.03-.56,0-.95.42-1.06,1.02-.02.11-.04.23-.04.37v2.32h-.78v-3Z"/>
      <path class="cls-4" d="M465.78,184.32v-3.75h-.61v-.6h.61v-.21c0-.61.13-1.17.5-1.52.3-.29.69-.41,1.06-.41.28,0,.52.06.67.13l-.11.61c-.12-.05-.28-.1-.5-.1-.68,0-.85.59-.85,1.26v.23h1.05v.6h-1.05v3.75h-.78Z"/>
      <path class="cls-4" d="M470.74,184.32l-.06-.55h-.03c-.24.34-.71.65-1.33.65-.88,0-1.33-.62-1.33-1.25,0-1.05.94-1.63,2.62-1.62v-.09c0-.36-.1-1.01-.99-1.01-.41,0-.83.12-1.13.32l-.18-.52c.36-.23.88-.39,1.43-.39,1.33,0,1.66.91,1.66,1.78v1.63c0,.38.02.75.07,1.04h-.72ZM470.63,182.1c-.86-.02-1.85.14-1.85.98,0,.51.34.76.75.76.57,0,.93-.36,1.05-.73.03-.08.04-.17.04-.25v-.76Z"/>
      <path class="cls-4" d="M475.77,184.16c-.21.11-.67.25-1.25.25-1.31,0-2.17-.89-2.17-2.22s.92-2.31,2.34-2.31c.47,0,.88.12,1.1.22l-.18.61c-.19-.11-.49-.21-.92-.21-1,0-1.54.74-1.54,1.65,0,1.01.65,1.63,1.51,1.63.45,0,.75-.12.97-.22l.13.59Z"/>
      <path class="cls-4" d="M477.09,182.29c.02,1.07.7,1.51,1.49,1.51.57,0,.91-.1,1.21-.23l.14.57c-.28.13-.76.27-1.45.27-1.34,0-2.14-.88-2.14-2.2s.77-2.35,2.04-2.35c1.42,0,1.8,1.25,1.8,2.05,0,.16-.02.29-.03.37h-3.06ZM479.41,181.72c0-.5-.21-1.29-1.1-1.29-.8,0-1.15.74-1.21,1.29h2.31Z"/>
    </g>
  </g>
  <g>
    <g>
      <line class="cls-6" x1="386.59" y1="79.07" x2="494.25" y2="79.07"/>
      <polygon class="cls-12" points="490.11 93.2 514.59 79.07 490.11 64.93 490.11 93.2"/>
    </g>
    <g>
      <rect class="cls-7" x="390.63" y="70.13" width="94.96" height="17.93"/>
      <path class="cls-4" d="M400.32,70.54c.48-.07,1.04-.13,1.67-.13,1.12,0,1.93.26,2.46.76.54.49.86,1.2.86,2.18s-.31,1.8-.87,2.36c-.57.57-1.5.87-2.68.87-.56,0-1.03-.03-1.42-.07v-5.97ZM401.11,75.9c.2.04.49.04.79.04,1.67,0,2.58-.94,2.58-2.57,0-1.43-.8-2.34-2.46-2.34-.41,0-.71.04-.92.08v4.79Z"/>
      <path class="cls-4" d="M406.77,74.49c.02,1.07.7,1.51,1.49,1.51.57,0,.91-.1,1.21-.22l.14.57c-.28.13-.76.27-1.45.27-1.34,0-2.14-.88-2.14-2.2s.77-2.35,2.04-2.35c1.42,0,1.8,1.25,1.8,2.05,0,.16-.02.29-.03.37h-3.06ZM409.09,73.92c0-.5-.21-1.29-1.1-1.29-.8,0-1.15.74-1.21,1.29h2.31Z"/>
      <path class="cls-4" d="M410.84,70.13h.79v6.39h-.79v-6.39Z"/>
      <path class="cls-4" d="M413.4,74.49c.02,1.07.7,1.51,1.49,1.51.57,0,.91-.1,1.21-.22l.14.57c-.28.13-.76.27-1.45.27-1.34,0-2.14-.88-2.14-2.2s.77-2.35,2.04-2.35c1.42,0,1.8,1.25,1.8,2.05,0,.16-.02.29-.03.37h-3.06ZM415.72,73.92c0-.5-.21-1.29-1.1-1.29-.8,0-1.15.74-1.21,1.29h2.31Z"/>
      <path class="cls-4" d="M418.42,70.91v1.25h1.13v.6h-1.13v2.35c0,.54.15.85.59.85.21,0,.36-.03.46-.05l.04.59c-.15.06-.4.11-.7.11-.37,0-.67-.12-.86-.33-.23-.23-.31-.62-.31-1.13v-2.38h-.67v-.6h.67v-1.04l.77-.21Z"/>
      <path class="cls-4" d="M420.83,74.49c.02,1.07.7,1.51,1.49,1.51.57,0,.91-.1,1.21-.22l.14.57c-.28.13-.76.27-1.45.27-1.34,0-2.14-.88-2.14-2.2s.77-2.35,2.04-2.35c1.42,0,1.8,1.25,1.8,2.05,0,.16-.02.29-.03.37h-3.06ZM423.16,73.92c0-.5-.21-1.29-1.1-1.29-.8,0-1.15.74-1.21,1.29h2.31Z"/>
      <path class="cls-4" d="M426.81,73.34c0-.45,0-.82-.04-1.18h.7l.04.72h.02c.22-.41.72-.82,1.44-.82.6,0,1.54.36,1.54,1.85v2.6h-.79v-2.51c0-.7-.26-1.29-1.01-1.29-.52,0-.93.37-1.06.81-.04.1-.05.23-.05.37v2.62h-.79v-3.18Z"/>
      <path class="cls-4" d="M435.75,74.31c0,1.61-1.12,2.31-2.17,2.31-1.18,0-2.09-.86-2.09-2.24,0-1.46.96-2.31,2.16-2.31s2.1.91,2.1,2.24ZM432.29,74.35c0,.95.55,1.67,1.32,1.67s1.32-.71,1.32-1.69c0-.74-.37-1.67-1.31-1.67s-1.34.86-1.34,1.69Z"/>
      <path class="cls-4" d="M436.75,73.34c0-.45,0-.82-.04-1.18h.7l.04.72h.02c.22-.41.72-.82,1.44-.82.6,0,1.54.36,1.54,1.85v2.6h-.79v-2.51c0-.7-.26-1.29-1.01-1.29-.52,0-.93.37-1.06.81-.04.1-.05.23-.05.37v2.62h-.79v-3.18Z"/>
      <path class="cls-4" d="M443.65,73.34c0-.45,0-.82-.04-1.18h.69l.04.7h.03c.24-.41.65-.8,1.37-.8.59,0,1.04.36,1.23.87h.02c.13-.24.31-.43.49-.57.26-.2.55-.31.96-.31.58,0,1.43.38,1.43,1.89v2.57h-.77v-2.47c0-.84-.31-1.34-.95-1.34-.45,0-.8.33-.94.72-.04.11-.06.25-.06.4v2.69h-.77v-2.61c0-.69-.31-1.2-.91-1.2-.5,0-.86.4-.98.79-.04.12-.06.25-.06.39v2.63h-.77v-3.18Z"/>
      <path class="cls-4" d="M453.57,76.52l-.06-.55h-.03c-.24.34-.71.65-1.33.65-.88,0-1.33-.62-1.33-1.25,0-1.05.94-1.63,2.62-1.62v-.09c0-.36-.1-1.01-.99-1.01-.41,0-.83.13-1.13.32l-.18-.52c.36-.23.88-.39,1.43-.39,1.33,0,1.66.91,1.66,1.78v1.63c0,.38.02.75.07,1.04h-.72ZM453.45,74.3c-.86-.02-1.85.13-1.85.98,0,.51.34.76.75.76.57,0,.93-.36,1.05-.73.03-.08.04-.17.04-.25v-.76Z"/>
      <path class="cls-4" d="M455.49,73.34c0-.45,0-.82-.04-1.18h.7l.04.72h.02c.22-.41.72-.82,1.44-.82.6,0,1.54.36,1.54,1.85v2.6h-.79v-2.51c0-.7-.26-1.29-1.01-1.29-.52,0-.93.37-1.06.81-.04.1-.05.23-.05.37v2.62h-.79v-3.18Z"/>
      <path class="cls-4" d="M461.37,70.94c0,.27-.19.49-.5.49-.28,0-.48-.21-.48-.49s.21-.5.5-.5.49.22.49.5ZM460.49,76.52v-4.36h.79v4.36h-.79Z"/>
      <path class="cls-4" d="M462.67,76.52v-3.75h-.61v-.6h.61v-.21c0-.61.13-1.17.5-1.52.3-.29.69-.4,1.06-.4.28,0,.52.06.67.13l-.11.61c-.12-.05-.28-.1-.5-.1-.68,0-.85.59-.85,1.26v.23h1.05v.6h-1.05v3.75h-.78Z"/>
      <path class="cls-4" d="M469.05,74.31c0,1.61-1.12,2.31-2.17,2.31-1.18,0-2.09-.86-2.09-2.24,0-1.46.95-2.31,2.16-2.31s2.1.91,2.1,2.24ZM465.59,74.35c0,.95.55,1.67,1.32,1.67s1.32-.71,1.32-1.69c0-.74-.37-1.67-1.31-1.67s-1.34.86-1.34,1.69Z"/>
      <path class="cls-4" d="M470.05,70.13h.79v6.39h-.79v-6.39Z"/>
      <path class="cls-4" d="M475.93,70.13v5.27c0,.39,0,.83.04,1.12h-.71l-.04-.76h-.02c-.24.49-.77.86-1.49.86-1.05,0-1.86-.89-1.86-2.21,0-1.45.89-2.34,1.95-2.34.67,0,1.12.32,1.31.67h.02v-2.6h.79ZM475.14,73.94c0-.1,0-.23-.04-.33-.12-.5-.55-.92-1.14-.92-.82,0-1.31.72-1.31,1.68,0,.88.43,1.61,1.29,1.61.53,0,1.02-.35,1.16-.95.03-.11.04-.22.04-.34v-.76Z"/>
      <path class="cls-4" d="M430.97,84.39c0-.56-.02-1.01-.04-1.42h.71l.04.75h.02c.32-.53.84-.85,1.55-.85,1.05,0,1.85.89,1.85,2.21,0,1.57-.95,2.34-1.98,2.34-.58,0-1.08-.25-1.34-.68h-.02v2.37h-.78v-4.72ZM431.75,85.55c0,.12.02.22.04.32.14.55.62.93,1.19.93.84,0,1.32-.68,1.32-1.68,0-.87-.46-1.62-1.3-1.62-.54,0-1.04.39-1.2.98-.03.1-.05.22-.05.32v.75Z"/>
      <path class="cls-4" d="M438.51,87.32l-.06-.55h-.03c-.24.34-.71.65-1.33.65-.88,0-1.33-.62-1.33-1.25,0-1.05.94-1.63,2.62-1.62v-.09c0-.36-.1-1.01-.99-1.01-.41,0-.83.12-1.13.32l-.18-.52c.36-.23.88-.39,1.43-.39,1.33,0,1.66.91,1.66,1.78v1.63c0,.38.02.75.07,1.04h-.72ZM438.39,85.1c-.86-.02-1.85.14-1.85.98,0,.51.34.76.75.76.57,0,.93-.36,1.05-.73.03-.08.04-.17.04-.25v-.76Z"/>
      <path class="cls-4" d="M440.43,84.32c0-.51,0-.96-.04-1.36h.69l.03.86h.04c.2-.59.68-.96,1.21-.96.09,0,.15,0,.22.03v.75c-.08-.02-.16-.03-.27-.03-.56,0-.95.42-1.06,1.02-.02.11-.04.23-.04.37v2.32h-.78v-3Z"/>
      <path class="cls-4" d="M444.54,81.71v1.25h1.13v.6h-1.13v2.35c0,.54.15.85.59.85.21,0,.36-.03.46-.05l.04.59c-.15.06-.4.11-.7.11-.37,0-.67-.12-.86-.33-.23-.23-.31-.62-.31-1.13v-2.38h-.67v-.6h.67v-1.04l.77-.21Z"/>
    </g>
  </g>
  <g>
    <rect class="cls-10" x="538.98" y="21.59" width="92.36" height="85.65"/>
    <polyline class="cls-10" points="537.49 21.59 537.49 21.59 538.61 107.61 521.89 131.92 522.97 44.3 538.98 21.59"/>
    <line class="cls-8" x1="631.71" y1="21.96" x2="538.61" y2="21.96"/>
    <line class="cls-8" x1="614.58" y1="44.3" x2="631.71" y2="21.96"/>
    <line class="cls-8" x1="617.56" y1="133.68" x2="632.45" y2="108.36"/>
    <line class="cls-8" x1="631.71" y1="21.96" x2="631.71" y2="108.36"/>
    <line class="cls-9" x1="538.61" y1="21.96" x2="538.61" y2="107.61"/>
    <line class="cls-8" x1="522.79" y1="43.89" x2="539.92" y2="21.55"/>
    <line class="cls-9" x1="631.71" y1="107.61" x2="537.12" y2="107.61"/>
    <polyline class="cls-9" points="538.61 107.61 523.71 130.7 538.61 107.61"/>
    <polygon class="cls-10" points="538.61 21.96 523.78 43.98 615.79 44.54 631.9 21.18 538.61 21.96"/>
    <polyline class="cls-10" points="522.69 131.68 538.61 107.61 631.71 108.36 616.81 131.45"/>
    <polygon class="cls-10" points="615.79 44.54 631.13 22.65 630.34 110.23 615.33 131.84 615.79 44.54"/>
    <g>
      <circle class="cls-4" cx="538.42" cy="21.03" r="5.77"/>
      <path class="cls-11" d="M539.75,21.32h-1.95v1.81h2.17v.54h-2.82v-5.02h2.71v.54h-2.06v1.59h1.95v.54Z"/>
    </g>
    <g>
      <circle class="cls-4" cx="631.43" cy="107.85" r="5.77"/>
      <path class="cls-11" d="M630.34,105.72v1.89h2.18v-1.89h.59v4.51h-.59v-2.12h-2.18v2.12h-.58v-4.51h.58Z"/>
    </g>
    <g>
      <circle class="cls-4" cx="537.59" cy="107.85" r="5.77"/>
      <path class="cls-11" d="M536.34,105.48h2.7v.54h-2.05v1.67h1.9v.54h-1.9v2.27h-.65v-5.02Z"/>
    </g>
    <g>
      <circle class="cls-4" cx="630.69" cy="20.71" r="5.77"/>
      <path class="cls-11" d="M632.47,22.89c-.26.09-.78.25-1.39.25-.68,0-1.25-.17-1.69-.6-.39-.38-.63-.98-.63-1.68,0-1.35.93-2.33,2.45-2.33.52,0,.93.11,1.12.21l-.14.48c-.24-.11-.54-.19-1-.19-1.1,0-1.82.68-1.82,1.81s.69,1.82,1.74,1.82c.38,0,.64-.05.78-.12v-1.35h-.92v-.47h1.49v2.17Z"/>
    </g>
    <rect class="cls-10" x="524.08" y="45.42" width="92.36" height="85.65"/>
    <rect class="cls-8" x="522.97" y="44.3" width="93.85" height="87.14"/>
    <g>
      <circle class="cls-4" cx="523.52" cy="44.86" r="5.77"/>
      <path class="cls-11" d="M522.62,45.93l-.52,1.58h-.67l1.71-5.02h.78l1.71,5.02h-.69l-.54-1.58h-1.78ZM524.27,45.42l-.49-1.44c-.11-.33-.19-.63-.26-.92h-.02c-.07.3-.16.6-.25.91l-.49,1.45h1.51Z"/>
    </g>
    <g>
      <circle class="cls-4" cx="616.54" cy="131.68" r="5.77"/>
      <path class="cls-11" d="M618.45,134.16c-.24.12-.71.24-1.33.24-1.42,0-2.48-.89-2.48-2.54s1.06-2.64,2.62-2.64c.62,0,1.02.13,1.19.22l-.16.53c-.25-.12-.6-.21-1.01-.21-1.18,0-1.96.75-1.96,2.07,0,1.23.71,2.02,1.93,2.02.39,0,.8-.08,1.06-.21l.13.51Z"/>
    </g>
    <g>
      <circle class="cls-4" cx="522.69" cy="131.68" r="5.77"/>
      <path class="cls-11" d="M521.24,129.38c.28-.06.73-.1,1.18-.1.65,0,1.06.11,1.38.36.26.19.42.49.42.89,0,.48-.32.91-.85,1.1h0c.48.13,1.04.53,1.04,1.27,0,.43-.17.76-.42,1-.35.32-.92.47-1.73.47-.45,0-.79-.03-1.01-.06v-4.94ZM521.89,131.43h.59c.69,0,1.09-.36,1.09-.84,0-.59-.45-.82-1.1-.82-.3,0-.47.02-.57.04v1.62ZM521.89,133.84c.13.02.31.03.54.03.67,0,1.29-.25,1.29-.98,0-.68-.59-.97-1.3-.97h-.54v1.91Z"/>
    </g>
    <g>
      <circle class="cls-4" cx="615.79" cy="44.54" r="5.77"/>
      <path class="cls-11" d="M614.07,42.47c.36-.05.78-.09,1.24-.09.84,0,1.43.19,1.83.56.4.37.64.89.64,1.62s-.23,1.34-.65,1.75c-.42.42-1.12.65-2,.65-.42,0-.76-.02-1.06-.05v-4.44ZM614.65,46.46c.15.03.36.03.59.03,1.25,0,1.92-.7,1.92-1.92,0-1.06-.6-1.74-1.83-1.74-.3,0-.53.03-.68.06v3.56Z"/>
    </g>
  </g>
  <g>
    <rect class="cls-10" x="538.59" y="148.28" width="92.36" height="85.65"/>
    <polyline class="cls-10" points="537.1 148.28 537.1 148.28 538.22 234.3 521.5 258.61 522.58 170.99 538.59 148.28"/>
    <line class="cls-8" x1="631.32" y1="148.65" x2="538.22" y2="148.65"/>
    <line class="cls-8" x1="614.19" y1="170.99" x2="631.32" y2="148.65"/>
    <line class="cls-8" x1="617.17" y1="260.37" x2="632.07" y2="235.05"/>
    <line class="cls-8" x1="631.32" y1="148.65" x2="631.32" y2="235.05"/>
    <line class="cls-9" x1="538.22" y1="148.65" x2="538.22" y2="234.3"/>
    <line class="cls-8" x1="522.4" y1="170.58" x2="539.53" y2="148.24"/>
    <line class="cls-9" x1="631.32" y1="234.3" x2="536.73" y2="234.3"/>
    <polyline class="cls-9" points="538.22 234.3 523.32 257.39 538.22 234.3"/>
    <polygon class="cls-10" points="538.22 148.65 523.39 170.67 615.41 171.23 631.52 147.87 538.22 148.65"/>
    <polyline class="cls-10" points="522.3 258.38 538.22 234.3 631.32 235.05 616.42 258.14"/>
    <polygon class="cls-10" points="615.41 171.23 630.74 149.34 629.96 236.92 614.94 258.53 615.41 171.23"/>
    <polygon class="cls-2" points="650.95 148.28 664.82 123.87 680.22 153.82 650.95 148.28"/>
    <polygon class="cls-5" points="649.95 148.28 663.82 123.87 678.56 151.76 649.95 148.28"/>
    <g>
      <circle class="cls-4" cx="538.03" cy="147.72" r="5.77"/>
      <path class="cls-11" d="M539.37,148.01h-1.95v1.81h2.17v.54h-2.82v-5.02h2.71v.54h-2.06v1.59h1.95v.54Z"/>
    </g>
    <g>
      <circle class="cls-4" cx="631.05" cy="234.54" r="5.77"/>
      <path class="cls-11" d="M629.95,232.41v1.89h2.18v-1.89h.59v4.51h-.59v-2.12h-2.18v2.12h-.58v-4.51h.58Z"/>
    </g>
    <g>
      <circle class="cls-4" cx="537.2" cy="234.54" r="5.77"/>
      <path class="cls-11" d="M535.95,232.17h2.7v.54h-2.05v1.67h1.9v.54h-1.9v2.27h-.65v-5.02Z"/>
    </g>
    <g>
      <circle class="cls-4" cx="630.3" cy="147.4" r="5.77"/>
      <path class="cls-11" d="M632.08,149.58c-.26.09-.78.25-1.39.25-.68,0-1.25-.17-1.69-.6-.39-.38-.63-.98-.63-1.68,0-1.35.93-2.33,2.45-2.33.52,0,.93.11,1.12.21l-.14.48c-.24-.11-.54-.19-1-.19-1.1,0-1.82.68-1.82,1.81s.69,1.82,1.74,1.82c.38,0,.64-.05.78-.12v-1.35h-.92v-.47h1.49v2.17Z"/>
    </g>
    <rect class="cls-10" x="523.7" y="172.11" width="92.36" height="85.65"/>
    <rect class="cls-8" x="522.58" y="170.99" width="93.85" height="87.14"/>
    <g>
      <circle class="cls-4" cx="523.14" cy="171.55" r="5.77"/>
      <path class="cls-11" d="M522.24,172.62l-.52,1.58h-.67l1.71-5.02h.78l1.71,5.02h-.69l-.54-1.58h-1.78ZM523.88,172.11l-.49-1.44c-.11-.33-.19-.63-.26-.92h-.02c-.07.3-.16.6-.25.91l-.49,1.45h1.51Z"/>
    </g>
    <g>
      <circle class="cls-4" cx="616.15" cy="258.38" r="5.77"/>
      <path class="cls-11" d="M618.06,260.86c-.24.12-.71.24-1.33.24-1.42,0-2.48-.89-2.48-2.54s1.07-2.64,2.62-2.64c.63,0,1.02.13,1.19.22l-.16.53c-.25-.12-.6-.21-1.01-.21-1.18,0-1.96.75-1.96,2.07,0,1.23.71,2.02,1.93,2.02.39,0,.8-.08,1.06-.21l.13.51Z"/>
    </g>
    <g>
      <circle class="cls-4" cx="522.3" cy="258.38" r="5.77"/>
      <path class="cls-11" d="M520.85,256.07c.28-.06.73-.1,1.18-.1.65,0,1.06.11,1.38.36.26.19.42.49.42.89,0,.48-.32.91-.85,1.1h0c.48.13,1.04.53,1.04,1.27,0,.43-.17.76-.42,1-.35.32-.92.47-1.74.47-.45,0-.79-.03-1-.06v-4.94ZM521.5,258.12h.59c.69,0,1.09-.36,1.09-.84,0-.59-.45-.82-1.1-.82-.3,0-.47.02-.57.04v1.62ZM521.5,260.53c.13.02.31.03.54.03.67,0,1.29-.25,1.29-.98,0-.68-.59-.97-1.3-.97h-.54v1.91Z"/>
    </g>
    <g>
      <circle class="cls-4" cx="615.41" cy="171.23" r="5.77"/>
      <path class="cls-11" d="M613.68,169.16c.36-.05.78-.09,1.24-.09.84,0,1.43.19,1.83.56.4.37.64.89.64,1.62s-.23,1.34-.65,1.75c-.42.42-1.12.65-2,.65-.42,0-.76-.02-1.06-.05v-4.44ZM614.27,173.15c.15.03.36.03.59.03,1.25,0,1.92-.7,1.92-1.92,0-1.06-.6-1.74-1.83-1.74-.3,0-.53.03-.68.06v3.56Z"/>
    </g>
    <g>
      <circle class="cls-4" cx="662.81" cy="124.03" r="5.77"/>
      <path class="cls-11" d="M663.1,121.9v4.51h-.58v-4.51h.58Z"/>
    </g>
    <g>
      <circle class="cls-4" cx="681.43" cy="153.82" r="5.77"/>
      <path class="cls-11" d="M681.63,151.69h.58v3.02c0,1.2-.59,1.57-1.37,1.57-.21,0-.48-.05-.62-.11l.09-.48c.12.05.29.09.49.09.52,0,.83-.23.83-1.12v-2.97Z"/>
    </g>
    <g>
      <circle class="cls-4" cx="648.96" cy="149.63" r="5.77"/>
      <path class="cls-11" d="M647.66,147.49h.58v2.18h.02c.12-.17.24-.33.35-.48l1.38-1.69h.72l-1.63,1.92,1.76,2.6h-.69l-1.49-2.22-.43.5v1.72h-.58v-4.51Z"/>
    </g>
  </g>
  <g>
    <rect class="cls-7" x="329.55" y="90.97" width="45.04" height="70.6"/>
    <path class="cls-1" d="M337.76,107.24l4.97,7.49c1.3,1.94,2.38,3.74,3.53,5.69h.22c1.15-2.09,2.3-3.89,3.46-5.76l4.9-7.42h6.84l-11.88,16.85,12.24,18h-7.2l-5.11-7.85c-1.37-2.02-2.52-3.96-3.75-6.05h-.14c-1.15,2.09-2.38,3.96-3.67,6.05l-5.04,7.85h-6.98l12.38-17.79-11.81-17.07h7.06Z"/>
  </g>
  <path class="cls-13" d="M334.73,310.27l6.84,19.58c1.15,3.17,2.09,6.05,2.81,8.93h.22c.79-2.88,1.8-5.76,2.95-8.93l6.77-19.58h6.62l-13.68,34.85h-6.05l-13.25-34.85h6.77Z"/>
  <g>
    <rect class="cls-7" x="385.59" y="119.57" width="114.68" height="30.64"/>
    <path class="cls-12" d="M386.28,119.97c.34-.07.88-.13,1.43-.13.78,0,1.29.14,1.67.44.32.23.5.59.5,1.07,0,.58-.39,1.1-1.03,1.33v.02c.58.14,1.25.62,1.25,1.52,0,.52-.21.92-.51,1.22-.42.39-1.11.57-2.1.57-.54,0-.95-.04-1.21-.07v-5.97ZM387.06,122.45h.71c.83,0,1.31-.43,1.31-1.02,0-.71-.54-.99-1.33-.99-.36,0-.57.03-.69.05v1.95ZM387.06,125.36c.15.03.38.04.66.04.81,0,1.56-.3,1.56-1.18,0-.83-.71-1.17-1.57-1.17h-.65v2.31Z"/>
    <path class="cls-12" d="M393.54,125.96l-.06-.55h-.03c-.24.34-.71.65-1.33.65-.88,0-1.33-.62-1.33-1.25,0-1.05.94-1.63,2.62-1.62v-.09c0-.36-.1-1.01-.99-1.01-.41,0-.83.13-1.13.32l-.18-.52c.36-.23.88-.39,1.43-.39,1.33,0,1.66.91,1.66,1.78v1.63c0,.38.02.75.07,1.04h-.72ZM393.42,123.73c-.86-.02-1.85.13-1.85.98,0,.51.34.76.75.76.57,0,.93-.36,1.05-.73.03-.08.04-.17.04-.25v-.76Z"/>
    <path class="cls-12" d="M395.36,125.15c.23.15.65.32,1.04.32.58,0,.85-.29.85-.65s-.22-.58-.81-.8c-.78-.28-1.15-.71-1.15-1.23,0-.7.57-1.28,1.5-1.28.44,0,.83.13,1.07.27l-.2.58c-.17-.11-.49-.25-.89-.25-.47,0-.73.27-.73.59,0,.36.26.52.83.74.76.29,1.14.67,1.14,1.31,0,.77-.59,1.31-1.63,1.31-.48,0-.92-.12-1.22-.3l.2-.6Z"/>
    <path class="cls-12" d="M399.47,123.92c.02,1.07.7,1.51,1.49,1.51.57,0,.91-.1,1.21-.22l.14.57c-.28.13-.76.27-1.45.27-1.34,0-2.14-.88-2.14-2.2s.77-2.35,2.04-2.35c1.42,0,1.8,1.25,1.8,2.05,0,.16-.02.29-.03.37h-3.06ZM401.79,123.36c0-.5-.21-1.29-1.1-1.29-.8,0-1.15.74-1.21,1.29h2.31Z"/>
    <path class="cls-12" d="M407.3,119.56v5.27c0,.39,0,.83.04,1.12h-.71l-.04-.76h-.02c-.24.49-.77.85-1.49.85-1.05,0-1.86-.89-1.86-2.21,0-1.45.89-2.34,1.95-2.34.67,0,1.12.31,1.31.67h.02v-2.6h.79ZM406.51,123.37c0-.1,0-.23-.04-.33-.12-.5-.55-.92-1.14-.92-.82,0-1.3.72-1.3,1.68,0,.88.43,1.61,1.29,1.61.53,0,1.02-.35,1.16-.95.03-.11.04-.22.04-.34v-.76Z"/>
    <path class="cls-12" d="M414.46,123.74c0,1.61-1.12,2.31-2.17,2.31-1.18,0-2.09-.86-2.09-2.24,0-1.46.95-2.31,2.16-2.31s2.1.91,2.1,2.24ZM411.01,123.79c0,.95.55,1.67,1.32,1.67s1.32-.71,1.32-1.69c0-.74-.37-1.67-1.31-1.67s-1.34.86-1.34,1.69Z"/>
    <path class="cls-12" d="M415.46,122.78c0-.45,0-.82-.04-1.18h.7l.04.72h.02c.22-.41.72-.82,1.44-.82.6,0,1.54.36,1.54,1.85v2.6h-.79v-2.51c0-.7-.26-1.29-1.01-1.29-.52,0-.93.37-1.06.81-.04.1-.05.23-.05.37v2.62h-.79v-3.18Z"/>
    <path class="cls-12" d="M426.01,124.77c0,.45,0,.85.04,1.19h-.7l-.04-.71h-.02c-.21.35-.67.81-1.44.81-.68,0-1.5-.38-1.5-1.91v-2.55h.79v2.41c0,.83.25,1.39.97,1.39.53,0,.9-.37,1.04-.72.04-.12.07-.26.07-.41v-2.67h.79v3.17Z"/>
    <path class="cls-12" d="M427.22,125.15c.23.15.65.32,1.04.32.58,0,.85-.29.85-.65s-.22-.58-.81-.8c-.78-.28-1.15-.71-1.15-1.23,0-.7.57-1.28,1.5-1.28.44,0,.83.13,1.07.27l-.2.58c-.17-.11-.49-.25-.89-.25-.47,0-.73.27-.73.59,0,.36.26.52.83.74.76.29,1.14.67,1.14,1.31,0,.77-.59,1.31-1.63,1.31-.48,0-.92-.12-1.22-.3l.2-.6Z"/>
    <path class="cls-12" d="M431.33,123.92c.02,1.07.7,1.51,1.49,1.51.57,0,.91-.1,1.21-.22l.14.57c-.28.13-.76.27-1.45.27-1.34,0-2.14-.88-2.14-2.2s.77-2.35,2.04-2.35c1.42,0,1.8,1.25,1.8,2.05,0,.16-.02.29-.03.37h-3.06ZM433.65,123.36c0-.5-.21-1.29-1.1-1.29-.8,0-1.15.74-1.21,1.29h2.31Z"/>
    <path class="cls-12" d="M435.4,122.96c0-.51,0-.95-.04-1.36h.69l.03.86h.04c.2-.58.68-.95,1.21-.95.09,0,.15,0,.22.03v.75c-.08-.02-.16-.03-.27-.03-.56,0-.95.42-1.06,1.02-.02.11-.04.23-.04.37v2.32h-.78v-3Z"/>
    <path class="cls-12" d="M440.25,122.96c0-.51,0-.95-.04-1.36h.69l.03.86h.04c.2-.58.68-.95,1.21-.95.09,0,.15,0,.22.03v.75c-.08-.02-.16-.03-.27-.03-.56,0-.95.42-1.06,1.02-.02.11-.04.23-.04.37v2.32h-.78v-3Z"/>
    <path class="cls-12" d="M443.54,123.92c.02,1.07.7,1.51,1.49,1.51.57,0,.91-.1,1.21-.22l.14.57c-.28.13-.76.27-1.45.27-1.34,0-2.14-.88-2.14-2.2s.77-2.35,2.04-2.35c1.42,0,1.8,1.25,1.8,2.05,0,.16-.02.29-.03.37h-3.06ZM445.87,123.36c0-.5-.21-1.29-1.1-1.29-.8,0-1.15.74-1.21,1.29h2.31Z"/>
    <path class="cls-12" d="M450.58,125.28h-.02c-.23.43-.72.77-1.42.77-1.02,0-1.85-.88-1.85-2.21,0-1.63,1.05-2.35,1.97-2.35.68,0,1.13.33,1.34.76h.02l.03-.66h.75c-.02.37-.03.75-.03,1.2v4.94h-.79v-2.46ZM450.58,123.36c0-.11,0-.23-.04-.33-.12-.49-.54-.9-1.13-.9-.82,0-1.31.69-1.31,1.67,0,.86.41,1.62,1.29,1.62.51,0,.95-.32,1.13-.86.04-.11.06-.26.06-.38v-.82Z"/>
    <path class="cls-12" d="M456.32,124.77c0,.45,0,.85.04,1.19h-.7l-.04-.71h-.02c-.21.35-.67.81-1.44.81-.68,0-1.5-.38-1.5-1.91v-2.55h.79v2.41c0,.83.25,1.39.97,1.39.53,0,.9-.37,1.04-.72.04-.12.07-.26.07-.41v-2.67h.79v3.17Z"/>
    <path class="cls-12" d="M458.52,120.37c0,.27-.19.49-.5.49-.28,0-.48-.22-.48-.49s.21-.5.5-.5.49.22.49.5ZM457.64,125.96v-4.36h.79v4.36h-.79Z"/>
    <path class="cls-12" d="M459.74,122.96c0-.51,0-.95-.04-1.36h.69l.03.86h.04c.2-.58.68-.95,1.21-.95.09,0,.15,0,.22.03v.75c-.08-.02-.16-.03-.27-.03-.56,0-.96.42-1.06,1.02-.02.11-.04.23-.04.37v2.32h-.78v-3Z"/>
    <path class="cls-12" d="M463.04,123.92c.02,1.07.7,1.51,1.49,1.51.57,0,.91-.1,1.21-.22l.14.57c-.28.13-.76.27-1.45.27-1.34,0-2.14-.88-2.14-2.2s.77-2.35,2.04-2.35c1.42,0,1.8,1.25,1.8,2.05,0,.16-.02.29-.03.37h-3.06ZM465.36,123.36c0-.5-.21-1.29-1.1-1.29-.8,0-1.15.74-1.21,1.29h2.31Z"/>
    <path class="cls-12" d="M467.1,122.78c0-.45,0-.82-.04-1.18h.69l.04.7h.03c.24-.41.65-.8,1.37-.8.59,0,1.04.36,1.23.87h.02c.13-.24.31-.43.49-.57.26-.2.55-.31.96-.31.58,0,1.43.38,1.43,1.89v2.57h-.77v-2.47c0-.84-.31-1.34-.95-1.34-.45,0-.8.33-.94.72-.04.11-.06.25-.06.4v2.69h-.77v-2.61c0-.69-.31-1.2-.91-1.2-.5,0-.86.4-.98.79-.04.12-.06.25-.06.39v2.63h-.77v-3.18Z"/>
    <path class="cls-12" d="M475.05,123.92c.02,1.07.7,1.51,1.49,1.51.57,0,.91-.1,1.21-.22l.14.57c-.28.13-.76.27-1.45.27-1.34,0-2.14-.88-2.14-2.2s.77-2.35,2.04-2.35c1.42,0,1.8,1.25,1.8,2.05,0,.16-.02.29-.03.37h-3.06ZM477.37,123.36c0-.5-.21-1.29-1.1-1.29-.8,0-1.15.74-1.21,1.29h2.31Z"/>
    <path class="cls-12" d="M479.12,122.78c0-.45,0-.82-.04-1.18h.7l.04.72h.02c.22-.41.72-.82,1.44-.82.6,0,1.54.36,1.54,1.85v2.6h-.79v-2.51c0-.7-.26-1.29-1.01-1.29-.52,0-.93.37-1.06.81-.04.1-.05.23-.05.37v2.62h-.79v-3.18Z"/>
    <path class="cls-12" d="M485.03,120.35v1.25h1.13v.6h-1.13v2.35c0,.54.15.85.59.85.21,0,.36-.03.46-.05l.04.59c-.15.06-.4.11-.7.11-.37,0-.67-.12-.86-.33-.23-.23-.31-.62-.31-1.13v-2.38h-.67v-.6h.67v-1.04l.77-.21Z"/>
    <path class="cls-12" d="M486.95,125.15c.23.15.65.32,1.04.32.58,0,.85-.29.85-.65s-.22-.58-.81-.8c-.78-.28-1.15-.71-1.15-1.23,0-.7.57-1.28,1.5-1.28.44,0,.83.13,1.07.27l-.2.58c-.17-.11-.49-.25-.89-.25-.47,0-.73.27-.73.59,0,.36.26.52.83.74.76.29,1.14.67,1.14,1.31,0,.77-.59,1.31-1.63,1.31-.48,0-.92-.12-1.22-.3l.2-.6Z"/>
  </g>
  <g>
    <polyline class="cls-3" points="633.4 288.93 633.4 288.93 634.25 355.03 621.41 373.71 622.24 306.39 634.54 288.93"/>
    <line class="cls-8" x1="705.78" y1="289.22" x2="634.25" y2="289.22"/>
    <line class="cls-8" x1="692.62" y1="306.39" x2="705.78" y2="289.22"/>
    <line class="cls-8" x1="694.91" y1="375.06" x2="706.36" y2="355.6"/>
    <line class="cls-8" x1="705.78" y1="289.22" x2="705.78" y2="355.6"/>
    <line class="cls-9" x1="634.25" y1="289.22" x2="634.25" y2="355.03"/>
    <line class="cls-8" x1="622.1" y1="306.07" x2="635.26" y2="288.9"/>
    <line class="cls-9" x1="705.78" y1="355.03" x2="633.11" y2="355.03"/>
    <polyline class="cls-9" points="634.25 355.03 622.81 372.77 634.25 355.03"/>
    <polygon class="cls-10" points="634.25 289.22 622.86 306.14 693.56 306.57 705.93 288.62 634.25 289.22"/>
    <polyline class="cls-3" points="622.03 373.52 634.25 355.03 705.78 355.6 694.34 373.34"/>
    <polygon class="cls-3" points="693.56 306.57 705.34 289.75 704.73 357.04 693.2 373.64 693.56 306.57"/>
    <rect class="cls-3" x="634.54" y="288.93" width="70.96" height="65.81"/>
    <g>
      <circle class="cls-4" cx="634.11" cy="288.5" r="4.43"/>
      <path class="cls-11" d="M634.36,286.68v3.86h-.5v-3.86h.5Z"/>
    </g>
    <g>
      <circle class="cls-4" cx="705.57" cy="355.21" r="4.43"/>
      <path class="cls-11" d="M706.44,355.42c-.02-.34-.04-.74-.04-1.04h-.01c-.08.28-.18.58-.3.91l-.42,1.17h-.24l-.39-1.15c-.11-.34-.21-.65-.28-.94h0c0,.3-.03.7-.05,1.06l-.06,1.03h-.3l.17-2.41h.4l.41,1.16c.1.3.18.56.24.81h.01c.06-.24.15-.51.25-.81l.43-1.16h.4l.15,2.41h-.3l-.06-1.06Z"/>
    </g>
    <g>
      <circle class="cls-4" cx="705" cy="288.26" r="4.43"/>
      <path class="cls-11" d="M705.15,286.61h.45v2.33c0,.92-.45,1.21-1.05,1.21-.17,0-.37-.04-.48-.08l.07-.37c.09.04.23.07.38.07.4,0,.64-.18.64-.86v-2.29Z"/>
    </g>
    <g>
      <circle class="cls-4" cx="633.47" cy="355.21" r="4.43"/>
      <path class="cls-11" d="M632.34,356.8v-3.01h.42l.97,1.52c.22.35.4.67.54.98h0c-.04-.41-.04-.77-.04-1.24v-1.26h.37v3.01h-.39l-.96-1.53c-.21-.33-.41-.68-.56-1.01h-.01c.02.38.03.75.03,1.25v1.29h-.37Z"/>
    </g>
    <rect class="cls-3" x="623.1" y="307.25" width="70.96" height="65.81"/>
    <rect class="cls-8" x="622.24" y="306.39" width="72.1" height="66.95"/>
    <g>
      <circle class="cls-4" cx="694.13" cy="373.52" r="4.43"/>
      <path class="cls-11" d="M693.21,371.7h.5v3.44h1.65v.42h-2.15v-3.86Z"/>
    </g>
    <g>
      <circle class="cls-4" cx="693.56" cy="306.57" r="4.43"/>
      <path class="cls-11" d="M692.55,304.92h.45v1.68h.02c.09-.13.19-.26.27-.37l1.06-1.31h.56l-1.26,1.48,1.36,2h-.53l-1.14-1.71-.33.38v1.33h-.45v-3.48Z"/>
    </g>
    <rect class="cls-10" x="534.98" y="310.06" width="70.96" height="65.81"/>
    <polyline class="cls-10" points="533.83 310.06 533.83 310.06 534.69 376.15 521.84 394.83 522.67 327.51 534.98 310.06"/>
    <line class="cls-8" x1="606.22" y1="310.35" x2="534.69" y2="310.35"/>
    <line class="cls-8" x1="593.06" y1="327.51" x2="606.22" y2="310.35"/>
    <line class="cls-8" x1="595.35" y1="396.18" x2="606.79" y2="376.73"/>
    <line class="cls-8" x1="606.22" y1="310.35" x2="606.22" y2="376.73"/>
    <line class="cls-9" x1="534.69" y1="310.35" x2="534.69" y2="376.15"/>
    <line class="cls-8" x1="522.54" y1="327.2" x2="535.7" y2="310.03"/>
    <line class="cls-9" x1="606.22" y1="376.15" x2="533.55" y2="376.15"/>
    <polyline class="cls-9" points="534.69 376.15 523.25 393.89 534.69 376.15"/>
    <polygon class="cls-10" points="534.69 310.35 523.3 327.26 593.99 327.7 606.37 309.75 534.69 310.35"/>
    <polyline class="cls-10" points="522.46 394.65 534.69 376.15 606.22 376.73 594.77 394.46"/>
    <polygon class="cls-10" points="593.99 327.7 605.77 310.88 605.17 378.16 593.64 394.77 593.99 327.7"/>
    <g>
      <circle class="cls-4" cx="534.55" cy="309.63" r="4.43"/>
      <path class="cls-11" d="M535.57,309.85h-1.5v1.39h1.67v.42h-2.17v-3.86h2.08v.42h-1.58v1.22h1.5v.41Z"/>
    </g>
    <g>
      <circle class="cls-4" cx="606.01" cy="376.34" r="4.43"/>
      <path class="cls-11" d="M605.17,374.69v1.46h1.68v-1.46h.45v3.48h-.45v-1.63h-1.68v1.63h-.45v-3.48h.45Z"/>
    </g>
    <g>
      <circle class="cls-4" cx="533.91" cy="376.34" r="4.43"/>
      <path class="cls-11" d="M532.95,374.51h2.08v.42h-1.58v1.28h1.46v.41h-1.46v1.75h-.5v-3.86Z"/>
    </g>
    <g>
      <circle class="cls-4" cx="605.44" cy="309.38" r="4.43"/>
      <path class="cls-11" d="M606.81,311.06c-.2.07-.6.19-1.07.19-.53,0-.96-.13-1.3-.46-.3-.29-.49-.75-.49-1.29,0-1.04.72-1.79,1.88-1.79.4,0,.72.09.87.16l-.11.37c-.19-.08-.42-.15-.77-.15-.85,0-1.4.53-1.4,1.4s.53,1.4,1.34,1.4c.29,0,.5-.04.6-.09v-1.04h-.71v-.36h1.15v1.67Z"/>
    </g>
    <rect class="cls-10" x="523.53" y="328.37" width="70.96" height="65.81"/>
    <rect class="cls-8" x="522.67" y="327.51" width="72.1" height="66.95"/>
    <g>
      <circle class="cls-4" cx="523.1" cy="327.94" r="4.43"/>
      <path class="cls-11" d="M522.41,328.76l-.4,1.21h-.52l1.31-3.86h.6l1.32,3.86h-.53l-.41-1.21h-1.37ZM523.67,328.37l-.38-1.11c-.09-.25-.14-.48-.2-.7h-.01c-.06.23-.12.46-.19.7l-.38,1.12h1.16Z"/>
    </g>
    <g>
      <circle class="cls-4" cx="594.56" cy="394.65" r="4.43"/>
      <path class="cls-11" d="M596.04,396.55c-.18.09-.55.18-1.02.18-1.09,0-1.91-.69-1.91-1.95s.82-2.03,2.01-2.03c.48,0,.78.1.92.17l-.12.41c-.19-.09-.46-.16-.78-.16-.9,0-1.5.58-1.5,1.59,0,.94.54,1.55,1.48,1.55.3,0,.61-.06.81-.16l.1.39Z"/>
    </g>
    <g>
      <circle class="cls-4" cx="522.46" cy="394.65" r="4.43"/>
      <path class="cls-11" d="M521.35,392.88c.22-.05.56-.08.91-.08.5,0,.82.09,1.06.28.2.15.32.38.32.68,0,.37-.25.7-.65.85h0c.37.1.8.41.8.98,0,.33-.13.58-.33.77-.27.25-.7.36-1.33.36-.34,0-.61-.02-.77-.05v-3.79ZM521.84,394.45h.45c.53,0,.83-.28.83-.65,0-.45-.34-.63-.85-.63-.23,0-.36.02-.44.03v1.24ZM521.84,396.3c.1.02.24.02.42.02.51,0,.99-.19.99-.75,0-.53-.45-.74-1-.74h-.41v1.47Z"/>
    </g>
    <g>
      <circle class="cls-4" cx="593.99" cy="327.7" r="4.43"/>
      <path class="cls-11" d="M592.67,326.1c.27-.04.6-.07.95-.07.65,0,1.1.15,1.41.43.31.28.49.69.49,1.25s-.18,1.03-.5,1.35c-.33.33-.86.5-1.54.5-.32,0-.59-.02-.82-.04v-3.42ZM593.12,329.17c.11.02.28.03.45.03.96,0,1.48-.54,1.48-1.47,0-.82-.46-1.34-1.41-1.34-.23,0-.41.02-.53.05v2.74Z"/>
    </g>
    <g>
      <circle class="cls-4" cx="622.89" cy="374.29" r="4.43"/>
      <path class="cls-11" d="M621.8,372.51c.24-.04.56-.08.96-.08.49,0,.85.12,1.08.32.21.18.34.46.34.81s-.1.62-.3.82c-.26.28-.69.42-1.18.42-.15,0-.29,0-.4-.03v1.54h-.5v-3.81ZM622.3,374.37c.11.03.25.04.41.04.6,0,.97-.29.97-.82s-.36-.75-.91-.75c-.22,0-.38.02-.47.04v1.5Z"/>
    </g>
    <g>
      <circle class="cls-4" cx="622.89" cy="306.37" r="4.43"/>
      <path class="cls-11" d="M624.27,306.42c0,1.04-.63,1.59-1.4,1.59s-1.35-.62-1.35-1.53c0-.96.59-1.58,1.4-1.58s1.35.63,1.35,1.52ZM621.93,306.47c0,.64.35,1.22.96,1.22s.97-.57.97-1.25c0-.6-.31-1.22-.96-1.22s-.96.59-.96,1.26Z"/>
    </g>
  </g>
  <g>
    <g>
      <line class="cls-6" x1="387.01" y1="315.07" x2="494.67" y2="315.07"/>
      <polygon class="cls-12" points="490.53 329.2 515.01 315.07 490.53 300.93 490.53 329.2"/>
    </g>
    <g>
      <rect class="cls-7" x="391.05" y="306.13" width="94.96" height="17.93"/>
      <path class="cls-4" d="M403.42,309.86c-.04-.85-.1-1.86-.09-2.62h-.03c-.21.71-.46,1.47-.77,2.3l-1.07,2.94h-.59l-.98-2.89c-.29-.86-.53-1.64-.7-2.36h-.02c-.02.76-.06,1.77-.12,2.68l-.16,2.6h-.75l.42-6.07h1l1.04,2.93c.25.75.46,1.41.61,2.04h.03c.15-.61.37-1.28.64-2.04l1.08-2.93h1l.38,6.07h-.76l-.15-2.66Z"/>
      <path class="cls-4" d="M407.99,312.52l-.06-.55h-.03c-.24.34-.71.65-1.33.65-.88,0-1.33-.62-1.33-1.25,0-1.05.94-1.63,2.62-1.62v-.09c0-.36-.1-1.01-.99-1.01-.41,0-.83.13-1.13.32l-.18-.52c.36-.23.88-.39,1.43-.39,1.33,0,1.66.91,1.66,1.78v1.63c0,.38.02.75.07,1.04h-.72ZM407.87,310.3c-.86-.02-1.85.13-1.85.98,0,.51.34.76.75.76.57,0,.93-.36,1.05-.73.03-.08.04-.17.04-.25v-.76Z"/>
      <path class="cls-4" d="M410.69,310.16h.02c.11-.15.26-.34.39-.5l1.28-1.5h.95l-1.68,1.79,1.92,2.57h-.96l-1.5-2.09-.41.45v1.64h-.78v-6.39h.78v4.03Z"/>
      <path class="cls-4" d="M414.57,310.49c.02,1.07.7,1.51,1.49,1.51.57,0,.91-.1,1.21-.22l.14.57c-.28.13-.76.27-1.45.27-1.34,0-2.14-.88-2.14-2.2s.77-2.35,2.04-2.35c1.42,0,1.8,1.25,1.8,2.05,0,.16-.02.29-.03.37h-3.06ZM416.9,309.92c0-.5-.21-1.29-1.1-1.29-.8,0-1.15.74-1.21,1.29h2.31Z"/>
      <path class="cls-4" d="M425.69,309.86c-.04-.85-.1-1.86-.09-2.62h-.03c-.21.71-.46,1.47-.77,2.3l-1.07,2.94h-.59l-.98-2.89c-.29-.86-.53-1.64-.7-2.36h-.02c-.02.76-.06,1.77-.12,2.68l-.16,2.6h-.75l.42-6.07h1l1.04,2.93c.25.75.46,1.41.61,2.04h.03c.15-.61.37-1.28.64-2.04l1.08-2.93h1l.38,6.07h-.76l-.15-2.66Z"/>
      <path class="cls-4" d="M431.46,311.33c0,.45,0,.85.04,1.19h-.7l-.04-.71h-.02c-.21.35-.67.81-1.44.81-.68,0-1.5-.38-1.5-1.91v-2.55h.79v2.41c0,.83.25,1.39.97,1.39.53,0,.9-.37,1.04-.72.04-.12.07-.26.07-.41v-2.67h.79v3.17Z"/>
      <path class="cls-4" d="M432.77,306.13h.79v6.39h-.79v-6.39Z"/>
      <path class="cls-4" d="M435.85,306.91v1.25h1.13v.6h-1.13v2.35c0,.54.15.85.59.85.21,0,.36-.03.46-.05l.04.59c-.15.06-.4.11-.7.11-.37,0-.67-.12-.86-.33-.23-.23-.31-.62-.31-1.13v-2.38h-.67v-.6h.67v-1.04l.77-.21Z"/>
      <path class="cls-4" d="M438.76,306.94c0,.27-.19.49-.5.49-.28,0-.48-.21-.48-.49s.21-.5.5-.5.49.22.49.5ZM437.87,312.52v-4.36h.79v4.36h-.79Z"/>
      <path class="cls-4" d="M441.82,309.79v.58h-2.22v-.58h2.22Z"/>
      <path class="cls-4" d="M442.66,311.57c.35.21.86.4,1.4.4.8,0,1.27-.42,1.27-1.04,0-.57-.32-.89-1.14-1.21-.99-.35-1.6-.87-1.6-1.72,0-.95.78-1.65,1.96-1.65.62,0,1.07.14,1.34.3l-.22.64c-.2-.11-.6-.29-1.15-.29-.83,0-1.14.49-1.14.91,0,.57.37.85,1.21,1.17,1.03.4,1.55.89,1.55,1.78,0,.94-.69,1.75-2.12,1.75-.58,0-1.22-.17-1.55-.39l.2-.66Z"/>
      <path class="cls-4" d="M451.18,310.31c0,1.61-1.12,2.31-2.17,2.31-1.18,0-2.09-.86-2.09-2.24,0-1.46.95-2.31,2.16-2.31s2.1.91,2.1,2.24ZM447.72,310.35c0,.95.55,1.67,1.32,1.67s1.32-.71,1.32-1.69c0-.74-.37-1.67-1.31-1.67s-1.34.86-1.34,1.69Z"/>
      <path class="cls-4" d="M452.17,306.13h.79v6.39h-.79v-6.39Z"/>
      <path class="cls-4" d="M455.18,306.94c0,.27-.19.49-.5.49-.28,0-.48-.21-.48-.49s.21-.5.5-.5.49.22.49.5ZM454.3,312.52v-4.36h.79v4.36h-.79Z"/>
      <path class="cls-4" d="M460.17,306.13v5.27c0,.39,0,.83.04,1.12h-.71l-.04-.76h-.02c-.24.49-.77.86-1.49.86-1.05,0-1.86-.89-1.86-2.21,0-1.45.89-2.34,1.95-2.34.67,0,1.12.32,1.31.67h.02v-2.6h.79ZM459.37,309.94c0-.1,0-.23-.04-.33-.12-.5-.55-.92-1.14-.92-.82,0-1.31.72-1.31,1.68,0,.88.43,1.61,1.29,1.61.53,0,1.02-.35,1.16-.95.03-.11.04-.22.04-.34v-.76Z"/>
      <path class="cls-4" d="M463.7,308.16l.58,2.21c.13.49.24.94.32,1.39h.03c.1-.44.24-.91.39-1.38l.71-2.22h.67l.67,2.18c.16.52.29.98.39,1.42h.03c.07-.44.19-.9.33-1.41l.62-2.19h.78l-1.4,4.36h-.72l-.67-2.08c-.15-.49-.28-.92-.39-1.43h-.02c-.11.52-.24.97-.4,1.44l-.7,2.07h-.72l-1.31-4.36h.81Z"/>
      <path class="cls-4" d="M470.89,306.94c0,.27-.19.49-.5.49-.28,0-.48-.21-.48-.49s.21-.5.5-.5.49.22.49.5ZM470.01,312.52v-4.36h.79v4.36h-.79Z"/>
      <path class="cls-4" d="M473.07,306.91v1.25h1.13v.6h-1.13v2.35c0,.54.15.85.59.85.21,0,.36-.03.46-.05l.04.59c-.15.06-.4.11-.7.11-.37,0-.67-.12-.86-.33-.23-.23-.31-.62-.31-1.13v-2.38h-.67v-.6h.67v-1.04l.77-.21Z"/>
      <path class="cls-4" d="M475.1,306.13h.79v2.72h.02c.13-.22.32-.42.57-.56.23-.13.51-.23.81-.23.58,0,1.52.36,1.52,1.86v2.59h-.79v-2.5c0-.7-.26-1.3-1.01-1.3-.51,0-.92.36-1.06.79-.05.11-.05.22-.05.38v2.63h-.79v-6.39Z"/>
      <path class="cls-4" d="M421.23,317.71v1.25h1.13v.6h-1.13v2.35c0,.54.15.85.59.85.21,0,.36-.03.46-.05l.04.59c-.15.06-.4.11-.7.11-.37,0-.67-.12-.86-.33-.23-.23-.31-.62-.31-1.13v-2.38h-.67v-.6h.67v-1.04l.77-.21Z"/>
      <path class="cls-4" d="M423.65,318.97l.58,2.21c.13.49.24.94.32,1.39h.03c.1-.44.24-.91.39-1.38l.71-2.22h.67l.67,2.18c.16.52.29.98.39,1.42h.03c.07-.44.19-.9.33-1.41l.62-2.19h.78l-1.4,4.36h-.72l-.67-2.08c-.15-.49-.28-.92-.39-1.43h-.02c-.11.52-.24.97-.4,1.44l-.7,2.07h-.72l-1.31-4.36h.81Z"/>
      <path class="cls-4" d="M433.82,321.11c0,1.61-1.12,2.31-2.17,2.31-1.18,0-2.09-.86-2.09-2.24,0-1.46.96-2.31,2.16-2.31s2.1.91,2.1,2.24ZM430.36,321.15c0,.95.55,1.67,1.32,1.67s1.32-.71,1.32-1.69c0-.74-.37-1.68-1.31-1.68s-1.34.87-1.34,1.69Z"/>
      <path class="cls-4" d="M436.61,322.51c.23.15.65.31,1.04.31.58,0,.85-.29.85-.65s-.22-.58-.81-.8c-.78-.28-1.15-.71-1.15-1.23,0-.7.57-1.28,1.5-1.28.44,0,.83.13,1.07.27l-.2.58c-.17-.11-.49-.25-.89-.25-.47,0-.73.27-.73.59,0,.36.26.52.83.74.76.29,1.14.67,1.14,1.31,0,.76-.59,1.31-1.63,1.31-.48,0-.92-.12-1.22-.3l.2-.6Z"/>
      <path class="cls-4" d="M444.23,321.11c0,1.61-1.12,2.31-2.17,2.31-1.18,0-2.09-.86-2.09-2.24,0-1.46.95-2.31,2.16-2.31s2.1.91,2.1,2.24ZM440.77,321.15c0,.95.55,1.67,1.32,1.67s1.32-.71,1.32-1.69c0-.74-.37-1.68-1.31-1.68s-1.34.87-1.34,1.69Z"/>
      <path class="cls-4" d="M445.23,316.93h.79v6.39h-.79v-6.39Z"/>
      <path class="cls-4" d="M448.23,317.74c0,.27-.19.49-.5.49-.28,0-.48-.22-.48-.49s.21-.5.5-.5.49.22.49.5ZM447.35,323.32v-4.36h.79v4.36h-.79Z"/>
      <path class="cls-4" d="M453.22,316.93v5.27c0,.39,0,.83.04,1.13h-.71l-.04-.76h-.02c-.24.49-.77.86-1.49.86-1.05,0-1.86-.89-1.86-2.21,0-1.45.89-2.34,1.95-2.34.67,0,1.12.32,1.31.67h.02v-2.6h.79ZM452.43,320.74c0-.1,0-.23-.04-.33-.12-.5-.55-.92-1.14-.92-.82,0-1.31.72-1.31,1.68,0,.88.43,1.61,1.29,1.61.53,0,1.02-.35,1.16-.95.03-.11.04-.22.04-.34v-.76Z"/>
      <path class="cls-4" d="M454.42,322.51c.23.15.65.31,1.04.31.58,0,.85-.29.85-.65s-.22-.58-.81-.8c-.78-.28-1.15-.71-1.15-1.23,0-.7.57-1.28,1.5-1.28.44,0,.83.13,1.07.27l-.2.58c-.17-.11-.49-.25-.89-.25-.47,0-.73.27-.73.59,0,.36.26.52.83.74.76.29,1.14.67,1.14,1.31,0,.76-.59,1.31-1.63,1.31-.48,0-.92-.12-1.22-.3l.2-.6Z"/>
    </g>
  </g>
  <g>
    <rect class="cls-7" x="390.1" y="346.26" width="114.68" height="30.64"/>
    <path class="cls-12" d="M390.79,346.66c.34-.07.88-.13,1.43-.13.78,0,1.29.14,1.67.44.32.23.5.59.5,1.07,0,.58-.39,1.1-1.03,1.33v.02c.58.14,1.25.62,1.25,1.52,0,.52-.21.92-.51,1.22-.42.39-1.11.57-2.1.57-.54,0-.95-.04-1.21-.07v-5.97ZM391.57,349.14h.71c.83,0,1.31-.43,1.31-1.02,0-.71-.54-.99-1.33-.99-.36,0-.57.03-.69.05v1.95ZM391.57,352.05c.15.03.38.04.66.04.81,0,1.56-.3,1.56-1.18,0-.83-.71-1.17-1.57-1.17h-.65v2.31Z"/>
    <path class="cls-12" d="M398.05,352.65l-.06-.55h-.03c-.24.34-.71.65-1.33.65-.88,0-1.33-.62-1.33-1.25,0-1.05.94-1.63,2.62-1.62v-.09c0-.36-.1-1.01-.99-1.01-.41,0-.83.13-1.13.32l-.18-.52c.36-.23.88-.39,1.43-.39,1.33,0,1.66.91,1.66,1.78v1.63c0,.38.02.75.07,1.04h-.72ZM397.93,350.42c-.86-.02-1.85.13-1.85.98,0,.51.34.76.75.76.57,0,.93-.36,1.05-.73.03-.08.04-.17.04-.25v-.76Z"/>
    <path class="cls-12" d="M399.87,351.83c.23.15.65.32,1.04.32.58,0,.85-.29.85-.65s-.22-.58-.81-.8c-.78-.28-1.15-.71-1.15-1.23,0-.7.57-1.28,1.5-1.28.44,0,.83.13,1.07.27l-.2.58c-.17-.11-.49-.25-.89-.25-.47,0-.73.27-.73.59,0,.36.26.52.83.74.76.29,1.14.67,1.14,1.31,0,.77-.59,1.31-1.63,1.31-.48,0-.92-.12-1.22-.3l.2-.6Z"/>
    <path class="cls-12" d="M403.98,350.61c.02,1.07.7,1.51,1.49,1.51.57,0,.91-.1,1.21-.22l.14.57c-.28.13-.76.27-1.45.27-1.34,0-2.14-.88-2.14-2.2s.77-2.35,2.04-2.35c1.42,0,1.8,1.25,1.8,2.05,0,.16-.02.29-.03.37h-3.06ZM406.3,350.04c0-.5-.21-1.29-1.1-1.29-.8,0-1.15.74-1.21,1.29h2.31Z"/>
    <path class="cls-12" d="M411.81,346.25v5.27c0,.39,0,.83.04,1.12h-.71l-.04-.76h-.02c-.24.49-.77.85-1.49.85-1.05,0-1.86-.89-1.86-2.21,0-1.45.89-2.34,1.95-2.34.67,0,1.12.31,1.31.67h.02v-2.6h.79ZM411.02,350.06c0-.1,0-.23-.04-.33-.12-.5-.55-.92-1.14-.92-.82,0-1.3.72-1.3,1.68,0,.88.43,1.61,1.29,1.61.53,0,1.02-.35,1.16-.95.03-.11.04-.22.04-.34v-.76Z"/>
    <path class="cls-12" d="M418.98,350.43c0,1.61-1.12,2.31-2.17,2.31-1.18,0-2.09-.86-2.09-2.24,0-1.46.95-2.31,2.16-2.31s2.1.91,2.1,2.24ZM415.52,350.48c0,.95.55,1.67,1.32,1.67s1.32-.71,1.32-1.69c0-.74-.37-1.67-1.31-1.67s-1.34.86-1.34,1.69Z"/>
    <path class="cls-12" d="M419.97,349.47c0-.45,0-.82-.04-1.18h.7l.04.72h.02c.22-.41.72-.82,1.44-.82.6,0,1.54.36,1.54,1.85v2.6h-.79v-2.51c0-.7-.26-1.29-1.01-1.29-.52,0-.93.37-1.06.81-.04.1-.05.23-.05.37v2.62h-.79v-3.18Z"/>
    <path class="cls-12" d="M430.52,351.46c0,.45,0,.85.04,1.19h-.7l-.04-.71h-.02c-.21.35-.67.81-1.44.81-.68,0-1.5-.38-1.5-1.91v-2.55h.79v2.41c0,.83.25,1.39.97,1.39.53,0,.9-.37,1.04-.72.04-.12.07-.26.07-.41v-2.67h.79v3.17Z"/>
    <path class="cls-12" d="M431.73,351.83c.23.15.65.32,1.04.32.58,0,.85-.29.85-.65s-.22-.58-.81-.8c-.78-.28-1.15-.71-1.15-1.23,0-.7.57-1.28,1.5-1.28.44,0,.83.13,1.07.27l-.2.58c-.17-.11-.49-.25-.89-.25-.47,0-.73.27-.73.59,0,.36.26.52.83.74.76.29,1.14.67,1.14,1.31,0,.77-.59,1.31-1.63,1.31-.48,0-.92-.12-1.22-.3l.2-.6Z"/>
    <path class="cls-12" d="M435.84,350.61c.02,1.07.7,1.51,1.49,1.51.57,0,.91-.1,1.21-.22l.14.57c-.28.13-.76.27-1.45.27-1.34,0-2.14-.88-2.14-2.2s.77-2.35,2.04-2.35c1.42,0,1.8,1.25,1.8,2.05,0,.16-.02.29-.03.37h-3.06ZM438.17,350.04c0-.5-.21-1.29-1.1-1.29-.8,0-1.15.74-1.21,1.29h2.31Z"/>
    <path class="cls-12" d="M439.91,349.65c0-.51,0-.95-.04-1.36h.69l.03.86h.04c.2-.58.68-.95,1.21-.95.09,0,.15,0,.22.03v.75c-.08-.02-.16-.03-.27-.03-.56,0-.95.42-1.06,1.02-.02.11-.04.23-.04.37v2.32h-.78v-3Z"/>
    <path class="cls-12" d="M444.76,349.65c0-.51,0-.95-.04-1.36h.69l.03.86h.04c.2-.58.68-.95,1.21-.95.09,0,.15,0,.22.03v.75c-.08-.02-.16-.03-.27-.03-.56,0-.95.42-1.06,1.02-.02.11-.04.23-.04.37v2.32h-.78v-3Z"/>
    <path class="cls-12" d="M448.06,350.61c.02,1.07.7,1.51,1.49,1.51.57,0,.91-.1,1.21-.22l.14.57c-.28.13-.76.27-1.45.27-1.34,0-2.14-.88-2.14-2.2s.77-2.35,2.04-2.35c1.42,0,1.8,1.25,1.8,2.05,0,.16-.02.29-.03.37h-3.06ZM450.38,350.04c0-.5-.21-1.29-1.1-1.29-.8,0-1.15.74-1.21,1.29h2.31Z"/>
    <path class="cls-12" d="M455.09,351.97h-.02c-.23.43-.72.77-1.42.77-1.02,0-1.85-.88-1.85-2.21,0-1.63,1.05-2.35,1.97-2.35.68,0,1.13.33,1.34.76h.02l.03-.66h.75c-.02.37-.03.75-.03,1.2v4.94h-.79v-2.46ZM455.09,350.05c0-.11,0-.23-.04-.33-.12-.49-.54-.9-1.13-.9-.82,0-1.31.69-1.31,1.67,0,.86.41,1.62,1.29,1.62.51,0,.95-.32,1.13-.86.04-.11.06-.26.06-.38v-.82Z"/>
    <path class="cls-12" d="M460.84,351.46c0,.45,0,.85.04,1.19h-.7l-.04-.71h-.02c-.21.35-.67.81-1.44.81-.68,0-1.5-.38-1.5-1.91v-2.55h.79v2.41c0,.83.25,1.39.97,1.39.53,0,.9-.37,1.04-.72.04-.12.07-.26.07-.41v-2.67h.79v3.17Z"/>
    <path class="cls-12" d="M463.03,347.06c0,.27-.19.49-.5.49-.28,0-.48-.22-.48-.49s.21-.5.5-.5.49.22.49.5ZM462.15,352.65v-4.36h.79v4.36h-.79Z"/>
    <path class="cls-12" d="M464.25,349.65c0-.51,0-.95-.04-1.36h.69l.03.86h.04c.2-.58.68-.95,1.21-.95.09,0,.15,0,.22.03v.75c-.08-.02-.16-.03-.27-.03-.56,0-.96.42-1.06,1.02-.02.11-.04.23-.04.37v2.32h-.78v-3Z"/>
    <path class="cls-12" d="M467.55,350.61c.02,1.07.7,1.51,1.49,1.51.57,0,.91-.1,1.21-.22l.14.57c-.28.13-.76.27-1.45.27-1.34,0-2.14-.88-2.14-2.2s.77-2.35,2.04-2.35c1.42,0,1.8,1.25,1.8,2.05,0,.16-.02.29-.03.37h-3.06ZM469.87,350.04c0-.5-.21-1.29-1.1-1.29-.8,0-1.15.74-1.21,1.29h2.31Z"/>
    <path class="cls-12" d="M471.62,349.47c0-.45,0-.82-.04-1.18h.69l.04.7h.03c.24-.41.65-.8,1.37-.8.59,0,1.04.36,1.23.87h.02c.13-.24.31-.43.49-.57.26-.2.55-.31.96-.31.58,0,1.43.38,1.43,1.89v2.57h-.77v-2.47c0-.84-.31-1.34-.95-1.34-.45,0-.8.33-.94.72-.04.11-.06.25-.06.4v2.69h-.77v-2.61c0-.69-.31-1.2-.91-1.2-.5,0-.86.4-.98.79-.04.12-.06.25-.06.39v2.63h-.77v-3.18Z"/>
    <path class="cls-12" d="M479.56,350.61c.02,1.07.7,1.51,1.49,1.51.57,0,.91-.1,1.21-.22l.14.57c-.28.13-.76.27-1.45.27-1.34,0-2.14-.88-2.14-2.2s.77-2.35,2.04-2.35c1.42,0,1.8,1.25,1.8,2.05,0,.16-.02.29-.03.37h-3.06ZM481.89,350.04c0-.5-.21-1.29-1.1-1.29-.8,0-1.15.74-1.21,1.29h2.31Z"/>
    <path class="cls-12" d="M483.63,349.47c0-.45,0-.82-.04-1.18h.7l.04.72h.02c.22-.41.72-.82,1.44-.82.6,0,1.54.36,1.54,1.85v2.6h-.79v-2.51c0-.7-.26-1.29-1.01-1.29-.52,0-.93.37-1.06.81-.04.1-.05.23-.05.37v2.62h-.79v-3.18Z"/>
    <path class="cls-12" d="M489.54,347.04v1.25h1.13v.6h-1.13v2.35c0,.54.15.85.59.85.21,0,.36-.03.46-.05l.04.59c-.15.06-.4.11-.7.11-.37,0-.67-.12-.86-.33-.23-.23-.31-.62-.31-1.13v-2.38h-.67v-.6h.67v-1.04l.77-.21Z"/>
    <path class="cls-12" d="M491.46,351.83c.23.15.65.32,1.04.32.58,0,.85-.29.85-.65s-.22-.58-.81-.8c-.78-.28-1.15-.71-1.15-1.23,0-.7.57-1.28,1.5-1.28.44,0,.83.13,1.07.27l-.2.58c-.17-.11-.49-.25-.89-.25-.47,0-.73.27-.73.59,0,.36.26.52.83.74.76.29,1.14.67,1.14,1.31,0,.77-.59,1.31-1.63,1.31-.48,0-.92-.12-1.22-.3l.2-.6Z"/>
  </g>
  <g>
    <g>
      <line class="cls-6" x1="387.01" y1="381.07" x2="494.67" y2="381.07"/>
      <polygon class="cls-12" points="490.53 395.2 515.01 381.07 490.53 366.93 490.53 395.2"/>
    </g>
    <g>
      <rect class="cls-7" x="391.05" y="372.13" width="94.96" height="17.93"/>
      <path class="cls-4" d="M408.72,377.57c.35.21.86.4,1.4.4.8,0,1.27-.42,1.27-1.04,0-.57-.32-.89-1.14-1.21-.99-.35-1.6-.87-1.6-1.72,0-.95.78-1.65,1.96-1.65.62,0,1.07.14,1.34.3l-.22.64c-.2-.11-.6-.29-1.15-.29-.83,0-1.14.49-1.14.91,0,.57.37.85,1.21,1.17,1.03.4,1.55.89,1.55,1.78,0,.94-.69,1.75-2.12,1.75-.58,0-1.22-.17-1.55-.39l.2-.66Z"/>
      <path class="cls-4" d="M413.24,375.59c0-.56-.02-1.01-.04-1.42h.71l.04.75h.02c.32-.53.84-.85,1.55-.85,1.05,0,1.85.89,1.85,2.21,0,1.57-.95,2.34-1.98,2.34-.58,0-1.08-.25-1.34-.68h-.02v2.37h-.78v-4.72ZM414.02,376.75c0,.12.02.23.04.32.14.55.62.93,1.19.93.84,0,1.32-.68,1.32-1.68,0-.87-.46-1.62-1.3-1.62-.54,0-1.04.39-1.2.98-.03.1-.05.21-.05.32v.75Z"/>
      <path class="cls-4" d="M418.36,372.13h.79v6.39h-.79v-6.39Z"/>
      <path class="cls-4" d="M421.36,372.94c0,.27-.19.49-.5.49-.28,0-.48-.21-.48-.49s.21-.5.5-.5.49.22.49.5ZM420.48,378.52v-4.36h.79v4.36h-.79Z"/>
      <path class="cls-4" d="M423.54,372.91v1.25h1.13v.6h-1.13v2.35c0,.54.15.85.59.85.21,0,.36-.03.46-.05l.04.59c-.15.06-.4.11-.7.11-.37,0-.67-.12-.86-.33-.23-.23-.31-.62-.31-1.13v-2.38h-.67v-.6h.67v-1.04l.77-.21Z"/>
      <path class="cls-4" d="M428.35,372.94c0,.27-.19.49-.5.49-.28,0-.48-.21-.48-.49s.21-.5.5-.5.49.22.49.5ZM427.47,378.52v-4.36h.79v4.36h-.79Z"/>
      <path class="cls-4" d="M429.58,375.34c0-.45,0-.82-.04-1.18h.7l.04.72h.02c.22-.41.72-.82,1.44-.82.6,0,1.54.36,1.54,1.85v2.6h-.79v-2.51c0-.7-.26-1.29-1.01-1.29-.52,0-.93.37-1.06.81-.04.1-.05.23-.05.37v2.62h-.79v-3.18Z"/>
      <path class="cls-4" d="M435.49,372.91v1.25h1.13v.6h-1.13v2.35c0,.54.15.85.59.85.21,0,.36-.03.46-.05l.04.59c-.15.06-.4.11-.7.11-.37,0-.67-.12-.86-.33-.23-.23-.31-.62-.31-1.13v-2.38h-.67v-.6h.67v-1.04l.77-.21Z"/>
      <path class="cls-4" d="M441.41,376.31c0,1.61-1.12,2.31-2.17,2.31-1.18,0-2.09-.86-2.09-2.24,0-1.46.96-2.31,2.16-2.31s2.1.91,2.1,2.24ZM437.95,376.35c0,.95.55,1.67,1.32,1.67s1.32-.71,1.32-1.69c0-.74-.37-1.67-1.31-1.67s-1.34.86-1.34,1.69Z"/>
      <path class="cls-4" d="M444.06,378.52v-.49l.62-.6c1.49-1.42,2.17-2.18,2.18-3.06,0-.59-.29-1.14-1.16-1.14-.53,0-.97.27-1.24.5l-.25-.56c.41-.34.98-.59,1.66-.59,1.26,0,1.79.86,1.79,1.7,0,1.08-.78,1.95-2.02,3.14l-.47.43v.02h2.63v.66h-3.74Z"/>
      <path class="cls-4" d="M450.76,377.57c.35.21.86.4,1.4.4.8,0,1.27-.42,1.27-1.04,0-.57-.32-.89-1.14-1.21-.99-.35-1.6-.87-1.6-1.72,0-.95.78-1.65,1.96-1.65.62,0,1.07.14,1.34.3l-.22.64c-.2-.11-.6-.29-1.15-.29-.83,0-1.14.49-1.14.91,0,.57.37.85,1.21,1.17,1.03.4,1.55.89,1.55,1.78,0,.94-.69,1.75-2.12,1.75-.58,0-1.22-.17-1.55-.39l.2-.66Z"/>
      <path class="cls-4" d="M459.27,376.31c0,1.61-1.12,2.31-2.17,2.31-1.18,0-2.09-.86-2.09-2.24,0-1.46.96-2.31,2.16-2.31s2.1.91,2.1,2.24ZM455.81,376.35c0,.95.55,1.67,1.32,1.67s1.32-.71,1.32-1.69c0-.74-.37-1.67-1.31-1.67s-1.34.86-1.34,1.69Z"/>
      <path class="cls-4" d="M460.27,372.13h.79v6.39h-.79v-6.39Z"/>
      <path class="cls-4" d="M463.27,372.94c0,.27-.19.49-.5.49-.28,0-.48-.21-.48-.49s.21-.5.5-.5.49.22.49.5ZM462.39,378.52v-4.36h.79v4.36h-.79Z"/>
      <path class="cls-4" d="M468.26,372.13v5.27c0,.39,0,.83.04,1.12h-.71l-.04-.76h-.02c-.24.49-.77.86-1.49.86-1.05,0-1.86-.89-1.86-2.21,0-1.45.89-2.34,1.95-2.34.67,0,1.12.32,1.31.67h.02v-2.6h.79ZM467.47,375.94c0-.1,0-.23-.04-.33-.12-.5-.55-.92-1.14-.92-.82,0-1.3.72-1.3,1.68,0,.88.43,1.61,1.29,1.61.53,0,1.02-.35,1.16-.95.03-.11.04-.22.04-.34v-.76Z"/>
    </g>
  </g>
</svg>