<?xml version="1.0" encoding="UTF-8"?>
<svg id="Ring" xmlns="http://www.w3.org/2000/svg" viewBox="0 0 657.58 402.6">
  <defs>
    <style>
      .cls-1 {
        fill: #c92027;
      }

      .cls-2 {
        fill: #231f20;
      }

      .cls-3 {
        fill: #fff;
      }

      .cls-4 {
        stroke: #9b9a9a;
      }

      .cls-4, .cls-5, .cls-6 {
        fill: none;
      }

      .cls-4, .cls-6 {
        stroke-miterlimit: 10;
        stroke-width: 2.83px;
      }

      .cls-7 {
        fill: #9b9a9a;
      }

      .cls-6 {
        stroke: #437898;
      }

      .cls-8 {
        fill: #39b54a;
      }
    </style>
  </defs>
  <g>
    <line class="cls-6" x1="32.92" y1="307.07" x2="34.92" y2="368.07"/>
    <line class="cls-6" x1="180.92" y1="301.07" x2="34.92" y2="368.07"/>
    <line class="cls-6" x1="37.92" y1="307.07" x2="181.92" y2="366.07"/>
    <line class="cls-6" x1="180.92" y1="306.07" x2="181.92" y2="366.07"/>
    <g>
      <circle class="cls-2" cx="34.67" cy="303.82" r="7.75"/>
      <path class="cls-3" d="M33.46,305.25l-.7,2.12h-.9l2.29-6.74h1.05l2.3,6.74h-.93l-.72-2.12h-2.39ZM35.67,304.57l-.66-1.94c-.15-.44-.25-.84-.35-1.23h-.02c-.1.4-.21.81-.34,1.22l-.66,1.95h2.03Z"/>
    </g>
    <g>
      <circle class="cls-2" cx="179.55" cy="366.39" r="7.75"/>
      <path class="cls-3" d="M182.12,369.72c-.32.16-.96.32-1.78.32-1.9,0-3.33-1.2-3.33-3.41s1.43-3.54,3.52-3.54c.84,0,1.37.18,1.6.3l-.21.71c-.33-.16-.8-.28-1.36-.28-1.58,0-2.63,1.01-2.63,2.78,0,1.65.95,2.71,2.59,2.71.53,0,1.07-.11,1.42-.28l.18.69Z"/>
    </g>
    <g>
      <circle class="cls-2" cx="33.55" cy="366.39" r="7.75"/>
      <path class="cls-3" d="M31.6,363.29c.38-.08.98-.14,1.59-.14.87,0,1.43.15,1.85.49.35.26.56.66.56,1.19,0,.65-.43,1.22-1.14,1.48v.02c.64.16,1.39.69,1.39,1.69,0,.58-.23,1.02-.57,1.35-.47.43-1.23.63-2.33.63-.6,0-1.06-.04-1.35-.08v-6.63ZM32.47,366.05h.79c.92,0,1.46-.48,1.46-1.13,0-.79-.6-1.1-1.48-1.1-.4,0-.63.03-.77.06v2.17ZM32.47,369.28c.17.03.42.04.73.04.9,0,1.73-.33,1.73-1.31,0-.92-.79-1.3-1.74-1.3h-.72v2.57Z"/>
    </g>
    <g>
      <circle class="cls-2" cx="179.55" cy="303.39" r="7.75"/>
      <path class="cls-3" d="M177.24,300.6c.48-.07,1.04-.13,1.67-.13,1.13,0,1.93.26,2.46.76.54.5.85,1.2.85,2.18s-.31,1.8-.87,2.36c-.57.57-1.5.87-2.68.87-.56,0-1.03-.03-1.42-.07v-5.97ZM178.02,305.96c.2.04.49.04.79.04,1.67,0,2.58-.94,2.58-2.57,0-1.43-.8-2.34-2.46-2.34-.41,0-.71.04-.92.08v4.79Z"/>
    </g>
    <g>
      <rect class="cls-5" x="39.9" y="375.05" width="134.61" height="23.48"/>
      <path class="cls-2" d="M81.82,387.37v-11.95h2.74v.83h-1.72v10.3h1.72v.83h-2.74Z"/>
      <path class="cls-2" d="M87.46,382.52l-1.05,3.18h-1.35l3.44-10.11h1.57l3.45,10.11h-1.4l-1.08-3.18h-3.58ZM90.77,381.49l-.99-2.91c-.22-.66-.38-1.26-.52-1.85h-.03c-.15.6-.31,1.22-.51,1.83l-.99,2.92h3.04Z"/>
      <path class="cls-2" d="M94.11,387.54c.33-.88.73-2.49.9-3.58l1.47-.15c-.34,1.27-1,2.94-1.42,3.64l-.94.09Z"/>
      <path class="cls-2" d="M98.11,375.72c.57-.12,1.47-.21,2.38-.21,1.3,0,2.15.22,2.77.74.52.39.84.99.84,1.78,0,.98-.65,1.83-1.71,2.22v.03c.96.24,2.08,1.04,2.08,2.54,0,.87-.34,1.53-.85,2.03-.71.64-1.84.94-3.49.94-.9,0-1.59-.06-2.02-.12v-9.94ZM99.41,379.86h1.19c1.38,0,2.19-.72,2.19-1.69,0-1.19-.9-1.65-2.22-1.65-.6,0-.94.04-1.15.09v3.25ZM99.41,384.7c.25.04.63.06,1.1.06,1.35,0,2.59-.5,2.59-1.96,0-1.38-1.19-1.95-2.61-1.95h-1.08v3.85Z"/>
      <path class="cls-2" d="M105.15,387.54c.33-.88.73-2.49.9-3.58l1.47-.15c-.34,1.27-1,2.94-1.42,3.64l-.94.09Z"/>
      <path class="cls-2" d="M109.15,375.72c.79-.12,1.74-.21,2.77-.21,1.87,0,3.21.43,4.09,1.26.9.83,1.42,2,1.42,3.63s-.51,3-1.46,3.93c-.94.95-2.5,1.46-4.47,1.46-.93,0-1.71-.04-2.37-.12v-9.94ZM110.46,384.66c.33.06.81.08,1.32.08,2.79,0,4.31-1.56,4.31-4.29.01-2.38-1.33-3.9-4.1-3.9-.67,0-1.18.06-1.53.13v7.98Z"/>
      <path class="cls-2" d="M117.73,387.54c.33-.88.74-2.49.9-3.58l1.47-.15c-.34,1.27-1,2.94-1.42,3.64l-.95.09Z"/>
      <path class="cls-2" d="M128.8,385.36c-.48.24-1.44.48-2.67.48-2.85,0-4.99-1.8-4.99-5.12s2.15-5.31,5.28-5.31c1.26,0,2.05.27,2.4.45l-.31,1.06c-.5-.24-1.2-.42-2.04-.42-2.37,0-3.94,1.51-3.94,4.17,0,2.47,1.42,4.06,3.88,4.06.79,0,1.6-.17,2.13-.42l.27,1.04Z"/>
      <path class="cls-2" d="M132.58,375.4v11.97h-2.74v-.83h1.72v-10.32h-1.72v-.83h2.74Z"/>
    </g>
  </g>
  <g>
    <line class="cls-6" x1="35.92" y1="157.07" x2="33.42" y2="103.05"/>
    <line class="cls-6" x1="32.92" y1="103.07" x2="104.92" y2="103.07"/>
    <line class="cls-6" x1="35.92" y1="157.07" x2="104.92" y2="105.07"/>
    <line class="cls-6" x1="175.92" y1="152.07" x2="106.92" y2="103.07"/>
    <line class="cls-6" x1="176.92" y1="101.07" x2="175.92" y2="152.07"/>
    <line class="cls-6" x1="106.92" y1="103.07" x2="179.92" y2="101.07"/>
    <g>
      <circle class="cls-2" cx="33.67" cy="101.82" r="7.75"/>
      <path class="cls-3" d="M32.46,103.25l-.7,2.12h-.9l2.29-6.74h1.05l2.3,6.74h-.93l-.72-2.12h-2.39ZM34.67,102.57l-.66-1.94c-.15-.44-.25-.84-.35-1.23h-.02c-.1.4-.21.81-.34,1.22l-.66,1.95h2.03Z"/>
    </g>
    <g>
      <circle class="cls-2" cx="178.55" cy="151.39" r="7.75"/>
      <path class="cls-3" d="M181.12,154.72c-.32.16-.96.32-1.78.32-1.9,0-3.33-1.2-3.33-3.41s1.43-3.54,3.52-3.54c.84,0,1.37.18,1.6.3l-.21.71c-.33-.16-.8-.28-1.36-.28-1.58,0-2.63,1.01-2.63,2.78,0,1.65.95,2.71,2.59,2.71.53,0,1.07-.11,1.42-.28l.18.69Z"/>
    </g>
    <g>
      <circle class="cls-2" cx="33.55" cy="158.39" r="7.75"/>
      <path class="cls-3" d="M31.6,155.29c.38-.08.98-.14,1.59-.14.87,0,1.43.15,1.85.49.35.26.56.66.56,1.19,0,.65-.43,1.22-1.14,1.48v.02c.64.16,1.39.69,1.39,1.69,0,.58-.23,1.02-.57,1.35-.47.43-1.23.63-2.33.63-.6,0-1.06-.04-1.35-.08v-6.63ZM32.47,158.05h.79c.92,0,1.46-.48,1.46-1.13,0-.79-.6-1.1-1.48-1.1-.4,0-.63.03-.77.06v2.17ZM32.47,161.28c.17.03.42.04.73.04.9,0,1.73-.33,1.73-1.31,0-.92-.79-1.3-1.74-1.3h-.72v2.57Z"/>
    </g>
    <g>
      <circle class="cls-2" cx="178.55" cy="101.39" r="7.75"/>
      <path class="cls-3" d="M176.24,98.6c.48-.07,1.04-.13,1.67-.13,1.13,0,1.93.26,2.46.76.54.5.85,1.2.85,2.18s-.31,1.8-.87,2.36c-.57.57-1.5.87-2.68.87-.56,0-1.03-.03-1.42-.07v-5.97ZM177.02,103.96c.2.04.49.04.79.04,1.67,0,2.58-.94,2.58-2.58,0-1.43-.8-2.34-2.46-2.34-.41,0-.71.04-.92.08v4.79Z"/>
    </g>
    <g>
      <rect class="cls-5" x="34.9" y="173.05" width="134.61" height="23.48"/>
      <path class="cls-2" d="M66.49,185.37v-11.95h2.74v.83h-1.72v10.3h1.72v.83h-2.74Z"/>
      <path class="cls-2" d="M72.13,180.52l-1.05,3.18h-1.35l3.44-10.11h1.57l3.45,10.11h-1.4l-1.08-3.18h-3.58ZM75.45,179.49l-.99-2.91c-.22-.66-.38-1.26-.52-1.85h-.03c-.15.6-.31,1.22-.51,1.83l-.99,2.92h3.04Z"/>
      <path class="cls-2" d="M78.78,185.54c.33-.88.73-2.49.9-3.58l1.47-.15c-.34,1.27-1,2.94-1.42,3.64l-.94.09Z"/>
      <path class="cls-2" d="M82.78,173.72c.57-.12,1.47-.21,2.38-.21,1.3,0,2.15.22,2.77.74.52.39.84.99.84,1.78,0,.98-.65,1.83-1.71,2.22v.03c.96.24,2.08,1.04,2.08,2.54,0,.87-.34,1.53-.85,2.03-.71.64-1.84.94-3.49.94-.9,0-1.59-.06-2.02-.12v-9.94ZM84.09,177.86h1.19c1.38,0,2.19-.72,2.19-1.69,0-1.19-.9-1.65-2.22-1.65-.6,0-.94.04-1.15.09v3.25ZM84.09,182.7c.25.04.63.06,1.1.06,1.35,0,2.59-.5,2.59-1.96,0-1.38-1.19-1.95-2.61-1.95h-1.08v3.85Z"/>
      <path class="cls-2" d="M89.82,185.54c.33-.88.73-2.49.9-3.58l1.47-.15c-.34,1.27-1,2.94-1.42,3.64l-.94.09Z"/>
      <path class="cls-2" d="M99.06,178.95h-3.93v3.65h4.38v1.09h-5.68v-10.11h5.46v1.09h-4.15v3.2h3.93v1.08Z"/>
      <path class="cls-2" d="M100.24,185.54c.33-.88.73-2.49.9-3.58l1.47-.15c-.34,1.27-1,2.94-1.42,3.64l-.94.09Z"/>
      <path class="cls-2" d="M111.31,183.36c-.48.24-1.44.48-2.67.48-2.85,0-4.99-1.8-4.99-5.12s2.15-5.31,5.28-5.31c1.26,0,2.05.27,2.4.45l-.31,1.06c-.5-.24-1.2-.42-2.04-.42-2.37,0-3.94,1.51-3.94,4.17,0,2.47,1.42,4.06,3.88,4.06.79,0,1.6-.17,2.13-.42l.27,1.04Z"/>
      <path class="cls-2" d="M112.05,185.54c.33-.88.73-2.49.9-3.58l1.47-.15c-.34,1.27-1,2.94-1.42,3.64l-.94.09Z"/>
      <path class="cls-2" d="M116.05,173.72c.79-.12,1.74-.21,2.77-.21,1.87,0,3.21.43,4.09,1.26.9.83,1.42,2,1.42,3.63s-.51,3-1.46,3.93c-.94.95-2.5,1.46-4.47,1.46-.93,0-1.71-.04-2.37-.12v-9.94ZM117.36,182.66c.33.06.81.08,1.32.08,2.79,0,4.31-1.56,4.31-4.29.01-2.38-1.33-3.9-4.1-3.9-.67,0-1.18.06-1.53.13v7.98Z"/>
      <path class="cls-2" d="M124.63,185.54c.33-.88.74-2.49.9-3.58l1.47-.15c-.34,1.27-1,2.94-1.42,3.64l-.95.09Z"/>
      <path class="cls-2" d="M133.87,178.95h-3.93v3.65h4.38v1.09h-5.68v-10.11h5.46v1.09h-4.15v3.2h3.93v1.08Z"/>
      <path class="cls-2" d="M137.91,173.4v11.97h-2.74v-.83h1.72v-10.32h-1.72v-.83h2.74Z"/>
    </g>
    <g>
      <circle class="cls-2" cx="105.47" cy="102.18" r="7.75"/>
      <path class="cls-3" d="M107.26,102.58h-2.62v2.43h2.92v.73h-3.79v-6.74h3.64v.73h-2.77v2.13h2.62v.72Z"/>
    </g>
  </g>
  <g>
    <line class="cls-6" x1="32.92" y1="209.07" x2="32.92" y2="247.07"/>
    <line class="cls-6" x1="102.42" y1="247.07" x2="32.42" y2="247.07"/>
    <line class="cls-6" x1="101.92" y1="207.07" x2="100.92" y2="250.07"/>
    <g>
      <rect class="cls-5" x="38.9" y="266.05" width="134.61" height="23.48"/>
      <path class="cls-2" d="M69.24,278.37v-11.95h2.74v.83h-1.72v10.3h1.72v.83h-2.74Z"/>
      <path class="cls-2" d="M74.88,273.52l-1.05,3.18h-1.35l3.44-10.11h1.57l3.45,10.11h-1.4l-1.08-3.18h-3.58ZM78.2,272.49l-.99-2.91c-.22-.66-.38-1.26-.52-1.85h-.03c-.15.6-.31,1.22-.51,1.83l-.99,2.92h3.04Z"/>
      <path class="cls-2" d="M81.53,278.54c.33-.88.73-2.49.9-3.58l1.47-.15c-.34,1.27-1,2.94-1.42,3.64l-.94.09Z"/>
      <path class="cls-2" d="M85.53,266.72c.57-.12,1.47-.21,2.38-.21,1.3,0,2.15.22,2.77.74.52.39.84.99.84,1.78,0,.98-.65,1.83-1.71,2.22v.03c.96.24,2.08,1.04,2.08,2.54,0,.87-.34,1.53-.85,2.03-.71.64-1.84.94-3.49.94-.9,0-1.59-.06-2.02-.12v-9.94ZM86.84,270.86h1.19c1.38,0,2.19-.72,2.19-1.69,0-1.19-.9-1.65-2.22-1.65-.6,0-.94.04-1.15.09v3.25ZM86.84,275.7c.25.04.63.06,1.1.06,1.35,0,2.59-.5,2.59-1.96,0-1.38-1.19-1.95-2.61-1.95h-1.08v3.85Z"/>
      <path class="cls-2" d="M92.57,278.54c.33-.88.74-2.49.9-3.58l1.47-.15c-.34,1.27-1,2.94-1.42,3.64l-.95.09Z"/>
      <path class="cls-2" d="M103.64,276.36c-.48.24-1.44.48-2.67.48-2.85,0-4.99-1.8-4.99-5.12s2.15-5.31,5.28-5.31c1.26,0,2.05.27,2.4.45l-.31,1.06c-.5-.24-1.2-.42-2.04-.42-2.37,0-3.94,1.51-3.94,4.17,0,2.47,1.42,4.06,3.88,4.06.79,0,1.6-.17,2.13-.42l.27,1.04Z"/>
      <path class="cls-2" d="M104.37,278.54c.33-.88.74-2.49.9-3.58l1.47-.15c-.34,1.27-1,2.94-1.42,3.64l-.95.09Z"/>
      <path class="cls-2" d="M108.38,266.72c.79-.12,1.74-.21,2.77-.21,1.87,0,3.21.43,4.09,1.26.9.83,1.42,2,1.42,3.63s-.51,3-1.46,3.93c-.94.95-2.5,1.46-4.47,1.46-.93,0-1.71-.04-2.37-.12v-9.94ZM109.68,275.66c.33.06.81.08,1.32.08,2.79,0,4.31-1.56,4.31-4.29.01-2.38-1.33-3.9-4.1-3.9-.67,0-1.18.06-1.53.13v7.98Z"/>
      <path class="cls-2" d="M116.96,278.54c.33-.88.73-2.49.9-3.58l1.47-.15c-.34,1.27-1,2.94-1.42,3.64l-.94.09Z"/>
      <path class="cls-2" d="M126.19,271.95h-3.93v3.65h4.38v1.09h-5.68v-10.11h5.46v1.09h-4.15v3.2h3.93v1.08Z"/>
      <path class="cls-2" d="M127.38,278.54c.33-.88.73-2.49.9-3.58l1.47-.15c-.34,1.27-1,2.94-1.42,3.64l-.94.09Z"/>
      <path class="cls-2" d="M131.39,266.72c.79-.12,1.74-.21,2.77-.21,1.87,0,3.21.43,4.09,1.26.9.83,1.42,2,1.42,3.63s-.51,3-1.46,3.93c-.94.95-2.5,1.46-4.47,1.46-.93,0-1.71-.04-2.37-.12v-9.94ZM132.69,275.66c.33.06.81.08,1.32.08,2.79,0,4.31-1.56,4.31-4.29.01-2.38-1.33-3.9-4.1-3.9-.67,0-1.18.06-1.53.13v7.98Z"/>
      <path class="cls-2" d="M143.16,266.4v11.97h-2.74v-.83h1.72v-10.32h-1.72v-.83h2.74Z"/>
    </g>
    <line class="cls-6" x1="32.92" y1="209.07" x2="177.92" y2="208.07"/>
    <g>
      <circle class="cls-2" cx="102.55" cy="207.39" r="7.75"/>
      <path class="cls-3" d="M100.24,204.6c.48-.07,1.04-.13,1.67-.13,1.13,0,1.93.26,2.46.76.54.5.85,1.2.85,2.18s-.31,1.8-.87,2.36c-.57.57-1.5.87-2.68.87-.56,0-1.03-.03-1.42-.07v-5.97ZM101.02,209.96c.2.04.49.04.79.04,1.67,0,2.58-.94,2.58-2.57,0-1.43-.8-2.34-2.46-2.34-.41,0-.71.04-.92.08v4.79Z"/>
    </g>
    <g>
      <circle class="cls-2" cx="33.67" cy="207.82" r="7.75"/>
      <path class="cls-3" d="M32.46,209.25l-.7,2.12h-.9l2.29-6.74h1.05l2.3,6.74h-.93l-.72-2.12h-2.39ZM34.67,208.57l-.66-1.94c-.15-.44-.25-.84-.35-1.23h-.02c-.1.4-.21.81-.34,1.22l-.66,1.95h2.03Z"/>
    </g>
    <g>
      <circle class="cls-2" cx="99.55" cy="247.39" r="7.75"/>
      <path class="cls-3" d="M102.12,250.72c-.32.16-.96.32-1.78.32-1.9,0-3.33-1.2-3.33-3.41s1.43-3.54,3.52-3.54c.84,0,1.37.18,1.6.3l-.21.71c-.33-.16-.8-.28-1.36-.28-1.58,0-2.63,1.01-2.63,2.78,0,1.65.95,2.71,2.59,2.71.53,0,1.07-.11,1.42-.28l.18.69Z"/>
    </g>
    <g>
      <circle class="cls-2" cx="32.55" cy="247.39" r="7.75"/>
      <path class="cls-3" d="M30.6,244.29c.38-.08.98-.14,1.59-.14.87,0,1.43.15,1.85.49.35.26.56.66.56,1.19,0,.65-.43,1.22-1.14,1.48v.02c.64.16,1.39.69,1.39,1.69,0,.58-.23,1.02-.57,1.35-.47.43-1.23.63-2.33.63-.6,0-1.06-.04-1.35-.08v-6.63ZM31.47,247.05h.79c.92,0,1.46-.48,1.46-1.13,0-.79-.6-1.1-1.48-1.1-.4,0-.63.03-.77.06v2.17ZM31.47,250.28c.17.03.42.04.73.04.9,0,1.73-.33,1.73-1.31,0-.92-.79-1.3-1.74-1.3h-.72v2.57Z"/>
    </g>
    <g>
      <circle class="cls-2" cx="178.61" cy="207.18" r="7.75"/>
      <path class="cls-3" d="M180.4,207.58h-2.62v2.43h2.92v.73h-3.79v-6.74h3.64v.73h-2.77v2.13h2.62v.72Z"/>
    </g>
  </g>
  <g>
    <line class="cls-6" x1="467.3" y1="306.57" x2="468.92" y2="364.07"/>
    <line class="cls-6" x1="468.92" y1="364.07" x2="616.3" y2="362.57"/>
    <line class="cls-6" x1="615.3" y1="305.57" x2="615.92" y2="363.07"/>
    <g>
      <rect class="cls-5" x="474.28" y="372.55" width="134.61" height="23.48"/>
      <path class="cls-2" d="M516.13,384.88v-11.95h2.74v.83h-1.72v10.3h1.72v.83h-2.74Z"/>
      <path class="cls-2" d="M521.77,380.02l-1.05,3.18h-1.35l3.44-10.11h1.57l3.45,10.11h-1.4l-1.08-3.18h-3.58ZM525.08,379l-.99-2.91c-.22-.66-.38-1.26-.52-1.85h-.03c-.15.6-.31,1.22-.51,1.83l-.99,2.92h3.04Z"/>
      <path class="cls-2" d="M528.41,385.04c.33-.88.73-2.49.9-3.58l1.47-.15c-.34,1.27-1,2.94-1.42,3.64l-.94.09Z"/>
      <path class="cls-2" d="M532.42,373.22c.57-.12,1.47-.21,2.38-.21,1.3,0,2.15.22,2.77.74.52.39.84.99.84,1.78,0,.98-.65,1.83-1.71,2.22v.03c.96.24,2.08,1.04,2.08,2.54,0,.87-.34,1.53-.85,2.03-.71.64-1.84.94-3.49.94-.9,0-1.59-.06-2.02-.12v-9.94ZM533.72,377.36h1.19c1.38,0,2.19-.72,2.19-1.69,0-1.19-.9-1.65-2.22-1.65-.6,0-.94.04-1.15.09v3.25ZM533.72,382.21c.25.04.63.06,1.1.06,1.35,0,2.59-.5,2.59-1.96,0-1.38-1.19-1.95-2.61-1.95h-1.08v3.85Z"/>
      <path class="cls-2" d="M539.45,385.04c.33-.88.73-2.49.9-3.58l1.47-.15c-.34,1.27-1,2.94-1.42,3.64l-.94.09Z"/>
      <path class="cls-2" d="M550.52,382.87c-.48.24-1.44.48-2.67.48-2.85,0-4.99-1.8-4.99-5.12s2.15-5.31,5.28-5.31c1.26,0,2.05.27,2.4.45l-.31,1.06c-.5-.24-1.2-.42-2.04-.42-2.37,0-3.94,1.51-3.94,4.17,0,2.47,1.42,4.06,3.88,4.06.79,0,1.6-.17,2.13-.42l.27,1.04Z"/>
      <path class="cls-2" d="M551.26,385.04c.33-.88.73-2.49.9-3.58l1.47-.15c-.34,1.27-1,2.94-1.42,3.64l-.94.09Z"/>
      <path class="cls-2" d="M555.26,373.22c.79-.12,1.74-.21,2.77-.21,1.87,0,3.21.43,4.09,1.26.9.83,1.42,2,1.42,3.63s-.51,3-1.46,3.93c-.94.95-2.5,1.46-4.47,1.46-.93,0-1.71-.04-2.37-.12v-9.94ZM556.57,382.16c.33.06.81.08,1.32.08,2.79,0,4.31-1.56,4.31-4.29.01-2.38-1.33-3.9-4.1-3.9-.67,0-1.18.06-1.53.13v7.98Z"/>
      <path class="cls-2" d="M567.04,372.91v11.97h-2.74v-.83h1.72v-10.32h-1.72v-.83h2.74Z"/>
    </g>
    <line class="cls-6" x1="615.3" y1="300.57" x2="468.92" y2="302.07"/>
    <g>
      <circle class="cls-2" cx="469.05" cy="303.32" r="7.75"/>
      <path class="cls-3" d="M467.84,304.75l-.7,2.12h-.9l2.29-6.74h1.05l2.3,6.74h-.93l-.72-2.12h-2.39ZM470.05,304.07l-.66-1.94c-.15-.44-.25-.84-.35-1.23h-.02c-.1.4-.21.81-.34,1.22l-.66,1.95h2.03Z"/>
    </g>
    <g>
      <circle class="cls-2" cx="613.93" cy="364.89" r="7.75"/>
      <path class="cls-3" d="M616.5,368.22c-.32.16-.96.32-1.78.32-1.9,0-3.33-1.2-3.33-3.41s1.43-3.54,3.52-3.54c.84,0,1.37.18,1.6.3l-.21.71c-.33-.16-.8-.28-1.36-.28-1.58,0-2.63,1.01-2.63,2.78,0,1.65.95,2.71,2.59,2.71.53,0,1.07-.11,1.42-.28l.18.69Z"/>
    </g>
    <g>
      <circle class="cls-2" cx="467.93" cy="364.89" r="7.75"/>
      <path class="cls-3" d="M465.98,361.79c.38-.08.98-.14,1.59-.14.87,0,1.43.15,1.85.49.35.26.56.66.56,1.19,0,.65-.43,1.22-1.14,1.48v.02c.64.16,1.39.69,1.39,1.69,0,.58-.23,1.02-.57,1.35-.47.43-1.23.63-2.33.63-.6,0-1.06-.04-1.35-.08v-6.63ZM466.85,364.55h.79c.92,0,1.46-.48,1.46-1.13,0-.79-.6-1.1-1.48-1.1-.4,0-.63.03-.77.06v2.17ZM466.85,367.78c.17.03.42.04.73.04.9,0,1.73-.33,1.73-1.31,0-.92-.79-1.3-1.74-1.3h-.72v2.57Z"/>
    </g>
    <g>
      <circle class="cls-2" cx="613.93" cy="302.89" r="7.75"/>
      <path class="cls-3" d="M611.62,300.1c.48-.07,1.04-.13,1.67-.13,1.13,0,1.93.26,2.46.76.54.5.85,1.2.85,2.18s-.31,1.8-.87,2.36c-.57.57-1.5.87-2.68.87-.56,0-1.03-.03-1.42-.07v-5.97ZM612.4,305.46c.2.04.49.04.79.04,1.67,0,2.58-.94,2.58-2.58,0-1.43-.8-2.34-2.46-2.34-.41,0-.71.04-.92.08v4.79Z"/>
    </g>
  </g>
  <g>
    <line class="cls-6" x1="467.92" y1="154.07" x2="467.8" y2="102.55"/>
    <line class="cls-6" x1="467.3" y1="102.57" x2="539.3" y2="102.57"/>
    <line class="cls-6" x1="468.3" y1="153.57" x2="610.92" y2="154.07"/>
    <line class="cls-6" x1="611.3" y1="100.57" x2="612.92" y2="151.07"/>
    <line class="cls-6" x1="541.3" y1="102.57" x2="614.3" y2="100.57"/>
    <g>
      <circle class="cls-2" cx="468.05" cy="101.32" r="7.75"/>
      <path class="cls-3" d="M466.84,102.75l-.7,2.12h-.9l2.29-6.74h1.05l2.3,6.74h-.93l-.72-2.12h-2.39ZM469.05,102.07l-.66-1.94c-.15-.44-.25-.84-.35-1.23h-.02c-.1.4-.21.81-.34,1.22l-.66,1.95h2.03Z"/>
    </g>
    <g>
      <circle class="cls-2" cx="612.93" cy="153.89" r="7.75"/>
      <path class="cls-3" d="M615.5,157.22c-.32.16-.96.32-1.78.32-1.9,0-3.33-1.2-3.33-3.41s1.43-3.54,3.52-3.54c.84,0,1.37.18,1.6.3l-.21.71c-.33-.16-.8-.28-1.36-.28-1.58,0-2.63,1.01-2.63,2.78,0,1.65.95,2.71,2.59,2.71.53,0,1.07-.11,1.42-.28l.18.69Z"/>
    </g>
    <g>
      <circle class="cls-2" cx="466.93" cy="153.89" r="7.75"/>
      <path class="cls-3" d="M464.98,150.79c.38-.08.98-.14,1.59-.14.87,0,1.43.15,1.85.49.35.26.56.66.56,1.19,0,.65-.43,1.22-1.14,1.48v.02c.64.16,1.39.69,1.39,1.69,0,.58-.23,1.02-.57,1.35-.47.43-1.23.63-2.33.63-.6,0-1.06-.04-1.35-.08v-6.63ZM465.85,153.55h.79c.92,0,1.46-.48,1.46-1.13,0-.79-.6-1.1-1.48-1.1-.4,0-.63.03-.77.06v2.17ZM465.85,156.78c.17.03.42.04.73.04.9,0,1.73-.33,1.73-1.31,0-.92-.79-1.3-1.74-1.3h-.72v2.57Z"/>
    </g>
    <g>
      <circle class="cls-2" cx="612.93" cy="100.89" r="7.75"/>
      <path class="cls-3" d="M610.62,98.1c.48-.07,1.04-.13,1.67-.13,1.13,0,1.93.26,2.46.76.54.5.85,1.2.85,2.18s-.31,1.8-.87,2.36c-.57.57-1.5.87-2.68.87-.56,0-1.03-.03-1.42-.07v-5.97ZM611.4,103.46c.2.04.49.04.79.04,1.67,0,2.58-.94,2.58-2.58,0-1.43-.8-2.34-2.46-2.34-.41,0-.71.04-.92.08v4.79Z"/>
    </g>
    <g>
      <rect class="cls-5" x="473.28" y="171.55" width="134.61" height="23.48"/>
      <path class="cls-2" d="M510.09,183.88v-11.95h2.74v.83h-1.72v10.3h1.72v.83h-2.74Z"/>
      <path class="cls-2" d="M515.73,179.02l-1.05,3.18h-1.35l3.44-10.11h1.57l3.45,10.11h-1.4l-1.08-3.18h-3.58ZM519.04,178l-.99-2.91c-.22-.66-.38-1.26-.52-1.85h-.03c-.15.6-.31,1.22-.51,1.83l-.99,2.92h3.04Z"/>
      <path class="cls-2" d="M522.37,184.04c.33-.88.73-2.49.9-3.58l1.47-.15c-.34,1.27-1,2.94-1.42,3.64l-.94.09Z"/>
      <path class="cls-2" d="M526.38,172.22c.57-.12,1.47-.21,2.38-.21,1.3,0,2.15.22,2.77.74.52.39.84.99.84,1.78,0,.98-.65,1.83-1.71,2.22v.03c.96.24,2.08,1.04,2.08,2.54,0,.87-.34,1.53-.85,2.03-.71.64-1.84.94-3.49.94-.9,0-1.59-.06-2.02-.12v-9.94ZM527.68,176.36h1.19c1.38,0,2.19-.72,2.19-1.69,0-1.19-.9-1.65-2.22-1.65-.6,0-.94.04-1.15.09v3.25ZM527.68,181.21c.25.04.63.06,1.1.06,1.35,0,2.59-.5,2.59-1.96,0-1.38-1.19-1.95-2.61-1.95h-1.08v3.85Z"/>
      <path class="cls-2" d="M533.41,184.04c.33-.88.74-2.49.9-3.58l1.47-.15c-.34,1.27-1,2.94-1.42,3.64l-.95.09Z"/>
      <path class="cls-2" d="M544.48,181.87c-.48.24-1.44.48-2.67.48-2.85,0-4.99-1.8-4.99-5.12s2.15-5.31,5.28-5.31c1.26,0,2.05.27,2.4.45l-.31,1.06c-.5-.24-1.2-.42-2.04-.42-2.37,0-3.94,1.51-3.94,4.17,0,2.47,1.42,4.06,3.88,4.06.79,0,1.6-.17,2.13-.42l.27,1.04Z"/>
      <path class="cls-2" d="M545.22,184.04c.33-.88.74-2.49.9-3.58l1.47-.15c-.34,1.27-1,2.94-1.42,3.64l-.95.09Z"/>
      <path class="cls-2" d="M549.22,172.22c.79-.12,1.74-.21,2.77-.21,1.87,0,3.21.43,4.09,1.26.9.83,1.42,2,1.42,3.63s-.51,3-1.46,3.93c-.94.95-2.5,1.46-4.47,1.46-.93,0-1.71-.04-2.37-.12v-9.94ZM550.53,181.16c.33.06.81.08,1.32.08,2.79,0,4.31-1.56,4.31-4.29.01-2.38-1.33-3.9-4.1-3.9-.67,0-1.18.06-1.53.13v7.98Z"/>
      <path class="cls-2" d="M557.8,184.04c.33-.88.73-2.49.9-3.58l1.47-.15c-.34,1.27-1,2.94-1.42,3.64l-.94.09Z"/>
      <path class="cls-2" d="M567.04,177.46h-3.93v3.65h4.38v1.09h-5.68v-10.11h5.46v1.09h-4.15v3.2h3.93v1.08Z"/>
      <path class="cls-2" d="M571.08,171.91v11.97h-2.74v-.83h1.72v-10.32h-1.72v-.83h2.74Z"/>
    </g>
    <g>
      <circle class="cls-2" cx="539.85" cy="101.69" r="7.75"/>
      <path class="cls-3" d="M541.64,102.08h-2.62v2.43h2.92v.73h-3.79v-6.74h3.64v.73h-2.77v2.13h2.62v.72Z"/>
    </g>
  </g>
  <g>
    <line class="cls-6" x1="467.3" y1="208.57" x2="466.92" y2="250.07"/>
    <line class="cls-6" x1="536.42" y1="246.07" x2="466.42" y2="246.07"/>
    <line class="cls-6" x1="614.92" y1="207.07" x2="536.92" y2="246.07"/>
    <g>
      <rect class="cls-5" x="473.28" y="263.55" width="134.61" height="23.48"/>
      <path class="cls-2" d="M509.91,275.88v-11.95h2.74v.83h-1.72v10.3h1.72v.83h-2.74Z"/>
      <path class="cls-2" d="M515.55,271.02l-1.05,3.18h-1.35l3.44-10.11h1.57l3.45,10.11h-1.4l-1.08-3.18h-3.58ZM518.87,270l-.99-2.91c-.22-.66-.38-1.26-.52-1.85h-.03c-.15.6-.31,1.22-.51,1.83l-.99,2.92h3.04Z"/>
      <path class="cls-2" d="M522.2,276.04c.33-.88.73-2.49.9-3.58l1.47-.15c-.34,1.27-1,2.94-1.42,3.64l-.94.09Z"/>
      <path class="cls-2" d="M526.2,264.22c.57-.12,1.47-.21,2.38-.21,1.3,0,2.15.22,2.77.74.52.39.84.99.84,1.78,0,.98-.65,1.83-1.71,2.22v.03c.96.24,2.08,1.04,2.08,2.54,0,.87-.34,1.53-.85,2.03-.71.64-1.84.94-3.49.94-.9,0-1.59-.06-2.02-.12v-9.94ZM527.51,268.36h1.19c1.38,0,2.19-.72,2.19-1.69,0-1.19-.9-1.65-2.22-1.65-.6,0-.94.04-1.15.09v3.25ZM527.51,273.21c.25.04.63.06,1.1.06,1.35,0,2.59-.5,2.59-1.96,0-1.38-1.19-1.95-2.61-1.95h-1.08v3.85Z"/>
      <path class="cls-2" d="M533.24,276.04c.33-.88.73-2.49.9-3.58l1.47-.15c-.34,1.27-1,2.94-1.42,3.64l-.94.09Z"/>
      <path class="cls-2" d="M544.31,273.87c-.48.24-1.44.48-2.67.48-2.85,0-4.99-1.8-4.99-5.12s2.15-5.31,5.28-5.31c1.26,0,2.05.27,2.4.45l-.31,1.06c-.5-.24-1.2-.42-2.04-.42-2.37,0-3.94,1.51-3.94,4.17,0,2.47,1.42,4.06,3.88,4.06.79,0,1.6-.17,2.13-.42l.27,1.04Z"/>
      <path class="cls-2" d="M545.05,276.04c.33-.88.73-2.49.9-3.58l1.47-.15c-.34,1.27-1,2.94-1.42,3.64l-.94.09Z"/>
      <path class="cls-2" d="M554.28,269.46h-3.93v3.65h4.38v1.09h-5.68v-10.11h5.46v1.09h-4.15v3.2h3.93v1.08Z"/>
      <path class="cls-2" d="M555.47,276.04c.33-.88.73-2.49.9-3.58l1.47-.15c-.34,1.27-1,2.94-1.42,3.64l-.94.09Z"/>
      <path class="cls-2" d="M559.47,264.22c.79-.12,1.74-.21,2.77-.21,1.87,0,3.21.43,4.09,1.26.9.83,1.42,2,1.42,3.63s-.51,3-1.46,3.93c-.94.95-2.5,1.46-4.47,1.46-.93,0-1.71-.04-2.37-.12v-9.94ZM560.78,273.16c.33.06.81.08,1.32.08,2.79,0,4.31-1.56,4.31-4.29.01-2.38-1.33-3.9-4.1-3.9-.67,0-1.18.06-1.53.13v7.98Z"/>
      <path class="cls-2" d="M571.25,263.91v11.97h-2.74v-.83h1.72v-10.32h-1.72v-.83h2.74Z"/>
    </g>
    <line class="cls-6" x1="467.3" y1="208.57" x2="612.3" y2="207.57"/>
    <g>
      <circle class="cls-2" cx="612.99" cy="206.69" r="7.75"/>
      <path class="cls-3" d="M614.78,207.08h-2.62v2.43h2.92v.73h-3.79v-6.74h3.64v.73h-2.77v2.13h2.62v.72Z"/>
    </g>
    <g>
      <circle class="cls-2" cx="468.05" cy="207.32" r="7.75"/>
      <path class="cls-3" d="M466.84,208.75l-.7,2.12h-.9l2.29-6.74h1.05l2.3,6.74h-.93l-.72-2.12h-2.39ZM469.05,208.07l-.66-1.94c-.15-.44-.25-.84-.35-1.23h-.02c-.1.4-.21.81-.34,1.22l-.66,1.95h2.03Z"/>
    </g>
    <g>
      <circle class="cls-2" cx="534.05" cy="246.39" r="7.75"/>
      <path class="cls-3" d="M536.62,249.72c-.32.16-.96.32-1.78.32-1.9,0-3.33-1.2-3.33-3.41s1.43-3.54,3.52-3.54c.84,0,1.37.18,1.6.3l-.21.71c-.33-.16-.8-.28-1.36-.28-1.58,0-2.63,1.01-2.63,2.78,0,1.65.95,2.71,2.59,2.71.53,0,1.07-.11,1.42-.28l.18.69Z"/>
    </g>
    <g>
      <circle class="cls-2" cx="467.05" cy="246.39" r="7.75"/>
      <path class="cls-3" d="M465.1,243.29c.38-.08.98-.14,1.59-.14.87,0,1.43.15,1.85.49.35.26.56.66.56,1.19,0,.65-.43,1.22-1.14,1.48v.02c.64.16,1.39.69,1.39,1.69,0,.58-.23,1.02-.57,1.35-.47.43-1.23.63-2.33.63-.6,0-1.06-.04-1.35-.08v-6.63ZM465.97,246.05h.79c.92,0,1.46-.48,1.46-1.13,0-.79-.6-1.1-1.48-1.1-.4,0-.63.03-.77.06v2.17ZM465.97,249.28c.17.03.42.04.73.04.9,0,1.73-.33,1.73-1.31,0-.92-.79-1.3-1.74-1.3h-.72v2.57Z"/>
    </g>
    <g>
      <circle class="cls-2" cx="536.93" cy="206.89" r="7.75"/>
      <path class="cls-3" d="M534.62,204.1c.48-.07,1.04-.13,1.67-.13,1.13,0,1.93.26,2.46.76.54.5.85,1.2.85,2.18s-.31,1.8-.87,2.36c-.57.57-1.5.87-2.68.87-.56,0-1.03-.03-1.42-.07v-5.97ZM535.4,209.46c.2.04.49.04.79.04,1.67,0,2.58-.94,2.58-2.58,0-1.43-.8-2.34-2.46-2.34-.41,0-.71.04-.92.08v4.79Z"/>
    </g>
  </g>
  <g>
    <g>
      <line class="cls-4" x1="318.42" y1="268.07" x2="426.08" y2="268.07"/>
      <polygon class="cls-7" points="421.94 282.2 446.42 268.07 421.94 253.93 421.94 282.2"/>
    </g>
    <g>
      <rect class="cls-5" x="321.42" y="259.8" width="100" height="30.77"/>
      <path class="cls-2" d="M354.37,265.99c-.29.14-.86.29-1.6.29-1.71,0-3-1.08-3-3.07s1.29-3.19,3.17-3.19c.76,0,1.23.16,1.44.27l-.19.64c-.3-.14-.72-.25-1.22-.25-1.42,0-2.37.91-2.37,2.5,0,1.49.86,2.44,2.33,2.44.48,0,.96-.1,1.28-.25l.16.62Z"/>
      <path class="cls-2" d="M359.17,263.98c0,1.61-1.12,2.31-2.17,2.31-1.18,0-2.09-.86-2.09-2.24,0-1.46.95-2.31,2.16-2.31s2.1.91,2.1,2.24ZM355.71,264.02c0,.95.55,1.67,1.32,1.67s1.32-.71,1.32-1.69c0-.74-.37-1.67-1.31-1.67s-1.34.86-1.34,1.69Z"/>
      <path class="cls-2" d="M360.17,263.01c0-.45,0-.82-.04-1.18h.7l.04.72h.02c.22-.41.72-.82,1.44-.82.6,0,1.54.36,1.54,1.85v2.6h-.79v-2.51c0-.7-.26-1.29-1.01-1.29-.52,0-.93.37-1.06.81-.04.1-.05.23-.05.37v2.62h-.79v-3.18Z"/>
      <path class="cls-2" d="M365.35,261.83l.86,2.45c.14.4.26.76.35,1.12h.03c.1-.36.23-.72.37-1.12l.85-2.45h.83l-1.71,4.36h-.76l-1.66-4.36h.85Z"/>
      <path class="cls-2" d="M369.73,264.16c.02,1.07.7,1.51,1.49,1.51.57,0,.91-.1,1.21-.23l.14.57c-.28.13-.76.27-1.45.27-1.34,0-2.14-.88-2.14-2.2s.77-2.35,2.04-2.35c1.42,0,1.8,1.25,1.8,2.05,0,.16-.02.29-.03.37h-3.06ZM372.05,263.59c0-.5-.21-1.29-1.1-1.29-.8,0-1.15.74-1.21,1.29h2.31Z"/>
      <path class="cls-2" d="M374.14,261.83l.62.94c.16.24.3.47.44.71h.03c.14-.26.29-.49.43-.72l.61-.93h.86l-1.49,2.11,1.53,2.25h-.9l-.64-.98c-.17-.25-.31-.5-.47-.76h-.02c-.14.26-.3.5-.46.76l-.63.98h-.87l1.55-2.22-1.48-2.13h.88Z"/>
      <path class="cls-2" d="M379.84,259.8h.79v2.72h.02c.13-.22.32-.42.57-.56.23-.13.51-.22.81-.22.58,0,1.52.36,1.52,1.86v2.59h-.79v-2.5c0-.7-.26-1.3-1.01-1.3-.51,0-.92.36-1.06.79-.05.11-.05.23-.05.38v2.63h-.79v-6.39Z"/>
      <path class="cls-2" d="M388.48,265c0,.45,0,.85.04,1.19h-.7l-.04-.71h-.02c-.21.35-.67.81-1.44.81-.68,0-1.5-.38-1.5-1.91v-2.55h.79v2.41c0,.83.25,1.39.97,1.39.53,0,.9-.37,1.04-.72.04-.12.07-.26.07-.41v-2.67h.79v3.17Z"/>
      <path class="cls-2" d="M389.8,259.8h.79v6.39h-.79v-6.39Z"/>
      <path class="cls-2" d="M391.92,259.8h.79v6.39h-.79v-6.39Z"/>
    </g>
  </g>
  <g>
    <g>
      <rect class="cls-5" x="43.4" y="66.05" width="134.61" height="23.48"/>
      <path class="cls-2" d="M91.61,78.37v-11.95h2.74v.83h-1.72v10.3h1.72v.83h-2.74Z"/>
      <path class="cls-2" d="M97.25,73.52l-1.05,3.18h-1.35l3.44-10.11h1.57l3.45,10.11h-1.4l-1.08-3.18h-3.58ZM100.57,72.49l-.99-2.91c-.22-.66-.38-1.26-.52-1.85h-.03c-.15.6-.31,1.22-.51,1.83l-.99,2.92h3.04Z"/>
      <path class="cls-2" d="M103.9,78.54c.33-.88.73-2.49.9-3.58l1.47-.15c-.34,1.27-1,2.94-1.42,3.64l-.94.09Z"/>
      <path class="cls-2" d="M107.9,66.72c.57-.12,1.47-.21,2.38-.21,1.3,0,2.15.22,2.77.74.52.39.84.99.84,1.78,0,.98-.65,1.83-1.71,2.22v.03c.96.24,2.08,1.04,2.08,2.54,0,.87-.34,1.53-.85,2.03-.71.64-1.84.94-3.49.94-.9,0-1.59-.06-2.02-.12v-9.94ZM109.21,70.86h1.19c1.38,0,2.19-.72,2.19-1.69,0-1.19-.9-1.65-2.22-1.65-.6,0-.94.04-1.15.09v3.25ZM109.21,75.7c.25.04.63.06,1.1.06,1.35,0,2.59-.5,2.59-1.96,0-1.38-1.19-1.95-2.61-1.95h-1.08v3.85Z"/>
      <path class="cls-2" d="M114.94,78.54c.33-.88.74-2.49.9-3.58l1.47-.15c-.34,1.27-1,2.94-1.42,3.64l-.95.09Z"/>
      <path class="cls-2" d="M126.01,76.36c-.48.24-1.44.48-2.67.48-2.85,0-4.99-1.8-4.99-5.12s2.15-5.31,5.28-5.31c1.26,0,2.05.27,2.4.45l-.31,1.06c-.5-.24-1.2-.42-2.04-.42-2.37,0-3.94,1.51-3.94,4.17,0,2.47,1.42,4.06,3.88,4.06.79,0,1.6-.17,2.13-.42l.27,1.04Z"/>
      <path class="cls-2" d="M129.79,66.4v11.97h-2.74v-.83h1.72v-10.32h-1.72v-.83h2.74Z"/>
    </g>
    <line class="cls-6" x1="35.42" y1="45.07" x2="180.42" y2="44.07"/>
    <g>
      <circle class="cls-2" cx="36.17" cy="43.82" r="7.75"/>
      <path class="cls-3" d="M34.96,45.25l-.7,2.12h-.9l2.29-6.74h1.05l2.3,6.74h-.93l-.72-2.12h-2.39ZM37.17,44.57l-.66-1.94c-.15-.44-.25-.84-.35-1.23h-.02c-.1.4-.21.81-.34,1.22l-.66,1.95h2.03Z"/>
    </g>
    <g>
      <circle class="cls-2" cx="178.05" cy="43.39" r="7.75"/>
      <path class="cls-3" d="M180.62,46.72c-.32.16-.96.32-1.78.32-1.9,0-3.33-1.2-3.33-3.41s1.43-3.54,3.52-3.54c.84,0,1.37.18,1.6.3l-.21.71c-.33-.16-.8-.28-1.36-.28-1.58,0-2.63,1.01-2.63,2.78,0,1.65.95,2.71,2.59,2.71.53,0,1.07-.11,1.42-.28l.18.69Z"/>
    </g>
    <g>
      <circle class="cls-2" cx="104.05" cy="43.39" r="7.75"/>
      <path class="cls-3" d="M102.1,40.29c.38-.08.98-.14,1.59-.14.87,0,1.43.15,1.85.49.35.26.56.66.56,1.19,0,.65-.43,1.22-1.14,1.48v.02c.64.16,1.39.69,1.39,1.69,0,.58-.23,1.02-.57,1.35-.47.43-1.23.63-2.33.63-.6,0-1.06-.04-1.35-.08v-6.63ZM102.97,43.05h.79c.92,0,1.46-.48,1.46-1.13,0-.79-.6-1.1-1.48-1.1-.4,0-.63.03-.77.06v2.17ZM102.97,46.28c.17.03.42.04.73.04.9,0,1.73-.33,1.73-1.31,0-.92-.79-1.3-1.74-1.3h-.72v2.57Z"/>
    </g>
  </g>
  <g>
    <rect class="cls-5" x="469.68" y="35.91" width="134.61" height="23.48"/>
    <path class="cls-2" d="M513.79,39.95c.35-1.26.99-2.88,1.41-3.57l.84-.09c-.33.88-.72,2.43-.88,3.51l-1.37.15ZM516.03,39.95c.33-1.26.99-2.88,1.39-3.57l.84-.09c-.33.88-.72,2.43-.89,3.51l-1.35.15Z"/>
    <path class="cls-2" d="M524.98,35.91v8.77c0,.65.02,1.38.06,1.88h-1.19l-.06-1.26h-.03c-.41.81-1.29,1.42-2.48,1.42-1.75,0-3.1-1.49-3.1-3.69-.01-2.42,1.48-3.9,3.25-3.9,1.11,0,1.86.53,2.19,1.11h.03v-4.33h1.32ZM523.66,42.26c0-.17-.02-.39-.06-.55-.2-.84-.92-1.53-1.91-1.53-1.36,0-2.17,1.2-2.17,2.8,0,1.47.72,2.68,2.15,2.68.88,0,1.69-.58,1.94-1.57.04-.18.06-.36.06-.57v-1.26Z"/>
    <path class="cls-2" d="M527.91,43.17c.03,1.79,1.17,2.52,2.49,2.52.94,0,1.52-.17,2.01-.38l.23.95c-.46.21-1.26.45-2.42.45-2.23,0-3.57-1.47-3.57-3.66s1.29-3.92,3.4-3.92c2.37,0,3,2.08,3,3.42,0,.27-.03.48-.04.62h-5.1ZM531.78,42.23c.02-.84-.34-2.14-1.83-2.14-1.33,0-1.92,1.23-2.02,2.14h3.85Z"/>
    <path class="cls-2" d="M534.69,35.91h1.32v10.65h-1.32v-10.65Z"/>
    <path class="cls-2" d="M538.96,43.17c.03,1.79,1.17,2.52,2.49,2.52.94,0,1.52-.17,2.01-.38l.23.95c-.46.21-1.26.45-2.42.45-2.23,0-3.57-1.47-3.57-3.66s1.29-3.92,3.4-3.92c2.37,0,3,2.08,3,3.42,0,.27-.03.48-.04.62h-5.1ZM542.83,42.23c.02-.84-.34-2.14-1.83-2.14-1.33,0-1.92,1.23-2.02,2.14h3.85Z"/>
    <path class="cls-2" d="M547.33,37.22v2.08h1.89v1h-1.89v3.92c0,.9.25,1.41.99,1.41.35,0,.6-.04.77-.09l.06.99c-.26.11-.66.18-1.17.18-.62,0-1.11-.2-1.43-.56-.38-.39-.51-1.04-.51-1.89v-3.96h-1.12v-1h1.12v-1.74l1.29-.34Z"/>
    <path class="cls-2" d="M551.35,43.17c.03,1.79,1.17,2.52,2.49,2.52.94,0,1.52-.17,2.01-.38l.23.95c-.46.21-1.26.45-2.42.45-2.23,0-3.57-1.47-3.57-3.66s1.29-3.92,3.4-3.92c2.37,0,3,2.08,3,3.42,0,.27-.03.48-.04.62h-5.1ZM555.22,42.23c.02-.84-.34-2.14-1.83-2.14-1.33,0-1.92,1.23-2.02,2.14h3.85Z"/>
    <path class="cls-2" d="M559.41,36.29c-.35,1.26-.99,2.86-1.4,3.55l-.84.11c.32-.89.72-2.45.89-3.53l1.35-.13ZM561.63,36.29c-.35,1.26-.99,2.86-1.4,3.55l-.84.11c.33-.89.72-2.45.88-3.53l1.35-.13Z"/>
  </g>
  <g>
    <g>
      <line class="cls-4" x1="320.42" y1="42.07" x2="428.08" y2="42.07"/>
      <polygon class="cls-7" points="423.94 56.2 448.42 42.07 423.94 27.93 423.94 56.2"/>
    </g>
    <g>
      <rect class="cls-5" x="323.07" y="33.45" width="94.96" height="17.93"/>
      <path class="cls-2" d="M358.93,33.86c.48-.07,1.04-.13,1.67-.13,1.12,0,1.93.26,2.46.76.54.5.86,1.2.86,2.18s-.31,1.8-.87,2.36c-.57.57-1.5.87-2.68.87-.56,0-1.03-.03-1.42-.07v-5.97ZM359.71,39.22c.2.04.49.04.79.04,1.67,0,2.58-.94,2.58-2.58,0-1.43-.8-2.34-2.46-2.34-.41,0-.71.04-.92.08v4.79Z"/>
      <path class="cls-2" d="M365.37,37.81c.02,1.07.7,1.51,1.49,1.51.57,0,.91-.1,1.21-.22l.14.57c-.28.13-.76.27-1.45.27-1.34,0-2.14-.88-2.14-2.2s.77-2.35,2.04-2.35c1.42,0,1.8,1.25,1.8,2.05,0,.16-.02.29-.03.37h-3.06ZM367.7,37.24c0-.5-.21-1.29-1.1-1.29-.8,0-1.15.74-1.21,1.29h2.31Z"/>
      <path class="cls-2" d="M369.44,33.45h.79v6.39h-.79v-6.39Z"/>
      <path class="cls-2" d="M372.01,37.81c.02,1.07.7,1.51,1.49,1.51.57,0,.91-.1,1.21-.22l.14.57c-.28.13-.76.27-1.45.27-1.34,0-2.14-.88-2.14-2.2s.77-2.35,2.04-2.35c1.42,0,1.8,1.25,1.8,2.05,0,.16-.02.29-.03.37h-3.06ZM374.33,37.24c0-.5-.21-1.29-1.1-1.29-.8,0-1.15.74-1.21,1.29h2.31Z"/>
      <path class="cls-2" d="M377.03,34.23v1.25h1.13v.6h-1.13v2.35c0,.54.15.85.59.85.21,0,.36-.03.46-.05l.04.59c-.15.06-.4.11-.7.11-.37,0-.67-.12-.86-.33-.23-.23-.31-.62-.31-1.13v-2.38h-.67v-.6h.67v-1.04l.77-.21Z"/>
      <path class="cls-2" d="M379.44,37.81c.02,1.07.7,1.51,1.49,1.51.57,0,.91-.1,1.21-.22l.14.57c-.28.13-.76.27-1.45.27-1.34,0-2.14-.88-2.14-2.2s.77-2.35,2.04-2.35c1.42,0,1.8,1.25,1.8,2.05,0,.16-.02.29-.03.37h-3.06ZM381.76,37.24c0-.5-.21-1.29-1.1-1.29-.8,0-1.15.74-1.21,1.29h2.31Z"/>
    </g>
  </g>
  <g>
    <rect class="cls-5" x="287.12" y="236.37" width="45.04" height="70.6"/>
    <path class="cls-1" d="M295.33,252.64l4.97,7.49c1.3,1.94,2.38,3.74,3.53,5.69h.22c1.15-2.09,2.3-3.89,3.46-5.76l4.9-7.42h6.84l-11.88,16.85,12.24,18h-7.2l-5.11-7.85c-1.37-2.02-2.52-3.96-3.75-6.05h-.14c-1.15,2.09-2.38,3.96-3.67,6.05l-5.04,7.85h-6.98l12.38-17.79-11.81-17.07h7.06Z"/>
  </g>
  <path class="cls-8" d="M289.31,24.67l6.84,19.58c1.15,3.17,2.09,6.05,2.81,8.93h.22c.79-2.88,1.8-5.76,2.95-8.93l6.77-19.58h6.62l-13.68,34.85h-6.05l-13.25-34.85h6.77Z"/>
  <g>
    <g>
      <line class="cls-7" x1="187.37" y1="167.5" x2="315.37" y2="166.64"/>
      <g>
        <line class="cls-4" x1="187.37" y1="167.5" x2="295.03" y2="166.77"/>
        <polygon class="cls-7" points="290.99 180.93 315.37 166.64 290.8 152.67 290.99 180.93"/>
      </g>
    </g>
    <g>
      <rect class="cls-5" x="190.42" y="158.88" width="100" height="30.77" transform="translate(-1.17 1.63) rotate(-.39)"/>
      <path class="cls-2" d="M205.63,165.35c-.29.15-.86.29-1.6.3-1.71.01-3.01-1.06-3.02-3.05-.01-1.9,1.27-3.2,3.15-3.21.76,0,1.23.15,1.44.26l-.19.64c-.3-.14-.72-.25-1.23-.24-1.42,0-2.36.93-2.35,2.52,0,1.49.87,2.43,2.35,2.42.48,0,.96-.1,1.28-.26l.17.62Z"/>
      <path class="cls-2" d="M210.42,163.3c.01,1.61-1.1,2.32-2.15,2.33-1.18,0-2.09-.85-2.1-2.23,0-1.46.94-2.32,2.15-2.33,1.25,0,2.1.9,2.11,2.23ZM206.96,163.37c0,.95.56,1.67,1.33,1.67.76,0,1.32-.72,1.31-1.7,0-.74-.38-1.67-1.32-1.67-.94,0-1.33.87-1.33,1.7Z"/>
      <path class="cls-2" d="M211.39,159.12h.79s.04,6.39.04,6.39h-.79s-.04-6.39-.04-6.39Z"/>
      <path class="cls-2" d="M213.51,159.1h.79s.04,6.39.04,6.39h-.79s-.04-6.39-.04-6.39Z"/>
      <path class="cls-2" d="M218.09,165.46l-.07-.55h-.03c-.24.34-.71.65-1.33.66-.88,0-1.34-.61-1.34-1.24,0-1.05.92-1.64,2.61-1.64v-.09c0-.36-.11-1.01-1-1-.41,0-.83.13-1.13.33l-.18-.52c.36-.24.88-.39,1.43-.4,1.33,0,1.66.9,1.67,1.77v1.63c.01.38.03.75.09,1.04h-.72ZM217.96,163.24c-.86-.01-1.84.15-1.84.99,0,.51.35.75.75.75.57,0,.92-.37,1.05-.74.03-.08.04-.17.04-.25v-.76Z"/>
      <path class="cls-2" d="M220,162.52c0-.56-.02-1.01-.05-1.42h.71s.04.74.04.74h.02c.32-.53.83-.85,1.54-.86,1.05,0,1.85.88,1.86,2.2.01,1.57-.94,2.35-1.96,2.35-.58,0-1.08-.25-1.35-.67h-.02l.02,2.37h-.78s-.03-4.71-.03-4.71ZM220.79,163.67c0,.12.02.22.04.32.15.55.63.92,1.2.92.84,0,1.32-.69,1.31-1.69,0-.87-.47-1.62-1.31-1.61-.54,0-1.04.39-1.19.99-.03.1-.05.22-.05.32v.75Z"/>
      <path class="cls-2" d="M225.02,164.61c.24.15.65.31,1.05.31.58,0,.84-.29.84-.65,0-.38-.23-.58-.81-.8-.79-.27-1.16-.7-1.16-1.23,0-.7.56-1.28,1.5-1.29.44,0,.83.12,1.07.26l-.19.58c-.17-.11-.49-.25-.89-.25-.47,0-.73.27-.73.6,0,.36.26.52.83.73.76.28,1.15.66,1.15,1.31,0,.76-.59,1.31-1.62,1.32-.48,0-.92-.11-1.23-.29l.19-.6Z"/>
      <path class="cls-2" d="M229.13,163.35c.03,1.07.71,1.51,1.5,1.5.57,0,.91-.1,1.2-.23l.14.57c-.28.13-.75.28-1.45.28-1.34,0-2.15-.87-2.16-2.18s.76-2.35,2.03-2.36c1.42,0,1.81,1.24,1.81,2.04,0,.16-.02.29-.03.37l-3.06.02ZM231.45,162.77c0-.5-.22-1.29-1.11-1.28-.8,0-1.15.75-1.21,1.3l2.31-.02Z"/>
      <path class="cls-2" d="M236.93,158.94l.04,5.27c0,.39.01.83.04,1.12h-.71s-.04-.75-.04-.75h-.02c-.24.49-.77.86-1.48.87-1.05,0-1.87-.88-1.88-2.2-.02-1.45.88-2.35,1.94-2.35.67,0,1.12.31,1.32.66h.02l-.02-2.6h.79ZM236.16,162.76c0-.1,0-.23-.04-.33-.12-.5-.55-.91-1.15-.91-.82,0-1.3.73-1.29,1.69,0,.88.44,1.61,1.3,1.6.53,0,1.01-.36,1.15-.95.03-.11.04-.22.03-.34v-.76Z"/>
      <path class="cls-2" d="M241.04,159.73c.01.27-.19.49-.5.49-.28,0-.48-.21-.48-.48,0-.28.2-.5.49-.5.3,0,.49.21.49.49ZM240.19,165.31l-.03-4.36h.79s.03,4.35.03,4.35h-.79Z"/>
      <path class="cls-2" d="M242.28,162.12c0-.45-.01-.82-.04-1.18h.7s.05.71.05.71h.02c.21-.42.71-.82,1.44-.83.6,0,1.54.35,1.55,1.84l.02,2.6h-.79s-.02-2.51-.02-2.51c0-.7-.27-1.29-1.02-1.28-.52,0-.92.38-1.06.82-.04.1-.05.23-.05.37l.02,2.62h-.79s-.02-3.17-.02-3.17Z"/>
      <path class="cls-2" d="M248.17,159.65v1.25s1.14,0,1.14,0v.6s-1.13,0-1.13,0l.02,2.35c0,.54.16.84.6.84.21,0,.36-.03.46-.06l.04.59c-.15.06-.4.11-.7.11-.37,0-.67-.11-.86-.33-.23-.23-.31-.62-.31-1.13l-.02-2.38h-.67s0-.6,0-.6h.67s0-1.05,0-1.05l.77-.21Z"/>
      <path class="cls-2" d="M254.11,163.01c.01,1.61-1.1,2.32-2.15,2.33-1.18,0-2.09-.85-2.1-2.23,0-1.46.94-2.32,2.15-2.33,1.25,0,2.1.9,2.11,2.23ZM250.65,163.07c0,.95.56,1.67,1.33,1.67.76,0,1.32-.72,1.31-1.7,0-.74-.38-1.67-1.32-1.67-.94,0-1.33.87-1.33,1.7Z"/>
      <path class="cls-2" d="M259.44,165.18l-.07-.55h-.03c-.24.34-.71.65-1.33.66-.88,0-1.34-.61-1.34-1.24,0-1.05.92-1.64,2.61-1.64v-.09c0-.36-.11-1.01-1-1-.41,0-.83.13-1.13.33l-.18-.52c.36-.24.88-.39,1.43-.4,1.33,0,1.66.9,1.67,1.77v1.63c.01.38.03.75.09,1.04h-.72ZM259.31,162.96c-.86-.01-1.84.15-1.84.99,0,.51.35.75.75.75.57,0,.92-.37,1.05-.74.03-.08.04-.17.04-.25v-.76Z"/>
      <path class="cls-2" d="M263.23,158.77h.79s.04,6.39.04,6.39h-.79s-.04-6.39-.04-6.39Z"/>
      <path class="cls-2" d="M266.25,159.56c.01.27-.19.49-.5.49-.28,0-.48-.21-.48-.48,0-.28.2-.5.49-.5.3,0,.49.21.49.49ZM265.4,165.14l-.03-4.36h.79s.03,4.35.03,4.35h-.79Z"/>
      <path class="cls-2" d="M267.49,161.95c0-.45-.01-.82-.04-1.18h.7s.05.71.05.71h.02c.21-.42.71-.82,1.44-.83.6,0,1.54.35,1.55,1.84l.02,2.6h-.79s-.02-2.51-.02-2.51c0-.7-.27-1.29-1.02-1.28-.52,0-.92.38-1.06.82-.04.1-.05.23-.05.37l.02,2.62h-.79s-.02-3.17-.02-3.17Z"/>
      <path class="cls-2" d="M272.93,163.06c.03,1.07.71,1.51,1.5,1.5.57,0,.91-.11,1.2-.23l.14.57c-.28.13-.75.28-1.45.28-1.34,0-2.15-.87-2.16-2.18s.76-2.36,2.03-2.36c1.42,0,1.81,1.24,1.81,2.04,0,.16-.02.29-.03.37l-3.06.02ZM275.25,162.48c0-.5-.22-1.29-1.11-1.28-.8,0-1.15.75-1.21,1.3l2.31-.02Z"/>
      <path class="cls-2" d="M277.61,163.34l-.02-.23c-.06-.49.1-1.02.55-1.56.4-.48.62-.83.62-1.24,0-.46-.29-.76-.86-.77-.32,0-.68.11-.91.29l-.22-.57c.3-.22.81-.37,1.29-.37,1.04,0,1.51.63,1.51,1.31,0,.61-.33,1.06-.76,1.57-.39.47-.53.87-.5,1.33v.23s-.69,0-.69,0ZM277.42,164.6c0-.33.22-.57.54-.57.32,0,.53.23.54.56,0,.31-.2.56-.54.56-.32,0-.53-.24-.54-.55Z"/>
    </g>
  </g>
</svg>