<?xml version="1.0" encoding="UTF-8"?>
<svg id="Polygon" xmlns="http://www.w3.org/2000/svg" viewBox="0 0 538.58 348.6">
  <defs>
    <style>
      .cls-1 {
        fill: #231f20;
      }

      .cls-2 {
        fill: #6dbae7;
        opacity: .31;
      }

      .cls-3 {
        fill: #fff;
      }

      .cls-4 {
        stroke: #9b9a9a;
      }

      .cls-4, .cls-5, .cls-6 {
        fill: none;
      }

      .cls-4, .cls-6 {
        stroke-miterlimit: 10;
        stroke-width: 2.83px;
      }

      .cls-7 {
        fill: #9b9a9a;
      }

      .cls-6 {
        stroke: #437898;
      }
    </style>
  </defs>
  <g>
    <rect class="cls-2" x="29.83" y="191.57" width="145" height="115"/>
    <rect class="cls-3" x="55.83" y="217.57" width="68" height="35"/>
    <rect class="cls-3" x="84.83" y="217.57" width="68" height="35"/>
    <rect class="cls-6" x="28.33" y="190.07" width="146" height="117"/>
    <g>
      <circle class="cls-1" cx="29.08" cy="190.82" r="7.75"/>
      <path class="cls-3" d="M27.87,192.25l-.7,2.12h-.9l2.29-6.74h1.05l2.3,6.74h-.93l-.72-2.12h-2.39ZM30.08,191.57l-.66-1.94c-.15-.44-.25-.84-.35-1.23h-.02c-.1.4-.21.81-.34,1.22l-.66,1.95h2.03Z"/>
    </g>
    <g>
      <circle class="cls-1" cx="173.97" cy="307.39" r="7.75"/>
      <path class="cls-3" d="M176.53,310.72c-.32.16-.96.32-1.78.32-1.9,0-3.33-1.2-3.33-3.41s1.43-3.54,3.52-3.54c.84,0,1.37.18,1.6.3l-.21.71c-.33-.16-.8-.28-1.36-.28-1.58,0-2.63,1.01-2.63,2.78,0,1.65.95,2.71,2.59,2.71.53,0,1.07-.11,1.42-.28l.18.69Z"/>
    </g>
    <g>
      <circle class="cls-1" cx="27.97" cy="307.39" r="7.75"/>
      <path class="cls-3" d="M26.02,304.29c.38-.08.98-.14,1.59-.14.87,0,1.43.15,1.85.49.35.26.56.66.56,1.19,0,.65-.43,1.22-1.14,1.48v.02c.64.16,1.39.69,1.39,1.69,0,.58-.23,1.02-.57,1.35-.47.43-1.23.63-2.33.63-.6,0-1.06-.04-1.35-.08v-6.63ZM26.89,307.05h.79c.92,0,1.46-.48,1.46-1.13,0-.79-.6-1.1-1.48-1.1-.4,0-.63.03-.77.06v2.17ZM26.89,310.28c.17.03.42.04.73.04.9,0,1.73-.33,1.73-1.31,0-.92-.79-1.3-1.74-1.3h-.72v2.57Z"/>
    </g>
    <g>
      <circle class="cls-1" cx="173.97" cy="190.39" r="7.75"/>
      <path class="cls-3" d="M171.65,187.6c.48-.07,1.04-.13,1.67-.13,1.13,0,1.93.26,2.46.76.54.5.86,1.2.86,2.18s-.31,1.8-.87,2.36c-.57.57-1.5.87-2.68.87-.56,0-1.03-.03-1.42-.07v-5.97ZM172.44,192.96c.2.04.49.04.79.04,1.67,0,2.58-.94,2.58-2.57,0-1.43-.8-2.34-2.46-2.34-.41,0-.71.04-.92.08v4.79Z"/>
    </g>
    <g>
      <rect class="cls-5" x="11.83" y="323.05" width="176" height="23.48"/>
      <path class="cls-1" d="M23.72,335.37v-11.95h2.74v.83h-1.72v10.3h1.72v.83h-2.74Z"/>
      <path class="cls-1" d="M27.98,335.37v-11.95h2.74v.83h-1.72v10.3h1.72v.83h-2.74Z"/>
      <path class="cls-1" d="M33.62,330.52l-1.05,3.18h-1.35l3.44-10.11h1.57l3.45,10.11h-1.4l-1.08-3.18h-3.58ZM36.93,329.49l-.99-2.91c-.22-.66-.38-1.26-.52-1.85h-.03c-.15.6-.31,1.22-.51,1.83l-.99,2.92h3.04Z"/>
      <path class="cls-1" d="M40.26,335.54c.33-.88.73-2.49.9-3.58l1.47-.15c-.34,1.27-1,2.94-1.42,3.64l-.94.09Z"/>
      <path class="cls-1" d="M44.27,323.72c.57-.12,1.47-.21,2.38-.21,1.3,0,2.15.22,2.77.74.52.39.84.99.84,1.78,0,.98-.65,1.83-1.71,2.22v.03c.96.24,2.08,1.04,2.08,2.54,0,.87-.34,1.53-.85,2.03-.71.64-1.84.94-3.49.94-.9,0-1.59-.06-2.02-.12v-9.94ZM45.57,327.86h1.19c1.38,0,2.19-.72,2.19-1.69,0-1.19-.9-1.65-2.22-1.65-.6,0-.94.04-1.15.09v3.25ZM45.57,332.7c.25.04.63.06,1.1.06,1.35,0,2.59-.5,2.59-1.96,0-1.38-1.19-1.95-2.61-1.95h-1.08v3.85Z"/>
      <path class="cls-1" d="M51.3,335.54c.33-.88.74-2.49.9-3.58l1.47-.15c-.34,1.27-1,2.94-1.42,3.64l-.95.09Z"/>
      <path class="cls-1" d="M62.37,333.36c-.48.24-1.44.48-2.67.48-2.85,0-4.99-1.8-4.99-5.12s2.15-5.31,5.28-5.31c1.26,0,2.05.27,2.4.45l-.31,1.06c-.5-.24-1.2-.42-2.04-.42-2.37,0-3.94,1.51-3.94,4.17,0,2.47,1.42,4.06,3.88,4.06.79,0,1.6-.17,2.13-.42l.27,1.04Z"/>
      <path class="cls-1" d="M63.11,335.54c.33-.88.74-2.49.9-3.58l1.47-.15c-.34,1.27-1,2.94-1.42,3.64l-.95.09Z"/>
      <path class="cls-1" d="M67.11,323.72c.79-.12,1.74-.21,2.77-.21,1.87,0,3.21.43,4.09,1.26.9.83,1.42,2,1.42,3.63s-.51,3-1.46,3.93c-.94.95-2.5,1.46-4.47,1.46-.93,0-1.71-.04-2.37-.12v-9.94ZM68.42,332.66c.33.06.81.08,1.32.08,2.79,0,4.31-1.56,4.31-4.29.01-2.38-1.33-3.9-4.1-3.9-.67,0-1.18.06-1.53.13v7.98Z"/>
      <path class="cls-1" d="M78.89,323.4v11.97h-2.74v-.83h1.72v-10.32h-1.72v-.83h2.74Z"/>
      <path class="cls-1" d="M81.35,335.37v-11.95h2.74v.83h-1.72v10.3h1.72v.83h-2.74Z"/>
      <path class="cls-1" d="M90.75,328.95h-3.93v3.65h4.38v1.09h-5.68v-10.11h5.46v1.09h-4.15v3.2h3.93v1.08Z"/>
      <path class="cls-1" d="M91.94,335.54c.33-.88.74-2.49.9-3.58l1.47-.15c-.34,1.27-1,2.94-1.42,3.64l-.95.09Z"/>
      <path class="cls-1" d="M95.94,323.59h5.44v1.09h-4.14v3.36h3.82v1.08h-3.82v4.58h-1.3v-10.11Z"/>
      <path class="cls-1" d="M100.89,335.54c.33-.88.73-2.49.9-3.58l1.47-.15c-.34,1.27-1,2.94-1.42,3.64l-.94.09Z"/>
      <path class="cls-1" d="M112.59,333.24c-.58.21-1.74.56-3.1.56-1.53,0-2.79-.39-3.78-1.33-.87-.84-1.41-2.19-1.41-3.77.02-3.01,2.08-5.22,5.47-5.22,1.17,0,2.08.25,2.52.46l-.31,1.07c-.54-.24-1.21-.44-2.23-.44-2.46,0-4.06,1.53-4.06,4.07s1.54,4.08,3.9,4.08c.85,0,1.44-.12,1.74-.27v-3.01h-2.05v-1.05h3.33v4.86Z"/>
      <path class="cls-1" d="M113.69,335.54c.33-.88.73-2.49.9-3.58l1.47-.15c-.34,1.27-1,2.94-1.42,3.64l-.94.09Z"/>
      <path class="cls-1" d="M119,323.59v4.23h4.89v-4.23h1.32v10.11h-1.32v-4.74h-4.89v4.74h-1.3v-10.11h1.3Z"/>
      <path class="cls-1" d="M129.36,323.4v11.97h-2.74v-.83h1.72v-10.32h-1.72v-.83h2.74Z"/>
      <path class="cls-1" d="M131.82,335.37v-11.95h2.74v.83h-1.72v10.3h1.72v.83h-2.74Z"/>
      <path class="cls-1" d="M135.99,323.59h5.44v1.09h-4.14v3.36h3.82v1.08h-3.82v4.58h-1.3v-10.11Z"/>
      <path class="cls-1" d="M140.94,335.54c.33-.88.74-2.49.9-3.58l1.47-.15c-.34,1.27-1,2.94-1.42,3.64l-.95.09Z"/>
      <path class="cls-1" d="M147.02,323.59h1.3v6.76c0,2.68-1.32,3.51-3.06,3.51-.48,0-1.06-.11-1.4-.24l.19-1.06c.27.1.66.19,1.1.19,1.17,0,1.86-.52,1.86-2.5v-6.66Z"/>
      <path class="cls-1" d="M149.42,335.54c.33-.88.73-2.49.9-3.58l1.47-.15c-.34,1.27-1,2.94-1.42,3.64l-.94.09Z"/>
      <path class="cls-1" d="M154.73,323.59v10.11h-1.3v-10.11h1.3Z"/>
      <path class="cls-1" d="M156.11,335.54c.33-.88.74-2.49.9-3.58l1.47-.15c-.34,1.27-1,2.94-1.42,3.64l-.95.09Z"/>
      <path class="cls-1" d="M167.81,333.24c-.59.21-1.74.56-3.11.56-1.53,0-2.79-.39-3.78-1.33-.87-.84-1.41-2.19-1.41-3.77.02-3.01,2.08-5.22,5.47-5.22,1.17,0,2.08.25,2.52.46l-.31,1.07c-.54-.24-1.21-.44-2.23-.44-2.46,0-4.07,1.53-4.07,4.07s1.54,4.08,3.9,4.08c.86,0,1.44-.12,1.74-.27v-3.01h-2.05v-1.05h3.33v4.86Z"/>
      <path class="cls-1" d="M171.69,323.4v11.97h-2.74v-.83h1.72v-10.32h-1.72v-.83h2.74Z"/>
      <path class="cls-1" d="M175.95,323.4v11.97h-2.74v-.83h1.72v-10.32h-1.72v-.83h2.74Z"/>
    </g>
    <rect class="cls-6" x="55.33" y="217.07" width="68" height="35"/>
    <rect class="cls-6" x="123.33" y="217.07" width="29" height="35"/>
    <g>
      <circle class="cls-1" cx="152.88" cy="215.8" r="7.75"/>
      <path class="cls-3" d="M153.17,212.61h.87v4.51c0,1.79-.88,2.34-2.04,2.34-.32,0-.71-.07-.93-.16l.13-.71c.18.07.44.13.73.13.78,0,1.24-.35,1.24-1.67v-4.44Z"/>
    </g>
    <g>
      <circle class="cls-1" cx="153.88" cy="250.8" r="7.75"/>
      <path class="cls-3" d="M154.31,247.61v6.74h-.87v-6.74h.87Z"/>
    </g>
    <g>
      <circle class="cls-1" cx="123.88" cy="252.8" r="7.75"/>
      <path class="cls-3" d="M126.54,256.05c-.39.14-1.16.37-2.07.37-1.02,0-1.86-.26-2.52-.89-.58-.56-.94-1.46-.94-2.51,0-2.01,1.39-3.48,3.65-3.48.78,0,1.39.17,1.68.31l-.21.71c-.36-.16-.81-.29-1.49-.29-1.64,0-2.71,1.02-2.71,2.71s1.03,2.72,2.6,2.72c.57,0,.96-.08,1.16-.18v-2.01h-1.37v-.7h2.22v3.24Z"/>
    </g>
    <g>
      <circle class="cls-1" cx="55.88" cy="251.8" r="7.75"/>
      <path class="cls-3" d="M54.41,248.93v2.54h2.94v-2.54h.79v6.07h-.79v-2.84h-2.94v2.84h-.78v-6.07h.78Z"/>
    </g>
    <g>
      <circle class="cls-1" cx="122.88" cy="215.8" r="7.75"/>
      <path class="cls-3" d="M121.21,212.61h3.63v.73h-2.76v2.24h2.55v.72h-2.55v3.05h-.87v-6.74Z"/>
    </g>
    <g>
      <circle class="cls-1" cx="54.88" cy="216.8" r="7.75"/>
      <path class="cls-3" d="M56.67,217.19h-2.62v2.43h2.92v.73h-3.79v-6.74h3.64v.73h-2.77v2.13h2.62v.72Z"/>
    </g>
  </g>
  <g>
    <g>
      <line class="cls-4" x1="202.83" y1="169.07" x2="310.49" y2="169.07"/>
      <polygon class="cls-7" points="306.36 183.2 330.83 169.07 306.36 154.93 306.36 183.2"/>
    </g>
    <g>
      <rect class="cls-5" x="206.88" y="160.13" width="94.96" height="17.93"/>
      <path class="cls-1" d="M227.71,160.54c.34-.07.88-.13,1.43-.13.78,0,1.29.13,1.67.44.32.23.5.59.5,1.07,0,.58-.39,1.1-1.03,1.33v.02c.58.14,1.25.62,1.25,1.52,0,.52-.21.92-.51,1.22-.42.39-1.11.57-2.1.57-.54,0-.95-.04-1.21-.07v-5.97ZM228.49,163.02h.71c.83,0,1.31-.43,1.31-1.02,0-.71-.54-.99-1.33-.99-.36,0-.57.03-.69.05v1.95ZM228.49,165.93c.15.03.38.04.66.04.81,0,1.56-.3,1.56-1.18,0-.83-.71-1.17-1.57-1.17h-.65v2.31Z"/>
      <path class="cls-1" d="M236.54,164.31c0,1.61-1.12,2.31-2.17,2.31-1.18,0-2.09-.86-2.09-2.24,0-1.46.96-2.31,2.16-2.31s2.1.91,2.1,2.24ZM233.08,164.35c0,.95.55,1.67,1.32,1.67s1.32-.71,1.32-1.69c0-.74-.37-1.67-1.31-1.67s-1.34.86-1.34,1.69Z"/>
      <path class="cls-1" d="M241.48,164.31c0,1.61-1.12,2.31-2.17,2.31-1.18,0-2.09-.86-2.09-2.24,0-1.46.96-2.31,2.16-2.31s2.1.91,2.1,2.24ZM238.02,164.35c0,.95.55,1.67,1.32,1.67s1.32-.71,1.32-1.69c0-.74-.37-1.67-1.31-1.67s-1.34.86-1.34,1.69Z"/>
      <path class="cls-1" d="M242.48,160.13h.79v6.39h-.79v-6.39Z"/>
      <path class="cls-1" d="M245.04,164.49c.02,1.07.7,1.51,1.49,1.51.57,0,.91-.1,1.21-.22l.14.57c-.28.13-.76.27-1.45.27-1.34,0-2.14-.88-2.14-2.2s.77-2.35,2.04-2.35c1.42,0,1.8,1.25,1.8,2.05,0,.16-.02.29-.03.37h-3.06ZM247.37,163.92c0-.5-.21-1.29-1.1-1.29-.8,0-1.15.74-1.21,1.29h2.31Z"/>
      <path class="cls-1" d="M251.52,166.52l-.06-.55h-.03c-.24.34-.71.65-1.33.65-.88,0-1.33-.62-1.33-1.25,0-1.05.94-1.63,2.62-1.62v-.09c0-.36-.1-1.01-.99-1.01-.41,0-.83.13-1.13.32l-.18-.52c.36-.23.88-.39,1.43-.39,1.33,0,1.66.91,1.66,1.78v1.63c0,.38.02.75.07,1.04h-.72ZM251.41,164.3c-.86-.02-1.85.13-1.85.98,0,.51.34.76.75.76.57,0,.93-.36,1.05-.73.03-.08.04-.17.04-.25v-.76Z"/>
      <path class="cls-1" d="M253.45,163.34c0-.45,0-.82-.04-1.18h.7l.04.72h.02c.22-.41.72-.82,1.44-.82.6,0,1.54.36,1.54,1.85v2.6h-.79v-2.51c0-.7-.26-1.29-1.01-1.29-.52,0-.93.37-1.06.81-.04.1-.05.23-.05.37v2.62h-.79v-3.18Z"/>
      <path class="cls-1" d="M264,165.33c0,.45,0,.85.04,1.19h-.7l-.04-.71h-.02c-.21.35-.67.81-1.44.81-.68,0-1.5-.38-1.5-1.91v-2.55h.79v2.41c0,.83.25,1.39.97,1.39.53,0,.9-.37,1.04-.72.04-.12.07-.26.07-.41v-2.67h.79v3.17Z"/>
      <path class="cls-1" d="M265.31,163.34c0-.45,0-.82-.04-1.18h.7l.04.72h.02c.22-.41.72-.82,1.44-.82.6,0,1.54.36,1.54,1.85v2.6h-.79v-2.51c0-.7-.26-1.29-1.01-1.29-.52,0-.93.37-1.06.81-.04.1-.05.23-.05.37v2.62h-.79v-3.18Z"/>
      <path class="cls-1" d="M271.19,160.94c0,.27-.19.49-.5.49-.28,0-.48-.21-.48-.49s.21-.5.5-.5.49.22.49.5ZM270.31,166.52v-4.36h.79v4.36h-.79Z"/>
      <path class="cls-1" d="M276.36,164.31c0,1.61-1.12,2.31-2.17,2.31-1.18,0-2.09-.86-2.09-2.24,0-1.46.96-2.31,2.16-2.31s2.1.91,2.1,2.24ZM272.9,164.35c0,.95.55,1.67,1.32,1.67s1.32-.71,1.32-1.69c0-.74-.37-1.67-1.31-1.67s-1.34.86-1.34,1.69Z"/>
      <path class="cls-1" d="M277.35,163.34c0-.45,0-.82-.04-1.18h.7l.04.72h.02c.22-.41.72-.82,1.44-.82.6,0,1.54.36,1.54,1.85v2.6h-.79v-2.51c0-.7-.26-1.29-1.01-1.29-.52,0-.93.37-1.06.81-.04.1-.05.23-.05.37v2.62h-.79v-3.18Z"/>
    </g>
  </g>
  <g>
    <rect class="cls-2" x="353.83" y="185.57" width="145" height="115"/>
    <rect class="cls-3" x="379.83" y="211.57" width="68" height="35"/>
    <rect class="cls-3" x="408.83" y="211.57" width="68" height="35"/>
    <rect class="cls-6" x="352.33" y="184.07" width="146" height="117"/>
    <g>
      <circle class="cls-1" cx="353.08" cy="184.82" r="7.75"/>
      <path class="cls-3" d="M351.87,186.25l-.7,2.12h-.9l2.29-6.74h1.05l2.3,6.74h-.93l-.72-2.12h-2.39ZM354.08,185.57l-.66-1.94c-.15-.44-.25-.84-.35-1.23h-.02c-.1.4-.21.81-.34,1.22l-.66,1.95h2.03Z"/>
    </g>
    <g>
      <circle class="cls-1" cx="497.97" cy="301.39" r="7.75"/>
      <path class="cls-3" d="M500.53,304.72c-.32.16-.96.32-1.78.32-1.9,0-3.33-1.2-3.33-3.41s1.43-3.54,3.52-3.54c.84,0,1.37.18,1.6.3l-.21.71c-.33-.16-.8-.28-1.36-.28-1.58,0-2.63,1.01-2.63,2.78,0,1.65.95,2.71,2.59,2.71.53,0,1.07-.11,1.42-.28l.18.69Z"/>
    </g>
    <g>
      <circle class="cls-1" cx="351.97" cy="301.39" r="7.75"/>
      <path class="cls-3" d="M350.02,298.29c.38-.08.98-.14,1.59-.14.87,0,1.43.15,1.85.49.35.26.56.66.56,1.19,0,.65-.43,1.22-1.14,1.48v.02c.64.16,1.39.69,1.39,1.69,0,.58-.23,1.02-.57,1.35-.47.43-1.23.63-2.33.63-.6,0-1.06-.04-1.35-.08v-6.63ZM350.89,301.05h.79c.92,0,1.46-.48,1.46-1.13,0-.79-.6-1.1-1.48-1.1-.4,0-.63.03-.77.06v2.17ZM350.89,304.28c.17.03.42.04.73.04.9,0,1.73-.33,1.73-1.31,0-.92-.79-1.3-1.74-1.3h-.72v2.57Z"/>
    </g>
    <g>
      <circle class="cls-1" cx="497.97" cy="184.39" r="7.75"/>
      <path class="cls-3" d="M495.65,181.6c.48-.07,1.04-.13,1.67-.13,1.13,0,1.93.26,2.46.76.54.5.85,1.2.85,2.18s-.31,1.8-.87,2.36c-.57.57-1.5.87-2.68.87-.56,0-1.03-.03-1.42-.07v-5.97ZM496.44,186.96c.2.04.49.04.79.04,1.67,0,2.58-.94,2.58-2.57,0-1.43-.8-2.34-2.46-2.34-.41,0-.71.04-.92.08v4.79Z"/>
    </g>
    <g>
      <rect class="cls-5" x="335.83" y="317.05" width="176" height="23.48"/>
      <path class="cls-1" d="M372.18,329.37v-11.95h2.75v.83h-1.72v10.3h1.72v.83h-2.75Z"/>
      <path class="cls-1" d="M376.44,329.37v-11.95h2.75v.83h-1.72v10.3h1.72v.83h-2.75Z"/>
      <path class="cls-1" d="M382.07,324.52l-1.05,3.18h-1.35l3.43-10.11h1.58l3.45,10.11h-1.4l-1.08-3.18h-3.59ZM385.39,323.49l-.99-2.91c-.22-.66-.38-1.26-.52-1.85h-.03c-.15.6-.32,1.22-.51,1.83l-.99,2.92h3.04Z"/>
      <path class="cls-1" d="M388.72,329.54c.33-.88.74-2.49.9-3.58l1.47-.15c-.35,1.27-1.01,2.94-1.43,3.64l-.94.09Z"/>
      <path class="cls-1" d="M392.73,317.72c.57-.12,1.47-.21,2.38-.21,1.3,0,2.15.22,2.78.74.53.39.84.99.84,1.78,0,.98-.64,1.83-1.71,2.22v.03c.96.24,2.08,1.04,2.08,2.54,0,.87-.34,1.53-.86,2.03-.71.64-1.84.94-3.49.94-.9,0-1.59-.06-2.03-.12v-9.94ZM394.03,321.86h1.19c1.38,0,2.19-.72,2.19-1.69,0-1.19-.9-1.65-2.22-1.65-.6,0-.94.04-1.16.09v3.25ZM394.03,326.7c.26.04.63.06,1.1.06,1.35,0,2.59-.5,2.59-1.96,0-1.38-1.18-1.95-2.61-1.95h-1.08v3.85Z"/>
      <path class="cls-1" d="M399.76,329.54c.33-.88.74-2.49.9-3.58l1.47-.15c-.34,1.27-1,2.94-1.42,3.64l-.95.09Z"/>
      <path class="cls-1" d="M410.83,327.36c-.48.24-1.44.48-2.67.48-2.85,0-5-1.8-5-5.12s2.15-5.31,5.28-5.31c1.26,0,2.05.27,2.4.45l-.32,1.06c-.49-.24-1.2-.42-2.04-.42-2.37,0-3.95,1.51-3.95,4.17,0,2.47,1.42,4.06,3.88,4.06.79,0,1.61-.17,2.13-.42l.27,1.04Z"/>
      <path class="cls-1" d="M411.57,329.54c.33-.88.74-2.49.9-3.58l1.47-.15c-.34,1.27-1,2.94-1.42,3.64l-.95.09Z"/>
      <path class="cls-1" d="M415.57,317.72c.79-.12,1.74-.21,2.77-.21,1.87,0,3.21.43,4.09,1.26.9.83,1.42,2,1.42,3.63s-.51,3-1.46,3.93c-.94.95-2.5,1.46-4.47,1.46-.93,0-1.71-.04-2.37-.12v-9.94ZM416.88,326.66c.33.06.81.08,1.32.08,2.79,0,4.31-1.56,4.31-4.29.01-2.38-1.34-3.9-4.1-3.9-.67,0-1.18.06-1.53.13v7.98Z"/>
      <path class="cls-1" d="M427.34,317.4v11.97h-2.74v-.83h1.72v-10.32h-1.72v-.83h2.74Z"/>
      <path class="cls-1" d="M429.81,329.37v-11.95h2.74v.83h-1.72v10.3h1.72v.83h-2.74Z"/>
      <path class="cls-1" d="M439.21,322.95h-3.93v3.65h4.38v1.09h-5.68v-10.11h5.46v1.09h-4.15v3.2h3.93v1.08Z"/>
      <path class="cls-1" d="M440.39,329.54c.33-.88.74-2.49.9-3.58l1.47-.15c-.34,1.27-1,2.94-1.42,3.64l-.95.09Z"/>
      <path class="cls-1" d="M446.47,317.59h1.3v6.76c0,2.68-1.32,3.51-3.06,3.51-.48,0-1.07-.11-1.4-.24l.2-1.06c.27.1.66.19,1.1.19,1.17,0,1.86-.52,1.86-2.5v-6.66Z"/>
      <path class="cls-1" d="M448.87,329.54c.33-.88.73-2.49.9-3.58l1.47-.15c-.34,1.27-1,2.94-1.42,3.64l-.95.09Z"/>
      <path class="cls-1" d="M454.18,317.59v10.11h-1.3v-10.11h1.3Z"/>
      <path class="cls-1" d="M455.56,329.54c.33-.88.74-2.49.9-3.58l1.47-.15c-.34,1.27-1,2.94-1.42,3.64l-.95.09Z"/>
      <path class="cls-1" d="M460.87,317.59v4.23h4.89v-4.23h1.32v10.11h-1.32v-4.74h-4.89v4.74h-1.3v-10.11h1.3Z"/>
      <path class="cls-1" d="M471.23,317.4v11.97h-2.75v-.83h1.72v-10.32h-1.72v-.83h2.75Z"/>
      <path class="cls-1" d="M475.49,317.4v11.97h-2.75v-.83h1.72v-10.32h-1.72v-.83h2.75Z"/>
    </g>
    <rect class="cls-6" x="379.33" y="211.07" width="97" height="35"/>
    <g>
      <circle class="cls-1" cx="476.88" cy="209.8" r="7.75"/>
      <path class="cls-3" d="M477.17,206.61h.87v4.51c0,1.79-.88,2.34-2.04,2.34-.32,0-.71-.07-.93-.16l.13-.71c.18.07.44.13.73.13.78,0,1.24-.35,1.24-1.67v-4.44Z"/>
    </g>
    <g>
      <circle class="cls-1" cx="477.88" cy="244.8" r="7.75"/>
      <path class="cls-3" d="M478.31,241.61v6.74h-.87v-6.74h.87Z"/>
    </g>
    <g>
      <circle class="cls-1" cx="379.88" cy="245.8" r="7.75"/>
      <path class="cls-3" d="M378.41,242.93v2.54h2.94v-2.54h.79v6.07h-.79v-2.84h-2.94v2.84h-.78v-6.07h.78Z"/>
    </g>
    <g>
      <circle class="cls-1" cx="378.88" cy="210.8" r="7.75"/>
      <path class="cls-3" d="M380.67,211.19h-2.62v2.43h2.92v.73h-3.79v-6.74h3.64v.73h-2.77v2.13h2.62v.72Z"/>
    </g>
  </g>
  <g>
    <rect class="cls-2" x="353.58" y="19.57" width="145" height="115"/>
    <rect class="cls-3" x="379.58" y="45.57" width="68" height="35"/>
    <rect class="cls-3" x="409.58" y="64.57" width="68" height="35"/>
    <line class="cls-6" x1="442.08" y1="45.07" x2="383.08" y2="45.07"/>
    <line class="cls-6" x1="381.08" y1="48.07" x2="381.08" y2="75.07"/>
    <line class="cls-6" x1="383.08" y1="80.07" x2="408.08" y2="80.07"/>
    <line class="cls-6" x1="409.08" y1="97.07" x2="409.08" y2="80.07"/>
    <line class="cls-6" x1="477.08" y1="99.07" x2="409.08" y2="99.07"/>
    <line class="cls-6" x1="477.08" y1="64.07" x2="477.08" y2="99.07"/>
    <line class="cls-6" x1="447.08" y1="63.07" x2="477.08" y2="63.07"/>
    <line class="cls-6" x1="446.08" y1="42.07" x2="446.08" y2="63.07"/>
    <rect class="cls-6" x="352.08" y="18.07" width="146" height="117"/>
    <g>
      <circle class="cls-1" cx="352.83" cy="18.82" r="7.75"/>
      <path class="cls-3" d="M351.62,20.25l-.7,2.12h-.9l2.29-6.74h1.05l2.3,6.74h-.93l-.72-2.12h-2.39ZM353.83,19.57l-.66-1.94c-.15-.44-.25-.84-.35-1.23h-.02c-.1.4-.21.81-.34,1.22l-.66,1.95h2.03Z"/>
    </g>
    <g>
      <circle class="cls-1" cx="497.71" cy="135.39" r="7.75"/>
      <path class="cls-3" d="M500.28,138.72c-.32.16-.96.32-1.78.32-1.9,0-3.33-1.2-3.33-3.41s1.43-3.54,3.52-3.54c.84,0,1.37.18,1.6.3l-.21.71c-.33-.16-.8-.28-1.36-.28-1.58,0-2.63,1.01-2.63,2.78,0,1.65.95,2.71,2.59,2.71.53,0,1.07-.11,1.42-.28l.18.69Z"/>
    </g>
    <g>
      <circle class="cls-1" cx="351.71" cy="135.39" r="7.75"/>
      <path class="cls-3" d="M349.76,132.29c.38-.08.98-.14,1.59-.14.87,0,1.43.15,1.85.49.35.26.56.66.56,1.19,0,.65-.43,1.22-1.14,1.48v.02c.64.16,1.39.69,1.39,1.69,0,.58-.23,1.02-.57,1.35-.47.43-1.23.63-2.33.63-.6,0-1.06-.04-1.35-.08v-6.63ZM350.63,135.05h.79c.92,0,1.46-.48,1.46-1.13,0-.79-.6-1.1-1.48-1.1-.4,0-.63.03-.77.06v2.17ZM350.63,138.28c.17.03.42.04.73.04.9,0,1.73-.33,1.73-1.31,0-.92-.79-1.3-1.74-1.3h-.72v2.57Z"/>
    </g>
    <g>
      <circle class="cls-1" cx="497.71" cy="18.39" r="7.75"/>
      <path class="cls-3" d="M495.4,15.6c.48-.07,1.04-.13,1.67-.13,1.13,0,1.93.26,2.46.76.54.5.85,1.2.85,2.18s-.31,1.8-.87,2.36c-.57.57-1.5.87-2.68.87-.56,0-1.03-.03-1.42-.07v-5.97ZM496.18,20.96c.2.04.49.04.79.04,1.67,0,2.58-.94,2.58-2.57,0-1.43-.8-2.34-2.46-2.34-.41,0-.71.04-.92.08v4.79Z"/>
    </g>
    <g>
      <rect class="cls-5" x="335.58" y="151.05" width="176" height="23.48"/>
      <path class="cls-1" d="M346.98,163.37v-11.95h2.74v.83h-1.72v10.3h1.72v.83h-2.74Z"/>
      <path class="cls-1" d="M351.24,163.37v-11.95h2.74v.83h-1.72v10.3h1.72v.83h-2.74Z"/>
      <path class="cls-1" d="M356.88,158.52l-1.05,3.18h-1.35l3.44-10.11h1.57l3.45,10.11h-1.39l-1.08-3.18h-3.58ZM360.19,157.49l-.99-2.91c-.22-.66-.38-1.26-.53-1.85h-.03c-.15.6-.31,1.22-.51,1.83l-.99,2.92h3.04Z"/>
      <path class="cls-1" d="M363.52,163.54c.33-.88.73-2.49.9-3.58l1.47-.15c-.34,1.27-1,2.94-1.42,3.64l-.95.09Z"/>
      <path class="cls-1" d="M367.53,151.72c.57-.12,1.47-.21,2.38-.21,1.3,0,2.14.22,2.77.74.52.39.84.99.84,1.78,0,.98-.65,1.83-1.71,2.22v.03c.96.24,2.08,1.04,2.08,2.54,0,.87-.34,1.53-.85,2.03-.71.64-1.85.94-3.5.94-.9,0-1.59-.06-2.02-.12v-9.94ZM368.83,155.86h1.18c1.38,0,2.19-.72,2.19-1.69,0-1.19-.9-1.65-2.22-1.65-.6,0-.95.04-1.15.09v3.25ZM368.83,160.7c.25.04.63.06,1.09.06,1.35,0,2.59-.5,2.59-1.96,0-1.38-1.19-1.95-2.61-1.95h-1.08v3.85Z"/>
      <path class="cls-1" d="M374.56,163.54c.33-.88.74-2.49.9-3.58l1.47-.15c-.34,1.27-1,2.94-1.42,3.64l-.95.09Z"/>
      <path class="cls-1" d="M385.63,161.36c-.48.24-1.44.48-2.67.48-2.85,0-4.99-1.8-4.99-5.12s2.14-5.31,5.28-5.31c1.26,0,2.05.27,2.4.45l-.31,1.06c-.5-.24-1.2-.42-2.04-.42-2.37,0-3.94,1.51-3.94,4.17,0,2.47,1.42,4.06,3.88,4.06.79,0,1.6-.17,2.13-.42l.27,1.04Z"/>
      <path class="cls-1" d="M386.36,163.54c.33-.88.74-2.49.9-3.58l1.47-.15c-.34,1.27-1,2.94-1.42,3.64l-.95.09Z"/>
      <path class="cls-1" d="M390.37,151.72c.79-.12,1.74-.21,2.78-.21,1.88,0,3.21.43,4.09,1.26.9.83,1.42,2,1.42,3.63s-.51,3-1.46,3.93c-.95.95-2.5,1.46-4.47,1.46-.93,0-1.71-.04-2.37-.12v-9.94ZM391.67,160.66c.33.06.81.08,1.32.08,2.79,0,4.3-1.56,4.3-4.29.02-2.38-1.33-3.9-4.09-3.9-.67,0-1.18.06-1.53.13v7.98Z"/>
      <path class="cls-1" d="M402.15,151.4v11.97h-2.75v-.83h1.72v-10.32h-1.72v-.83h2.75Z"/>
      <path class="cls-1" d="M404.6,163.37v-11.95h2.75v.83h-1.72v10.3h1.72v.83h-2.75Z"/>
      <path class="cls-1" d="M414.01,156.95h-3.93v3.65h4.38v1.09h-5.69v-10.11h5.46v1.09h-4.16v3.2h3.93v1.08Z"/>
      <path class="cls-1" d="M415.19,163.54c.33-.88.74-2.49.9-3.58l1.47-.15c-.34,1.27-1,2.94-1.42,3.64l-.95.09Z"/>
      <path class="cls-1" d="M419.2,151.59h5.44v1.09h-4.14v3.36h3.82v1.08h-3.82v4.58h-1.3v-10.11Z"/>
      <path class="cls-1" d="M424.15,163.54c.33-.88.74-2.49.9-3.58l1.47-.15c-.35,1.27-1.01,2.94-1.43,3.64l-.94.09Z"/>
      <path class="cls-1" d="M428.15,161.69v-10.11h1.42l3.24,5.11c.75,1.19,1.34,2.25,1.82,3.29h.03c-.12-1.37-.15-2.59-.15-4.17v-4.23h1.23v10.11h-1.32l-3.21-5.13c-.71-1.12-1.38-2.28-1.89-3.38l-.04.02c.07,1.27.11,2.49.11,4.17v4.32h-1.23Z"/>
      <path class="cls-1" d="M437.12,163.54c.33-.88.74-2.49.9-3.58l1.47-.15c-.35,1.27-1.01,2.94-1.43,3.64l-.94.09Z"/>
      <path class="cls-1" d="M443.2,151.59h1.3v6.76c0,2.68-1.32,3.51-3.06,3.51-.48,0-1.06-.11-1.39-.24l.2-1.06c.27.1.66.19,1.09.19,1.17,0,1.86-.52,1.86-2.5v-6.66Z"/>
      <path class="cls-1" d="M445.6,163.54c.33-.88.74-2.49.9-3.58l1.47-.15c-.35,1.27-1.01,2.94-1.43,3.64l-.94.09Z"/>
      <path class="cls-1" d="M449.6,151.59h1.3v4.88h.04c.27-.39.54-.75.79-1.08l3.09-3.79h1.62l-3.66,4.29,3.94,5.82h-1.54l-3.33-4.96-.96,1.11v3.85h-1.3v-10.11Z"/>
      <path class="cls-1" d="M457.09,163.54c.33-.88.74-2.49.9-3.58l1.47-.15c-.34,1.27-1,2.94-1.42,3.64l-.95.09Z"/>
      <path class="cls-1" d="M461.09,151.59h1.3v9.01h4.32v1.09h-5.62v-10.11Z"/>
      <path class="cls-1" d="M467.27,163.54c.33-.88.74-2.49.9-3.58l1.47-.15c-.34,1.27-1,2.94-1.42,3.64l-.95.09Z"/>
      <path class="cls-1" d="M471.28,161.69v-10.11h1.43l3.24,5.11c.75,1.19,1.33,2.25,1.82,3.29h.03c-.12-1.37-.15-2.59-.15-4.17v-4.23h1.23v10.11h-1.32l-3.21-5.13c-.71-1.12-1.38-2.28-1.89-3.38l-.04.02c.08,1.27.11,2.49.11,4.17v4.32h-1.23Z"/>
      <path class="cls-1" d="M480.25,163.54c.33-.88.74-2.49.9-3.58l1.47-.15c-.34,1.27-1,2.94-1.42,3.64l-.95.09Z"/>
      <path class="cls-1" d="M485.56,151.59v4.23h4.89v-4.23h1.32v10.11h-1.32v-4.74h-4.89v4.74h-1.3v-10.11h1.3Z"/>
      <path class="cls-1" d="M495.92,151.4v11.97h-2.74v-.83h1.72v-10.32h-1.72v-.83h2.74Z"/>
      <path class="cls-1" d="M500.18,151.4v11.97h-2.74v-.83h1.72v-10.32h-1.72v-.83h2.74Z"/>
    </g>
    <g>
      <circle class="cls-1" cx="476.62" cy="62.8" r="7.75"/>
      <path class="cls-3" d="M476.91,59.61h.87v4.51c0,1.79-.88,2.34-2.04,2.34-.32,0-.71-.07-.93-.16l.13-.71c.18.07.44.13.73.13.78,0,1.24-.35,1.24-1.67v-4.44Z"/>
    </g>
    <g>
      <circle class="cls-1" cx="409.62" cy="78.8" r="7.75"/>
      <path class="cls-3" d="M411.32,79.21c-.04-.66-.08-1.45-.07-2.04h-.02c-.16.55-.36,1.14-.59,1.79l-.83,2.29h-.46l-.76-2.25c-.22-.67-.41-1.27-.55-1.83h-.01c-.01.59-.05,1.38-.09,2.09l-.13,2.02h-.58l.33-4.72h.78l.81,2.28c.2.58.36,1.1.48,1.59h.02c.12-.48.29-.99.5-1.59l.84-2.28h.78l.29,4.72h-.59l-.12-2.07Z"/>
    </g>
    <g>
      <circle class="cls-1" cx="446.62" cy="62.8" r="7.75"/>
      <path class="cls-3" d="M444.35,65.99v-6.07h.86l1.94,3.07c.45.71.8,1.35,1.09,1.97h.02c-.07-.82-.09-1.56-.09-2.5v-2.54h.74v6.07h-.79l-1.93-3.08c-.42-.67-.83-1.37-1.13-2.03h-.03c.04.77.06,1.5.06,2.51v2.59h-.74Z"/>
    </g>
    <g>
      <circle class="cls-1" cx="379.62" cy="79.8" r="7.75"/>
      <path class="cls-3" d="M378.16,76.93v2.54h2.94v-2.54h.79v6.07h-.79v-2.84h-2.94v2.84h-.78v-6.07h.78Z"/>
    </g>
    <g>
      <circle class="cls-1" cx="446.62" cy="41.8" r="7.75"/>
      <path class="cls-3" d="M444.95,38.61h3.63v.73h-2.76v2.24h2.55v.72h-2.55v3.05h-.87v-6.74Z"/>
    </g>
    <g>
      <circle class="cls-1" cx="378.62" cy="44.8" r="7.75"/>
      <path class="cls-3" d="M380.41,45.19h-2.62v2.43h2.92v.73h-3.79v-6.74h3.64v.73h-2.77v2.13h2.62v.72Z"/>
    </g>
    <g>
      <circle class="cls-1" cx="477.62" cy="99.8" r="7.75"/>
      <path class="cls-3" d="M475.67,96.61h.87v3.25h.03c.18-.26.36-.5.53-.72l2.06-2.53h1.08l-2.44,2.86,2.63,3.88h-1.03l-2.22-3.31-.64.74v2.57h-.87v-6.74Z"/>
    </g>
    <g>
      <circle class="cls-1" cx="409.62" cy="99.8" r="7.75"/>
      <path class="cls-3" d="M408.02,96.61h.87v6.01h2.88v.73h-3.75v-6.74Z"/>
    </g>
  </g>
  <g>
    <rect class="cls-2" x="34.58" y="20.57" width="145" height="115"/>
    <rect class="cls-3" x="60.58" y="46.57" width="68" height="35"/>
    <rect class="cls-3" x="90.58" y="65.57" width="68" height="35"/>
    <rect class="cls-6" x="33.08" y="19.07" width="146" height="117"/>
    <g>
      <circle class="cls-1" cx="33.83" cy="19.82" r="7.75"/>
      <path class="cls-3" d="M32.62,21.25l-.7,2.12h-.9l2.29-6.74h1.05l2.3,6.74h-.93l-.72-2.12h-2.39ZM34.83,20.57l-.66-1.94c-.15-.44-.25-.84-.35-1.23h-.02c-.1.4-.21.81-.34,1.22l-.66,1.95h2.03Z"/>
    </g>
    <g>
      <circle class="cls-1" cx="178.71" cy="136.39" r="7.75"/>
      <path class="cls-3" d="M181.28,139.72c-.32.16-.96.32-1.78.32-1.9,0-3.33-1.2-3.33-3.41s1.43-3.54,3.52-3.54c.84,0,1.37.18,1.6.3l-.21.71c-.33-.16-.8-.28-1.36-.28-1.58,0-2.63,1.01-2.63,2.78,0,1.65.95,2.71,2.59,2.71.53,0,1.07-.11,1.42-.28l.18.69Z"/>
    </g>
    <g>
      <circle class="cls-1" cx="32.71" cy="136.39" r="7.75"/>
      <path class="cls-3" d="M30.76,133.29c.38-.08.98-.14,1.59-.14.87,0,1.43.15,1.85.49.35.26.56.66.56,1.19,0,.65-.43,1.22-1.14,1.48v.02c.64.16,1.39.69,1.39,1.69,0,.58-.23,1.02-.57,1.35-.47.43-1.23.63-2.33.63-.6,0-1.06-.04-1.35-.08v-6.63ZM31.63,136.05h.79c.92,0,1.46-.48,1.46-1.13,0-.79-.6-1.1-1.48-1.1-.4,0-.63.03-.77.06v2.17ZM31.63,139.28c.17.03.42.04.73.04.9,0,1.73-.33,1.73-1.31,0-.92-.79-1.3-1.74-1.3h-.72v2.57Z"/>
    </g>
    <g>
      <circle class="cls-1" cx="178.71" cy="19.39" r="7.75"/>
      <path class="cls-3" d="M176.4,16.6c.48-.07,1.04-.13,1.67-.13,1.13,0,1.93.26,2.46.76.54.5.86,1.2.86,2.18s-.31,1.8-.87,2.36c-.57.57-1.5.87-2.68.87-.56,0-1.03-.03-1.42-.07v-5.97ZM177.18,21.96c.2.04.49.04.79.04,1.67,0,2.58-.94,2.58-2.57,0-1.43-.8-2.34-2.46-2.34-.41,0-.71.04-.92.08v4.79Z"/>
    </g>
    <g>
      <rect class="cls-5" x="16.58" y="152.05" width="176" height="23.48"/>
      <path class="cls-1" d="M28.5,164.37v-11.95h2.74v.83h-1.72v10.3h1.72v.83h-2.74Z"/>
      <path class="cls-1" d="M32.76,164.37v-11.95h2.74v.83h-1.72v10.3h1.72v.83h-2.74Z"/>
      <path class="cls-1" d="M38.4,159.52l-1.05,3.18h-1.35l3.44-10.11h1.57l3.45,10.11h-1.4l-1.08-3.18h-3.58ZM41.71,158.49l-.99-2.91c-.22-.66-.38-1.26-.52-1.85h-.03c-.15.6-.31,1.22-.51,1.83l-.99,2.92h3.04Z"/>
      <path class="cls-1" d="M45.05,164.54c.33-.88.73-2.49.9-3.58l1.47-.15c-.34,1.27-1,2.94-1.42,3.64l-.94.09Z"/>
      <path class="cls-1" d="M49.05,152.72c.57-.12,1.47-.21,2.38-.21,1.3,0,2.15.22,2.77.74.52.39.84.99.84,1.78,0,.98-.65,1.83-1.71,2.22v.03c.96.24,2.08,1.04,2.08,2.54,0,.87-.34,1.53-.85,2.03-.71.64-1.84.94-3.49.94-.9,0-1.59-.06-2.02-.12v-9.94ZM50.35,156.86h1.19c1.38,0,2.19-.72,2.19-1.69,0-1.19-.9-1.65-2.22-1.65-.6,0-.94.04-1.15.09v3.25ZM50.35,161.7c.25.04.63.06,1.1.06,1.35,0,2.59-.5,2.59-1.96,0-1.38-1.19-1.95-2.61-1.95h-1.08v3.85Z"/>
      <path class="cls-1" d="M56.09,164.54c.33-.88.73-2.49.9-3.58l1.47-.15c-.34,1.27-1,2.94-1.42,3.64l-.94.09Z"/>
      <path class="cls-1" d="M67.15,162.36c-.48.24-1.44.48-2.67.48-2.85,0-4.99-1.8-4.99-5.12s2.15-5.31,5.28-5.31c1.26,0,2.05.27,2.4.45l-.31,1.06c-.5-.24-1.2-.42-2.04-.42-2.37,0-3.94,1.51-3.94,4.17,0,2.47,1.42,4.06,3.88,4.06.79,0,1.6-.17,2.13-.42l.27,1.04Z"/>
      <path class="cls-1" d="M67.89,164.54c.33-.88.73-2.49.9-3.58l1.47-.15c-.34,1.27-1,2.94-1.42,3.64l-.94.09Z"/>
      <path class="cls-1" d="M71.9,152.72c.79-.12,1.74-.21,2.77-.21,1.87,0,3.21.43,4.09,1.26.9.83,1.42,2,1.42,3.63s-.51,3-1.46,3.93c-.94.95-2.5,1.46-4.47,1.46-.93,0-1.71-.04-2.37-.12v-9.94ZM73.2,161.66c.33.06.81.08,1.32.08,2.79,0,4.31-1.56,4.31-4.29.01-2.38-1.33-3.9-4.1-3.9-.67,0-1.18.06-1.53.13v7.98Z"/>
      <path class="cls-1" d="M83.67,152.4v11.97h-2.74v-.83h1.72v-10.32h-1.72v-.83h2.74Z"/>
      <path class="cls-1" d="M86.13,164.37v-11.95h2.74v.83h-1.72v10.3h1.72v.83h-2.74Z"/>
      <path class="cls-1" d="M95.53,157.95h-3.93v3.65h4.38v1.09h-5.68v-10.11h5.46v1.09h-4.15v3.2h3.93v1.08Z"/>
      <path class="cls-1" d="M96.72,164.54c.33-.88.73-2.49.9-3.58l1.47-.15c-.34,1.27-1,2.94-1.42,3.64l-.94.09Z"/>
      <path class="cls-1" d="M100.72,152.59h5.44v1.09h-4.14v3.36h3.82v1.08h-3.82v4.58h-1.3v-10.11Z"/>
      <path class="cls-1" d="M105.67,164.54c.33-.88.74-2.49.9-3.58l1.47-.15c-.34,1.27-1,2.94-1.42,3.64l-.95.09Z"/>
      <path class="cls-1" d="M117.37,162.24c-.58.21-1.74.56-3.1.56-1.53,0-2.79-.39-3.78-1.33-.87-.84-1.41-2.19-1.41-3.77.02-3.01,2.08-5.22,5.47-5.22,1.17,0,2.08.25,2.52.46l-.31,1.07c-.54-.24-1.21-.44-2.23-.44-2.46,0-4.06,1.53-4.06,4.07s1.54,4.08,3.9,4.08c.85,0,1.44-.12,1.74-.27v-3.01h-2.05v-1.05h3.33v4.86Z"/>
      <path class="cls-1" d="M118.47,164.54c.33-.88.74-2.49.9-3.58l1.47-.15c-.34,1.27-1,2.94-1.42,3.64l-.95.09Z"/>
      <path class="cls-1" d="M123.78,152.59v4.23h4.89v-4.23h1.32v10.11h-1.32v-4.74h-4.89v4.74h-1.3v-10.11h1.3Z"/>
      <path class="cls-1" d="M134.14,152.4v11.97h-2.74v-.83h1.72v-10.32h-1.72v-.83h2.74Z"/>
      <path class="cls-1" d="M136.6,164.37v-11.95h2.74v.83h-1.72v10.3h1.72v.83h-2.74Z"/>
      <path class="cls-1" d="M142.08,152.59v10.11h-1.3v-10.11h1.3Z"/>
      <path class="cls-1" d="M143.46,164.54c.33-.88.74-2.49.9-3.58l1.47-.15c-.34,1.27-1,2.94-1.42,3.64l-.95.09Z"/>
      <path class="cls-1" d="M149.53,152.59h1.3v6.76c0,2.68-1.32,3.51-3.06,3.51-.48,0-1.06-.11-1.4-.24l.19-1.06c.27.1.66.19,1.1.19,1.17,0,1.86-.52,1.86-2.5v-6.66Z"/>
      <path class="cls-1" d="M151.93,164.54c.33-.88.74-2.49.9-3.58l1.47-.15c-.34,1.27-1,2.94-1.42,3.64l-.95.09Z"/>
      <path class="cls-1" d="M155.94,152.59h1.3v4.88h.04c.27-.39.54-.75.79-1.08l3.09-3.79h1.62l-3.66,4.29,3.95,5.82h-1.55l-3.33-4.96-.96,1.11v3.85h-1.3v-10.11Z"/>
      <path class="cls-1" d="M163.42,164.54c.33-.88.74-2.49.9-3.58l1.47-.15c-.35,1.27-1.01,2.94-1.43,3.64l-.94.09Z"/>
      <path class="cls-1" d="M167.43,152.59h1.3v9.01h4.32v1.09h-5.62v-10.11Z"/>
      <path class="cls-1" d="M176.4,152.4v11.97h-2.74v-.83h1.72v-10.32h-1.72v-.83h2.74Z"/>
      <path class="cls-1" d="M180.66,152.4v11.97h-2.74v-.83h1.72v-10.32h-1.72v-.83h2.74Z"/>
    </g>
    <rect class="cls-6" x="60.08" y="46.07" width="68" height="35"/>
    <rect class="cls-6" x="90.08" y="65.07" width="68" height="35"/>
    <g>
      <circle class="cls-1" cx="157.62" cy="63.8" r="7.75"/>
      <path class="cls-3" d="M157.91,60.61h.87v4.51c0,1.79-.88,2.34-2.04,2.34-.32,0-.71-.07-.93-.16l.13-.71c.18.07.44.13.73.13.78,0,1.24-.35,1.24-1.67v-4.44Z"/>
    </g>
    <g>
      <circle class="cls-1" cx="90.62" cy="63.8" r="7.75"/>
      <path class="cls-3" d="M91.06,60.61v6.74h-.87v-6.74h.87Z"/>
    </g>
    <g>
      <circle class="cls-1" cx="128.62" cy="81.8" r="7.75"/>
      <path class="cls-3" d="M131.28,85.05c-.39.14-1.16.37-2.07.37-1.02,0-1.86-.26-2.52-.89-.58-.56-.94-1.46-.94-2.51,0-2.01,1.39-3.48,3.65-3.48.78,0,1.39.17,1.68.31l-.21.71c-.36-.16-.81-.29-1.49-.29-1.64,0-2.71,1.02-2.71,2.71s1.03,2.72,2.6,2.72c.57,0,.96-.08,1.16-.18v-2.01h-1.37v-.7h2.22v3.24Z"/>
    </g>
    <g>
      <circle class="cls-1" cx="60.62" cy="80.8" r="7.75"/>
      <path class="cls-3" d="M59.16,77.93v2.54h2.94v-2.54h.79v6.07h-.79v-2.84h-2.94v2.84h-.78v-6.07h.78Z"/>
    </g>
    <g>
      <circle class="cls-1" cx="127.62" cy="42.8" r="7.75"/>
      <path class="cls-3" d="M125.95,39.61h3.63v.73h-2.76v2.24h2.55v.72h-2.55v3.05h-.87v-6.74Z"/>
    </g>
    <g>
      <circle class="cls-1" cx="59.62" cy="45.8" r="7.75"/>
      <path class="cls-3" d="M61.41,46.19h-2.62v2.43h2.92v.73h-3.79v-6.74h3.64v.73h-2.77v2.13h2.62v.72Z"/>
    </g>
    <g>
      <circle class="cls-1" cx="158.62" cy="100.8" r="7.75"/>
      <path class="cls-3" d="M156.67,97.61h.87v3.25h.03c.18-.26.36-.5.53-.72l2.06-2.53h1.08l-2.44,2.86,2.63,3.88h-1.03l-2.22-3.31-.64.74v2.57h-.87v-6.74Z"/>
    </g>
    <g>
      <circle class="cls-1" cx="90.62" cy="100.8" r="7.75"/>
      <path class="cls-3" d="M89.02,97.61h.87v6.01h2.88v.73h-3.75v-6.74Z"/>
    </g>
  </g>
</svg>