<?xml version="1.0" encoding="UTF-8"?>
<svg id="Shell" xmlns="http://www.w3.org/2000/svg" viewBox="0 0 538.58 188.6">
  <defs>
    <style>
      .cls-1 {
        fill: #231f20;
      }

      .cls-2 {
        fill: #6dbae7;
        opacity: .31;
      }

      .cls-3 {
        fill: #fff;
      }

      .cls-4 {
        stroke: #9b9a9a;
      }

      .cls-4, .cls-5, .cls-6, .cls-7 {
        fill: none;
      }

      .cls-4, .cls-6 {
        stroke-width: 2.83px;
      }

      .cls-4, .cls-6, .cls-7 {
        stroke-miterlimit: 10;
      }

      .cls-8 {
        fill: #9b9a9a;
      }

      .cls-6, .cls-7 {
        stroke: #437898;
      }

      .cls-7 {
        stroke-dasharray: 5.67;
        stroke-width: 2.83px;
      }
    </style>
  </defs>
  <g>
    <polyline class="cls-2" points="38.5 50.71 71.76 132.74 36.38 166.53 121.51 154.07 76.51 134.48 124.75 125.57 149.3 150.94 143.3 98.94 124.47 121.58 36.29 51.39"/>
    <polyline class="cls-2" points="78.01 31.57 105.51 55.07 171.49 69.44 150.47 44.61 109.05 54.28 117 28.46"/>
    <line class="cls-6" x1="171.75" y1="72.21" x2="153.75" y2="48.21"/>
    <line class="cls-6" x1="78.01" y1="31.57" x2="106.01" y2="55.57"/>
    <line class="cls-6" x1="118.51" y1="27.07" x2="77.51" y2="31.07"/>
    <line class="cls-6" x1="105.51" y1="55.07" x2="119.51" y2="26.07"/>
    <line class="cls-6" x1="150.51" y1="45.07" x2="105.51" y2="55.07"/>
    <line class="cls-6" x1="171.51" y1="69.07" x2="105.51" y2="55.07"/>
    <line class="cls-6" x1="143.51" y1="99.07" x2="124.51" y2="125.07"/>
    <line class="cls-6" x1="151.51" y1="152.07" x2="143.51" y2="99.07"/>
    <line class="cls-6" x1="124.51" y1="125.07" x2="151.51" y2="152.07"/>
    <line class="cls-6" x1="121.51" y1="154.07" x2="71.51" y2="133.07"/>
    <line class="cls-6" x1="34.51" y1="170.07" x2="118.51" y2="153.07"/>
    <line class="cls-6" x1="73.51" y1="132.07" x2="34.51" y2="170.07"/>
    <line class="cls-6" x1="36.51" y1="51.07" x2="124.51" y2="124.07"/>
    <line class="cls-6" x1="71.51" y1="133.07" x2="36.51" y2="51.07"/>
    <line class="cls-6" x1="124.51" y1="125.07" x2="73.51" y2="135.07"/>
    <g>
      <circle class="cls-1" cx="37.5" cy="49.96" r="7.75"/>
      <path class="cls-3" d="M36.29,51.39l-.7,2.12h-.9l2.29-6.74h1.05l2.3,6.74h-.93l-.72-2.12h-2.39ZM38.5,50.71l-.66-1.94c-.15-.44-.25-.84-.35-1.23h-.02c-.1.4-.21.81-.34,1.22l-.66,1.95h2.03Z"/>
    </g>
    <g>
      <circle class="cls-1" cx="73.38" cy="132.53" r="7.75"/>
      <path class="cls-3" d="M75.95,135.86c-.32.16-.96.32-1.78.32-1.9,0-3.33-1.2-3.33-3.41s1.43-3.54,3.52-3.54c.84,0,1.37.18,1.6.3l-.21.71c-.33-.16-.8-.28-1.36-.28-1.58,0-2.63,1.01-2.63,2.78,0,1.65.95,2.71,2.59,2.71.53,0,1.07-.11,1.42-.28l.18.69Z"/>
    </g>
    <g>
      <circle class="cls-1" cx="36.38" cy="166.53" r="7.75"/>
      <path class="cls-3" d="M34.43,163.43c.38-.08.98-.14,1.59-.14.87,0,1.43.15,1.85.49.35.26.56.66.56,1.19,0,.65-.43,1.22-1.14,1.48v.02c.64.16,1.39.69,1.39,1.69,0,.58-.23,1.02-.57,1.35-.47.43-1.23.63-2.33.63-.6,0-1.06-.04-1.35-.08v-6.63ZM35.3,166.19h.79c.92,0,1.46-.48,1.46-1.13,0-.79-.6-1.1-1.48-1.1-.4,0-.63.03-.77.06v2.17ZM35.3,169.42c.17.03.42.04.73.04.9,0,1.73-.33,1.73-1.31,0-.92-.79-1.3-1.74-1.3h-.72v2.57Z"/>
    </g>
    <g>
      <circle class="cls-1" cx="106.38" cy="55.53" r="7.75"/>
      <path class="cls-3" d="M104.07,52.74c.48-.07,1.04-.13,1.67-.13,1.12,0,1.93.26,2.46.76.54.5.85,1.2.85,2.18s-.31,1.8-.87,2.36c-.57.57-1.5.87-2.68.87-.56,0-1.03-.03-1.42-.07v-5.97ZM104.85,58.1c.2.04.49.04.79.04,1.67,0,2.58-.94,2.58-2.57,0-1.43-.8-2.34-2.46-2.34-.41,0-.71.04-.92.08v4.79Z"/>
    </g>
    <g>
      <circle class="cls-1" cx="143.3" cy="98.94" r="7.75"/>
      <path class="cls-3" d="M145.96,102.19c-.39.14-1.16.37-2.07.37-1.02,0-1.86-.26-2.52-.89-.58-.56-.94-1.46-.94-2.51,0-2.01,1.39-3.48,3.65-3.48.78,0,1.39.17,1.68.31l-.21.71c-.36-.16-.81-.29-1.49-.29-1.64,0-2.71,1.02-2.71,2.71s1.03,2.72,2.6,2.72c.57,0,.96-.08,1.16-.18v-2.01h-1.37v-.7h2.22v3.24Z"/>
    </g>
    <g>
      <circle class="cls-1" cx="149.3" cy="150.94" r="7.75"/>
      <path class="cls-3" d="M149.69,148.07v6.07h-.78v-6.07h.78Z"/>
    </g>
    <g>
      <circle class="cls-1" cx="172.3" cy="68.94" r="7.75"/>
      <path class="cls-3" d="M170.62,65.75h3.63v.73h-2.76v2.24h2.55v.72h-2.55v3.05h-.87v-6.74Z"/>
    </g>
    <g>
      <circle class="cls-1" cx="151.3" cy="44.94" r="7.75"/>
      <path class="cls-3" d="M153.09,45.33h-2.62v2.43h2.92v.73h-3.79v-6.74h3.64v.73h-2.77v2.13h2.62v.72Z"/>
    </g>
    <g>
      <circle class="cls-1" cx="117" cy="28.46" r="7.75"/>
      <path class="cls-3" d="M115.56,25.58h.78v5.41h2.59v.66h-3.38v-6.07Z"/>
    </g>
    <g>
      <circle class="cls-1" cx="78" cy="31.46" r="7.75"/>
      <path class="cls-3" d="M76.25,28.58h.78v2.93h.03c.16-.23.32-.45.48-.65l1.85-2.28h.97l-2.2,2.57,2.37,3.49h-.93l-2-2.98-.58.67v2.31h-.78v-6.07Z"/>
    </g>
    <g>
      <circle class="cls-1" cx="121" cy="152.46" r="7.75"/>
      <path class="cls-3" d="M121.26,149.58h.78v4.06c0,1.61-.79,2.11-1.84,2.11-.29,0-.64-.06-.84-.14l.12-.64c.16.06.4.12.66.12.7,0,1.12-.31,1.12-1.5v-4Z"/>
    </g>
    <g>
      <circle class="cls-1" cx="123" cy="124.46" r="7.75"/>
      <path class="cls-3" d="M121.54,121.58v2.54h2.94v-2.54h.79v6.07h-.79v-2.84h-2.94v2.84h-.78v-6.07h.78Z"/>
    </g>
  </g>
  <g>
    <g>
      <line class="cls-4" x1="203.01" y1="96.07" x2="310.67" y2="96.07"/>
      <polygon class="cls-8" points="306.53 110.2 331.01 96.07 306.53 81.93 306.53 110.2"/>
    </g>
    <g>
      <rect class="cls-5" x="207.05" y="87.13" width="94.96" height="17.93"/>
      <path class="cls-1" d="M234.46,91.61l-.63,1.91h-.81l2.06-6.07h.95l2.07,6.07h-.84l-.65-1.91h-2.15ZM236.45,91l-.59-1.75c-.13-.4-.22-.76-.31-1.11h-.02c-.09.36-.19.73-.31,1.1l-.59,1.76h1.83Z"/>
      <path class="cls-1" d="M238.93,87.13h.79v6.39h-.79v-6.39Z"/>
      <path class="cls-1" d="M241.06,90.59c0-.56-.02-1.01-.04-1.42h.71l.04.75h.02c.32-.53.84-.85,1.55-.85,1.05,0,1.85.89,1.85,2.21,0,1.57-.95,2.34-1.98,2.34-.58,0-1.08-.25-1.34-.68h-.02v2.37h-.78v-4.72ZM241.84,91.75c0,.12.02.23.04.32.14.55.62.93,1.19.93.84,0,1.32-.68,1.32-1.68,0-.87-.46-1.62-1.3-1.62-.54,0-1.04.39-1.2.98-.03.1-.05.22-.05.32v.75Z"/>
      <path class="cls-1" d="M246.18,87.13h.79v2.72h.02c.13-.22.32-.42.57-.56.23-.13.51-.23.81-.23.58,0,1.52.36,1.52,1.86v2.59h-.79v-2.5c0-.7-.26-1.3-1.01-1.3-.51,0-.92.36-1.06.79-.05.11-.05.23-.05.38v2.63h-.79v-6.39Z"/>
      <path class="cls-1" d="M253.59,93.52l-.06-.55h-.03c-.24.34-.71.65-1.33.65-.88,0-1.33-.62-1.33-1.25,0-1.05.94-1.63,2.62-1.62v-.09c0-.36-.1-1.01-.99-1.01-.41,0-.83.13-1.13.32l-.18-.52c.36-.23.88-.39,1.43-.39,1.33,0,1.66.91,1.66,1.78v1.63c0,.38.02.75.07,1.04h-.72ZM253.47,91.3c-.86-.02-1.85.14-1.85.98,0,.51.34.76.75.76.57,0,.93-.36,1.05-.73.03-.08.04-.17.04-.25v-.76Z"/>
      <path class="cls-1" d="M258.11,93.52l-1.54-6.07h.83l.72,3.07c.18.76.34,1.51.45,2.1h.02c.1-.6.29-1.32.5-2.11l.81-3.06h.82l.74,3.08c.17.72.33,1.44.42,2.08h.02c.13-.67.3-1.34.49-2.1l.8-3.06h.8l-1.72,6.07h-.82l-.77-3.16c-.19-.77-.32-1.37-.4-1.98h-.02c-.11.6-.24,1.2-.47,1.98l-.86,3.16h-.82Z"/>
      <path class="cls-1" d="M264.57,90.52c0-.51,0-.95-.04-1.36h.69l.03.86h.04c.2-.59.68-.95,1.21-.95.09,0,.15,0,.22.03v.75c-.08-.02-.16-.03-.27-.03-.56,0-.96.42-1.06,1.02-.02.11-.04.23-.04.37v2.32h-.78v-3Z"/>
      <path class="cls-1" d="M269.88,93.52l-.06-.55h-.03c-.24.34-.71.65-1.33.65-.88,0-1.33-.62-1.33-1.25,0-1.05.94-1.63,2.62-1.62v-.09c0-.36-.1-1.01-.99-1.01-.41,0-.83.13-1.13.32l-.18-.52c.36-.23.88-.39,1.43-.39,1.33,0,1.66.91,1.66,1.78v1.63c0,.38.02.75.07,1.04h-.72ZM269.76,91.3c-.86-.02-1.85.14-1.85.98,0,.51.34.76.75.76.57,0,.93-.36,1.05-.73.03-.08.04-.17.04-.25v-.76Z"/>
      <path class="cls-1" d="M271.8,90.59c0-.56-.02-1.01-.04-1.42h.71l.04.75h.02c.32-.53.84-.85,1.55-.85,1.05,0,1.85.89,1.85,2.21,0,1.57-.95,2.34-1.98,2.34-.58,0-1.08-.25-1.34-.68h-.02v2.37h-.78v-4.72ZM272.59,91.75c0,.12.02.23.04.32.14.55.62.93,1.19.93.84,0,1.32-.68,1.32-1.68,0-.87-.46-1.62-1.3-1.62-.54,0-1.04.39-1.2.98-.03.1-.05.22-.05.32v.75Z"/>
    </g>
  </g>
  <g>
    <polygon class="cls-2" points="347.7 164.23 349.45 46.81 391.97 26.63 427.95 23.63 485.65 67.49 459.51 147.07 433.51 150.07 347.7 164.23"/>
    <line class="cls-7" x1="348.51" y1="163.07" x2="383.51" y2="131.07"/>
    <line class="cls-7" x1="350.51" y1="49.07" x2="384.51" y2="130.07"/>
    <line class="cls-7" x1="429.51" y1="148.07" x2="386.51" y2="131.07"/>
    <line class="cls-7" x1="459.51" y1="147.07" x2="456.51" y2="98.07"/>
    <line class="cls-7" x1="435.51" y1="147.07" x2="456.51" y2="98.07"/>
    <line class="cls-7" x1="384.51" y1="130.07" x2="452.51" y2="97.07"/>
    <line class="cls-7" x1="415.51" y1="57.07" x2="454.51" y2="97.07"/>
    <line class="cls-7" x1="351.51" y1="51.07" x2="415.51" y2="57.07"/>
    <line class="cls-7" x1="391.51" y1="33.07" x2="415.51" y2="57.07"/>
    <line class="cls-7" x1="426.51" y1="29.07" x2="415.51" y2="57.07"/>
    <line class="cls-7" x1="485.51" y1="64.07" x2="419.51" y2="56.07"/>
    <line class="cls-7" x1="454.51" y1="51.07" x2="485.51" y2="64.07"/>
    <line class="cls-7" x1="428.51" y1="34.07" x2="454.51" y2="51.07"/>
    <line class="cls-7" x1="418.51" y1="54.07" x2="454.51" y2="54.07"/>
    <g>
      <circle class="cls-1" cx="454.17" cy="47.78" r="7.75"/>
      <path class="cls-3" d="M455.96,48.17h-2.62v2.43h2.92v.73h-3.79v-6.74h3.64v.73h-2.77v2.13h2.62v.72Z"/>
    </g>
    <g>
      <circle class="cls-1" cx="454.91" cy="96.99" r="7.75"/>
      <path class="cls-3" d="M457.56,100.24c-.39.14-1.16.37-2.07.37-1.02,0-1.86-.26-2.52-.89-.58-.56-.94-1.46-.94-2.51,0-2.01,1.39-3.48,3.65-3.48.78,0,1.39.17,1.68.31l-.21.71c-.36-.16-.81-.29-1.49-.29-1.64,0-2.71,1.02-2.71,2.71s1.03,2.72,2.6,2.72c.57,0,.96-.08,1.16-.18v-2.01h-1.37v-.7h2.22v3.24Z"/>
    </g>
    <line class="cls-6" x1="433.51" y1="120.07" x2="485.51" y2="64.07"/>
    <g>
      <circle class="cls-1" cx="384.99" cy="130.57" r="7.75"/>
      <path class="cls-3" d="M387.56,133.9c-.32.16-.96.32-1.78.32-1.9,0-3.33-1.2-3.33-3.41s1.43-3.54,3.52-3.54c.84,0,1.37.18,1.6.3l-.21.71c-.33-.16-.8-.28-1.36-.28-1.58,0-2.63,1.01-2.63,2.78,0,1.65.95,2.71,2.59,2.71.53,0,1.07-.11,1.42-.28l.18.69Z"/>
    </g>
    <g>
      <circle class="cls-1" cx="417.99" cy="53.57" r="7.75"/>
      <path class="cls-3" d="M415.68,50.78c.48-.07,1.04-.13,1.67-.13,1.13,0,1.93.26,2.46.76.54.5.86,1.2.86,2.18s-.31,1.8-.87,2.36c-.57.57-1.5.87-2.68.87-.56,0-1.03-.03-1.42-.07v-5.97ZM416.46,56.15c.2.04.49.04.79.04,1.67,0,2.58-.94,2.58-2.57,0-1.43-.8-2.34-2.46-2.34-.41,0-.71.04-.92.08v4.79Z"/>
    </g>
    <polygon class="cls-2" points="349.01 165.7 350.75 48.28 393.28 28.09 429.26 25.09 486.96 68.95 460.81 148.53 434.81 151.53 349.01 165.7"/>
    <line class="cls-6" x1="427.51" y1="26.07" x2="485.51" y2="64.07"/>
    <line class="cls-6" x1="350.51" y1="49.07" x2="347.51" y2="167.07"/>
    <line class="cls-6" x1="433.51" y1="152.07" x2="347.51" y2="167.07"/>
    <line class="cls-6" x1="433.51" y1="122.07" x2="433.51" y2="152.07"/>
    <line class="cls-6" x1="347.51" y1="165.07" x2="433.51" y2="120.07"/>
    <line class="cls-6" x1="348.51" y1="49.07" x2="433.51" y2="120.07"/>
    <line class="cls-6" x1="461.51" y1="146.07" x2="432.51" y2="150.07"/>
    <line class="cls-6" x1="485.51" y1="64.07" x2="461.51" y2="146.07"/>
    <line class="cls-6" x1="433.51" y1="150.07" x2="485.51" y2="64.07"/>
    <line class="cls-6" x1="347.51" y1="51.07" x2="427.51" y2="26.07"/>
    <line class="cls-6" x1="432.51" y1="117.07" x2="427.51" y2="26.07"/>
    <line class="cls-6" x1="348.51" y1="49.07" x2="388.51" y2="29.07"/>
    <line class="cls-6" x1="427.51" y1="26.07" x2="388.51" y2="27.07"/>
    <g>
      <circle class="cls-1" cx="349.11" cy="48" r="7.75"/>
      <path class="cls-3" d="M347.9,49.43l-.7,2.12h-.9l2.29-6.74h1.05l2.3,6.74h-.93l-.72-2.12h-2.39ZM350.11,48.75l-.66-1.94c-.15-.44-.25-.84-.35-1.23h-.02c-.1.4-.21.81-.34,1.22l-.66,1.95h2.03Z"/>
    </g>
    <g>
      <circle class="cls-1" cx="347.99" cy="164.57" r="7.75"/>
      <path class="cls-3" d="M346.04,161.48c.38-.08.98-.14,1.59-.14.87,0,1.43.15,1.85.49.35.26.56.66.56,1.19,0,.65-.43,1.22-1.14,1.48v.02c.64.16,1.39.69,1.39,1.69,0,.58-.23,1.02-.57,1.35-.47.43-1.23.63-2.33.63-.6,0-1.06-.04-1.35-.08v-6.63ZM346.91,164.23h.79c.92,0,1.46-.48,1.46-1.13,0-.79-.6-1.1-1.48-1.1-.4,0-.63.03-.77.06v2.17ZM346.91,167.46c.17.03.42.04.73.04.9,0,1.73-.33,1.73-1.31,0-.92-.79-1.3-1.74-1.3h-.72v2.57Z"/>
    </g>
    <g>
      <circle class="cls-1" cx="460.91" cy="148.99" r="7.75"/>
      <path class="cls-3" d="M461.3,146.11v6.07h-.78v-6.07h.78Z"/>
    </g>
    <g>
      <circle class="cls-1" cx="483.91" cy="66.99" r="7.75"/>
      <path class="cls-3" d="M482.23,63.8h3.63v.73h-2.76v2.24h2.55v.72h-2.55v3.05h-.87v-6.74Z"/>
    </g>
    <g>
      <circle class="cls-1" cx="428.61" cy="26.5" r="7.75"/>
      <path class="cls-3" d="M427.17,23.63h.78v5.41h2.59v.66h-3.38v-6.07Z"/>
    </g>
    <g>
      <circle class="cls-1" cx="389.61" cy="29.5" r="7.75"/>
      <path class="cls-3" d="M387.86,26.63h.78v2.93h.03c.16-.23.32-.45.48-.65l1.85-2.28h.97l-2.2,2.57,2.37,3.49h-.93l-2-2.98-.58.67v2.31h-.78v-6.07Z"/>
    </g>
    <g>
      <circle class="cls-1" cx="432.61" cy="150.5" r="7.75"/>
      <path class="cls-3" d="M432.87,147.63h.78v4.06c0,1.61-.79,2.11-1.84,2.11-.29,0-.64-.06-.84-.14l.12-.64c.16.06.4.12.66.12.7,0,1.12-.31,1.12-1.5v-4Z"/>
    </g>
    <g>
      <circle class="cls-1" cx="434.61" cy="122.5" r="7.75"/>
      <path class="cls-3" d="M433.14,119.63v2.54h2.94v-2.54h.79v6.07h-.79v-2.84h-2.94v2.84h-.78v-6.07h.78Z"/>
    </g>
  </g>
</svg>