<?xml version="1.0" encoding="UTF-8"?>
<svg id="Ring" xmlns="http://www.w3.org/2000/svg" viewBox="0 0 538.58 349.6">
  <defs>
    <style>
      .cls-1, .cls-2, .cls-3 {
        fill: #fff;
      }

      .cls-1, .cls-3, .cls-4, .cls-5 {
        font-family: MyriadPro-Regular, 'Myriad Pro';
      }

      .cls-1, .cls-4 {
        font-size: 9px;
      }

      .cls-6 {
        letter-spacing: -.01em;
      }

      .cls-7 {
        stroke-width: 5.67px;
      }

      .cls-7, .cls-8, .cls-9 {
        fill: none;
        stroke-miterlimit: 10;
      }

      .cls-7, .cls-9 {
        stroke: #437898;
      }

      .cls-10 {
        letter-spacing: -.01em;
      }

      .cls-11, .cls-4, .cls-5 {
        fill: #231f20;
      }

      .cls-8 {
        stroke: #9b9a9a;
      }

      .cls-8, .cls-9 {
        stroke-width: 2.83px;
      }

      .cls-12 {
        fill: #9b9a9a;
      }

      .cls-13 {
        letter-spacing: -.01em;
      }

      .cls-14 {
        letter-spacing: -.03em;
      }

      .cls-3 {
        font-size: 10px;
      }

      .cls-15 {
        letter-spacing: 0em;
      }

      .cls-16 {
        letter-spacing: 0em;
      }

      .cls-5 {
        font-size: 15px;
      }

      .cls-17 {
        letter-spacing: 0em;
      }

      .cls-18 {
        letter-spacing: -.01em;
      }
    </style>
  </defs>
  <g>
    <rect class="cls-9" x="29.5" y="17.07" width="146" height="117"/>
    <circle class="cls-11" cx="30.25" cy="17.82" r="7.75"/>
    <text class="cls-3" transform="translate(27.19 21.37)"><tspan x="0" y="0">A</tspan></text>
    <circle class="cls-11" cx="175.13" cy="134.39" r="7.75"/>
    <text class="cls-3" transform="translate(172.23 137.94)"><tspan x="0" y="0">C</tspan></text>
    <circle class="cls-11" cx="29.13" cy="134.39" r="7.75"/>
    <text class="cls-3" transform="translate(26.42 137.94)"><tspan x="0" y="0">B</tspan></text>
    <circle class="cls-11" cx="175.13" cy="17.39" r="7.75"/>
    <text class="cls-1" transform="translate(172.14 20.58)"><tspan x="0" y="0">D</tspan></text>
    <text class="cls-5" transform="translate(70.2 160.69)"><tspan class="cls-13" x="0" y="0">[</tspan><tspan class="cls-15" x="4.09" y="0">A,</tspan><tspan class="cls-6" x="16.38" y="0">B</tspan><tspan x="24.32" y="0">,C,C,</tspan><tspan class="cls-17" x="51.03" y="0">D</tspan><tspan x="60.91" y="0">]</tspan></text>
  </g>
  <g>
    <rect class="cls-9" x="345.5" y="87.07" width="146" height="117"/>
    <circle class="cls-11" cx="346.25" cy="87.82" r="7.75"/>
    <text class="cls-3" transform="translate(343.19 91.37)"><tspan x="0" y="0">A</tspan></text>
    <circle class="cls-11" cx="491.13" cy="204.39" r="7.75"/>
    <text class="cls-3" transform="translate(488.23 207.94)"><tspan x="0" y="0">C</tspan></text>
    <circle class="cls-11" cx="345.13" cy="204.39" r="7.75"/>
    <text class="cls-3" transform="translate(342.42 207.94)"><tspan x="0" y="0">B</tspan></text>
    <circle class="cls-11" cx="491.13" cy="87.39" r="7.75"/>
    <text class="cls-1" transform="translate(488.14 90.58)"><tspan x="0" y="0">D</tspan></text>
    <text class="cls-5" transform="translate(392.1 230.69)"><tspan class="cls-13" x="0" y="0">[</tspan><tspan class="cls-15" x="4.09" y="0">A,</tspan><tspan class="cls-6" x="16.38" y="0">B</tspan><tspan x="24.32" y="0">,C,</tspan><tspan class="cls-17" x="39.23" y="0">D</tspan><tspan x="49.11" y="0">]</tspan></text>
  </g>
  <g>
    <rect class="cls-9" x="28.08" y="193.07" width="146" height="117"/>
    <circle class="cls-11" cx="173.71" cy="310.39" r="7.75"/>
    <text class="cls-3" transform="translate(170.82 313.94)"><tspan x="0" y="0">C</tspan></text>
    <circle class="cls-11" cx="27.71" cy="310.39" r="7.75"/>
    <text class="cls-3" transform="translate(25.01 313.94)"><tspan x="0" y="0">B</tspan></text>
    <circle class="cls-11" cx="173.71" cy="193.39" r="7.75"/>
    <text class="cls-1" transform="translate(170.72 196.58)"><tspan x="0" y="0">D</tspan></text>
    <text class="cls-5" transform="translate(69.64 336.69)"><tspan class="cls-18" x="0" y="0">[</tspan><tspan class="cls-16" x="4.1" y="0">A,</tspan><tspan class="cls-10" x="16.38" y="0">B</tspan><tspan x="24.32" y="0">,C,</tspan><tspan class="cls-14" x="39.23" y="0">D</tspan><tspan x="48.7" y="0">,E]</tspan></text>
    <g>
      <path class="cls-2" d="M11.96,201.71c-.03-14.13,11.73-25.74,25.96-25.89,12.59-.13,25.91,9.74,26.09,26.3.15,14.14-11.75,25.85-26.04,25.87-14.39.01-25.98-11.69-26.01-26.27ZM27.24,222.66c7.88,4.54,20.61,4.02,28.82-5.78,7.32-8.73,6.11-20.05,2.88-25.28,5.63,17.63-11.03,36.87-31.7,31.06Z"/>
      <line class="cls-7" x1="24" y1="225.57" x2="24" y2="203.57"/>
      <line class="cls-7" x1="41.53" y1="189.63" x2="22.47" y2="200.63"/>
      <line class="cls-7" x1="42" y1="190.57" x2="64" y2="190.57"/>
      <circle class="cls-11" cx="38.13" cy="190.39" r="7.75"/>
      <text class="cls-3" transform="translate(35.67 193.94)"><tspan x="0" y="0">E</tspan></text>
      <circle class="cls-11" cx="23.83" cy="198.82" r="7.75"/>
      <text class="cls-3" transform="translate(20.77 202.37)"><tspan x="0" y="0">A</tspan></text>
      <path d="M58.95,232.46c-.29.09-.67.25-1.06.33-.83.16-1.39-.24-1.25-1.07.15-.83.56-1.62.87-2.43.05-.13.14-.25.22-.38,1.21-1.89,1.14-2.2-.81-3.54-14.97,12.57-35.34,6.17-43.84-6.37-8.53-12.57-6.49-29.49,5.1-39.79,11.13-9.9,28.21-9.88,39.49-.11,11.4,9.88,14.95,28.85,2.96,42.59.58.54,1.15,1.12,1.79,1.61.18.14.63.08.87-.05.94-.51,1.82-1.14,2.77-1.64.55-.29,1.23-.57,1.79-.02.58.57.18,1.19-.03,1.78-.06.16-.14.32-.2.47,3.26,1.71,5.64,4.47,8.39,6.75,2.78,2.3,5.46,4.72,8.18,7.08,2.11,1.83,4.18,3.71,6.35,5.47,1.22.98,1.65,2.15,1.36,3.61-1.11,5.49-5.33,9.31-10.33,10.01-1.12.16-2.07-.19-2.87-1.11-6.06-6.99-12.15-13.95-18.22-20.94-.58-.67-1.01-1.46-1.54-2.26ZM11.96,201.71c.03,14.58,11.62,26.29,26.01,26.27,14.29-.01,26.19-11.73,26.04-25.87-.18-16.56-13.49-26.43-26.09-26.3-14.23.15-25.99,11.76-25.96,25.89ZM61.8,232.07c1.78,2.08,3.51,4.12,5.25,6.15,4.53,5.32,9.05,10.64,13.59,15.95.2.23.61.56.79.49,1.12-.43,2.2-.96,3.44-1.53-.42-.44-.63-.67-.85-.89-6.83-6.75-13.65-13.51-20.48-20.26-.79-.79-.82-.79-1.74.08ZM60.41,228.42c-.77.54-1.48,1.05-2.2,1.56.87.99,1.43.82,2.76-.74-.17-.25-.34-.5-.56-.83Z"/>
      <path d="M27.24,222.66c20.67,5.82,37.32-13.43,31.7-31.06,3.23,5.23,4.44,16.55-2.88,25.28-8.21,9.79-20.94,10.32-28.82,5.78Z"/>
    </g>
  </g>
  <g>
    <g>
      <line class="cls-8" x1="212" y1="160.07" x2="319.66" y2="160.07"/>
      <polygon class="cls-12" points="315.52 174.2 340 160.07 315.52 145.93 315.52 174.2"/>
    </g>
    <text class="cls-4" transform="translate(239.75 155.96)"><tspan x="0" y="0">Keep the first</tspan></text>
  </g>
</svg>