<?xml version="1.0" encoding="UTF-8"?>
<svg id="Solidinteraction" xmlns="http://www.w3.org/2000/svg" viewBox="0 0 522 405.23">
  <defs>
    <style>
      .cls-1 {
        fill: #231f20;
      }

      .cls-2 {
        stroke-width: 2px;
      }

      .cls-2, .cls-3, .cls-4, .cls-5, .cls-6 {
        fill: none;
      }

      .cls-2, .cls-3, .cls-5, .cls-6 {
        stroke-miterlimit: 10;
      }

      .cls-2, .cls-5, .cls-6 {
        stroke: #437898;
      }

      .cls-7 {
        fill: #6dbae7;
      }

      .cls-7, .cls-8 {
        opacity: .31;
      }

      .cls-9 {
        fill: #fff;
      }

      .cls-3 {
        stroke: #9b9a9a;
      }

      .cls-3, .cls-5, .cls-6 {
        stroke-width: 2.83px;
      }

      .cls-10 {
        fill: #9b9a9a;
      }

      .cls-8 {
        fill: #437898;
      }

      .cls-6 {
        stroke-dasharray: 5.67;
      }
    </style>
  </defs>
  <g>
    <rect class="cls-7" x="58.95" y="34.51" width="124" height="115"/>
    <polyline class="cls-7" points="56.95 34.51 56.95 34.51 58.45 150.01 36 182.65 37.45 65.01 58.95 34.51"/>
    <line class="cls-5" x1="183.45" y1="35.01" x2="58.45" y2="35.01"/>
    <line class="cls-5" x1="160.45" y1="65.01" x2="183.45" y2="35.01"/>
    <line class="cls-5" x1="164.45" y1="185.01" x2="184.45" y2="151.01"/>
    <line class="cls-5" x1="183.45" y1="35.01" x2="183.45" y2="151.01"/>
    <line class="cls-6" x1="58.45" y1="35.01" x2="58.45" y2="150.01"/>
    <line class="cls-5" x1="37.21" y1="64.46" x2="60.21" y2="34.46"/>
    <line class="cls-6" x1="183.45" y1="150.01" x2="56.45" y2="150.01"/>
    <polyline class="cls-6" points="58.45 150.01 38.45 181.01 58.45 150.01"/>
    <polygon class="cls-8" points="58.45 35.01 38.53 64.57 162.08 65.33 183.71 33.97 58.45 35.01"/>
    <polyline class="cls-7" points="37.08 182.33 58.45 150.01 183.45 151.01 163.45 182.01"/>
    <polygon class="cls-8" points="162.08 65.33 182.66 35.94 181.61 153.52 161.46 182.54 162.08 65.33"/>
    <g>
      <circle class="cls-1" cx="58.2" cy="33.76" r="7.75"/>
      <path class="cls-9" d="M59.98,34.15h-2.62v2.43h2.92v.73h-3.79v-6.74h3.64v.73h-2.77v2.13h2.62v.72Z"/>
    </g>
    <g>
      <circle class="cls-1" cx="183.08" cy="150.33" r="7.75"/>
      <path class="cls-9" d="M181.61,147.46v2.54h2.93v-2.54h.79v6.07h-.79v-2.84h-2.93v2.84h-.78v-6.07h.78Z"/>
    </g>
    <g>
      <circle class="cls-1" cx="57.08" cy="150.33" r="7.75"/>
      <path class="cls-9" d="M55.4,147.14h3.63v.73h-2.76v2.24h2.55v.72h-2.55v3.05h-.87v-6.74Z"/>
    </g>
    <g>
      <circle class="cls-1" cx="182.08" cy="33.33" r="7.75"/>
      <path class="cls-9" d="M184.47,36.25c-.35.13-1.04.33-1.86.33-.92,0-1.67-.23-2.27-.8-.52-.5-.85-1.31-.85-2.26,0-1.81,1.25-3.13,3.29-3.13.7,0,1.25.15,1.51.28l-.19.64c-.32-.14-.73-.26-1.34-.26-1.48,0-2.44.92-2.44,2.44s.93,2.45,2.34,2.45c.51,0,.86-.07,1.04-.16v-1.81h-1.23v-.63h2v2.92Z"/>
    </g>
    <rect class="cls-8" x="38.95" y="66.51" width="124" height="115"/>
    <rect class="cls-5" x="37.45" y="65.01" width="126" height="117"/>
    <g>
      <circle class="cls-1" cx="38.2" cy="65.76" r="7.75"/>
      <path class="cls-9" d="M36.98,67.19l-.7,2.12h-.9l2.29-6.74h1.05l2.3,6.74h-.93l-.72-2.12h-2.39ZM39.19,66.51l-.66-1.94c-.15-.44-.25-.84-.35-1.23h-.02c-.1.4-.21.81-.34,1.22l-.66,1.95h2.03Z"/>
    </g>
    <g>
      <circle class="cls-1" cx="163.08" cy="182.33" r="7.75"/>
      <path class="cls-9" d="M165.64,185.66c-.32.16-.96.32-1.78.32-1.9,0-3.33-1.2-3.33-3.41s1.43-3.54,3.52-3.54c.84,0,1.37.18,1.6.3l-.21.71c-.33-.16-.8-.28-1.36-.28-1.58,0-2.63,1.01-2.63,2.78,0,1.65.95,2.71,2.59,2.71.53,0,1.07-.11,1.42-.28l.18.69Z"/>
    </g>
    <g>
      <circle class="cls-1" cx="37.08" cy="182.33" r="7.75"/>
      <path class="cls-9" d="M35.13,179.23c.38-.08.98-.14,1.59-.14.87,0,1.43.15,1.85.49.35.26.56.66.56,1.19,0,.65-.43,1.22-1.14,1.48v.02c.64.16,1.39.69,1.39,1.69,0,.58-.23,1.02-.57,1.35-.47.43-1.23.63-2.33.63-.6,0-1.06-.04-1.35-.08v-6.63ZM36,181.99h.79c.92,0,1.46-.48,1.46-1.13,0-.79-.6-1.1-1.48-1.1-.4,0-.63.03-.77.06v2.17ZM36,185.22c.17.03.42.04.73.04.9,0,1.73-.33,1.73-1.31,0-.92-.79-1.3-1.74-1.3h-.72v2.57Z"/>
    </g>
    <g>
      <circle class="cls-1" cx="162.08" cy="65.33" r="7.75"/>
      <path class="cls-9" d="M159.76,62.54c.48-.07,1.04-.13,1.67-.13,1.13,0,1.93.26,2.46.76.54.5.85,1.2.85,2.18s-.31,1.8-.87,2.36c-.57.57-1.5.87-2.68.87-.56,0-1.03-.03-1.42-.07v-5.97ZM160.55,67.9c.2.04.49.04.79.04,1.67,0,2.58-.94,2.58-2.57,0-1.43-.8-2.34-2.46-2.34-.41,0-.71.04-.92.08v4.79Z"/>
    </g>
  </g>
  <g>
    <rect class="cls-7" x="368.2" y="33.7" width="124" height="115"/>
    <polyline class="cls-7" points="366.2 33.7 366.2 33.7 367.7 149.2 345.25 181.84 346.7 64.2 368.2 33.7"/>
    <line class="cls-5" x1="492.7" y1="34.2" x2="367.7" y2="34.2"/>
    <line class="cls-5" x1="469.7" y1="64.2" x2="492.7" y2="34.2"/>
    <line class="cls-5" x1="473.7" y1="184.2" x2="493.7" y2="150.2"/>
    <line class="cls-5" x1="492.7" y1="34.2" x2="492.7" y2="150.2"/>
    <line class="cls-6" x1="367.7" y1="34.2" x2="367.7" y2="149.2"/>
    <line class="cls-5" x1="346.46" y1="63.65" x2="369.46" y2="33.65"/>
    <line class="cls-6" x1="492.7" y1="149.2" x2="365.7" y2="149.2"/>
    <polyline class="cls-6" points="367.7 149.2 347.7 180.2 367.7 149.2"/>
    <polygon class="cls-7" points="367.7 34.2 347.79 63.76 471.33 64.52 492.96 33.16 367.7 34.2"/>
    <polyline class="cls-7" points="346.33 181.52 367.7 149.2 492.7 150.2 472.7 181.2"/>
    <polygon class="cls-7" points="471.33 64.52 491.92 35.13 490.86 152.72 470.71 181.73 471.33 64.52"/>
    <g>
      <circle class="cls-1" cx="367.45" cy="32.95" r="7.75"/>
      <path class="cls-9" d="M369.24,33.34h-2.62v2.43h2.92v.73h-3.79v-6.74h3.64v.73h-2.77v2.13h2.62v.72Z"/>
    </g>
    <g>
      <circle class="cls-1" cx="492.33" cy="149.52" r="7.75"/>
      <path class="cls-9" d="M490.86,146.65v2.54h2.93v-2.54h.79v6.07h-.79v-2.84h-2.93v2.84h-.78v-6.07h.78Z"/>
    </g>
    <g>
      <circle class="cls-1" cx="366.33" cy="149.52" r="7.75"/>
      <path class="cls-9" d="M364.66,146.33h3.63v.73h-2.76v2.24h2.55v.72h-2.55v3.05h-.87v-6.74Z"/>
    </g>
    <g>
      <circle class="cls-1" cx="491.33" cy="32.52" r="7.75"/>
      <path class="cls-9" d="M493.73,35.45c-.35.13-1.04.33-1.86.33-.92,0-1.67-.23-2.27-.8-.52-.5-.85-1.31-.85-2.26,0-1.81,1.25-3.13,3.29-3.13.7,0,1.25.15,1.51.28l-.19.64c-.32-.14-.73-.26-1.34-.26-1.48,0-2.44.92-2.44,2.44s.93,2.45,2.34,2.45c.51,0,.86-.07,1.04-.16v-1.81h-1.23v-.63h2v2.92Z"/>
    </g>
    <rect class="cls-7" x="348.2" y="65.7" width="124" height="115"/>
    <rect class="cls-5" x="346.7" y="64.2" width="126" height="117"/>
    <g>
      <circle class="cls-1" cx="347.45" cy="64.95" r="7.75"/>
      <path class="cls-9" d="M346.24,66.38l-.7,2.12h-.9l2.29-6.74h1.05l2.3,6.74h-.93l-.72-2.12h-2.39ZM348.45,65.7l-.66-1.94c-.15-.44-.25-.84-.35-1.23h-.02c-.1.4-.21.81-.34,1.22l-.66,1.95h2.03Z"/>
    </g>
    <g>
      <circle class="cls-1" cx="472.33" cy="181.52" r="7.75"/>
      <path class="cls-9" d="M474.9,184.85c-.32.16-.96.32-1.78.32-1.9,0-3.33-1.2-3.33-3.41s1.43-3.54,3.52-3.54c.84,0,1.37.18,1.6.3l-.21.71c-.33-.16-.8-.28-1.36-.28-1.58,0-2.63,1.01-2.63,2.78,0,1.65.95,2.71,2.59,2.71.53,0,1.07-.11,1.42-.28l.18.69Z"/>
    </g>
    <g>
      <circle class="cls-1" cx="346.33" cy="181.52" r="7.75"/>
      <path class="cls-9" d="M344.38,178.42c.38-.08.98-.14,1.59-.14.87,0,1.43.15,1.85.49.35.26.56.66.56,1.19,0,.65-.43,1.22-1.14,1.48v.02c.64.16,1.39.69,1.39,1.69,0,.58-.23,1.02-.57,1.35-.47.43-1.23.63-2.33.63-.6,0-1.06-.04-1.35-.08v-6.63ZM345.25,181.18h.79c.92,0,1.46-.48,1.46-1.13,0-.79-.6-1.1-1.48-1.1-.4,0-.63.03-.77.06v2.17ZM345.25,184.41c.17.03.42.04.73.04.9,0,1.73-.33,1.73-1.31,0-.92-.79-1.3-1.74-1.3h-.72v2.57Z"/>
    </g>
    <g>
      <circle class="cls-1" cx="471.33" cy="64.52" r="7.75"/>
      <path class="cls-9" d="M469.02,61.73c.48-.07,1.04-.13,1.67-.13,1.12,0,1.93.26,2.46.76.54.5.85,1.2.85,2.18s-.31,1.8-.87,2.36c-.57.57-1.5.87-2.68.87-.56,0-1.03-.03-1.42-.07v-5.97ZM469.8,67.09c.2.04.49.04.79.04,1.67,0,2.58-.94,2.58-2.58,0-1.43-.8-2.34-2.46-2.34-.41,0-.71.04-.92.08v4.79Z"/>
    </g>
  </g>
  <g>
    <rect class="cls-7" x="368.87" y="220.08" width="124" height="115"/>
    <polyline class="cls-7" points="366.87 220.08 366.87 220.08 368.37 335.58 345.93 368.23 347.37 250.58 368.87 220.08"/>
    <line class="cls-5" x1="493.37" y1="220.58" x2="368.37" y2="220.58"/>
    <line class="cls-5" x1="470.37" y1="250.58" x2="493.37" y2="220.58"/>
    <line class="cls-5" x1="474.37" y1="370.58" x2="494.37" y2="336.58"/>
    <line class="cls-5" x1="493.37" y1="220.58" x2="493.37" y2="336.58"/>
    <line class="cls-6" x1="368.37" y1="220.58" x2="368.37" y2="335.58"/>
    <line class="cls-5" x1="347.14" y1="250.03" x2="370.14" y2="220.03"/>
    <line class="cls-6" x1="493.37" y1="335.58" x2="366.37" y2="335.58"/>
    <polyline class="cls-6" points="368.37 335.58 348.37 366.58 368.37 335.58"/>
    <polygon class="cls-7" points="368.37 220.58 348.46 250.15 472.01 250.9 493.64 219.54 368.37 220.58"/>
    <polyline class="cls-7" points="347.01 367.9 368.37 335.58 493.37 336.58 473.37 367.58"/>
    <polygon class="cls-7" points="472.01 250.9 492.59 221.51 491.54 339.1 471.39 368.12 472.01 250.9"/>
    <g>
      <circle class="cls-1" cx="368.12" cy="219.33" r="7.75"/>
      <path class="cls-9" d="M369.91,219.73h-2.62v2.43h2.92v.73h-3.79v-6.74h3.64v.73h-2.77v2.13h2.62v.72Z"/>
    </g>
    <g>
      <circle class="cls-1" cx="493.01" cy="335.9" r="7.75"/>
      <path class="cls-9" d="M491.54,333.03v2.54h2.94v-2.54h.79v6.07h-.79v-2.84h-2.94v2.84h-.78v-6.07h.78Z"/>
    </g>
    <g>
      <circle class="cls-1" cx="367.01" cy="335.9" r="7.75"/>
      <path class="cls-9" d="M365.33,332.72h3.63v.73h-2.76v2.24h2.55v.72h-2.55v3.05h-.87v-6.74Z"/>
    </g>
    <g>
      <circle class="cls-1" cx="492.01" cy="218.9" r="7.75"/>
      <path class="cls-9" d="M494.4,221.83c-.35.13-1.04.33-1.86.33-.92,0-1.67-.23-2.27-.8-.52-.5-.85-1.31-.85-2.26,0-1.81,1.25-3.13,3.29-3.13.7,0,1.25.15,1.51.28l-.19.64c-.32-.14-.73-.26-1.34-.26-1.48,0-2.44.92-2.44,2.44s.93,2.45,2.34,2.45c.51,0,.86-.07,1.04-.16v-1.81h-1.23v-.63h2v2.92Z"/>
    </g>
    <rect class="cls-7" x="348.87" y="252.08" width="124" height="115"/>
    <rect class="cls-5" x="347.37" y="250.58" width="126" height="117"/>
    <g>
      <circle class="cls-1" cx="348.12" cy="251.33" r="7.75"/>
      <path class="cls-9" d="M346.91,252.77l-.7,2.12h-.9l2.29-6.74h1.05l2.3,6.74h-.93l-.72-2.12h-2.39ZM349.12,252.09l-.66-1.94c-.15-.44-.25-.84-.35-1.23h-.02c-.1.4-.21.81-.34,1.22l-.66,1.95h2.03Z"/>
    </g>
    <g>
      <circle class="cls-1" cx="473.01" cy="367.9" r="7.75"/>
      <path class="cls-9" d="M475.57,371.23c-.32.16-.96.32-1.78.32-1.9,0-3.33-1.2-3.33-3.41s1.43-3.54,3.52-3.54c.84,0,1.37.18,1.6.3l-.21.71c-.33-.16-.8-.28-1.36-.28-1.58,0-2.63,1.01-2.63,2.78,0,1.65.95,2.71,2.59,2.71.53,0,1.07-.11,1.42-.28l.18.69Z"/>
    </g>
    <g>
      <circle class="cls-1" cx="347.01" cy="367.9" r="7.75"/>
      <path class="cls-9" d="M345.06,364.81c.38-.08.98-.14,1.59-.14.87,0,1.43.15,1.85.49.35.26.56.66.56,1.19,0,.65-.43,1.22-1.14,1.48v.02c.64.16,1.39.69,1.39,1.69,0,.58-.23,1.02-.57,1.35-.47.43-1.23.63-2.33.63-.6,0-1.06-.04-1.35-.08v-6.63ZM345.93,367.57h.79c.92,0,1.46-.48,1.46-1.13,0-.79-.6-1.1-1.48-1.1-.4,0-.63.03-.77.06v2.17ZM345.93,370.79c.17.03.42.04.73.04.9,0,1.73-.33,1.73-1.31,0-.92-.79-1.3-1.74-1.3h-.72v2.57Z"/>
    </g>
    <g>
      <circle class="cls-1" cx="472.01" cy="250.9" r="7.75"/>
      <path class="cls-9" d="M469.69,248.11c.48-.07,1.04-.13,1.67-.13,1.13,0,1.93.26,2.46.76.54.5.86,1.2.86,2.18s-.31,1.8-.87,2.36c-.57.57-1.5.87-2.68.87-.56,0-1.03-.03-1.42-.07v-5.97ZM470.48,253.48c.2.04.49.04.79.04,1.67,0,2.58-.94,2.58-2.58,0-1.43-.8-2.34-2.46-2.34-.41,0-.71.04-.92.08v4.79Z"/>
    </g>
  </g>
  <g>
    <rect class="cls-7" x="59.56" y="221.34" width="124" height="115"/>
    <polyline class="cls-7" points="57.56 221.34 57.56 221.34 59.06 336.84 36.61 369.48 38.06 251.84 59.56 221.34"/>
    <line class="cls-5" x1="184.06" y1="221.84" x2="59.06" y2="221.84"/>
    <line class="cls-5" x1="161.06" y1="251.84" x2="184.06" y2="221.84"/>
    <line class="cls-5" x1="165.06" y1="371.84" x2="185.06" y2="337.84"/>
    <line class="cls-5" x1="184.06" y1="221.84" x2="184.06" y2="337.84"/>
    <line class="cls-6" x1="59.06" y1="221.84" x2="59.06" y2="336.84"/>
    <line class="cls-5" x1="37.82" y1="251.29" x2="60.82" y2="221.29"/>
    <line class="cls-6" x1="184.06" y1="336.84" x2="57.06" y2="336.84"/>
    <polyline class="cls-6" points="59.06 336.84 39.06 367.84 59.06 336.84"/>
    <polygon class="cls-8" points="59.06 221.84 39.15 251.4 162.69 252.16 184.32 220.8 59.06 221.84"/>
    <polyline class="cls-7" points="37.69 369.16 59.06 336.84 184.06 337.84 164.06 368.84"/>
    <polygon class="cls-8" points="162.69 252.16 183.28 222.77 182.22 340.35 162.07 369.37 162.69 252.16"/>
    <g>
      <circle class="cls-1" cx="58.81" cy="220.59" r="7.75"/>
      <path class="cls-9" d="M60.6,220.98h-2.62v2.43h2.92v.73h-3.79v-6.74h3.64v.73h-2.77v2.13h2.62v.72Z"/>
    </g>
    <g>
      <circle class="cls-1" cx="183.69" cy="337.16" r="7.75"/>
      <path class="cls-9" d="M182.22,334.29v2.54h2.93v-2.54h.79v6.07h-.79v-2.84h-2.93v2.84h-.78v-6.07h.78Z"/>
    </g>
    <g>
      <circle class="cls-1" cx="57.69" cy="337.16" r="7.75"/>
      <path class="cls-9" d="M56.02,333.97h3.63v.73h-2.76v2.24h2.55v.72h-2.55v3.05h-.87v-6.74Z"/>
    </g>
    <g>
      <circle class="cls-1" cx="182.69" cy="220.16" r="7.75"/>
      <path class="cls-9" d="M185.09,223.08c-.35.13-1.04.33-1.86.33-.92,0-1.67-.23-2.27-.8-.52-.5-.85-1.31-.85-2.26,0-1.81,1.25-3.13,3.29-3.13.7,0,1.25.15,1.51.28l-.19.64c-.32-.14-.73-.26-1.34-.26-1.48,0-2.44.92-2.44,2.44s.93,2.45,2.34,2.45c.51,0,.86-.07,1.04-.16v-1.81h-1.23v-.63h2v2.92Z"/>
    </g>
    <rect class="cls-8" x="39.56" y="253.34" width="124" height="115"/>
    <rect class="cls-5" x="38.06" y="251.84" width="126" height="117"/>
    <g>
      <circle class="cls-1" cx="38.81" cy="252.59" r="7.75"/>
      <path class="cls-9" d="M37.6,254.02l-.7,2.12h-.9l2.29-6.74h1.05l2.3,6.74h-.93l-.72-2.12h-2.39ZM39.81,253.34l-.66-1.94c-.15-.44-.25-.84-.35-1.23h-.02c-.1.4-.21.81-.34,1.22l-.66,1.95h2.03Z"/>
    </g>
    <g>
      <circle class="cls-1" cx="163.69" cy="369.16" r="7.75"/>
      <path class="cls-9" d="M166.26,372.49c-.32.16-.96.32-1.78.32-1.9,0-3.33-1.2-3.33-3.41s1.43-3.54,3.52-3.54c.84,0,1.37.18,1.6.3l-.21.71c-.33-.16-.8-.28-1.36-.28-1.58,0-2.63,1.01-2.63,2.78,0,1.65.95,2.71,2.59,2.71.53,0,1.07-.11,1.42-.28l.18.69Z"/>
    </g>
    <g>
      <circle class="cls-1" cx="37.69" cy="369.16" r="7.75"/>
      <path class="cls-9" d="M35.74,366.06c.38-.08.98-.14,1.59-.14.87,0,1.43.15,1.85.49.35.26.56.66.56,1.19,0,.65-.43,1.22-1.14,1.48v.02c.64.16,1.39.69,1.39,1.69,0,.58-.23,1.02-.57,1.35-.47.43-1.23.63-2.33.63-.6,0-1.06-.04-1.35-.08v-6.63ZM36.61,368.82h.79c.92,0,1.46-.48,1.46-1.13,0-.79-.6-1.1-1.48-1.1-.4,0-.63.03-.77.06v2.17ZM36.61,372.05c.17.03.42.04.73.04.9,0,1.73-.33,1.73-1.31,0-.92-.79-1.3-1.74-1.3h-.72v2.57Z"/>
    </g>
    <g>
      <circle class="cls-1" cx="162.69" cy="252.16" r="7.75"/>
      <path class="cls-9" d="M160.38,249.37c.48-.07,1.04-.13,1.67-.13,1.12,0,1.93.26,2.46.76.54.5.85,1.2.85,2.18s-.31,1.8-.87,2.36c-.57.57-1.5.87-2.68.87-.56,0-1.03-.03-1.42-.07v-5.97ZM161.16,254.73c.2.04.49.04.79.04,1.67,0,2.58-.94,2.58-2.58,0-1.43-.8-2.34-2.46-2.34-.41,0-.71.04-.92.08v4.79Z"/>
    </g>
  </g>
  <g>
    <path class="cls-9" d="M22.91,253.75c-.02-10.58,8.78-19.27,19.44-19.38,9.43-.1,19.39,7.29,19.53,19.69.11,10.58-8.8,19.35-19.49,19.36-10.78.01-19.45-8.75-19.47-19.67ZM34.34,269.44c5.9,3.4,15.42,3.01,21.57-4.32,5.48-6.54,4.57-15.01,2.15-18.92,4.21,13.19-8.25,27.6-23.73,23.25Z"/>
    <polyline class="cls-7" points="31.47 251.08 42.5 251.08 41.65 245.41 59.59 244.72 53.63 237.95 44.56 234.48 35.69 234.48 29.14 239.47 22.91 245.27 21.35 258.84 31.92 271.61 31.92 255.14"/>
    <line class="cls-2" x1="32.67" y1="252.15" x2="61.86" y2="252.15"/>
    <line class="cls-2" x1="31.17" y1="252.89" x2="31.57" y2="272.16"/>
    <line class="cls-2" x1="41.65" y1="245.41" x2="42.4" y2="275.35"/>
    <line class="cls-2" x1="45.39" y1="245.41" x2="61.86" y2="245.41"/>
    <line class="cls-2" x1="31.68" y1="252.08" x2="49.22" y2="234.55"/>
    <line class="cls-2" x1="43.2" y1="245.51" x2="52.14" y2="236.01"/>
    <g>
      <circle class="cls-1" cx="42.5" cy="245.27" r="5.8"/>
      <path class="cls-9" d="M42.83,242.88v5.05h-.65v-5.05h.65Z"/>
    </g>
    <g>
      <circle class="cls-1" cx="31.79" cy="251.58" r="5.8"/>
      <path class="cls-9" d="M30.89,252.65l-.52,1.59h-.67l1.72-5.05h.79l1.72,5.05h-.7l-.54-1.59h-1.79ZM32.54,252.14l-.5-1.45c-.11-.33-.19-.63-.26-.92h-.01c-.08.3-.16.61-.25.91l-.5,1.46h1.52Z"/>
    </g>
    <path d="M58.08,276.77c-.22.07-.5.19-.79.24-.62.12-1.04-.18-.93-.8.11-.62.42-1.21.65-1.82.04-.1.11-.19.17-.28.9-1.42.85-1.64-.61-2.65-11.21,9.41-26.45,4.62-32.82-4.77-6.38-9.41-4.85-22.08,3.82-29.79,8.33-7.41,21.12-7.4,29.56-.08,8.54,7.39,11.19,21.6,2.22,31.88.44.4.86.84,1.34,1.2.14.1.48.06.65-.03.7-.39,1.36-.85,2.08-1.22.41-.22.92-.43,1.34-.02.44.42.13.89-.02,1.33-.04.12-.1.24-.15.35,2.44,1.28,4.22,3.34,6.28,5.05,2.08,1.72,4.09,3.53,6.13,5.3,1.58,1.37,3.13,2.78,4.75,4.09.91.74,1.24,1.61,1.02,2.7-.83,4.11-3.99,6.97-7.73,7.5-.84.12-1.55-.15-2.15-.83-4.54-5.23-9.1-10.45-13.64-15.68-.43-.5-.75-1.1-1.16-1.69ZM22.91,253.75c.02,10.92,8.7,19.68,19.47,19.67,10.69-.01,19.61-8.78,19.49-19.36-.13-12.4-10.1-19.79-19.53-19.69-10.66.11-19.46,8.81-19.44,19.38ZM60.21,276.48c1.33,1.56,2.63,3.08,3.93,4.61,3.39,3.98,6.78,7.96,10.17,11.94.15.17.46.42.59.37.84-.32,1.64-.72,2.58-1.14-.31-.33-.47-.5-.63-.67-5.11-5.06-10.22-10.11-15.33-15.17-.59-.59-.61-.59-1.3.06ZM59.17,273.74c-.57.41-1.11.79-1.65,1.17.65.74,1.07.62,2.07-.55-.12-.18-.25-.38-.42-.62Z"/>
    <path d="M34.34,269.44c15.47,4.35,27.94-10.05,23.73-23.25,2.42,3.91,3.33,12.39-2.15,18.92-6.15,7.33-15.68,7.73-21.57,4.32Z"/>
  </g>
  <g>
    <g>
      <line class="cls-3" x1="206" y1="209.5" x2="313.66" y2="209.5"/>
      <polygon class="cls-10" points="309.52 223.63 334 209.5 309.52 195.37 309.52 223.63"/>
    </g>
    <g>
      <rect class="cls-4" x="210.04" y="200.57" width="94.96" height="17.93"/>
      <path class="cls-1" d="M240.65,200.89h.78v2.93h.03c.16-.23.32-.45.48-.65l1.85-2.28h.97l-2.2,2.58,2.37,3.49h-.93l-2-2.98-.58.67v2.31h-.78v-6.07Z"/>
      <path class="cls-1" d="M245.94,204.92c.02,1.07.7,1.51,1.49,1.51.57,0,.91-.1,1.21-.22l.14.57c-.28.13-.76.27-1.45.27-1.34,0-2.14-.88-2.14-2.2s.77-2.35,2.04-2.35c1.42,0,1.8,1.25,1.8,2.05,0,.16-.02.29-.03.37h-3.06ZM248.26,204.35c0-.5-.21-1.29-1.1-1.29-.8,0-1.15.74-1.21,1.29h2.31Z"/>
      <path class="cls-1" d="M250.45,204.92c.02,1.07.7,1.51,1.49,1.51.57,0,.91-.1,1.21-.22l.14.57c-.28.13-.76.27-1.45.27-1.34,0-2.14-.88-2.14-2.2s.77-2.35,2.04-2.35c1.42,0,1.8,1.25,1.8,2.05,0,.16-.02.29-.03.37h-3.06ZM252.77,204.35c0-.5-.21-1.29-1.1-1.29-.8,0-1.15.74-1.21,1.29h2.31Z"/>
      <path class="cls-1" d="M254.52,204.02c0-.56-.02-1.01-.04-1.42h.71l.04.75h.02c.32-.53.84-.85,1.55-.85,1.05,0,1.85.89,1.85,2.21,0,1.57-.95,2.34-1.98,2.34-.58,0-1.08-.25-1.34-.68h-.02v2.37h-.78v-4.72ZM255.3,205.18c0,.12.02.23.04.32.14.55.62.93,1.19.93.84,0,1.32-.68,1.32-1.68,0-.87-.46-1.62-1.3-1.62-.54,0-1.04.39-1.2.98-.03.1-.05.21-.05.32v.75Z"/>
      <path class="cls-1" d="M261.63,206.96v-3.75h-.61v-.6h.61v-.23c0-1.15.67-1.9,1.9-1.9.41,0,.88.13,1.11.29l-.22.6c-.19-.13-.53-.25-.92-.25-.84,0-1.08.59-1.08,1.28v.21h2.53v4.36h-.78v-3.75h-1.75v3.75h-.78Z"/>
      <path class="cls-1" d="M266.25,203.96c0-.51,0-.95-.04-1.36h.69l.03.86h.04c.2-.58.68-.95,1.21-.95.09,0,.15,0,.22.03v.75c-.08-.02-.16-.03-.27-.03-.56,0-.95.42-1.06,1.02-.02.11-.04.23-.04.37v2.32h-.78v-3Z"/>
      <path class="cls-1" d="M269.09,206.15c.23.15.65.32,1.04.32.58,0,.85-.29.85-.65,0-.38-.22-.59-.81-.8-.78-.28-1.15-.71-1.15-1.23,0-.7.57-1.28,1.5-1.28.44,0,.83.13,1.07.27l-.2.58c-.17-.11-.49-.25-.89-.25-.47,0-.73.27-.73.59,0,.36.26.52.83.74.76.29,1.14.67,1.14,1.31,0,.77-.59,1.3-1.63,1.3-.48,0-.92-.12-1.22-.3l.2-.6Z"/>
      <path class="cls-1" d="M273.71,201.35v1.25h1.13v.6h-1.13v2.35c0,.54.15.85.59.85.21,0,.36-.03.46-.05l.04.59c-.15.06-.4.11-.7.11-.37,0-.67-.12-.86-.33-.23-.23-.31-.62-.31-1.13v-2.38h-.67v-.6h.67v-1.04l.77-.21Z"/>
    </g>
  </g>
</svg>