<?xml version="1.0" encoding="UTF-8"?>
<svg id="Solid" xmlns="http://www.w3.org/2000/svg" viewBox="0 0 522 216.23">
  <defs>
    <style>
      .cls-1 {
        fill: #231f20;
      }

      .cls-2 {
        fill: #6dbae7;
        opacity: .31;
      }

      .cls-3, .cls-4 {
        fill: #fff;
      }

      .cls-5 {
        stroke: #9b9a9a;
      }

      .cls-5, .cls-6, .cls-7, .cls-8, .cls-9 {
        fill: none;
      }

      .cls-5, .cls-7, .cls-8, .cls-9 {
        stroke-miterlimit: 10;
        stroke-width: 2.83px;
      }

      .cls-10 {
        fill: #9b9a9a;
      }

      .cls-7, .cls-8, .cls-9 {
        stroke: #437898;
      }

      .cls-8 {
        stroke-dasharray: 3;
      }

      .cls-4, .cls-11 {
        opacity: .74;
      }

      .cls-12 {
        fill: #010101;
      }

      .cls-9 {
        stroke-dasharray: 5.67;
      }

      .cls-11 {
        fill: #437898;
      }
    </style>
  </defs>
  <g>
    <g>
      <line class="cls-5" x1="204" y1="111.5" x2="311.66" y2="111.5"/>
      <polygon class="cls-10" points="307.52 125.63 332 111.5 307.52 97.37 307.52 125.63"/>
    </g>
    <g>
      <rect class="cls-6" x="208.04" y="102.57" width="94.96" height="17.93"/>
      <path class="cls-1" d="M228.68,102.89h3.27v.66h-2.48v2.02h2.29v.65h-2.29v2.75h-.78v-6.07Z"/>
      <path class="cls-1" d="M232.88,102.56h.79v6.39h-.79v-6.39Z"/>
      <path class="cls-1" d="M235.89,103.37c0,.27-.19.49-.5.49-.28,0-.48-.21-.48-.49s.21-.5.5-.5.49.22.49.5ZM235.01,108.96v-4.36h.79v4.36h-.79Z"/>
      <path class="cls-1" d="M237.11,106.02c0-.56-.02-1.01-.04-1.42h.71l.04.75h.02c.32-.53.84-.85,1.55-.85,1.05,0,1.85.89,1.85,2.21,0,1.57-.95,2.34-1.98,2.34-.58,0-1.08-.25-1.34-.68h-.02v2.37h-.78v-4.72ZM237.9,107.18c0,.12.02.23.04.32.14.55.62.93,1.19.93.84,0,1.32-.68,1.32-1.68,0-.87-.46-1.62-1.3-1.62-.54,0-1.04.39-1.2.98-.03.1-.05.21-.05.32v.75Z"/>
      <path class="cls-1" d="M248.08,106.74c0,1.61-1.12,2.31-2.17,2.31-1.18,0-2.09-.86-2.09-2.24,0-1.46.96-2.31,2.16-2.31s2.1.91,2.1,2.24ZM244.63,106.79c0,.95.55,1.67,1.32,1.67s1.32-.71,1.32-1.69c0-.74-.37-1.67-1.31-1.67s-1.34.86-1.34,1.69Z"/>
      <path class="cls-1" d="M249.08,105.96c0-.51,0-.95-.04-1.36h.69l.03.86h.04c.2-.58.68-.95,1.21-.95.09,0,.15,0,.22.03v.75c-.08-.02-.16-.03-.27-.03-.56,0-.96.42-1.06,1.02-.02.11-.04.23-.04.37v2.32h-.78v-3Z"/>
      <path class="cls-1" d="M252.38,106.92c.02,1.07.7,1.51,1.49,1.51.57,0,.91-.1,1.21-.22l.14.57c-.28.13-.76.27-1.45.27-1.34,0-2.14-.88-2.14-2.2s.77-2.35,2.04-2.35c1.42,0,1.8,1.25,1.8,2.05,0,.16-.02.29-.03.37h-3.06ZM254.7,106.35c0-.5-.21-1.29-1.1-1.29-.8,0-1.15.74-1.21,1.29h2.31Z"/>
      <path class="cls-1" d="M256.45,105.78c0-.45,0-.82-.04-1.18h.7l.04.72h.02c.22-.41.72-.82,1.44-.82.6,0,1.54.36,1.54,1.85v2.6h-.79v-2.51c0-.7-.26-1.29-1.01-1.29-.52,0-.93.37-1.06.81-.04.1-.05.23-.05.37v2.62h-.79v-3.18Z"/>
      <path class="cls-1" d="M262.36,103.35v1.25h1.13v.6h-1.13v2.35c0,.54.15.85.59.85.21,0,.36-.03.46-.05l.04.59c-.15.06-.4.11-.7.11-.37,0-.67-.12-.86-.33-.23-.23-.31-.62-.31-1.13v-2.38h-.67v-.6h.67v-1.04l.77-.21Z"/>
      <path class="cls-1" d="M266.8,108.96l-.06-.55h-.03c-.24.34-.71.65-1.33.65-.88,0-1.33-.62-1.33-1.25,0-1.05.94-1.63,2.62-1.62v-.09c0-.36-.1-1.01-.99-1.01-.41,0-.83.13-1.13.32l-.18-.52c.36-.23.88-.39,1.43-.39,1.33,0,1.66.91,1.66,1.78v1.63c0,.38.02.75.07,1.04h-.72ZM266.68,106.73c-.86-.02-1.85.13-1.85.98,0,.51.34.76.75.76.57,0,.93-.36,1.05-.73.03-.08.04-.17.04-.25v-.76Z"/>
      <path class="cls-1" d="M269.64,103.35v1.25h1.13v.6h-1.13v2.35c0,.54.15.85.59.85.21,0,.36-.03.46-.05l.04.59c-.15.06-.4.11-.7.11-.37,0-.67-.12-.86-.33-.23-.23-.31-.62-.31-1.13v-2.38h-.67v-.6h.67v-1.04l.77-.21Z"/>
      <path class="cls-1" d="M272.55,103.37c0,.27-.19.49-.5.49-.28,0-.48-.21-.48-.49s.21-.5.5-.5.49.22.49.5ZM271.66,108.96v-4.36h.79v4.36h-.79Z"/>
      <path class="cls-1" d="M277.71,106.74c0,1.61-1.12,2.31-2.17,2.31-1.18,0-2.09-.86-2.09-2.24,0-1.46.95-2.31,2.16-2.31s2.1.91,2.1,2.24ZM274.26,106.79c0,.95.55,1.67,1.32,1.67s1.32-.71,1.32-1.69c0-.74-.37-1.67-1.31-1.67s-1.34.86-1.34,1.69Z"/>
      <path class="cls-1" d="M278.71,105.78c0-.45,0-.82-.04-1.18h.7l.04.72h.02c.22-.41.72-.82,1.44-.82.6,0,1.54.36,1.54,1.85v2.6h-.79v-2.51c0-.7-.26-1.29-1.01-1.29-.52,0-.93.37-1.06.81-.04.1-.05.23-.05.37v2.62h-.79v-3.18Z"/>
    </g>
  </g>
  <g>
    <rect class="cls-2" x="56.75" y="32.08" width="124" height="115"/>
    <polyline class="cls-2" points="54.75 32.08 54.75 32.08 56.25 147.58 33.8 180.23 35.25 62.58 56.75 32.08"/>
    <line class="cls-7" x1="181.25" y1="32.58" x2="56.25" y2="32.58"/>
    <line class="cls-7" x1="158.25" y1="62.58" x2="181.25" y2="32.58"/>
    <line class="cls-7" x1="162.25" y1="182.58" x2="182.25" y2="148.58"/>
    <line class="cls-7" x1="181.25" y1="32.58" x2="181.25" y2="148.58"/>
    <line class="cls-9" x1="56.25" y1="32.58" x2="56.25" y2="147.58"/>
    <line class="cls-7" x1="35.01" y1="62.03" x2="58.01" y2="32.03"/>
    <line class="cls-9" x1="181.25" y1="147.58" x2="54.25" y2="147.58"/>
    <polyline class="cls-9" points="56.25 147.58 36.25 178.58 56.25 147.58"/>
    <polygon class="cls-2" points="56.25 32.58 36.34 62.15 159.88 62.9 181.51 31.54 56.25 32.58"/>
    <polyline class="cls-2" points="34.88 179.9 56.25 147.58 181.25 148.58 161.25 179.58"/>
    <polygon class="cls-2" points="159.88 62.9 180.47 33.51 179.42 151.1 159.26 180.12 159.88 62.9"/>
    <g>
      <circle class="cls-1" cx="56" cy="31.33" r="7.75"/>
      <path class="cls-3" d="M57.79,31.73h-2.62v2.43h2.92v.73h-3.79v-6.74h3.64v.73h-2.77v2.13h2.62v.72Z"/>
    </g>
    <g>
      <circle class="cls-1" cx="180.88" cy="147.9" r="7.75"/>
      <path class="cls-3" d="M179.42,145.03v2.54h2.93v-2.54h.79v6.07h-.79v-2.84h-2.93v2.84h-.78v-6.07h.78Z"/>
    </g>
    <g>
      <circle class="cls-1" cx="54.88" cy="147.9" r="7.75"/>
      <path class="cls-3" d="M53.21,144.72h3.63v.73h-2.76v2.24h2.55v.72h-2.55v3.05h-.87v-6.74Z"/>
    </g>
    <g>
      <circle class="cls-1" cx="179.88" cy="30.9" r="7.75"/>
      <path class="cls-3" d="M182.28,33.83c-.35.13-1.04.33-1.86.33-.92,0-1.67-.23-2.27-.8-.52-.5-.85-1.31-.85-2.26,0-1.81,1.25-3.13,3.29-3.13.7,0,1.25.15,1.51.28l-.19.64c-.32-.14-.73-.26-1.34-.26-1.48,0-2.44.92-2.44,2.44s.93,2.45,2.34,2.45c.51,0,.86-.07,1.04-.16v-1.81h-1.23v-.63h2v2.92Z"/>
    </g>
    <g>
      <line class="cls-9" x1="89.59" y1="72.89" x2="89.59" y2="106.97"/>
      <line class="cls-9" x1="126.63" y1="106.97" x2="89" y2="106.97"/>
      <polyline class="cls-8" points="89.59 106.97 83.66 116.16 89.59 106.97"/>
      <circle class="cls-1" cx="90.03" cy="106.87" r="3.72"/>
      <polygon class="cls-11" points="89.59 72.89 83.3 81.62 83.37 117.87 121 117.34 126.93 107.27 126.63 72.89 89.59 72.89"/>
      <line class="cls-7" x1="126.63" y1="72.89" x2="126.63" y2="107.27"/>
      <line class="cls-7" x1="121" y1="117.34" x2="126.93" y2="107.27"/>
      <line class="cls-7" x1="119.82" y1="81.78" x2="126.63" y2="72.89"/>
      <line class="cls-7" x1="126.63" y1="72.89" x2="89.59" y2="72.89"/>
      <line class="cls-7" x1="83.3" y1="81.62" x2="90.11" y2="72.73"/>
      <rect class="cls-7" x="83.37" y="81.78" width="37.34" height="34.67"/>
      <circle class="cls-1" cx="89.53" cy="72.63" r="3.72"/>
      <circle class="cls-1" cx="128.03" cy="106.87" r="3.72"/>
      <circle class="cls-1" cx="120.03" cy="116.87" r="3.72"/>
      <circle class="cls-1" cx="83.03" cy="117.87" r="3.72"/>
      <circle class="cls-1" cx="121.03" cy="82.87" r="3.72"/>
      <circle class="cls-1" cx="82.03" cy="81.87" r="3.72"/>
      <circle class="cls-1" cx="127.03" cy="72.87" r="3.72"/>
    </g>
    <rect class="cls-2" x="36.75" y="64.08" width="124" height="115"/>
    <rect class="cls-7" x="35.25" y="62.58" width="126" height="117"/>
    <g>
      <circle class="cls-1" cx="36" cy="63.33" r="7.75"/>
      <path class="cls-3" d="M34.79,64.77l-.7,2.12h-.9l2.29-6.74h1.05l2.3,6.74h-.93l-.72-2.12h-2.39ZM37,64.09l-.66-1.94c-.15-.44-.25-.84-.35-1.23h-.02c-.1.4-.21.81-.34,1.22l-.66,1.95h2.03Z"/>
    </g>
    <g>
      <circle class="cls-1" cx="160.88" cy="179.9" r="7.75"/>
      <path class="cls-3" d="M163.45,183.23c-.32.16-.96.32-1.78.32-1.9,0-3.33-1.2-3.33-3.41s1.43-3.54,3.52-3.54c.84,0,1.37.18,1.6.3l-.21.71c-.33-.16-.8-.28-1.36-.28-1.58,0-2.63,1.01-2.63,2.78,0,1.65.95,2.71,2.59,2.71.53,0,1.07-.11,1.42-.28l.18.69Z"/>
    </g>
    <g>
      <circle class="cls-1" cx="34.88" cy="179.9" r="7.75"/>
      <path class="cls-3" d="M32.93,176.81c.38-.08.98-.14,1.59-.14.87,0,1.43.15,1.85.49.35.26.56.66.56,1.19,0,.65-.43,1.22-1.14,1.48v.02c.64.16,1.39.69,1.39,1.69,0,.58-.23,1.02-.57,1.35-.47.43-1.23.63-2.33.63-.6,0-1.06-.04-1.35-.08v-6.63ZM33.8,179.57h.79c.92,0,1.46-.48,1.46-1.13,0-.79-.6-1.1-1.48-1.1-.4,0-.63.03-.77.06v2.17ZM33.8,182.79c.17.03.42.04.73.04.9,0,1.73-.33,1.73-1.31,0-.92-.79-1.3-1.74-1.3h-.72v2.57Z"/>
    </g>
    <g>
      <circle class="cls-1" cx="159.88" cy="62.9" r="7.75"/>
      <path class="cls-3" d="M157.57,60.11c.48-.07,1.04-.13,1.67-.13,1.12,0,1.93.26,2.46.76.54.5.85,1.2.85,2.18s-.31,1.8-.87,2.36c-.57.57-1.5.87-2.68.87-.56,0-1.03-.03-1.42-.07v-5.97ZM158.35,65.48c.2.04.49.04.79.04,1.67,0,2.58-.94,2.58-2.58,0-1.43-.8-2.34-2.46-2.34-.41,0-.71.04-.92.08v4.79Z"/>
    </g>
  </g>
  <g>
    <rect class="cls-2" x="369.98" y="28.6" width="124" height="115"/>
    <polyline class="cls-2" points="367.98 28.6 367.98 28.6 369.48 144.1 347.03 176.75 348.48 59.1 369.98 28.6"/>
    <line class="cls-7" x1="494.48" y1="29.1" x2="369.48" y2="29.1"/>
    <line class="cls-7" x1="471.48" y1="59.1" x2="494.48" y2="29.1"/>
    <line class="cls-7" x1="475.48" y1="179.1" x2="495.48" y2="145.1"/>
    <line class="cls-7" x1="494.48" y1="29.1" x2="494.48" y2="145.1"/>
    <line class="cls-9" x1="369.48" y1="29.1" x2="369.48" y2="144.1"/>
    <line class="cls-7" x1="348.24" y1="58.55" x2="371.24" y2="28.55"/>
    <line class="cls-9" x1="494.48" y1="144.1" x2="367.48" y2="144.1"/>
    <polyline class="cls-9" points="369.48 144.1 349.48 175.1 369.48 144.1"/>
    <polygon class="cls-2" points="369.48 29.1 349.57 58.67 473.11 59.42 494.74 28.06 369.48 29.1"/>
    <polyline class="cls-2" points="348.11 176.42 369.48 144.1 494.48 145.1 474.48 176.1"/>
    <polygon class="cls-2" points="473.11 59.42 493.7 30.03 492.65 147.62 472.49 176.64 473.11 59.42"/>
    <g>
      <circle class="cls-1" cx="369.23" cy="27.85" r="7.75"/>
      <path class="cls-3" d="M371.02,28.25h-2.62v2.43h2.92v.73h-3.79v-6.74h3.64v.73h-2.77v2.13h2.62v.72Z"/>
    </g>
    <g>
      <circle class="cls-1" cx="494.11" cy="144.42" r="7.75"/>
      <path class="cls-3" d="M492.65,141.55v2.54h2.94v-2.54h.79v6.07h-.79v-2.84h-2.94v2.84h-.78v-6.07h.78Z"/>
    </g>
    <g>
      <circle class="cls-1" cx="368.11" cy="144.42" r="7.75"/>
      <path class="cls-3" d="M366.44,141.24h3.63v.73h-2.76v2.24h2.55v.72h-2.55v3.05h-.87v-6.74Z"/>
    </g>
    <g>
      <circle class="cls-1" cx="493.11" cy="27.42" r="7.75"/>
      <path class="cls-3" d="M495.51,30.35c-.35.13-1.04.33-1.86.33-.92,0-1.67-.23-2.27-.8-.52-.5-.85-1.31-.85-2.26,0-1.81,1.25-3.13,3.29-3.13.7,0,1.25.15,1.51.28l-.19.64c-.32-.14-.73-.26-1.34-.26-1.48,0-2.44.92-2.44,2.44s.93,2.45,2.34,2.45c.51,0,.86-.07,1.04-.16v-1.81h-1.23v-.63h2v2.92Z"/>
    </g>
    <g>
      <line class="cls-9" x1="402.82" y1="69.41" x2="402.82" y2="103.49"/>
      <line class="cls-9" x1="439.86" y1="103.49" x2="402.23" y2="103.49"/>
      <polyline class="cls-8" points="402.82 103.49 396.89 112.68 402.82 103.49"/>
      <circle class="cls-1" cx="403.27" cy="103.39" r="3.72"/>
      <polygon class="cls-4" points="402.82 69.41 396.53 78.14 396.6 114.39 434.23 113.86 440.16 103.79 439.86 69.41 402.82 69.41"/>
      <line class="cls-7" x1="439.86" y1="69.41" x2="439.86" y2="103.79"/>
      <line class="cls-7" x1="434.23" y1="113.86" x2="440.16" y2="103.79"/>
      <line class="cls-7" x1="433.05" y1="78.3" x2="439.86" y2="69.41"/>
      <line class="cls-7" x1="439.86" y1="69.41" x2="402.82" y2="69.41"/>
      <line class="cls-7" x1="396.53" y1="78.14" x2="403.34" y2="69.25"/>
      <rect class="cls-7" x="396.6" y="78.3" width="37.34" height="34.67"/>
      <circle class="cls-1" cx="402.76" cy="69.15" r="3.72"/>
      <circle class="cls-1" cx="441.27" cy="103.39" r="3.72"/>
      <circle class="cls-1" cx="433.27" cy="113.39" r="3.72"/>
      <circle class="cls-1" cx="396.27" cy="114.39" r="3.72"/>
      <circle class="cls-1" cx="434.27" cy="79.39" r="3.72"/>
      <circle class="cls-1" cx="395.27" cy="78.39" r="3.72"/>
      <circle class="cls-1" cx="440.27" cy="69.39" r="3.72"/>
    </g>
    <rect class="cls-2" x="349.98" y="60.6" width="124" height="115"/>
    <rect class="cls-7" x="348.48" y="59.1" width="126" height="117"/>
    <g>
      <circle class="cls-1" cx="349.23" cy="59.85" r="7.75"/>
      <path class="cls-3" d="M348.02,61.29l-.7,2.12h-.9l2.29-6.74h1.05l2.3,6.74h-.93l-.72-2.12h-2.39ZM350.23,60.61l-.66-1.94c-.15-.44-.25-.84-.35-1.23h-.02c-.1.4-.21.81-.34,1.22l-.66,1.95h2.03Z"/>
    </g>
    <g>
      <circle class="cls-1" cx="474.11" cy="176.42" r="7.75"/>
      <path class="cls-3" d="M476.68,179.75c-.32.16-.96.32-1.78.32-1.9,0-3.33-1.2-3.33-3.41s1.43-3.54,3.52-3.54c.84,0,1.37.18,1.6.3l-.21.71c-.33-.16-.8-.28-1.36-.28-1.58,0-2.63,1.01-2.63,2.78,0,1.65.95,2.71,2.59,2.71.53,0,1.07-.11,1.42-.28l.18.69Z"/>
    </g>
    <g>
      <circle class="cls-1" cx="348.11" cy="176.42" r="7.75"/>
      <path class="cls-3" d="M346.16,173.33c.38-.08.98-.14,1.59-.14.87,0,1.43.15,1.85.49.35.26.56.66.56,1.19,0,.65-.43,1.22-1.14,1.48v.02c.64.16,1.39.69,1.39,1.69,0,.58-.23,1.02-.57,1.35-.47.43-1.23.63-2.33.63-.6,0-1.06-.04-1.35-.08v-6.63ZM347.03,176.09h.79c.92,0,1.46-.48,1.46-1.13,0-.79-.6-1.1-1.48-1.1-.4,0-.63.03-.77.06v2.17ZM347.03,179.31c.17.03.42.04.73.04.9,0,1.73-.33,1.73-1.31,0-.92-.79-1.3-1.74-1.3h-.72v2.57Z"/>
    </g>
    <g>
      <circle class="cls-1" cx="473.11" cy="59.42" r="7.75"/>
      <path class="cls-3" d="M470.8,56.63c.48-.07,1.04-.13,1.67-.13,1.13,0,1.93.26,2.46.76.54.5.86,1.2.86,2.18s-.31,1.8-.87,2.36c-.57.57-1.5.87-2.68.87-.56,0-1.03-.03-1.42-.07v-5.97ZM471.58,62c.2.04.49.04.79.04,1.67,0,2.58-.94,2.58-2.58,0-1.43-.8-2.34-2.46-2.34-.41,0-.71.04-.92.08v4.79Z"/>
    </g>
  </g>
  <path class="cls-12" d="M402.58,99.17c.17.21.46.21.63,0l3.76-4.6c.17-.21.09-.39-.18-.4h-1.99c-.28,0-.46-.21-.4-.48,1.03-4.67,5.19-8.18,10.17-8.18,5.74,0,10.41,4.67,10.41,10.41s-4.67,10.41-10.41,10.41c-.69,0-1.25.56-1.25,1.25s.56,1.25,1.25,1.25c7.11,0,12.9-5.79,12.9-12.9s-5.79-12.9-12.9-12.9c-6.35,0-11.64,4.61-12.7,10.67-.05.27-.3.49-.58.52h-2.26c-.28-.03-.36.15-.18.36l3.76,4.6Z"/>
  <path class="cls-12" d="M111.05,103.78c-.16.2-.42.2-.58,0l-3.43-4.33c-.16-.2-.08-.36.17-.37h1.82c.25,0,.42-.2.37-.45-.94-4.4-4.74-7.71-9.28-7.71-5.24,0-9.5,4.4-9.5,9.82s4.26,9.82,9.5,9.82c.63,0,1.14.53,1.14,1.18s-.51,1.18-1.14,1.18c-6.49,0-11.78-5.46-11.78-12.17s5.28-12.17,11.78-12.17c5.8,0,10.63,4.35,11.59,10.06.04.26.27.46.52.49h2.07c.25-.03.33.14.17.34l-3.43,4.33Z"/>
</svg>