<?xml version="1.0" encoding="UTF-8"?>
<svg id="Shell" xmlns="http://www.w3.org/2000/svg" viewBox="0 0 639 736">
  <defs>
    <style>
      .cls-1 {
        fill: #c92027;
      }

      .cls-2 {
        fill: #231f20;
      }

      .cls-3 {
        fill: #6dbae7;
        opacity: .31;
      }

      .cls-4 {
        fill: #fff;
      }

      .cls-5 {
        stroke: #9b9a9a;
      }

      .cls-5, .cls-6, .cls-7, .cls-8, .cls-9, .cls-10 {
        fill: none;
      }

      .cls-5, .cls-7, .cls-8, .cls-9, .cls-10 {
        stroke-miterlimit: 10;
      }

      .cls-5, .cls-7, .cls-9 {
        stroke-width: 2.83px;
      }

      .cls-11 {
        fill: #9b9a9a;
      }

      .cls-7, .cls-8, .cls-9 {
        stroke: #437898;
      }

      .cls-8 {
        stroke-width: 2.83px;
      }

      .cls-8, .cls-9 {
        stroke-dasharray: 5.67;
      }

      .cls-10 {
        stroke: #c92027;
        stroke-width: 2px;
      }
    </style>
  </defs>
  <g>
    <polyline class="cls-3" points="83.64 43.1 116.91 125.13 81.53 158.92 166.65 146.46 121.65 126.87 169.89 117.96 194.44 143.33 188.44 91.33 169.61 113.98 81.43 43.78"/>
    <polyline class="cls-3" points="123.15 23.96 150.65 47.46 216.63 61.83 195.61 37 154.19 46.67 162.14 20.85"/>
    <line class="cls-7" x1="216.89" y1="64.6" x2="198.89" y2="40.6"/>
    <line class="cls-7" x1="123.15" y1="23.96" x2="151.15" y2="47.96"/>
    <line class="cls-7" x1="163.65" y1="19.46" x2="122.65" y2="23.46"/>
    <line class="cls-7" x1="150.65" y1="47.46" x2="164.65" y2="18.46"/>
    <line class="cls-7" x1="195.65" y1="37.46" x2="150.65" y2="47.46"/>
    <line class="cls-7" x1="216.65" y1="61.46" x2="150.65" y2="47.46"/>
    <line class="cls-7" x1="188.65" y1="91.46" x2="169.65" y2="117.46"/>
    <line class="cls-7" x1="196.65" y1="144.46" x2="188.65" y2="91.46"/>
    <line class="cls-7" x1="169.65" y1="117.46" x2="196.65" y2="144.46"/>
    <line class="cls-7" x1="166.65" y1="146.46" x2="116.65" y2="125.46"/>
    <line class="cls-7" x1="79.65" y1="162.46" x2="163.65" y2="145.46"/>
    <line class="cls-7" x1="118.65" y1="124.46" x2="79.65" y2="162.46"/>
    <line class="cls-7" x1="81.65" y1="43.46" x2="169.65" y2="116.46"/>
    <line class="cls-7" x1="116.65" y1="125.46" x2="81.65" y2="43.46"/>
    <line class="cls-7" x1="169.65" y1="117.46" x2="118.65" y2="127.46"/>
    <g>
      <circle class="cls-2" cx="82.64" cy="42.35" r="7.75"/>
      <path class="cls-4" d="M81.43,43.78l-.7,2.12h-.9l2.29-6.74h1.05l2.3,6.74h-.93l-.72-2.12h-2.39ZM83.64,43.1l-.66-1.94c-.15-.44-.25-.84-.35-1.23h-.02c-.1.4-.21.81-.34,1.22l-.66,1.95h2.03Z"/>
    </g>
    <g>
      <circle class="cls-2" cx="118.53" cy="124.92" r="7.75"/>
      <path class="cls-4" d="M121.09,128.25c-.32.16-.96.32-1.78.32-1.9,0-3.33-1.2-3.33-3.41s1.43-3.54,3.52-3.54c.84,0,1.37.18,1.6.3l-.21.71c-.33-.16-.8-.28-1.36-.28-1.58,0-2.63,1.01-2.63,2.78,0,1.65.95,2.71,2.59,2.71.53,0,1.07-.11,1.42-.28l.18.69Z"/>
    </g>
    <g>
      <circle class="cls-2" cx="81.53" cy="158.92" r="7.75"/>
      <path class="cls-4" d="M79.58,155.82c.38-.08.98-.14,1.59-.14.87,0,1.43.15,1.85.49.35.26.56.66.56,1.19,0,.65-.43,1.22-1.14,1.48v.02c.64.16,1.39.69,1.39,1.69,0,.58-.23,1.02-.57,1.35-.47.43-1.23.63-2.33.63-.6,0-1.06-.04-1.35-.08v-6.63ZM80.45,158.58h.79c.92,0,1.46-.48,1.46-1.13,0-.79-.6-1.1-1.48-1.1-.4,0-.63.03-.77.06v2.17ZM80.45,161.81c.17.03.42.04.73.04.9,0,1.73-.33,1.73-1.31,0-.92-.79-1.3-1.74-1.3h-.72v2.57Z"/>
    </g>
    <g>
      <circle class="cls-2" cx="151.53" cy="47.92" r="7.75"/>
      <path class="cls-4" d="M149.21,45.13c.48-.07,1.04-.13,1.67-.13,1.12,0,1.93.26,2.46.76.54.5.85,1.2.85,2.18s-.31,1.8-.87,2.36c-.57.57-1.5.87-2.68.87-.56,0-1.03-.03-1.42-.07v-5.97ZM150,50.49c.2.04.49.04.79.04,1.67,0,2.58-.94,2.58-2.57,0-1.43-.8-2.34-2.46-2.34-.41,0-.71.04-.92.08v4.79Z"/>
    </g>
    <g>
      <circle class="cls-2" cx="188.44" cy="91.33" r="7.75"/>
      <path class="cls-4" d="M191.1,94.58c-.39.14-1.16.37-2.07.37-1.02,0-1.86-.26-2.52-.89-.58-.56-.94-1.46-.94-2.51,0-2.01,1.39-3.48,3.65-3.48.78,0,1.39.17,1.68.31l-.21.71c-.36-.16-.81-.29-1.49-.29-1.64,0-2.71,1.02-2.71,2.71s1.03,2.72,2.6,2.72c.57,0,.96-.08,1.16-.18v-2.01h-1.37v-.7h2.22v3.24Z"/>
    </g>
    <g>
      <circle class="cls-2" cx="194.44" cy="143.33" r="7.75"/>
      <path class="cls-4" d="M194.83,140.46v6.07h-.78v-6.07h.78Z"/>
    </g>
    <g>
      <circle class="cls-2" cx="217.44" cy="61.33" r="7.75"/>
      <path class="cls-4" d="M215.76,58.15h3.63v.73h-2.76v2.24h2.55v.72h-2.55v3.05h-.87v-6.74Z"/>
    </g>
    <g>
      <circle class="cls-2" cx="196.44" cy="37.33" r="7.75"/>
      <path class="cls-4" d="M198.23,37.72h-2.62v2.43h2.92v.73h-3.79v-6.74h3.64v.73h-2.77v2.13h2.62v.72Z"/>
    </g>
    <g>
      <circle class="cls-2" cx="162.14" cy="20.85" r="7.75"/>
      <path class="cls-4" d="M160.7,17.98h.78v5.41h2.59v.66h-3.38v-6.07Z"/>
    </g>
    <g>
      <circle class="cls-2" cx="123.14" cy="23.85" r="7.75"/>
      <path class="cls-4" d="M121.39,20.98h.78v2.93h.03c.16-.23.32-.45.48-.65l1.85-2.28h.97l-2.2,2.57,2.37,3.49h-.93l-2-2.98-.58.67v2.31h-.78v-6.07Z"/>
    </g>
    <g>
      <circle class="cls-2" cx="166.14" cy="144.85" r="7.75"/>
      <path class="cls-4" d="M166.41,141.98h.78v4.06c0,1.61-.79,2.11-1.84,2.11-.29,0-.64-.06-.84-.14l.12-.64c.16.06.4.12.66.12.7,0,1.12-.31,1.12-1.5v-4Z"/>
    </g>
    <g>
      <circle class="cls-2" cx="168.14" cy="116.85" r="7.75"/>
      <path class="cls-4" d="M166.68,113.98v2.54h2.94v-2.54h.79v6.07h-.79v-2.84h-2.94v2.84h-.78v-6.07h.78Z"/>
    </g>
  </g>
  <g>
    <g>
      <line class="cls-5" x1="248.15" y1="88.46" x2="355.81" y2="88.46"/>
      <polygon class="cls-11" points="351.67 102.59 376.15 88.46 351.67 74.32 351.67 102.59"/>
    </g>
    <g>
      <rect class="cls-6" x="252.19" y="79.52" width="94.96" height="17.93"/>
      <path class="cls-2" d="M279.6,84.01l-.63,1.91h-.81l2.06-6.07h.95l2.07,6.07h-.84l-.65-1.91h-2.15ZM281.59,83.39l-.59-1.75c-.13-.4-.22-.76-.31-1.11h-.02c-.09.36-.19.73-.31,1.1l-.59,1.76h1.83Z"/>
      <path class="cls-2" d="M284.07,79.52h.79v6.39h-.79v-6.39Z"/>
      <path class="cls-2" d="M286.2,82.98c0-.56-.02-1.01-.04-1.42h.71l.04.75h.02c.32-.53.84-.85,1.55-.85,1.05,0,1.85.89,1.85,2.21,0,1.57-.95,2.34-1.98,2.34-.58,0-1.08-.25-1.34-.68h-.02v2.37h-.78v-4.72ZM286.98,84.14c0,.12.02.23.04.32.14.55.62.93,1.19.93.84,0,1.32-.68,1.32-1.68,0-.87-.46-1.62-1.3-1.62-.54,0-1.04.39-1.2.98-.03.1-.05.22-.05.32v.75Z"/>
      <path class="cls-2" d="M291.32,79.52h.79v2.72h.02c.13-.22.32-.42.57-.56.23-.13.51-.22.81-.22.58,0,1.52.36,1.52,1.86v2.59h-.79v-2.5c0-.7-.26-1.3-1.01-1.3-.51,0-.92.36-1.06.79-.05.11-.05.23-.05.38v2.63h-.79v-6.39Z"/>
      <path class="cls-2" d="M298.73,85.91l-.06-.55h-.03c-.24.34-.71.65-1.33.65-.88,0-1.33-.62-1.33-1.25,0-1.05.94-1.63,2.62-1.62v-.09c0-.36-.1-1.01-.99-1.01-.41,0-.83.13-1.13.32l-.18-.52c.36-.23.88-.39,1.43-.39,1.33,0,1.66.91,1.66,1.78v1.63c0,.38.02.75.07,1.04h-.72ZM298.61,83.69c-.86-.02-1.85.14-1.85.98,0,.51.34.76.75.76.57,0,.93-.36,1.05-.73.03-.08.04-.17.04-.25v-.76Z"/>
      <path class="cls-2" d="M303.25,85.91l-1.54-6.07h.83l.72,3.07c.18.76.34,1.51.45,2.1h.02c.1-.6.29-1.32.5-2.11l.81-3.06h.82l.74,3.08c.17.72.33,1.44.42,2.08h.02c.13-.67.3-1.34.49-2.1l.8-3.06h.8l-1.72,6.07h-.82l-.77-3.16c-.19-.77-.32-1.37-.4-1.98h-.02c-.11.6-.24,1.2-.47,1.98l-.86,3.16h-.82Z"/>
      <path class="cls-2" d="M309.71,82.92c0-.51,0-.95-.04-1.36h.69l.03.86h.04c.2-.58.68-.95,1.21-.95.09,0,.15,0,.22.03v.75c-.08-.02-.16-.03-.27-.03-.56,0-.96.42-1.06,1.02-.02.11-.04.23-.04.37v2.32h-.78v-3Z"/>
      <path class="cls-2" d="M315.02,85.91l-.06-.55h-.03c-.24.34-.71.65-1.33.65-.88,0-1.33-.62-1.33-1.25,0-1.05.94-1.63,2.62-1.62v-.09c0-.36-.1-1.01-.99-1.01-.41,0-.83.13-1.13.32l-.18-.52c.36-.23.88-.39,1.43-.39,1.33,0,1.66.91,1.66,1.78v1.63c0,.38.02.75.07,1.04h-.72ZM314.9,83.69c-.86-.02-1.85.14-1.85.98,0,.51.34.76.75.76.57,0,.93-.36,1.05-.73.03-.08.04-.17.04-.25v-.76Z"/>
      <path class="cls-2" d="M316.94,82.98c0-.56-.02-1.01-.04-1.42h.71l.04.75h.02c.32-.53.84-.85,1.55-.85,1.05,0,1.85.89,1.85,2.21,0,1.57-.95,2.34-1.98,2.34-.58,0-1.08-.25-1.34-.68h-.02v2.37h-.78v-4.72ZM317.73,84.14c0,.12.02.23.04.32.14.55.62.93,1.19.93.84,0,1.32-.68,1.32-1.68,0-.87-.46-1.62-1.3-1.62-.54,0-1.04.39-1.2.98-.03.1-.05.22-.05.32v.75Z"/>
      <path class="cls-2" d="M280.92,94.5c0,1.61-1.12,2.31-2.17,2.31-1.18,0-2.09-.86-2.09-2.24,0-1.46.95-2.31,2.16-2.31s2.1.91,2.1,2.24ZM277.46,94.54c0,.95.55,1.67,1.32,1.67s1.32-.71,1.32-1.69c0-.74-.37-1.67-1.31-1.67s-1.34.86-1.34,1.69Z"/>
      <path class="cls-2" d="M281.92,93.54c0-.45,0-.82-.04-1.18h.7l.04.72h.02c.22-.41.72-.82,1.44-.82.6,0,1.54.36,1.54,1.85v2.6h-.79v-2.51c0-.7-.26-1.29-1.01-1.29-.52,0-.93.37-1.06.81-.04.1-.05.23-.05.37v2.62h-.79v-3.18Z"/>
      <path class="cls-2" d="M288.82,93.78c0-.56-.02-1.01-.04-1.42h.71l.04.75h.02c.32-.53.84-.85,1.55-.85,1.05,0,1.85.89,1.85,2.21,0,1.57-.95,2.34-1.98,2.34-.58,0-1.08-.25-1.34-.68h-.02v2.37h-.78v-4.72ZM289.6,94.94c0,.12.02.23.04.32.14.55.62.93,1.19.93.84,0,1.32-.68,1.32-1.68,0-.87-.46-1.62-1.3-1.62-.54,0-1.04.39-1.2.98-.03.1-.05.22-.05.32v.75Z"/>
      <path class="cls-2" d="M297.88,94.5c0,1.61-1.12,2.31-2.17,2.31-1.18,0-2.09-.86-2.09-2.24,0-1.46.96-2.31,2.16-2.31s2.1.91,2.1,2.24ZM294.43,94.54c0,.95.55,1.67,1.32,1.67s1.32-.71,1.32-1.69c0-.74-.37-1.67-1.31-1.67s-1.34.86-1.34,1.69Z"/>
      <path class="cls-2" d="M298.88,90.32h.79v6.39h-.79v-6.39Z"/>
      <path class="cls-2" d="M301.29,92.36l.95,2.58c.1.29.21.63.28.89h.02c.08-.26.17-.59.28-.91l.86-2.56h.84l-1.19,3.11c-.57,1.49-.96,2.26-1.5,2.73-.39.34-.77.48-.97.51l-.2-.67c.2-.06.46-.19.69-.39.22-.17.49-.48.67-.88.04-.08.06-.14.06-.19s-.02-.11-.05-.21l-1.61-4.02h.86Z"/>
      <path class="cls-2" d="M308.91,92.36c-.02.32-.04.67-.04,1.2v2.53c0,1-.2,1.61-.62,1.99-.42.4-1.04.52-1.58.52s-1.1-.13-1.45-.36l.2-.6c.29.18.74.34,1.28.34.81,0,1.41-.42,1.41-1.52v-.49h-.02c-.24.41-.71.73-1.39.73-1.08,0-1.85-.92-1.85-2.12,0-1.48.96-2.31,1.96-2.31.76,0,1.17.4,1.36.76h.02l.04-.66h.69ZM308.09,94.08c0-.13,0-.25-.04-.36-.14-.46-.53-.84-1.11-.84-.76,0-1.3.64-1.3,1.65,0,.86.43,1.57,1.29,1.57.49,0,.93-.31,1.1-.81.04-.13.06-.29.06-.42v-.78Z"/>
      <path class="cls-2" d="M314.13,94.5c0,1.61-1.12,2.31-2.17,2.31-1.18,0-2.09-.86-2.09-2.24,0-1.46.96-2.31,2.16-2.31s2.1.91,2.1,2.24ZM310.67,94.54c0,.95.55,1.67,1.32,1.67s1.32-.71,1.32-1.69c0-.74-.37-1.67-1.31-1.67s-1.34.86-1.34,1.69Z"/>
      <path class="cls-2" d="M315.13,93.54c0-.45,0-.82-.04-1.18h.7l.04.72h.02c.22-.41.72-.82,1.44-.82.6,0,1.54.36,1.54,1.85v2.6h-.79v-2.51c0-.7-.26-1.29-1.01-1.29-.52,0-.93.37-1.06.81-.04.1-.05.23-.05.37v2.62h-.79v-3.18Z"/>
      <path class="cls-2" d="M320.01,95.9c.23.15.65.31,1.04.31.58,0,.85-.29.85-.65s-.22-.58-.81-.8c-.78-.28-1.15-.71-1.15-1.23,0-.7.57-1.28,1.5-1.28.44,0,.83.13,1.07.27l-.2.58c-.17-.11-.49-.25-.89-.25-.47,0-.73.27-.73.59,0,.36.26.52.83.74.76.29,1.14.67,1.14,1.31,0,.76-.59,1.3-1.63,1.3-.48,0-.92-.12-1.22-.3l.2-.6Z"/>
    </g>
  </g>
  <g>
    <polygon class="cls-3" points="392.84 156.63 394.59 39.21 437.11 19.02 473.1 16.02 530.79 59.88 504.65 139.46 478.65 142.46 392.84 156.63"/>
    <line class="cls-8" x1="393.65" y1="155.46" x2="428.65" y2="123.46"/>
    <line class="cls-8" x1="395.65" y1="41.46" x2="429.65" y2="122.46"/>
    <line class="cls-8" x1="474.65" y1="140.46" x2="431.65" y2="123.46"/>
    <line class="cls-8" x1="504.65" y1="139.46" x2="501.65" y2="90.46"/>
    <line class="cls-8" x1="480.65" y1="139.46" x2="501.65" y2="90.46"/>
    <line class="cls-8" x1="429.65" y1="122.46" x2="497.65" y2="89.46"/>
    <line class="cls-8" x1="460.65" y1="49.46" x2="499.65" y2="89.46"/>
    <line class="cls-8" x1="396.65" y1="43.46" x2="460.65" y2="49.46"/>
    <line class="cls-8" x1="436.65" y1="25.46" x2="460.65" y2="49.46"/>
    <line class="cls-8" x1="471.65" y1="21.46" x2="460.65" y2="49.46"/>
    <line class="cls-8" x1="530.65" y1="56.46" x2="464.65" y2="48.46"/>
    <line class="cls-8" x1="499.65" y1="43.46" x2="530.65" y2="56.46"/>
    <line class="cls-8" x1="473.65" y1="26.46" x2="499.65" y2="43.46"/>
    <line class="cls-8" x1="463.65" y1="46.46" x2="499.65" y2="46.46"/>
    <g>
      <circle class="cls-2" cx="499.31" cy="40.17" r="7.75"/>
      <path class="cls-4" d="M501.1,40.56h-2.62v2.43h2.92v.73h-3.79v-6.74h3.64v.73h-2.77v2.13h2.62v.72Z"/>
    </g>
    <g>
      <circle class="cls-2" cx="500.05" cy="89.38" r="7.75"/>
      <path class="cls-4" d="M502.71,92.63c-.39.14-1.16.37-2.07.37-1.02,0-1.86-.26-2.52-.89-.58-.56-.94-1.46-.94-2.51,0-2.01,1.39-3.48,3.65-3.48.78,0,1.39.17,1.68.31l-.21.71c-.36-.16-.81-.29-1.49-.29-1.64,0-2.71,1.02-2.71,2.71s1.03,2.72,2.6,2.72c.57,0,.96-.08,1.16-.18v-2.01h-1.37v-.7h2.22v3.24Z"/>
    </g>
    <line class="cls-7" x1="478.65" y1="112.46" x2="530.65" y2="56.46"/>
    <g>
      <circle class="cls-2" cx="430.14" cy="122.96" r="7.75"/>
      <path class="cls-4" d="M432.7,126.29c-.32.16-.96.32-1.78.32-1.9,0-3.33-1.2-3.33-3.41s1.43-3.54,3.52-3.54c.84,0,1.37.18,1.6.3l-.21.71c-.33-.16-.8-.28-1.36-.28-1.58,0-2.63,1.01-2.63,2.78,0,1.65.95,2.71,2.59,2.71.53,0,1.07-.11,1.42-.28l.18.69Z"/>
    </g>
    <g>
      <circle class="cls-2" cx="463.14" cy="45.96" r="7.75"/>
      <path class="cls-4" d="M460.82,43.17c.48-.07,1.04-.12,1.67-.12,1.13,0,1.93.26,2.46.76.54.5.86,1.2.86,2.18s-.31,1.8-.87,2.36c-.57.57-1.5.87-2.68.87-.56,0-1.03-.03-1.42-.07v-5.97ZM461.61,48.54c.2.04.49.04.79.04,1.67,0,2.58-.94,2.58-2.58,0-1.43-.8-2.34-2.46-2.34-.41,0-.71.04-.92.08v4.79Z"/>
    </g>
    <polygon class="cls-3" points="394.15 158.09 395.9 40.67 438.42 20.48 474.4 17.48 532.1 61.34 505.96 140.92 479.96 143.92 394.15 158.09"/>
    <line class="cls-7" x1="472.65" y1="18.46" x2="530.65" y2="56.46"/>
    <line class="cls-7" x1="395.65" y1="41.46" x2="392.65" y2="159.46"/>
    <line class="cls-7" x1="478.65" y1="144.46" x2="392.65" y2="159.46"/>
    <line class="cls-7" x1="478.65" y1="114.46" x2="478.65" y2="144.46"/>
    <line class="cls-7" x1="392.65" y1="157.46" x2="478.65" y2="112.46"/>
    <line class="cls-7" x1="393.65" y1="41.46" x2="478.65" y2="112.46"/>
    <line class="cls-7" x1="506.65" y1="138.46" x2="477.65" y2="142.46"/>
    <line class="cls-7" x1="530.65" y1="56.46" x2="506.65" y2="138.46"/>
    <line class="cls-7" x1="478.65" y1="142.46" x2="530.65" y2="56.46"/>
    <line class="cls-7" x1="392.65" y1="43.46" x2="472.65" y2="18.46"/>
    <line class="cls-7" x1="477.65" y1="109.46" x2="472.65" y2="18.46"/>
    <line class="cls-7" x1="393.65" y1="41.46" x2="433.65" y2="21.46"/>
    <line class="cls-7" x1="472.65" y1="18.46" x2="433.65" y2="19.46"/>
    <g>
      <circle class="cls-2" cx="394.25" cy="40.39" r="7.75"/>
      <path class="cls-4" d="M393.04,41.83l-.7,2.12h-.9l2.29-6.74h1.05l2.3,6.74h-.93l-.72-2.12h-2.39ZM395.25,41.15l-.66-1.94c-.15-.44-.25-.84-.35-1.23h-.02c-.1.4-.21.81-.34,1.22l-.66,1.95h2.03Z"/>
    </g>
    <g>
      <circle class="cls-2" cx="393.14" cy="156.96" r="7.75"/>
      <path class="cls-4" d="M391.18,153.87c.38-.08.98-.14,1.59-.14.87,0,1.43.15,1.85.49.35.26.56.66.56,1.19,0,.65-.43,1.22-1.14,1.48v.02c.64.16,1.39.69,1.39,1.69,0,.58-.23,1.02-.57,1.35-.47.43-1.23.63-2.33.63-.6,0-1.06-.04-1.35-.08v-6.63ZM392.05,156.63h.79c.92,0,1.46-.48,1.46-1.13,0-.79-.6-1.1-1.48-1.1-.4,0-.63.03-.77.06v2.17ZM392.05,159.85c.17.03.42.04.73.04.9,0,1.73-.33,1.73-1.31,0-.92-.79-1.3-1.74-1.3h-.72v2.57Z"/>
    </g>
    <g>
      <circle class="cls-2" cx="506.05" cy="141.38" r="7.75"/>
      <path class="cls-4" d="M506.44,138.5v6.07h-.78v-6.07h.78Z"/>
    </g>
    <g>
      <circle class="cls-2" cx="529.05" cy="59.38" r="7.75"/>
      <path class="cls-4" d="M527.37,56.19h3.63v.73h-2.76v2.24h2.55v.72h-2.55v3.05h-.87v-6.74Z"/>
    </g>
    <g>
      <circle class="cls-2" cx="473.75" cy="18.89" r="7.75"/>
      <path class="cls-4" d="M472.31,16.02h.78v5.41h2.59v.66h-3.38v-6.07Z"/>
    </g>
    <g>
      <circle class="cls-2" cx="434.75" cy="21.89" r="7.75"/>
      <path class="cls-4" d="M433,19.02h.78v2.93h.03c.16-.23.32-.45.48-.65l1.85-2.28h.97l-2.2,2.58,2.37,3.49h-.93l-2-2.98-.58.67v2.31h-.78v-6.07Z"/>
    </g>
    <g>
      <circle class="cls-2" cx="477.75" cy="142.89" r="7.75"/>
      <path class="cls-4" d="M478.01,140.02h.78v4.06c0,1.61-.79,2.11-1.84,2.11-.29,0-.64-.06-.84-.14l.12-.64c.16.06.4.12.66.12.7,0,1.12-.32,1.12-1.5v-4Z"/>
    </g>
    <g>
      <circle class="cls-2" cx="479.75" cy="114.89" r="7.75"/>
      <path class="cls-4" d="M478.29,112.02v2.54h2.94v-2.54h.79v6.07h-.79v-2.84h-2.94v2.84h-.78v-6.07h.78Z"/>
    </g>
  </g>
  <g>
    <rect class="cls-6" x="17.71" y="75.15" width="55.66" height="47.85"/>
    <path class="cls-2" d="M29.04,81.96h-.1l-5.42,2.93-.82-3.22,6.82-3.65h3.6v31.2h-4.08v-27.27Z"/>
  </g>
  <g>
    <g>
      <circle class="cls-2" cx="83.54" cy="221.84" r="7.75"/>
      <path class="cls-4" d="M82.33,223.27l-.7,2.12h-.9l2.29-6.74h1.05l2.3,6.74h-.93l-.72-2.12h-2.39ZM84.54,222.59l-.66-1.94c-.15-.44-.25-.84-.35-1.23h-.02c-.1.4-.21.81-.34,1.22l-.66,1.95h2.03Z"/>
    </g>
    <g>
      <circle class="cls-2" cx="119.42" cy="304.41" r="7.75"/>
      <path class="cls-4" d="M121.99,307.74c-.32.16-.96.32-1.78.32-1.9,0-3.33-1.2-3.33-3.41s1.43-3.54,3.52-3.54c.84,0,1.37.18,1.6.3l-.21.71c-.33-.16-.8-.28-1.36-.28-1.58,0-2.63,1.01-2.63,2.78,0,1.65.95,2.71,2.59,2.71.53,0,1.07-.11,1.42-.28l.18.69Z"/>
    </g>
    <g>
      <circle class="cls-2" cx="82.42" cy="338.41" r="7.75"/>
      <path class="cls-4" d="M80.47,335.31c.38-.08.98-.14,1.59-.14.87,0,1.43.15,1.85.49.35.26.56.66.56,1.19,0,.65-.43,1.22-1.14,1.48v.02c.64.16,1.39.69,1.39,1.69,0,.58-.23,1.02-.57,1.35-.47.43-1.23.63-2.33.63-.6,0-1.06-.04-1.35-.08v-6.63ZM81.34,338.07h.79c.92,0,1.46-.48,1.46-1.13,0-.79-.6-1.1-1.48-1.1-.4,0-.63.03-.77.06v2.17ZM81.34,341.3c.17.03.42.04.73.04.9,0,1.73-.33,1.73-1.31,0-.92-.79-1.3-1.74-1.3h-.72v2.57Z"/>
    </g>
    <g>
      <circle class="cls-2" cx="152.42" cy="227.41" r="7.75"/>
      <path class="cls-4" d="M150.11,224.62c.48-.07,1.04-.13,1.67-.13,1.12,0,1.93.26,2.46.76.54.5.85,1.2.85,2.18s-.31,1.8-.87,2.36c-.57.57-1.5.87-2.68.87-.56,0-1.03-.03-1.42-.07v-5.97ZM150.89,229.98c.2.04.49.04.79.04,1.67,0,2.58-.94,2.58-2.58,0-1.43-.8-2.34-2.46-2.34-.41,0-.71.04-.92.08v4.79Z"/>
    </g>
    <g>
      <circle class="cls-2" cx="189.33" cy="270.82" r="7.75"/>
      <path class="cls-4" d="M191.99,274.07c-.39.14-1.16.37-2.07.37-1.02,0-1.86-.26-2.52-.89-.58-.56-.94-1.46-.94-2.51,0-2.01,1.39-3.48,3.65-3.48.78,0,1.39.17,1.68.31l-.21.71c-.36-.16-.81-.29-1.49-.29-1.64,0-2.71,1.02-2.71,2.71s1.03,2.72,2.6,2.72c.57,0,.96-.08,1.16-.18v-2.01h-1.37v-.7h2.22v3.24Z"/>
    </g>
    <g>
      <circle class="cls-2" cx="195.33" cy="322.82" r="7.75"/>
      <path class="cls-4" d="M195.72,319.95v6.07h-.78v-6.07h.78Z"/>
    </g>
    <g>
      <circle class="cls-2" cx="218.33" cy="240.82" r="7.75"/>
      <path class="cls-4" d="M216.66,237.64h3.63v.73h-2.76v2.24h2.55v.72h-2.55v3.05h-.87v-6.74Z"/>
    </g>
    <g>
      <circle class="cls-2" cx="197.33" cy="216.82" r="7.75"/>
      <path class="cls-4" d="M199.12,217.21h-2.62v2.43h2.92v.73h-3.79v-6.74h3.64v.73h-2.77v2.13h2.62v.72Z"/>
    </g>
    <g>
      <circle class="cls-2" cx="163.04" cy="200.34" r="7.75"/>
      <path class="cls-4" d="M161.6,197.47h.78v5.41h2.59v.66h-3.38v-6.07Z"/>
    </g>
    <g>
      <circle class="cls-2" cx="124.04" cy="203.34" r="7.75"/>
      <path class="cls-4" d="M122.28,200.47h.78v2.93h.03c.16-.23.32-.45.48-.65l1.85-2.28h.97l-2.2,2.57,2.37,3.49h-.93l-2-2.98-.58.67v2.31h-.78v-6.07Z"/>
    </g>
    <g>
      <circle class="cls-2" cx="167.04" cy="324.34" r="7.75"/>
      <path class="cls-4" d="M167.3,321.47h.78v4.06c0,1.61-.79,2.11-1.84,2.11-.29,0-.64-.06-.84-.14l.12-.64c.16.06.4.12.66.12.7,0,1.12-.31,1.12-1.5v-4Z"/>
    </g>
    <g>
      <circle class="cls-2" cx="169.04" cy="296.34" r="7.75"/>
      <path class="cls-4" d="M167.57,293.47v2.54h2.94v-2.54h.79v6.07h-.79v-2.84h-2.94v2.84h-.78v-6.07h.78Z"/>
    </g>
  </g>
  <g>
    <g>
      <line class="cls-5" x1="249.04" y1="267.95" x2="356.7" y2="267.95"/>
      <polygon class="cls-11" points="352.57 282.08 377.04 267.95 352.57 253.81 352.57 282.08"/>
    </g>
    <g>
      <rect class="cls-6" x="253.09" y="259.01" width="94.96" height="17.93"/>
      <path class="cls-2" d="M280.5,263.5l-.63,1.91h-.81l2.06-6.07h.95l2.07,6.07h-.84l-.65-1.91h-2.15ZM282.49,262.88l-.59-1.75c-.13-.4-.22-.76-.31-1.11h-.02c-.09.36-.19.73-.31,1.1l-.59,1.75h1.83Z"/>
      <path class="cls-2" d="M284.97,259.01h.79v6.39h-.79v-6.39Z"/>
      <path class="cls-2" d="M287.09,262.47c0-.56-.02-1.01-.04-1.42h.71l.04.75h.02c.32-.53.84-.85,1.55-.85,1.05,0,1.85.89,1.85,2.21,0,1.57-.95,2.34-1.98,2.34-.58,0-1.08-.25-1.34-.68h-.02v2.37h-.78v-4.72ZM287.88,263.63c0,.12.02.23.04.32.14.55.62.93,1.19.93.84,0,1.32-.68,1.32-1.68,0-.87-.46-1.62-1.3-1.62-.54,0-1.04.39-1.2.98-.03.1-.05.21-.05.32v.75Z"/>
      <path class="cls-2" d="M292.21,259.01h.79v2.72h.02c.13-.22.32-.42.57-.56.23-.13.51-.23.81-.23.58,0,1.52.36,1.52,1.86v2.59h-.79v-2.5c0-.7-.26-1.3-1.01-1.3-.51,0-.92.36-1.06.79-.05.11-.05.22-.05.38v2.63h-.79v-6.39Z"/>
      <path class="cls-2" d="M299.62,265.4l-.06-.55h-.03c-.24.34-.71.65-1.33.65-.88,0-1.33-.62-1.33-1.25,0-1.05.94-1.63,2.62-1.62v-.09c0-.36-.1-1.01-.99-1.01-.41,0-.83.13-1.13.32l-.18-.52c.36-.23.88-.39,1.43-.39,1.33,0,1.66.91,1.66,1.78v1.63c0,.38.02.75.07,1.04h-.72ZM299.5,263.18c-.86-.02-1.85.13-1.85.98,0,.51.34.76.75.76.57,0,.93-.36,1.05-.73.03-.08.04-.17.04-.25v-.76Z"/>
      <path class="cls-2" d="M304.15,265.4l-1.54-6.07h.83l.72,3.07c.18.76.34,1.51.45,2.1h.02c.1-.6.29-1.32.5-2.11l.81-3.06h.82l.74,3.08c.17.72.33,1.44.42,2.08h.02c.13-.67.3-1.34.49-2.1l.8-3.06h.8l-1.72,6.07h-.82l-.77-3.16c-.19-.77-.32-1.37-.4-1.98h-.02c-.11.6-.24,1.2-.47,1.98l-.86,3.16h-.82Z"/>
      <path class="cls-2" d="M310.6,262.41c0-.51,0-.95-.04-1.36h.69l.03.86h.04c.2-.58.68-.95,1.21-.95.09,0,.15,0,.22.03v.75c-.08-.02-.16-.03-.27-.03-.56,0-.96.42-1.06,1.02-.02.11-.04.23-.04.37v2.32h-.78v-3Z"/>
      <path class="cls-2" d="M315.91,265.4l-.06-.55h-.03c-.24.34-.71.65-1.33.65-.88,0-1.33-.62-1.33-1.25,0-1.05.94-1.63,2.62-1.62v-.09c0-.36-.1-1.01-.99-1.01-.41,0-.83.13-1.13.32l-.18-.52c.36-.23.88-.39,1.43-.39,1.33,0,1.66.91,1.66,1.78v1.63c0,.38.02.75.07,1.04h-.72ZM315.79,263.18c-.86-.02-1.85.13-1.85.98,0,.51.34.76.75.76.57,0,.93-.36,1.05-.73.03-.08.04-.17.04-.25v-.76Z"/>
      <path class="cls-2" d="M317.84,262.47c0-.56-.02-1.01-.04-1.42h.71l.04.75h.02c.32-.53.84-.85,1.55-.85,1.05,0,1.85.89,1.85,2.21,0,1.57-.95,2.34-1.98,2.34-.58,0-1.08-.25-1.34-.68h-.02v2.37h-.78v-4.72ZM318.62,263.63c0,.12.02.23.04.32.14.55.62.93,1.19.93.84,0,1.32-.68,1.32-1.68,0-.87-.46-1.62-1.3-1.62-.54,0-1.04.39-1.2.98-.03.1-.05.21-.05.32v.75Z"/>
      <path class="cls-2" d="M287.41,273.99c0,1.61-1.12,2.31-2.17,2.31-1.18,0-2.09-.86-2.09-2.24,0-1.46.96-2.31,2.16-2.31s2.1.91,2.1,2.24ZM283.95,274.04c0,.95.55,1.67,1.32,1.67s1.32-.71,1.32-1.69c0-.74-.37-1.68-1.31-1.68s-1.34.87-1.34,1.69Z"/>
      <path class="cls-2" d="M288.41,273.03c0-.45,0-.82-.04-1.18h.7l.04.72h.02c.22-.41.72-.82,1.44-.82.6,0,1.54.36,1.54,1.86v2.6h-.79v-2.51c0-.7-.26-1.29-1.01-1.29-.52,0-.93.37-1.06.81-.04.1-.05.23-.05.37v2.62h-.79v-3.18Z"/>
      <path class="cls-2" d="M295.31,273.27c0-.56-.02-1.01-.04-1.42h.71l.04.75h.02c.32-.53.84-.85,1.55-.85,1.05,0,1.85.89,1.85,2.21,0,1.57-.95,2.34-1.98,2.34-.58,0-1.08-.25-1.34-.68h-.02v2.37h-.78v-4.72ZM296.09,274.43c0,.12.02.22.04.32.14.55.62.93,1.19.93.84,0,1.32-.68,1.32-1.68,0-.87-.46-1.62-1.3-1.62-.54,0-1.04.39-1.2.98-.03.1-.05.22-.05.32v.75Z"/>
      <path class="cls-2" d="M304.38,273.99c0,1.61-1.12,2.31-2.17,2.31-1.18,0-2.09-.86-2.09-2.24,0-1.46.95-2.31,2.16-2.31s2.1.91,2.1,2.24ZM300.92,274.04c0,.95.55,1.67,1.32,1.67s1.32-.71,1.32-1.69c0-.74-.37-1.68-1.31-1.68s-1.34.87-1.34,1.69Z"/>
      <path class="cls-2" d="M306.25,270.62c0,.27-.19.49-.5.49-.28,0-.48-.22-.48-.49s.21-.5.5-.5.49.22.49.5ZM305.37,276.21v-4.36h.79v4.36h-.79Z"/>
      <path class="cls-2" d="M307.48,273.03c0-.45,0-.82-.04-1.18h.7l.04.72h.02c.22-.41.72-.82,1.44-.82.6,0,1.54.36,1.54,1.86v2.6h-.79v-2.51c0-.7-.26-1.29-1.01-1.29-.52,0-.93.37-1.06.81-.04.1-.05.23-.05.37v2.62h-.79v-3.18Z"/>
      <path class="cls-2" d="M313.39,270.6v1.25h1.13v.6h-1.13v2.35c0,.54.15.85.59.85.21,0,.36-.03.46-.05l.04.59c-.15.06-.4.11-.7.11-.37,0-.67-.12-.86-.33-.23-.23-.31-.62-.31-1.13v-2.38h-.67v-.6h.67v-1.04l.77-.21Z"/>
      <path class="cls-2" d="M315.31,275.39c.23.15.65.31,1.04.31.58,0,.85-.29.85-.65s-.22-.58-.81-.8c-.78-.28-1.15-.71-1.15-1.23,0-.7.57-1.28,1.5-1.28.44,0,.83.13,1.07.27l-.2.58c-.17-.11-.49-.25-.89-.25-.47,0-.73.27-.73.59,0,.36.26.52.83.74.76.29,1.14.67,1.14,1.31,0,.76-.59,1.31-1.63,1.31-.48,0-.92-.12-1.22-.3l.2-.6Z"/>
    </g>
  </g>
  <g>
    <polygon class="cls-3" points="393.74 336.12 395.48 218.7 438.01 198.51 473.99 195.51 531.68 239.37 505.54 318.95 479.54 321.95 393.74 336.12"/>
    <line class="cls-8" x1="394.54" y1="334.95" x2="429.54" y2="302.95"/>
    <line class="cls-8" x1="396.54" y1="220.95" x2="430.54" y2="301.95"/>
    <line class="cls-8" x1="475.54" y1="319.95" x2="432.54" y2="302.95"/>
    <line class="cls-8" x1="505.54" y1="318.95" x2="502.54" y2="269.95"/>
    <line class="cls-8" x1="481.54" y1="318.95" x2="502.54" y2="269.95"/>
    <line class="cls-8" x1="430.54" y1="301.95" x2="498.54" y2="268.95"/>
    <line class="cls-8" x1="461.54" y1="228.95" x2="500.54" y2="268.95"/>
    <line class="cls-8" x1="397.54" y1="222.95" x2="461.54" y2="228.95"/>
    <line class="cls-8" x1="437.54" y1="204.95" x2="497.5" y2="222.5"/>
    <line class="cls-8" x1="472.54" y1="200.95" x2="496.5" y2="219.5"/>
    <line class="cls-8" x1="531.54" y1="235.95" x2="497.5" y2="222.5"/>
    <line class="cls-8" x1="498.5" y1="225.5" x2="500.5" y2="263.5"/>
    <line class="cls-8" x1="465.5" y1="225.5" x2="499.5" y2="222.5"/>
    <g>
      <circle class="cls-2" cx="500.2" cy="219.66" r="7.75"/>
      <path class="cls-4" d="M501.99,220.05h-2.62v2.43h2.92v.73h-3.79v-6.74h3.64v.73h-2.77v2.13h2.62v.72Z"/>
    </g>
    <g>
      <circle class="cls-2" cx="500.94" cy="268.87" r="7.75"/>
      <path class="cls-4" d="M503.6,272.12c-.39.14-1.16.37-2.07.37-1.02,0-1.86-.26-2.52-.89-.58-.56-.94-1.46-.94-2.51,0-2.01,1.39-3.48,3.65-3.48.78,0,1.39.17,1.68.31l-.21.71c-.36-.16-.81-.29-1.49-.29-1.64,0-2.71,1.02-2.71,2.71s1.03,2.72,2.6,2.72c.57,0,.96-.08,1.16-.18v-2.01h-1.37v-.7h2.22v3.24Z"/>
    </g>
    <line class="cls-7" x1="479.54" y1="291.95" x2="531.54" y2="235.95"/>
    <g>
      <circle class="cls-2" cx="431.03" cy="302.45" r="7.75"/>
      <path class="cls-4" d="M433.6,305.79c-.32.16-.96.32-1.78.32-1.9,0-3.33-1.2-3.33-3.41s1.43-3.54,3.52-3.54c.84,0,1.37.18,1.6.3l-.21.71c-.33-.16-.8-.28-1.36-.28-1.58,0-2.63,1.01-2.63,2.78,0,1.65.95,2.71,2.59,2.71.53,0,1.07-.11,1.42-.28l.18.69Z"/>
    </g>
    <g>
      <circle class="cls-2" cx="464.03" cy="225.45" r="7.75"/>
      <path class="cls-4" d="M461.72,222.66c.48-.07,1.04-.13,1.67-.13,1.13,0,1.93.26,2.46.76.54.5.86,1.2.86,2.18s-.31,1.8-.87,2.36c-.57.57-1.5.87-2.68.87-.56,0-1.03-.03-1.42-.07v-5.97ZM462.5,228.03c.2.04.49.04.79.04,1.67,0,2.58-.94,2.58-2.57,0-1.43-.8-2.34-2.46-2.34-.41,0-.71.04-.92.08v4.79Z"/>
    </g>
    <polygon class="cls-3" points="395 337.58 396.75 220.16 439.27 199.97 475.25 196.97 532.95 240.83 506.81 320.41 480.81 323.41 395 337.58"/>
    <line class="cls-7" x1="473.54" y1="197.95" x2="531.54" y2="235.95"/>
    <line class="cls-7" x1="396.54" y1="220.95" x2="393.54" y2="338.95"/>
    <line class="cls-7" x1="479.54" y1="323.95" x2="393.54" y2="338.95"/>
    <line class="cls-7" x1="479.54" y1="293.95" x2="479.54" y2="323.95"/>
    <line class="cls-7" x1="393.54" y1="336.95" x2="479.54" y2="291.95"/>
    <line class="cls-7" x1="470.5" y1="198.5" x2="394.5" y2="336.5"/>
    <line class="cls-7" x1="507.54" y1="317.95" x2="478.54" y2="321.95"/>
    <line class="cls-7" x1="531.54" y1="235.95" x2="507.54" y2="317.95"/>
    <line class="cls-7" x1="482.5" y1="297.5" x2="506.5" y2="315.5"/>
    <line class="cls-7" x1="393.54" y1="222.95" x2="473.54" y2="197.95"/>
    <line class="cls-7" x1="478.54" y1="288.95" x2="473.54" y2="197.95"/>
    <line class="cls-7" x1="394.54" y1="220.95" x2="434.54" y2="200.95"/>
    <line class="cls-7" x1="473.54" y1="197.95" x2="434.54" y2="198.95"/>
    <g>
      <circle class="cls-2" cx="395.15" cy="219.88" r="7.75"/>
      <path class="cls-4" d="M393.94,221.32l-.7,2.12h-.9l2.29-6.74h1.05l2.3,6.74h-.93l-.72-2.12h-2.39ZM396.14,220.64l-.66-1.94c-.15-.44-.25-.84-.35-1.23h-.02c-.1.4-.21.81-.34,1.22l-.66,1.95h2.03Z"/>
    </g>
    <g>
      <circle class="cls-2" cx="394.03" cy="336.45" r="7.75"/>
      <path class="cls-4" d="M392.08,333.36c.38-.08.98-.14,1.59-.14.87,0,1.43.15,1.85.49.35.26.56.66.56,1.19,0,.65-.43,1.22-1.14,1.48v.02c.64.16,1.39.69,1.39,1.69,0,.58-.23,1.02-.57,1.35-.47.43-1.23.63-2.33.63-.6,0-1.06-.04-1.35-.08v-6.63ZM392.95,336.12h.79c.92,0,1.46-.48,1.46-1.13,0-.79-.6-1.1-1.48-1.1-.4,0-.63.03-.77.06v2.17ZM392.95,339.34c.17.03.42.04.73.04.9,0,1.73-.33,1.73-1.31,0-.92-.79-1.3-1.74-1.3h-.72v2.57Z"/>
    </g>
    <g>
      <circle class="cls-2" cx="506.94" cy="320.87" r="7.75"/>
      <path class="cls-4" d="M507.33,317.99v6.07h-.78v-6.07h.78Z"/>
    </g>
    <g>
      <circle class="cls-2" cx="529.94" cy="238.87" r="7.75"/>
      <path class="cls-4" d="M528.27,235.68h3.63v.73h-2.76v2.24h2.55v.72h-2.55v3.05h-.87v-6.74Z"/>
    </g>
    <g>
      <circle class="cls-2" cx="474.65" cy="198.38" r="7.75"/>
      <path class="cls-4" d="M473.21,195.51h.78v5.41h2.59v.66h-3.38v-6.07Z"/>
    </g>
    <g>
      <circle class="cls-2" cx="435.65" cy="201.38" r="7.75"/>
      <path class="cls-4" d="M433.89,198.51h.78v2.93h.03c.16-.23.32-.45.48-.65l1.85-2.28h.97l-2.2,2.57,2.37,3.49h-.93l-2-2.98-.58.67v2.31h-.78v-6.07Z"/>
    </g>
    <g>
      <circle class="cls-2" cx="478.65" cy="322.38" r="7.75"/>
      <path class="cls-4" d="M478.91,319.51h.78v4.06c0,1.61-.79,2.11-1.84,2.11-.29,0-.64-.06-.84-.14l.12-.64c.16.06.4.12.66.12.7,0,1.12-.31,1.12-1.5v-4Z"/>
    </g>
    <g>
      <circle class="cls-2" cx="480.65" cy="294.38" r="7.75"/>
      <path class="cls-4" d="M479.18,291.51v2.54h2.93v-2.54h.79v6.07h-.79v-2.84h-2.93v2.84h-.78v-6.07h.78Z"/>
    </g>
  </g>
  <g>
    <rect class="cls-6" x="18.61" y="254.64" width="55.66" height="47.85"/>
    <path class="cls-2" d="M20.77,288.72v-2.59l3.31-3.22c7.97-7.58,11.57-11.62,11.62-16.32,0-3.17-1.54-6.1-6.19-6.1-2.83,0-5.18,1.44-6.62,2.64l-1.34-2.98c2.16-1.82,5.23-3.17,8.83-3.17,6.72,0,9.55,4.61,9.55,9.07,0,5.76-4.18,10.42-10.75,16.75l-2.5,2.3v.1h14.02v3.5h-19.92Z"/>
  </g>
  <g>
    <polyline class="cls-3" points="85.54 408.12 118.8 490.15 83.42 523.94 168.54 511.48 123.54 491.89 171.79 482.98 196.33 508.36 190.33 456.36 171.51 479 83.33 408.8"/>
    <polyline class="cls-3" points="125.04 388.98 152.54 412.48 218.53 426.86 197.5 402.03 156.08 411.69 164.04 385.87"/>
    <line class="cls-7" x1="218.79" y1="429.62" x2="200.79" y2="405.62"/>
    <line class="cls-7" x1="125.04" y1="388.98" x2="153.04" y2="412.98"/>
    <line class="cls-7" x1="165.54" y1="384.48" x2="124.54" y2="388.48"/>
    <line class="cls-7" x1="152.54" y1="412.48" x2="166.54" y2="383.48"/>
    <line class="cls-7" x1="197.54" y1="402.48" x2="152.54" y2="412.48"/>
    <line class="cls-7" x1="218.54" y1="426.48" x2="152.54" y2="412.48"/>
    <line class="cls-7" x1="190.54" y1="456.48" x2="171.54" y2="482.48"/>
    <line class="cls-7" x1="198.54" y1="509.48" x2="190.54" y2="456.48"/>
    <line class="cls-7" x1="171.54" y1="482.48" x2="198.54" y2="509.48"/>
    <line class="cls-7" x1="168.54" y1="511.48" x2="118.54" y2="490.48"/>
    <line class="cls-7" x1="81.54" y1="527.48" x2="165.54" y2="510.48"/>
    <line class="cls-7" x1="120.54" y1="489.48" x2="81.54" y2="527.48"/>
    <line class="cls-7" x1="83.54" y1="408.48" x2="171.54" y2="481.48"/>
    <line class="cls-7" x1="118.54" y1="490.48" x2="83.54" y2="408.48"/>
    <line class="cls-7" x1="171.54" y1="482.48" x2="120.54" y2="492.48"/>
    <g>
      <circle class="cls-2" cx="84.54" cy="407.37" r="7.75"/>
      <path class="cls-4" d="M83.33,408.8l-.7,2.12h-.9l2.29-6.74h1.05l2.3,6.74h-.93l-.72-2.12h-2.39ZM85.54,408.12l-.66-1.94c-.15-.44-.25-.84-.35-1.23h-.02c-.1.4-.21.81-.34,1.22l-.66,1.95h2.03Z"/>
    </g>
    <g>
      <circle class="cls-2" cx="120.42" cy="489.94" r="7.75"/>
      <path class="cls-4" d="M122.99,493.27c-.32.16-.96.32-1.78.32-1.9,0-3.33-1.2-3.33-3.41s1.43-3.54,3.52-3.54c.84,0,1.37.18,1.6.3l-.21.71c-.33-.16-.8-.28-1.36-.28-1.58,0-2.63,1.01-2.63,2.78,0,1.65.95,2.71,2.59,2.71.53,0,1.07-.11,1.42-.28l.18.69Z"/>
    </g>
    <g>
      <circle class="cls-2" cx="83.42" cy="523.94" r="7.75"/>
      <path class="cls-4" d="M81.47,520.85c.38-.08.98-.14,1.59-.14.87,0,1.43.15,1.85.49.35.26.56.66.56,1.19,0,.65-.43,1.22-1.14,1.48v.02c.64.16,1.39.69,1.39,1.69,0,.58-.23,1.02-.57,1.35-.47.43-1.23.63-2.33.63-.6,0-1.06-.04-1.35-.08v-6.63ZM82.34,523.6h.79c.92,0,1.46-.48,1.46-1.13,0-.79-.6-1.1-1.48-1.1-.4,0-.63.03-.77.06v2.17ZM82.34,526.83c.17.03.42.04.73.04.9,0,1.73-.33,1.73-1.31,0-.92-.79-1.3-1.74-1.3h-.72v2.57Z"/>
    </g>
    <g>
      <circle class="cls-2" cx="153.42" cy="412.94" r="7.75"/>
      <path class="cls-4" d="M151.11,410.15c.48-.07,1.04-.13,1.67-.13,1.12,0,1.93.26,2.46.76.54.5.85,1.2.85,2.18s-.31,1.8-.87,2.36c-.57.57-1.5.87-2.68.87-.56,0-1.03-.03-1.42-.07v-5.97ZM151.89,415.52c.2.04.49.04.79.04,1.67,0,2.58-.94,2.58-2.57,0-1.43-.8-2.34-2.46-2.34-.41,0-.71.04-.92.08v4.79Z"/>
    </g>
    <g>
      <circle class="cls-2" cx="190.33" cy="456.36" r="7.75"/>
      <path class="cls-4" d="M192.99,459.61c-.39.14-1.16.37-2.07.37-1.02,0-1.86-.26-2.52-.89-.58-.56-.94-1.46-.94-2.51,0-2.01,1.39-3.48,3.65-3.48.78,0,1.39.17,1.68.31l-.21.71c-.36-.16-.81-.29-1.49-.29-1.64,0-2.71,1.02-2.71,2.71s1.03,2.72,2.6,2.72c.57,0,.96-.08,1.16-.18v-2.01h-1.37v-.7h2.22v3.24Z"/>
    </g>
    <g>
      <circle class="cls-2" cx="196.33" cy="508.36" r="7.75"/>
      <path class="cls-4" d="M196.72,505.48v6.07h-.78v-6.07h.78Z"/>
    </g>
    <g>
      <circle class="cls-2" cx="219.33" cy="426.36" r="7.75"/>
      <path class="cls-4" d="M217.66,423.17h3.63v.73h-2.76v2.24h2.55v.72h-2.55v3.05h-.87v-6.74Z"/>
    </g>
    <g>
      <circle class="cls-2" cx="198.33" cy="402.36" r="7.75"/>
      <path class="cls-4" d="M200.12,402.75h-2.62v2.43h2.92v.73h-3.79v-6.74h3.64v.73h-2.77v2.13h2.62v.72Z"/>
    </g>
    <g>
      <circle class="cls-2" cx="164.04" cy="385.87" r="7.75"/>
      <path class="cls-4" d="M162.6,383h.78v5.41h2.59v.66h-3.38v-6.07Z"/>
    </g>
    <g>
      <circle class="cls-2" cx="125.04" cy="388.87" r="7.75"/>
      <path class="cls-4" d="M123.28,386h.78v2.93h.03c.16-.23.32-.45.48-.65l1.85-2.28h.97l-2.2,2.58,2.37,3.49h-.93l-2-2.98-.58.67v2.31h-.78v-6.07Z"/>
    </g>
    <g>
      <circle class="cls-2" cx="168.04" cy="509.87" r="7.75"/>
      <path class="cls-4" d="M168.3,507h.78v4.06c0,1.61-.79,2.11-1.84,2.11-.29,0-.64-.06-.84-.14l.12-.64c.16.06.4.12.66.12.7,0,1.12-.32,1.12-1.5v-4Z"/>
    </g>
    <g>
      <circle class="cls-2" cx="170.04" cy="481.87" r="7.75"/>
      <path class="cls-4" d="M168.57,479v2.54h2.94v-2.54h.79v6.07h-.79v-2.84h-2.94v2.84h-.78v-6.07h.78Z"/>
    </g>
  </g>
  <g>
    <g>
      <line class="cls-5" x1="250.04" y1="453.48" x2="357.7" y2="453.48"/>
      <polygon class="cls-11" points="353.57 467.62 378.04 453.48 353.57 439.35 353.57 467.62"/>
    </g>
    <g>
      <rect class="cls-6" x="254.09" y="444.55" width="94.96" height="17.93"/>
      <path class="cls-2" d="M284.52,450.74c-.29.14-.86.29-1.6.29-1.71,0-3-1.08-3-3.07s1.29-3.19,3.17-3.19c.76,0,1.23.16,1.44.27l-.19.64c-.3-.14-.72-.25-1.22-.25-1.42,0-2.37.91-2.37,2.5,0,1.49.86,2.44,2.33,2.44.48,0,.96-.1,1.28-.25l.16.62Z"/>
      <path class="cls-2" d="M289.32,448.72c0,1.61-1.12,2.31-2.17,2.31-1.18,0-2.09-.86-2.09-2.24,0-1.46.96-2.31,2.16-2.31s2.1.91,2.1,2.24ZM285.86,448.77c0,.95.55,1.67,1.32,1.67s1.32-.71,1.32-1.69c0-.74-.37-1.67-1.31-1.67s-1.34.86-1.34,1.69Z"/>
      <path class="cls-2" d="M290.32,447.76c0-.45,0-.82-.04-1.18h.7l.04.72h.02c.22-.41.72-.82,1.44-.82.6,0,1.54.36,1.54,1.85v2.6h-.79v-2.51c0-.7-.26-1.29-1.01-1.29-.52,0-.93.37-1.06.81-.04.1-.05.23-.05.37v2.62h-.79v-3.18Z"/>
      <path class="cls-2" d="M295.5,446.58l.86,2.45c.14.4.26.76.35,1.12h.03c.1-.36.23-.72.37-1.12l.85-2.45h.83l-1.71,4.36h-.76l-1.66-4.36h.85Z"/>
      <path class="cls-2" d="M299.87,448.9c.02,1.07.7,1.51,1.49,1.51.57,0,.91-.1,1.21-.23l.14.57c-.28.13-.76.27-1.45.27-1.34,0-2.14-.88-2.14-2.2s.77-2.35,2.04-2.35c1.42,0,1.8,1.25,1.8,2.05,0,.16-.02.29-.03.37h-3.06ZM302.2,448.33c0-.5-.21-1.29-1.1-1.29-.8,0-1.15.74-1.21,1.29h2.31Z"/>
      <path class="cls-2" d="M304.28,446.58l.62.94c.16.24.3.47.44.71h.03c.14-.26.29-.49.43-.72l.61-.93h.86l-1.49,2.11,1.53,2.25h-.9l-.64-.98c-.17-.25-.31-.5-.47-.76h-.02c-.14.26-.3.5-.46.76l-.63.98h-.87l1.55-2.22-1.48-2.13h.88Z"/>
      <path class="cls-2" d="M309.99,444.54h.79v2.72h.02c.13-.22.32-.42.57-.56.23-.13.51-.22.81-.22.58,0,1.52.36,1.52,1.86v2.59h-.79v-2.5c0-.7-.26-1.3-1.01-1.3-.51,0-.92.36-1.06.79-.05.11-.05.23-.05.38v2.63h-.79v-6.39Z"/>
      <path class="cls-2" d="M318.63,449.75c0,.45,0,.85.04,1.19h-.7l-.04-.71h-.02c-.21.35-.67.81-1.44.81-.68,0-1.5-.38-1.5-1.91v-2.55h.79v2.41c0,.83.25,1.39.97,1.39.53,0,.9-.37,1.04-.72.04-.12.07-.26.07-.41v-2.67h.79v3.17Z"/>
      <path class="cls-2" d="M319.94,444.54h.79v6.39h-.79v-6.39Z"/>
      <path class="cls-2" d="M322.07,444.54h.79v6.39h-.79v-6.39Z"/>
    </g>
  </g>
  <g>
    <polygon class="cls-3" points="394.74 521.65 396.48 404.23 439.01 384.04 474.99 381.04 532.68 424.9 506.54 504.48 480.54 507.48 394.74 521.65"/>
    <line class="cls-8" x1="395.54" y1="520.48" x2="430.54" y2="488.48"/>
    <line class="cls-8" x1="397.54" y1="406.48" x2="431.54" y2="487.48"/>
    <line class="cls-8" x1="506.54" y1="504.48" x2="503.54" y2="455.48"/>
    <line class="cls-8" x1="431.54" y1="487.48" x2="499.54" y2="454.48"/>
    <line class="cls-8" x1="500.5" y1="409.5" x2="501.54" y2="454.48"/>
    <line class="cls-8" x1="398.54" y1="408.48" x2="495.5" y2="408.5"/>
    <line class="cls-8" x1="438.54" y1="390.48" x2="499.5" y2="408.5"/>
    <line class="cls-8" x1="501.54" y1="408.48" x2="532.54" y2="421.48"/>
    <line class="cls-8" x1="475.54" y1="391.48" x2="501.54" y2="408.48"/>
    <g>
      <circle class="cls-2" cx="501.2" cy="405.19" r="7.75"/>
      <path class="cls-4" d="M502.99,405.58h-2.62v2.43h2.92v.73h-3.79v-6.74h3.64v.73h-2.77v2.13h2.62v.72Z"/>
    </g>
    <g>
      <circle class="cls-2" cx="501.94" cy="454.4" r="7.75"/>
      <path class="cls-4" d="M504.6,457.65c-.39.14-1.16.37-2.07.37-1.02,0-1.86-.26-2.52-.89-.58-.56-.94-1.46-.94-2.51,0-2.01,1.39-3.48,3.65-3.48.78,0,1.39.17,1.68.31l-.21.71c-.36-.16-.81-.29-1.49-.29-1.64,0-2.71,1.02-2.71,2.71s1.03,2.72,2.6,2.72c.57,0,.96-.08,1.16-.18v-2.01h-1.37v-.7h2.22v3.24Z"/>
    </g>
    <line class="cls-7" x1="480.54" y1="477.48" x2="532.54" y2="421.48"/>
    <g>
      <circle class="cls-2" cx="432.03" cy="487.99" r="7.75"/>
      <path class="cls-4" d="M434.6,491.32c-.32.16-.96.32-1.78.32-1.9,0-3.33-1.2-3.33-3.41s1.43-3.54,3.52-3.54c.84,0,1.37.18,1.6.3l-.21.71c-.33-.16-.8-.28-1.36-.28-1.58,0-2.63,1.01-2.63,2.78,0,1.65.95,2.71,2.59,2.71.53,0,1.07-.11,1.42-.28l.18.69Z"/>
    </g>
    <polygon class="cls-3" points="397 523.11 398.75 405.69 441.27 385.5 477.25 382.5 534.95 426.36 508.81 505.94 482.81 508.94 397 523.11"/>
    <line class="cls-7" x1="474.54" y1="383.48" x2="532.54" y2="421.48"/>
    <line class="cls-7" x1="397.54" y1="406.48" x2="394.54" y2="524.48"/>
    <line class="cls-7" x1="500.5" y1="505.5" x2="394.54" y2="524.48"/>
    <line class="cls-7" x1="480.54" y1="479.48" x2="503.5" y2="506.5"/>
    <line class="cls-7" x1="394.54" y1="522.48" x2="480.54" y2="477.48"/>
    <line class="cls-7" x1="395.54" y1="406.48" x2="480.54" y2="477.48"/>
    <line class="cls-7" x1="532.54" y1="421.48" x2="508.54" y2="503.48"/>
    <line class="cls-7" x1="394.54" y1="408.48" x2="474.54" y2="383.48"/>
    <line class="cls-7" x1="479.54" y1="474.48" x2="474.54" y2="383.48"/>
    <line class="cls-7" x1="395.54" y1="406.48" x2="435.54" y2="386.48"/>
    <line class="cls-7" x1="474.54" y1="383.48" x2="435.54" y2="384.48"/>
    <g>
      <circle class="cls-2" cx="396.15" cy="405.42" r="7.75"/>
      <path class="cls-4" d="M394.94,406.85l-.7,2.12h-.9l2.29-6.74h1.05l2.3,6.74h-.93l-.72-2.12h-2.39ZM397.14,406.17l-.66-1.94c-.15-.44-.25-.84-.35-1.23h-.02c-.1.4-.21.81-.34,1.22l-.66,1.95h2.03Z"/>
    </g>
    <g>
      <circle class="cls-2" cx="395.03" cy="521.99" r="7.75"/>
      <path class="cls-4" d="M393.08,518.89c.38-.08.98-.14,1.59-.14.87,0,1.43.15,1.85.49.35.26.56.66.56,1.19,0,.65-.43,1.22-1.14,1.48v.02c.64.16,1.39.69,1.39,1.69,0,.58-.23,1.02-.57,1.35-.47.43-1.23.63-2.33.63-.6,0-1.06-.04-1.35-.08v-6.63ZM393.95,521.65h.79c.92,0,1.46-.48,1.46-1.13,0-.79-.6-1.1-1.48-1.1-.4,0-.63.03-.77.06v2.17ZM393.95,524.88c.17.03.42.04.73.04.9,0,1.73-.33,1.73-1.31,0-.92-.79-1.3-1.74-1.3h-.72v2.57Z"/>
    </g>
    <g>
      <circle class="cls-2" cx="507.94" cy="506.4" r="7.75"/>
      <path class="cls-4" d="M508.33,503.53v6.07h-.78v-6.07h.78Z"/>
    </g>
    <g>
      <circle class="cls-2" cx="530.94" cy="424.4" r="7.75"/>
      <path class="cls-4" d="M529.27,421.21h3.63v.73h-2.76v2.24h2.55v.72h-2.55v3.05h-.87v-6.74Z"/>
    </g>
    <g>
      <circle class="cls-2" cx="475.65" cy="383.92" r="7.75"/>
      <path class="cls-4" d="M474.21,381.04h.78v5.41h2.59v.66h-3.38v-6.07Z"/>
    </g>
    <g>
      <circle class="cls-2" cx="436.65" cy="386.92" r="7.75"/>
      <path class="cls-4" d="M434.89,384.04h.78v2.93h.03c.16-.23.32-.45.48-.65l1.85-2.28h.97l-2.2,2.58,2.37,3.49h-.93l-2-2.98-.58.67v2.31h-.78v-6.07Z"/>
    </g>
    <g>
      <circle class="cls-2" cx="481.65" cy="479.92" r="7.75"/>
      <path class="cls-4" d="M480.18,477.04v2.54h2.93v-2.54h.79v6.07h-.79v-2.84h-2.93v2.84h-.78v-6.07h.78Z"/>
    </g>
  </g>
  <g>
    <rect class="cls-6" x="19.61" y="440.17" width="55.66" height="47.85"/>
    <path class="cls-2" d="M22.78,469.4c1.2.77,3.98,1.97,6.91,1.97,5.42,0,7.1-3.46,7.06-6.05-.05-4.37-3.98-6.24-8.06-6.24h-2.35v-3.17h2.35c3.07,0,6.96-1.58,6.96-5.28,0-2.5-1.58-4.7-5.47-4.7-2.5,0-4.9,1.1-6.24,2.06l-1.1-3.07c1.63-1.2,4.8-2.4,8.16-2.4,6.14,0,8.93,3.65,8.93,7.44,0,3.22-1.92,5.95-5.76,7.34v.1c3.84.77,6.96,3.65,6.96,8.02,0,4.99-3.89,9.36-11.38,9.36-3.5,0-6.58-1.1-8.11-2.11l1.15-3.26Z"/>
  </g>
  <g>
    <polyline class="cls-3" points="85.54 586.23 118.8 668.26 83.42 702.05 168.54 689.59 123.54 670 171.79 661.09 196.33 686.46 190.33 634.46 171.51 657.11 83.33 586.91"/>
    <polyline class="cls-3" points="125.04 567.09 152.54 590.59 218.53 604.96 197.5 580.13 156.08 589.8 164.04 563.98"/>
    <line class="cls-7" x1="218.79" y1="607.73" x2="200.79" y2="583.73"/>
    <line class="cls-7" x1="125.04" y1="567.09" x2="153.04" y2="591.09"/>
    <line class="cls-7" x1="165.54" y1="562.59" x2="124.54" y2="566.59"/>
    <line class="cls-7" x1="152.54" y1="590.59" x2="166.54" y2="561.59"/>
    <line class="cls-7" x1="197.54" y1="580.59" x2="152.54" y2="590.59"/>
    <line class="cls-7" x1="218.54" y1="604.59" x2="152.54" y2="590.59"/>
    <line class="cls-7" x1="190.54" y1="634.59" x2="171.54" y2="660.59"/>
    <line class="cls-7" x1="198.54" y1="687.59" x2="190.54" y2="634.59"/>
    <line class="cls-7" x1="171.54" y1="660.59" x2="198.54" y2="687.59"/>
    <line class="cls-7" x1="168.54" y1="689.59" x2="118.54" y2="668.59"/>
    <line class="cls-7" x1="81.54" y1="705.59" x2="165.54" y2="688.59"/>
    <line class="cls-7" x1="120.54" y1="667.59" x2="81.54" y2="705.59"/>
    <line class="cls-7" x1="83.54" y1="586.59" x2="171.54" y2="659.59"/>
    <line class="cls-7" x1="118.54" y1="668.59" x2="83.54" y2="586.59"/>
    <line class="cls-7" x1="171.54" y1="660.59" x2="120.54" y2="670.59"/>
    <g>
      <circle class="cls-2" cx="84.54" cy="585.48" r="7.75"/>
      <path class="cls-4" d="M83.33,586.91l-.7,2.12h-.9l2.29-6.74h1.05l2.3,6.74h-.93l-.72-2.12h-2.39ZM85.54,586.23l-.66-1.94c-.15-.44-.25-.84-.35-1.23h-.02c-.1.4-.21.81-.34,1.22l-.66,1.95h2.03Z"/>
    </g>
    <g>
      <circle class="cls-2" cx="120.42" cy="668.05" r="7.75"/>
      <path class="cls-4" d="M122.99,671.38c-.32.16-.96.32-1.78.32-1.9,0-3.33-1.2-3.33-3.41s1.43-3.54,3.52-3.54c.84,0,1.37.18,1.6.3l-.21.71c-.33-.16-.8-.28-1.36-.28-1.58,0-2.63,1.01-2.63,2.78,0,1.65.95,2.71,2.59,2.71.53,0,1.07-.11,1.42-.28l.18.69Z"/>
    </g>
    <g>
      <circle class="cls-2" cx="83.42" cy="702.05" r="7.75"/>
      <path class="cls-4" d="M81.47,698.95c.38-.08.98-.14,1.59-.14.87,0,1.43.15,1.85.49.35.26.56.66.56,1.19,0,.65-.43,1.22-1.14,1.48v.02c.64.16,1.39.69,1.39,1.69,0,.58-.23,1.02-.57,1.35-.47.43-1.23.63-2.33.63-.6,0-1.06-.04-1.35-.08v-6.63ZM82.34,701.71h.79c.92,0,1.46-.48,1.46-1.13,0-.79-.6-1.1-1.48-1.1-.4,0-.63.03-.77.06v2.17ZM82.34,704.94c.17.03.42.04.73.04.9,0,1.73-.33,1.73-1.31,0-.92-.79-1.3-1.74-1.3h-.72v2.57Z"/>
    </g>
    <g>
      <circle class="cls-2" cx="153.42" cy="591.05" r="7.75"/>
      <path class="cls-4" d="M151.11,588.26c.48-.07,1.04-.13,1.67-.13,1.12,0,1.93.26,2.46.76.54.5.85,1.2.85,2.18s-.31,1.8-.87,2.36c-.57.57-1.5.87-2.68.87-.56,0-1.03-.03-1.42-.07v-5.97ZM151.89,593.62c.2.04.49.04.79.04,1.67,0,2.58-.94,2.58-2.57,0-1.43-.8-2.34-2.46-2.34-.41,0-.71.04-.92.08v4.79Z"/>
    </g>
    <g>
      <circle class="cls-2" cx="190.33" cy="634.46" r="7.75"/>
      <path class="cls-4" d="M192.99,637.71c-.39.14-1.16.37-2.07.37-1.02,0-1.86-.26-2.52-.89-.58-.56-.94-1.46-.94-2.51,0-2.01,1.39-3.48,3.65-3.48.78,0,1.39.17,1.68.31l-.21.71c-.36-.16-.81-.29-1.49-.29-1.64,0-2.71,1.02-2.71,2.71s1.03,2.72,2.6,2.72c.57,0,.96-.08,1.16-.18v-2.01h-1.37v-.7h2.22v3.24Z"/>
    </g>
    <g>
      <circle class="cls-2" cx="196.33" cy="686.46" r="7.75"/>
      <path class="cls-4" d="M196.72,683.59v6.07h-.78v-6.07h.78Z"/>
    </g>
    <g>
      <circle class="cls-2" cx="219.33" cy="604.46" r="7.75"/>
      <path class="cls-4" d="M217.66,601.28h3.63v.73h-2.76v2.24h2.55v.72h-2.55v3.05h-.87v-6.74Z"/>
    </g>
    <g>
      <circle class="cls-2" cx="198.33" cy="580.46" r="7.75"/>
      <path class="cls-4" d="M200.12,580.85h-2.62v2.43h2.92v.73h-3.79v-6.74h3.64v.73h-2.77v2.13h2.62v.72Z"/>
    </g>
    <g>
      <circle class="cls-2" cx="164.04" cy="563.98" r="7.75"/>
      <path class="cls-4" d="M162.6,561.11h.78v5.41h2.59v.66h-3.38v-6.07Z"/>
    </g>
    <g>
      <circle class="cls-2" cx="125.04" cy="566.98" r="7.75"/>
      <path class="cls-4" d="M123.28,564.11h.78v2.93h.03c.16-.23.32-.45.48-.65l1.85-2.28h.97l-2.2,2.57,2.37,3.49h-.93l-2-2.98-.58.67v2.31h-.78v-6.07Z"/>
    </g>
    <g>
      <circle class="cls-2" cx="168.04" cy="687.98" r="7.75"/>
      <path class="cls-4" d="M168.3,685.11h.78v4.06c0,1.61-.79,2.11-1.84,2.11-.29,0-.64-.06-.84-.14l.12-.64c.16.06.4.12.66.12.7,0,1.12-.31,1.12-1.5v-4Z"/>
    </g>
    <g>
      <circle class="cls-2" cx="170.04" cy="659.98" r="7.75"/>
      <path class="cls-4" d="M168.57,657.11v2.54h2.94v-2.54h.79v6.07h-.79v-2.84h-2.94v2.84h-.78v-6.07h.78Z"/>
    </g>
  </g>
  <g>
    <g>
      <line class="cls-5" x1="250.04" y1="631.59" x2="357.7" y2="631.59"/>
      <polygon class="cls-11" points="353.57 645.72 378.04 631.59 353.57 617.45 353.57 645.72"/>
    </g>
    <g>
      <rect class="cls-6" x="254.09" y="622.65" width="94.96" height="17.93"/>
      <path class="cls-2" d="M275.74,623.06c.34-.07.88-.13,1.43-.13.78,0,1.29.13,1.67.44.32.23.5.59.5,1.07,0,.59-.39,1.1-1.03,1.33v.02c.58.14,1.25.62,1.25,1.52,0,.52-.21.92-.51,1.22-.42.39-1.11.57-2.1.57-.54,0-.95-.04-1.21-.07v-5.97ZM276.52,625.54h.71c.83,0,1.31-.43,1.31-1.02,0-.71-.54-.99-1.33-.99-.36,0-.57.03-.69.05v1.95ZM276.52,628.45c.15.03.38.04.66.04.81,0,1.56-.3,1.56-1.18,0-.83-.71-1.17-1.57-1.17h-.65v2.31Z"/>
      <path class="cls-2" d="M284.57,626.83c0,1.61-1.12,2.31-2.17,2.31-1.18,0-2.09-.86-2.09-2.24,0-1.46.95-2.31,2.16-2.31s2.1.91,2.1,2.24ZM281.11,626.87c0,.95.55,1.67,1.32,1.67s1.32-.71,1.32-1.69c0-.74-.37-1.67-1.31-1.67s-1.34.86-1.34,1.69Z"/>
      <path class="cls-2" d="M289.21,627.85c0,.45,0,.85.04,1.19h-.7l-.04-.71h-.02c-.21.35-.67.81-1.44.81-.68,0-1.5-.38-1.5-1.91v-2.55h.79v2.41c0,.83.25,1.39.97,1.39.53,0,.9-.37,1.04-.72.04-.12.07-.26.07-.41v-2.67h.79v3.17Z"/>
      <path class="cls-2" d="M290.52,625.87c0-.45,0-.82-.04-1.18h.7l.04.72h.02c.22-.41.72-.82,1.44-.82.6,0,1.54.36,1.54,1.85v2.6h-.79v-2.51c0-.7-.26-1.29-1.01-1.29-.52,0-.93.37-1.06.81-.04.1-.05.23-.05.37v2.62h-.79v-3.18Z"/>
      <path class="cls-2" d="M299.28,622.65v5.27c0,.39,0,.83.04,1.12h-.71l-.04-.76h-.02c-.24.49-.77.86-1.49.86-1.05,0-1.86-.89-1.86-2.21,0-1.45.89-2.34,1.95-2.34.67,0,1.12.32,1.31.67h.02v-2.6h.79ZM298.49,626.46c0-.1,0-.23-.04-.33-.12-.5-.55-.92-1.14-.92-.82,0-1.31.72-1.31,1.68,0,.88.43,1.61,1.29,1.61.53,0,1.02-.35,1.16-.95.03-.11.04-.22.04-.34v-.76Z"/>
      <path class="cls-2" d="M301.48,623.46c0,.27-.19.49-.5.49-.28,0-.48-.22-.48-.49s.21-.5.5-.5.49.22.49.5ZM300.59,629.04v-4.36h.79v4.36h-.79Z"/>
      <path class="cls-2" d="M302.7,625.87c0-.45,0-.82-.04-1.18h.7l.04.72h.02c.22-.41.72-.82,1.44-.82.6,0,1.54.36,1.54,1.85v2.6h-.79v-2.51c0-.7-.26-1.29-1.01-1.29-.52,0-.93.37-1.06.81-.04.1-.05.23-.05.37v2.62h-.79v-3.18Z"/>
      <path class="cls-2" d="M311.45,624.69c-.02.32-.04.67-.04,1.2v2.53c0,1-.2,1.61-.62,1.99-.42.4-1.04.52-1.58.52s-1.1-.13-1.45-.36l.2-.6c.29.18.74.34,1.28.34.81,0,1.4-.42,1.4-1.52v-.49h-.02c-.24.41-.71.73-1.39.73-1.08,0-1.85-.92-1.85-2.12,0-1.48.96-2.31,1.96-2.31.76,0,1.17.4,1.36.76h.02l.04-.66h.69ZM310.63,626.41c0-.13,0-.25-.04-.36-.14-.46-.53-.84-1.11-.84-.76,0-1.3.64-1.3,1.65,0,.86.43,1.57,1.29,1.57.49,0,.93-.31,1.1-.81.04-.13.06-.29.06-.42v-.78Z"/>
      <path class="cls-2" d="M314.6,629.04c.02-.3.04-.74.04-1.12v-5.27h.78v2.74h.02c.28-.49.78-.8,1.49-.8,1.08,0,1.84.9,1.84,2.22,0,1.56-.98,2.33-1.95,2.33-.63,0-1.13-.24-1.46-.82h-.03l-.04.72h-.68ZM315.42,627.3c0,.1.02.2.04.29.15.55.61.93,1.19.93.83,0,1.32-.67,1.32-1.67,0-.87-.45-1.62-1.3-1.62-.54,0-1.04.37-1.21.97-.02.09-.04.2-.04.32v.78Z"/>
      <path class="cls-2" d="M323.7,626.83c0,1.61-1.12,2.31-2.17,2.31-1.18,0-2.09-.86-2.09-2.24,0-1.46.95-2.31,2.16-2.31s2.1.91,2.1,2.24ZM320.24,626.87c0,.95.55,1.67,1.32,1.67s1.32-.71,1.32-1.69c0-.74-.37-1.67-1.31-1.67s-1.34.86-1.34,1.69Z"/>
      <path class="cls-2" d="M324.94,624.69l.62.94c.16.24.3.47.44.71h.03c.14-.26.29-.49.43-.72l.61-.93h.86l-1.49,2.11,1.53,2.25h-.9l-.64-.98c-.17-.25-.31-.5-.47-.76h-.02c-.14.26-.3.5-.46.76l-.63.98h-.87l1.55-2.22-1.48-2.13h.88Z"/>
    </g>
  </g>
  <g>
    <rect class="cls-6" x="19.61" y="618.28" width="55.66" height="47.85"/>
    <path class="cls-2" d="M34.83,652.36v-8.5h-14.5v-2.78l13.92-19.92h4.56v19.39h4.37v3.31h-4.37v8.5h-3.98ZM34.83,640.55v-10.42c0-1.63.05-3.26.14-4.9h-.14c-.96,1.82-1.73,3.17-2.59,4.61l-7.63,10.61v.1h10.23Z"/>
  </g>
  <g>
    <rect class="cls-3" x="410.49" y="557.34" width="124" height="115"/>
    <polyline class="cls-3" points="408.49 557.34 408.49 557.34 409.99 672.84 387.54 705.48 388.99 587.84 410.49 557.34"/>
    <line class="cls-7" x1="534.99" y1="557.84" x2="409.99" y2="557.84"/>
    <line class="cls-7" x1="511.99" y1="587.84" x2="534.99" y2="557.84"/>
    <line class="cls-7" x1="515.99" y1="707.84" x2="535.99" y2="673.84"/>
    <line class="cls-7" x1="534.99" y1="557.84" x2="534.99" y2="673.84"/>
    <line class="cls-9" x1="409.99" y1="557.84" x2="409.99" y2="672.84"/>
    <line class="cls-7" x1="388.76" y1="587.29" x2="411.76" y2="557.29"/>
    <line class="cls-9" x1="534.99" y1="672.84" x2="407.99" y2="672.84"/>
    <polyline class="cls-9" points="409.99 672.84 389.99 703.84 409.99 672.84"/>
    <polygon class="cls-3" points="409.99 557.84 390.08 587.4 513.63 588.16 535.26 556.8 409.99 557.84"/>
    <polyline class="cls-3" points="388.63 705.16 409.99 672.84 534.99 673.84 514.99 704.84"/>
    <polygon class="cls-3" points="513.63 588.16 534.21 558.77 533.16 676.35 513.01 705.37 513.63 588.16"/>
    <g>
      <circle class="cls-2" cx="409.74" cy="556.59" r="7.75"/>
      <path class="cls-4" d="M411.53,556.98h-2.62v2.43h2.92v.73h-3.79v-6.74h3.64v.73h-2.77v2.13h2.62v.72Z"/>
    </g>
    <g>
      <circle class="cls-2" cx="534.63" cy="673.16" r="7.75"/>
      <path class="cls-4" d="M533.16,670.29v2.54h2.94v-2.54h.79v6.07h-.79v-2.84h-2.94v2.84h-.78v-6.07h.78Z"/>
    </g>
    <g>
      <circle class="cls-2" cx="408.63" cy="673.16" r="7.75"/>
      <path class="cls-4" d="M406.95,669.97h3.63v.73h-2.76v2.24h2.55v.72h-2.55v3.05h-.87v-6.74Z"/>
    </g>
    <g>
      <circle class="cls-2" cx="533.63" cy="556.16" r="7.75"/>
      <path class="cls-4" d="M536.02,559.08c-.35.13-1.04.33-1.86.33-.92,0-1.67-.23-2.27-.8-.52-.5-.85-1.31-.85-2.26,0-1.81,1.25-3.13,3.29-3.13.7,0,1.25.15,1.51.28l-.19.64c-.32-.14-.73-.26-1.34-.26-1.48,0-2.44.92-2.44,2.44s.93,2.45,2.34,2.45c.51,0,.86-.07,1.04-.16v-1.81h-1.23v-.63h2v2.92Z"/>
    </g>
    <rect class="cls-3" x="390.49" y="589.34" width="124" height="115"/>
    <rect class="cls-7" x="388.99" y="587.84" width="126" height="117"/>
    <g>
      <circle class="cls-2" cx="389.74" cy="588.59" r="7.75"/>
      <path class="cls-4" d="M388.53,590.02l-.7,2.12h-.9l2.29-6.74h1.05l2.3,6.74h-.93l-.72-2.12h-2.39ZM390.74,589.34l-.66-1.94c-.15-.44-.25-.84-.35-1.23h-.02c-.1.4-.21.81-.34,1.22l-.66,1.95h2.03Z"/>
    </g>
    <g>
      <circle class="cls-2" cx="514.63" cy="705.16" r="7.75"/>
      <path class="cls-4" d="M517.19,708.49c-.32.16-.96.32-1.78.32-1.9,0-3.33-1.2-3.33-3.41s1.43-3.54,3.52-3.54c.84,0,1.37.18,1.6.3l-.21.71c-.33-.16-.8-.28-1.36-.28-1.58,0-2.63,1.01-2.63,2.78,0,1.65.95,2.71,2.59,2.71.53,0,1.07-.11,1.42-.28l.18.69Z"/>
    </g>
    <g>
      <circle class="cls-2" cx="388.63" cy="705.16" r="7.75"/>
      <path class="cls-4" d="M386.68,702.06c.38-.08.98-.14,1.59-.14.87,0,1.43.15,1.85.49.35.26.56.66.56,1.19,0,.65-.43,1.22-1.14,1.48v.02c.64.16,1.39.69,1.39,1.69,0,.58-.23,1.02-.57,1.35-.47.43-1.23.63-2.33.63-.6,0-1.06-.04-1.35-.08v-6.63ZM387.54,704.82h.79c.92,0,1.46-.48,1.46-1.13,0-.79-.6-1.1-1.48-1.1-.4,0-.63.03-.77.06v2.17ZM387.54,708.05c.17.03.42.04.73.04.9,0,1.73-.33,1.73-1.31,0-.92-.79-1.3-1.74-1.3h-.72v2.57Z"/>
    </g>
    <g>
      <circle class="cls-2" cx="513.63" cy="588.16" r="7.75"/>
      <path class="cls-4" d="M511.31,585.37c.48-.07,1.04-.13,1.67-.13,1.13,0,1.93.26,2.46.76.54.5.86,1.2.86,2.18s-.31,1.8-.87,2.36c-.57.57-1.5.87-2.68.87-.56,0-1.03-.03-1.42-.07v-5.97ZM512.1,590.73c.2.04.49.04.79.04,1.67,0,2.58-.94,2.58-2.58,0-1.43-.8-2.34-2.46-2.34-.41,0-.71.04-.92.08v4.79Z"/>
    </g>
  </g>
  <g>
    <polyline class="cls-10" points="535.3 79.96 597 79.96 597 174.32 312.05 174.32 309.54 226.94"/>
    <polygon class="cls-1" points="302.41 220.98 309.66 224.47 317.21 221.68 308.98 238.87 302.41 220.98"/>
  </g>
  <g>
    <polyline class="cls-10" points="540.39 266.23 602.09 266.23 602.09 360.59 317.14 360.59 314.64 413.22"/>
    <polygon class="cls-1" points="307.51 407.25 314.75 410.75 322.3 407.96 314.07 425.14 307.51 407.25"/>
  </g>
  <g>
    <polyline class="cls-10" points="538.39 448.23 600.09 448.23 600.09 542.59 315.14 542.59 312.64 595.22"/>
    <polygon class="cls-1" points="305.51 589.25 312.75 592.75 320.3 589.96 312.07 607.14 305.51 589.25"/>
  </g>
  <g>
    <rect class="cls-6" x="518.82" y="70.06" width="94.96" height="17.93"/>
    <path class="cls-1" d="M551.92,70.39v6.07h-.78v-6.07h.78Z"/>
    <path class="cls-1" d="M553.43,76.46v-3.75h-.61v-.6h.61v-.21c0-.61.13-1.17.5-1.52.3-.29.69-.41,1.06-.41.28,0,.52.06.67.13l-.11.61c-.12-.05-.28-.1-.5-.1-.68,0-.85.59-.85,1.26v.23h1.05v.6h-1.05v3.75h-.78Z"/>
    <path class="cls-1" d="M558.77,70.87c0,.27-.19.49-.5.49-.28,0-.48-.22-.48-.49s.21-.5.5-.5.49.22.49.5ZM557.88,76.46v-4.36h.79v4.36h-.79Z"/>
    <path class="cls-1" d="M559.99,73.28c0-.45,0-.82-.04-1.18h.7l.04.72h.02c.22-.41.72-.82,1.44-.82.6,0,1.54.36,1.54,1.86v2.6h-.79v-2.51c0-.7-.26-1.29-1.01-1.29-.52,0-.93.37-1.06.81-.04.1-.05.23-.05.37v2.62h-.79v-3.18Z"/>
    <path class="cls-1" d="M565.17,72.1l.86,2.45c.14.4.26.76.35,1.12h.03c.1-.36.23-.72.37-1.12l.85-2.45h.83l-1.71,4.36h-.76l-1.66-4.36h.85Z"/>
    <path class="cls-1" d="M571.57,76.46l-.06-.55h-.03c-.24.34-.71.65-1.33.65-.88,0-1.33-.62-1.33-1.25,0-1.05.94-1.63,2.62-1.62v-.09c0-.36-.1-1.01-.99-1.01-.41,0-.83.12-1.13.32l-.18-.52c.36-.23.88-.39,1.43-.39,1.33,0,1.66.91,1.66,1.78v1.63c0,.38.02.75.07,1.04h-.72ZM571.46,74.23c-.86-.02-1.85.14-1.85.98,0,.51.34.76.75.76.57,0,.93-.36,1.05-.73.03-.08.04-.17.04-.25v-.76Z"/>
    <path class="cls-1" d="M573.5,70.06h.79v6.39h-.79v-6.39Z"/>
    <path class="cls-1" d="M576.5,70.87c0,.27-.19.49-.5.49-.28,0-.48-.22-.48-.49s.21-.5.5-.5.49.22.49.5ZM575.62,76.46v-4.36h.79v4.36h-.79Z"/>
    <path class="cls-1" d="M581.49,70.06v5.27c0,.39,0,.83.04,1.13h-.71l-.04-.76h-.02c-.24.49-.77.86-1.49.86-1.05,0-1.86-.89-1.86-2.21,0-1.45.89-2.34,1.95-2.34.67,0,1.12.32,1.31.67h.02v-2.6h.79ZM580.7,73.87c0-.1,0-.23-.04-.33-.12-.5-.55-.92-1.14-.92-.82,0-1.31.72-1.31,1.68,0,.88.43,1.61,1.29,1.61.53,0,1.02-.35,1.16-.95.03-.11.04-.22.04-.34v-.76Z"/>
    <path class="cls-1" d="M552.27,82.9c-.02.32-.04.67-.04,1.2v2.53c0,1-.2,1.61-.62,1.99-.42.4-1.04.52-1.58.52s-1.1-.13-1.45-.36l.2-.6c.29.18.74.34,1.28.34.81,0,1.4-.42,1.4-1.52v-.49h-.02c-.24.4-.71.73-1.39.73-1.08,0-1.85-.92-1.85-2.12,0-1.48.96-2.31,1.96-2.31.76,0,1.17.4,1.36.76h.02l.04-.66h.69ZM551.45,84.62c0-.14,0-.25-.04-.36-.14-.46-.53-.84-1.11-.84-.76,0-1.3.64-1.3,1.65,0,.86.43,1.57,1.29,1.57.49,0,.93-.31,1.1-.81.04-.13.06-.29.06-.42v-.78Z"/>
    <path class="cls-1" d="M553.99,85.22c.02,1.07.7,1.51,1.49,1.51.57,0,.91-.1,1.21-.22l.14.57c-.28.13-.76.27-1.45.27-1.34,0-2.14-.88-2.14-2.2s.77-2.35,2.04-2.35c1.42,0,1.8,1.25,1.8,2.05,0,.16-.02.29-.03.37h-3.06ZM556.31,84.65c0-.5-.21-1.29-1.1-1.29-.8,0-1.15.74-1.21,1.29h2.31Z"/>
    <path class="cls-1" d="M562,85.04c0,1.61-1.12,2.31-2.17,2.31-1.18,0-2.09-.86-2.09-2.24,0-1.46.96-2.31,2.16-2.31s2.1.91,2.1,2.24ZM558.54,85.08c0,.95.55,1.67,1.32,1.67s1.32-.71,1.32-1.69c0-.74-.37-1.67-1.31-1.67s-1.34.86-1.34,1.69Z"/>
    <path class="cls-1" d="M563,84.08c0-.45,0-.82-.04-1.18h.69l.04.7h.03c.24-.41.65-.8,1.37-.8.59,0,1.04.36,1.23.87h.02c.13-.24.31-.43.49-.57.26-.2.55-.31.96-.31.58,0,1.43.38,1.43,1.89v2.57h-.77v-2.47c0-.84-.31-1.34-.95-1.34-.45,0-.8.33-.94.72-.04.11-.06.25-.06.4v2.69h-.77v-2.61c0-.69-.31-1.2-.91-1.2-.5,0-.86.4-.98.79-.04.12-.06.25-.06.39v2.63h-.77v-3.18Z"/>
    <path class="cls-1" d="M570.94,85.22c.02,1.07.7,1.51,1.49,1.51.57,0,.91-.1,1.21-.22l.14.57c-.28.13-.76.27-1.45.27-1.34,0-2.14-.88-2.14-2.2s.77-2.35,2.04-2.35c1.42,0,1.8,1.25,1.8,2.05,0,.16-.02.29-.03.37h-3.06ZM573.27,84.65c0-.5-.21-1.29-1.1-1.29-.8,0-1.15.74-1.21,1.29h2.31Z"/>
    <path class="cls-1" d="M575.96,81.65v1.25h1.13v.6h-1.13v2.35c0,.54.15.85.59.85.21,0,.36-.03.46-.05l.04.59c-.15.06-.4.11-.7.11-.37,0-.67-.12-.86-.33-.23-.23-.31-.62-.31-1.13v-2.38h-.67v-.6h.67v-1.04l.77-.21Z"/>
    <path class="cls-1" d="M577.99,84.26c0-.51,0-.95-.04-1.36h.69l.03.86h.04c.2-.58.68-.95,1.21-.95.09,0,.15,0,.22.03v.75c-.08-.02-.16-.03-.27-.03-.56,0-.95.42-1.06,1.02-.02.11-.04.23-.04.37v2.32h-.78v-3Z"/>
    <path class="cls-1" d="M581.45,82.9l.95,2.58c.1.29.21.63.28.89h.02c.08-.26.17-.59.28-.91l.86-2.56h.84l-1.19,3.11c-.57,1.5-.96,2.26-1.5,2.73-.39.34-.77.48-.97.51l-.2-.67c.2-.06.46-.19.69-.39.22-.17.49-.48.67-.88.04-.08.06-.14.06-.19s-.02-.11-.05-.21l-1.61-4.02h.86Z"/>
  </g>
  <g>
    <rect class="cls-6" x="521.82" y="255.94" width="94.96" height="17.93"/>
    <path class="cls-1" d="M554.92,256.26v6.07h-.78v-6.07h.78Z"/>
    <path class="cls-1" d="M556.43,262.33v-3.75h-.61v-.6h.61v-.21c0-.61.13-1.17.5-1.52.3-.29.69-.41,1.06-.41.28,0,.52.06.67.13l-.11.61c-.12-.05-.28-.1-.5-.1-.68,0-.85.59-.85,1.26v.23h1.05v.6h-1.05v3.75h-.78Z"/>
    <path class="cls-1" d="M561.77,256.75c0,.27-.19.49-.5.49-.28,0-.48-.22-.48-.49s.21-.5.5-.5.49.22.49.5ZM560.88,262.33v-4.36h.79v4.36h-.79Z"/>
    <path class="cls-1" d="M562.99,259.15c0-.45,0-.82-.04-1.18h.7l.04.72h.02c.22-.41.72-.82,1.44-.82.6,0,1.54.36,1.54,1.86v2.6h-.79v-2.51c0-.7-.26-1.29-1.01-1.29-.52,0-.93.37-1.06.81-.04.1-.05.23-.05.37v2.62h-.79v-3.18Z"/>
    <path class="cls-1" d="M568.17,257.97l.86,2.45c.14.4.26.76.35,1.12h.03c.1-.36.23-.72.37-1.12l.85-2.45h.83l-1.71,4.36h-.76l-1.66-4.36h.85Z"/>
    <path class="cls-1" d="M574.57,262.33l-.06-.55h-.03c-.24.34-.71.65-1.33.65-.88,0-1.33-.62-1.33-1.25,0-1.05.94-1.63,2.62-1.62v-.09c0-.36-.1-1.01-.99-1.01-.41,0-.83.13-1.13.32l-.18-.52c.36-.23.88-.39,1.43-.39,1.33,0,1.66.91,1.66,1.78v1.63c0,.38.02.75.07,1.04h-.72ZM574.46,260.1c-.86-.02-1.85.13-1.85.98,0,.51.34.76.75.76.57,0,.93-.36,1.05-.73.03-.08.04-.17.04-.25v-.76Z"/>
    <path class="cls-1" d="M576.5,255.93h.79v6.39h-.79v-6.39Z"/>
    <path class="cls-1" d="M579.5,256.75c0,.27-.19.49-.5.49-.28,0-.48-.22-.48-.49s.21-.5.5-.5.49.22.49.5ZM578.62,262.33v-4.36h.79v4.36h-.79Z"/>
    <path class="cls-1" d="M584.49,255.93v5.27c0,.39,0,.83.04,1.13h-.71l-.04-.76h-.02c-.24.49-.77.86-1.49.86-1.05,0-1.86-.89-1.86-2.21,0-1.45.89-2.34,1.95-2.34.67,0,1.12.32,1.31.67h.02v-2.6h.79ZM583.7,259.74c0-.1,0-.23-.04-.33-.12-.5-.55-.92-1.14-.92-.82,0-1.31.72-1.31,1.68,0,.88.43,1.61,1.29,1.61.53,0,1.02-.35,1.16-.95.03-.11.04-.22.04-.34v-.76Z"/>
    <path class="cls-1" d="M555.27,268.77c-.02.32-.04.67-.04,1.2v2.53c0,1-.2,1.61-.62,1.99-.42.4-1.04.52-1.58.52s-1.1-.13-1.45-.36l.2-.6c.29.18.74.34,1.28.34.81,0,1.4-.42,1.4-1.52v-.49h-.02c-.24.4-.71.73-1.39.73-1.08,0-1.85-.92-1.85-2.12,0-1.48.96-2.31,1.96-2.31.76,0,1.17.4,1.36.76h.02l.04-.66h.69ZM554.45,270.49c0-.14,0-.25-.04-.36-.14-.46-.53-.84-1.11-.84-.76,0-1.3.64-1.3,1.65,0,.85.43,1.57,1.29,1.57.49,0,.93-.31,1.1-.81.04-.13.06-.29.06-.42v-.78Z"/>
    <path class="cls-1" d="M556.99,271.09c.02,1.07.7,1.51,1.49,1.51.57,0,.91-.1,1.21-.22l.14.57c-.28.13-.76.27-1.45.27-1.34,0-2.14-.88-2.14-2.2s.77-2.35,2.04-2.35c1.42,0,1.8,1.25,1.8,2.05,0,.16-.02.29-.03.37h-3.06ZM559.31,270.53c0-.5-.21-1.29-1.1-1.29-.8,0-1.15.74-1.21,1.29h2.31Z"/>
    <path class="cls-1" d="M565,270.91c0,1.61-1.12,2.31-2.17,2.31-1.18,0-2.09-.86-2.09-2.24,0-1.46.96-2.31,2.16-2.31s2.1.91,2.1,2.24ZM561.54,270.96c0,.95.55,1.67,1.32,1.67s1.32-.71,1.32-1.69c0-.74-.37-1.67-1.31-1.67s-1.34.86-1.34,1.69Z"/>
    <path class="cls-1" d="M566,269.95c0-.45,0-.82-.04-1.18h.69l.04.7h.03c.24-.41.65-.8,1.37-.8.59,0,1.04.36,1.23.87h.02c.13-.24.31-.43.49-.57.26-.2.55-.31.96-.31.58,0,1.43.38,1.43,1.89v2.57h-.77v-2.47c0-.84-.31-1.34-.95-1.34-.45,0-.8.33-.94.72-.04.11-.06.25-.06.4v2.69h-.77v-2.61c0-.69-.31-1.2-.91-1.2-.5,0-.86.4-.98.79-.04.12-.06.25-.06.39v2.63h-.77v-3.18Z"/>
    <path class="cls-1" d="M573.94,271.09c.02,1.07.7,1.51,1.49,1.51.57,0,.91-.1,1.21-.22l.14.57c-.28.13-.76.27-1.45.27-1.34,0-2.14-.88-2.14-2.2s.77-2.35,2.04-2.35c1.42,0,1.8,1.25,1.8,2.05,0,.16-.02.29-.03.37h-3.06ZM576.27,270.53c0-.5-.21-1.29-1.1-1.29-.8,0-1.15.74-1.21,1.29h2.31Z"/>
    <path class="cls-1" d="M578.96,267.52v1.25h1.13v.6h-1.13v2.35c0,.54.15.85.59.85.21,0,.36-.03.46-.05l.04.59c-.15.06-.4.11-.7.11-.37,0-.67-.12-.86-.33-.23-.23-.31-.62-.31-1.13v-2.38h-.67v-.6h.67v-1.04l.77-.21Z"/>
    <path class="cls-1" d="M580.99,270.13c0-.51,0-.95-.04-1.36h.69l.03.86h.04c.2-.59.68-.96,1.21-.96.09,0,.15,0,.22.03v.75c-.08-.02-.16-.03-.27-.03-.56,0-.95.42-1.06,1.02-.02.11-.04.23-.04.37v2.32h-.78v-3Z"/>
    <path class="cls-1" d="M584.45,268.77l.95,2.57c.1.29.21.63.28.89h.02c.08-.26.17-.59.28-.91l.86-2.56h.84l-1.19,3.11c-.57,1.5-.96,2.26-1.5,2.73-.39.34-.77.48-.97.51l-.2-.67c.2-.06.46-.19.69-.39.22-.17.49-.48.67-.88.04-.08.06-.14.06-.19s-.02-.11-.05-.21l-1.61-4.01h.86Z"/>
  </g>
  <g>
    <rect class="cls-6" x="521.82" y="438.17" width="94.96" height="17.93"/>
    <path class="cls-1" d="M554.92,438.49v6.07h-.78v-6.07h.78Z"/>
    <path class="cls-1" d="M556.43,444.56v-3.75h-.61v-.6h.61v-.21c0-.61.13-1.17.5-1.52.3-.29.69-.4,1.06-.4.28,0,.52.06.67.13l-.11.61c-.12-.05-.28-.1-.5-.1-.68,0-.85.59-.85,1.26v.23h1.05v.6h-1.05v3.75h-.78Z"/>
    <path class="cls-1" d="M561.77,438.98c0,.27-.19.49-.5.49-.28,0-.48-.22-.48-.49s.21-.5.5-.5.49.22.49.5ZM560.88,444.56v-4.36h.79v4.36h-.79Z"/>
    <path class="cls-1" d="M562.99,441.38c0-.45,0-.82-.04-1.18h.7l.04.72h.02c.22-.41.72-.82,1.44-.82.6,0,1.54.36,1.54,1.85v2.6h-.79v-2.51c0-.7-.26-1.29-1.01-1.29-.52,0-.93.37-1.06.81-.04.1-.05.23-.05.37v2.62h-.79v-3.18Z"/>
    <path class="cls-1" d="M568.17,440.2l.86,2.45c.14.4.26.76.35,1.12h.03c.1-.36.23-.72.37-1.12l.85-2.45h.83l-1.71,4.36h-.76l-1.66-4.36h.85Z"/>
    <path class="cls-1" d="M574.57,444.56l-.06-.55h-.03c-.24.34-.71.65-1.33.65-.88,0-1.33-.62-1.33-1.25,0-1.05.94-1.63,2.62-1.62v-.09c0-.36-.1-1.01-.99-1.01-.41,0-.83.13-1.13.32l-.18-.52c.36-.23.88-.39,1.43-.39,1.33,0,1.66.91,1.66,1.78v1.63c0,.38.02.75.07,1.04h-.72ZM574.46,442.34c-.86-.02-1.85.14-1.85.98,0,.51.34.76.75.76.57,0,.93-.36,1.05-.73.03-.08.04-.17.04-.25v-.76Z"/>
    <path class="cls-1" d="M576.5,438.17h.79v6.39h-.79v-6.39Z"/>
    <path class="cls-1" d="M579.5,438.98c0,.27-.19.49-.5.49-.28,0-.48-.22-.48-.49s.21-.5.5-.5.49.22.49.5ZM578.62,444.56v-4.36h.79v4.36h-.79Z"/>
    <path class="cls-1" d="M584.49,438.17v5.27c0,.39,0,.83.04,1.12h-.71l-.04-.76h-.02c-.24.49-.77.86-1.49.86-1.05,0-1.86-.89-1.86-2.21,0-1.45.89-2.34,1.95-2.34.67,0,1.12.32,1.31.67h.02v-2.6h.79ZM583.7,441.98c0-.1,0-.23-.04-.33-.12-.5-.55-.92-1.14-.92-.82,0-1.31.72-1.31,1.68,0,.88.43,1.61,1.29,1.61.53,0,1.02-.35,1.16-.95.03-.11.04-.22.04-.34v-.76Z"/>
    <path class="cls-1" d="M555.27,451c-.02.32-.04.67-.04,1.2v2.53c0,1-.2,1.61-.62,1.99-.42.4-1.04.52-1.58.52s-1.1-.13-1.45-.36l.2-.6c.29.18.74.34,1.28.34.81,0,1.4-.42,1.4-1.52v-.49h-.02c-.24.41-.71.73-1.39.73-1.08,0-1.85-.92-1.85-2.12,0-1.48.96-2.31,1.96-2.31.76,0,1.17.4,1.36.76h.02l.04-.66h.69ZM554.45,452.72c0-.13,0-.25-.04-.36-.14-.46-.53-.84-1.11-.84-.76,0-1.3.64-1.3,1.65,0,.86.43,1.57,1.29,1.57.49,0,.93-.31,1.1-.81.04-.13.06-.29.06-.42v-.78Z"/>
    <path class="cls-1" d="M556.99,453.33c.02,1.07.7,1.51,1.49,1.51.57,0,.91-.1,1.21-.23l.14.57c-.28.13-.76.27-1.45.27-1.34,0-2.14-.88-2.14-2.2s.77-2.35,2.04-2.35c1.42,0,1.8,1.25,1.8,2.05,0,.16-.02.29-.03.37h-3.06ZM559.31,452.76c0-.5-.21-1.29-1.1-1.29-.8,0-1.15.74-1.21,1.29h2.31Z"/>
    <path class="cls-1" d="M565,453.15c0,1.61-1.12,2.31-2.17,2.31-1.18,0-2.09-.86-2.09-2.24,0-1.46.96-2.31,2.16-2.31s2.1.91,2.1,2.24ZM561.54,453.19c0,.95.55,1.67,1.32,1.67s1.32-.71,1.32-1.69c0-.74-.37-1.67-1.31-1.67s-1.34.86-1.34,1.69Z"/>
    <path class="cls-1" d="M566,452.18c0-.45,0-.82-.04-1.18h.69l.04.7h.03c.24-.41.65-.8,1.37-.8.59,0,1.04.36,1.23.87h.02c.13-.24.31-.43.49-.57.26-.2.55-.31.96-.31.58,0,1.43.38,1.43,1.89v2.57h-.77v-2.47c0-.84-.31-1.34-.95-1.34-.45,0-.8.33-.94.72-.04.11-.06.25-.06.4v2.69h-.77v-2.61c0-.69-.31-1.2-.91-1.2-.5,0-.86.4-.98.79-.04.12-.06.25-.06.39v2.63h-.77v-3.18Z"/>
    <path class="cls-1" d="M573.94,453.33c.02,1.07.7,1.51,1.49,1.51.57,0,.91-.1,1.21-.23l.14.57c-.28.13-.76.27-1.45.27-1.34,0-2.14-.88-2.14-2.2s.77-2.35,2.04-2.35c1.42,0,1.8,1.25,1.8,2.05,0,.16-.02.29-.03.37h-3.06ZM576.27,452.76c0-.5-.21-1.29-1.1-1.29-.8,0-1.15.74-1.21,1.29h2.31Z"/>
    <path class="cls-1" d="M578.96,449.75v1.25h1.13v.6h-1.13v2.35c0,.54.15.85.59.85.21,0,.36-.03.46-.05l.04.59c-.15.06-.4.11-.7.11-.37,0-.67-.12-.86-.33-.23-.23-.31-.62-.31-1.13v-2.38h-.67v-.6h.67v-1.04l.77-.21Z"/>
    <path class="cls-1" d="M580.99,452.36c0-.51,0-.95-.04-1.36h.69l.03.86h.04c.2-.58.68-.95,1.21-.95.09,0,.15,0,.22.03v.75c-.08-.02-.16-.03-.27-.03-.56,0-.95.42-1.06,1.02-.02.11-.04.23-.04.37v2.32h-.78v-3Z"/>
    <path class="cls-1" d="M584.45,451l.95,2.58c.1.29.21.63.28.89h.02c.08-.26.17-.59.28-.91l.86-2.56h.84l-1.19,3.11c-.57,1.49-.96,2.26-1.5,2.73-.39.34-.77.48-.97.51l-.2-.67c.2-.06.46-.19.69-.39.22-.17.49-.48.67-.88.04-.08.06-.14.06-.19s-.02-.11-.05-.21l-1.61-4.02h.86Z"/>
  </g>
</svg>