<?xml version="1.0" encoding="UTF-8"?>
<svg id="Solid" xmlns="http://www.w3.org/2000/svg" viewBox="0 0 522.58 427.6">
  <defs>
    <style>
      .cls-1 {
        fill: #231f20;
      }

      .cls-2 {
        stroke-width: 3px;
      }

      .cls-2, .cls-3 {
        stroke-dasharray: 6 2;
      }

      .cls-2, .cls-3, .cls-4, .cls-5, .cls-6, .cls-7 {
        fill: none;
      }

      .cls-2, .cls-3, .cls-4, .cls-6, .cls-7 {
        stroke-miterlimit: 10;
      }

      .cls-2, .cls-3, .cls-6, .cls-7 {
        stroke: #437898;
      }

      .cls-3, .cls-4, .cls-6, .cls-7 {
        stroke-width: 2.83px;
      }

      .cls-8 {
        fill: #6dbae7;
        opacity: .31;
      }

      .cls-9, .cls-10 {
        fill: #fff;
      }

      .cls-4 {
        stroke: #9b9a9a;
      }

      .cls-11 {
        fill: #9b9a9a;
      }

      .cls-10 {
        opacity: .74;
      }

      .cls-7 {
        stroke-dasharray: 5.67;
      }
    </style>
  </defs>
  <g>
    <rect class="cls-8" x="60.24" y="33.24" width="124" height="115"/>
    <polyline class="cls-8" points="58.24 33.24 58.24 33.24 59.74 148.74 37.29 181.38 38.74 63.74 60.24 33.24"/>
    <line class="cls-6" x1="184.74" y1="33.74" x2="59.74" y2="33.74"/>
    <line class="cls-6" x1="161.74" y1="63.74" x2="184.74" y2="33.74"/>
    <line class="cls-6" x1="165.74" y1="183.74" x2="185.74" y2="149.74"/>
    <line class="cls-6" x1="184.74" y1="33.74" x2="184.74" y2="149.74"/>
    <line class="cls-7" x1="59.74" y1="33.74" x2="59.74" y2="148.74"/>
    <line class="cls-6" x1="38.5" y1="63.19" x2="61.5" y2="33.19"/>
    <line class="cls-7" x1="184.74" y1="148.74" x2="57.74" y2="148.74"/>
    <polyline class="cls-7" points="59.74 148.74 39.74 179.74 59.74 148.74"/>
    <polygon class="cls-8" points="59.74 33.74 39.82 63.3 163.37 64.06 185 32.7 59.74 33.74"/>
    <polyline class="cls-8" points="38.37 181.06 59.74 148.74 184.74 149.74 164.74 180.74"/>
    <polygon class="cls-8" points="163.37 64.06 183.96 34.67 182.9 152.25 162.75 181.27 163.37 64.06"/>
    <g>
      <circle class="cls-1" cx="59.49" cy="32.49" r="7.75"/>
      <path class="cls-9" d="M61.27,32.88h-2.62v2.43h2.92v.73h-3.79v-6.74h3.64v.73h-2.77v2.13h2.62v.72Z"/>
    </g>
    <g>
      <circle class="cls-1" cx="184.37" cy="149.06" r="7.75"/>
      <path class="cls-9" d="M182.9,146.19v2.54h2.93v-2.54h.79v6.07h-.79v-2.84h-2.93v2.84h-.78v-6.07h.78Z"/>
    </g>
    <g>
      <circle class="cls-1" cx="58.37" cy="149.06" r="7.75"/>
      <path class="cls-9" d="M56.69,145.87h3.63v.73h-2.76v2.24h2.55v.72h-2.55v3.05h-.87v-6.74Z"/>
    </g>
    <g>
      <circle class="cls-1" cx="183.37" cy="32.06" r="7.75"/>
      <path class="cls-9" d="M185.76,34.98c-.35.13-1.04.33-1.86.33-.92,0-1.67-.23-2.27-.8-.52-.5-.85-1.31-.85-2.26,0-1.81,1.25-3.13,3.29-3.13.7,0,1.25.15,1.51.28l-.19.64c-.32-.14-.73-.26-1.34-.26-1.48,0-2.44.92-2.44,2.44s.93,2.45,2.34,2.45c.51,0,.86-.07,1.04-.16v-1.81h-1.23v-.63h2v2.92Z"/>
    </g>
    <polygon class="cls-10" points="68.22 88.55 69.56 124.64 91.62 123.64 91 144.28 128.67 142.87 134.89 133.68 133.76 99.7 113.22 100.62 112.82 79.66 75.78 79.66 68.22 88.55"/>
    <g>
      <line class="cls-3" x1="134.6" y1="99.31" x2="97.55" y2="99.31"/>
      <line class="cls-3" x1="127.78" y1="108.2" x2="134.6" y2="99.31"/>
      <line class="cls-3" x1="128.97" y1="143.76" x2="134.89" y2="133.68"/>
      <line class="cls-3" x1="134.6" y1="99.31" x2="134.6" y2="133.68"/>
      <line class="cls-3" x1="97.55" y1="99.31" x2="97.55" y2="133.39"/>
      <line class="cls-3" x1="91.26" y1="108.03" x2="98.07" y2="99.14"/>
      <line class="cls-3" x1="134.6" y1="133.39" x2="96.96" y2="133.39"/>
      <polyline class="cls-3" points="97.55 133.39 91.62 142.57 97.55 133.39"/>
      <rect class="cls-3" x="91.33" y="108.2" width="37.34" height="34.67"/>
      <circle class="cls-1" cx="97.5" cy="99.05" r="3.72"/>
      <circle class="cls-1" cx="136" cy="133.28" r="3.72"/>
      <circle class="cls-1" cx="128" cy="143.28" r="3.72"/>
      <circle class="cls-1" cx="91" cy="144.28" r="3.72"/>
      <circle class="cls-1" cx="98" cy="133.28" r="3.72"/>
      <circle class="cls-1" cx="129" cy="109.28" r="3.72"/>
      <circle class="cls-1" cx="90" cy="108.28" r="3.72"/>
      <circle class="cls-1" cx="135" cy="99.28" r="3.72"/>
    </g>
    <g>
      <line class="cls-3" x1="112.82" y1="79.66" x2="75.78" y2="79.66"/>
      <line class="cls-3" x1="106.01" y1="88.55" x2="112.82" y2="79.66"/>
      <line class="cls-3" x1="107.19" y1="124.12" x2="113.12" y2="114.04"/>
      <line class="cls-3" x1="112.82" y1="79.66" x2="112.82" y2="114.04"/>
      <line class="cls-3" x1="75.78" y1="79.66" x2="75.78" y2="113.74"/>
      <line class="cls-3" x1="69.48" y1="88.39" x2="76.3" y2="79.5"/>
      <line class="cls-3" x1="112.82" y1="113.74" x2="75.19" y2="113.74"/>
      <polyline class="cls-3" points="75.78 113.74 69.85 122.93 75.78 113.74"/>
      <rect class="cls-3" x="69.56" y="88.55" width="37.34" height="34.67"/>
      <circle class="cls-1" cx="75.72" cy="79.41" r="3.72"/>
      <circle class="cls-1" cx="114.22" cy="113.64" r="3.72"/>
      <circle class="cls-1" cx="106.22" cy="123.64" r="3.72"/>
      <circle class="cls-1" cx="69.22" cy="124.64" r="3.72"/>
      <circle class="cls-1" cx="76.22" cy="113.64" r="3.72"/>
      <circle class="cls-1" cx="107.22" cy="89.64" r="3.72"/>
      <circle class="cls-1" cx="68.22" cy="88.64" r="3.72"/>
      <circle class="cls-1" cx="113.22" cy="79.64" r="3.72"/>
    </g>
    <rect class="cls-8" x="39.76" y="63.7" width="124" height="115"/>
    <rect class="cls-6" x="38.74" y="63.74" width="126" height="117"/>
    <g>
      <circle class="cls-1" cx="39.49" cy="64.49" r="7.75"/>
      <path class="cls-9" d="M38.28,65.92l-.7,2.12h-.9l2.29-6.74h1.05l2.3,6.74h-.93l-.72-2.12h-2.39ZM40.48,65.24l-.66-1.94c-.15-.44-.25-.84-.35-1.23h-.02c-.1.4-.21.81-.34,1.22l-.66,1.95h2.03Z"/>
    </g>
    <g>
      <circle class="cls-1" cx="164.37" cy="181.06" r="7.75"/>
      <path class="cls-9" d="M166.94,184.39c-.32.16-.96.32-1.78.32-1.9,0-3.33-1.2-3.33-3.41s1.43-3.54,3.52-3.54c.84,0,1.37.18,1.6.3l-.21.71c-.33-.16-.8-.28-1.36-.28-1.58,0-2.63,1.01-2.63,2.78,0,1.65.95,2.71,2.59,2.71.53,0,1.07-.11,1.42-.28l.18.69Z"/>
    </g>
    <g>
      <circle class="cls-1" cx="38.37" cy="181.06" r="7.75"/>
      <path class="cls-9" d="M36.42,177.96c.38-.08.98-.14,1.59-.14.87,0,1.43.15,1.85.49.35.26.56.66.56,1.19,0,.65-.43,1.22-1.14,1.48v.02c.64.16,1.39.69,1.39,1.69,0,.58-.23,1.02-.57,1.35-.47.43-1.23.63-2.33.63-.6,0-1.06-.04-1.35-.08v-6.63ZM37.29,180.72h.79c.92,0,1.46-.48,1.46-1.13,0-.79-.6-1.1-1.48-1.1-.4,0-.63.03-.77.06v2.17ZM37.29,183.95c.17.03.42.04.73.04.9,0,1.73-.33,1.73-1.31,0-.92-.79-1.3-1.74-1.3h-.72v2.57Z"/>
    </g>
    <g>
      <circle class="cls-1" cx="163.37" cy="64.06" r="7.75"/>
      <path class="cls-9" d="M161.06,61.27c.48-.07,1.04-.13,1.67-.13,1.13,0,1.93.26,2.46.76.54.5.85,1.2.85,2.18s-.31,1.8-.87,2.36c-.57.57-1.5.87-2.68.87-.56,0-1.03-.03-1.42-.07v-5.97ZM161.84,66.63c.2.04.49.04.79.04,1.67,0,2.58-.94,2.58-2.57,0-1.43-.8-2.34-2.46-2.34-.41,0-.71.04-.92.08v4.79Z"/>
    </g>
  </g>
  <g>
    <rect class="cls-8" x="372.87" y="25.65" width="124" height="115"/>
    <polyline class="cls-8" points="370.87 25.65 370.87 25.65 372.37 141.15 349.92 173.79 351.37 56.15 372.87 25.65"/>
    <line class="cls-6" x1="497.37" y1="26.15" x2="372.37" y2="26.15"/>
    <line class="cls-6" x1="474.37" y1="56.15" x2="497.37" y2="26.15"/>
    <line class="cls-6" x1="478.37" y1="176.15" x2="498.37" y2="142.15"/>
    <line class="cls-6" x1="497.37" y1="26.15" x2="497.37" y2="142.15"/>
    <line class="cls-7" x1="372.37" y1="26.15" x2="372.37" y2="141.15"/>
    <line class="cls-6" x1="351.13" y1="55.59" x2="374.13" y2="25.59"/>
    <line class="cls-7" x1="497.37" y1="141.15" x2="370.37" y2="141.15"/>
    <polyline class="cls-7" points="372.37 141.15 352.37 172.15 372.37 141.15"/>
    <polygon class="cls-8" points="372.37 26.15 352.46 55.71 476 56.47 497.63 25.1 372.37 26.15"/>
    <polyline class="cls-8" points="351 173.47 372.37 141.15 497.37 142.15 477.37 173.15"/>
    <polygon class="cls-8" points="476 56.47 496.59 27.08 495.53 144.66 475.38 173.68 476 56.47"/>
    <g>
      <circle class="cls-1" cx="372.12" cy="24.9" r="7.75"/>
      <path class="cls-9" d="M373.91,25.29h-2.62v2.43h2.92v.73h-3.79v-6.74h3.64v.73h-2.77v2.13h2.62v.72Z"/>
    </g>
    <g>
      <circle class="cls-1" cx="497" cy="141.47" r="7.75"/>
      <path class="cls-9" d="M495.53,138.59v2.54h2.93v-2.54h.79v6.07h-.79v-2.84h-2.93v2.84h-.78v-6.07h.78Z"/>
    </g>
    <g>
      <circle class="cls-1" cx="371" cy="141.47" r="7.75"/>
      <path class="cls-9" d="M369.32,138.28h3.63v.73h-2.76v2.24h2.55v.72h-2.55v3.05h-.87v-6.74Z"/>
    </g>
    <g>
      <circle class="cls-1" cx="496" cy="24.47" r="7.75"/>
      <path class="cls-9" d="M498.4,27.39c-.35.13-1.04.33-1.86.33-.92,0-1.67-.23-2.27-.8-.52-.5-.85-1.31-.85-2.26,0-1.81,1.25-3.13,3.29-3.13.7,0,1.25.15,1.51.28l-.19.64c-.32-.14-.73-.26-1.34-.26-1.48,0-2.44.92-2.44,2.44s.93,2.45,2.34,2.45c.51,0,.86-.07,1.04-.16v-1.81h-1.23v-.63h2v2.92Z"/>
    </g>
    <g>
      <line class="cls-3" x1="388.41" y1="72.07" x2="388.41" y2="106.15"/>
      <line class="cls-2" x1="404.63" y1="136.69" x2="411.13" y2="127.3"/>
      <polyline class="cls-3" points="388.41 106.15 382.48 115.34 388.41 106.15"/>
      <line class="cls-2" x1="402.98" y1="117.05" x2="411.63" y2="105.77"/>
      <polygon class="cls-10" points="381.26 82.2 388.41 72.07 425.45 72.07 425.45 92.05 449.63 92.69 449.63 126.69 441.63 137.69 404.04 138.28 402.98 117.05 381.86 117.64 381.26 82.2"/>
      <line class="cls-3" x1="425.45" y1="72.07" x2="425.26" y2="93.2"/>
      <line class="cls-3" x1="425.45" y1="72.07" x2="388.41" y2="72.07"/>
      <polyline class="cls-2" points="390.26 105.2 411.63 105.77 411.63 126.69 449.63 126.69 448.26 93.2 426.59 92.05"/>
      <line class="cls-3" x1="418.64" y1="80.96" x2="425.45" y2="72.07"/>
      <line class="cls-3" x1="382.12" y1="80.8" x2="388.93" y2="71.9"/>
      <line class="cls-2" x1="419.86" y1="102.69" x2="425.45" y2="92.05"/>
      <line class="cls-2" x1="441.63" y1="102.05" x2="448.63" y2="92.05"/>
      <line class="cls-2" x1="441.63" y1="136.69" x2="449.63" y2="126.69"/>
      <path class="cls-2" d="M381.26,82.2c.2,11.81.39,23.62.59,35.44l21.77-.59.41,21.23,37.59-.59v-35.64l-22.57.69-.13-20.1c-12.56-.14-25.11-.29-37.67-.43Z"/>
      <circle class="cls-1" cx="388.35" cy="71.81" r="3.72"/>
      <circle class="cls-1" cx="425.86" cy="92.05" r="3.72"/>
      <circle class="cls-1" cx="419.86" cy="102.05" r="3.72"/>
      <circle class="cls-1" cx="381.86" cy="117.05" r="3.72"/>
      <circle class="cls-1" cx="388.86" cy="106.05" r="3.72"/>
      <circle class="cls-1" cx="419.86" cy="82.05" r="3.72"/>
      <circle class="cls-1" cx="380.86" cy="81.05" r="3.72"/>
      <circle class="cls-1" cx="425.86" cy="72.05" r="3.72"/>
      <circle class="cls-1" cx="411.13" cy="106.46" r="3.72"/>
      <circle class="cls-1" cx="449.63" cy="126.69" r="3.72"/>
      <circle class="cls-1" cx="441.63" cy="136.69" r="3.72"/>
      <circle class="cls-1" cx="404.63" cy="137.69" r="3.72"/>
      <circle class="cls-1" cx="411.63" cy="126.69" r="3.72"/>
      <circle class="cls-1" cx="442.63" cy="102.69" r="3.72"/>
      <circle class="cls-1" cx="403.63" cy="115.69" r="3.72"/>
      <circle class="cls-1" cx="448.63" cy="92.69" r="3.72"/>
    </g>
    <rect class="cls-8" x="352.39" y="56.11" width="124" height="115"/>
    <rect class="cls-6" x="351.37" y="56.15" width="126" height="117"/>
    <g>
      <circle class="cls-1" cx="352.12" cy="56.9" r="7.75"/>
      <path class="cls-9" d="M350.91,58.33l-.7,2.12h-.9l2.29-6.74h1.05l2.3,6.74h-.93l-.72-2.12h-2.39ZM353.12,57.65l-.66-1.94c-.15-.44-.25-.84-.35-1.23h-.02c-.1.4-.21.81-.34,1.22l-.66,1.95h2.03Z"/>
    </g>
    <g>
      <circle class="cls-1" cx="477" cy="173.47" r="7.75"/>
      <path class="cls-9" d="M479.57,176.8c-.32.16-.96.32-1.78.32-1.9,0-3.33-1.2-3.33-3.41s1.43-3.54,3.52-3.54c.84,0,1.37.18,1.6.3l-.21.71c-.33-.16-.8-.28-1.36-.28-1.58,0-2.63,1.01-2.63,2.78,0,1.65.95,2.71,2.59,2.71.53,0,1.07-.11,1.42-.28l.18.69Z"/>
    </g>
    <g>
      <circle class="cls-1" cx="351" cy="173.47" r="7.75"/>
      <path class="cls-9" d="M349.05,170.37c.38-.08.98-.14,1.59-.14.87,0,1.43.15,1.85.49.35.26.56.66.56,1.19,0,.65-.43,1.22-1.14,1.48v.02c.64.16,1.39.69,1.39,1.69,0,.58-.23,1.02-.57,1.35-.47.43-1.23.63-2.33.63-.6,0-1.06-.04-1.35-.08v-6.63ZM349.92,173.13h.79c.92,0,1.46-.48,1.46-1.13,0-.79-.6-1.1-1.48-1.1-.4,0-.63.03-.77.06v2.17ZM349.92,176.36c.17.03.42.04.73.04.9,0,1.73-.33,1.73-1.31,0-.92-.79-1.3-1.74-1.3h-.72v2.57Z"/>
    </g>
    <g>
      <circle class="cls-1" cx="476" cy="56.47" r="7.75"/>
      <path class="cls-9" d="M473.69,53.67c.48-.07,1.04-.13,1.67-.13,1.12,0,1.93.26,2.46.76.54.5.85,1.2.85,2.18s-.31,1.8-.87,2.36c-.57.57-1.5.87-2.68.87-.56,0-1.03-.03-1.42-.07v-5.97ZM474.47,59.04c.2.04.49.04.79.04,1.67,0,2.58-.94,2.58-2.57,0-1.43-.8-2.34-2.46-2.34-.41,0-.71.04-.92.08v4.79Z"/>
    </g>
  </g>
  <g>
    <rect class="cls-8" x="57.15" y="252.67" width="124" height="115"/>
    <polyline class="cls-8" points="55.15 252.67 55.15 252.67 56.65 368.17 34.2 400.81 35.65 283.17 57.15 252.67"/>
    <line class="cls-6" x1="181.65" y1="253.17" x2="56.65" y2="253.17"/>
    <line class="cls-6" x1="158.65" y1="283.17" x2="181.65" y2="253.17"/>
    <line class="cls-6" x1="162.65" y1="403.17" x2="182.65" y2="369.17"/>
    <line class="cls-6" x1="181.65" y1="253.17" x2="181.65" y2="369.17"/>
    <line class="cls-7" x1="56.65" y1="253.17" x2="56.65" y2="368.17"/>
    <line class="cls-6" x1="35.42" y1="282.62" x2="58.42" y2="252.62"/>
    <line class="cls-7" x1="181.65" y1="368.17" x2="54.65" y2="368.17"/>
    <polyline class="cls-7" points="56.65 368.17 36.65 399.17 56.65 368.17"/>
    <polygon class="cls-8" points="56.65 253.17 36.74 282.73 160.29 283.49 181.92 252.13 56.65 253.17"/>
    <polyline class="cls-8" points="35.29 400.49 56.65 368.17 181.65 369.17 161.65 400.17"/>
    <polygon class="cls-8" points="160.29 283.49 180.87 254.1 179.82 371.69 159.67 400.7 160.29 283.49"/>
    <g>
      <circle class="cls-1" cx="56.4" cy="251.92" r="7.75"/>
      <path class="cls-9" d="M58.19,252.31h-2.62v2.43h2.92v.73h-3.79v-6.74h3.64v.73h-2.77v2.13h2.62v.72Z"/>
    </g>
    <g>
      <circle class="cls-1" cx="181.29" cy="368.49" r="7.75"/>
      <path class="cls-9" d="M179.82,365.62v2.54h2.93v-2.54h.79v6.07h-.79v-2.84h-2.93v2.84h-.78v-6.07h.78Z"/>
    </g>
    <g>
      <circle class="cls-1" cx="55.29" cy="368.49" r="7.75"/>
      <path class="cls-9" d="M53.61,365.31h3.63v.73h-2.76v2.24h2.55v.72h-2.55v3.05h-.87v-6.74Z"/>
    </g>
    <g>
      <circle class="cls-1" cx="180.29" cy="251.49" r="7.75"/>
      <path class="cls-9" d="M182.68,254.42c-.35.13-1.04.33-1.86.33-.92,0-1.67-.23-2.27-.8-.52-.5-.85-1.31-.85-2.26,0-1.81,1.25-3.13,3.29-3.13.7,0,1.25.15,1.51.28l-.19.64c-.32-.14-.73-.26-1.34-.26-1.48,0-2.44.92-2.44,2.44s.93,2.45,2.34,2.45c.51,0,.86-.07,1.04-.16v-1.81h-1.23v-.63h2v2.92Z"/>
    </g>
    <path class="cls-10" d="M148.76,332.7v-35l-75.04,1-7.55,8.89,1.33,36.09c7.16-.46,27.72.22,35.27.02,18.43-.48,22.67-1.06,39,0"/>
    <g>
      <line class="cls-3" x1="148.26" y1="299.2" x2="72.7" y2="299.09"/>
      <line class="cls-3" x1="102.92" y1="307.99" x2="109.74" y2="299.09"/>
      <line class="cls-3" x1="104.11" y1="343.55" x2="110.04" y2="333.47"/>
      <line class="cls-3" x1="109.74" y1="299.09" x2="109.74" y2="333.47"/>
      <line class="cls-3" x1="72.7" y1="299.09" x2="72.7" y2="333.18"/>
      <line class="cls-3" x1="66.4" y1="307.82" x2="73.22" y2="298.93"/>
      <line class="cls-3" x1="148.26" y1="333.2" x2="72.1" y2="333.18"/>
      <polyline class="cls-3" points="72.7 333.18 66.77 342.36 72.7 333.18"/>
      <rect class="cls-3" x="66.47" y="307.99" width="37.34" height="34.67"/>
      <rect class="cls-3" x="103.66" y="308.73" width="37.34" height="34.67"/>
      <line class="cls-3" x1="148.7" y1="298.75" x2="148.7" y2="332.83"/>
      <line class="cls-3" x1="140.72" y1="307.81" x2="147.54" y2="298.92"/>
      <line class="cls-3" x1="141.91" y1="343.37" x2="147.84" y2="333.29"/>
      <circle class="cls-1" cx="72.64" cy="298.84" r="3.72"/>
      <circle class="cls-1" cx="111.14" cy="333.07" r="3.72"/>
      <circle class="cls-1" cx="103.14" cy="343.07" r="3.72"/>
      <circle class="cls-1" cx="66.14" cy="344.07" r="3.72"/>
      <circle class="cls-1" cx="73.14" cy="333.07" r="3.72"/>
      <circle class="cls-1" cx="104.14" cy="309.07" r="3.72"/>
      <circle class="cls-1" cx="65.14" cy="308.07" r="3.72"/>
      <circle class="cls-1" cx="110.14" cy="299.07" r="3.72"/>
      <circle class="cls-1" cx="148.96" cy="332.46" r="3.72"/>
      <circle class="cls-1" cx="140.96" cy="342.46" r="3.72"/>
      <circle class="cls-1" cx="141.96" cy="308.46" r="3.72"/>
      <circle class="cls-1" cx="147.96" cy="298.46" r="3.72"/>
    </g>
    <rect class="cls-8" x="37.76" y="282.7" width="124" height="115"/>
    <rect class="cls-6" x="35.65" y="283.17" width="126" height="117"/>
    <g>
      <circle class="cls-1" cx="36.4" cy="283.92" r="7.75"/>
      <path class="cls-9" d="M35.19,285.35l-.7,2.12h-.9l2.29-6.74h1.05l2.3,6.74h-.93l-.72-2.12h-2.39ZM37.4,284.67l-.66-1.94c-.15-.44-.25-.84-.35-1.23h-.02c-.1.4-.21.81-.34,1.22l-.66,1.95h2.03Z"/>
    </g>
    <g>
      <circle class="cls-1" cx="161.29" cy="400.49" r="7.75"/>
      <path class="cls-9" d="M163.85,403.82c-.32.16-.96.32-1.78.32-1.9,0-3.33-1.2-3.33-3.41s1.43-3.54,3.52-3.54c.84,0,1.37.18,1.6.3l-.21.71c-.33-.16-.8-.28-1.36-.28-1.58,0-2.63,1.01-2.63,2.78,0,1.65.95,2.71,2.59,2.71.53,0,1.07-.11,1.42-.28l.18.69Z"/>
    </g>
    <g>
      <circle class="cls-1" cx="35.29" cy="400.49" r="7.75"/>
      <path class="cls-9" d="M33.34,397.4c.38-.08.98-.14,1.59-.14.87,0,1.43.15,1.85.49.35.26.56.66.56,1.19,0,.65-.43,1.22-1.14,1.48v.02c.64.16,1.39.69,1.39,1.69,0,.58-.23,1.02-.57,1.35-.47.43-1.23.63-2.33.63-.6,0-1.06-.04-1.35-.08v-6.63ZM34.21,400.15h.79c.92,0,1.46-.48,1.46-1.13,0-.79-.6-1.1-1.48-1.1-.4,0-.63.03-.77.06v2.17ZM34.21,403.38c.17.03.42.04.73.04.9,0,1.73-.33,1.73-1.31,0-.92-.79-1.3-1.74-1.3h-.72v2.57Z"/>
    </g>
    <g>
      <circle class="cls-1" cx="160.29" cy="283.49" r="7.75"/>
      <path class="cls-9" d="M157.97,280.7c.48-.07,1.04-.13,1.67-.13,1.12,0,1.93.26,2.46.76.54.5.85,1.2.85,2.18s-.31,1.8-.87,2.36c-.57.57-1.5.87-2.68.87-.56,0-1.03-.03-1.42-.07v-5.97ZM158.76,286.07c.2.04.49.04.79.04,1.67,0,2.58-.94,2.58-2.57,0-1.43-.8-2.34-2.46-2.34-.41,0-.71.04-.92.08v4.79Z"/>
    </g>
  </g>
  <g>
    <rect class="cls-8" x="370.84" y="246.51" width="124" height="115"/>
    <polyline class="cls-8" points="368.84 246.51 368.84 246.51 370.34 362.01 347.89 394.65 349.34 277.01 370.84 246.51"/>
    <line class="cls-6" x1="495.34" y1="247.01" x2="370.34" y2="247.01"/>
    <line class="cls-6" x1="472.34" y1="277.01" x2="495.34" y2="247.01"/>
    <line class="cls-6" x1="476.34" y1="397.01" x2="496.34" y2="363.01"/>
    <line class="cls-6" x1="495.34" y1="247.01" x2="495.34" y2="363.01"/>
    <line class="cls-7" x1="370.34" y1="247.01" x2="370.34" y2="362.01"/>
    <line class="cls-6" x1="349.1" y1="276.45" x2="372.1" y2="246.45"/>
    <line class="cls-7" x1="495.34" y1="362.01" x2="368.34" y2="362.01"/>
    <polyline class="cls-7" points="370.34 362.01 350.34 393.01 370.34 362.01"/>
    <polygon class="cls-8" points="370.34 247.01 350.43 276.57 473.97 277.33 495.6 245.97 370.34 247.01"/>
    <polyline class="cls-8" points="348.97 394.33 370.34 362.01 495.34 363.01 475.34 394.01"/>
    <polygon class="cls-8" points="473.97 277.33 494.56 247.94 493.51 365.52 473.35 394.54 473.97 277.33"/>
    <g>
      <circle class="cls-1" cx="370.09" cy="245.76" r="7.75"/>
      <path class="cls-9" d="M371.88,246.15h-2.62v2.43h2.92v.73h-3.79v-6.74h3.64v.73h-2.77v2.13h2.62v.72Z"/>
    </g>
    <g>
      <circle class="cls-1" cx="494.97" cy="362.33" r="7.75"/>
      <path class="cls-9" d="M493.51,359.45v2.54h2.93v-2.54h.79v6.07h-.79v-2.84h-2.93v2.84h-.78v-6.07h.78Z"/>
    </g>
    <g>
      <circle class="cls-1" cx="368.97" cy="362.33" r="7.75"/>
      <path class="cls-9" d="M367.3,359.14h3.63v.73h-2.76v2.24h2.55v.72h-2.55v3.05h-.87v-6.74Z"/>
    </g>
    <g>
      <circle class="cls-1" cx="493.97" cy="245.33" r="7.75"/>
      <path class="cls-9" d="M496.37,248.25c-.35.13-1.04.33-1.86.33-.92,0-1.67-.23-2.27-.8-.52-.5-.85-1.31-.85-2.26,0-1.81,1.25-3.13,3.29-3.13.7,0,1.25.15,1.51.28l-.19.64c-.32-.14-.73-.26-1.34-.26-1.48,0-2.44.92-2.44,2.44s.93,2.45,2.34,2.45c.51,0,.86-.07,1.04-.16v-1.81h-1.23v-.63h2v2.92Z"/>
    </g>
    <path class="cls-10" d="M462.45,326.54v-35l-75.04,1-7.55,8.89,1.33,36.09c7.16-.46,27.72.22,35.27.02,18.43-.48,22.67-1.06,39,0"/>
    <g>
      <line class="cls-3" x1="461.95" y1="293.04" x2="386.38" y2="292.93"/>
      <line class="cls-3" x1="386.38" y1="292.93" x2="386.38" y2="327.01"/>
      <line class="cls-3" x1="380.09" y1="301.66" x2="386.91" y2="292.77"/>
      <line class="cls-3" x1="461.95" y1="327.04" x2="385.79" y2="327.01"/>
      <polyline class="cls-3" points="386.38 327.01 380.46 336.2 386.38 327.01"/>
      <rect class="cls-3" x="379.26" y="302.57" width="75.42" height="34.67"/>
      <line class="cls-3" x1="462.39" y1="292.59" x2="462.39" y2="326.67"/>
      <line class="cls-3" x1="454.41" y1="301.64" x2="461.23" y2="292.75"/>
      <line class="cls-3" x1="455.6" y1="337.2" x2="461.52" y2="327.13"/>
      <circle class="cls-1" cx="386.33" cy="292.67" r="3.72"/>
      <circle class="cls-1" cx="379.83" cy="337.91" r="3.72"/>
      <circle class="cls-1" cx="386.83" cy="326.91" r="3.72"/>
      <circle class="cls-1" cx="378.83" cy="301.91" r="3.72"/>
      <circle class="cls-1" cx="462.65" cy="326.29" r="3.72"/>
      <circle class="cls-1" cx="454.65" cy="336.29" r="3.72"/>
      <circle class="cls-1" cx="455.65" cy="302.29" r="3.72"/>
      <circle class="cls-1" cx="461.65" cy="292.29" r="3.72"/>
    </g>
    <rect class="cls-8" x="351.45" y="276.54" width="124" height="115"/>
    <rect class="cls-6" x="349.34" y="277.01" width="126" height="117"/>
    <g>
      <circle class="cls-1" cx="350.09" cy="277.76" r="7.75"/>
      <path class="cls-9" d="M348.88,279.19l-.7,2.12h-.9l2.29-6.74h1.05l2.3,6.74h-.93l-.72-2.12h-2.39ZM351.09,278.51l-.66-1.94c-.15-.44-.25-.84-.35-1.23h-.02c-.1.4-.21.81-.34,1.22l-.66,1.95h2.03Z"/>
    </g>
    <g>
      <circle class="cls-1" cx="474.97" cy="394.33" r="7.75"/>
      <path class="cls-9" d="M477.54,397.66c-.32.16-.96.32-1.78.32-1.9,0-3.33-1.2-3.33-3.41s1.43-3.54,3.52-3.54c.84,0,1.37.18,1.6.3l-.21.71c-.33-.16-.8-.28-1.36-.28-1.58,0-2.63,1.01-2.63,2.78,0,1.65.95,2.71,2.59,2.71.53,0,1.07-.11,1.42-.28l.18.69Z"/>
    </g>
    <g>
      <circle class="cls-1" cx="348.97" cy="394.33" r="7.75"/>
      <path class="cls-9" d="M347.02,391.23c.38-.08.98-.14,1.59-.14.87,0,1.43.15,1.85.49.35.26.56.66.56,1.19,0,.65-.43,1.22-1.14,1.48v.02c.64.16,1.39.69,1.39,1.69,0,.58-.23,1.02-.57,1.35-.47.43-1.23.63-2.33.63-.6,0-1.06-.04-1.35-.08v-6.63ZM347.89,393.99h.79c.92,0,1.46-.48,1.46-1.13,0-.79-.6-1.1-1.48-1.1-.4,0-.63.03-.77.06v2.17ZM347.89,397.22c.17.03.42.04.73.04.9,0,1.73-.33,1.73-1.31,0-.92-.79-1.3-1.74-1.3h-.72v2.57Z"/>
    </g>
    <g>
      <circle class="cls-1" cx="473.97" cy="277.33" r="7.75"/>
      <path class="cls-9" d="M471.66,274.54c.48-.07,1.04-.13,1.67-.13,1.12,0,1.93.26,2.46.76.54.5.85,1.2.85,2.18s-.31,1.8-.87,2.36c-.57.57-1.5.87-2.68.87-.56,0-1.03-.03-1.42-.07v-5.97ZM472.44,279.9c.2.04.49.04.79.04,1.67,0,2.58-.94,2.58-2.57,0-1.43-.8-2.34-2.46-2.34-.41,0-.71.04-.92.08v4.79Z"/>
    </g>
  </g>
  <g>
    <g>
      <line class="cls-4" x1="200.76" y1="210.2" x2="308.42" y2="210.2"/>
      <polygon class="cls-11" points="304.29 224.34 328.76 210.2 304.29 196.07 304.29 224.34"/>
    </g>
    <g>
      <rect class="cls-5" x="204.81" y="201.27" width="94.96" height="17.93"/>
      <path class="cls-1" d="M217.8,201.67c.34-.07.88-.13,1.43-.13.78,0,1.29.13,1.67.44.32.23.5.59.5,1.07,0,.58-.39,1.1-1.03,1.33v.02c.58.14,1.25.62,1.25,1.52,0,.52-.21.92-.51,1.22-.42.39-1.11.57-2.1.57-.54,0-.95-.04-1.21-.07v-5.97ZM218.59,204.15h.71c.83,0,1.31-.43,1.31-1.02,0-.71-.54-.99-1.33-.99-.36,0-.57.03-.69.05v1.95ZM218.59,207.06c.15.03.38.04.66.04.81,0,1.56-.3,1.56-1.18,0-.83-.71-1.17-1.57-1.17h-.65v2.31Z"/>
      <path class="cls-1" d="M226.63,205.44c0,1.61-1.12,2.31-2.17,2.31-1.18,0-2.09-.86-2.09-2.24,0-1.46.95-2.31,2.16-2.31s2.1.91,2.1,2.24ZM223.18,205.49c0,.95.55,1.67,1.32,1.67s1.32-.71,1.32-1.69c0-.74-.37-1.67-1.31-1.67s-1.34.86-1.34,1.69Z"/>
      <path class="cls-1" d="M231.57,205.44c0,1.61-1.12,2.31-2.17,2.31-1.18,0-2.09-.86-2.09-2.24,0-1.46.95-2.31,2.16-2.31s2.1.91,2.1,2.24ZM228.12,205.49c0,.95.55,1.67,1.32,1.67s1.32-.71,1.32-1.69c0-.74-.37-1.67-1.31-1.67s-1.34.86-1.34,1.69Z"/>
      <path class="cls-1" d="M232.57,201.26h.79v6.39h-.79v-6.39Z"/>
      <path class="cls-1" d="M235.14,205.62c.02,1.07.7,1.51,1.49,1.51.57,0,.91-.1,1.21-.22l.14.57c-.28.13-.76.27-1.45.27-1.34,0-2.14-.88-2.14-2.2s.77-2.35,2.04-2.35c1.42,0,1.8,1.25,1.8,2.05,0,.16-.02.29-.03.37h-3.06ZM237.46,205.05c0-.5-.21-1.29-1.1-1.29-.8,0-1.15.74-1.21,1.29h2.31Z"/>
      <path class="cls-1" d="M241.62,207.66l-.06-.55h-.03c-.24.34-.71.65-1.33.65-.88,0-1.33-.62-1.33-1.25,0-1.05.94-1.63,2.62-1.62v-.09c0-.36-.1-1.01-.99-1.01-.41,0-.83.13-1.13.32l-.18-.52c.36-.23.88-.39,1.43-.39,1.33,0,1.66.91,1.66,1.78v1.63c0,.38.02.75.07,1.04h-.72ZM241.5,205.43c-.86-.02-1.85.13-1.85.98,0,.51.34.76.75.76.57,0,.93-.36,1.05-.73.03-.08.04-.17.04-.25v-.76Z"/>
      <path class="cls-1" d="M243.54,204.48c0-.45,0-.82-.04-1.18h.7l.04.72h.02c.22-.41.72-.82,1.44-.82.6,0,1.54.36,1.54,1.85v2.6h-.79v-2.51c0-.7-.26-1.29-1.01-1.29-.52,0-.93.37-1.06.81-.04.1-.05.23-.05.37v2.62h-.79v-3.18Z"/>
      <path class="cls-1" d="M254.21,201.26v5.27c0,.39,0,.83.04,1.12h-.71l-.04-.76h-.02c-.24.49-.77.86-1.49.86-1.05,0-1.86-.89-1.86-2.21,0-1.45.89-2.34,1.95-2.34.67,0,1.12.32,1.31.67h.02v-2.6h.79ZM253.42,205.07c0-.1,0-.23-.04-.33-.12-.5-.55-.92-1.14-.92-.82,0-1.31.72-1.31,1.68,0,.88.43,1.61,1.29,1.61.53,0,1.02-.35,1.16-.95.03-.11.04-.22.04-.34v-.76Z"/>
      <path class="cls-1" d="M256.4,202.07c0,.27-.19.49-.5.49-.28,0-.48-.21-.48-.49s.21-.5.5-.5.49.22.49.5ZM255.52,207.66v-4.36h.79v4.36h-.79Z"/>
      <path class="cls-1" d="M260.32,207.66v-3.75h-1.83v3.75h-.78v-3.75h-.61v-.6h.61v-.14c0-.61.14-1.14.49-1.49.25-.25.61-.41,1.1-.41.25,0,.49.08.62.15l-.16.58c-.12-.05-.29-.11-.47-.11-.62,0-.79.53-.79,1.22v.19h1.83v-.21c0-.61.14-1.17.51-1.52.3-.29.69-.4,1.05-.4.29,0,.52.06.68.13l-.1.61c-.13-.05-.28-.1-.51-.1-.67,0-.85.59-.85,1.26v.23h1.05v.6h-1.04v3.75h-.79Z"/>
      <path class="cls-1" d="M263.2,205.62c.02,1.07.7,1.51,1.49,1.51.57,0,.91-.1,1.21-.22l.14.57c-.28.13-.76.27-1.45.27-1.34,0-2.14-.88-2.14-2.2s.77-2.35,2.04-2.35c1.42,0,1.8,1.25,1.8,2.05,0,.16-.02.29-.03.37h-3.06ZM265.52,205.05c0-.5-.21-1.29-1.1-1.29-.8,0-1.15.74-1.21,1.29h2.31Z"/>
      <path class="cls-1" d="M267.27,204.66c0-.51,0-.95-.04-1.36h.69l.03.86h.04c.2-.58.68-.95,1.21-.95.09,0,.15,0,.22.03v.75c-.08-.02-.16-.03-.27-.03-.56,0-.96.42-1.06,1.02-.02.11-.04.23-.04.37v2.32h-.78v-3Z"/>
      <path class="cls-1" d="M270.56,205.62c.02,1.07.7,1.51,1.49,1.51.57,0,.91-.1,1.21-.22l.14.57c-.28.13-.76.27-1.45.27-1.34,0-2.14-.88-2.14-2.2s.77-2.35,2.04-2.35c1.42,0,1.8,1.25,1.8,2.05,0,.16-.02.29-.03.37h-3.06ZM272.88,205.05c0-.5-.21-1.29-1.1-1.29-.8,0-1.15.74-1.21,1.29h2.31Z"/>
      <path class="cls-1" d="M274.63,204.48c0-.45,0-.82-.04-1.18h.7l.04.72h.02c.22-.41.72-.82,1.44-.82.6,0,1.54.36,1.54,1.85v2.6h-.79v-2.51c0-.7-.26-1.29-1.01-1.29-.52,0-.93.37-1.06.81-.04.1-.05.23-.05.37v2.62h-.79v-3.18Z"/>
      <path class="cls-1" d="M282.73,207.49c-.21.11-.67.25-1.25.25-1.31,0-2.17-.89-2.17-2.22s.92-2.31,2.34-2.31c.47,0,.88.12,1.1.23l-.18.61c-.19-.11-.49-.21-.92-.21-1,0-1.54.74-1.54,1.65,0,1.01.65,1.63,1.51,1.63.45,0,.75-.12.97-.22l.13.59Z"/>
      <path class="cls-1" d="M284.04,205.62c.02,1.07.7,1.51,1.49,1.51.57,0,.91-.1,1.21-.22l.14.57c-.28.13-.76.27-1.45.27-1.34,0-2.14-.88-2.14-2.2s.77-2.35,2.04-2.35c1.42,0,1.8,1.25,1.8,2.05,0,.16-.02.29-.03.37h-3.06ZM286.37,205.05c0-.5-.21-1.29-1.1-1.29-.8,0-1.15.74-1.21,1.29h2.31Z"/>
    </g>
  </g>
</svg>