<?xml version="1.0" encoding="UTF-8"?>
<svg id="Polygon" xmlns="http://www.w3.org/2000/svg" viewBox="0 0 636.92 343.6">
  <defs>
    <style>
      .cls-1 {
        fill: #c92027;
      }

      .cls-2 {
        fill: #231f20;
      }

      .cls-3 {
        fill: #6dbae7;
        opacity: .31;
      }

      .cls-4 {
        fill: #fff;
      }

      .cls-5 {
        fill: #437898;
        opacity: .51;
      }

      .cls-6 {
        stroke: #9b9a9a;
      }

      .cls-6, .cls-7, .cls-8 {
        fill: none;
      }

      .cls-6, .cls-8 {
        stroke-miterlimit: 10;
        stroke-width: 2.83px;
      }

      .cls-9 {
        fill: #9b9a9a;
      }

      .cls-8 {
        stroke: #437898;
      }

      .cls-10 {
        fill: #39b54a;
      }
    </style>
  </defs>
  <rect class="cls-3" x="33.5" y="120.57" width="145" height="115"/>
  <rect class="cls-8" x="32" y="119.07" width="146" height="117"/>
  <g>
    <g>
      <line class="cls-6" x1="304.5" y1="80.07" x2="412.16" y2="80.07"/>
      <polygon class="cls-9" points="408.03 94.2 432.5 80.07 408.03 65.93 408.03 94.2"/>
    </g>
    <g>
      <rect class="cls-7" x="304.5" y="71.13" width="104" height="17.93"/>
      <path class="cls-2" d="M340.59,71.13v5.27c0,.39,0,.83.04,1.12h-.71l-.04-.76h-.02c-.24.49-.77.86-1.49.86-1.05,0-1.86-.89-1.86-2.21,0-1.45.89-2.34,1.95-2.34.67,0,1.12.32,1.31.67h.02v-2.6h.79ZM339.8,74.94c0-.1,0-.23-.04-.33-.12-.5-.55-.92-1.14-.92-.82,0-1.3.72-1.3,1.68,0,.88.43,1.61,1.29,1.61.53,0,1.02-.35,1.16-.95.03-.11.04-.22.04-.34v-.76Z"/>
      <path class="cls-2" d="M342.34,75.49c.02,1.07.7,1.51,1.49,1.51.57,0,.91-.1,1.21-.22l.14.57c-.28.13-.76.27-1.45.27-1.34,0-2.14-.88-2.14-2.2s.77-2.35,2.04-2.35c1.42,0,1.8,1.25,1.8,2.05,0,.16-.02.29-.03.37h-3.06ZM344.67,74.92c0-.5-.21-1.29-1.1-1.29-.8,0-1.15.74-1.21,1.29h2.31Z"/>
      <path class="cls-2" d="M346.41,71.13h.79v6.39h-.79v-6.39Z"/>
      <path class="cls-2" d="M348.98,75.49c.02,1.07.7,1.51,1.49,1.51.57,0,.91-.1,1.21-.22l.14.57c-.28.13-.76.27-1.45.27-1.34,0-2.14-.88-2.14-2.2s.77-2.35,2.04-2.35c1.42,0,1.8,1.25,1.8,2.05,0,.16-.02.29-.03.37h-3.06ZM351.3,74.92c0-.5-.21-1.29-1.1-1.29-.8,0-1.15.74-1.21,1.29h2.31Z"/>
      <path class="cls-2" d="M354,71.91v1.25h1.13v.6h-1.13v2.35c0,.54.15.85.59.85.21,0,.36-.03.46-.05l.04.59c-.15.06-.4.11-.7.11-.37,0-.67-.12-.86-.33-.23-.23-.31-.62-.31-1.13v-2.38h-.67v-.6h.67v-1.04l.77-.21Z"/>
      <path class="cls-2" d="M356.41,75.49c.02,1.07.7,1.51,1.49,1.51.57,0,.91-.1,1.21-.22l.14.57c-.28.13-.76.27-1.45.27-1.34,0-2.14-.88-2.14-2.2s.77-2.35,2.04-2.35c1.42,0,1.8,1.25,1.8,2.05,0,.16-.02.29-.03.37h-3.06ZM358.73,74.92c0-.5-.21-1.29-1.1-1.29-.8,0-1.15.74-1.21,1.29h2.31Z"/>
      <path class="cls-2" d="M362.39,74.52c0-.51,0-.95-.04-1.36h.69l.03.86h.04c.2-.58.68-.95,1.21-.95.09,0,.15,0,.22.03v.75c-.08-.02-.16-.03-.27-.03-.56,0-.96.42-1.06,1.02-.02.11-.04.23-.04.37v2.32h-.78v-3Z"/>
      <path class="cls-2" d="M366.25,71.94c0,.27-.19.49-.5.49-.28,0-.48-.21-.48-.49s.21-.5.5-.5.49.22.49.5ZM365.37,77.52v-4.36h.79v4.36h-.79Z"/>
      <path class="cls-2" d="M367.47,74.34c0-.45,0-.82-.04-1.18h.7l.04.72h.02c.22-.41.72-.82,1.44-.82.6,0,1.54.36,1.54,1.85v2.6h-.79v-2.51c0-.7-.26-1.29-1.01-1.29-.52,0-.93.37-1.06.81-.04.1-.05.23-.05.37v2.62h-.79v-3.18Z"/>
      <path class="cls-2" d="M376.22,73.16c-.02.32-.04.67-.04,1.2v2.53c0,1-.2,1.61-.62,1.99-.42.4-1.04.52-1.58.52s-1.1-.13-1.45-.36l.2-.6c.29.18.74.34,1.28.34.81,0,1.41-.42,1.41-1.52v-.49h-.02c-.24.4-.71.73-1.39.73-1.08,0-1.85-.92-1.85-2.12,0-1.48.96-2.31,1.96-2.31.76,0,1.17.4,1.36.76h.02l.04-.66h.69ZM375.4,74.89c0-.14,0-.25-.04-.36-.14-.46-.53-.84-1.11-.84-.76,0-1.3.64-1.3,1.65,0,.86.43,1.57,1.29,1.57.49,0,.93-.31,1.1-.81.04-.13.06-.29.06-.42v-.78Z"/>
    </g>
  </g>
  <g>
    <g>
      <circle class="cls-2" cx="32.75" cy="119.82" r="7.75"/>
      <path class="cls-4" d="M31.54,121.25l-.7,2.12h-.9l2.29-6.74h1.05l2.3,6.74h-.93l-.72-2.12h-2.39ZM33.75,120.57l-.66-1.94c-.15-.44-.25-.84-.35-1.23h-.02c-.1.4-.21.81-.34,1.22l-.66,1.95h2.03Z"/>
    </g>
    <g>
      <circle class="cls-2" cx="177.64" cy="236.39" r="7.75"/>
      <path class="cls-4" d="M180.2,239.72c-.32.16-.96.32-1.78.32-1.9,0-3.33-1.2-3.33-3.41s1.43-3.54,3.52-3.54c.84,0,1.37.18,1.6.3l-.21.71c-.33-.16-.8-.28-1.36-.28-1.58,0-2.63,1.01-2.63,2.78,0,1.65.95,2.71,2.59,2.71.53,0,1.07-.11,1.42-.28l.18.69Z"/>
    </g>
    <g>
      <circle class="cls-2" cx="31.64" cy="236.39" r="7.75"/>
      <path class="cls-4" d="M29.69,233.29c.38-.08.98-.14,1.59-.14.87,0,1.43.15,1.85.49.35.26.56.66.56,1.19,0,.65-.43,1.22-1.14,1.48v.02c.64.16,1.39.69,1.39,1.69,0,.58-.23,1.02-.57,1.35-.47.43-1.23.63-2.33.63-.6,0-1.06-.04-1.35-.08v-6.63ZM30.56,236.05h.79c.92,0,1.46-.48,1.46-1.13,0-.79-.6-1.1-1.48-1.1-.4,0-.63.03-.77.06v2.17ZM30.56,239.28c.17.03.42.04.73.04.9,0,1.73-.33,1.73-1.31,0-.92-.79-1.3-1.74-1.3h-.72v2.57Z"/>
    </g>
    <g>
      <circle class="cls-2" cx="177.64" cy="119.39" r="7.75"/>
      <path class="cls-4" d="M175.32,116.6c.48-.07,1.04-.13,1.67-.13,1.13,0,1.93.26,2.46.76.54.5.86,1.2.86,2.18s-.31,1.8-.87,2.36c-.57.57-1.5.87-2.68.87-.56,0-1.03-.03-1.42-.07v-5.97ZM176.11,121.96c.2.04.49.04.79.04,1.67,0,2.58-.94,2.58-2.57,0-1.43-.8-2.34-2.46-2.34-.41,0-.71.04-.92.08v4.79Z"/>
    </g>
    <g>
      <rect class="cls-7" x="37.98" y="252.05" width="134.61" height="23.48"/>
      <path class="cls-2" d="M56.78,264.37v-11.95h2.74v.83h-1.72v10.3h1.72v.83h-2.74Z"/>
      <path class="cls-2" d="M61.04,264.37v-11.95h2.74v.83h-1.72v10.3h1.72v.83h-2.74Z"/>
      <path class="cls-2" d="M66.68,259.52l-1.05,3.18h-1.35l3.44-10.11h1.57l3.45,10.11h-1.4l-1.08-3.18h-3.58ZM69.99,258.49l-.99-2.91c-.22-.66-.38-1.26-.52-1.85h-.03c-.15.6-.31,1.22-.51,1.83l-.99,2.92h3.04Z"/>
      <path class="cls-2" d="M73.32,264.54c.33-.88.73-2.49.9-3.58l1.47-.15c-.34,1.27-1,2.94-1.42,3.64l-.94.09Z"/>
      <path class="cls-2" d="M77.33,252.72c.57-.12,1.47-.21,2.38-.21,1.3,0,2.15.22,2.77.74.52.39.84.99.84,1.78,0,.98-.65,1.83-1.71,2.22v.03c.96.24,2.08,1.04,2.08,2.54,0,.87-.34,1.53-.85,2.03-.71.64-1.84.94-3.49.94-.9,0-1.59-.06-2.02-.12v-9.94ZM78.63,256.86h1.19c1.38,0,2.19-.72,2.19-1.69,0-1.19-.9-1.65-2.22-1.65-.6,0-.94.04-1.15.09v3.25ZM78.63,261.7c.25.04.63.06,1.1.06,1.35,0,2.59-.5,2.59-1.96,0-1.38-1.19-1.95-2.61-1.95h-1.08v3.85Z"/>
      <path class="cls-2" d="M84.36,264.54c.33-.88.73-2.49.9-3.58l1.47-.15c-.34,1.27-1,2.94-1.42,3.64l-.94.09Z"/>
      <path class="cls-2" d="M95.43,262.36c-.48.24-1.44.48-2.67.48-2.85,0-4.99-1.8-4.99-5.12s2.15-5.31,5.28-5.31c1.26,0,2.05.27,2.4.45l-.31,1.06c-.5-.24-1.2-.42-2.04-.42-2.37,0-3.94,1.51-3.94,4.17,0,2.47,1.42,4.06,3.88,4.06.79,0,1.6-.17,2.13-.42l.27,1.04Z"/>
      <path class="cls-2" d="M96.17,264.54c.33-.88.73-2.49.9-3.58l1.47-.15c-.34,1.27-1,2.94-1.42,3.64l-.94.09Z"/>
      <path class="cls-2" d="M100.17,252.72c.79-.12,1.74-.21,2.77-.21,1.87,0,3.21.43,4.09,1.26.9.83,1.42,2,1.42,3.63s-.51,3-1.46,3.93c-.94.95-2.5,1.46-4.47,1.46-.93,0-1.71-.04-2.37-.12v-9.94ZM101.48,261.66c.33.06.81.08,1.32.08,2.79,0,4.31-1.56,4.31-4.29.01-2.38-1.33-3.9-4.1-3.9-.67,0-1.18.06-1.53.13v7.98Z"/>
      <path class="cls-2" d="M111.95,252.4v11.97h-2.74v-.83h1.72v-10.32h-1.72v-.83h2.74Z"/>
      <path class="cls-2" d="M114.41,264.37v-11.95h2.74v.83h-1.72v10.3h1.72v.83h-2.74Z"/>
      <path class="cls-2" d="M123.81,257.95h-3.93v3.65h4.38v1.09h-5.68v-10.11h5.46v1.09h-4.15v3.2h3.93v1.08Z"/>
      <path class="cls-2" d="M125,264.54c.33-.88.73-2.49.9-3.58l1.47-.15c-.34,1.27-1,2.94-1.42,3.64l-.94.09Z"/>
      <path class="cls-2" d="M129,252.59h5.44v1.09h-4.14v3.36h3.82v1.08h-3.82v4.58h-1.3v-10.11Z"/>
      <path class="cls-2" d="M133.95,264.54c.33-.88.74-2.49.9-3.58l1.47-.15c-.34,1.27-1,2.94-1.42,3.64l-.95.09Z"/>
      <path class="cls-2" d="M145.65,262.24c-.58.21-1.74.56-3.1.56-1.53,0-2.79-.39-3.78-1.33-.87-.84-1.41-2.19-1.41-3.77.02-3.01,2.08-5.22,5.47-5.22,1.17,0,2.08.25,2.52.46l-.31,1.07c-.54-.24-1.21-.44-2.23-.44-2.46,0-4.06,1.53-4.06,4.07s1.54,4.08,3.9,4.08c.85,0,1.44-.12,1.74-.27v-3.01h-2.05v-1.05h3.33v4.86Z"/>
      <path class="cls-2" d="M149.54,252.4v11.97h-2.74v-.83h1.72v-10.32h-1.72v-.83h2.74Z"/>
      <path class="cls-2" d="M153.8,252.4v11.97h-2.74v-.83h1.72v-10.32h-1.72v-.83h2.74Z"/>
    </g>
    <line class="cls-8" x1="196.96" y1="122.22" x2="201.96" y2="154.22"/>
    <line class="cls-8" x1="201.96" y1="151.22" x2="218.96" y2="135.22"/>
    <line class="cls-8" x1="198.96" y1="123.22" x2="218.96" y2="136.22"/>
    <g>
      <circle class="cls-2" cx="219.55" cy="135.8" r="7.75"/>
      <path class="cls-4" d="M217.87,132.61h3.63v.73h-2.76v2.24h2.55v.72h-2.55v3.05h-.87v-6.74Z"/>
    </g>
    <g>
      <circle class="cls-2" cx="201.55" cy="150.8" r="7.75"/>
      <path class="cls-4" d="M203.94,153.73c-.35.12-1.04.33-1.86.33-.92,0-1.67-.23-2.27-.8-.52-.5-.85-1.31-.85-2.26,0-1.81,1.25-3.13,3.29-3.13.7,0,1.25.15,1.51.28l-.19.64c-.32-.14-.73-.26-1.34-.26-1.48,0-2.44.92-2.44,2.44s.93,2.45,2.34,2.45c.51,0,.86-.07,1.04-.16v-1.81h-1.23v-.63h2v2.92Z"/>
    </g>
    <g>
      <circle class="cls-2" cx="197.55" cy="122.8" r="7.75"/>
      <path class="cls-4" d="M199.34,123.19h-2.62v2.43h2.92v.73h-3.79v-6.74h3.64v.73h-2.77v2.13h2.62v.72Z"/>
    </g>
  </g>
  <g>
    <rect class="cls-3" x="443.5" y="25.57" width="145" height="115"/>
    <rect class="cls-8" x="442" y="24.07" width="146" height="117"/>
    <g>
      <circle class="cls-2" cx="442.75" cy="24.82" r="7.75"/>
      <path class="cls-4" d="M441.54,26.25l-.7,2.12h-.9l2.29-6.74h1.05l2.3,6.74h-.93l-.72-2.12h-2.39ZM443.75,25.57l-.66-1.94c-.15-.44-.25-.84-.35-1.23h-.02c-.1.4-.21.81-.34,1.22l-.66,1.95h2.03Z"/>
    </g>
    <g>
      <circle class="cls-2" cx="587.64" cy="141.39" r="7.75"/>
      <path class="cls-4" d="M590.2,144.72c-.32.16-.96.32-1.78.32-1.9,0-3.33-1.2-3.33-3.41s1.43-3.54,3.52-3.54c.84,0,1.37.18,1.6.3l-.21.71c-.33-.16-.8-.28-1.36-.28-1.58,0-2.63,1.01-2.63,2.78,0,1.65.95,2.71,2.59,2.71.53,0,1.07-.11,1.42-.28l.18.69Z"/>
    </g>
    <g>
      <circle class="cls-2" cx="441.64" cy="141.39" r="7.75"/>
      <path class="cls-4" d="M439.69,138.29c.38-.08.98-.14,1.59-.14.87,0,1.43.15,1.85.49.35.26.56.66.56,1.19,0,.65-.43,1.22-1.14,1.48v.02c.64.16,1.39.69,1.39,1.69,0,.58-.23,1.02-.57,1.35-.47.43-1.23.63-2.33.63-.6,0-1.06-.04-1.35-.08v-6.63ZM440.55,141.05h.79c.92,0,1.46-.48,1.46-1.13,0-.79-.6-1.1-1.48-1.1-.4,0-.63.03-.77.06v2.17ZM440.55,144.28c.17.03.42.04.73.04.9,0,1.73-.33,1.73-1.31,0-.92-.79-1.3-1.74-1.3h-.72v2.57Z"/>
    </g>
    <g>
      <circle class="cls-2" cx="587.64" cy="24.39" r="7.75"/>
      <path class="cls-4" d="M585.32,21.6c.48-.07,1.04-.13,1.67-.13,1.13,0,1.93.26,2.46.76.54.5.85,1.2.85,2.18s-.31,1.8-.87,2.36c-.57.57-1.5.87-2.68.87-.56,0-1.03-.03-1.42-.07v-5.97ZM586.11,26.96c.2.04.49.04.79.04,1.67,0,2.58-.94,2.58-2.57,0-1.43-.8-2.34-2.46-2.34-.41,0-.71.04-.92.08v4.79Z"/>
    </g>
    <g>
      <rect class="cls-7" x="447.98" y="157.05" width="134.61" height="23.48"/>
      <path class="cls-2" d="M485.57,169.37v-11.95h2.75v.83h-1.72v10.3h1.72v.83h-2.75Z"/>
      <path class="cls-2" d="M489.83,169.37v-11.95h2.75v.83h-1.72v10.3h1.72v.83h-2.75Z"/>
      <path class="cls-2" d="M495.47,164.52l-1.05,3.18h-1.35l3.43-10.11h1.58l3.45,10.11h-1.39l-1.08-3.18h-3.58ZM498.79,163.49l-.99-2.91c-.22-.66-.38-1.26-.53-1.85h-.03c-.15.6-.32,1.22-.51,1.83l-.99,2.92h3.04Z"/>
      <path class="cls-2" d="M502.12,169.54c.33-.88.73-2.49.9-3.58l1.47-.15c-.34,1.27-1,2.94-1.42,3.64l-.94.09Z"/>
      <path class="cls-2" d="M506.12,157.72c.57-.12,1.47-.21,2.38-.21,1.3,0,2.15.22,2.78.74.52.39.84.99.84,1.78,0,.98-.65,1.83-1.71,2.22v.03c.96.24,2.08,1.04,2.08,2.54,0,.87-.34,1.53-.86,2.03-.71.64-1.84.94-3.49.94-.9,0-1.59-.06-2.03-.12v-9.94ZM507.43,161.86h1.19c1.38,0,2.19-.72,2.19-1.69,0-1.19-.9-1.65-2.22-1.65-.6,0-.95.04-1.16.09v3.25ZM507.43,166.7c.25.04.63.06,1.1.06,1.35,0,2.59-.5,2.59-1.96,0-1.38-1.19-1.95-2.61-1.95h-1.08v3.85Z"/>
      <path class="cls-2" d="M513.16,169.54c.33-.88.73-2.49.9-3.58l1.47-.15c-.34,1.27-1,2.94-1.42,3.64l-.94.09Z"/>
      <path class="cls-2" d="M524.23,167.36c-.48.24-1.44.48-2.67.48-2.85,0-5-1.8-5-5.12s2.15-5.31,5.28-5.31c1.26,0,2.05.27,2.4.45l-.31,1.06c-.5-.24-1.2-.42-2.04-.42-2.37,0-3.95,1.51-3.95,4.17,0,2.47,1.42,4.06,3.88,4.06.79,0,1.61-.17,2.13-.42l.27,1.04Z"/>
      <path class="cls-2" d="M524.96,169.54c.33-.88.73-2.49.9-3.58l1.47-.15c-.34,1.27-1,2.94-1.42,3.64l-.94.09Z"/>
      <path class="cls-2" d="M528.97,157.72c.79-.12,1.74-.21,2.77-.21,1.88,0,3.21.43,4.09,1.26.9.83,1.42,2,1.42,3.63s-.51,3-1.46,3.93c-.94.95-2.5,1.46-4.47,1.46-.93,0-1.71-.04-2.37-.12v-9.94ZM530.27,166.66c.33.06.81.08,1.32.08,2.79,0,4.31-1.56,4.31-4.29.01-2.38-1.33-3.9-4.1-3.9-.67,0-1.18.06-1.53.13v7.98Z"/>
      <path class="cls-2" d="M540.74,157.4v11.97h-2.75v-.83h1.72v-10.32h-1.72v-.83h2.75Z"/>
      <path class="cls-2" d="M545,157.4v11.97h-2.75v-.83h1.72v-10.32h-1.72v-.83h2.75Z"/>
    </g>
  </g>
  <g>
    <g>
      <line class="cls-6" x1="308.5" y1="246.07" x2="416.16" y2="246.07"/>
      <polygon class="cls-9" points="412.03 260.2 436.5 246.07 412.03 231.93 412.03 260.2"/>
    </g>
    <g>
      <rect class="cls-7" x="308.5" y="237.13" width="104" height="17.93"/>
      <path class="cls-2" d="M336.38,242.71c.23.15.65.31,1.04.31.58,0,.85-.29.85-.65s-.22-.58-.81-.8c-.78-.28-1.15-.71-1.15-1.23,0-.7.57-1.28,1.5-1.28.44,0,.83.13,1.07.27l-.2.58c-.17-.11-.49-.25-.89-.25-.47,0-.73.27-.73.59,0,.36.26.52.83.74.76.29,1.14.67,1.14,1.31,0,.76-.59,1.3-1.63,1.3-.48,0-.92-.12-1.22-.3l.2-.6Z"/>
      <path class="cls-2" d="M340.49,241.49c.02,1.07.7,1.51,1.49,1.51.57,0,.91-.1,1.21-.23l.14.57c-.28.13-.76.27-1.45.27-1.34,0-2.14-.88-2.14-2.2s.77-2.35,2.04-2.35c1.42,0,1.8,1.25,1.8,2.05,0,.16-.02.29-.03.37h-3.06ZM342.81,240.92c0-.5-.21-1.29-1.1-1.29-.8,0-1.15.74-1.21,1.29h2.31Z"/>
      <path class="cls-2" d="M344.56,240.59c0-.56-.02-1.01-.04-1.42h.71l.04.75h.02c.32-.53.84-.85,1.55-.85,1.05,0,1.85.89,1.85,2.21,0,1.57-.95,2.34-1.98,2.34-.58,0-1.08-.25-1.34-.68h-.02v2.37h-.78v-4.72ZM345.34,241.75c0,.12.02.23.04.32.14.55.62.93,1.19.93.84,0,1.32-.68,1.32-1.68,0-.87-.46-1.62-1.3-1.62-.54,0-1.04.39-1.2.98-.03.1-.05.22-.05.32v.75Z"/>
      <path class="cls-2" d="M350.12,241.49c.02,1.07.7,1.51,1.49,1.51.57,0,.91-.1,1.21-.23l.14.57c-.28.13-.76.27-1.45.27-1.34,0-2.14-.88-2.14-2.2s.77-2.35,2.04-2.35c1.42,0,1.8,1.25,1.8,2.05,0,.16-.02.29-.03.37h-3.06ZM352.44,240.92c0-.5-.21-1.29-1.1-1.29-.8,0-1.15.74-1.21,1.29h2.31Z"/>
      <path class="cls-2" d="M354.19,240.52c0-.51,0-.95-.04-1.36h.69l.03.86h.04c.2-.58.68-.95,1.21-.95.09,0,.15,0,.22.03v.75c-.08-.02-.16-.03-.27-.03-.56,0-.96.42-1.06,1.02-.02.11-.04.23-.04.37v2.32h-.78v-3Z"/>
      <path class="cls-2" d="M359.5,243.52l-.06-.55h-.03c-.24.34-.71.65-1.33.65-.88,0-1.33-.62-1.33-1.25,0-1.05.94-1.63,2.62-1.62v-.09c0-.36-.1-1.01-.99-1.01-.41,0-.83.13-1.13.32l-.18-.52c.36-.23.88-.39,1.43-.39,1.33,0,1.66.91,1.66,1.78v1.63c0,.38.02.75.07,1.04h-.72ZM359.38,241.3c-.86-.02-1.85.14-1.85.98,0,.51.34.76.75.76.57,0,.93-.36,1.05-.73.03-.08.04-.17.04-.25v-.76Z"/>
      <path class="cls-2" d="M362.34,237.91v1.25h1.13v.6h-1.13v2.35c0,.54.15.85.59.85.21,0,.36-.03.46-.05l.04.59c-.15.06-.4.11-.7.11-.37,0-.67-.12-.86-.33-.23-.23-.31-.62-.31-1.13v-2.38h-.67v-.6h.67v-1.04l.77-.21Z"/>
      <path class="cls-2" d="M364.75,241.49c.02,1.07.7,1.51,1.49,1.51.57,0,.91-.1,1.21-.23l.14.57c-.28.13-.76.27-1.45.27-1.34,0-2.14-.88-2.14-2.2s.77-2.35,2.04-2.35c1.42,0,1.8,1.25,1.8,2.05,0,.16-.02.29-.03.37h-3.06ZM367.08,240.92c0-.5-.21-1.29-1.1-1.29-.8,0-1.15.74-1.21,1.29h2.31Z"/>
      <path class="cls-2" d="M370.73,240.52c0-.51,0-.95-.04-1.36h.69l.03.86h.04c.2-.58.68-.95,1.21-.95.09,0,.15,0,.22.03v.75c-.08-.02-.16-.03-.27-.03-.56,0-.95.42-1.06,1.02-.02.11-.04.23-.04.37v2.32h-.78v-3Z"/>
      <path class="cls-2" d="M374.59,237.94c0,.27-.19.49-.5.49-.28,0-.48-.22-.48-.49s.21-.5.5-.5.49.22.49.5ZM373.71,243.52v-4.36h.79v4.36h-.79Z"/>
      <path class="cls-2" d="M375.81,240.34c0-.45,0-.82-.04-1.18h.7l.04.72h.02c.22-.41.72-.82,1.44-.82.6,0,1.54.36,1.54,1.85v2.6h-.79v-2.51c0-.7-.26-1.29-1.01-1.29-.52,0-.93.37-1.06.81-.04.1-.05.23-.05.37v2.62h-.79v-3.18Z"/>
      <path class="cls-2" d="M384.56,239.16c-.02.32-.04.67-.04,1.2v2.53c0,1-.2,1.61-.62,1.99-.42.4-1.04.52-1.58.52s-1.1-.13-1.45-.36l.2-.6c.29.18.74.34,1.28.34.81,0,1.4-.42,1.4-1.52v-.49h-.02c-.24.41-.71.73-1.39.73-1.08,0-1.85-.92-1.85-2.12,0-1.48.96-2.31,1.96-2.31.76,0,1.17.4,1.36.76h.02l.04-.66h.69ZM383.74,240.88c0-.13,0-.25-.04-.36-.14-.46-.53-.84-1.11-.84-.76,0-1.3.64-1.3,1.65,0,.86.43,1.57,1.29,1.57.49,0,.93-.31,1.1-.81.04-.13.06-.29.06-.42v-.78Z"/>
    </g>
  </g>
  <g>
    <rect class="cls-3" x="445" y="187.57" width="145" height="115"/>
    <rect class="cls-8" x="443.5" y="186.07" width="146" height="117"/>
    <g>
      <circle class="cls-2" cx="444.25" cy="186.82" r="7.75"/>
      <path class="cls-4" d="M443.04,188.25l-.7,2.12h-.9l2.29-6.74h1.05l2.3,6.74h-.93l-.72-2.12h-2.39ZM445.25,187.57l-.66-1.94c-.15-.44-.25-.84-.35-1.23h-.02c-.1.4-.21.81-.34,1.22l-.66,1.95h2.03Z"/>
    </g>
    <g>
      <circle class="cls-2" cx="589.13" cy="303.39" r="7.75"/>
      <path class="cls-4" d="M591.7,306.72c-.32.16-.96.32-1.78.32-1.9,0-3.33-1.2-3.33-3.41s1.43-3.54,3.52-3.54c.84,0,1.37.18,1.6.3l-.21.71c-.33-.16-.8-.28-1.36-.28-1.58,0-2.63,1.01-2.63,2.78,0,1.65.95,2.71,2.59,2.71.53,0,1.07-.11,1.42-.28l.18.69Z"/>
    </g>
    <g>
      <circle class="cls-2" cx="443.13" cy="303.39" r="7.75"/>
      <path class="cls-4" d="M441.18,300.29c.38-.08.98-.14,1.59-.14.87,0,1.43.15,1.85.49.35.26.56.66.56,1.19,0,.65-.43,1.22-1.14,1.48v.02c.64.16,1.39.69,1.39,1.69,0,.58-.23,1.02-.57,1.35-.47.43-1.23.63-2.33.63-.6,0-1.06-.04-1.35-.08v-6.63ZM442.05,303.05h.79c.92,0,1.46-.48,1.46-1.13,0-.79-.6-1.1-1.48-1.1-.4,0-.63.03-.77.06v2.17ZM442.05,306.28c.17.03.42.04.73.04.9,0,1.73-.33,1.73-1.31,0-.92-.79-1.3-1.74-1.3h-.72v2.57Z"/>
    </g>
    <g>
      <circle class="cls-2" cx="589.13" cy="186.39" r="7.75"/>
      <path class="cls-4" d="M586.82,183.6c.48-.07,1.04-.13,1.67-.13,1.13,0,1.93.26,2.46.76.54.5.85,1.2.85,2.18s-.31,1.8-.87,2.36c-.57.57-1.5.87-2.68.87-.56,0-1.03-.03-1.42-.07v-5.97ZM587.6,188.96c.2.04.49.04.79.04,1.67,0,2.58-.94,2.58-2.57,0-1.43-.8-2.34-2.46-2.34-.41,0-.71.04-.92.08v4.79Z"/>
    </g>
    <g>
      <rect class="cls-7" x="449.48" y="319.05" width="134.61" height="23.48"/>
      <path class="cls-2" d="M460.93,331.37v-11.95h2.75v.83h-1.72v10.3h1.72v.83h-2.75Z"/>
      <path class="cls-2" d="M465.19,331.37v-11.95h2.75v.83h-1.72v10.3h1.72v.83h-2.75Z"/>
      <path class="cls-2" d="M470.83,326.52l-1.05,3.18h-1.35l3.43-10.11h1.58l3.45,10.11h-1.4l-1.08-3.18h-3.59ZM474.15,325.49l-.99-2.91c-.22-.66-.38-1.26-.52-1.85h-.03c-.15.6-.32,1.22-.51,1.83l-.99,2.92h3.04Z"/>
      <path class="cls-2" d="M477.48,331.54c.33-.88.74-2.49.9-3.58l1.47-.15c-.35,1.27-1.01,2.94-1.43,3.64l-.94.09Z"/>
      <path class="cls-2" d="M481.48,319.72c.57-.12,1.47-.21,2.38-.21,1.3,0,2.15.22,2.78.74.53.39.84.99.84,1.78,0,.98-.64,1.83-1.71,2.22v.03c.96.24,2.08,1.04,2.08,2.54,0,.87-.34,1.53-.86,2.03-.71.64-1.84.94-3.49.94-.9,0-1.59-.06-2.03-.12v-9.94ZM482.79,323.86h1.19c1.38,0,2.19-.72,2.19-1.69,0-1.19-.9-1.65-2.22-1.65-.6,0-.94.04-1.16.09v3.25ZM482.79,328.7c.26.04.63.06,1.1.06,1.35,0,2.59-.5,2.59-1.96,0-1.38-1.18-1.95-2.61-1.95h-1.08v3.85Z"/>
      <path class="cls-2" d="M488.52,331.54c.33-.88.74-2.49.9-3.58l1.47-.15c-.34,1.27-1,2.94-1.42,3.64l-.95.09Z"/>
      <path class="cls-2" d="M499.59,329.36c-.48.24-1.44.48-2.67.48-2.85,0-5-1.8-5-5.12s2.15-5.31,5.28-5.31c1.26,0,2.05.27,2.4.45l-.32,1.06c-.49-.24-1.2-.42-2.04-.42-2.37,0-3.95,1.51-3.95,4.17,0,2.47,1.42,4.06,3.88,4.06.79,0,1.61-.17,2.13-.42l.27,1.04Z"/>
      <path class="cls-2" d="M500.32,331.54c.33-.88.74-2.49.9-3.58l1.47-.15c-.34,1.27-1,2.94-1.42,3.64l-.95.09Z"/>
      <path class="cls-2" d="M504.33,319.72c.79-.12,1.74-.21,2.77-.21,1.87,0,3.21.43,4.09,1.26.9.83,1.42,2,1.42,3.63s-.51,3-1.46,3.93c-.94.95-2.5,1.46-4.47,1.46-.93,0-1.71-.04-2.37-.12v-9.94ZM505.63,328.66c.33.06.81.08,1.32.08,2.79,0,4.31-1.56,4.31-4.29.01-2.38-1.34-3.9-4.1-3.9-.67,0-1.18.06-1.53.13v7.98Z"/>
      <path class="cls-2" d="M516.1,319.4v11.97h-2.74v-.83h1.72v-10.32h-1.72v-.83h2.74Z"/>
      <path class="cls-2" d="M520.36,319.4v11.97h-2.74v-.83h1.72v-10.32h-1.72v-.83h2.74Z"/>
      <path class="cls-2" d="M521.83,331.54c.33-.88.73-2.49.9-3.58l1.47-.15c-.34,1.27-1,2.94-1.42,3.64l-.95.09Z"/>
      <path class="cls-2" d="M529.1,331.37v-11.95h2.75v.83h-1.72v10.3h1.72v.83h-2.75Z"/>
      <path class="cls-2" d="M533.36,331.37v-11.95h2.75v.83h-1.72v10.3h1.72v.83h-2.75Z"/>
      <path class="cls-2" d="M545.05,329.24c-.59.21-1.74.56-3.11.56-1.53,0-2.79-.39-3.78-1.33-.87-.84-1.41-2.19-1.41-3.77.02-3.01,2.08-5.22,5.47-5.22,1.17,0,2.08.25,2.52.46l-.31,1.07c-.54-.24-1.21-.44-2.23-.44-2.46,0-4.07,1.53-4.07,4.07s1.54,4.08,3.9,4.08c.86,0,1.44-.12,1.74-.27v-3.01h-2.05v-1.05h3.33v4.86Z"/>
      <path class="cls-2" d="M546.14,331.54c.33-.88.74-2.49.9-3.58l1.47-.15c-.34,1.27-1,2.94-1.42,3.64l-.95.09Z"/>
      <path class="cls-2" d="M550.15,319.59h5.45v1.09h-4.14v3.36h3.83v1.08h-3.83v4.58h-1.3v-10.11Z"/>
      <path class="cls-2" d="M555.1,331.54c.33-.88.73-2.49.9-3.58l1.47-.15c-.34,1.27-1,2.94-1.42,3.64l-.95.09Z"/>
      <path class="cls-2" d="M564.34,324.95h-3.93v3.65h4.38v1.09h-5.68v-10.11h5.46v1.09h-4.16v3.2h3.93v1.08Z"/>
      <path class="cls-2" d="M568.37,319.4v11.97h-2.75v-.83h1.72v-10.32h-1.72v-.83h2.75Z"/>
      <path class="cls-2" d="M572.63,319.4v11.97h-2.75v-.83h1.72v-10.32h-1.72v-.83h2.75Z"/>
    </g>
    <polyline class="cls-5" points="607.42 195.07 607.42 218.65 629.08 205.04"/>
    <line class="cls-8" x1="604.74" y1="191.68" x2="609.74" y2="223.68"/>
    <line class="cls-8" x1="609.74" y1="220.68" x2="626.74" y2="204.68"/>
    <line class="cls-8" x1="606.74" y1="192.68" x2="626.74" y2="205.68"/>
    <g>
      <circle class="cls-2" cx="627.33" cy="205.25" r="7.75"/>
      <path class="cls-4" d="M625.66,202.07h3.63v.73h-2.76v2.24h2.55v.72h-2.55v3.05h-.87v-6.74Z"/>
    </g>
    <g>
      <circle class="cls-2" cx="609.33" cy="220.25" r="7.75"/>
      <path class="cls-4" d="M611.73,223.18c-.35.13-1.04.33-1.86.33-.92,0-1.67-.23-2.27-.8-.52-.5-.85-1.31-.85-2.26,0-1.81,1.25-3.13,3.29-3.13.7,0,1.25.15,1.51.28l-.19.64c-.32-.14-.73-.26-1.34-.26-1.48,0-2.44.92-2.44,2.44s.93,2.45,2.34,2.45c.51,0,.86-.07,1.04-.16v-1.81h-1.23v-.63h2v2.92Z"/>
    </g>
    <g>
      <circle class="cls-2" cx="605.33" cy="192.25" r="7.75"/>
      <path class="cls-4" d="M607.12,192.65h-2.62v2.43h2.92v.73h-3.79v-6.74h3.64v.73h-2.77v2.13h2.62v.72Z"/>
    </g>
  </g>
  <g>
    <rect class="cls-7" x="277.56" y="44.82" width="45.04" height="70.6"/>
    <path class="cls-1" d="M285.77,61.08l4.97,7.49c1.3,1.95,2.38,3.74,3.53,5.69h.22c1.15-2.09,2.3-3.89,3.46-5.76l4.9-7.42h6.84l-11.88,16.85,12.24,18h-7.2l-5.11-7.85c-1.37-2.02-2.52-3.96-3.75-6.05h-.14c-1.15,2.09-2.38,3.96-3.67,6.05l-5.04,7.85h-6.98l12.38-17.79-11.81-17.07h7.06Z"/>
  </g>
  <path class="cls-10" d="M286.79,226.14l6.84,19.58c1.15,3.17,2.09,6.05,2.81,8.93h.22c.79-2.88,1.8-5.76,2.95-8.93l6.77-19.58h6.62l-13.68,34.85h-6.05l-13.25-34.85h6.77Z"/>
  <g>
    <g>
      <line class="cls-9" x1="182.81" y1="179.95" x2="304.5" y2="179.08"/>
      <g>
        <line class="cls-6" x1="182.81" y1="179.95" x2="284.16" y2="179.23"/>
        <polygon class="cls-9" points="280.13 193.39 304.5 179.08 279.93 165.12 280.13 193.39"/>
      </g>
    </g>
    <g>
      <rect class="cls-7" x="185.71" y="171.32" width="95.07" height="30.77" transform="translate(-1.32 1.66) rotate(-.41)"/>
      <path class="cls-2" d="M189.11,171.95l.02,3.59c0,1.36.59,1.93,1.36,1.93.86,0,1.4-.61,1.39-1.95l-.02-3.59h.75s.02,3.53.02,3.53c.01,1.86-.92,2.63-2.17,2.64-1.18,0-2.08-.7-2.09-2.58l-.02-3.57h.75Z"/>
      <path class="cls-2" d="M193.75,177.18c.22.15.62.31,1,.31.55,0,.8-.29.8-.65,0-.38-.22-.58-.78-.8-.75-.27-1.1-.7-1.1-1.23,0-.7.53-1.28,1.42-1.29.42,0,.79.12,1.02.26l-.18.58c-.16-.11-.46-.25-.85-.25-.45,0-.69.28-.69.6,0,.36.25.52.79.73.72.28,1.09.66,1.1,1.31,0,.77-.56,1.31-1.54,1.32-.45,0-.87-.11-1.17-.29l.18-.6Z"/>
      <path class="cls-2" d="M197.66,175.93c.02,1.07.68,1.51,1.43,1.5.54,0,.86-.1,1.15-.23l.13.57c-.26.13-.72.27-1.38.28-1.28,0-2.04-.87-2.05-2.18,0-1.31.72-2.36,1.93-2.36,1.35,0,1.72,1.24,1.73,2.04,0,.16-.02.29-.02.37l-2.91.02ZM199.86,175.34c0-.5-.2-1.29-1.05-1.28-.76,0-1.09.75-1.15,1.29h2.2Z"/>
      <path class="cls-2" d="M201.52,174.93c0-.51-.01-.95-.04-1.36h.66s.03.85.03.85h.03c.18-.59.64-.96,1.14-.96.09,0,.15,0,.21.03v.75c-.07-.02-.15-.03-.25-.03-.53,0-.91.43-1,1.03-.02.11-.03.23-.03.37l.02,2.32h-.75s-.02-2.99-.02-2.99Z"/>
      <path class="cls-2" d="M206.13,174.9c0-.51-.01-.95-.04-1.36h.66s.03.85.03.85h.03c.18-.59.64-.96,1.14-.96.09,0,.15,0,.21.02v.75c-.07-.02-.15-.03-.25-.03-.53,0-.91.43-1,1.02-.02.11-.03.23-.03.37l.02,2.32h-.75s-.02-2.99-.02-2.99Z"/>
      <path class="cls-2" d="M209.27,175.84c.02,1.07.68,1.51,1.43,1.5.54,0,.86-.1,1.15-.23l.13.57c-.26.13-.72.27-1.38.28-1.28,0-2.04-.87-2.05-2.18,0-1.31.72-2.35,1.93-2.36,1.35,0,1.72,1.24,1.73,2.04,0,.16-.02.29-.02.37l-2.91.02ZM211.47,175.26c0-.5-.2-1.29-1.05-1.28-.76,0-1.09.75-1.15,1.29l2.2-.02Z"/>
      <path class="cls-2" d="M215.97,177.16h-.02c-.22.43-.68.78-1.35.78-.97,0-1.76-.87-1.77-2.19,0-1.63.99-2.36,1.86-2.36.64,0,1.07.33,1.28.75h.02l.02-.66h.71c-.01.36-.02.74-.02,1.19l.03,4.94h-.75s-.02-2.45-.02-2.45ZM215.96,175.24c0-.11-.01-.23-.04-.33-.11-.49-.52-.9-1.08-.89-.78,0-1.25.7-1.24,1.68,0,.86.4,1.62,1.23,1.61.49,0,.91-.32,1.07-.87.03-.11.06-.26.06-.38v-.82Z"/>
      <path class="cls-2" d="M221.42,176.6c0,.45.01.85.04,1.19h-.67s-.05-.71-.05-.71h-.02c-.19.35-.63.81-1.36.82-.65,0-1.43-.37-1.44-1.9l-.02-2.55h.75s.02,2.41.02,2.41c0,.83.25,1.38.93,1.38.5,0,.85-.38.99-.73.04-.12.07-.26.07-.41l-.02-2.67h.75s.02,3.16.02,3.16Z"/>
      <path class="cls-2" d="M223.48,172.19c0,.27-.18.49-.48.49-.26,0-.46-.21-.46-.48,0-.28.19-.5.47-.5.28,0,.46.21.47.49ZM222.68,177.78l-.03-4.36h.75s.03,4.35.03,4.35h-.75Z"/>
      <path class="cls-2" d="M224.66,174.77c0-.51-.01-.95-.04-1.36h.66s.03.85.03.85h.03c.18-.59.64-.96,1.14-.96.09,0,.15,0,.21.03v.75c-.07-.02-.15-.03-.25-.03-.53,0-.91.43-1,1.03-.02.11-.03.23-.03.37v2.32s-.73,0-.73,0l-.02-3Z"/>
      <path class="cls-2" d="M227.8,175.71c.02,1.07.68,1.51,1.43,1.5.54,0,.86-.1,1.14-.23l.13.57c-.26.13-.72.27-1.38.28-1.28,0-2.04-.87-2.05-2.18,0-1.31.72-2.35,1.93-2.36,1.35,0,1.72,1.24,1.72,2.04,0,.16-.02.29-.02.37l-2.91.02ZM230.01,175.13c0-.5-.21-1.29-1.05-1.28-.76,0-1.09.75-1.15,1.3l2.2-.02Z"/>
      <path class="cls-2" d="M231.66,174.54c0-.45-.01-.82-.04-1.18h.66s.04.7.04.7h.03c.23-.42.61-.81,1.3-.81.56,0,.99.35,1.18.87h.02c.13-.24.29-.44.46-.57.25-.2.52-.31.91-.31.55,0,1.36.37,1.37,1.88l.02,2.57h-.74s-.02-2.46-.02-2.46c0-.84-.3-1.34-.91-1.33-.43,0-.76.34-.89.73-.03.11-.06.25-.06.4l.02,2.69h-.74s-.02-2.6-.02-2.6c0-.69-.3-1.2-.87-1.19-.47,0-.81.4-.93.8-.04.12-.06.25-.06.39l.02,2.63h-.74s-.02-3.17-.02-3.17Z"/>
      <path class="cls-2" d="M239.22,175.63c.02,1.07.68,1.51,1.43,1.5.54,0,.86-.1,1.14-.23l.13.57c-.26.13-.72.27-1.38.28-1.28,0-2.04-.87-2.05-2.18,0-1.31.72-2.35,1.93-2.36,1.35,0,1.72,1.24,1.72,2.04,0,.16-.02.29-.02.37l-2.91.02ZM241.43,175.05c0-.5-.21-1.29-1.05-1.28-.76,0-1.09.75-1.15,1.3l2.2-.02Z"/>
      <path class="cls-2" d="M243.08,174.46c0-.45-.01-.82-.04-1.18h.67s.05.72.05.72h.02c.2-.42.68-.82,1.36-.83.57,0,1.47.35,1.48,1.84l.02,2.6h-.75s-.02-2.51-.02-2.51c0-.7-.26-1.29-.97-1.28-.5,0-.88.38-1,.82-.03.1-.05.23-.05.37l.02,2.62h-.75s-.02-3.17-.02-3.17Z"/>
      <path class="cls-2" d="M248.69,171.99v1.25s1.09,0,1.09,0v.6s-1.08,0-1.08,0l.02,2.35c0,.54.15.84.57.84.2,0,.34-.03.44-.06l.04.59c-.15.06-.38.11-.67.11-.35,0-.63-.11-.82-.33-.21-.23-.29-.62-.3-1.13l-.02-2.38h-.64s0-.6,0-.6h.64s0-1.05,0-1.05l.73-.21Z"/>
      <path class="cls-2" d="M253.33,171.96v1.25s1.09,0,1.09,0v.6s-1.08,0-1.08,0l.02,2.35c0,.54.15.84.57.84.2,0,.34-.03.44-.06l.04.59c-.15.06-.38.11-.67.11-.35,0-.63-.11-.82-.33-.21-.23-.29-.62-.3-1.13l-.02-2.38h-.64s0-.6,0-.6h.64s0-1.05,0-1.05l.73-.21Z"/>
      <path class="cls-2" d="M258.98,175.31c0,1.61-1.05,2.32-2.05,2.33-1.12,0-1.99-.85-2-2.23,0-1.46.89-2.32,2.04-2.33,1.19,0,2,.89,2.01,2.23ZM255.69,175.38c0,.95.53,1.67,1.27,1.67.72,0,1.25-.72,1.25-1.7,0-.74-.36-1.67-1.25-1.67-.89,0-1.27.87-1.26,1.7Z"/>
      <path class="cls-2" d="M262.49,175.14h.02c.1-.15.25-.34.36-.5l1.21-1.51h.91s-1.59,1.8-1.59,1.8l1.84,2.55h-.92s-1.44-2.07-1.44-2.07l-.38.45v1.64s-.73,0-.73,0l-.04-6.39h.75s.03,4.03.03,4.03Z"/>
      <path class="cls-2" d="M266.17,175.44c.02,1.07.68,1.51,1.43,1.5.54,0,.86-.11,1.15-.23l.13.57c-.26.13-.72.27-1.38.28-1.28,0-2.04-.87-2.05-2.18,0-1.31.72-2.35,1.93-2.36,1.35,0,1.72,1.24,1.72,2.04,0,.16-.02.29-.02.37l-2.91.02ZM268.38,174.86c0-.5-.21-1.29-1.05-1.28-.76,0-1.09.75-1.15,1.29l2.2-.02Z"/>
      <path class="cls-2" d="M270.46,175.41c.02,1.07.68,1.51,1.43,1.5.54,0,.86-.11,1.15-.23l.13.57c-.26.13-.72.28-1.38.28-1.28,0-2.04-.87-2.05-2.18,0-1.31.72-2.35,1.93-2.36,1.35,0,1.72,1.24,1.72,2.04,0,.16-.02.29-.02.37l-2.91.02ZM272.67,174.83c0-.5-.21-1.29-1.05-1.28-.76,0-1.09.74-1.15,1.29l2.2-.02Z"/>
      <path class="cls-2" d="M274.32,174.48c0-.56-.02-1.01-.04-1.42h.68s.04.74.04.74h.02c.3-.53.79-.85,1.47-.86,1,0,1.76.88,1.77,2.2.01,1.57-.89,2.35-1.87,2.35-.55,0-1.03-.24-1.28-.67h-.02l.02,2.37h-.74s-.03-4.71-.03-4.71ZM275.07,175.64c0,.12.02.22.04.32.14.55.6.92,1.14.92.8,0,1.25-.69,1.25-1.69,0-.87-.45-1.62-1.24-1.61-.51,0-.99.39-1.13.99-.02.1-.05.22-.05.32v.75Z"/>
      <path class="cls-2" d="M213.15,186.62c.02,1.07.68,1.51,1.43,1.5.54,0,.86-.1,1.15-.23l.13.57c-.26.13-.72.27-1.38.28-1.28,0-2.04-.87-2.05-2.18,0-1.31.72-2.36,1.93-2.36,1.35,0,1.72,1.24,1.73,2.04,0,.16-.02.29-.02.37l-2.91.02ZM215.36,186.03c0-.5-.21-1.29-1.05-1.28-.76,0-1.09.75-1.15,1.3h2.2Z"/>
      <path class="cls-2" d="M217.3,184.26l.83,2.44c.14.39.25.75.34,1.11h.03c.09-.36.21-.72.34-1.12l.79-2.46h.79s-1.6,4.36-1.6,4.36h-.72s-1.6-4.34-1.6-4.34h.8Z"/>
      <path class="cls-2" d="M221.47,186.56c.02,1.07.68,1.51,1.43,1.5.54,0,.86-.1,1.15-.23l.13.57c-.26.13-.72.27-1.38.28-1.28,0-2.04-.87-2.05-2.18,0-1.31.72-2.35,1.93-2.36,1.35,0,1.72,1.24,1.73,2.04,0,.16-.02.29-.02.37l-2.91.02ZM223.67,185.97c0-.5-.21-1.29-1.05-1.28-.76,0-1.09.75-1.15,1.3l2.2-.02Z"/>
      <path class="cls-2" d="M225.33,185.57c0-.51-.01-.95-.04-1.36h.66s.03.85.03.85h.03c.18-.59.64-.96,1.14-.96.09,0,.15,0,.21.02v.75c-.07-.02-.15-.03-.25-.03-.53,0-.91.43-1,1.02-.02.11-.03.23-.03.37v2.32s-.73,0-.73,0l-.02-3Z"/>
      <path class="cls-2" d="M228.61,184.18l.92,2.57c.1.29.2.63.27.89h.02c.08-.26.16-.6.26-.91l.8-2.56h.8s-1.11,3.11-1.11,3.11c-.53,1.5-.89,2.27-1.4,2.74-.37.34-.73.48-.92.52l-.19-.66c.19-.06.44-.19.66-.39.2-.17.46-.48.63-.89.03-.08.06-.14.06-.19s-.02-.11-.05-.21l-1.56-4h.82Z"/>
      <path class="cls-2" d="M233.26,182.9v1.25s1.09,0,1.09,0v.6s-1.08,0-1.08,0l.02,2.35c0,.54.15.84.57.84.2,0,.34-.03.44-.06l.04.59c-.15.06-.38.11-.67.11-.35,0-.63-.11-.82-.33-.21-.23-.29-.62-.3-1.13l-.02-2.38h-.64s0-.6,0-.6h.64s0-1.05,0-1.05l.74-.21Z"/>
      <path class="cls-2" d="M235.18,182.1h.75s.02,2.71.02,2.71h.02c.12-.23.3-.43.54-.56.22-.14.49-.23.77-.23.56,0,1.45.35,1.46,1.85l.02,2.59h-.75s-.02-2.5-.02-2.5c0-.7-.26-1.29-.97-1.29-.49,0-.87.37-1,.8-.04.11-.05.22-.05.38l.02,2.63h-.75s-.04-6.39-.04-6.39Z"/>
      <path class="cls-2" d="M240.78,182.87c.01.27-.18.49-.48.49-.27,0-.46-.21-.46-.48,0-.28.19-.5.47-.5.28,0,.46.21.46.49ZM239.97,188.46l-.03-4.36h.75s.03,4.35.03,4.35h-.75Z"/>
      <path class="cls-2" d="M241.95,185.27c0-.45-.01-.82-.04-1.18h.67s.05.71.05.71h.02c.2-.42.68-.82,1.36-.83.57,0,1.46.35,1.47,1.84l.02,2.6h-.75s-.02-2.51-.02-2.51c0-.7-.26-1.29-.97-1.28-.5,0-.88.38-1,.82-.03.1-.05.23-.05.37l.02,2.62h-.75s-.02-3.17-.02-3.17Z"/>
      <path class="cls-2" d="M250.26,184.03c-.01.32-.03.67-.03,1.2l.02,2.53c0,1-.18,1.61-.58,1.99-.4.4-.98.53-1.5.53-.5,0-1.05-.12-1.38-.35l.18-.6c.28.18.7.34,1.22.33.77,0,1.33-.43,1.33-1.53v-.49h-.02c-.23.41-.67.73-1.31.74-1.03,0-1.77-.91-1.78-2.11,0-1.48.9-2.32,1.85-2.33.72,0,1.12.39,1.3.75h.02l.03-.66h.66ZM249.5,185.76c0-.13,0-.25-.04-.36-.14-.46-.51-.83-1.06-.83-.72,0-1.23.65-1.22,1.66,0,.86.42,1.56,1.23,1.56.46,0,.88-.31,1.04-.82.04-.13.06-.29.06-.42v-.78Z"/>
      <path class="cls-2" d="M252.08,186.65l-.02-.23c-.05-.49.1-1.02.52-1.56.38-.48.59-.83.59-1.24,0-.46-.28-.76-.82-.77-.31,0-.65.11-.86.29l-.21-.57c.28-.22.77-.37,1.22-.37.98,0,1.43.63,1.44,1.31,0,.61-.32,1.06-.73,1.57-.37.47-.51.87-.48,1.33v.23s-.66,0-.66,0ZM251.9,187.92c0-.33.21-.57.51-.57.3,0,.51.23.51.56,0,.32-.19.56-.51.56-.3,0-.51-.24-.51-.55Z"/>
    </g>
  </g>
</svg>