<?xml version="1.0" encoding="UTF-8"?>
<svg xmlns="http://www.w3.org/2000/svg" version="1.1" viewBox="0 0 1222.5 231.8">
  <defs>
    <style>
      .cls-1, .cls-2, .cls-3 {
        fill: none;
        stroke-miterlimit: 10;
      }

      .cls-1, .cls-3 {
        stroke: #000;
      }

      .cls-2 {
        stroke: #f2f2f2;
      }

      .cls-2, .cls-3 {
        stroke-width: 1.5px;
      }

      .cls-4 {
        fill: #f2f2f2;
      }

      .cls-5 {
        fill-rule: evenodd;
      }
    </style>
  </defs>
  <!-- Generator: Adobe Illustrator 28.7.1, SVG Export Plug-In . SVG Version: 1.2.0 Build 142)  -->
  <g>
    <g id="Layer_1">
      <rect class="cls-4" x="11.4" y="91.7" width="124" height="20.3" rx="5" ry="5"/>
      <rect class="cls-2" x="11.4" y="91.7" width="124" height="20.3" rx="5" ry="5"/>
      <path d="M23.8,104.8h-4.1l-.6,1.9h-2.7l3.8-10.2h3.1l3.8,10.2h-2.6l-.6-1.9h0ZM20.4,102.9h2.8l-1.4-4.1-1.4,4.1"/>
      <path d="M28.6,96.5h2.6v6.1q0,1.3.4,1.8t1.3.5,1.3-.5.4-1.8v-6.1h2.6v6.1q0,2.2-1.1,3.2-1.1,1.1-3.3,1.1-2.2,0-3.3-1.1-1.1-1.1-1.1-3.2v-6.1"/>
      <polyline points="38.4 96.5 47.8 96.5 47.8 98.4 44.5 98.4 44.5 106.7 41.8 106.7 41.8 98.4 38.4 98.4 38.4 96.5"/>
      <path d="M54.3,98.2q-1.2,0-1.9.9t-.6,2.5.6,2.5,1.9.9,1.8-.9.7-2.5-.7-2.5-1.8-.9h0ZM54.3,96.3q2.5,0,3.8,1.4,1.4,1.4,1.4,3.9,0,2.5-1.4,3.9-1.4,1.4-3.8,1.4-2.4,0-3.8-1.4-1.4-1.4-1.4-3.9,0-2.5,1.4-3.9,1.4-1.4,3.8-1.4"/>
      <path d="M67.2,101.1q-.3-.1-.6-.2t-.6,0-1.5.6-.5,1.7v3.5h-2.4v-7.6h2.4v1.2q.5-.8,1.1-1.1.6-.3,1.5-.3.1,0,.3,0,.1,0,.4,0v2.2"/>
      <path d="M73.9,101.2q1,.3,1.6.9t.5,1.7-1.2,2.3-3.4.8-1.6-.1-1.5-.4v-2q.7.4,1.5.6.7.2,1.4.2,1,0,1.6-.4.6-.4.6-1,0-.7-.6-1-.6-.4-1.7-.4h-1v-1.7h1.1q1,0,1.5-.3.5-.3.5-.9,0-.6-.5-.9-.5-.3-1.3-.3-.6,0-1.3.1-.6.1-1.3.4v-1.9q.8-.2,1.5-.3.8-.1,1.5-.1,2,0,3,.7,1,.6,1,2,0,.9-.5,1.5-.5.6-1.4.8"/>
      <path d="M81,105.6v4h-2.5v-10.6h2.5v1.1q.5-.7,1.1-1t1.4-.3,2.3,1.1.9,2.9-.9,2.9-2.3,1.1-1.4-.3-1.1-1h0ZM82.6,100.6q-.8,0-1.2.6-.4.6-.4,1.6,0,1.1.4,1.7.4.6,1.2.6t1.2-.6.4-1.7-.4-1.6-1.2-.6"/>
      <path d="M92,103.2q-.8,0-1.2.3t-.4.8.3.7.9.3,1.2-.5.5-1.2v-.3h-1.3,0ZM95.7,102.3v4.4h-2.5v-1.1q-.5.7-1.1,1-.6.3-1.5.3-1.2,0-1.9-.7-.7-.7-.7-1.8,0-1.3.9-2,.9-.6,2.9-.6h1.4v-.2q0-.6-.4-.8-.5-.3-1.4-.3-.8,0-1.5.1-.7.1-1.3.5v-1.9q.8-.2,1.6-.3.8,0,1.6,0,2.1,0,3,.8.9.8.9,2.6"/>
      <path d="M97.5,99h2.4v7.7h-2.4v-7.7h0ZM97.5,96h2.4v2h-2.4v-2"/>
      <path d="M108.2,101.1q-.3-.1-.6-.2t-.6,0-1.5.6-.5,1.7v3.5h-2.5v-7.6h2.5v1.2q.5-.8,1.1-1.1.6-.3,1.5-.3.1,0,.3,0,.1,0,.4,0v2.2h0Z"/>
      <line class="cls-1" x1="113.4" y1="91.7" x2="113.4" y2="112"/>
      <rect class="cls-3" x="11.4" y="91.7" width="124" height="20.3" rx="5" ry="5"/>
      <rect class="cls-4" x="172.4" y="71.3" width="197" height="60.9" rx="5" ry="5"/>
      <rect class="cls-2" x="172.4" y="71.3" width="197" height="60.9" rx="5" ry="5"/>
      <path d="M181.3,78.1v6.2h.9q1.6,0,2.5-.8t.9-2.3-.8-2.3-2.5-.8h-.9ZM178.6,76.1h2.8q2.3,0,3.5.3,1.1.3,1.9,1.1.7.7,1.1,1.6.3.9.3,2,0,1.1-.3,2.1-.3.9-1.1,1.6-.8.8-2,1.1-1.1.3-3.4.3h-2.8v-10.2"/>
      <path d="M194,82.9q-.8,0-1.2.3t-.4.8.3.7.9.3,1.2-.5.5-1.3v-.3h-1.3,0ZM197.7,81.9v4.4h-2.5v-1.1q-.5.7-1.1,1-.6.3-1.5.3-1.2,0-1.9-.7-.7-.7-.7-1.8,0-1.3.9-2,.9-.6,2.9-.6h1.4v-.2q0-.6-.4-.8-.5-.3-1.4-.3-.8,0-1.5.2-.7.1-1.3.5v-1.9q.8-.2,1.6-.3.8-.1,1.6-.1,2.1,0,3,.8.9.8.9,2.6"/>
      <path d="M202.2,76.5v2.2h2.5v1.8h-2.5v3.2q0,.5.2.7t.9.2h1.2v1.7h-2.1q-1.5,0-2.1-.6-.6-.6-.6-2.1v-3.2h-1.2v-1.8h1.2v-2.2h2.4"/>
      <path d="M214.2,82.5v.7h-5.7q0,.9.6,1.3t1.5.4,1.6-.2,1.7-.7v1.9q-.9.3-1.7.5-.9.2-1.7.2-2.1,0-3.2-1.1-1.1-1.1-1.1-3,0-1.9,1.1-2.9,1.1-1.1,3.1-1.1,1.8,0,2.9,1.1,1.1,1.1,1.1,2.9h0ZM211.7,81.7q0-.7-.4-1.1-.4-.4-1.1-.4-.7,0-1.2.4-.4.4-.5,1.1h3.2"/>
      <polyline points="222.4 88.3 222.4 89.6 215.4 89.6 215.4 88.3 222.4 88.3"/>
      <path d="M227.2,80.2q-.8,0-1.2.6t-.4,1.7.4,1.7,1.2.6,1.2-.6.4-1.7-.4-1.7-1.2-.6h0ZM227.2,78.5q2,0,3.1,1.1,1.1,1.1,1.1,2.9,0,1.9-1.1,3-1.1,1.1-3.1,1.1-2,0-3.1-1.1-1.1-1.1-1.1-3,0-1.9,1.1-2.9,1.1-1.1,3.1-1.1"/>
      <path d="M238.6,75.7v1.6h-1.3q-.5,0-.7.2t-.2.6v.5h2.1v1.7h-2.1v5.9h-2.4v-5.9h-1.2v-1.7h1.2v-.5q0-1.2.7-1.8.7-.6,2.2-.6h1.9,0ZM245.4,88.3v1.3h-7v-1.3h7"/>
      <path d="M252.2,80.7q-.3-.1-.6-.2t-.6,0-1.5.6-.5,1.7v3.5h-2.4v-7.7h2.4v1.3q.5-.8,1.1-1.1.6-.3,1.5-.3.1,0,.3,0,.1,0,.4,0v2.2"/>
      <path d="M261.2,82.5v.7h-5.7q0,.9.6,1.3t1.5.4,1.6-.2,1.6-.7v1.9q-.8.3-1.7.5-.9.2-1.7.2-2.1,0-3.2-1.1-1.1-1.1-1.1-3,0-1.9,1.1-2.9,1.1-1.1,3.1-1.1,1.8,0,2.9,1.1,1.1,1.1,1.1,2.9h0ZM258.7,81.7q0-.7-.4-1.1-.4-.4-1.1-.4-.7,0-1.2.4-.4.4-.5,1.1h3.2"/>
      <path d="M266,85.2v4h-2.5v-10.6h2.5v1.1q.5-.7,1.1-1t1.4-.3,2.3,1.1.9,2.9-.9,2.9-2.3,1.1-1.4-.3-1.1-1h0ZM267.6,80.3q-.8,0-1.2.6-.4.6-.4,1.6,0,1.1.4,1.7.4.6,1.2.6t1.2-.6.4-1.7-.4-1.6-1.2-.6"/>
      <path d="M277,82.9q-.8,0-1.1.3t-.4.8.3.7.9.3,1.1-.5.5-1.3v-.3h-1.3,0ZM280.7,81.9v4.4h-2.5v-1.1q-.5.7-1.1,1-.6.3-1.5.3-1.2,0-1.9-.7-.7-.7-.7-1.8,0-1.3.9-2,.9-.6,2.9-.6h1.4v-.2q0-.6-.4-.8-.5-.3-1.4-.3-.8,0-1.5.2-.7.1-1.3.5v-1.9q.8-.2,1.6-.3.8-.1,1.6-.1,2.1,0,3,.8.9.8.9,2.6"/>
      <path d="M282.5,78.7h2.5v7.7h-2.5v-7.7h0ZM282.5,75.7h2.5v2h-2.5v-2"/>
      <path d="M293.2,80.7q-.3-.1-.6-.2t-.6,0-1.4.6-.5,1.7v3.5h-2.5v-7.7h2.5v1.3q.5-.8,1.1-1.1.6-.3,1.5-.3.1,0,.3,0,.1,0,.4,0v2.2h0Z"/>
      <path d="M333.1,77.2v7.9h1.7q2.1,0,3.1-1t1-3-1-3-3.1-1h-1.7ZM331.7,76.1h2.8q2.9,0,4.3,1.2t1.4,3.9-1.4,3.9-4.3,1.2h-2.8v-10.2"/>
      <path d="M346.2,82.5q-1.5,0-2.1.3t-.6,1.2.4,1.1,1.2.4,1.7-.7.6-2v-.3h-1.3,0ZM348.7,81.9v4.4h-1.3v-1.1q-.4.7-1.1,1-.6.3-1.6.3-1.2,0-1.9-.7-.7-.7-.7-1.8,0-1.3.9-1.9.9-.7,2.6-.7h1.8q0-1-.6-1.5-.6-.5-1.6-.5-.6,0-1.3.2-.6.1-1.2.5v-1.2q.7-.3,1.3-.4.6-.1,1.3-.1,1.7,0,2.5.8.8.9.8,2.6"/>
      <path d="M352.9,76.5v2.2h2.6v1h-2.6v4.1q0,.9.2,1.2t1,.3h1.3v1h-1.3q-1.5,0-2-.5t-.5-2v-4.1h-.9v-1h.9v-2.2h1.3"/>
      <path d="M363.2,82.2v.6h-5.8q0,1.3.8,2t1.9.7,1.4-.2,1.4-.5v1.2q-.7.3-1.4.4t-1.4.1-2.9-1.1-1.1-2.9,1-3,2.8-1.1,2.4,1,.9,2.7h0ZM362,81.8q0-1-.6-1.6t-1.5-.6-1.7.6-.7,1.7h4.5s0,0,0,0Z"/>
      <path class="cls-1" d="M325.4,71.3v20.3M172.4,91.6h197"/>
      <path d="M183.6,96v1.6h-1.3q-.5,0-.7.2t-.2.6v.5h2.1v1.7h-2.1v5.9h-2.5v-5.9h-1.2v-1.7h1.2v-.5q0-1.2.7-1.8.7-.6,2.2-.6h1.9"/>
      <path d="M192.2,102.8v.7h-5.7q0,.8.6,1.3t1.5.4,1.6-.2,1.7-.7v1.9q-.9.3-1.7.5-.9.2-1.7.2-2.1,0-3.2-1.1-1.1-1.1-1.1-3,0-1.9,1.1-2.9,1.1-1.1,3.1-1.1,1.8,0,2.9,1.1,1.1,1.1,1.1,2.9h0ZM189.7,102q0-.7-.4-1.1-.4-.4-1.1-.4-.7,0-1.2.4-.4.4-.5,1.1h3.2"/>
      <path d="M198,103.2q-.8,0-1.2.3t-.4.8.3.7.9.3,1.2-.5.5-1.2v-.3h-1.3,0ZM201.7,102.2v4.4h-2.5v-1.1q-.5.7-1.1,1-.6.3-1.5.3-1.2,0-1.9-.7-.7-.7-.7-1.8,0-1.3.9-2,.9-.6,2.9-.6h1.4v-.2q0-.6-.5-.8-.5-.3-1.4-.3-.8,0-1.5.1-.7.1-1.3.5v-1.9q.8-.2,1.6-.3.8,0,1.6,0,2.1,0,3,.8.9.8.9,2.6"/>
      <path d="M206.2,96.8v2.2h2.5v1.8h-2.5v3.2q0,.5.2.7t.8.2h1.2v1.8h-2.1q-1.5,0-2.1-.6-.6-.6-.6-2.1v-3.2h-1.2v-1.8h1.2v-2.2h2.4"/>
      <path d="M210.5,103.6v-4.7h2.5v.8q0,.6,0,1.6v1.2q0,.9,0,1.3t.2.6.4.4.6.1,1.2-.6.4-1.6v-3.8h2.5v7.6h-2.5v-1.1q-.5.7-1.2,1-.6.3-1.3.3-1.3,0-2-.8-.7-.8-.7-2.4"/>
      <path d="M226.2,101q-.3-.1-.6-.2t-.6,0-1.5.6-.5,1.7v3.5h-2.4v-7.6h2.4v1.3q.5-.8,1.1-1.1.6-.3,1.5-.3.1,0,.3,0,.1,0,.4,0v2.2"/>
      <path d="M235.2,102.8v.7h-5.7q0,.8.6,1.3t1.5.4,1.6-.2,1.7-.7v1.9q-.9.3-1.7.5-.9.2-1.7.2-2.1,0-3.2-1.1-1.1-1.1-1.1-3,0-1.9,1.1-2.9,1.1-1.1,3.1-1.1,1.8,0,2.9,1.1,1.1,1.1,1.1,2.9h0ZM232.7,102q0-.7-.4-1.1-.4-.4-1.1-.4-.7,0-1.1.4-.4.4-.5,1.1h3.2"/>
      <path d="M243.5,99.2v1.9q-.8-.3-1.5-.5t-1.4-.2-1,.2-.3.5.3.4.9.2h.4q1.9.3,2.5.8.6.5.6,1.7,0,1.2-.9,1.8-.9.6-2.7.6-.8,0-1.6-.1-.8-.1-1.7-.4v-1.9q.7.4,1.5.5.8.2,1.6.2.7,0,1.1-.2.3-.2.3-.6,0-.3-.3-.5-.2-.1-1-.2h-.4q-1.6-.3-2.3-.8-.7-.6-.7-1.7,0-1.2.8-1.8.8-.6,2.6-.6.7,0,1.4,0,.8,0,1.6.3"/>
      <polyline points="251.4 108.6 251.4 109.9 244.4 109.9 244.4 108.6 251.4 108.6"/>
      <path d="M258.2,101q-.3-.1-.6-.2t-.6,0-1.5.6-.5,1.7v3.5h-2.4v-7.6h2.4v1.3q.5-.8,1.1-1.1.6-.3,1.5-.3.1,0,.3,0,.1,0,.4,0v2.2"/>
      <path d="M267.2,102.8v.7h-5.7q0,.8.6,1.3t1.5.4,1.6-.2,1.6-.7v1.9q-.8.3-1.7.5-.8.2-1.7.2-2.1,0-3.2-1.1-1.1-1.1-1.1-3,0-1.9,1.1-2.9,1.1-1.1,3.1-1.1,1.8,0,2.9,1.1,1.1,1.1,1.1,2.9h0ZM264.7,102q0-.7-.4-1.1-.4-.4-1.1-.4-.7,0-1.1.4-.4.4-.5,1.1h3.2"/>
      <path d="M272,105.5v4h-2.5v-10.6h2.5v1.1q.5-.7,1.1-1t1.4-.3,2.3,1.1.9,2.9-.9,2.9-2.3,1.1-1.4-.3-1.1-1h0ZM273.6,100.5q-.8,0-1.2.6-.4.6-.4,1.6,0,1.1.4,1.7.4.6,1.2.6t1.2-.6.4-1.7-.4-1.6-1.2-.6"/>
      <path d="M283,103.2q-.8,0-1.1.3t-.4.8.3.7.9.3,1.1-.5.5-1.2v-.3h-1.3,0ZM286.7,102.2v4.4h-2.5v-1.1q-.5.7-1.1,1-.6.3-1.5.3-1.2,0-1.9-.7-.7-.7-.7-1.8,0-1.3.9-2,.9-.6,2.9-.6h1.4v-.2q0-.6-.4-.8-.5-.3-1.4-.3-.8,0-1.5.1-.7.1-1.3.5v-1.9q.8-.2,1.6-.3.8,0,1.6,0,2.1,0,3,.8.9.8.9,2.6"/>
      <path d="M288.5,99h2.5v7.6h-2.5v-7.6h0ZM288.5,96h2.5v2h-2.5v-2"/>
      <path d="M299.2,101q-.3-.1-.6-.2t-.6,0-1.4.6-.5,1.7v3.5h-2.5v-7.6h2.5v1.3q.5-.8,1.1-1.1.6-.3,1.5-.3.1,0,.3,0,.1,0,.4,0v2.2"/>
      <path d="M308.2,102.8v.7h-5.7q0,.8.6,1.3t1.5.4,1.6-.2,1.6-.7v1.9q-.9.3-1.7.5-.9.2-1.7.2-2.1,0-3.2-1.1-1.1-1.1-1.1-3,0-1.9,1.1-2.9,1.1-1.1,3.1-1.1,1.8,0,2.9,1.1,1.1,1.1,1.1,2.9h0ZM305.7,102q0-.7-.4-1.1-.4-.4-1.1-.4-.7,0-1.1.4-.4.4-.5,1.1h3.2"/>
      <path d="M315.8,100.1v-4.1h2.5v10.6h-2.5v-1.1q-.5.7-1.1,1t-1.4.3-2.3-1.1-.9-2.9.9-2.9,2.3-1.1,1.4.3,1.1,1h0ZM314.1,105q.8,0,1.2-.6.4-.6.4-1.7,0-1.1-.4-1.6-.4-.6-1.2-.6t-1.2.6-.4,1.6.4,1.7,1.2.6h0Z"/>
      <path class="cls-1" d="M325.4,91.6v20.3M172.4,111.9h197"/>
      <path d="M185.6,120.5q.5-.7,1.1-1.1t1.4-.4,2,.8.7,2.4v4.6h-2.5v-4q0,0,0-.2v-.3q0-.8-.2-1.2-.2-.4-.8-.4-.7,0-1.1.6-.4.6-.4,1.6v3.8h-2.4v-4q0-1.3-.2-1.6-.2-.4-.8-.4-.7,0-1.1.6-.4.6-.4,1.6v3.8h-2.5v-7.6h2.5v1.1q.5-.6,1-1,.6-.3,1.3-.3.8,0,1.4.4.6.4.9,1.1"/>
      <path d="M197.2,120.8q-.8,0-1.2.6t-.4,1.7.4,1.7,1.2.6,1.2-.6.4-1.7-.4-1.7-1.2-.6h0ZM197.2,119.1q2,0,3.1,1.1,1.1,1.1,1.1,2.9,0,1.9-1.1,3-1.1,1.1-3.1,1.1-2,0-3.1-1.1-1.1-1.1-1.1-3,0-1.9,1.1-2.9,1.1-1.1,3.1-1.1"/>
      <path d="M209.2,121.3q-.3-.1-.6-.2t-.6,0-1.5.6-.5,1.7v3.5h-2.4v-7.6h2.4v1.2q.5-.8,1.1-1.1.6-.3,1.5-.3.1,0,.3,0,.1,0,.4,0v2.2"/>
      <path d="M218.2,123.1v.7h-5.7q0,.8.6,1.3t1.5.4,1.6-.2,1.6-.7v1.9q-.8.3-1.7.5-.8.2-1.7.2-2.1,0-3.2-1.1-1.1-1.1-1.1-3,0-1.9,1.1-2.9,1.1-1.1,3.1-1.1,1.8,0,2.9,1.1,1.1,1.1,1.1,2.9h0ZM215.7,122.3q0-.7-.4-1.1-.4-.4-1.1-.4-.7,0-1.2.4-.4.4-.5,1.1h3.2"/>
      <polyline points="226.4 128.9 226.4 130.2 219.4 130.2 219.4 128.9 226.4 128.9"/>
      <path d="M227.5,119.3h2.4v7.6h-2.4v-7.6h0ZM227.5,116.3h2.4v2h-2.4v-2"/>
      <path d="M240.2,122.3v4.6h-2.5v-3.5q0-1,0-1.4t-.1-.5-.4-.4-.6-.1-1.2.6-.4,1.6v3.8h-2.5v-7.6h2.5v1.1q.5-.7,1.2-1,.6-.3,1.4-.3,1.3,0,2,.8.7.8.7,2.4"/>
      <path d="M247.6,116.3v1.6h-1.4q-.5,0-.7.2t-.2.7v.5h2.1v1.8h-2.1v5.9h-2.4v-5.9h-1.2v-1.8h1.2v-.5q0-1.3.7-1.8.7-.6,2.2-.6h1.9"/>
      <path d="M252.2,120.8q-.8,0-1.2.6t-.4,1.7.4,1.7,1.2.6,1.2-.6.4-1.7-.4-1.7-1.2-.6h0ZM252.2,119.1q2,0,3.1,1.1,1.1,1.1,1.1,2.9,0,1.9-1.1,3-1.1,1.1-3.1,1.1-2,0-3.1-1.1-1.1-1.1-1.1-3,0-1.9,1.1-2.9,1.1-1.1,3.1-1.1"/>
      <path d="M264.2,121.3q-.3-.1-.6-.2t-.6,0-1.4.6-.5,1.7v3.5h-2.4v-7.6h2.4v1.2q.5-.8,1.1-1.1.6-.3,1.5-.3.1,0,.3,0,.1,0,.4,0v2.2"/>
      <path d="M272.6,120.5q.5-.7,1.1-1.1t1.4-.4,2,.8.7,2.4v4.6h-2.5v-4q0,0,0-.2v-.3q0-.8-.2-1.2-.2-.4-.8-.4-.7,0-1.1.6-.4.6-.4,1.6v3.8h-2.5v-4q0-1.3-.2-1.6-.2-.4-.8-.4-.7,0-1.1.6-.4.6-.4,1.6v3.8h-2.5v-7.6h2.5v1.1q.5-.6,1-1,.6-.3,1.3-.3.8,0,1.4.4.6.4.9,1.1"/>
      <path d="M284,123.5q-.8,0-1.1.3t-.4.8.3.7.9.3,1.1-.5.5-1.2v-.3h-1.3,0ZM287.7,122.5v4.4h-2.5v-1.1q-.5.7-1.1,1-.6.3-1.5.3-1.2,0-1.9-.7-.7-.7-.7-1.8,0-1.3.9-2,.9-.6,2.9-.6h1.4v-.2q0-.6-.5-.8-.4-.3-1.4-.3-.8,0-1.5.1-.7.1-1.3.5v-1.9q.8-.2,1.6-.3.8-.1,1.6-.1,2.1,0,3,.8.9.8.9,2.6"/>
      <path d="M292.2,117.1v2.2h2.5v1.8h-2.5v3.2q0,.5.2.7t.8.2h1.3v1.8h-2.1q-1.4,0-2.1-.6-.6-.6-.6-2.1v-3.2h-1.2v-1.7h1.2v-2.2h2.4"/>
      <path d="M296.5,119.3h2.5v7.6h-2.5v-7.6h0ZM296.5,116.3h2.5v2h-2.5v-2"/>
      <path d="M305.2,120.8q-.8,0-1.2.6t-.4,1.7.4,1.7,1.2.6,1.2-.6.4-1.7-.4-1.7-1.2-.6h0ZM305.2,119.1q2,0,3.1,1.1,1.1,1.1,1.1,2.9,0,1.9-1.1,3-1.1,1.1-3.1,1.1-2,0-3.1-1.1-1.1-1.1-1.1-3,0-1.9,1.1-2.9,1.1-1.1,3.1-1.1"/>
      <path d="M319.2,122.3v4.6h-2.5v-3.5q0-1,0-1.4t-.1-.5-.4-.4-.6-.1-1.2.6-.4,1.6v3.8h-2.5v-7.6h2.5v1.1q.5-.7,1.2-1,.6-.3,1.4-.3,1.3,0,2,.8.7.8.7,2.4h0Z"/>
      <line class="cls-1" x1="325.4" y1="111.9" x2="325.4" y2="132.2"/>
      <rect class="cls-3" x="172.4" y="71.3" width="197" height="60.9" rx="5" ry="5"/>
      <rect class="cls-4" x="406.8" y="60" width="219" height="20.3" rx="5" ry="5"/>
      <rect class="cls-2" x="406.8" y="60" width="219" height="20.3" rx="5" ry="5"/>
      <polyline points="413 64.4 417.3 64.4 417.3 65.9 415.3 65.9 415.3 75.3 417.3 75.3 417.3 76.8 413 76.8 413 64.4"/>
      <path d="M422.4,71.6q-.8,0-1.1.3t-.4.8.3.7.9.3,1.2-.5.5-1.2v-.3h-1.3,0ZM426.2,70.6v4.4h-2.5v-1.1q-.5.7-1.1,1-.6.3-1.5.3-1.2,0-1.9-.7-.7-.7-.7-1.8,0-1.3.9-2,.9-.6,2.9-.6h1.4v-.2q0-.6-.5-.8-.4-.3-1.4-.3-.8,0-1.5.1-.7.1-1.3.5v-1.9q.8-.2,1.6-.3.8-.1,1.6-.1,2.1,0,3,.8.9.8.9,2.6"/>
      <path d="M433.7,69.4q-.3-.1-.6-.2t-.6,0-1.5.6-.5,1.7v3.5h-2.5v-7.6h2.5v1.2q.5-.8,1.1-1.1.6-.3,1.5-.3.1,0,.3,0,.1,0,.4,0v2.2"/>
      <path d="M440.7,69.4q-.3-.1-.6-.2t-.6,0-1.5.6-.5,1.7v3.5h-2.4v-7.6h2.4v1.2q.5-.8,1.1-1.1.6-.3,1.5-.3.1,0,.3,0,.1,0,.4,0v2.2"/>
      <path d="M445.4,71.6q-.8,0-1.2.3t-.4.8.3.7.9.3,1.1-.5.5-1.2v-.3h-1.3,0ZM449.2,70.6v4.4h-2.5v-1.1q-.5.7-1.1,1-.6.3-1.5.3-1.2,0-1.9-.7-.7-.7-.7-1.8,0-1.3.9-2,.9-.6,2.9-.6h1.4v-.2q0-.6-.5-.8-.4-.3-1.4-.3-.8,0-1.5.1-.7.1-1.3.5v-1.9q.8-.2,1.6-.3.8-.1,1.6-.1,2.1,0,3,.8.9.8.9,2.6"/>
      <path d="M450,67.4h2.5l2,5.2,1.8-5.2h2.5l-3.2,8.4q-.5,1.3-1.1,1.8t-1.7.5h-1.4v-1.6h.8q.6,0,.9-.2.3-.2.4-.7v-.2c0,0-3.3-8-3.3-8"/>
      <path d="M468.6,68.9q-.8,0-1.2.6t-.4,1.7.4,1.7,1.2.6,1.2-.6.4-1.7-.4-1.7-1.2-.6h0ZM468.6,67.2q2,0,3.1,1.1,1.1,1.1,1.1,2.9,0,1.9-1.1,3-1.1,1.1-3.1,1.1-2,0-3.1-1.1-1.1-1.1-1.1-3,0-1.9,1.1-2.9,1.1-1.1,3.1-1.1"/>
      <path d="M480,64.4v1.6h-1.3q-.5,0-.7.2t-.2.7v.5h2.1v1.8h-2.1v5.9h-2.5v-5.9h-1.2v-1.8h1.2v-.5q0-1.3.7-1.8.7-.6,2.2-.6h1.9"/>
      <path d="M491,64.4v1.6h-1.4q-.5,0-.7.2t-.2.7v.5h2.1v1.8h-2.1v5.9h-2.5v-5.9h-1.2v-1.8h1.2v-.5q0-1.3.7-1.8.7-.6,2.2-.6h1.9"/>
      <path d="M499.6,71.2v.7h-5.7q0,.8.6,1.3t1.5.4,1.6-.2,1.7-.7v1.9q-.9.3-1.7.5-.8.2-1.7.2-2.1,0-3.2-1.1-1.1-1.1-1.1-3,0-1.9,1.1-2.9,1.1-1.1,3.1-1.1,1.8,0,2.9,1.1,1.1,1.1,1.1,2.9h0ZM497.1,70.4q0-.7-.4-1.1-.4-.4-1.1-.4-.7,0-1.1.4-.4.4-.5,1.1h3.2"/>
      <path d="M505.4,71.6q-.8,0-1.1.3t-.4.8.3.7.9.3,1.2-.5.5-1.2v-.3h-1.3,0ZM509.2,70.6v4.4h-2.5v-1.1q-.5.7-1.1,1-.6.3-1.5.3-1.2,0-1.9-.7-.7-.7-.7-1.8,0-1.3.9-2,.9-.6,2.9-.6h1.4v-.2q0-.6-.5-.8-.4-.3-1.4-.3-.8,0-1.5.1-.7.1-1.3.5v-1.9q.8-.2,1.6-.3.8-.1,1.6-.1,2.1,0,3,.8.9.8.9,2.6"/>
      <path d="M513.7,65.2v2.2h2.5v1.7h-2.5v3.2q0,.5.2.7t.8.2h1.2v1.7h-2.1q-1.5,0-2.1-.6-.6-.6-.6-2.1v-3.2h-1.2v-1.8h1.2v-2.2h2.4"/>
      <path d="M517.9,72v-4.7h2.5v.8q0,.6,0,1.6v1.3q0,.9,0,1.3t.1.6.4.4.6.1,1.2-.6.4-1.6v-3.8h2.5v7.6h-2.5v-1.1q-.5.7-1.2,1-.6.3-1.4.3-1.3,0-2-.8-.7-.8-.7-2.4"/>
      <path d="M533.7,69.4q-.3-.1-.6-.2t-.6,0-1.4.6-.5,1.7v3.5h-2.5v-7.6h2.5v1.2q.5-.8,1.1-1.1.6-.3,1.5-.3.1,0,.3,0,.1,0,.4,0v2.2"/>
      <path d="M542.6,71.2v.7h-5.7q0,.8.6,1.3t1.5.4,1.6-.2,1.7-.7v1.9q-.8.3-1.7.5-.9.2-1.7.2-2.1,0-3.2-1.1-1.1-1.1-1.1-3,0-1.9,1.1-2.9,1.1-1.1,3.1-1.1,1.8,0,2.9,1.1,1.1,1.1,1.1,2.9h0ZM540.1,70.4q0-.7-.4-1.1-.4-.4-1.1-.4-.7,0-1.2.4-.4.4-.5,1.1h3.2"/>
      <path d="M552.7,65.2v2.2h2.5v1.7h-2.5v3.2q0,.5.2.7t.8.2h1.2v1.7h-2.1q-1.5,0-2.1-.6-.6-.6-.6-2.1v-3.2h-1.2v-1.8h1.2v-2.2h2.4"/>
      <path d="M556,67.4h2.5l2,5.2,1.8-5.2h2.5l-3.2,8.4q-.5,1.3-1.1,1.8t-1.7.5h-1.4v-1.6h.8q.6,0,.9-.2.3-.2.4-.7v-.2c0,0-3.3-8-3.3-8"/>
      <path d="M568.4,73.9v4h-2.5v-10.6h2.5v1.1q.5-.7,1.1-1t1.4-.3,2.3,1.1.9,2.9-.9,2.9-2.3,1.1-1.4-.3-1.1-1h0ZM570.1,68.9q-.8,0-1.2.6-.4.6-.4,1.6,0,1.1.4,1.7.4.6,1.2.6t1.2-.6.4-1.7-.4-1.6-1.2-.6"/>
      <path d="M583.6,71.2v.7h-5.7q0,.8.6,1.3t1.5.4,1.6-.2,1.7-.7v1.9q-.9.3-1.7.5-.9.2-1.7.2-2.1,0-3.2-1.1-1.1-1.1-1.1-3,0-1.9,1.1-2.9,1.1-1.1,3.1-1.1,1.8,0,2.9,1.1,1.1,1.1,1.1,2.9h0ZM581.1,70.4q0-.7-.4-1.1-.4-.4-1.1-.4-.7,0-1.2.4-.4.4-.5,1.1h3.2"/>
      <path d="M592,67.6v1.9q-.8-.3-1.5-.5t-1.4-.2-1,.2-.3.5.2.5.9.2h.4q1.9.3,2.5.8.7.5.7,1.7,0,1.2-.9,1.8-.9.6-2.7.6-.8,0-1.6-.1-.8-.1-1.6-.4v-1.9q.7.4,1.5.5.8.2,1.6.2.7,0,1.1-.2.4-.2.4-.6,0-.3-.2-.5-.2-.2-1-.2h-.4q-1.6-.3-2.3-.8-.7-.6-.7-1.7,0-1.2.8-1.8.8-.6,2.6-.6.7,0,1.4.1.8,0,1.6.3"/>
      <polygon points="598 76.9 593.8 76.9 593.8 75.3 595.7 75.3 595.7 65.9 593.8 65.9 593.8 64.4 598 64.4 598 76.9 598 76.9"/>
      <line class="cls-1" x1="603.8" y1="60" x2="603.8" y2="80.3"/>
      <rect class="cls-3" x="406.8" y="60" width="219" height="20.3" rx="5" ry="5"/>
      <rect class="cls-4" x="713.5" y="24.5" width="250" height="60.9" rx="5" ry="5"/>
      <rect class="cls-2" x="713.5" y="24.5" width="250" height="60.9" rx="5" ry="5"/>
      <path d="M722.3,29.7v2.2h2.5v1.8h-2.5v3.3q0,.5.2.7t.8.2h1.2v1.8h-2.1q-1.5,0-2.1-.6-.6-.6-.6-2.1v-3.2h-1.2v-1.8h1.2v-2.2h2.4"/>
      <path d="M725.6,31.9h2.4l2,5.2,1.8-5.2h2.4l-3.2,8.4q-.5,1.3-1.1,1.8t-1.7.5h-1.4v-1.6h.8q.6,0,.9-.2.3-.2.4-.7v-.2c0,0-3.3-7.9-3.3-7.9"/>
      <path d="M738.1,38.4v4h-2.4v-10.6h2.4v1.1q.5-.7,1.1-1t1.4-.3,2.3,1.1.9,2.9-.9,2.9-2.3,1.1-1.4-.3-1.1-1h0ZM739.7,33.5q-.8,0-1.2.6-.4.6-.4,1.6,0,1.1.4,1.7.4.6,1.2.6t1.2-.6.4-1.7-.4-1.6-1.2-.6"/>
      <path d="M753.3,35.7v.7h-5.7q0,.8.6,1.3t1.5.4,1.6-.2,1.6-.7v1.9q-.8.3-1.7.5-.8.2-1.7.2-2.1,0-3.2-1.1-1.1-1.1-1.1-3,0-1.9,1.1-2.9,1.1-1.1,3.1-1.1,1.8,0,2.9,1.1,1.1,1.1,1.1,2.9h0ZM750.8,34.9q0-.7-.4-1.1-.4-.4-1.1-.4-.7,0-1.2.4-.4.4-.5,1.2h3.2,0Z"/>
      <path d="M811.5,30.1l-.3,1.5q-.6-.6-1.3-.9t-1.6-.3-2.9,1.1-1.6,3.1.3,3.1,2.5,1.1q.9,0,1.7-.3.8-.3,1.7-1l-.3,1.4q-.8.5-1.7.7-.8.2-1.8.2-2.3,0-3.3-1.4t-.5-3.9,2.2-3.9,3.9-1.4,1.7.2,1.4.7"/>
      <path d="M813.4,31.9h1.3l-1.6,7.6h-1.3l1.6-7.7h0ZM814,28.9h1.3l-.3,1.6h-1.3l.3-1.6"/>
      <path d="M819.1,29.7l-.5,2.2h2.6l-.2,1h-2.6l-.9,4.2q-.2.9,0,1.2t1,.3h1.3l-.2,1h-1.3q-1.4,0-1.9-.5t-.1-2l.9-4.2h-.9l.2-1h.9l.5-2.2h1.3ZM823.8,40.2q-.8,1.4-1.4,1.8-.6.4-1.4.4h-1l.2-1h.7q.5,0,.8-.2.3-.2.9-1.1l.3-.6-1.5-7.5h1.3l1.1,6,3.6-6h1.3l-5.2,8.4h0ZM834.9,30.3q-1.5,0-2.6,1.1-1.1,1.1-1.5,3-.4,1.9.2,3,.7,1.1,2.2,1.1,1.5,0,2.6-1.1,1.1-1.1,1.5-3,.4-1.9-.2-3-.6-1.1-2.1-1.1h0ZM835.2,29.1q2.1,0,3.1,1.4,1,1.4.5,3.9-.5,2.4-2.1,3.9-1.6,1.4-3.7,1.4-2.1,0-3.1-1.4-1-1.4-.5-3.9.5-2.4,2.1-3.9,1.6-1.4,3.8-1.4"/>
      <path d="M846.1,35.7q.3-1.4,0-2.1t-1.4-.8-1.7.8-1,2.1.1,2.2,1.4.8,1.7-.8,1-2.2h0ZM842.4,33q.6-.7,1.2-1,.7-.3,1.5-.3,1.4,0,2,1.1.6,1.1.2,2.9-.4,1.8-1.5,2.9t-2.5,1.1q-.8,0-1.4-.3-.5-.3-.8-1l-.2,1.1h-1.3l2.3-10.6h1.3l-.9,4.1h0ZM850.4,31.9h1.3l-1.7,7.8q-.3,1.4-1,2.1-.7.7-1.9.7h-.5l.2-1.1h.3q.7,0,1-.3.3-.3.5-1.4l1.7-7.8h0ZM851,28.9h1.3l-.3,1.6h-1.3l.3-1.6"/>
      <path d="M860.2,35.4v.6h-5.9q-.2,1.3.4,2t1.8.7,1.5-.2,1.4-.5l-.2,1.2q-.8.3-1.5.4t-1.4.1-2.7-1.1-.5-2.9,1.7-3,3-1.1,2.2,1,.3,2.7h0ZM859,35q.2-1-.2-1.6t-1.3-.6-1.8.6-1.1,1.7h4.5"/>
      <path d="M868.9,32.2l-.2,1.2q-.5-.3-1-.4t-1-.1-2.1.8-1.1,2.2.2,2.2,1.7.8,1.1-.1,1.2-.4l-.2,1.1q-.6.2-1.2.4t-1.2.1-2.5-1.1-.4-2.9,1.7-2.9,3.1-1.1,1.1.1,1,.3"/>
      <path d="M873.1,29.7l-.5,2.2h2.6l-.2,1h-2.6l-.9,4.2q-.2.9,0,1.2t1,.3h1.3l-.2,1h-1.3q-1.4,0-1.9-.5t-.1-2l.9-4.2h-.9l.2-1h.9l.5-2.2h1.3"/>
      <path d="M882.1,29.7l-.5,2.2h2.6l-.2,1h-2.6l-.9,4.2q-.2.9,0,1.2t1,.3h1.3l-.2,1h-1.3q-1.4,0-1.9-.5t-.1-2l.9-4.2h-.9l.2-1h.9l.5-2.2h1.3ZM886.8,40.2q-.8,1.4-1.4,1.8-.6.4-1.4.4h-1l.2-1h.7q.5,0,.8-.2.3-.2.9-1.1l.3-.6-1.5-7.5h1.3l1.1,6,3.6-6h1.3l-5.2,8.4h0ZM893.2,38.4l-.9,4.1h-1.3l2.2-10.6h1.3l-.2,1.2q.6-.7,1.2-1,.7-.3,1.5-.3,1.4,0,2,1.1.6,1.1.2,2.9-.4,1.8-1.5,2.9-1.1,1.1-2.5,1.1-.8,0-1.4-.3-.5-.3-.8-1h0ZM898.1,35.7q.3-1.4,0-2.1-.4-.8-1.4-.8-1,0-1.7.8-.7.8-1,2.1-.3,1.4,0,2.2.4.8,1.4.8,1,0,1.7-.8.7-.8,1-2.2"/>
      <path d="M908.2,35.4v.6h-5.9q-.2,1.3.4,2t1.8.7,1.4-.2,1.4-.5l-.2,1.2q-.8.3-1.5.4t-1.4.1-2.7-1.1-.5-2.9,1.7-3,3-1.1,2.2,1,.3,2.7h0ZM907,35q.2-1-.2-1.6t-1.3-.6-1.8.6-1.1,1.7h4.5s0,0,0,0Z"/>
      <path class="cls-1" d="M795.5,24.5v20.3M713.5,44.8h250"/>
      <path d="M722.3,50v2.2h2.5v1.8h-2.5v3.2q0,.5.2.7t.8.2h1.2v1.8h-2.1q-1.5,0-2.1-.6-.6-.6-.6-2.1v-3.2h-1.2v-1.7h1.2v-2.2h2.4"/>
      <path d="M730.3,53.7q-.8,0-1.2.6t-.4,1.7.4,1.7,1.2.6,1.2-.6.4-1.7-.4-1.7-1.2-.6h0ZM730.3,52q2,0,3.1,1.1,1.1,1.1,1.1,2.9,0,1.9-1.1,3-1.1,1.1-3.1,1.1-2,0-3.1-1.1-1.1-1.1-1.1-3,0-1.9,1.1-2.9,1.1-1.1,3.1-1.1"/>
      <path d="M739.3,50v2.2h2.5v1.8h-2.5v3.2q0,.5.2.7t.8.2h1.2v1.8h-2.1q-1.5,0-2.1-.6-.6-.6-.6-2.1v-3.2h-1.2v-1.7h1.2v-2.2h2.4"/>
      <path d="M747.1,56.4q-.8,0-1.2.3t-.4.8.3.7.9.3,1.2-.5.5-1.2v-.3h-1.3,0ZM750.8,55.4v4.4h-2.5v-1.1q-.5.7-1.1,1-.6.3-1.5.3-1.2,0-1.9-.7-.7-.7-.7-1.8,0-1.3.9-2,.9-.6,2.9-.6h1.4v-.2q0-.6-.5-.8-.5-.3-1.4-.3-.8,0-1.5.2-.7.1-1.3.5v-1.9q.8-.2,1.6-.3.8-.1,1.6-.1,2.1,0,3,.8.9.8.9,2.6"/>
      <polygon points="752.6 49.2 755.1 49.2 755.1 59.8 752.6 59.8 752.6 49.2 752.6 49.2"/>
      <path d="M809.5,50.4v1.4q-.7-.6-1.5-1t-1.7-.3-2.7,1.1-.9,3.1.9,3.1,2.7,1.1q.9,0,1.7-.3.8-.3,1.5-1v1.4q-.7.5-1.5.7-.8.2-1.7.2-2.3,0-3.7-1.4t-1.3-3.9,1.3-3.9,3.7-1.4,1.7.2,1.5.7"/>
      <path d="M814.7,53q-1,0-1.6.8t-.6,2.1.6,2.2,1.6.8,1.6-.8.6-2.2-.6-2.1-1.6-.8h0ZM814.7,52q1.6,0,2.6,1.1t.9,2.9-.9,3-2.6,1.1-2.6-1.1-.9-3,.9-2.9,2.6-1.1"/>
      <path d="M820.6,56.8v-4.6h1.3v4.6q0,1.1.4,1.6t1.3.5,1.6-.6.6-1.8v-4.3h1.3v7.6h-1.3v-1.2q-.5.7-1.1,1-.6.3-1.4.3-1.3,0-2-.8-.7-.8-.7-2.4h0ZM823.8,52h0"/>
      <path d="M836.1,55.2v4.6h-1.3v-4.6q0-1.1-.4-1.6t-1.3-.5-1.6.6-.6,1.8v4.3h-1.3v-7.6h1.3v1.2q.5-.7,1.1-1,.6-.3,1.4-.3,1.3,0,2,.8.7.8.7,2.4"/>
      <path d="M840,50v2.2h2.6v1h-2.6v4.1q0,.9.2,1.2t1,.3h1.3v1h-1.3q-1.4,0-2-.5t-.5-2v-4.1h-.9v-1h.9v-2.2h1.3"/>
      <path d="M850.7,53q-1,0-1.6.8t-.6,2.1.6,2.2,1.6.8,1.6-.8.6-2.2-.6-2.1-1.6-.8h0ZM850.7,52q1.6,0,2.6,1.1t.9,2.9-.9,3-2.6,1.1-2.6-1.1-.9-3,.9-2.9,2.6-1.1"/>
      <path d="M860.7,49.2v1h-1.2q-.7,0-.9.3t-.2,1v.7h2.1v1h-2.1v6.7h-1.3v-6.7h-1.2v-1h1.2v-.5q0-1.3.6-1.9t1.9-.6h1.2"/>
      <path d="M867,50v2.2h2.6v1h-2.6v4.1q0,.9.2,1.2t1,.3h1.3v1h-1.3q-1.4,0-2-.5t-.5-2v-4.1h-.9v-1h.9v-2.2h1.3"/>
      <path d="M874,60.5q-.5,1.4-1,1.8t-1.3.4h-1v-1h.7q.5,0,.8-.2t.6-1.1l.2-.6-3.1-7.5h1.3l2.4,6,2.4-6h1.3l-3.4,8.4"/>
      <path d="M880,58.7v4.1h-1.3v-10.6h1.3v1.1q.4-.7,1-1t1.4-.3,2.3,1.1.9,2.9-.9,2.9-2.3,1.1-1.4-.3-1-1h0ZM884.3,56q0-1.4-.6-2.2-.6-.8-1.6-.8-1,0-1.6.8-.6.8-.6,2.2,0,1.4.6,2.2.6.8,1.6.8t1.6-.8.6-2.2"/>
      <path d="M894.3,55.7v.6h-5.8q0,1.3.8,2t2,.7,1.4-.2,1.4-.5v1.2q-.7.3-1.4.4t-1.4.1-2.9-1.1-1.1-2.9,1-3,2.8-1.1,2.4,1,.9,2.7h0ZM893.1,55.3q0-1-.6-1.6t-1.5-.6-1.7.6-.7,1.7h4.5s0,0,0,0Z"/>
      <path class="cls-1" d="M795.5,44.8v20.3M713.5,65.1h250"/>
      <path d="M723.5,74.4q.8,0,1.2-.3t.3-1-.3-1-1.2-.3h-1.1v2.6h1.1ZM722.4,76.3v3.8h-2.6v-10.2h4q2,0,3,.7.9.7.9,2.1,0,1-.5,1.7-.5.6-1.5,1,.5.1,1,.5.4.4.9,1.3l1.4,2.9h-2.8l-1.2-2.5q-.4-.8-.8-1-.4-.3-1-.3h-.7"/>
      <path d="M738.3,76.3v.7h-5.7q0,.9.6,1.3t1.5.4,1.6-.2,1.6-.7v1.9q-.8.3-1.7.5-.8.2-1.7.2-2.1,0-3.2-1.1-1.1-1.1-1.1-3,0-1.9,1.1-2.9,1.1-1.1,3.1-1.1,1.8,0,2.9,1.1,1.1,1.1,1.1,2.9h0ZM735.8,75.5q0-.7-.4-1.1-.4-.4-1.1-.4-.7,0-1.2.4-.4.4-.5,1.1h3.2"/>
      <path d="M743.1,79v4h-2.4v-10.6h2.4v1.1q.5-.7,1.1-1t1.4-.3,2.3,1.1.9,2.9-.9,2.9-2.3,1.1-1.4-.3-1.1-1h0ZM744.7,74.1q-.8,0-1.2.6-.4.6-.4,1.7,0,1.1.4,1.7.4.6,1.2.6t1.2-.6.4-1.7-.4-1.7-1.2-.6"/>
      <path d="M754.1,76.7q-.8,0-1.1.3t-.4.8.3.7.9.3,1.1-.5.5-1.3v-.3h-1.3,0ZM757.8,75.7v4.4h-2.5v-1.1q-.5.7-1.1,1-.6.3-1.5.3-1.2,0-1.9-.7-.7-.7-.7-1.8,0-1.3.9-2,.9-.6,2.9-.6h1.4v-.2q0-.6-.4-.8-.5-.3-1.4-.3-.8,0-1.5.1-.7.2-1.3.5v-1.9q.8-.2,1.6-.3.8,0,1.6,0,2.1,0,3,.8.9.8.9,2.6"/>
      <path d="M759.6,72.5h2.4v7.6h-2.4v-7.6h0ZM759.6,69.5h2.4v2h-2.4v-2"/>
      <path d="M770.3,74.5q-.3-.1-.6-.2t-.6,0-1.5.6-.5,1.7v3.5h-2.4v-7.6h2.4v1.2q.5-.8,1.1-1.1.6-.3,1.5-.3.1,0,.3,0,.1,0,.4,0v2.2"/>
      <path d="M779.3,76.3v.7h-5.7q0,.9.6,1.3t1.5.4,1.6-.2,1.7-.7v1.9q-.9.3-1.7.5-.9.2-1.7.2-2.1,0-3.2-1.1-1.1-1.1-1.1-3,0-1.9,1.1-2.9,1.1-1.1,3.1-1.1,1.8,0,2.9,1.1,1.1,1.1,1.1,2.9h0ZM776.8,75.5q0-.7-.4-1.1-.4-.4-1.1-.4-.7,0-1.1.4-.4.4-.5,1.1h3.2"/>
      <path d="M786.9,73.6v-4.1h2.4v10.6h-2.4v-1.1q-.5.7-1.1,1t-1.4.3-2.3-1.1-.9-2.9.9-2.9,2.3-1.1,1.4.3,1.1,1h0ZM785.2,78.5q.8,0,1.2-.6.4-.6.4-1.7,0-1.1-.4-1.6-.4-.6-1.2-.6t-1.2.6-.4,1.6.4,1.7,1.2.6h0Z"/>
      <path d="M807.3,72.8v1.2q-.5-.3-1.1-.4t-1.1-.1-1.9.8-.7,2.2.7,2.2,1.9.8,1.1-.1,1.1-.4v1.1q-.5.2-1.1.4t-1.2.1-2.8-1.1-1-2.9,1-2.9,2.8-1.1,1.1.1,1.1.4"/>
      <path d="M812.7,73.3q-1,0-1.6.8t-.6,2.2.6,2.2,1.6.8,1.6-.8.6-2.2-.6-2.2-1.6-.8h0ZM812.7,72.3q1.6,0,2.6,1.1t.9,2.9-.9,3-2.6,1.1-2.6-1.1-.9-3,.9-2.9,2.6-1.1"/>
      <path d="M818.6,77.1v-4.6h1.3v4.6q0,1.1.4,1.6t1.3.5,1.6-.6.6-1.8v-4.3h1.3v7.6h-1.3v-1.2q-.5.7-1.1,1-.6.3-1.4.3-1.3,0-2-.8-.7-.8-.7-2.4h0ZM821.8,72.3h0"/>
      <path d="M834.1,75.5v4.6h-1.3v-4.6q0-1.1-.4-1.6t-1.3-.5-1.6.7-.6,1.8v4.3h-1.3v-7.6h1.3v1.2q.4-.7,1.1-1,.6-.3,1.4-.3,1.3,0,2,.8.7.8.7,2.4"/>
      <path d="M838,70.3v2.2h2.6v1h-2.6v4.1q0,.9.2,1.2t1,.3h1.3v1h-1.3q-1.5,0-2-.5t-.5-2v-4.1h-.9v-1h.9v-2.2h1.3"/>
      <path d="M850.2,73.6q-.2-.1-.5-.2t-.5,0-1.7.7-.6,2v4h-1.3v-7.6h1.3v1.2q.4-.7,1-1,.6-.3,1.5-.3.1,0,.3,0,.2,0,.3,0v1.3"/>
      <path d="M858.3,76v.6h-5.8q0,1.3.8,2t2,.7,1.4-.2,1.3-.5v1.2q-.7.3-1.4.4t-1.4.1-2.9-1.1-1.1-2.9,1-3,2.8-1.1,2.4,1,.9,2.7h0ZM857.1,75.6q0-1-.6-1.6t-1.5-.6-1.7.6-.7,1.7h4.5"/>
      <path d="M862,79v4.1h-1.3v-10.6h1.3v1.1q.4-.7,1-1t1.4-.3,2.3,1.1.9,2.9-.9,2.9-2.3,1.1-1.4-.3-1-1h0ZM866.3,76.3q0-1.4-.6-2.1-.6-.8-1.6-.8-1,0-1.6.8-.6.8-.6,2.1,0,1.4.6,2.2.6.8,1.6.8t1.6-.8.6-2.2"/>
      <path d="M873.3,76.3q-1.5,0-2.1.3t-.6,1.2.4,1.1,1.2.4,1.7-.7.6-2v-.3h-1.2ZM875.8,75.7v4.4h-1.3v-1.1q-.4.7-1.1,1-.6.3-1.6.3-1.2,0-1.9-.7-.7-.7-.7-1.8,0-1.3.8-1.9.9-.7,2.6-.7h1.8q0-1-.6-1.5-.6-.5-1.6-.5-.6,0-1.3.2-.6.1-1.2.5v-1.2q.7-.3,1.3-.4.6-.1,1.3-.1,1.7,0,2.5.8.8.9.8,2.6"/>
      <path d="M878.8,72.5h1.3v7.6h-1.3v-7.6h0ZM878.8,69.5h1.3v1.6h-1.3v-1.6"/>
      <path d="M887.2,73.6q-.2-.1-.5-.2t-.5,0-1.7.7-.6,2v4h-1.3v-7.6h1.3v1.2q.4-.7,1-1,.6-.3,1.5-.3.1,0,.3,0,.2,0,.3,0v1.3"/>
      <path d="M895.3,76v.6h-5.8q0,1.3.8,2t2,.7,1.4-.2,1.3-.5v1.2q-.7.3-1.4.4t-1.4.1-2.9-1.1-1.1-2.9,1-3,2.7-1.1,2.4,1,.9,2.7h0ZM894.1,75.6q0-1-.6-1.6t-1.5-.6-1.7.6-.7,1.7h4.5"/>
      <path d="M902.8,73.6v-4.1h1.2v10.6h-1.2v-1.1q-.4.7-1,1t-1.4.3-2.3-1.1-.9-2.9.9-2.9,2.3-1.1,1.4.3,1,1h0ZM898.5,76.3q0,1.4.6,2.2.6.8,1.6.8,1,0,1.6-.8.6-.8.6-2.2,0-1.4-.6-2.1-.6-.8-1.6-.8t-1.6.8-.6,2.1"/>
      <path d="M913.7,73.3q-1,0-1.6.8t-.6,2.2.6,2.2,1.6.8,1.6-.8.6-2.2-.6-2.2-1.6-.8h0ZM913.7,72.3q1.6,0,2.6,1.1t.9,2.9-.9,3-2.6,1.1-2.6-1.1-.9-3,.9-2.9,2.6-1.1"/>
      <path d="M923.7,69.5v1h-1.2q-.7,0-1,.3t-.2,1v.7h2.1v1h-2.1v6.7h-1.3v-6.7h-1.2v-1h1.2v-.5q0-1.3.6-1.9t1.9-.6h1.2"/>
      <path d="M930,70.3v2.2h2.6v1h-2.6v4.1q0,.9.2,1.2t1,.3h1.3v1h-1.3q-1.4,0-2-.5t-.5-2v-4.1h-.9v-1h.9v-2.2h1.3"/>
      <path d="M937,80.8q-.5,1.4-1,1.8t-1.3.4h-1v-1h.7q.5,0,.8-.2t.6-1.1l.2-.6-3.1-7.5h1.3l2.4,6,2.4-6h1.3l-3.4,8.4"/>
      <path d="M943,79v4.1h-1.3v-10.6h1.3v1.1q.4-.7,1-1t1.4-.3,2.3,1.1.9,2.9-.9,2.9-2.3,1.1-1.4-.3-1-1h0ZM947.3,76.3q0-1.4-.6-2.1-.6-.8-1.6-.8-1,0-1.6.8-.6.8-.6,2.1,0,1.4.6,2.2.6.8,1.6.8t1.6-.8.6-2.2"/>
      <path d="M957.3,76v.6h-5.8q0,1.3.8,2t2,.7,1.4-.2,1.4-.5v1.2q-.7.3-1.4.4t-1.4.1-2.9-1.1-1.1-2.9,1-3,2.8-1.1,2.4,1,.9,2.7h0ZM956.1,75.6q0-1-.6-1.6t-1.5-.6-1.7.6-.7,1.7h4.5s0,0,0,0Z"/>
      <line class="cls-1" x1="795.5" y1="65.1" x2="795.5" y2="85.4"/>
      <rect class="cls-3" x="713.5" y="24.5" width="250" height="60.9" rx="5" ry="5"/>
      <rect class="cls-4" x="406.4" y="101.1" width="807" height="101.5" rx="5" ry="5"/>
      <rect class="cls-2" x="406.4" y="101.1" width="807" height="101.5" rx="5" ry="5"/>
      <polyline points="412.6 105.9 415.3 105.9 415.3 109.8 419.2 109.8 419.2 105.9 421.8 105.9 421.8 116.1 419.2 116.1 419.2 111.7 415.3 111.7 415.3 116.1 412.6 116.1 412.6 105.9"/>
      <path d="M428.2,110q-.8,0-1.2.6t-.4,1.7.4,1.7,1.2.6,1.2-.6.4-1.7-.4-1.7-1.2-.6h0ZM428.2,108.2q2,0,3.1,1.1,1.1,1.1,1.1,2.9,0,1.9-1.1,3-1.1,1.1-3.1,1.1-2,0-3.1-1.1-1.1-1.1-1.1-3,0-1.9,1.1-2.9,1.1-1.1,3.1-1.1"/>
      <polygon points="433.9 108.4 436.2 108.4 437.5 113.7 438.8 108.4 440.8 108.4 442.1 113.6 443.4 108.4 445.8 108.4 443.8 116.1 441.1 116.1 439.8 110.8 438.5 116.1 435.9 116.1 433.9 108.4 433.9 108.4"/>
      <path d="M586.9,106.2v2.2h2.6v1h-2.6v4.1q0,.9.3,1.2t1,.3h1.3v1h-1.3q-1.5,0-2-.5t-.5-2v-4.1h-.9v-1h.9v-2.2h1.3"/>
      <path d="M597,111.4v4.6h-1.3v-4.6q0-1.1-.4-1.6t-1.3-.5-1.6.7-.6,1.8v4.3h-1.3v-10.6h1.3v4.2q.5-.7,1.1-1,.6-.3,1.4-.3,1.3,0,2,.8.7.8.7,2.4"/>
      <path d="M599.7,108.4h1.3v7.6h-1.3v-7.6h0ZM599.7,105.4h1.3v1.6h-1.3v-1.6"/>
      <path d="M608.6,108.6v1.2q-.5-.3-1.1-.4t-1.2-.1-1.4.3-.5.9.3.7,1.3.5h.4q1.3.4,1.9.9.6.5.6,1.4,0,1.1-.8,1.7-.8.6-2.3.6-.6,0-1.3-.1-.7-.1-1.4-.4v-1.3q.7.4,1.4.5.7.2,1.3.2.9,0,1.4-.3.5-.3.5-.9,0-.5-.3-.8-.3-.3-1.5-.5h-.4q-1.2-.3-1.7-.9t-.5-1.4.8-1.7,2.2-.6,1.3,0,1.1.3"/>
      <path d="M618.6,105.4v1h-1.2q-.7,0-1,.3t-.2,1v.7h2.1v1h-2.1v6.7h-1.3v-6.7h-1.2v-1h1.2v-.5q0-1.3.6-1.9t1.9-.6h1.2"/>
      <path d="M619.7,108.4h1.3v7.6h-1.3v-7.6h0ZM619.7,105.4h1.3v1.6h-1.3v-1.6"/>
      <polyline points="623.7 105.4 624.9 105.4 624.9 116.1 623.7 116.1 623.7 105.4"/>
      <path d="M634.2,111.9v.6h-5.8q0,1.3.8,2t2,.7,1.4-.2,1.4-.5v1.2q-.7.3-1.4.4t-1.4.1-2.9-1.1-1.1-2.9,1-3,2.8-1.1,2.4,1,.9,2.7h0ZM633,111.6q0-1-.6-1.6t-1.5-.6-1.7.6-.7,1.7h4.5"/>
      <path d="M640.7,108.4h1.3v7.6h-1.3v-7.6h0ZM640.7,105.4h1.3v1.6h-1.3v-1.6"/>
      <path d="M649.6,108.6v1.2q-.5-.3-1.1-.4t-1.2-.1-1.4.3-.5.9.3.7,1.3.5h.4q1.3.4,1.9.9.6.5.6,1.4,0,1.1-.8,1.7-.8.6-2.3.6-.6,0-1.3-.1-.7-.1-1.4-.4v-1.3q.7.4,1.4.5.7.2,1.3.2.9,0,1.4-.3.5-.3.5-.9,0-.5-.3-.8-.3-.3-1.5-.5h-.4q-1.2-.3-1.7-.9t-.5-1.4.8-1.7,2.2-.6,1.3,0,1.1.3"/>
      <path d="M660.1,109.6q-.2-.1-.5-.2t-.5,0-1.6.7-.6,2v4h-1.3v-7.6h1.3v1.2q.4-.7,1-1,.6-.3,1.5-.3.1,0,.3,0,.1,0,.3,0v1.3"/>
      <path d="M668.2,111.9v.6h-5.8q0,1.3.8,2t2,.7,1.4-.2,1.3-.5v1.2q-.7.3-1.4.4t-1.4.1-2.9-1.1-1.1-2.9,1-3,2.8-1.1,2.4,1,.9,2.7h0ZM667,111.6q0-1-.6-1.6t-1.5-.6-1.7.6-.7,1.7h4.5"/>
      <path d="M671.9,114.9v4.1h-1.3v-10.6h1.3v1.1q.4-.7,1-1t1.5-.3,2.3,1.1.9,2.9-.9,2.9-2.3,1.1-1.5-.3-1-1h0ZM676.2,112.2q0-1.4-.6-2.2-.6-.8-1.6-.8-1,0-1.6.8-.6.8-.6,2.2,0,1.4.6,2.2.6.8,1.6.8t1.6-.8.6-2.2"/>
      <path d="M683.2,112.2q-1.5,0-2.1.3t-.6,1.2.4,1.1,1.2.4,1.7-.7.6-2v-.3h-1.3,0ZM685.7,111.7v4.4h-1.3v-1.1q-.4.7-1.1,1-.6.3-1.6.3-1.2,0-1.9-.6-.7-.7-.7-1.8,0-1.3.9-1.9.9-.6,2.6-.6h1.8q0-1-.6-1.5-.6-.5-1.6-.5-.7,0-1.3.2-.6.1-1.2.5v-1.2q.7-.3,1.3-.4.7-.1,1.3-.1,1.7,0,2.5.9.8.8.8,2.6"/>
      <path d="M688.7,108.4h1.3v7.6h-1.3v-7.6h0ZM688.7,105.4h1.3v1.6h-1.3v-1.6"/>
      <path d="M697.1,109.6q-.2-.1-.5-.2t-.5,0-1.7.7-.6,2v4h-1.3v-7.6h1.3v1.2q.4-.7,1-1,.6-.3,1.5-.3.1,0,.3,0,.2,0,.3,0v1.3"/>
      <path d="M705.2,111.9v.6h-5.8q0,1.3.8,2t1.9.7,1.4-.2,1.3-.5v1.2q-.7.3-1.4.4t-1.4.1-2.9-1.1-1.1-2.9,1-3,2.8-1.1,2.4,1,.9,2.7h0ZM704,111.6q0-1-.6-1.6t-1.5-.6-1.7.6-.7,1.7h4.5"/>
      <path d="M712.7,109.6v-4.1h1.2v10.6h-1.2v-1.1q-.4.7-1,1t-1.5.3-2.3-1.1-.9-2.9.9-2.9,2.3-1.1,1.5.3,1,1h0ZM708.4,112.2q0,1.4.6,2.2.6.8,1.6.8,1,0,1.6-.8.6-.8.6-2.2,0-1.4-.6-2.2-.6-.8-1.6-.8t-1.6.8-.6,2.2"/>
      <path d="M726.2,112.2q0-1.4-.6-2.2t-1.6-.8-1.6.8-.6,2.2.6,2.2,1.6.8,1.6-.8.6-2.2h0ZM721.9,109.6q.4-.7,1-1,.6-.3,1.5-.3,1.4,0,2.3,1.1.9,1.1.9,2.9,0,1.8-.9,2.9t-2.3,1.1q-.8,0-1.5-.3-.6-.3-1-1v1.1h-1.3v-10.6h1.3v4.1"/>
      <path d="M732.9,116.8q-.5,1.4-1,1.8t-1.3.4h-1v-1h.7q.5,0,.8-.2t.6-1.1l.2-.6-3.1-7.5h1.3l2.4,6,2.4-6h1.3l-3.4,8.4"/>
      <path d="M745.1,107.2l-1.9,5.1h3.8l-1.9-5.1h0ZM744.4,105.9h1.6l3.9,10.2h-1.4l-.9-2.6h-4.6l-.9,2.6h-1.4l3.9-10.2"/>
      <path d="M751.6,105.9h1.4v6.2q0,1.6.6,2.3t1.9.7,1.9-.7.6-2.3v-6.2h1.4v6.4q0,2-1,3t-2.9,1-2.9-1-1-3v-6.4"/>
      <polyline points="760.3 105.9 769 105.9 769 107 765.3 107 765.3 116.1 763.9 116.1 763.9 107 760.3 107 760.3 105.9"/>
      <path d="M774.9,106.8q-1.5,0-2.4,1.1t-.9,3,.9,3,2.4,1.1,2.4-1.1.9-3-.9-3-2.4-1.1h0ZM774.9,105.7q2.1,0,3.4,1.4t1.3,3.9-1.3,3.8-3.4,1.4-3.5-1.4-1.3-3.8,1.3-3.9,3.5-1.4"/>
      <path d="M786.1,109.6q-.2-.1-.4-.2t-.5,0-1.6.7-.6,2v4h-1.3v-7.6h1.3v1.2q.4-.7,1-1,.6-.3,1.5-.3.1,0,.3,0,.1,0,.3,0v1.3"/>
      <path d="M792,110.6q1,.2,1.5.9t.6,1.6-1,2.3-2.9.8-1.3-.1-1.4-.4v-1.3q.6.3,1.3.5.7.2,1.4.2t2-.5.7-1.5q0-.9-.6-1.4-.6-.5-1.8-.5h-1.2v-1.1h1.2q1,0,1.5-.4.5-.4.5-1.2,0-.8-.6-1.2-.5-.4-1.6-.4-.6,0-1.2.1-.6.1-1.4.4v-1.2q.8-.2,1.5-.3.7,0,1.3,0,1.6,0,2.5.7.9.7.9,1.9,0,.9-.5,1.4-.5.6-1.4.8"/>
      <path d="M797.9,114.9v4.1h-1.3v-10.6h1.3v1.1q.4-.7,1-1t1.4-.3,2.3,1.1.9,2.9-.9,2.9-2.3,1.1-1.4-.3-1-1h0ZM802.2,112.2q0-1.4-.6-2.2-.6-.8-1.6-.8-1,0-1.6.8-.6.8-.6,2.2,0,1.4.6,2.2.6.8,1.6.8t1.6-.8.6-2.2"/>
      <path d="M809.2,112.2q-1.5,0-2.1.3t-.6,1.2.4,1.1,1.2.4,1.7-.7.6-2v-.3h-1.2ZM811.7,111.7v4.4h-1.3v-1.1q-.4.7-1.1,1-.6.3-1.6.3-1.2,0-1.9-.6-.7-.7-.7-1.8,0-1.3.8-1.9.9-.6,2.6-.6h1.8q0-1-.6-1.5-.6-.5-1.6-.5-.6,0-1.3.2-.6.1-1.2.5v-1.2q.7-.3,1.3-.4.7-.1,1.3-.1,1.7,0,2.5.9.8.8.8,2.6"/>
      <path d="M814.7,108.4h1.3v7.6h-1.3v-7.6h0ZM814.7,105.4h1.3v1.6h-1.3v-1.6"/>
      <path d="M823.1,109.6q-.2-.1-.5-.2t-.5,0-1.7.7-.6,2v4h-1.3v-7.6h1.3v1.2q.4-.7,1-1,.6-.3,1.5-.3.1,0,.3,0,.2,0,.3,0v1.3"/>
      <polyline points="825 114.3 826.4 114.3 826.4 115.5 825.3 117.7 824.4 117.7 825 115.5 825 114.3"/>
      <path d="M838.6,109.9q.5-.8,1.1-1.2t1.5-.4,1.8.8.6,2.4v4.6h-1.3v-4.6q0-1.1-.4-1.6-.4-.5-1.2-.5-1,0-1.5.6-.6.6-.6,1.8v4.3h-1.3v-4.6q0-1.1-.4-1.6-.4-.5-1.2-.5-1,0-1.5.7-.6.6-.6,1.8v4.3h-1.3v-7.7h1.3v1.2q.4-.7,1-1,.6-.3,1.4-.3.8,0,1.4.4.6.4.9,1.2"/>
      <path d="M849.6,109.3q-1,0-1.6.8t-.6,2.2.6,2.2,1.6.8,1.6-.8.6-2.2-.6-2.2-1.6-.8h0ZM849.6,108.2q1.6,0,2.6,1.1t.9,2.9-.9,3-2.6,1.1-2.6-1.1-.9-3,.9-2.9,2.6-1.1"/>
      <path d="M860.1,109.6q-.2-.1-.5-.2t-.5,0-1.7.7-.6,2v4h-1.3v-7.6h1.3v1.2q.4-.7,1-1,.6-.3,1.5-.3.1,0,.3,0,.2,0,.3,0v1.3"/>
      <path d="M868.2,111.9v.6h-5.8q0,1.3.8,2t2,.7,1.4-.2,1.3-.5v1.2q-.7.3-1.4.4t-1.4.1-2.9-1.1-1.1-2.9,1-3,2.8-1.1,2.4,1,.9,2.7h0ZM867,111.6q0-1-.6-1.6t-1.5-.6-1.7.6-.7,1.7h4.5"/>
      <path d="M874.7,108.4h1.3v7.6h-1.3v-7.6h0ZM874.7,105.4h1.3v1.6h-1.3v-1.6"/>
      <path d="M885,111.4v4.6h-1.3v-4.6q0-1.1-.4-1.6t-1.3-.5-1.6.7-.6,1.8v4.3h-1.3v-7.6h1.3v1.2q.5-.7,1.1-1,.6-.3,1.4-.3,1.3,0,2,.8.7.8.7,2.4"/>
      <path d="M891.6,105.4v1h-1.2q-.7,0-1,.3t-.2,1v.7h2.1v1h-2.1v6.7h-1.3v-6.7h-1.2v-1h1.2v-.5q0-1.3.6-1.9t1.9-.6h1.2"/>
      <path d="M895.6,109.3q-1,0-1.6.8t-.6,2.2.6,2.2,1.6.8,1.6-.8.6-2.2-.6-2.2-1.6-.8h0ZM895.6,108.2q1.6,0,2.6,1.1t.9,2.9-.9,3-2.6,1.1-2.6-1.1-.9-3,.9-2.9,2.6-1.1"/>
      <path d="M909.2,112.2q-1.5,0-2.1.3t-.6,1.2.4,1.1,1.2.4,1.7-.7.6-2v-.3h-1.2ZM911.7,111.7v4.4h-1.3v-1.1q-.4.7-1.1,1-.6.3-1.6.3-1.2,0-1.9-.6-.7-.7-.7-1.8,0-1.3.9-1.9.9-.6,2.6-.6h1.8q0-1-.6-1.5-.6-.5-1.6-.5-.6,0-1.3.2-.6.1-1.2.5v-1.2q.7-.3,1.3-.4.6-.1,1.3-.1,1.7,0,2.5.9.8.8.8,2.6"/>
      <path d="M920.2,112.2q0-1.4-.6-2.2t-1.6-.8-1.6.8-.6,2.2.6,2.2,1.6.8,1.6-.8.6-2.2h0ZM915.9,109.6q.4-.7,1-1,.6-.3,1.5-.3,1.4,0,2.3,1.1.9,1.1.9,2.9,0,1.8-.9,2.9t-2.3,1.1q-.8,0-1.5-.3-.6-.3-1-1v1.1h-1.3v-10.6h1.3v4.1"/>
      <path d="M926.6,109.3q-1,0-1.6.8t-.6,2.2.6,2.2,1.6.8,1.6-.8.6-2.2-.6-2.2-1.6-.8h0ZM926.6,108.2q1.6,0,2.6,1.1t.9,2.9-.9,3-2.6,1.1-2.6-1.1-.9-3,.9-2.9,2.6-1.1"/>
      <path d="M932.5,113.1v-4.6h1.3v4.6q0,1.1.4,1.6t1.3.5,1.6-.6.6-1.8v-4.3h1.3v7.6h-1.3v-1.2q-.4.7-1.1,1-.6.3-1.4.3-1.3,0-2-.8-.7-.8-.7-2.4h0ZM935.7,108.2h0"/>
      <path d="M942.9,106.2v2.2h2.6v1h-2.6v4.1q0,.9.2,1.2t1,.3h1.3v1h-1.3q-1.5,0-2-.5t-.5-2v-4.1h-.9v-1h.9v-2.2h1.3"/>
      <path d="M951.9,106.2v2.2h2.6v1h-2.6v4.1q0,.9.2,1.2t1,.3h1.3v1h-1.3q-1.5,0-2-.5t-.5-2v-4.1h-.9v-1h.9v-2.2h1.3"/>
      <path d="M962,111.4v4.6h-1.3v-4.6q0-1.1-.4-1.6t-1.3-.5-1.6.7-.6,1.8v4.3h-1.3v-10.6h1.3v4.2q.5-.7,1.1-1,.6-.3,1.4-.3,1.3,0,2,.8.7.8.7,2.4"/>
      <path d="M971.2,111.9v.6h-5.8q0,1.3.8,2t1.9.7,1.4-.2,1.3-.5v1.2q-.7.3-1.4.4t-1.4.1-2.9-1.1-1.1-2.9,1-3,2.8-1.1,2.4,1,.9,2.7h0ZM970,111.6q0-1-.6-1.6t-1.5-.6-1.7.6-.7,1.7h4.5"/>
      <path d="M982.1,109.6q-.2-.1-.5-.2t-.5,0-1.7.7-.6,2v4h-1.3v-7.6h1.3v1.2q.4-.7,1-1,.6-.3,1.5-.3.1,0,.3,0,.2,0,.3,0v1.3"/>
      <path d="M990.2,111.9v.6h-5.8q0,1.3.8,2t1.9.7,1.4-.2,1.3-.5v1.2q-.7.3-1.4.4t-1.4.1-2.9-1.1-1.1-2.9,1-3,2.8-1.1,2.4,1,.9,2.7h0ZM989,111.6q0-1-.6-1.6t-1.5-.6-1.7.6-.7,1.7h4.5"/>
      <path d="M993.9,114.9v4.1h-1.3v-10.6h1.3v1.1q.4-.7,1-1t1.5-.3,2.3,1.1.9,2.9-.9,2.9-2.3,1.1-1.5-.3-1-1h0ZM998.2,112.2q0-1.4-.6-2.2-.6-.8-1.6-.8-1,0-1.6.8-.6.8-.6,2.2,0,1.4.6,2.2.6.8,1.6.8t1.6-.8.6-2.2"/>
      <path d="M1005.2,112.2q-1.5,0-2.1.3t-.6,1.2.4,1.1,1.2.4,1.7-.7.6-2v-.3h-1.2ZM1007.7,111.7v4.4h-1.3v-1.1q-.4.7-1.1,1-.6.3-1.6.3-1.2,0-1.9-.6-.7-.7-.7-1.8,0-1.3.8-1.9.9-.6,2.6-.6h1.8q0-1-.6-1.5-.6-.5-1.6-.5-.7,0-1.3.2-.6.1-1.2.5v-1.2q.7-.3,1.3-.4.7-.1,1.3-.1,1.7,0,2.5.9.8.8.8,2.6"/>
      <path d="M1010.7,108.4h1.3v7.6h-1.3v-7.6h0ZM1010.7,105.4h1.3v1.6h-1.3v-1.6"/>
      <path d="M1019.1,109.6q-.2-.1-.4-.2t-.5,0-1.7.7-.6,2v4h-1.3v-7.6h1.3v1.2q.4-.7,1-1,.6-.3,1.5-.3.1,0,.3,0,.1,0,.3,0v1.3"/>
      <path d="M1030.2,108.7v1.2q-.5-.3-1.1-.4t-1.1-.1-1.9.8-.7,2.2.7,2.2,1.9.8,1.1-.1,1.1-.4v1.1q-.5.2-1.1.4t-1.2.1-2.8-1.1-1-2.9,1-2.9,2.8-1.1,1.1.1,1.1.4"/>
      <path d="M1036.2,112.2q-1.5,0-2.1.3t-.6,1.2.4,1.1,1.2.4,1.7-.7.6-2v-.3h-1.3,0ZM1038.7,111.7v4.4h-1.3v-1.1q-.4.7-1.1,1-.6.3-1.6.3-1.2,0-1.9-.6-.7-.7-.7-1.8,0-1.3.8-1.9.9-.6,2.6-.6h1.8q0-1-.6-1.5-.6-.5-1.6-.5-.7,0-1.3.2-.6.1-1.2.5v-1.2q.7-.3,1.3-.4.7-.1,1.3-.1,1.7,0,2.5.9.8.8.8,2.6"/>
      <path d="M1048,111.4v4.6h-1.3v-4.6q0-1.1-.4-1.6t-1.3-.5-1.6.7-.6,1.8v4.3h-1.3v-7.6h1.3v1.2q.5-.7,1.1-1,.6-.3,1.4-.3,1.3,0,2,.8.7.8.7,2.4"/>
      <path d="M1060.2,112.2q0-1.4-.6-2.2t-1.6-.8-1.6.8-.6,2.2.6,2.2,1.6.8,1.6-.8.6-2.2h0ZM1055.9,109.6q.4-.7,1-1,.6-.3,1.4-.3,1.4,0,2.3,1.1.9,1.1.9,2.9,0,1.8-.9,2.9t-2.3,1.1q-.8,0-1.4-.3-.6-.3-1-1v1.1h-1.3v-10.6h1.3v4.1"/>
      <path d="M1070.2,111.9v.6h-5.8q0,1.3.8,2t2,.7,1.4-.2,1.3-.5v1.2q-.7.3-1.4.4t-1.4.1-2.9-1.1-1.1-2.9,1-3,2.8-1.1,2.4,1,.9,2.7h0ZM1069,111.6q0-1-.6-1.6t-1.5-.6-1.7.6-.7,1.7h4.5"/>
      <path d="M1080.6,105.4v1h-1.2q-.7,0-1,.3t-.2,1v.7h2.1v1h-2.1v6.7h-1.3v-6.7h-1.2v-1h1.2v-.5q0-1.3.6-1.9t1.9-.6h1.2"/>
      <path d="M1084.6,109.3q-1,0-1.6.8t-.6,2.2.6,2.2,1.6.8,1.6-.8.6-2.2-.6-2.2-1.6-.8h0ZM1084.6,108.2q1.6,0,2.6,1.1t.9,2.9-.9,3-2.6,1.1-2.6-1.1-.9-3,.9-2.9,2.6-1.1"/>
      <path d="M1090.5,113.1v-4.6h1.3v4.6q0,1.1.4,1.6t1.3.5,1.6-.6.6-1.8v-4.3h1.3v7.6h-1.3v-1.2q-.5.7-1.1,1-.6.3-1.4.3-1.3,0-2-.8-.7-.8-.7-2.4h0ZM1093.7,108.2h0"/>
      <path d="M1106,111.4v4.6h-1.3v-4.6q0-1.1-.4-1.6t-1.3-.5-1.6.7-.6,1.8v4.3h-1.3v-7.6h1.3v1.2q.5-.7,1.1-1,.6-.3,1.4-.3,1.3,0,2,.8.7.8.7,2.4"/>
      <path d="M1113.7,109.6v-4.1h1.2v10.6h-1.2v-1.1q-.4.7-1,1t-1.4.3-2.3-1.1-.9-2.9.9-2.9,2.3-1.1,1.4.3,1,1h0ZM1109.4,112.2q0,1.4.6,2.2.6.8,1.6.8,1,0,1.6-.8.6-.8.6-2.2,0-1.4-.6-2.2-.6-.8-1.6-.8t-1.6.8-.6,2.2"/>
      <path d="M1121.7,108.4h1.3v7.6h-1.3v-7.6h0ZM1121.7,105.4h1.3v1.6h-1.3v-1.6"/>
      <path d="M1132,111.4v4.6h-1.3v-4.6q0-1.1-.4-1.6t-1.3-.5-1.6.7-.6,1.8v4.3h-1.3v-7.6h1.3v1.2q.4-.7,1.1-1,.6-.3,1.4-.3,1.3,0,2,.8.7.8.7,2.4"/>
      <path d="M1139.9,106.2v2.2h2.6v1h-2.6v4.1q0,.9.2,1.2t1,.3h1.3v1h-1.3q-1.4,0-2-.5t-.5-2v-4.1h-.9v-1h.9v-2.2h1.3"/>
      <path d="M1150,111.4v4.6h-1.3v-4.6q0-1.1-.4-1.6t-1.3-.5-1.6.7-.6,1.8v4.3h-1.3v-10.6h1.3v4.2q.4-.7,1.1-1,.6-.3,1.4-.3,1.3,0,2,.8.7.8.7,2.4"/>
      <path d="M1159.2,111.9v.6h-5.8q0,1.3.8,2t2,.7,1.4-.2,1.3-.5v1.2q-.7.3-1.4.4t-1.4.1-2.9-1.1-1.1-2.9,1-3,2.8-1.1,2.4,1,.9,2.7h0ZM1158,111.6q0-1-.6-1.6t-1.5-.6-1.7.6-.7,1.7h4.5"/>
      <path d="M1170.1,109.6q-.2-.1-.4-.2t-.5,0-1.7.7-.6,2v4h-1.3v-7.6h1.3v1.2q.4-.7,1-1,.6-.3,1.5-.3.1,0,.3,0,.2,0,.3,0v1.3"/>
      <path d="M1178.2,111.9v.6h-5.8q0,1.3.8,2t2,.7,1.4-.2,1.3-.5v1.2q-.7.3-1.4.4t-1.4.1-2.9-1.1-1.1-2.9,1-3,2.8-1.1,2.4,1,.9,2.7h0ZM1177,111.6q0-1-.6-1.6t-1.5-.6-1.7.6-.7,1.7h4.5"/>
      <path d="M1181.9,114.9v4.1h-1.3v-10.6h1.3v1.1q.4-.7,1-1t1.4-.3,2.3,1.1.9,2.9-.9,2.9-2.3,1.1-1.4-.3-1-1h0ZM1186.2,112.2q0-1.4-.6-2.2-.6-.8-1.6-.8-1,0-1.6.8-.6.8-.6,2.2,0,1.4.6,2.2.6.8,1.6.8t1.6-.8.6-2.2"/>
      <path d="M1192.6,109.3q-1,0-1.6.8t-.6,2.2.6,2.2,1.6.8,1.6-.8.6-2.2-.6-2.2-1.6-.8h0ZM1192.6,108.2q1.6,0,2.6,1.1t.9,2.9-.9,3-2.6,1.1-2.6-1.1-.9-3,.9-2.9,2.6-1.1"/>
      <path d="M1203.1,109.6q-.2-.1-.4-.2t-.5,0-1.7.7-.6,2v4h-1.3v-7.6h1.3v1.2q.4-.7,1-1,.6-.3,1.5-.3.1,0,.3,0,.2,0,.3,0v1.3"/>
      <path d="M1205.9,106.2v2.2h2.6v1h-2.6v4.1q0,.9.2,1.2t1,.3h1.3v1h-1.3q-1.4,0-2-.5t-.5-2v-4.1h-.9v-1h.9v-2.2h1.3Z"/>
      <path class="cls-1" d="M579.4,101.1v20.3M406.4,121.4h807"/>
      <path d="M416.4,130.7q.8,0,1.2-.3t.4-1-.4-1-1.2-.3h-1.1v2.6h1.1ZM415.3,132.5v3.8h-2.6v-10.2h4q2,0,2.9.7.9.7.9,2.1,0,1-.5,1.7-.5.6-1.5,1,.5,0,1,.5.4.4.9,1.3l1.4,2.9h-2.8l-1.3-2.5q-.4-.8-.8-1-.4-.3-1-.3h-.7"/>
      <path d="M431.2,132.5v.7h-5.7q0,.8.6,1.3t1.5.4,1.6-.2,1.6-.7v1.9q-.9.3-1.7.5-.9.2-1.7.2-2.1,0-3.2-1.1-1.1-1.1-1.1-3,0-1.9,1.1-2.9,1.1-1.1,3.1-1.1,1.8,0,2.9,1.1,1.1,1.1,1.1,2.9h0ZM428.7,131.7q0-.7-.4-1.1-.4-.4-1.1-.4-.7,0-1.1.4-.4.4-.5,1.1h3.2"/>
      <path d="M436,135.3v4h-2.4v-10.6h2.4v1.1q.5-.7,1.1-1t1.4-.3,2.3,1.1.9,2.9-.9,2.9-2.3,1.1-1.4-.3-1.1-1h0ZM437.6,130.3q-.8,0-1.2.6-.4.6-.4,1.6,0,1.1.4,1.7.4.6,1.2.6t1.2-.6.4-1.7-.4-1.6-1.2-.6"/>
      <path d="M447.2,130.3q-.8,0-1.2.6t-.4,1.7.4,1.7,1.2.6,1.2-.6.4-1.7-.4-1.7-1.2-.6h0ZM447.2,128.5q2,0,3.1,1.1,1.1,1.1,1.1,2.9,0,1.9-1.1,3-1.1,1.1-3.1,1.1-2,0-3.1-1.1-1.1-1.1-1.1-3,0-1.9,1.1-2.9,1.1-1.1,3.1-1.1"/>
      <path d="M459.2,130.8q-.3-.1-.6-.2t-.6,0-1.4.6-.5,1.7v3.5h-2.5v-7.6h2.5v1.2q.5-.8,1.1-1.1.6-.3,1.5-.3.1,0,.3,0,.1,0,.4,0v2.2"/>
      <path d="M463.2,126.5v2.2h2.5v1.8h-2.5v3.2q0,.5.2.7t.9.2h1.2v1.8h-2.1q-1.4,0-2.1-.6-.6-.6-.6-2.1v-3.2h-1.2v-1.7h1.2v-2.2h2.4"/>
      <polyline points="473.4 138.4 473.4 139.7 466.4 139.7 466.4 138.4 473.4 138.4"/>
      <path d="M482.2,131.7v4.6h-2.5v-3.5q0-1,0-1.4t-.1-.5-.4-.4-.6-.1-1.2.6-.4,1.6v3.8h-2.5v-7.6h2.5v1.1q.5-.7,1.2-1,.6-.3,1.4-.3,1.3,0,2,.8.7.8.7,2.4"/>
      <path d="M488,132.9q-.8,0-1.1.3t-.4.8.3.7.9.3,1.1-.5.5-1.2v-.3h-1.3,0ZM491.7,132v4.4h-2.5v-1.1q-.5.7-1.1,1-.6.3-1.5.3-1.2,0-1.9-.7-.7-.7-.7-1.8,0-1.3.9-2,.9-.6,2.9-.6h1.4v-.2q0-.6-.4-.8-.5-.3-1.4-.3-.8,0-1.5.1-.7.1-1.3.5v-1.9q.8-.2,1.6-.3.8-.1,1.6-.1,2.1,0,3,.8.9.8.9,2.6"/>
      <path d="M500.6,130q.5-.7,1.1-1.1t1.4-.4,2,.8.7,2.4v4.6h-2.5v-4q0,0,0-.2v-.3q0-.8-.2-1.2-.2-.4-.8-.4-.7,0-1.1.6-.4.6-.4,1.6v3.8h-2.5v-4q0-1.3-.2-1.6-.2-.4-.8-.4-.7,0-1.1.6-.4.6-.4,1.6v3.8h-2.5v-7.6h2.5v1.1q.5-.6,1-1,.6-.3,1.3-.3.8,0,1.4.4.6.4.9,1.1"/>
      <path d="M516.2,132.5v.7h-5.7q0,.8.6,1.3t1.5.4,1.6-.2,1.7-.7v1.9q-.8.3-1.7.5-.9.2-1.7.2-2.1,0-3.2-1.1-1.1-1.1-1.1-3,0-1.9,1.1-2.9,1.1-1.1,3.1-1.1,1.8,0,2.9,1.1,1.1,1.1,1.1,2.9h0ZM513.7,131.7q0-.7-.4-1.1-.4-.4-1.1-.4-.7,0-1.2.4-.4.4-.5,1.1h3.2,0Z"/>
      <polyline points="585.7 126.2 587.1 126.2 587.1 135.2 592.1 135.2 592.1 136.4 585.7 136.4 585.7 126.2"/>
      <path d="M596.6,129.6q-1,0-1.6.8t-.6,2.1.6,2.2,1.6.8,1.6-.8.6-2.2-.6-2.1-1.6-.8h0ZM596.6,128.5q1.6,0,2.6,1.1t.9,2.9-.9,3-2.6,1.1-2.6-1.1-.9-3,.9-2.9,2.6-1.1"/>
      <path d="M608.2,129v1.2q-.5-.3-1.1-.4t-1.1-.1-1.9.8-.7,2.2.7,2.2,1.9.8,1.1-.1,1.1-.4v1.1q-.5.2-1.1.4t-1.2.1-2.8-1.1-1-2.9,1-2.9,2.8-1.1,1.1.1,1.1.4"/>
      <path d="M614.2,132.5q-1.5,0-2.1.3t-.6,1.2.4,1.1,1.2.4,1.7-.7.6-2v-.3h-1.2ZM616.7,132v4.4h-1.3v-1.1q-.4.7-1.1,1-.6.3-1.6.3-1.2,0-1.9-.6-.7-.7-.7-1.8,0-1.3.8-1.9.9-.7,2.6-.7h1.8q0-1-.6-1.5-.6-.5-1.6-.5-.6,0-1.3.2-.6.1-1.2.5v-1.2q.7-.3,1.3-.4.7-.1,1.3-.1,1.7,0,2.5.9.8.8.8,2.6"/>
      <path d="M620.9,126.5v2.2h2.6v1h-2.6v4.1q0,.9.2,1.2t1,.3h1.3v1h-1.3q-1.5,0-2-.5t-.5-2v-4.1h-.9v-1h.9v-2.2h1.3"/>
      <path d="M624.7,128.7h1.3v7.6h-1.3v-7.6h0ZM624.7,125.7h1.3v1.6h-1.3v-1.6"/>
      <path d="M631.6,129.6q-1,0-1.6.8t-.6,2.1.6,2.2,1.6.8,1.6-.8.6-2.2-.6-2.1-1.6-.8h0ZM631.6,128.5q1.6,0,2.6,1.1t.9,2.9-.9,3-2.6,1.1-2.6-1.1-.9-3,.9-2.9,2.6-1.1"/>
      <path d="M644,131.7v4.6h-1.3v-4.6q0-1.1-.4-1.6t-1.3-.5-1.6.6-.6,1.8v4.3h-1.3v-7.6h1.3v1.2q.5-.7,1.1-1,.6-.3,1.4-.3,1.3,0,2,.8.7.8.7,2.4"/>
      <path d="M653.6,129.6q-1,0-1.6.8t-.6,2.1.6,2.2,1.6.8,1.6-.8.6-2.2-.6-2.1-1.6-.8h0ZM653.6,128.5q1.6,0,2.6,1.1t.9,2.9-.9,3-2.6,1.1-2.6-1.1-.9-3,.9-2.9,2.6-1.1"/>
      <path d="M663.6,125.7v1h-1.2q-.7,0-1,.3t-.2,1v.7h2.1v1h-2.1v6.7h-1.3v-6.7h-1.2v-1h1.2v-.5q0-1.3.6-1.9t1.9-.6h1.2"/>
      <path d="M669.9,126.5v2.2h2.6v1h-2.6v4.1q0,.9.2,1.2t1,.3h1.3v1h-1.3q-1.5,0-2-.5t-.5-2v-4.1h-.9v-1h.9v-2.2h1.3"/>
      <path d="M680,131.7v4.6h-1.3v-4.6q0-1.1-.4-1.6t-1.3-.5-1.6.6-.6,1.8v4.3h-1.3v-10.6h1.3v4.2q.5-.7,1.1-1,.6-.3,1.4-.3,1.3,0,2,.8.7.8.7,2.4"/>
      <path d="M689.2,132.2v.6h-5.8q0,1.3.8,2t2,.7,1.4-.2,1.3-.5v1.2q-.7.3-1.4.4t-1.4.1-2.9-1.1-1.1-2.9,1-3,2.8-1.1,2.4,1,.9,2.7h0ZM688,131.9q0-1-.6-1.6t-1.5-.6-1.7.6-.7,1.7h4.5"/>
      <path d="M700.1,129.9q-.2-.1-.5-.2t-.5,0-1.7.7-.6,2v4h-1.3v-7.6h1.3v1.2q.4-.7,1-1,.6-.3,1.5-.3.1,0,.3,0,.2,0,.3,0v1.3"/>
      <path d="M708.2,132.2v.6h-5.8q0,1.3.8,2t1.9.7,1.4-.2,1.3-.5v1.2q-.7.3-1.4.4t-1.4.1-2.9-1.1-1.1-2.9,1-3,2.8-1.1,2.4,1,.9,2.7h0ZM707,131.9q0-1-.6-1.6t-1.5-.6-1.7.6-.7,1.7h4.5"/>
      <path d="M711.9,135.2v4.1h-1.3v-10.6h1.3v1.1q.4-.7,1-1t1.5-.3,2.3,1.1.9,2.9-.9,2.9-2.3,1.1-1.5-.3-1-1h0ZM716.2,132.5q0-1.4-.6-2.2-.6-.8-1.6-.8-1,0-1.6.8-.6.8-.6,2.2,0,1.4.6,2.2.6.8,1.6.8t1.6-.8.6-2.2"/>
      <path d="M723.2,132.5q-1.5,0-2.1.3t-.6,1.2.4,1.1,1.2.4,1.7-.7.6-2v-.3h-1.2ZM725.7,132v4.4h-1.3v-1.1q-.4.7-1.1,1-.6.3-1.6.3-1.2,0-1.9-.6-.7-.7-.7-1.8,0-1.3.8-1.9.9-.7,2.6-.7h1.8q0-1-.6-1.5-.6-.5-1.6-.5-.6,0-1.3.2-.6.1-1.2.5v-1.2q.7-.3,1.3-.4.6-.1,1.3-.1,1.7,0,2.5.9.8.8.8,2.6"/>
      <path d="M728.7,128.7h1.3v7.6h-1.3v-7.6h0ZM728.7,125.7h1.3v1.6h-1.3v-1.6"/>
      <path d="M737.1,129.9q-.2-.1-.5-.2t-.5,0-1.7.7-.6,2v4h-1.3v-7.6h1.3v1.2q.4-.7,1-1,.6-.3,1.5-.3.1,0,.3,0,.2,0,.3,0v1.3"/>
      <path d="M747.1,129.9q-.2-.1-.4-.2t-.5,0-1.6.7-.6,2v4h-1.3v-7.6h1.3v1.2q.4-.7,1-1,.6-.3,1.5-.3.1,0,.3,0,.1,0,.3,0v1.3"/>
      <path d="M755.2,132.2v.6h-5.8q0,1.3.8,2t2,.7,1.4-.2,1.3-.5v1.2q-.7.3-1.4.4t-1.4.1-2.9-1.1-1.1-2.9,1-3,2.8-1.1,2.4,1,.9,2.7h0ZM754,131.9q0-1-.6-1.6t-1.5-.6-1.7.6-.7,1.7h4.5"/>
      <path d="M758.9,135.2v4.1h-1.3v-10.6h1.3v1.1q.4-.7,1-1t1.4-.3,2.3,1.1.9,2.9-.9,2.9-2.3,1.1-1.4-.3-1-1h0ZM763.2,132.5q0-1.4-.6-2.2-.6-.8-1.6-.8-1,0-1.6.8-.6.8-.6,2.2,0,1.4.6,2.2.6.8,1.6.8t1.6-.8.6-2.2"/>
      <path d="M769.6,129.6q-1,0-1.6.8t-.6,2.1.6,2.2,1.6.8,1.6-.8.6-2.2-.6-2.1-1.6-.8h0ZM769.6,128.5q1.6,0,2.6,1.1t.9,2.9-.9,3-2.6,1.1-2.6-1.1-.9-3,.9-2.9,2.6-1.1"/>
      <path d="M780.1,129.9q-.2-.1-.4-.2t-.5,0-1.6.7-.6,2v4h-1.3v-7.6h1.3v1.2q.4-.7,1-1,.6-.3,1.5-.3.1,0,.3,0,.1,0,.3,0v1.3"/>
      <path d="M782.9,126.5v2.2h2.6v1h-2.6v4.1q0,.9.2,1.2t1,.3h1.3v1h-1.3q-1.4,0-2-.5t-.5-2v-4.1h-.9v-1h.9v-2.2h1.3Z"/>
      <path class="cls-1" d="M579.4,121.4v20.3M406.4,141.7h807"/>
      <polyline points="411.8 146.5 414.3 146.5 416.1 153.9 417.8 146.5 420.3 146.5 422.1 153.9 423.8 146.5 426.3 146.5 423.9 156.7 420.9 156.7 419.1 148.9 417.2 156.7 414.2 156.7 411.8 146.5"/>
      <path d="M431,153.2q-.8,0-1.1.3t-.4.8.3.7.9.3,1.1-.5.5-1.3v-.3h-1.3,0ZM434.7,152.3v4.4h-2.5v-1.1q-.5.7-1.1,1-.6.3-1.5.3-1.2,0-1.9-.7-.7-.7-.7-1.8,0-1.3.9-2,.9-.6,2.9-.6h1.4v-.2q0-.6-.5-.8-.4-.3-1.4-.3-.8,0-1.5.1-.7.2-1.3.5v-1.9q.8-.2,1.6-.3.8-.1,1.6-.1,2.1,0,3,.8.9.8.9,2.6"/>
      <path d="M444.2,152v4.6h-2.5v-3.5q0-1,0-1.4t-.1-.5-.4-.4-.6-.1-1.2.6-.4,1.6v3.8h-2.5v-7.7h2.5v1.1q.5-.7,1.2-1,.6-.3,1.4-.3,1.3,0,2,.8.7.8.7,2.4"/>
      <path d="M449.2,146.8v2.2h2.5v1.8h-2.5v3.2q0,.5.2.7t.8.2h1.2v1.7h-2.1q-1.4,0-2.1-.6-.6-.6-.6-2.1v-3.2h-1.2v-1.8h1.2v-2.2h2.4"/>
      <polyline points="459.4 158.7 459.4 160 452.4 160 452.4 158.7 459.4 158.7"/>
      <path d="M463.2,146.8v2.2h2.5v1.8h-2.5v3.2q0,.5.2.7t.9.2h1.2v1.7h-2.1q-1.4,0-2.1-.6-.6-.6-.6-2.1v-3.2h-1.2v-1.8h1.2v-2.2h2.4"/>
      <path d="M471.2,150.6q-.8,0-1.2.6t-.4,1.7.4,1.7,1.2.6,1.2-.6.4-1.7-.4-1.7-1.2-.6h0ZM471.2,148.8q2,0,3.1,1.1,1.1,1.1,1.1,2.9,0,1.9-1.1,3-1.1,1.1-3.1,1.1-2,0-3.1-1.1-1.1-1.1-1.1-3,0-1.9,1.1-2.9,1.1-1.1,3.1-1.1"/>
      <polyline points="483.4 158.7 483.4 160 476.4 160 476.4 158.7 483.4 158.7"/>
      <polyline points="484.5 146 487 146 487 151.8 489.8 149 492.6 149 488.9 152.5 492.9 156.7 490 156.7 487 153.5 487 156.7 484.5 156.7 484.5 146"/>
      <path d="M501.2,152v4.6h-2.5v-3.5q0-1,0-1.4t-.1-.5-.4-.4-.6-.1-1.2.6-.4,1.6v3.8h-2.5v-7.7h2.5v1.1q.5-.7,1.2-1,.6-.3,1.4-.3,1.3,0,2,.8.7.8.7,2.4"/>
      <path d="M507.2,150.6q-.8,0-1.2.6t-.4,1.7.4,1.7,1.2.6,1.2-.6.4-1.7-.4-1.7-1.2-.6h0ZM507.2,148.8q2,0,3.1,1.1,1.1,1.1,1.1,2.9,0,1.9-1.1,3-1.1,1.1-3.1,1.1-2,0-3.1-1.1-1.1-1.1-1.1-3,0-1.9,1.1-2.9,1.1-1.1,3.1-1.1"/>
      <polyline points="512.9 149 515.2 149 516.5 154.3 517.8 149 519.8 149 521.1 154.2 522.4 149 524.8 149 522.8 156.7 520.1 156.7 518.8 151.4 517.5 156.7 514.9 156.7 512.9 149"/>
      <polyline points="532.4 158.7 532.4 160 525.4 160 525.4 158.7 532.4 158.7"/>
      <path d="M540.6,150.3q.5-.7,1.1-1.1t1.4-.4,2,.8.7,2.4v4.6h-2.5v-4q0,0,0-.2v-.3q0-.8-.2-1.2-.2-.4-.8-.4-.7,0-1.1.6-.4.6-.4,1.6v3.8h-2.5v-4q0-1.3-.2-1.6-.2-.4-.8-.4-.7,0-1.1.6-.4.6-.4,1.6v3.8h-2.5v-7.6h2.5v1.1q.5-.7,1-1,.6-.3,1.3-.3.8,0,1.4.4.6.4.9,1.1"/>
      <path d="M552.2,150.6q-.8,0-1.2.6t-.4,1.7.4,1.7,1.2.6,1.2-.6.4-1.7-.4-1.7-1.2-.6h0ZM552.2,148.8q2,0,3.1,1.1,1.1,1.1,1.1,2.9,0,1.9-1.1,3-1.1,1.1-3.1,1.1-2,0-3.1-1.1-1.1-1.1-1.1-3,0-1.9,1.1-2.9,1.1-1.1,3.1-1.1"/>
      <path d="M564.2,151.1q-.3-.1-.6-.2t-.6,0-1.4.6-.5,1.7v3.5h-2.5v-7.7h2.5v1.3q.5-.8,1.1-1.1.6-.3,1.5-.3.1,0,.3,0,.1,0,.4,0v2.2"/>
      <path d="M573.2,152.8v.7h-5.7q0,.9.6,1.3t1.5.4,1.6-.2,1.7-.7v1.9q-.8.3-1.7.5-.8.2-1.7.2-2.1,0-3.2-1.1-1.1-1.1-1.1-3,0-1.9,1.1-2.9,1.1-1.1,3.1-1.1,1.8,0,2.9,1.1,1.1,1.1,1.1,2.9h0ZM570.7,152q0-.7-.4-1.1-.4-.4-1.1-.4-.7,0-1.2.4-.4.4-.5,1.1h3.2,0Z"/>
      <polyline points="585.7 146.5 587.8 146.5 590.4 153.4 593 146.5 595.1 146.5 595.1 156.7 593.7 156.7 593.7 147.7 591.1 154.7 589.7 154.7 587.1 147.7 587.1 156.7 585.7 156.7 585.7 146.5"/>
      <path d="M600.6,149.9q-1,0-1.6.8t-.6,2.2.6,2.2,1.6.8,1.6-.8.6-2.2-.6-2.2-1.6-.8h0ZM600.6,148.8q1.6,0,2.6,1.1t.9,2.9-.9,3-2.6,1.1-2.6-1.1-.9-3,.9-2.9,2.6-1.1"/>
      <path d="M611.1,150.2q-.2-.1-.5-.2t-.5,0-1.7.7-.6,2v4h-1.3v-7.6h1.3v1.2q.4-.7,1-1,.6-.3,1.5-.3.1,0,.3,0,.2,0,.3,0v1.3"/>
      <path d="M619.2,152.5v.6h-5.8q0,1.3.8,2t2,.7,1.4-.2,1.3-.5v1.2q-.7.3-1.4.4t-1.4.1-2.9-1.1-1.1-2.9,1-3,2.8-1.1,2.4,1,.9,2.7h0ZM618,152.2q0-1-.6-1.6t-1.5-.6-1.7.6-.7,1.7h4.5"/>
      <path d="M625.7,149h1.3v7.6h-1.3v-7.6h0ZM625.7,146h1.3v1.6h-1.3v-1.6"/>
      <path d="M636,152v4.6h-1.3v-4.6q0-1.1-.4-1.6t-1.3-.5-1.6.6-.6,1.8v4.3h-1.3v-7.6h1.3v1.2q.5-.7,1.1-1,.6-.3,1.4-.3,1.3,0,2,.8.7.8.7,2.4"/>
      <path d="M642.6,146v1h-1.2q-.7,0-1,.3t-.2,1v.7h2.1v1h-2.1v6.7h-1.3v-6.7h-1.2v-1h1.2v-.5q0-1.3.6-1.9t1.9-.6h1.2"/>
      <path d="M646.6,149.9q-1,0-1.6.8t-.6,2.2.6,2.2,1.6.8,1.6-.8.6-2.2-.6-2.2-1.6-.8h0ZM646.6,148.8q1.6,0,2.6,1.1t.9,2.9-.9,3-2.6,1.1-2.6-1.1-.9-3,.9-2.9,2.6-1.1"/>
      <path d="M657.1,150.2q-.2-.1-.5-.2t-.5,0-1.6.7-.6,2v4h-1.3v-7.6h1.3v1.2q.4-.7,1-1,.6-.3,1.5-.3.1,0,.3,0,.1,0,.3,0v1.3"/>
      <path d="M664.6,150.5q.5-.8,1.1-1.2t1.5-.4,1.8.8.6,2.4v4.6h-1.3v-4.6q0-1.1-.4-1.6-.4-.5-1.2-.5-1,0-1.5.6-.6.6-.6,1.8v4.3h-1.3v-4.6q0-1.1-.4-1.6-.4-.5-1.2-.5-1,0-1.5.6-.6.7-.6,1.8v4.3h-1.3v-7.6h1.3v1.2q.4-.7,1-1,.6-.3,1.4-.3.8,0,1.4.4.6.4.9,1.2"/>
      <path d="M676.2,152.8q-1.5,0-2.1.3t-.6,1.2.4,1.1,1.2.4,1.7-.7.6-2v-.3h-1.2ZM678.7,152.3v4.4h-1.3v-1.1q-.4.7-1.1,1-.6.3-1.6.3-1.2,0-1.9-.7-.7-.7-.7-1.8,0-1.3.8-1.9.9-.7,2.6-.7h1.8q0-1-.6-1.5-.6-.5-1.6-.5-.7,0-1.3.2-.6.1-1.2.5v-1.2q.7-.3,1.3-.4.7-.1,1.3-.1,1.7,0,2.5.8.8.9.8,2.6"/>
      <path d="M682.9,146.8v2.2h2.6v1h-2.6v4.1q0,.9.2,1.2t1,.3h1.3v1h-1.3q-1.5,0-2-.5t-.5-2v-4.1h-.9v-1h.9v-2.2h1.3"/>
      <path d="M686.7,149h1.3v7.6h-1.3v-7.6h0ZM686.7,146h1.3v1.6h-1.3v-1.6"/>
      <path d="M693.6,149.9q-1,0-1.6.8t-.6,2.2.6,2.2,1.6.8,1.6-.8.6-2.2-.6-2.2-1.6-.8h0ZM693.6,148.8q1.6,0,2.6,1.1t.9,2.9-.9,3-2.6,1.1-2.6-1.1-.9-3,.9-2.9,2.6-1.1"/>
      <path d="M706,152v4.6h-1.3v-4.6q0-1.1-.4-1.6t-1.3-.5-1.6.6-.6,1.8v4.3h-1.3v-7.6h1.3v1.2q.5-.7,1.1-1,.6-.3,1.4-.3,1.3,0,2,.8.7.8.7,2.4"/>
      <path d="M718.2,149.3v1.2q-.5-.3-1.1-.4t-1.1-.1-1.9.8-.7,2.2.7,2.2,1.9.8,1.1-.1,1.1-.4v1.1q-.5.2-1.1.4t-1.2.1-2.8-1.1-1-2.9,1-2.9,2.8-1.1,1.1.1,1.1.4"/>
      <path d="M724.2,152.8q-1.5,0-2.1.3t-.6,1.2.4,1.1,1.2.4,1.7-.7.6-2v-.3h-1.2ZM726.7,152.3v4.4h-1.3v-1.1q-.4.7-1.1,1-.6.3-1.6.3-1.2,0-1.9-.7-.7-.7-.7-1.8,0-1.3.8-1.9.9-.7,2.6-.7h1.8q0-1-.6-1.5-.6-.5-1.6-.5-.7,0-1.3.2-.6.1-1.2.5v-1.2q.7-.3,1.3-.4.7-.1,1.3-.1,1.7,0,2.5.8.8.9.8,2.6"/>
      <path d="M736,152v4.6h-1.3v-4.6q0-1.1-.4-1.6t-1.3-.5-1.6.6-.6,1.8v4.3h-1.3v-7.6h1.3v1.2q.4-.7,1.1-1,.6-.3,1.4-.3,1.3,0,2,.8.7.8.7,2.4"/>
      <path d="M748.2,152.8q0-1.4-.6-2.1t-1.6-.8-1.6.8-.6,2.1.6,2.2,1.6.8,1.6-.8.6-2.2h0ZM743.9,150.2q.4-.7,1-1,.6-.3,1.4-.3,1.4,0,2.3,1.1.9,1.1.9,2.9,0,1.8-.9,2.9t-2.3,1.1q-.8,0-1.4-.3-.6-.3-1-1v1.1h-1.3v-10.6h1.3v4.1"/>
      <path d="M758.2,152.5v.6h-5.8q0,1.3.8,2t2,.7,1.4-.2,1.3-.5v1.2q-.7.3-1.4.4t-1.4.1-2.9-1.1-1.1-2.9,1-3,2.8-1.1,2.4,1,.9,2.7h0ZM757,152.2q0-1-.6-1.6t-1.5-.6-1.7.6-.7,1.7h4.5"/>
      <path d="M768.6,146v1h-1.2q-.7,0-.9.3t-.2,1v.7h2.1v1h-2.1v6.7h-1.3v-6.7h-1.2v-1h1.2v-.5q0-1.3.6-1.9t1.9-.6h1.2"/>
      <path d="M772.6,149.9q-1,0-1.6.8t-.6,2.2.6,2.2,1.6.8,1.6-.8.6-2.2-.6-2.2-1.6-.8h0ZM772.6,148.8q1.6,0,2.6,1.1t.9,2.9-.9,3-2.6,1.1-2.6-1.1-.9-3,.9-2.9,2.6-1.1"/>
      <path d="M778.5,153.7v-4.6h1.3v4.6q0,1.1.4,1.6t1.3.5,1.6-.6.6-1.8v-4.3h1.3v7.7h-1.3v-1.2q-.5.7-1.1,1-.6.3-1.4.3-1.3,0-2-.8-.7-.8-.7-2.4h0ZM781.7,148.8h0"/>
      <path d="M794,152v4.6h-1.3v-4.6q0-1.1-.4-1.6t-1.3-.5-1.6.6-.6,1.8v4.3h-1.3v-7.6h1.3v1.2q.5-.7,1.1-1,.6-.3,1.4-.3,1.3,0,2,.8.7.8.7,2.4"/>
      <path d="M801.7,150.2v-4.1h1.2v10.6h-1.2v-1.1q-.4.7-1,1t-1.5.3-2.3-1.1-.9-2.9.9-2.9,2.3-1.1,1.5.3,1,1h0ZM797.4,152.8q0,1.4.6,2.2.6.8,1.6.8,1,0,1.6-.8.6-.8.6-2.2,0-1.4-.6-2.1-.6-.8-1.6-.8t-1.6.8-.6,2.1"/>
      <path d="M812.6,149.9q-1,0-1.6.8t-.6,2.2.6,2.2,1.6.8,1.6-.8.6-2.2-.6-2.2-1.6-.8h0ZM812.6,148.8q1.6,0,2.6,1.1t.9,2.9-.9,3-2.6,1.1-2.6-1.1-.9-3,.9-2.9,2.6-1.1"/>
      <path d="M825,152v4.6h-1.3v-4.6q0-1.1-.4-1.6t-1.3-.5-1.6.6-.6,1.8v4.3h-1.3v-7.6h1.3v1.2q.5-.7,1.1-1,.6-.3,1.4-.3,1.3,0,2,.8.7.8.7,2.4"/>
      <path d="M838,152v4.6h-1.3v-4.6q0-1.1-.4-1.6t-1.3-.5-1.6.6-.6,1.8v4.3h-1.3v-10.6h1.3v4.2q.4-.7,1.1-1,.6-.3,1.4-.3,1.3,0,2,.8.7.8.7,2.4"/>
      <path d="M843.6,149.9q-1,0-1.6.8t-.6,2.2.6,2.2,1.6.8,1.6-.8.6-2.2-.6-2.2-1.6-.8h0ZM843.6,148.8q1.6,0,2.6,1.1t.9,2.9-.9,3-2.6,1.1-2.6-1.1-.9-3,.9-2.9,2.6-1.1"/>
      <polyline points="849 149 850.2 149 851.8 155 853.3 149 854.8 149 856.4 155 857.9 149 859.2 149 857.2 156.7 855.7 156.7 854.1 150.4 852.4 156.7 850.9 156.7 848.9 149"/>
      <path d="M865.9,146.8v2.2h2.6v1h-2.6v4.1q0,.9.2,1.2t1,.3h1.3v1h-1.3q-1.5,0-2-.5t-.5-2v-4.1h-.9v-1h.9v-2.2h1.3"/>
      <path d="M876,152v4.6h-1.3v-4.6q0-1.1-.4-1.6t-1.3-.5-1.6.6-.6,1.8v4.3h-1.3v-10.6h1.3v4.2q.5-.7,1.1-1,.6-.3,1.4-.3,1.3,0,2,.8.7.8.7,2.4"/>
      <path d="M885.2,152.5v.6h-5.8q0,1.3.8,2t1.9.7,1.4-.2,1.3-.5v1.2q-.7.3-1.4.4t-1.4.1-2.9-1.1-1.1-2.9,1-3,2.8-1.1,2.4,1,.9,2.7h0ZM884,152.2q0-1-.6-1.6t-1.5-.6-1.7.6-.7,1.7h4.5"/>
      <path d="M896.1,150.2q-.2-.1-.5-.2t-.5,0-1.7.7-.6,2v4h-1.3v-7.6h1.3v1.2q.4-.7,1-1,.6-.3,1.5-.3.1,0,.3,0,.1,0,.3,0v1.3"/>
      <path d="M904.2,152.5v.6h-5.8q0,1.3.8,2t2,.7,1.4-.2,1.3-.5v1.2q-.7.3-1.4.4t-1.4.1-2.9-1.1-1.1-2.9,1-3,2.8-1.1,2.4,1,.9,2.7h0ZM903,152.2q0-1-.6-1.6t-1.5-.6-1.7.6-.7,1.7h4.5"/>
      <path d="M907.9,155.5v4.1h-1.3v-10.6h1.3v1.1q.4-.7,1-1t1.5-.3,2.3,1.1.9,2.9-.9,2.9-2.3,1.1-1.5-.3-1-1h0ZM912.2,152.8q0-1.4-.6-2.1-.6-.8-1.6-.8-1,0-1.6.8-.6.8-.6,2.1,0,1.4.6,2.2.6.8,1.6.8t1.6-.8.6-2.2"/>
      <path d="M919.2,152.8q-1.5,0-2.1.3t-.6,1.2.4,1.1,1.2.4,1.7-.7.6-2v-.3h-1.3ZM921.7,152.3v4.4h-1.3v-1.1q-.4.7-1.1,1-.6.3-1.6.3-1.2,0-1.9-.7-.7-.7-.7-1.8,0-1.3.9-1.9.9-.7,2.6-.7h1.8q0-1-.6-1.5-.6-.5-1.6-.5-.6,0-1.3.2-.6.1-1.2.5v-1.2q.7-.3,1.3-.4.7-.1,1.3-.1,1.7,0,2.5.8.8.9.8,2.6"/>
      <path d="M924.7,149h1.3v7.6h-1.3v-7.6h0ZM924.7,146h1.3v1.6h-1.3v-1.6"/>
      <path d="M933.1,150.2q-.2-.1-.5-.2t-.5,0-1.6.7-.6,2v4h-1.3v-7.6h1.3v1.2q.4-.7,1-1,.6-.3,1.5-.3.1,0,.3,0,.2,0,.3,0v1.3"/>
      <path d="M938.7,149h1.3v7.6h-1.3v-7.6h0ZM938.7,146h1.3v1.6h-1.3v-1.6"/>
      <path d="M947.6,149.2v1.2q-.5-.3-1.1-.4t-1.2-.1-1.4.3-.5.8.3.7,1.4.5h.4q1.3.4,1.9.9.6.5.6,1.4,0,1.1-.8,1.7-.8.6-2.3.6-.6,0-1.3-.1-.6-.1-1.4-.4v-1.3q.7.4,1.4.5.7.2,1.3.2.9,0,1.3-.3.5-.3.5-.9,0-.5-.3-.8-.3-.3-1.5-.5h-.4q-1.1-.3-1.7-.9t-.5-1.4.8-1.7,2.2-.6,1.3,0,1.1.3"/>
      <path d="M958.7,150.2v-4.1h1.2v10.6h-1.2v-1.1q-.4.7-1,1t-1.5.3-2.3-1.1-.9-2.9.9-2.9,2.3-1.1,1.5.3,1,1h0ZM954.4,152.8q0,1.4.6,2.2.6.8,1.6.8,1,0,1.6-.8.6-.8.6-2.2,0-1.4-.6-2.1-.6-.8-1.6-.8t-1.6.8-.6,2.1"/>
      <path d="M965.6,149.9q-1,0-1.6.8t-.6,2.2.6,2.2,1.6.8,1.6-.8.6-2.2-.6-2.2-1.6-.8h0ZM965.6,148.8q1.6,0,2.6,1.1t.9,2.9-.9,3-2.6,1.1-2.6-1.1-.9-3,.9-2.9,2.6-1.1"/>
      <path d="M978,152v4.6h-1.3v-4.6q0-1.1-.4-1.6t-1.3-.5-1.6.6-.6,1.8v4.3h-1.3v-7.6h1.3v1.2q.5-.7,1.1-1,.6-.3,1.4-.3,1.3,0,2,.8.7.8.7,2.4"/>
      <path d="M987.2,152.5v.6h-5.8q0,1.3.8,2t1.9.7,1.4-.2,1.3-.5v1.2q-.7.3-1.4.4t-1.4.1-2.9-1.1-1.1-2.9,1-3,2.8-1.1,2.4,1,.9,2.7h0ZM986,152.2q0-1-.6-1.6t-1.5-.6-1.7.6-.7,1.7h4.5"/>
      <path d="M999.2,149.3v1.2q-.5-.3-1.1-.4t-1.1-.1-1.9.8-.7,2.2.7,2.2,1.9.8,1.1-.1,1.1-.4v1.1q-.5.2-1.1.4t-1.2.1-2.8-1.1-1-2.9,1-2.9,2.8-1.1,1.1.1,1.1.4"/>
      <path d="M1005.2,152.8q-1.5,0-2.1.3t-.6,1.2.4,1.1,1.2.4,1.7-.7.6-2v-.3h-1.2ZM1007.7,152.3v4.4h-1.3v-1.1q-.4.7-1.1,1-.6.3-1.6.3-1.2,0-1.9-.7-.7-.7-.7-1.8,0-1.3.8-1.9.9-.7,2.6-.7h1.8q0-1-.6-1.5-.6-.5-1.6-.5-.7,0-1.3.2-.6.1-1.2.5v-1.2q.7-.3,1.3-.4.7-.1,1.3-.1,1.7,0,2.5.8.8.9.8,2.6"/>
      <path d="M1017,152v4.6h-1.3v-4.6q0-1.1-.4-1.6t-1.3-.5-1.6.6-.6,1.8v4.3h-1.3v-7.6h1.3v1.2q.4-.7,1.1-1,.6-.3,1.4-.3,1.3,0,2,.8.7.8.7,2.4"/>
      <path d="M1029.2,152.8q0-1.4-.6-2.1t-1.6-.8-1.6.8-.6,2.1.6,2.2,1.6.8,1.6-.8.6-2.2h0ZM1024.9,150.2q.4-.7,1-1,.6-.3,1.5-.3,1.4,0,2.3,1.1.9,1.1.9,2.9,0,1.8-.9,2.9t-2.3,1.1q-.8,0-1.5-.3-.6-.3-1-1v1.1h-1.3v-10.6h1.3v4.1"/>
      <path d="M1039.2,152.5v.6h-5.8q0,1.3.8,2t2,.7,1.4-.2,1.3-.5v1.2q-.7.3-1.4.4t-1.4.1-2.9-1.1-1.1-2.9,1-3,2.8-1.1,2.4,1,.9,2.7h0ZM1038,152.2q0-1-.6-1.6t-1.5-.6-1.7.6-.7,1.7h4.5"/>
      <path d="M1049.6,146v1h-1.2q-.7,0-.9.3t-.2,1v.7h2.1v1h-2.1v6.7h-1.3v-6.7h-1.2v-1h1.2v-.5q0-1.3.6-1.9t1.9-.6h1.2"/>
      <path d="M1053.6,149.9q-1,0-1.6.8t-.6,2.2.6,2.2,1.6.8,1.6-.8.6-2.2-.6-2.2-1.6-.8h0ZM1053.6,148.8q1.6,0,2.6,1.1t.9,2.9-.9,3-2.6,1.1-2.6-1.1-.9-3,.9-2.9,2.6-1.1"/>
      <path d="M1059.5,153.7v-4.6h1.3v4.6q0,1.1.4,1.6t1.3.5,1.6-.6.6-1.8v-4.3h1.3v7.7h-1.3v-1.2q-.5.7-1.1,1-.6.3-1.4.3-1.3,0-2-.8-.7-.8-.7-2.4h0ZM1062.7,148.8h0"/>
      <path d="M1075,152v4.6h-1.3v-4.6q0-1.1-.4-1.6t-1.3-.5-1.6.6-.6,1.8v4.3h-1.3v-7.6h1.3v1.2q.4-.7,1.1-1,.6-.3,1.4-.3,1.3,0,2,.8.7.8.7,2.4"/>
      <path d="M1082.7,150.2v-4.1h1.2v10.6h-1.2v-1.1q-.4.7-1,1t-1.4.3-2.3-1.1-.9-2.9.9-2.9,2.3-1.1,1.4.3,1,1h0ZM1078.4,152.8q0,1.4.6,2.2.6.8,1.6.8,1,0,1.6-.8.6-.8.6-2.2,0-1.4-.6-2.1-.6-.8-1.6-.8t-1.6.8-.6,2.1"/>
      <path d="M1093.6,149.9q-1,0-1.6.8t-.6,2.2.6,2.2,1.6.8,1.6-.8.6-2.2-.6-2.2-1.6-.8h0ZM1093.6,148.8q1.6,0,2.6,1.1t.9,2.9-.9,3-2.6,1.1-2.6-1.1-.9-3,.9-2.9,2.6-1.1"/>
      <path d="M1106,152v4.6h-1.3v-4.6q0-1.1-.4-1.6t-1.3-.5-1.6.6-.6,1.8v4.3h-1.3v-7.6h1.3v1.2q.5-.7,1.1-1,.6-.3,1.4-.3,1.3,0,2,.8.7.8.7,2.4"/>
      <path d="M1117.7,152.7q0-1.4-.6-2.1t-1.6-.8-1.6.8-.6,2.1.6,2.1,1.6.8,1.6-.8.6-2.1h0ZM1119,155.7q0,2-.9,2.9-.8,1-2.6,1-.7,0-1.3,0-.6,0-1.1-.3v-1.2q.5.3,1.1.4.5.1,1.1.1,1.2,0,1.8-.6.6-.6.6-1.9v-.6q-.4.7-1,1-.6.3-1.5.3-1.4,0-2.3-1.1-.8-1.1-.8-2.8,0-1.8.8-2.8.9-1.1,2.3-1.1.8,0,1.5.3.6.3,1,1v-1.1h1.3v6.7"/>
      <path d="M1121.7,149h1.3v7.6h-1.3v-7.6h0ZM1121.7,146h1.3v1.6h-1.3v-1.6"/>
      <path d="M1126.9,146.8v2.2h2.6v1h-2.6v4.1q0,.9.2,1.2t1,.3h1.3v1h-1.3q-1.5,0-2-.5t-.5-2v-4.1h-.9v-1h.9v-2.2h1.3"/>
      <path d="M1137,152v4.6h-1.3v-4.6q0-1.1-.4-1.6t-1.3-.5-1.6.6-.6,1.8v4.3h-1.3v-10.6h1.3v4.2q.4-.7,1.1-1,.6-.3,1.4-.3,1.3,0,2,.8.7.8.7,2.4"/>
      <path d="M1139.5,153.7v-4.6h1.3v4.6q0,1.1.4,1.6t1.3.5,1.6-.6.6-1.8v-4.3h1.3v7.7h-1.3v-1.2q-.4.7-1.1,1-.6.3-1.4.3-1.3,0-2-.8-.7-.8-.7-2.4h0ZM1142.7,148.8h0"/>
      <path d="M1154.2,152.8q0-1.4-.6-2.1t-1.6-.8-1.6.8-.6,2.1.6,2.2,1.6.8,1.6-.8.6-2.2h0ZM1149.9,150.2q.4-.7,1-1,.6-.3,1.4-.3,1.4,0,2.3,1.1.9,1.1.9,2.9,0,1.8-.9,2.9t-2.3,1.1q-.8,0-1.4-.3-.6-.3-1-1v1.1h-1.3v-10.6h1.3v4.1h0Z"/>
      <path class="cls-1" d="M579.4,141.7v20.3M406.4,162h807"/>
      <polyline points="411.8 166.8 414.3 166.8 416.1 174.2 417.8 166.8 420.3 166.8 422.1 174.2 423.8 166.8 426.3 166.8 423.9 177 420.9 177 419.1 169.2 417.2 177 414.2 177 411.8 166.8"/>
      <path d="M435.2,173.1v.7h-5.7q0,.8.6,1.3t1.5.4,1.6-.2,1.7-.7v1.9q-.9.3-1.7.5-.9.2-1.7.2-2.1,0-3.2-1.1-1.1-1.1-1.1-3,0-1.9,1.1-2.9,1.1-1.1,3.1-1.1,1.8,0,2.9,1.1,1.1,1.1,1.1,2.9h0ZM432.7,172.3q0-.7-.4-1.1-.4-.4-1.1-.4-.7,0-1.1.4-.4.4-.5,1.1h3.2"/>
      <path d="M441.6,175.4q.8,0,1.2-.6t.4-1.7-.4-1.6-1.2-.6-1.2.6-.4,1.6.4,1.7,1.2.6h0ZM440,170.4q.5-.7,1.1-1,.6-.3,1.4-.3,1.4,0,2.3,1.1.9,1.1.9,2.9,0,1.8-.9,2.9-.9,1.1-2.3,1.1-.8,0-1.4-.3-.6-.3-1.1-1v1.1h-2.5v-10.6h2.5v4.1"/>
      <path d="M447.9,169.3h2.5v2.6h-2.5v-2.6h0ZM447.9,174.3h2.5v2.6h-2.5v-2.6"/>
      <path d="M462.8,176.2q-1,.5-2,.7t-2.2.2-4-1.4-1.5-3.9,1.5-3.9,4.1-1.4q1,0,1.9.2.9.2,1.8.6v2.1q-.8-.5-1.7-.7-.8-.2-1.7-.2-1.6,0-2.4.9-.8.9-.8,2.5,0,1.6.8,2.5.8.9,2.3.9.4,0,.8,0,.4,0,.6-.2v-2h-1.6v-1.8h4.1v4.9"/>
      <path d="M464.5,169.3h2.5v7.6h-2.5v-7.6h0ZM464.5,166.3h2.5v2h-2.5v-2"/>
      <path d="M472.2,167.1v2.2h2.5v1.8h-2.5v3.2q0,.5.2.7t.9.2h1.2v1.8h-2.1q-1.4,0-2.1-.6-.6-.6-.6-2.1v-3.2h-1.2v-1.8h1.2v-2.2h2.4"/>
      <path d="M484.2,172.3v4.6h-2.5v-3.5q0-1,0-1.4t-.1-.5-.4-.4-.6-.1-1.2.6-.4,1.6v3.8h-2.5v-10.6h2.5v4.1q.5-.7,1.2-1,.6-.3,1.4-.3,1.3,0,2,.8.7.8.7,2.4"/>
      <path d="M486.5,174v-4.7h2.5v.8q0,.6,0,1.6v1.2q0,.9,0,1.3t.2.6.4.4.6.1,1.2-.6.4-1.6v-3.8h2.5v7.7h-2.5v-1.1q-.5.7-1.2,1-.6.3-1.4.3-1.3,0-2-.8-.7-.8-.7-2.4"/>
      <path d="M500.6,175.4q.8,0,1.2-.6t.4-1.7-.4-1.6-1.2-.6-1.2.6-.4,1.6.4,1.7,1.2.6h0ZM499,170.4q.5-.7,1.1-1,.6-.3,1.4-.3,1.4,0,2.3,1.1.9,1.1.9,2.9,0,1.8-.9,2.9-.9,1.1-2.3,1.1-.8,0-1.4-.3-.6-.3-1.1-1v1.1h-2.5v-10.6h2.5v4.1h0Z"/>
      <path d="M592,172.3v4.6h-1.3v-4.6q0-1.1-.4-1.6t-1.3-.5-1.6.7-.6,1.8v4.3h-1.3v-10.6h1.3v4.2q.5-.7,1.1-1,.6-.3,1.4-.3,1.3,0,2,.8.7.8.7,2.4"/>
      <path d="M595.9,167.1v2.2h2.6v1h-2.6v4.1q0,.9.3,1.2t1,.3h1.3v1h-1.3q-1.5,0-2-.5t-.5-2v-4.1h-.9v-1h.9v-2.2h1.3"/>
      <path d="M600.9,167.1v2.2h2.6v1h-2.6v4.1q0,.9.2,1.2t1,.3h1.3v1h-1.3q-1.5,0-2-.5t-.5-2v-4.1h-.9v-1h.9v-2.2h1.3"/>
      <path d="M605.9,175.8v4.1h-1.3v-10.6h1.3v1.1q.4-.7,1-1t1.5-.3,2.3,1.1.9,2.9-.9,2.9-2.3,1.1-1.5-.3-1-1h0ZM610.2,173.1q0-1.4-.6-2.2-.6-.8-1.6-.8-1,0-1.6.8-.6.8-.6,2.2,0,1.4.6,2.2.6.8,1.6.8t1.6-.8.6-2.2"/>
      <path d="M618.6,169.5v1.2q-.5-.3-1.1-.4t-1.2-.1-1.4.3-.5.9.3.7,1.4.5h.4q1.3.4,1.9.9.6.5.6,1.4,0,1.1-.8,1.7-.8.6-2.3.6-.6,0-1.3-.1-.6-.1-1.4-.4v-1.3q.7.4,1.3.5.7.2,1.3.2.9,0,1.3-.3.5-.3.5-.8,0-.5-.3-.8-.3-.3-1.5-.5h-.4q-1.1-.3-1.7-.9t-.5-1.4.8-1.7,2.2-.6,1.3,0,1.1.3"/>
      <path d="M621,175.2h1.4v1.7h-1.4v-1.7h0ZM621,169.7h1.4v1.7h-1.4v-1.7"/>
      <polyline points="627.9 166.8 629.1 166.8 625.5 178.3 624.4 178.3 627.9 166.8"/>
      <polyline points="632.9 166.8 634.1 166.8 630.5 178.3 629.4 178.3 632.9 166.8"/>
      <path d="M640.7,173q0-1.4-.6-2.1t-1.6-.8-1.6.8-.6,2.1.6,2.1,1.6.8,1.6-.8.6-2.1h0ZM642,176q0,1.9-.9,2.9-.9,1-2.6,1-.7,0-1.3,0-.6,0-1.1-.3v-1.2q.5.3,1.1.5.5.1,1.1.1,1.2,0,1.8-.7.6-.6.6-1.9v-.6q-.4.7-1,1-.6.3-1.5.3-1.4,0-2.3-1.1-.9-1.1-.9-2.9,0-1.8.9-2.8.9-1.1,2.3-1.1.8,0,1.5.3.6.3,1,1v-1.1h1.2v6.7"/>
      <path d="M644.7,169.3h1.3v7.6h-1.3v-7.6h0ZM644.7,166.3h1.3v1.6h-1.3v-1.6"/>
      <path d="M649.9,167.1v2.2h2.6v1h-2.6v4.1q0,.9.2,1.2t1,.3h1.3v1h-1.3q-1.5,0-2-.5t-.5-2v-4.1h-.9v-1h.9v-2.2h1.3"/>
      <path d="M660,172.3v4.6h-1.3v-4.6q0-1.1-.4-1.6t-1.3-.5-1.6.7-.6,1.8v4.3h-1.3v-10.6h1.3v4.2q.5-.7,1.1-1,.6-.3,1.4-.3,1.3,0,2,.8.7.8.7,2.4"/>
      <path d="M662.5,173.9v-4.6h1.3v4.6q0,1.1.4,1.6t1.3.5,1.6-.6.6-1.8v-4.3h1.3v7.6h-1.3v-1.2q-.4.7-1.1,1-.6.3-1.4.3-1.3,0-2-.8-.7-.8-.7-2.4h0ZM665.7,169.1h0"/>
      <path d="M677.2,173.1q0-1.4-.6-2.2t-1.6-.8-1.6.8-.6,2.2.6,2.2,1.6.8,1.6-.8.6-2.2h0ZM672.9,170.5q.4-.7,1-1,.6-.3,1.5-.3,1.4,0,2.3,1.1.9,1.1.9,2.9,0,1.8-.9,2.9t-2.3,1.1q-.8,0-1.5-.3-.6-.3-1-1v1.1h-1.3v-10.6h1.3v4.1"/>
      <polyline points="680.9 175.2 682.3 175.2 682.3 177 680.9 177 680.9 175.2"/>
      <path d="M690.2,169.6v1.2q-.5-.3-1.1-.4t-1.1-.1-1.9.8-.7,2.2.7,2.2,1.9.8,1.1-.1,1.1-.4v1.1q-.5.2-1.1.4t-1.2.1-2.8-1.1-1-2.9,1-2.9,2.8-1.1,1.1.1,1.1.4"/>
      <path d="M695.6,170.2q-1,0-1.6.8t-.6,2.2.6,2.2,1.6.8,1.6-.8.6-2.2-.6-2.2-1.6-.8h0ZM695.6,169.1q1.6,0,2.6,1.1t.9,2.9-.9,3-2.6,1.1-2.6-1.1-.9-3,.9-2.9,2.6-1.1"/>
      <path d="M707.6,170.8q.5-.8,1.1-1.2t1.5-.4,1.8.8.7,2.4v4.6h-1.3v-4.6q0-1.1-.4-1.6-.4-.5-1.2-.5-1,0-1.5.6-.6.6-.6,1.8v4.3h-1.3v-4.6q0-1.1-.4-1.6-.4-.5-1.2-.5-1,0-1.5.7-.6.6-.6,1.8v4.3h-1.3v-7.7h1.3v1.2q.4-.7,1-1,.6-.3,1.4-.3.8,0,1.4.4.6.4.9,1.2"/>
      <polyline points="717.9 166.8 719.1 166.8 715.5 178.3 714.4 178.3 717.9 166.8"/>
      <polyline points="720.7 166.8 722.1 166.8 722.1 175.8 727.1 175.8 727.1 177 720.7 177 720.7 166.8"/>
      <polyline points="728.6 166.3 729.9 166.3 729.9 172.6 733.6 169.3 735.2 169.3 731.2 172.9 735.4 177 733.8 177 729.9 173.2 729.9 177 728.6 177 728.6 166.3"/>
      <path d="M743.2,172.8v.6h-5.8q0,1.3.8,2t2,.7,1.4-.2,1.3-.5v1.2q-.7.3-1.4.4t-1.4.2-2.9-1.1-1.1-2.9,1-3,2.8-1.1,2.4,1,.9,2.7h0ZM742,172.4q0-1-.6-1.6t-1.5-.6-1.7.6-.7,1.7h4.5"/>
      <path d="M745.5,173.9v-4.6h1.3v4.6q0,1.1.4,1.6t1.3.5,1.6-.6.6-1.8v-4.3h1.3v7.6h-1.3v-1.2q-.5.7-1.1,1-.6.3-1.4.3-1.3,0-2-.8-.7-.8-.7-2.4h0ZM748.7,169.1h0"/>
      <path d="M759.1,170.5q-.2-.1-.4-.2t-.5,0-1.6.7-.6,2v4h-1.3v-7.6h1.3v1.2q.4-.7,1-1,.6-.3,1.5-.3.1,0,.3,0,.1,0,.3,0v1.3"/>
      <path d="M767.2,172.8v.6h-5.8q0,1.3.8,2t2,.7,1.4-.2,1.3-.5v1.2q-.7.3-1.4.4t-1.4.2-2.9-1.1-1.1-2.9,1-3,2.8-1.1,2.4,1,.9,2.7h0ZM766,172.4q0-1-.6-1.6t-1.5-.6-1.7.6-.7,1.7h4.5"/>
      <path d="M776,172.3v4.6h-1.3v-4.6q0-1.1-.4-1.6t-1.3-.5-1.6.7-.6,1.8v4.3h-1.3v-7.6h1.3v1.2q.5-.7,1.1-1,.6-.3,1.4-.3,1.3,0,2,.8.7.8.7,2.4"/>
      <path d="M779.9,167.1v2.2h2.6v1h-2.6v4.1q0,.9.2,1.2t1,.3h1.3v1h-1.3q-1.4,0-2-.5t-.5-2v-4.1h-.9v-1h.9v-2.2h1.3ZM783.7,169.3h1.3v7.8q0,1.4-.6,2.1-.5.6-1.8.6h-.5v-1.1h.3q.7,0,1-.3.3-.3.3-1.4v-7.8h0ZM783.7,166.3h1.3v1.6h-1.3v-1.6"/>
      <path d="M794.2,172.8v.6h-5.8q0,1.3.8,2t2,.7,1.4-.2,1.3-.5v1.2q-.7.3-1.4.4t-1.4.2-2.9-1.1-1.1-2.9,1-3,2.8-1.1,2.4,1,.9,2.7h0ZM793,172.4q0-1-.6-1.6t-1.5-.6-1.7.6-.7,1.7h4.5"/>
      <path d="M801.6,169.5v1.2q-.5-.3-1.1-.4t-1.2-.1-1.4.3-.5.9.3.7,1.4.5h.4q1.3.4,1.9.9.6.5.6,1.4,0,1.1-.8,1.7-.8.6-2.3.6-.6,0-1.3-.1-.7-.1-1.4-.4v-1.3q.7.4,1.3.5.7.2,1.3.2.9,0,1.3-.3.5-.3.5-.8,0-.5-.3-.8-.3-.3-1.5-.5h-.4q-1.2-.3-1.7-.9t-.5-1.4.8-1.7,2.2-.6,1.3,0,1.1.3"/>
      <polyline points="805.9 166.8 807.1 166.8 803.5 178.3 802.4 178.3 805.9 166.8"/>
      <path d="M812.1,168.1l-1.9,5.1h3.8l-1.9-5.1h0ZM811.4,166.8h1.6l3.9,10.2h-1.4l-.9-2.6h-4.6l-.9,2.6h-1.5l3.9-10.2"/>
      <path d="M818.6,166.8h1.4v6.2q0,1.6.6,2.3t1.9.7,1.9-.7.6-2.3v-6.2h1.4v6.4q0,2-1,3t-2.9,1-2.9-1-1-3v-6.4"/>
      <polyline points="827.3 166.8 836 166.8 836 167.9 832.3 167.9 832.3 177 830.9 177 830.9 167.9 827.3 167.9 827.3 166.8"/>
      <path d="M841.9,167.7q-1.5,0-2.4,1.1t-.9,3,.9,3,2.4,1.1,2.4-1.1.9-3-.9-3-2.4-1.1h0ZM841.9,166.6q2.1,0,3.4,1.4t1.3,3.9-1.3,3.8-3.4,1.4-3.5-1.4-1.3-3.8,1.3-3.9,3.5-1.4"/>
      <path d="M853.1,170.5q-.2-.1-.5-.2t-.5,0-1.7.7-.6,2v4h-1.3v-7.6h1.3v1.2q.4-.7,1-1,.6-.3,1.5-.3.1,0,.3,0,.2,0,.3,0v1.3"/>
      <path d="M859,171.5q1,.2,1.5.9t.6,1.6-1,2.3-2.9.8-1.3-.1-1.4-.4v-1.3q.6.3,1.3.5.7.2,1.4.2t2-.5.7-1.5q0-.9-.6-1.4-.6-.5-1.8-.5h-1.2v-1.1h1.2q1,0,1.5-.4.5-.4.5-1.2,0-.8-.6-1.2-.5-.4-1.6-.4-.6,0-1.2.1-.6.1-1.4.4v-1.2q.8-.2,1.5-.3.7,0,1.3,0,1.6,0,2.5.7.9.7.9,1.9,0,.8-.5,1.4-.5.6-1.4.8"/>
      <path d="M864.9,175.8v4.1h-1.3v-10.6h1.3v1.1q.4-.7,1-1t1.5-.3,2.3,1.1.9,2.9-.9,2.9-2.3,1.1-1.5-.3-1-1h0ZM869.2,173.1q0-1.4-.6-2.2-.6-.8-1.6-.8-1,0-1.6.8-.6.8-.6,2.2,0,1.4.6,2.2.6.8,1.6.8t1.6-.8.6-2.2"/>
      <path d="M876.2,173.1q-1.5,0-2.1.3t-.6,1.2.4,1.1,1.2.4,1.7-.7.6-2v-.3h-1.2ZM878.7,172.6v4.4h-1.3v-1.1q-.4.7-1.1,1-.6.3-1.6.3-1.2,0-1.9-.6-.7-.7-.7-1.8,0-1.3.8-1.9.9-.6,2.6-.6h1.8q0-1-.6-1.5-.6-.5-1.6-.5-.6,0-1.3.2-.6.1-1.2.5v-1.2q.7-.3,1.3-.4.6-.1,1.3-.1,1.7,0,2.5.9.8.8.8,2.6"/>
      <path d="M881.7,169.3h1.3v7.6h-1.3v-7.6h0ZM881.7,166.3h1.3v1.6h-1.3v-1.6"/>
      <path d="M890.1,170.5q-.2-.1-.5-.2t-.5,0-1.7.7-.6,2v4h-1.3v-7.6h1.3v1.2q.4-.7,1-1,.6-.3,1.5-.3.1,0,.3,0,.1,0,.3,0v1.3h0Z"/>
      <path class="cls-1" d="M579.4,162v20.3M406.4,182.3h807"/>
      <polyline points="411.8 187.1 414.3 187.1 416.1 194.5 417.8 187.1 420.3 187.1 422.1 194.5 423.8 187.1 426.3 187.1 423.9 197.3 420.9 197.3 419.1 189.5 417.2 197.3 414.2 197.3 411.8 187.1"/>
      <path d="M433.2,191.7q-.3-.1-.6-.2t-.6,0-1.4.6-.5,1.7v3.5h-2.5v-7.6h2.5v1.2q.5-.8,1.1-1.1.6-.3,1.5-.3.1,0,.3,0,.1,0,.4,0v2.2"/>
      <path d="M434.5,189.6h2.5v7.6h-2.5v-7.6h0ZM434.5,186.6h2.5v2h-2.5v-2"/>
      <path d="M442.2,187.4v2.2h2.5v1.8h-2.5v3.2q0,.5.2.7t.8.2h1.3v1.8h-2.1q-1.4,0-2.1-.6-.6-.6-.6-2.1v-3.2h-1.2v-1.7h1.2v-2.2h2.4"/>
      <path d="M449.2,187.4v2.2h2.5v1.8h-2.5v3.2q0,.5.2.7t.8.2h1.2v1.8h-2.1q-1.4,0-2.1-.6-.6-.6-.6-2.1v-3.2h-1.2v-1.7h1.2v-2.2h2.4"/>
      <path d="M461.2,193.4v.7h-5.7q0,.8.6,1.3t1.5.4,1.6-.2,1.6-.7v1.9q-.9.3-1.7.5-.9.2-1.7.2-2.1,0-3.2-1.1-1.1-1.1-1.1-3,0-1.9,1.1-2.9,1.1-1.1,3.1-1.1,1.8,0,2.9,1.1,1.1,1.1,1.1,2.9h0ZM458.7,192.6q0-.7-.4-1.1-.4-.4-1.1-.4-.7,0-1.1.4-.4.4-.5,1.1h3.2"/>
      <path d="M471.2,192.6v4.6h-2.5v-3.5q0-1,0-1.4t-.1-.5-.4-.4-.6-.1-1.2.6-.4,1.6v3.8h-2.5v-7.6h2.5v1.1q.5-.7,1.2-1,.6-.3,1.4-.3,1.3,0,2,.8.7.8.7,2.4"/>
      <path d="M482.6,195.7q.8,0,1.2-.6t.4-1.7-.4-1.6-1.2-.6-1.2.6-.4,1.6.4,1.7,1.2.6h0ZM481,190.7q.5-.7,1.1-1,.6-.3,1.4-.3,1.4,0,2.3,1.1.9,1.1.9,2.9,0,1.8-.9,2.9-.9,1.1-2.3,1.1-.8,0-1.4-.3-.6-.3-1.1-1v1.1h-2.5v-10.6h2.5v4.1"/>
      <path d="M487.5,189.6h2.4l2,5.2,1.8-5.2h2.5l-3.2,8.4q-.5,1.3-1.1,1.8t-1.7.5h-1.4v-1.6h.8q.6,0,.9-.2.3-.2.4-.7v-.2c0,0-3.3-8-3.3-8h0Z"/>
      <polyline points="585.7 187.1 587.1 187.1 587.1 196.1 592.1 196.1 592.1 197.2 585.7 197.2 585.7 187"/>
      <path d="M593.7,189.6h1.3v7.6h-1.3v-7.6h0ZM593.7,186.6h1.3v1.6h-1.3v-1.6"/>
      <path d="M602.6,189.8v1.2q-.5-.3-1.1-.4t-1.2-.1-1.4.3-.5.9.3.7,1.3.5h.4q1.3.4,1.9.9.6.5.6,1.4,0,1.1-.8,1.7-.8.6-2.3.6-.6,0-1.3-.1-.7-.1-1.4-.4v-1.3q.7.4,1.4.5.7.2,1.3.2.9,0,1.4-.3.5-.3.5-.8,0-.5-.3-.8-.3-.3-1.5-.5h-.4q-1.2-.3-1.7-.8t-.5-1.4.8-1.7,2.2-.6,1.3.1,1.1.3"/>
      <path d="M608.2,193.4q-1.5,0-2.1.3t-.6,1.2.4,1.1,1.2.4,1.7-.7.6-2v-.3h-1.2ZM610.7,192.9v4.4h-1.3v-1.1q-.4.7-1.1,1-.6.3-1.6.3-1.2,0-1.9-.7-.7-.7-.7-1.8,0-1.3.8-1.9.9-.7,2.6-.7h1.8q0-1-.6-1.5-.6-.5-1.6-.5-.6,0-1.3.2-.6.1-1.2.5v-1.2q.7-.3,1.3-.4.7-.1,1.3-.1,1.7,0,2.5.8.8.9.8,2.6"/>
      <polyline points="617.7 187.1 619.1 187.1 619.1 191.4 623.7 187.1 625.5 187.1 620.4 191.8 625.8 197.3 624 197.3 619.1 192.3 619.1 197.3 617.7 197.3 617.7 187.1"/>
      <path d="M633.2,193.1v.6h-5.8q0,1.3.8,2t1.9.7,1.4-.2,1.3-.5v1.2q-.7.3-1.4.4t-1.4.1-2.9-1.1-1.1-2.9,1-3,2.8-1.1,2.4,1,.9,2.7h0ZM632,192.7q0-1-.6-1.6t-1.5-.6-1.7.6-.7,1.7h4.5"/>
      <path d="M635.5,194.2v-4.6h1.3v4.6q0,1.1.4,1.6t1.3.5,1.6-.6.6-1.8v-4.3h1.3v7.6h-1.3v-1.2q-.4.7-1.1,1-.6.3-1.4.3-1.3,0-2-.8-.7-.8-.7-2.4h0ZM638.7,189.4h0"/>
      <path d="M649.1,190.8q-.2-.1-.5-.2t-.5,0-1.7.7-.6,2v4h-1.3v-7.6h1.3v1.2q.4-.7,1-1,.6-.3,1.5-.3.1,0,.3,0,.2,0,.3,0v1.3"/>
      <path d="M657.2,193.1v.6h-5.8q0,1.3.8,2t1.9.7,1.4-.2,1.3-.5v1.2q-.7.3-1.4.4t-1.4.1-2.9-1.1-1.1-2.9,1-3,2.8-1.1,2.4,1,.9,2.7h0ZM656,192.7q0-1-.6-1.6t-1.5-.6-1.7.6-.7,1.7h4.5"/>
      <path d="M666,192.6v4.6h-1.3v-4.6q0-1.1-.4-1.6t-1.3-.5-1.6.6-.6,1.8v4.3h-1.3v-7.6h1.3v1.2q.5-.7,1.1-1,.6-.3,1.4-.3,1.3,0,2,.8.7.8.7,2.4"/>
      <path d="M669.9,187.4v2.2h2.6v1h-2.6v4.1q0,.9.2,1.2t1,.3h1.3v1h-1.3q-1.5,0-2-.5t-.5-2v-4.1h-.9v-1h.9v-2.2h1.3ZM673.7,189.6h1.3v7.8q0,1.4-.6,2.1-.5.6-1.8.6h-.5v-1.1h.3q.7,0,1-.3.3-.3.3-1.4v-7.8h0ZM673.7,186.6h1.3v1.6h-1.3v-1.6"/>
      <path d="M684.2,193.1v.6h-5.8q0,1.3.8,2t1.9.7,1.4-.2,1.3-.5v1.2q-.7.3-1.4.4t-1.4.1-2.9-1.1-1.1-2.9,1-3,2.8-1.1,2.4,1,.9,2.7h0ZM683,192.7q0-1-.6-1.6t-1.5-.6-1.7.6-.7,1.7h4.5"/>
      <path d="M691.6,189.8v1.2q-.5-.3-1.1-.4t-1.2-.1-1.4.3-.5.9.3.7,1.3.5h.4q1.3.4,1.9.9.6.5.6,1.4,0,1.1-.8,1.7-.8.6-2.3.6-.6,0-1.3-.1-.7-.1-1.4-.4v-1.3q.7.4,1.4.5.7.2,1.3.2.9,0,1.4-.3.5-.3.5-.8,0-.5-.3-.8-.3-.3-1.5-.5h-.4q-1.1-.3-1.7-.8t-.5-1.4.8-1.7,2.2-.6,1.3.1,1.1.3h0Z"/>
      <line class="cls-1" x1="579.4" y1="182.3" x2="579.4" y2="202.6"/>
      <rect class="cls-3" x="406.4" y="101.1" width="807" height="101.5" rx="5" ry="5"/>
      <path class="cls-5" d="M617.8,70.1c0,1.7-1.3,3-3,3s-3-1.3-3-3,1.3-3,3-3,3,1.3,3,3h0Z"/>
      <path class="cls-5" d="M360.3,101.8c0,1.7-1.3,3-3,3s-3-1.3-3-3,1.3-3,3-3,3,1.3,3,3h0Z"/>
      <path class="cls-5" d="M360.3,121.7c0,1.7-1.3,3-3,3s-3-1.3-3-3,1.3-3,3-3,3,1.3,3,3h0Z"/>
      <path class="cls-1" d="M360.3,121.7c0,1.7-1.3,3-3,3s-3-1.3-3-3,1.3-3,3-3,3,1.3,3,3h0ZM123.4,101.8h41.5"/>
      <polygon class="cls-5" points="164.9 104.9 167.2 101.8 164.9 98.7 172.7 101.8 164.9 104.9 164.9 104.9"/>
      <polyline class="cls-1" points="164.9 104.9 167.2 101.8 164.9 98.7 172.7 101.8 164.9 104.9"/>
      <path class="cls-5" d="M126.3,101.8c0,1.7-1.3,3-3,3s-3-1.3-3-3,1.3-3,3-3,3,1.3,3,3h0Z"/>
      <path class="cls-1" d="M126.3,101.8c0,1.7-1.3,3-3,3s-3-1.3-3-3,1.3-3,3-3,3,1.3,3,3h0Z"/>
      <g>
        <line class="cls-1" x1="357.5" y1="101.4" x2="400.4" y2="74.9"/>
        <polygon points="406.4 71.2 400 79.9 399.9 75.2 395.8 72.9 406.4 71.2"/>
      </g>
      <g>
        <line class="cls-1" x1="616.1" y1="71.5" x2="706.2" y2="57"/>
        <path d="M712.1,56c-2.6,1.5-5.8,3.8-7.7,6.1l.9-5-2.5-4.4c2.5,1.5,6.2,2.7,9.2,3.3Z"/>
      </g>
      <g>
        <line class="cls-1" x1="357.4" y1="121.8" x2="400.5" y2="131.6"/>
        <path d="M406.4,132.9c-3,.4-6.8,1.4-9.4,2.8l2.7-4.3-.6-5c1.7,2.3,4.8,4.9,7.3,6.5Z"/>
      </g>
    </g>
  </g>
</svg>