<?xml version="1.0" encoding="UTF-8"?>
<svg id="Solid" xmlns="http://www.w3.org/2000/svg" viewBox="0 0 522.58 427.6">
  <defs>
    <style>
      .cls-1, .cls-2, .cls-3 {
        font-family: MyriadPro-Regular, 'Myriad Pro';
      }

      .cls-1, .cls-2, .cls-4 {
        fill: #fff;
      }

      .cls-1, .cls-3 {
        font-size: 9px;
      }

      .cls-5, .cls-3 {
        fill: #231f20;
      }

      .cls-6 {
        letter-spacing: 0em;
      }

      .cls-7 {
        fill: #6dbae7;
        opacity: .31;
      }

      .cls-8 {
        stroke: #9b9a9a;
      }

      .cls-8, .cls-9, .cls-10 {
        fill: none;
        stroke-miterlimit: 10;
        stroke-width: 2.83px;
      }

      .cls-11 {
        fill: #9b9a9a;
      }

      .cls-9, .cls-10 {
        stroke: #437898;
      }

      .cls-2 {
        font-size: 10px;
      }

      .cls-4 {
        opacity: .74;
      }

      .cls-10 {
        stroke-dasharray: 5.67;
      }
    </style>
  </defs>
  <g>
    <polyline class="cls-7" points="54.02 37.6 54.02 37.6 55.52 153.1 33.07 185.74 34.52 68.1 56.02 37.6"/>
    <polygon class="cls-7" points="55.52 38.1 55.52 153.1 181.52 154.1 179.55 37.06 135.78 39.03 135.78 51.03 98.78 50.77 97.52 38.1 55.52 38.1"/>
    <line class="cls-9" x1="180.52" y1="38.1" x2="55.52" y2="38.1"/>
    <line class="cls-9" x1="157.52" y1="68.1" x2="180.52" y2="38.1"/>
    <line class="cls-9" x1="161.52" y1="188.1" x2="181.52" y2="154.1"/>
    <line class="cls-9" x1="180.52" y1="38.1" x2="180.52" y2="154.1"/>
    <line class="cls-10" x1="55.52" y1="38.1" x2="55.52" y2="153.1"/>
    <line class="cls-9" x1="34.28" y1="67.55" x2="57.28" y2="37.55"/>
    <line class="cls-10" x1="180.52" y1="153.1" x2="53.52" y2="153.1"/>
    <polyline class="cls-10" points="55.52 153.1 35.52 184.1 55.52 153.1"/>
    <g>
      <line class="cls-9" x1="135.38" y1="14.67" x2="98.33" y2="14.67"/>
      <polygon class="cls-4" points="92.04 23.4 91.78 59.65 129.75 59.12 136.78 48.65 135.78 27.37 92.04 23.4"/>
      <line class="cls-9" x1="128.56" y1="23.56" x2="135.38" y2="14.67"/>
      <line class="cls-9" x1="129.75" y1="59.12" x2="135.68" y2="49.05"/>
      <line class="cls-9" x1="135.38" y1="14.67" x2="135.38" y2="49.05"/>
      <line class="cls-10" x1="98.33" y1="14.67" x2="98.33" y2="48.75"/>
      <line class="cls-9" x1="92.04" y1="23.4" x2="98.86" y2="14.5"/>
      <line class="cls-10" x1="135.38" y1="48.75" x2="97.74" y2="48.75"/>
      <polyline class="cls-10" points="98.33 48.75 92.41 57.94 98.33 48.75"/>
      <rect class="cls-9" x="92.11" y="23.56" width="37.34" height="34.67"/>
      <circle class="cls-5" cx="98.28" cy="14.41" r="3.72"/>
      <text/>
      <circle class="cls-5" cx="136.78" cy="48.65" r="3.72"/>
      <text/>
      <circle class="cls-5" cx="128.78" cy="58.65" r="3.72"/>
      <text/>
      <circle class="cls-5" cx="91.78" cy="59.65" r="3.72"/>
      <text/>
      <circle class="cls-5" cx="98.78" cy="48.65" r="3.72"/>
      <text/>
      <circle class="cls-5" cx="129.78" cy="24.65" r="3.72"/>
      <text/>
      <circle class="cls-5" cx="90.78" cy="23.65" r="3.72"/>
      <text/>
      <circle class="cls-5" cx="135.78" cy="14.65" r="3.72"/>
      <text/>
    </g>
    <path class="cls-7" d="M34.52,68.1l125.5,1.5,20.5-31.5h-83l-41.5-.5-21.5,30.5Z"/>
    <polyline class="cls-7" points="34.15 185.42 55.52 153.1 180.52 154.1 160.52 185.1"/>
    <polygon class="cls-7" points="159.15 68.42 179.74 39.03 178.69 156.62 158.53 185.63 159.15 68.42"/>
    <circle class="cls-5" cx="180.15" cy="153.42" r="7.75"/>
    <text class="cls-1" transform="translate(177.22 156.62)"><tspan x="0" y="0">H</tspan></text>
    <circle class="cls-5" cx="54.15" cy="153.42" r="7.75"/>
    <text class="cls-2" transform="translate(51.72 156.97)"><tspan x="0" y="0">F</tspan></text>
    <rect class="cls-7" x="36.02" y="69.6" width="124" height="115"/>
    <rect class="cls-9" x="34.52" y="68.1" width="126" height="117"/>
    <circle class="cls-5" cx="55.27" cy="36.85" r="7.75"/>
    <text class="cls-2" transform="translate(52.81 40.4)"><tspan x="0" y="0">E</tspan></text>
    <circle class="cls-5" cx="179.15" cy="36.42" r="7.75"/>
    <text class="cls-1" transform="translate(176.24 39.62)"><tspan x="0" y="0">G</tspan></text>
    <circle class="cls-5" cx="35.27" cy="68.85" r="7.75"/>
    <text class="cls-2" transform="translate(32.21 72.4)"><tspan x="0" y="0">A</tspan></text>
    <circle class="cls-5" cx="160.15" cy="185.42" r="7.75"/>
    <text class="cls-2" transform="translate(157.25 188.97)"><tspan x="0" y="0">C</tspan></text>
    <circle class="cls-5" cx="34.15" cy="185.42" r="7.75"/>
    <text class="cls-2" transform="translate(31.44 188.97)"><tspan x="0" y="0">B</tspan></text>
    <circle class="cls-5" cx="159.15" cy="68.42" r="7.75"/>
    <text class="cls-1" transform="translate(156.15 71.62)"><tspan x="0" y="0">D</tspan></text>
  </g>
  <g>
    <polyline class="cls-7" points="366.65 30.01 366.65 30.01 368.15 145.51 345.7 178.15 347.15 60.51 368.65 30.01"/>
    <polygon class="cls-7" points="368.15 30.51 368.15 145.51 494.15 146.51 492.18 29.47 448.41 31.44 448.41 43.43 411.41 43.18 410.15 30.51 368.15 30.51"/>
    <line class="cls-9" x1="410.18" y1="30.63" x2="368.15" y2="30.51"/>
    <line class="cls-9" x1="470.15" y1="60.51" x2="493.15" y2="30.51"/>
    <line class="cls-9" x1="474.15" y1="180.51" x2="494.15" y2="146.51"/>
    <line class="cls-9" x1="493.15" y1="30.51" x2="493.15" y2="146.51"/>
    <line class="cls-10" x1="368.15" y1="30.51" x2="368.15" y2="145.51"/>
    <line class="cls-9" x1="346.91" y1="59.96" x2="369.91" y2="29.96"/>
    <line class="cls-10" x1="493.15" y1="145.51" x2="366.15" y2="145.51"/>
    <polyline class="cls-10" points="368.15 145.51 348.15 176.51 368.15 145.51"/>
    <line class="cls-9" x1="490.53" y1="31.11" x2="448.5" y2="30.99"/>
    <g>
      <line class="cls-9" x1="441.38" y1="51.53" x2="447.31" y2="41.45"/>
      <line class="cls-9" x1="447.18" y1="28.63" x2="447.01" y2="41.45"/>
      <line class="cls-10" x1="410.18" y1="29.63" x2="409.97" y2="41.16"/>
      <line class="cls-10" x1="447.01" y1="41.16" x2="409.37" y2="41.16"/>
      <polyline class="cls-10" points="409.97 41.16 404.04 50.34 409.97 41.16"/>
      <rect class="cls-9" x="403.74" y="37.63" width="37.34" height="13.01"/>
      <circle class="cls-5" cx="448.41" cy="41.05" r="3.72"/>
      <text/>
      <circle class="cls-5" cx="440.41" cy="51.05" r="3.72"/>
      <text/>
      <circle class="cls-5" cx="403.41" cy="52.05" r="3.72"/>
      <text/>
      <circle class="cls-5" cx="410.41" cy="41.05" r="3.72"/>
      <text/>
      <path class="cls-7" d="M347.15,60.51l125.5,1.5,20.5-31.5h-44.01c-2.28,3.01-4.55,6.02-6.83,9.03-12.97-.3-25.93-.59-38.9-.89l6.74-8.14-41.5-.5-21.5,30.5Z"/>
      <line class="cls-9" x1="402.67" y1="38.8" x2="409.49" y2="29.91"/>
      <line class="cls-9" x1="441.19" y1="38.97" x2="448.01" y2="30.08"/>
      <circle class="cls-5" cx="409.91" cy="29.82" r="3.72"/>
      <text/>
      <circle class="cls-5" cx="440.41" cy="38.05" r="3.72"/>
      <text/>
      <circle class="cls-5" cx="402.41" cy="38.05" r="3.72"/>
      <text/>
      <circle class="cls-5" cx="447.41" cy="30.05" r="3.72"/>
      <text/>
    </g>
    <polyline class="cls-7" points="346.78 177.83 368.15 145.51 493.15 146.51 473.15 177.51"/>
    <polygon class="cls-7" points="471.78 60.83 492.37 31.44 491.32 149.02 471.16 178.04 471.78 60.83"/>
    <circle class="cls-5" cx="492.78" cy="145.83" r="7.75"/>
    <text class="cls-1" transform="translate(489.85 149.02)"><tspan x="0" y="0">H</tspan></text>
    <circle class="cls-5" cx="366.78" cy="145.83" r="7.75"/>
    <text class="cls-2" transform="translate(364.35 149.38)"><tspan x="0" y="0">F</tspan></text>
    <rect class="cls-7" x="348.65" y="62.01" width="124" height="115"/>
    <rect class="cls-9" x="347.15" y="60.51" width="126" height="117"/>
    <circle class="cls-5" cx="367.9" cy="29.26" r="7.75"/>
    <text class="cls-2" transform="translate(365.44 32.81)"><tspan x="0" y="0">E</tspan></text>
    <circle class="cls-5" cx="491.78" cy="28.83" r="7.75"/>
    <text class="cls-1" transform="translate(488.88 32.02)"><tspan x="0" y="0">G</tspan></text>
    <circle class="cls-5" cx="347.9" cy="61.26" r="7.75"/>
    <text class="cls-2" transform="translate(344.84 64.81)"><tspan x="0" y="0">A</tspan></text>
    <circle class="cls-5" cx="472.78" cy="177.83" r="7.75"/>
    <text class="cls-2" transform="translate(469.88 181.38)"><tspan x="0" y="0">C</tspan></text>
    <circle class="cls-5" cx="346.78" cy="177.83" r="7.75"/>
    <text class="cls-2" transform="translate(344.07 181.38)"><tspan x="0" y="0">B</tspan></text>
    <circle class="cls-5" cx="471.78" cy="60.83" r="7.75"/>
    <text class="cls-1" transform="translate(468.79 64.02)"><tspan x="0" y="0">D</tspan></text>
  </g>
  <g>
    <polyline class="cls-7" points="55.94 249.04 55.94 249.04 57.44 364.54 34.99 397.18 36.44 279.54 57.94 249.04"/>
    <polygon class="cls-7" points="57.44 249.54 57.44 364.54 183.44 365.54 181.47 248.49 137.7 250.46 137.7 262.46 100.7 262.21 99.44 249.54 57.44 249.54"/>
    <line class="cls-9" x1="182.44" y1="249.54" x2="57.44" y2="249.54"/>
    <line class="cls-9" x1="159.44" y1="279.54" x2="182.44" y2="249.54"/>
    <line class="cls-9" x1="163.44" y1="399.54" x2="183.44" y2="365.54"/>
    <line class="cls-9" x1="182.44" y1="249.54" x2="182.44" y2="365.54"/>
    <line class="cls-10" x1="57.44" y1="249.54" x2="57.44" y2="364.54"/>
    <line class="cls-9" x1="36.2" y1="278.98" x2="59.2" y2="248.98"/>
    <line class="cls-10" x1="182.44" y1="364.54" x2="55.44" y2="364.54"/>
    <polyline class="cls-10" points="57.44 364.54 37.44 395.54 57.44 364.54"/>
    <g>
      <line class="cls-9" x1="136.3" y1="250.1" x2="99.25" y2="250.1"/>
      <polygon class="cls-4" points="92.96 258.83 92.7 295.08 130.67 294.56 137.7 284.08 136.7 262.8 92.96 258.83"/>
      <line class="cls-9" x1="129.48" y1="258.99" x2="136.3" y2="250.1"/>
      <line class="cls-9" x1="130.67" y1="294.56" x2="136.59" y2="284.48"/>
      <line class="cls-9" x1="136.3" y1="250.1" x2="136.3" y2="284.48"/>
      <line class="cls-10" x1="99.25" y1="250.1" x2="99.25" y2="284.18"/>
      <line class="cls-9" x1="92.96" y1="258.83" x2="99.77" y2="249.94"/>
      <line class="cls-10" x1="136.3" y1="284.18" x2="98.66" y2="284.18"/>
      <polyline class="cls-10" points="99.25 284.18 93.32 293.37 99.25 284.18"/>
      <rect class="cls-9" x="93.03" y="258.99" width="37.34" height="34.67"/>
      <circle class="cls-5" cx="99.2" cy="249.85" r="3.72"/>
      <text/>
      <circle class="cls-5" cx="137.7" cy="284.08" r="3.72"/>
      <text/>
      <circle class="cls-5" cx="129.7" cy="294.08" r="3.72"/>
      <text/>
      <circle class="cls-5" cx="92.7" cy="295.08" r="3.72"/>
      <text/>
      <path class="cls-7" d="M36.44,279.54l125.5,1.5,20.5-31.5h-83l-41.5-.5-21.5,30.5Z"/>
      <circle class="cls-5" cx="99.7" cy="284.08" r="3.72"/>
      <text/>
      <circle class="cls-5" cx="130.7" cy="260.08" r="3.72"/>
      <text/>
      <circle class="cls-5" cx="91.7" cy="259.08" r="3.72"/>
      <text/>
      <circle class="cls-5" cx="136.7" cy="250.08" r="3.72"/>
      <text/>
    </g>
    <polyline class="cls-7" points="36.07 396.86 57.44 364.54 182.44 365.54 162.44 396.54"/>
    <polygon class="cls-7" points="161.07 279.86 181.66 250.46 180.6 368.05 160.45 397.07 161.07 279.86"/>
    <circle class="cls-5" cx="182.07" cy="364.86" r="7.75"/>
    <text class="cls-1" transform="translate(179.13 368.05)"><tspan x="0" y="0">H</tspan></text>
    <circle class="cls-5" cx="56.07" cy="364.86" r="7.75"/>
    <text class="cls-2" transform="translate(53.63 368.4)"><tspan x="0" y="0">F</tspan></text>
    <rect class="cls-7" x="37.94" y="281.04" width="124" height="115"/>
    <rect class="cls-9" x="36.44" y="279.54" width="126" height="117"/>
    <circle class="cls-5" cx="57.19" cy="248.29" r="7.75"/>
    <text class="cls-2" transform="translate(54.73 251.83)"><tspan x="0" y="0">E</tspan></text>
    <circle class="cls-5" cx="181.07" cy="247.86" r="7.75"/>
    <text class="cls-1" transform="translate(178.16 251.05)"><tspan x="0" y="0">G</tspan></text>
    <circle class="cls-5" cx="37.19" cy="280.29" r="7.75"/>
    <text class="cls-2" transform="translate(34.13 283.83)"><tspan x="0" y="0">A</tspan></text>
    <circle class="cls-5" cx="162.07" cy="396.86" r="7.75"/>
    <text class="cls-2" transform="translate(159.17 400.4)"><tspan x="0" y="0">C</tspan></text>
    <circle class="cls-5" cx="36.07" cy="396.86" r="7.75"/>
    <text class="cls-2" transform="translate(33.36 400.4)"><tspan x="0" y="0">B</tspan></text>
    <circle class="cls-5" cx="161.07" cy="279.86" r="7.75"/>
    <text class="cls-1" transform="translate(158.07 283.05)"><tspan x="0" y="0">D</tspan></text>
  </g>
  <g>
    <polyline class="cls-7" points="368.57 241.44 368.57 241.44 370.07 356.94 347.62 389.58 349.07 271.94 370.57 241.44"/>
    <polygon class="cls-7" points="370.1 242.07 370.1 357.07 496.1 358.07 494.13 241.03 450.36 243 444.71 250.26 412.71 250.26 412.1 242.07 370.1 242.07"/>
    <line class="cls-9" x1="412.1" y1="242.07" x2="370.07" y2="241.94"/>
    <line class="cls-9" x1="472.07" y1="271.94" x2="495.07" y2="241.94"/>
    <line class="cls-9" x1="476.07" y1="391.94" x2="496.07" y2="357.94"/>
    <line class="cls-9" x1="495.07" y1="241.94" x2="495.07" y2="357.94"/>
    <line class="cls-10" x1="370.07" y1="241.94" x2="370.07" y2="356.94"/>
    <line class="cls-9" x1="348.83" y1="271.39" x2="371.83" y2="241.39"/>
    <line class="cls-10" x1="495.07" y1="356.94" x2="368.07" y2="356.94"/>
    <polyline class="cls-10" points="370.07 356.94 350.07 387.94 370.07 356.94"/>
    <line class="cls-9" x1="492.44" y1="242.54" x2="450.41" y2="242.42"/>
    <g>
      <line class="cls-9" x1="443.3" y1="288.96" x2="449.22" y2="278.89"/>
      <line class="cls-9" x1="449.18" y1="242.63" x2="448.93" y2="278.89"/>
      <line class="cls-10" x1="412.1" y1="247.07" x2="412.18" y2="277.63"/>
      <line class="cls-10" x1="448.93" y1="278.59" x2="411.29" y2="278.59"/>
      <polyline class="cls-10" points="411.88 278.59 405.96 287.78 411.88 278.59"/>
      <rect class="cls-9" x="405.66" y="249.63" width="37.34" height="38.44"/>
      <circle class="cls-5" cx="450.33" cy="278.49" r="3.72"/>
      <text/>
      <circle class="cls-5" cx="442.33" cy="288.49" r="3.72"/>
      <text/>
      <circle class="cls-5" cx="405.33" cy="289.49" r="3.72"/>
      <text/>
      <circle class="cls-5" cx="412.33" cy="278.49" r="3.72"/>
      <text/>
      <path class="cls-7" d="M349.07,271.94l125.5,1.5,20.5-31.5h-44.01c-2.28,3.01-4.55,6.02-6.83,9.03-12.97-.3-25.93-.59-38.9-.89l6.74-8.14-41.5-.5-21.5,30.5Z"/>
      <line class="cls-9" x1="404.59" y1="250.24" x2="411.4" y2="241.35"/>
      <line class="cls-9" x1="443.11" y1="250.4" x2="449.93" y2="241.51"/>
      <circle class="cls-5" cx="411.83" cy="241.25" r="3.72"/>
      <text/>
      <circle class="cls-5" cx="442.33" cy="249.49" r="3.72"/>
      <text/>
      <circle class="cls-5" cx="404.33" cy="249.49" r="3.72"/>
      <text/>
      <circle class="cls-5" cx="449.33" cy="241.49" r="3.72"/>
      <text/>
    </g>
    <polyline class="cls-7" points="348.7 389.26 370.07 356.94 495.07 357.94 475.07 388.94"/>
    <polygon class="cls-7" points="473.7 272.26 494.29 242.87 493.23 360.46 473.08 389.47 473.7 272.26"/>
    <circle class="cls-5" cx="494.7" cy="357.26" r="7.75"/>
    <text class="cls-1" transform="translate(491.77 360.46)"><tspan x="0" y="0">H</tspan></text>
    <circle class="cls-5" cx="368.7" cy="357.26" r="7.75"/>
    <text class="cls-2" transform="translate(366.27 360.81)"><tspan x="0" y="0">F</tspan></text>
    <rect class="cls-7" x="350.57" y="273.44" width="124" height="115"/>
    <rect class="cls-9" x="349.07" y="271.94" width="126" height="117"/>
    <circle class="cls-5" cx="369.82" cy="240.69" r="7.75"/>
    <text class="cls-2" transform="translate(367.36 244.24)"><tspan x="0" y="0">E</tspan></text>
    <circle class="cls-5" cx="493.7" cy="240.26" r="7.75"/>
    <text class="cls-1" transform="translate(490.79 243.46)"><tspan x="0" y="0">G</tspan></text>
    <circle class="cls-5" cx="349.82" cy="272.69" r="7.75"/>
    <text class="cls-2" transform="translate(346.76 276.24)"><tspan x="0" y="0">A</tspan></text>
    <circle class="cls-5" cx="474.7" cy="389.26" r="7.75"/>
    <text class="cls-2" transform="translate(471.8 392.81)"><tspan x="0" y="0">C</tspan></text>
    <circle class="cls-5" cx="348.7" cy="389.26" r="7.75"/>
    <text class="cls-2" transform="translate(345.99 392.81)"><tspan x="0" y="0">B</tspan></text>
    <circle class="cls-5" cx="473.7" cy="272.26" r="7.75"/>
    <text class="cls-1" transform="translate(470.7 275.46)"><tspan x="0" y="0">D</tspan></text>
  </g>
  <g>
    <g>
      <line class="cls-8" x1="202.68" y1="215.63" x2="310.34" y2="215.63"/>
      <polygon class="cls-11" points="306.2 229.77 330.68 215.63 306.2 201.5 306.2 229.77"/>
    </g>
    <text class="cls-3" transform="translate(226.87 213.09)"><tspan class="cls-6" x="0" y="0">B</tspan><tspan x="4.91" y="0">oolean union</tspan></text>
  </g>
</svg>