<?xml version="1.0" encoding="UTF-8"?>
<svg id="Shell" xmlns="http://www.w3.org/2000/svg" viewBox="0 0 639 736">
  <defs>
    <style>
      .cls-1, .cls-2, .cls-3, .cls-4, .cls-5 {
        font-family: MyriadPro-Regular, 'Myriad Pro';
      }

      .cls-1, .cls-2, .cls-4 {
        font-size: 9px;
      }

      .cls-1, .cls-3 {
        fill: #fff;
      }

      .cls-2, .cls-6 {
        fill: #c92027;
      }

      .cls-7 {
        letter-spacing: 0em;
      }

      .cls-8, .cls-4, .cls-5 {
        fill: #231f20;
      }

      .cls-9 {
        letter-spacing: 0em;
      }

      .cls-10 {
        letter-spacing: 0em;
      }

      .cls-11 {
        letter-spacing: 0em;
      }

      .cls-12 {
        fill: #6dbae7;
        opacity: .31;
      }

      .cls-13 {
        letter-spacing: -.02em;
      }

      .cls-14 {
        stroke: #9b9a9a;
      }

      .cls-14, .cls-15, .cls-16, .cls-17, .cls-18 {
        fill: none;
        stroke-miterlimit: 10;
      }

      .cls-14, .cls-15, .cls-17 {
        stroke-width: 2.83px;
      }

      .cls-19 {
        letter-spacing: -.01em;
      }

      .cls-20 {
        fill: #9b9a9a;
      }

      .cls-21 {
        letter-spacing: -.01em;
      }

      .cls-15, .cls-16, .cls-17 {
        stroke: #437898;
      }

      .cls-3 {
        font-size: 10px;
      }

      .cls-5 {
        font-size: 48px;
      }

      .cls-22 {
        letter-spacing: 0em;
      }

      .cls-23 {
        letter-spacing: -.01em;
      }

      .cls-24 {
        letter-spacing: 0em;
      }

      .cls-16 {
        stroke-width: 2.83px;
      }

      .cls-16, .cls-17 {
        stroke-dasharray: 5.67;
      }

      .cls-25 {
        letter-spacing: .02em;
      }

      .cls-26 {
        letter-spacing: -.04em;
      }

      .cls-18 {
        stroke: #c92027;
        stroke-width: 2px;
      }

      .cls-27 {
        letter-spacing: 0em;
      }
    </style>
  </defs>
  <g>
    <polyline class="cls-12" points="83.64 43.1 116.91 125.13 81.53 158.92 166.65 146.46 121.65 126.87 169.89 117.96 194.44 143.33 188.44 91.33 169.61 113.98 81.43 43.78"/>
    <polyline class="cls-12" points="123.15 23.96 150.65 47.46 216.63 61.83 195.61 37 154.19 46.67 162.14 20.85"/>
    <line class="cls-15" x1="216.89" y1="64.6" x2="198.89" y2="40.6"/>
    <line class="cls-15" x1="123.15" y1="23.96" x2="151.15" y2="47.96"/>
    <line class="cls-15" x1="163.65" y1="19.46" x2="122.65" y2="23.46"/>
    <line class="cls-15" x1="150.65" y1="47.46" x2="164.65" y2="18.46"/>
    <line class="cls-15" x1="195.65" y1="37.46" x2="150.65" y2="47.46"/>
    <line class="cls-15" x1="216.65" y1="61.46" x2="150.65" y2="47.46"/>
    <line class="cls-15" x1="188.65" y1="91.46" x2="169.65" y2="117.46"/>
    <line class="cls-15" x1="196.65" y1="144.46" x2="188.65" y2="91.46"/>
    <line class="cls-15" x1="169.65" y1="117.46" x2="196.65" y2="144.46"/>
    <line class="cls-15" x1="166.65" y1="146.46" x2="116.65" y2="125.46"/>
    <line class="cls-15" x1="79.65" y1="162.46" x2="163.65" y2="145.46"/>
    <line class="cls-15" x1="118.65" y1="124.46" x2="79.65" y2="162.46"/>
    <line class="cls-15" x1="81.65" y1="43.46" x2="169.65" y2="116.46"/>
    <line class="cls-15" x1="116.65" y1="125.46" x2="81.65" y2="43.46"/>
    <line class="cls-15" x1="169.65" y1="117.46" x2="118.65" y2="127.46"/>
    <circle class="cls-8" cx="82.64" cy="42.35" r="7.75"/>
    <text class="cls-3" transform="translate(79.58 45.9)"><tspan x="0" y="0">A</tspan></text>
    <circle class="cls-8" cx="118.53" cy="124.92" r="7.75"/>
    <text class="cls-3" transform="translate(115.63 128.47)"><tspan x="0" y="0">C</tspan></text>
    <circle class="cls-8" cx="81.53" cy="158.92" r="7.75"/>
    <text class="cls-3" transform="translate(78.82 162.47)"><tspan x="0" y="0">B</tspan></text>
    <circle class="cls-8" cx="151.53" cy="47.92" r="7.75"/>
    <text class="cls-1" transform="translate(148.53 51.11)"><tspan x="0" y="0">D</tspan></text>
    <circle class="cls-8" cx="188.44" cy="91.33" r="7.75"/>
    <text class="cls-3" transform="translate(185.21 94.88)"><tspan x="0" y="0">G</tspan></text>
    <circle class="cls-8" cx="194.44" cy="143.33" r="7.75"/>
    <text class="cls-1" transform="translate(193.36 146.53)"><tspan x="0" y="0">I</tspan></text>
    <circle class="cls-8" cx="217.44" cy="61.33" r="7.75"/>
    <text class="cls-3" transform="translate(215 64.88)"><tspan x="0" y="0">F</tspan></text>
    <circle class="cls-8" cx="196.44" cy="37.33" r="7.75"/>
    <text class="cls-3" transform="translate(193.98 40.88)"><tspan x="0" y="0">E</tspan></text>
    <circle class="cls-8" cx="162.14" cy="20.85" r="7.75"/>
    <text class="cls-1" transform="translate(160.02 24.04)"><tspan x="0" y="0">L</tspan></text>
    <circle class="cls-8" cx="123.14" cy="23.85" r="7.75"/>
    <text class="cls-1" transform="translate(120.7 27.04)"><tspan x="0" y="0">K</tspan></text>
    <circle class="cls-8" cx="166.14" cy="144.85" r="7.75"/>
    <text class="cls-1" transform="translate(164.48 148.04)"><tspan x="0" y="0">J</tspan></text>
    <circle class="cls-8" cx="168.14" cy="116.85" r="7.75"/>
    <text class="cls-1" transform="translate(165.21 120.04)"><tspan x="0" y="0">H</tspan></text>
  </g>
  <g>
    <g>
      <line class="cls-14" x1="248.15" y1="88.46" x2="355.81" y2="88.46"/>
      <polygon class="cls-20" points="351.67 102.59 376.15 88.46 351.67 74.32 351.67 102.59"/>
    </g>
    <text class="cls-4" transform="translate(277.94 85.91)"><tspan class="cls-27" x="0" y="0">A</tspan><tspan x="5.48" y="0">lpha</tspan><tspan class="cls-26" x="22.06" y="0"> </tspan><tspan class="cls-13" x="23.64" y="0">W</tspan><tspan class="cls-10" x="31.11" y="0">r</tspan><tspan x="34.01" y="0">ap </tspan><tspan x="-1.62" y="10.8">on pol</tspan><tspan class="cls-24" x="22.41" y="10.8">y</tspan><tspan x="26.56" y="10.8">gons</tspan></text>
  </g>
  <g>
    <polygon class="cls-12" points="392.84 156.63 394.59 39.21 437.11 19.02 473.1 16.02 530.79 59.88 504.65 139.46 478.65 142.46 392.84 156.63"/>
    <line class="cls-16" x1="393.65" y1="155.46" x2="428.65" y2="123.46"/>
    <line class="cls-16" x1="395.65" y1="41.46" x2="429.65" y2="122.46"/>
    <line class="cls-16" x1="474.65" y1="140.46" x2="431.65" y2="123.46"/>
    <line class="cls-16" x1="504.65" y1="139.46" x2="501.65" y2="90.46"/>
    <line class="cls-16" x1="480.65" y1="139.46" x2="501.65" y2="90.46"/>
    <line class="cls-16" x1="429.65" y1="122.46" x2="497.65" y2="89.46"/>
    <line class="cls-16" x1="460.65" y1="49.46" x2="499.65" y2="89.46"/>
    <line class="cls-16" x1="396.65" y1="43.46" x2="460.65" y2="49.46"/>
    <line class="cls-16" x1="436.65" y1="25.46" x2="460.65" y2="49.46"/>
    <line class="cls-16" x1="471.65" y1="21.46" x2="460.65" y2="49.46"/>
    <line class="cls-16" x1="530.65" y1="56.46" x2="464.65" y2="48.46"/>
    <line class="cls-16" x1="499.65" y1="43.46" x2="530.65" y2="56.46"/>
    <line class="cls-16" x1="473.65" y1="26.46" x2="499.65" y2="43.46"/>
    <line class="cls-16" x1="463.65" y1="46.46" x2="499.65" y2="46.46"/>
    <circle class="cls-8" cx="499.31" cy="40.17" r="7.75"/>
    <text class="cls-3" transform="translate(496.85 43.72)"><tspan x="0" y="0">E</tspan></text>
    <circle class="cls-8" cx="500.05" cy="89.38" r="7.75"/>
    <text class="cls-3" transform="translate(496.82 92.93)"><tspan x="0" y="0">G</tspan></text>
    <line class="cls-15" x1="478.65" y1="112.46" x2="530.65" y2="56.46"/>
    <circle class="cls-8" cx="430.14" cy="122.96" r="7.75"/>
    <text class="cls-3" transform="translate(427.24 126.51)"><tspan x="0" y="0">C</tspan></text>
    <circle class="cls-8" cx="463.14" cy="45.96" r="7.75"/>
    <text class="cls-1" transform="translate(460.14 49.16)"><tspan x="0" y="0">D</tspan></text>
    <polygon class="cls-12" points="394.15 158.09 395.9 40.67 438.42 20.48 474.4 17.48 532.1 61.34 505.96 140.92 479.96 143.92 394.15 158.09"/>
    <line class="cls-15" x1="472.65" y1="18.46" x2="530.65" y2="56.46"/>
    <line class="cls-15" x1="395.65" y1="41.46" x2="392.65" y2="159.46"/>
    <line class="cls-15" x1="478.65" y1="144.46" x2="392.65" y2="159.46"/>
    <line class="cls-15" x1="478.65" y1="114.46" x2="478.65" y2="144.46"/>
    <line class="cls-15" x1="392.65" y1="157.46" x2="478.65" y2="112.46"/>
    <line class="cls-15" x1="393.65" y1="41.46" x2="478.65" y2="112.46"/>
    <line class="cls-15" x1="506.65" y1="138.46" x2="477.65" y2="142.46"/>
    <line class="cls-15" x1="530.65" y1="56.46" x2="506.65" y2="138.46"/>
    <line class="cls-15" x1="478.65" y1="142.46" x2="530.65" y2="56.46"/>
    <line class="cls-15" x1="392.65" y1="43.46" x2="472.65" y2="18.46"/>
    <line class="cls-15" x1="477.65" y1="109.46" x2="472.65" y2="18.46"/>
    <line class="cls-15" x1="393.65" y1="41.46" x2="433.65" y2="21.46"/>
    <line class="cls-15" x1="472.65" y1="18.46" x2="433.65" y2="19.46"/>
    <circle class="cls-8" cx="394.25" cy="40.39" r="7.75"/>
    <text class="cls-3" transform="translate(391.19 43.94)"><tspan x="0" y="0">A</tspan></text>
    <circle class="cls-8" cx="393.14" cy="156.96" r="7.75"/>
    <text class="cls-3" transform="translate(390.43 160.51)"><tspan x="0" y="0">B</tspan></text>
    <circle class="cls-8" cx="506.05" cy="141.38" r="7.75"/>
    <text class="cls-1" transform="translate(504.97 144.57)"><tspan x="0" y="0">I</tspan></text>
    <circle class="cls-8" cx="529.05" cy="59.38" r="7.75"/>
    <text class="cls-3" transform="translate(526.61 62.93)"><tspan x="0" y="0">F</tspan></text>
    <circle class="cls-8" cx="473.75" cy="18.89" r="7.75"/>
    <text class="cls-1" transform="translate(471.63 22.09)"><tspan x="0" y="0">L</tspan></text>
    <circle class="cls-8" cx="434.75" cy="21.89" r="7.75"/>
    <text class="cls-1" transform="translate(432.31 25.09)"><tspan x="0" y="0">K</tspan></text>
    <circle class="cls-8" cx="477.75" cy="142.89" r="7.75"/>
    <text class="cls-1" transform="translate(476.09 146.09)"><tspan x="0" y="0">J</tspan></text>
    <circle class="cls-8" cx="479.75" cy="114.89" r="7.75"/>
    <text class="cls-1" transform="translate(476.82 118.09)"><tspan x="0" y="0">H</tspan></text>
  </g>
  <text class="cls-5" transform="translate(17.71 109.23)"><tspan x="0" y="0">1</tspan></text>
  <g>
    <circle class="cls-8" cx="83.54" cy="221.84" r="7.75"/>
    <text class="cls-3" transform="translate(80.48 225.39)"><tspan x="0" y="0">A</tspan></text>
    <circle class="cls-8" cx="119.42" cy="304.41" r="7.75"/>
    <text class="cls-3" transform="translate(116.52 307.96)"><tspan x="0" y="0">C</tspan></text>
    <circle class="cls-8" cx="82.42" cy="338.41" r="7.75"/>
    <text class="cls-3" transform="translate(79.71 341.96)"><tspan x="0" y="0">B</tspan></text>
    <circle class="cls-8" cx="152.42" cy="227.41" r="7.75"/>
    <text class="cls-1" transform="translate(149.42 230.6)"><tspan x="0" y="0">D</tspan></text>
    <circle class="cls-8" cx="189.33" cy="270.82" r="7.75"/>
    <text class="cls-3" transform="translate(186.1 274.37)"><tspan x="0" y="0">G</tspan></text>
    <circle class="cls-8" cx="195.33" cy="322.82" r="7.75"/>
    <text class="cls-1" transform="translate(194.26 326.02)"><tspan x="0" y="0">I</tspan></text>
    <circle class="cls-8" cx="218.33" cy="240.82" r="7.75"/>
    <text class="cls-3" transform="translate(215.9 244.37)"><tspan x="0" y="0">F</tspan></text>
    <circle class="cls-8" cx="197.33" cy="216.82" r="7.75"/>
    <text class="cls-3" transform="translate(194.87 220.37)"><tspan x="0" y="0">E</tspan></text>
    <circle class="cls-8" cx="163.04" cy="200.34" r="7.75"/>
    <text class="cls-1" transform="translate(160.91 203.53)"><tspan x="0" y="0">L</tspan></text>
    <circle class="cls-8" cx="124.04" cy="203.34" r="7.75"/>
    <text class="cls-1" transform="translate(121.6 206.53)"><tspan x="0" y="0">K</tspan></text>
    <circle class="cls-8" cx="167.04" cy="324.34" r="7.75"/>
    <text class="cls-1" transform="translate(165.37 327.53)"><tspan x="0" y="0">J</tspan></text>
    <circle class="cls-8" cx="169.04" cy="296.34" r="7.75"/>
    <text class="cls-1" transform="translate(166.1 299.53)"><tspan x="0" y="0">H</tspan></text>
  </g>
  <g>
    <g>
      <line class="cls-14" x1="249.04" y1="267.95" x2="356.7" y2="267.95"/>
      <polygon class="cls-20" points="352.57 282.08 377.04 267.95 352.57 253.81 352.57 282.08"/>
    </g>
    <text class="cls-4" transform="translate(278.83 265.4)"><tspan class="cls-27" x="0" y="0">A</tspan><tspan x="5.48" y="0">lpha</tspan><tspan class="cls-26" x="22.06" y="0"> </tspan><tspan class="cls-13" x="23.64" y="0">W</tspan><tspan class="cls-10" x="31.11" y="0">r</tspan><tspan x="34.01" y="0">ap</tspan><tspan x="3.98" y="10.8">on poi</tspan><tspan class="cls-7" x="27.99" y="10.8">n</tspan><tspan x="32.95" y="10.8">ts</tspan></text>
  </g>
  <g>
    <polygon class="cls-12" points="393.74 336.12 395.48 218.7 438.01 198.51 473.99 195.51 531.68 239.37 505.54 318.95 479.54 321.95 393.74 336.12"/>
    <line class="cls-16" x1="394.54" y1="334.95" x2="429.54" y2="302.95"/>
    <line class="cls-16" x1="396.54" y1="220.95" x2="430.54" y2="301.95"/>
    <line class="cls-16" x1="475.54" y1="319.95" x2="432.54" y2="302.95"/>
    <line class="cls-16" x1="505.54" y1="318.95" x2="502.54" y2="269.95"/>
    <line class="cls-16" x1="481.54" y1="318.95" x2="502.54" y2="269.95"/>
    <line class="cls-16" x1="430.54" y1="301.95" x2="498.54" y2="268.95"/>
    <line class="cls-16" x1="461.54" y1="228.95" x2="500.54" y2="268.95"/>
    <line class="cls-16" x1="397.54" y1="222.95" x2="461.54" y2="228.95"/>
    <line class="cls-16" x1="437.54" y1="204.95" x2="497.5" y2="222.5"/>
    <line class="cls-16" x1="472.54" y1="200.95" x2="496.5" y2="219.5"/>
    <line class="cls-16" x1="531.54" y1="235.95" x2="497.5" y2="222.5"/>
    <line class="cls-16" x1="498.5" y1="225.5" x2="500.5" y2="263.5"/>
    <line class="cls-16" x1="465.5" y1="225.5" x2="499.5" y2="222.5"/>
    <circle class="cls-8" cx="500.2" cy="219.66" r="7.75"/>
    <text class="cls-3" transform="translate(497.74 223.21)"><tspan x="0" y="0">E</tspan></text>
    <circle class="cls-8" cx="500.94" cy="268.87" r="7.75"/>
    <text class="cls-3" transform="translate(497.71 272.42)"><tspan x="0" y="0">G</tspan></text>
    <line class="cls-15" x1="479.54" y1="291.95" x2="531.54" y2="235.95"/>
    <circle class="cls-8" cx="431.03" cy="302.45" r="7.75"/>
    <text class="cls-3" transform="translate(428.13 306)"><tspan x="0" y="0">C</tspan></text>
    <circle class="cls-8" cx="464.03" cy="225.45" r="7.75"/>
    <text class="cls-1" transform="translate(461.03 228.65)"><tspan x="0" y="0">D</tspan></text>
    <polygon class="cls-12" points="395 337.58 396.75 220.16 439.27 199.97 475.25 196.97 532.95 240.83 506.81 320.41 480.81 323.41 395 337.58"/>
    <line class="cls-15" x1="473.54" y1="197.95" x2="531.54" y2="235.95"/>
    <line class="cls-15" x1="396.54" y1="220.95" x2="393.54" y2="338.95"/>
    <line class="cls-15" x1="479.54" y1="323.95" x2="393.54" y2="338.95"/>
    <line class="cls-15" x1="479.54" y1="293.95" x2="479.54" y2="323.95"/>
    <line class="cls-15" x1="393.54" y1="336.95" x2="479.54" y2="291.95"/>
    <line class="cls-15" x1="470.5" y1="198.5" x2="394.5" y2="336.5"/>
    <line class="cls-15" x1="507.54" y1="317.95" x2="478.54" y2="321.95"/>
    <line class="cls-15" x1="531.54" y1="235.95" x2="507.54" y2="317.95"/>
    <line class="cls-15" x1="482.5" y1="297.5" x2="506.5" y2="315.5"/>
    <line class="cls-15" x1="393.54" y1="222.95" x2="473.54" y2="197.95"/>
    <line class="cls-15" x1="478.54" y1="288.95" x2="473.54" y2="197.95"/>
    <line class="cls-15" x1="394.54" y1="220.95" x2="434.54" y2="200.95"/>
    <line class="cls-15" x1="473.54" y1="197.95" x2="434.54" y2="198.95"/>
    <circle class="cls-8" cx="395.15" cy="219.88" r="7.75"/>
    <text class="cls-3" transform="translate(392.09 223.43)"><tspan x="0" y="0">A</tspan></text>
    <circle class="cls-8" cx="394.03" cy="336.45" r="7.75"/>
    <text class="cls-3" transform="translate(391.32 340)"><tspan x="0" y="0">B</tspan></text>
    <circle class="cls-8" cx="506.94" cy="320.87" r="7.75"/>
    <text class="cls-1" transform="translate(505.87 324.06)"><tspan x="0" y="0">I</tspan></text>
    <circle class="cls-8" cx="529.94" cy="238.87" r="7.75"/>
    <text class="cls-3" transform="translate(527.51 242.42)"><tspan x="0" y="0">F</tspan></text>
    <circle class="cls-8" cx="474.65" cy="198.38" r="7.75"/>
    <text class="cls-1" transform="translate(472.52 201.58)"><tspan x="0" y="0">L</tspan></text>
    <circle class="cls-8" cx="435.65" cy="201.38" r="7.75"/>
    <text class="cls-1" transform="translate(433.21 204.58)"><tspan x="0" y="0">K</tspan></text>
    <circle class="cls-8" cx="478.65" cy="322.38" r="7.75"/>
    <text class="cls-1" transform="translate(476.98 325.58)"><tspan x="0" y="0">J</tspan></text>
    <circle class="cls-8" cx="480.65" cy="294.38" r="7.75"/>
    <text class="cls-1" transform="translate(477.71 297.58)"><tspan x="0" y="0">H</tspan></text>
  </g>
  <text class="cls-5" transform="translate(18.61 288.72)"><tspan x="0" y="0">2</tspan></text>
  <g>
    <polyline class="cls-12" points="85.54 408.12 118.8 490.15 83.42 523.94 168.54 511.48 123.54 491.89 171.79 482.98 196.33 508.36 190.33 456.36 171.51 479 83.33 408.8"/>
    <polyline class="cls-12" points="125.04 388.98 152.54 412.48 218.53 426.86 197.5 402.03 156.08 411.69 164.04 385.87"/>
    <line class="cls-15" x1="218.79" y1="429.62" x2="200.79" y2="405.62"/>
    <line class="cls-15" x1="125.04" y1="388.98" x2="153.04" y2="412.98"/>
    <line class="cls-15" x1="165.54" y1="384.48" x2="124.54" y2="388.48"/>
    <line class="cls-15" x1="152.54" y1="412.48" x2="166.54" y2="383.48"/>
    <line class="cls-15" x1="197.54" y1="402.48" x2="152.54" y2="412.48"/>
    <line class="cls-15" x1="218.54" y1="426.48" x2="152.54" y2="412.48"/>
    <line class="cls-15" x1="190.54" y1="456.48" x2="171.54" y2="482.48"/>
    <line class="cls-15" x1="198.54" y1="509.48" x2="190.54" y2="456.48"/>
    <line class="cls-15" x1="171.54" y1="482.48" x2="198.54" y2="509.48"/>
    <line class="cls-15" x1="168.54" y1="511.48" x2="118.54" y2="490.48"/>
    <line class="cls-15" x1="81.54" y1="527.48" x2="165.54" y2="510.48"/>
    <line class="cls-15" x1="120.54" y1="489.48" x2="81.54" y2="527.48"/>
    <line class="cls-15" x1="83.54" y1="408.48" x2="171.54" y2="481.48"/>
    <line class="cls-15" x1="118.54" y1="490.48" x2="83.54" y2="408.48"/>
    <line class="cls-15" x1="171.54" y1="482.48" x2="120.54" y2="492.48"/>
    <circle class="cls-8" cx="84.54" cy="407.37" r="7.75"/>
    <text class="cls-3" transform="translate(81.48 410.92)"><tspan x="0" y="0">A</tspan></text>
    <circle class="cls-8" cx="120.42" cy="489.94" r="7.75"/>
    <text class="cls-3" transform="translate(117.52 493.49)"><tspan x="0" y="0">C</tspan></text>
    <circle class="cls-8" cx="83.42" cy="523.94" r="7.75"/>
    <text class="cls-3" transform="translate(80.71 527.49)"><tspan x="0" y="0">B</tspan></text>
    <circle class="cls-8" cx="153.42" cy="412.94" r="7.75"/>
    <text class="cls-1" transform="translate(150.42 416.14)"><tspan x="0" y="0">D</tspan></text>
    <circle class="cls-8" cx="190.33" cy="456.36" r="7.75"/>
    <text class="cls-3" transform="translate(187.1 459.91)"><tspan x="0" y="0">G</tspan></text>
    <circle class="cls-8" cx="196.33" cy="508.36" r="7.75"/>
    <text class="cls-1" transform="translate(195.26 511.55)"><tspan x="0" y="0">I</tspan></text>
    <circle class="cls-8" cx="219.33" cy="426.36" r="7.75"/>
    <text class="cls-3" transform="translate(216.9 429.91)"><tspan x="0" y="0">F</tspan></text>
    <circle class="cls-8" cx="198.33" cy="402.36" r="7.75"/>
    <text class="cls-3" transform="translate(195.87 405.91)"><tspan x="0" y="0">E</tspan></text>
    <circle class="cls-8" cx="164.04" cy="385.87" r="7.75"/>
    <text class="cls-1" transform="translate(161.91 389.07)"><tspan x="0" y="0">L</tspan></text>
    <circle class="cls-8" cx="125.04" cy="388.87" r="7.75"/>
    <text class="cls-1" transform="translate(122.6 392.07)"><tspan x="0" y="0">K</tspan></text>
    <circle class="cls-8" cx="168.04" cy="509.87" r="7.75"/>
    <text class="cls-1" transform="translate(166.37 513.07)"><tspan x="0" y="0">J</tspan></text>
    <circle class="cls-8" cx="170.04" cy="481.87" r="7.75"/>
    <text class="cls-1" transform="translate(167.1 485.07)"><tspan x="0" y="0">H</tspan></text>
  </g>
  <g>
    <g>
      <line class="cls-14" x1="250.04" y1="453.48" x2="357.7" y2="453.48"/>
      <polygon class="cls-20" points="353.57 467.62 378.04 453.48 353.57 439.35 353.57 467.62"/>
    </g>
    <text class="cls-4" transform="translate(279.6 450.94)"><tspan class="cls-23" x="0" y="0">C</tspan><tspan x="5.12" y="0">o</tspan><tspan class="cls-19" x="10.06" y="0">n</tspan><tspan class="cls-24" x="14.94" y="0">v</tspan><tspan class="cls-27" x="19.18" y="0">e</tspan><tspan x="23.66" y="0">x hull</tspan></text>
  </g>
  <g>
    <polygon class="cls-12" points="394.74 521.65 396.48 404.23 439.01 384.04 474.99 381.04 532.68 424.9 506.54 504.48 480.54 507.48 394.74 521.65"/>
    <line class="cls-16" x1="395.54" y1="520.48" x2="430.54" y2="488.48"/>
    <line class="cls-16" x1="397.54" y1="406.48" x2="431.54" y2="487.48"/>
    <line class="cls-16" x1="506.54" y1="504.48" x2="503.54" y2="455.48"/>
    <line class="cls-16" x1="431.54" y1="487.48" x2="499.54" y2="454.48"/>
    <line class="cls-16" x1="500.5" y1="409.5" x2="501.54" y2="454.48"/>
    <line class="cls-16" x1="398.54" y1="408.48" x2="495.5" y2="408.5"/>
    <line class="cls-16" x1="438.54" y1="390.48" x2="499.5" y2="408.5"/>
    <line class="cls-16" x1="501.54" y1="408.48" x2="532.54" y2="421.48"/>
    <line class="cls-16" x1="475.54" y1="391.48" x2="501.54" y2="408.48"/>
    <circle class="cls-8" cx="501.2" cy="405.19" r="7.75"/>
    <text class="cls-3" transform="translate(498.74 408.74)"><tspan x="0" y="0">E</tspan></text>
    <circle class="cls-8" cx="501.94" cy="454.4" r="7.75"/>
    <text class="cls-3" transform="translate(498.71 457.95)"><tspan x="0" y="0">G</tspan></text>
    <line class="cls-15" x1="480.54" y1="477.48" x2="532.54" y2="421.48"/>
    <circle class="cls-8" cx="432.03" cy="487.99" r="7.75"/>
    <text class="cls-3" transform="translate(429.13 491.54)"><tspan x="0" y="0">C</tspan></text>
    <polygon class="cls-12" points="397 523.11 398.75 405.69 441.27 385.5 477.25 382.5 534.95 426.36 508.81 505.94 482.81 508.94 397 523.11"/>
    <line class="cls-15" x1="474.54" y1="383.48" x2="532.54" y2="421.48"/>
    <line class="cls-15" x1="397.54" y1="406.48" x2="394.54" y2="524.48"/>
    <line class="cls-15" x1="500.5" y1="505.5" x2="394.54" y2="524.48"/>
    <line class="cls-15" x1="480.54" y1="479.48" x2="503.5" y2="506.5"/>
    <line class="cls-15" x1="394.54" y1="522.48" x2="480.54" y2="477.48"/>
    <line class="cls-15" x1="395.54" y1="406.48" x2="480.54" y2="477.48"/>
    <line class="cls-15" x1="532.54" y1="421.48" x2="508.54" y2="503.48"/>
    <line class="cls-15" x1="394.54" y1="408.48" x2="474.54" y2="383.48"/>
    <line class="cls-15" x1="479.54" y1="474.48" x2="474.54" y2="383.48"/>
    <line class="cls-15" x1="395.54" y1="406.48" x2="435.54" y2="386.48"/>
    <line class="cls-15" x1="474.54" y1="383.48" x2="435.54" y2="384.48"/>
    <circle class="cls-8" cx="396.15" cy="405.42" r="7.75"/>
    <text class="cls-3" transform="translate(393.09 408.97)"><tspan x="0" y="0">A</tspan></text>
    <circle class="cls-8" cx="395.03" cy="521.99" r="7.75"/>
    <text class="cls-3" transform="translate(392.32 525.54)"><tspan x="0" y="0">B</tspan></text>
    <circle class="cls-8" cx="507.94" cy="506.4" r="7.75"/>
    <text class="cls-1" transform="translate(506.87 509.59)"><tspan x="0" y="0">I</tspan></text>
    <circle class="cls-8" cx="530.94" cy="424.4" r="7.75"/>
    <text class="cls-3" transform="translate(528.51 427.95)"><tspan x="0" y="0">F</tspan></text>
    <circle class="cls-8" cx="475.65" cy="383.92" r="7.75"/>
    <text class="cls-1" transform="translate(473.52 387.11)"><tspan x="0" y="0">L</tspan></text>
    <circle class="cls-8" cx="436.65" cy="386.92" r="7.75"/>
    <text class="cls-1" transform="translate(434.21 390.11)"><tspan x="0" y="0">K</tspan></text>
    <circle class="cls-8" cx="481.65" cy="479.92" r="7.75"/>
    <text class="cls-1" transform="translate(478.71 483.11)"><tspan x="0" y="0">H</tspan></text>
  </g>
  <text class="cls-5" transform="translate(19.61 474.25)"><tspan x="0" y="0">3</tspan></text>
  <g>
    <polyline class="cls-12" points="85.54 586.23 118.8 668.26 83.42 702.05 168.54 689.59 123.54 670 171.79 661.09 196.33 686.46 190.33 634.46 171.51 657.11 83.33 586.91"/>
    <polyline class="cls-12" points="125.04 567.09 152.54 590.59 218.53 604.96 197.5 580.13 156.08 589.8 164.04 563.98"/>
    <line class="cls-15" x1="218.79" y1="607.73" x2="200.79" y2="583.73"/>
    <line class="cls-15" x1="125.04" y1="567.09" x2="153.04" y2="591.09"/>
    <line class="cls-15" x1="165.54" y1="562.59" x2="124.54" y2="566.59"/>
    <line class="cls-15" x1="152.54" y1="590.59" x2="166.54" y2="561.59"/>
    <line class="cls-15" x1="197.54" y1="580.59" x2="152.54" y2="590.59"/>
    <line class="cls-15" x1="218.54" y1="604.59" x2="152.54" y2="590.59"/>
    <line class="cls-15" x1="190.54" y1="634.59" x2="171.54" y2="660.59"/>
    <line class="cls-15" x1="198.54" y1="687.59" x2="190.54" y2="634.59"/>
    <line class="cls-15" x1="171.54" y1="660.59" x2="198.54" y2="687.59"/>
    <line class="cls-15" x1="168.54" y1="689.59" x2="118.54" y2="668.59"/>
    <line class="cls-15" x1="81.54" y1="705.59" x2="165.54" y2="688.59"/>
    <line class="cls-15" x1="120.54" y1="667.59" x2="81.54" y2="705.59"/>
    <line class="cls-15" x1="83.54" y1="586.59" x2="171.54" y2="659.59"/>
    <line class="cls-15" x1="118.54" y1="668.59" x2="83.54" y2="586.59"/>
    <line class="cls-15" x1="171.54" y1="660.59" x2="120.54" y2="670.59"/>
    <circle class="cls-8" cx="84.54" cy="585.48" r="7.75"/>
    <text class="cls-3" transform="translate(81.48 589.03)"><tspan x="0" y="0">A</tspan></text>
    <circle class="cls-8" cx="120.42" cy="668.05" r="7.75"/>
    <text class="cls-3" transform="translate(117.52 671.6)"><tspan x="0" y="0">C</tspan></text>
    <circle class="cls-8" cx="83.42" cy="702.05" r="7.75"/>
    <text class="cls-3" transform="translate(80.71 705.6)"><tspan x="0" y="0">B</tspan></text>
    <circle class="cls-8" cx="153.42" cy="591.05" r="7.75"/>
    <text class="cls-1" transform="translate(150.42 594.24)"><tspan x="0" y="0">D</tspan></text>
    <circle class="cls-8" cx="190.33" cy="634.46" r="7.75"/>
    <text class="cls-3" transform="translate(187.1 638.01)"><tspan x="0" y="0">G</tspan></text>
    <circle class="cls-8" cx="196.33" cy="686.46" r="7.75"/>
    <text class="cls-1" transform="translate(195.26 689.66)"><tspan x="0" y="0">I</tspan></text>
    <circle class="cls-8" cx="219.33" cy="604.46" r="7.75"/>
    <text class="cls-3" transform="translate(216.9 608.01)"><tspan x="0" y="0">F</tspan></text>
    <circle class="cls-8" cx="198.33" cy="580.46" r="7.75"/>
    <text class="cls-3" transform="translate(195.87 584.01)"><tspan x="0" y="0">E</tspan></text>
    <circle class="cls-8" cx="164.04" cy="563.98" r="7.75"/>
    <text class="cls-1" transform="translate(161.91 567.17)"><tspan x="0" y="0">L</tspan></text>
    <circle class="cls-8" cx="125.04" cy="566.98" r="7.75"/>
    <text class="cls-1" transform="translate(122.6 570.17)"><tspan x="0" y="0">K</tspan></text>
    <circle class="cls-8" cx="168.04" cy="687.98" r="7.75"/>
    <text class="cls-1" transform="translate(166.37 691.17)"><tspan x="0" y="0">J</tspan></text>
    <circle class="cls-8" cx="170.04" cy="659.98" r="7.75"/>
    <text class="cls-1" transform="translate(167.1 663.17)"><tspan x="0" y="0">H</tspan></text>
  </g>
  <g>
    <g>
      <line class="cls-14" x1="250.04" y1="631.59" x2="357.7" y2="631.59"/>
      <polygon class="cls-20" points="353.57 645.72 378.04 631.59 353.57 617.45 353.57 645.72"/>
    </g>
    <text class="cls-4" transform="translate(275.05 629.04)"><tspan class="cls-11" x="0" y="0">B</tspan><tspan x="4.91" y="0">ounding b</tspan><tspan class="cls-21" x="44.05" y="0">o</tspan><tspan x="48.86" y="0">x</tspan></text>
  </g>
  <text class="cls-5" transform="translate(19.61 652.36)"><tspan x="0" y="0">4</tspan></text>
  <g>
    <rect class="cls-12" x="410.49" y="557.34" width="124" height="115"/>
    <polyline class="cls-12" points="408.49 557.34 408.49 557.34 409.99 672.84 387.54 705.48 388.99 587.84 410.49 557.34"/>
    <line class="cls-15" x1="534.99" y1="557.84" x2="409.99" y2="557.84"/>
    <line class="cls-15" x1="511.99" y1="587.84" x2="534.99" y2="557.84"/>
    <line class="cls-15" x1="515.99" y1="707.84" x2="535.99" y2="673.84"/>
    <line class="cls-15" x1="534.99" y1="557.84" x2="534.99" y2="673.84"/>
    <line class="cls-17" x1="409.99" y1="557.84" x2="409.99" y2="672.84"/>
    <line class="cls-15" x1="388.76" y1="587.29" x2="411.76" y2="557.29"/>
    <line class="cls-17" x1="534.99" y1="672.84" x2="407.99" y2="672.84"/>
    <polyline class="cls-17" points="409.99 672.84 389.99 703.84 409.99 672.84"/>
    <polygon class="cls-12" points="409.99 557.84 390.08 587.4 513.63 588.16 535.26 556.8 409.99 557.84"/>
    <polyline class="cls-12" points="388.63 705.16 409.99 672.84 534.99 673.84 514.99 704.84"/>
    <polygon class="cls-12" points="513.63 588.16 534.21 558.77 533.16 676.35 513.01 705.37 513.63 588.16"/>
    <circle class="cls-8" cx="409.74" cy="556.59" r="7.75"/>
    <text class="cls-3" transform="translate(407.28 560.14)"><tspan x="0" y="0">E</tspan></text>
    <circle class="cls-8" cx="534.63" cy="673.16" r="7.75"/>
    <text class="cls-1" transform="translate(531.69 676.35)"><tspan x="0" y="0">H</tspan></text>
    <circle class="cls-8" cx="408.63" cy="673.16" r="7.75"/>
    <text class="cls-3" transform="translate(406.19 676.71)"><tspan x="0" y="0">F</tspan></text>
    <circle class="cls-8" cx="533.63" cy="556.16" r="7.75"/>
    <text class="cls-1" transform="translate(530.72 559.35)"><tspan x="0" y="0">G</tspan></text>
    <rect class="cls-12" x="390.49" y="589.34" width="124" height="115"/>
    <rect class="cls-15" x="388.99" y="587.84" width="126" height="117"/>
    <circle class="cls-8" cx="389.74" cy="588.59" r="7.75"/>
    <text class="cls-3" transform="translate(386.68 592.14)"><tspan x="0" y="0">A</tspan></text>
    <circle class="cls-8" cx="514.63" cy="705.16" r="7.75"/>
    <text class="cls-3" transform="translate(511.73 708.71)"><tspan x="0" y="0">C</tspan></text>
    <circle class="cls-8" cx="388.63" cy="705.16" r="7.75"/>
    <text class="cls-3" transform="translate(385.92 708.71)"><tspan x="0" y="0">B</tspan></text>
    <circle class="cls-8" cx="513.63" cy="588.16" r="7.75"/>
    <text class="cls-1" transform="translate(510.63 591.35)"><tspan x="0" y="0">D</tspan></text>
  </g>
  <g>
    <polyline class="cls-18" points="535.3 79.96 597 79.96 597 174.32 312.05 174.32 309.54 226.94"/>
    <polygon class="cls-6" points="302.41 220.98 309.66 224.47 317.21 221.68 308.98 238.87 302.41 220.98"/>
  </g>
  <g>
    <polyline class="cls-18" points="540.39 266.23 602.09 266.23 602.09 360.59 317.14 360.59 314.64 413.22"/>
    <polygon class="cls-6" points="307.51 407.25 314.75 410.75 322.3 407.96 314.07 425.14 307.51 407.25"/>
  </g>
  <g>
    <polyline class="cls-18" points="538.39 448.23 600.09 448.23 600.09 542.59 315.14 542.59 312.64 595.22"/>
    <polygon class="cls-6" points="305.51 589.25 312.75 592.75 320.3 589.96 312.07 607.14 305.51 589.25"/>
  </g>
  <text class="cls-2" transform="translate(550.45 76.45)"><tspan class="cls-22" x="0" y="0">I</tspan><tspan x="2.24" y="0">f i</tspan><tspan class="cls-19" x="8.88" y="0">n</tspan><tspan class="cls-9" x="13.76" y="0">v</tspan><tspan x="18.05" y="0">alid</tspan><tspan x="-2.59" y="10.8">geomet</tspan><tspan class="cls-25" x="26.88" y="10.8">r</tspan><tspan x="30.05" y="10.8">y</tspan></text>
  <text class="cls-2" transform="translate(553.45 262.33)"><tspan class="cls-22" x="0" y="0">I</tspan><tspan x="2.24" y="0">f i</tspan><tspan class="cls-19" x="8.88" y="0">n</tspan><tspan class="cls-9" x="13.76" y="0">v</tspan><tspan x="18.05" y="0">alid</tspan><tspan x="-2.59" y="10.8">geomet</tspan><tspan class="cls-25" x="26.88" y="10.8">r</tspan><tspan x="30.05" y="10.8">y</tspan></text>
  <text class="cls-2" transform="translate(553.45 444.56)"><tspan class="cls-22" x="0" y="0">I</tspan><tspan x="2.24" y="0">f i</tspan><tspan class="cls-19" x="8.88" y="0">n</tspan><tspan class="cls-9" x="13.76" y="0">v</tspan><tspan x="18.05" y="0">alid</tspan><tspan x="-2.59" y="10.8">geomet</tspan><tspan class="cls-25" x="26.88" y="10.8">r</tspan><tspan x="30.05" y="10.8">y</tspan></text>
</svg>