<?xml version="1.0" encoding="UTF-8"?>
<svg id="Polygon" xmlns="http://www.w3.org/2000/svg" viewBox="0 0 538.58 188.6">
  <defs>
    <style>
      .cls-1, .cls-2, .cls-3 {
        fill: #fff;
      }

      .cls-1, .cls-3, .cls-4, .cls-5 {
        font-family: MyriadPro-Regular, 'Myriad Pro';
      }

      .cls-1, .cls-4 {
        font-size: 9px;
      }

      .cls-6 {
        letter-spacing: -.01em;
      }

      .cls-7 {
        letter-spacing: 0em;
      }

      .cls-8 {
        letter-spacing: -.01em;
      }

      .cls-9, .cls-4, .cls-5 {
        fill: #231f20;
      }

      .cls-10 {
        fill: #6dbae7;
        opacity: .31;
      }

      .cls-11 {
        stroke: #9b9a9a;
      }

      .cls-11, .cls-12 {
        fill: none;
        stroke-miterlimit: 10;
        stroke-width: 2.83px;
      }

      .cls-13 {
        fill: #9b9a9a;
      }

      .cls-14 {
        letter-spacing: -.01em;
      }

      .cls-15 {
        letter-spacing: 0em;
      }

      .cls-16 {
        fill: #437898;
        opacity: .72;
      }

      .cls-12 {
        stroke: #437898;
      }

      .cls-3 {
        font-size: 10px;
      }

      .cls-17 {
        letter-spacing: 0em;
      }

      .cls-18 {
        letter-spacing: -.1em;
      }

      .cls-19 {
        letter-spacing: 0em;
      }

      .cls-5 {
        font-size: 15px;
      }

      .cls-20 {
        letter-spacing: 0em;
      }

      .cls-21 {
        letter-spacing: -.01em;
      }

      .cls-22 {
        letter-spacing: -.01em;
      }

      .cls-23 {
        letter-spacing: -.1em;
      }
    </style>
  </defs>
  <g>
    <g>
      <line class="cls-11" x1="203.09" y1="89.07" x2="310.74" y2="89.07"/>
      <polygon class="cls-13" points="306.61 103.2 331.09 89.07 306.61 74.93 306.61 103.2"/>
    </g>
    <text class="cls-4" transform="translate(246.7 86.52)"><tspan x="0" y="0">Split</tspan></text>
  </g>
  <g>
    <rect class="cls-10" x="32.76" y="22.25" width="145" height="115"/>
    <rect class="cls-12" x="31.26" y="20.75" width="146" height="117"/>
    <circle class="cls-9" cx="32.01" cy="21.5" r="7.75"/>
    <text class="cls-3" transform="translate(28.95 25.05)"><tspan x="0" y="0">A</tspan></text>
    <circle class="cls-9" cx="176.89" cy="138.07" r="7.75"/>
    <text class="cls-3" transform="translate(173.99 141.62)"><tspan x="0" y="0">C</tspan></text>
    <circle class="cls-9" cx="30.89" cy="138.07" r="7.75"/>
    <text class="cls-3" transform="translate(28.18 141.62)"><tspan x="0" y="0">B</tspan></text>
    <circle class="cls-9" cx="176.89" cy="21.07" r="7.75"/>
    <text class="cls-1" transform="translate(173.9 24.27)"><tspan x="0" y="0">D</tspan></text>
    <text class="cls-5" transform="translate(54.8 164.38)"><tspan x="0" y="0">[</tspan><tspan class="cls-14" x="4.26" y="0">[</tspan><tspan class="cls-17" x="8.35" y="0">A,</tspan><tspan class="cls-6" x="20.64" y="0">B</tspan><tspan x="28.58" y="0">,C,</tspan><tspan class="cls-20" x="43.48" y="0">D</tspan><tspan x="53.37" y="0">][</tspan><tspan class="cls-15" x="61.89" y="0">E</tspan><tspan x="69.21" y="0">,</tspan><tspan class="cls-23" x="72.31" y="0">F</tspan><tspan x="78.16" y="0">,G]]</tspan></text>
    <polygon class="cls-2" points="98.98 72.03 113.27 136.61 176 91.99 98.98 72.03"/>
    <line class="cls-12" x1="99.59" y1="76.07" x2="111.59" y2="138.07"/>
    <line class="cls-12" x1="176.59" y1="90.07" x2="111.59" y2="138.07"/>
    <line class="cls-12" x1="99.59" y1="72.07" x2="176.59" y2="90.07"/>
    <circle class="cls-9" cx="174.81" cy="89.49" r="7.75"/>
    <text class="cls-3" transform="translate(172.37 93.04)"><tspan x="0" y="0">F</tspan></text>
    <circle class="cls-9" cx="109.81" cy="137.49" r="7.75"/>
    <text class="cls-1" transform="translate(106.9 140.68)"><tspan x="0" y="0">G</tspan></text>
    <circle class="cls-9" cx="97.81" cy="72.49" r="7.75"/>
    <text class="cls-3" transform="translate(95.35 76.04)"><tspan x="0" y="0">E</tspan></text>
  </g>
  <g>
    <path class="cls-10" d="M429.09,137.57c-23.84-.33-47.69-.67-71.53-1-4.12,0-7.47-3.34-7.47-7.47V29.04c0-4.12,3.34-7.47,7.47-7.47h130.06c4.12,0,7.47,3.34,7.47,7.47v62.53c-22.53-9.23-41.39-14.18-55-17-10.56-2.19-19.77-3.48-23,1-2.98,4.13.8,10.85,4,19,3.69,9.41,7.71,23.54,8,43Z"/>
    <rect class="cls-12" x="348.59" y="20.07" width="146" height="117"/>
    <polyline class="cls-16" points="428.91 137.38 493.91 89.38 494.59 137.07"/>
    <circle class="cls-9" cx="349.34" cy="20.82" r="7.75"/>
    <text class="cls-3" transform="translate(346.28 24.37)"><tspan x="0" y="0">A</tspan></text>
    <circle class="cls-9" cx="494.22" cy="137.39" r="7.75"/>
    <text class="cls-3" transform="translate(491.32 140.94)"><tspan x="0" y="0">C</tspan></text>
    <circle class="cls-9" cx="348.22" cy="137.39" r="7.75"/>
    <text class="cls-3" transform="translate(345.51 140.94)"><tspan x="0" y="0">B</tspan></text>
    <circle class="cls-9" cx="494.22" cy="20.39" r="7.75"/>
    <text class="cls-1" transform="translate(491.22 23.58)"><tspan x="0" y="0">D</tspan></text>
    <text class="cls-5" transform="translate(354.8 163.69)"><tspan x="0" y="0">[</tspan><tspan class="cls-21" x="4.26" y="0">[</tspan><tspan class="cls-19" x="8.35" y="0">A,</tspan><tspan class="cls-8" x="20.64" y="0">B</tspan><tspan x="28.58" y="0">,G,</tspan><tspan class="cls-15" x="44.48" y="0">E</tspan><tspan x="51.79" y="0">,</tspan><tspan class="cls-18" x="54.9" y="0">F</tspan><tspan x="60.75" y="0">,</tspan><tspan class="cls-7" x="63.85" y="0">D</tspan><tspan x="73.74" y="0">]],[</tspan><tspan class="cls-22" x="89.62" y="0">[</tspan><tspan x="93.7" y="0">G,C,F]]</tspan></text>
    <polygon class="cls-2" points="416.3 71.34 430.6 135.93 493.33 91.3 416.3 71.34"/>
    <line class="cls-12" x1="416.91" y1="75.38" x2="428.91" y2="137.38"/>
    <line class="cls-12" x1="493.91" y1="89.38" x2="428.91" y2="137.38"/>
    <line class="cls-12" x1="416.91" y1="71.38" x2="493.91" y2="89.38"/>
    <circle class="cls-9" cx="492.13" cy="88.8" r="7.75"/>
    <text class="cls-3" transform="translate(489.7 92.35)"><tspan x="0" y="0">F</tspan></text>
    <circle class="cls-9" cx="427.13" cy="136.8" r="7.75"/>
    <text class="cls-1" transform="translate(424.22 139.99)"><tspan x="0" y="0">G</tspan></text>
    <circle class="cls-9" cx="415.13" cy="71.8" r="7.75"/>
    <text class="cls-3" transform="translate(412.67 75.35)"><tspan x="0" y="0">E</tspan></text>
  </g>
</svg>