<?xml version="1.0" encoding="UTF-8"?>
<svg id="Shell" xmlns="http://www.w3.org/2000/svg" viewBox="0 0 721.58 427.6">
  <defs>
    <style>
      .cls-1, .cls-2, .cls-3, .cls-4, .cls-5, .cls-6, .cls-7, .cls-8, .cls-9, .cls-10, .cls-11, .cls-12, .cls-13, .cls-14, .cls-15, .cls-16 {
        font-family: MyriadPro-Regular, 'Myriad Pro';
      }

      .cls-1, .cls-2, .cls-3, .cls-4, .cls-7, .cls-8, .cls-9, .cls-10, .cls-11, .cls-12, .cls-15, .cls-16 {
        fill: #fff;
      }

      .cls-1, .cls-13, .cls-14 {
        font-size: 9px;
      }

      .cls-2 {
        font-size: 4px;
      }

      .cls-3 {
        font-size: 7.45px;
      }

      .cls-17 {
        letter-spacing: 0em;
      }

      .cls-4 {
        font-size: 6.4px;
      }

      .cls-18 {
        opacity: .41;
      }

      .cls-18, .cls-19 {
        fill: #437898;
      }

      .cls-20, .cls-13 {
        fill: #231f20;
      }

      .cls-21 {
        stroke-width: 2px;
      }

      .cls-21, .cls-22, .cls-23, .cls-24 {
        fill: none;
        stroke-miterlimit: 10;
      }

      .cls-21, .cls-23, .cls-24 {
        stroke: #437898;
      }

      .cls-25 {
        letter-spacing: 0em;
      }

      .cls-26 {
        letter-spacing: 0em;
      }

      .cls-27 {
        fill: #6dbae7;
      }

      .cls-27, .cls-19 {
        opacity: .31;
      }

      .cls-22 {
        stroke: #9b9a9a;
      }

      .cls-22, .cls-23, .cls-24 {
        stroke-width: 2.83px;
      }

      .cls-28 {
        letter-spacing: -.01em;
      }

      .cls-29, .cls-14 {
        fill: #9b9a9a;
      }

      .cls-5 {
        fill: #39b54a;
      }

      .cls-5, .cls-6 {
        font-size: 72px;
      }

      .cls-6 {
        fill: #c92027;
      }

      .cls-7 {
        font-size: 5px;
      }

      .cls-8 {
        font-size: 4.47px;
      }

      .cls-9 {
        font-size: 3.57px;
      }

      .cls-10 {
        font-size: 5.72px;
      }

      .cls-11 {
        font-size: 10px;
      }

      .cls-12 {
        font-size: 5.76px;
      }

      .cls-30 {
        letter-spacing: .03em;
      }

      .cls-31 {
        letter-spacing: 0em;
      }

      .cls-32 {
        letter-spacing: .02em;
      }

      .cls-33 {
        letter-spacing: 0em;
      }

      .cls-34 {
        letter-spacing: 0em;
      }

      .cls-15 {
        font-size: 5.15px;
      }

      .cls-16 {
        font-size: 6.7px;
      }

      .cls-35 {
        letter-spacing: 0em;
      }

      .cls-36 {
        letter-spacing: 0em;
      }

      .cls-24 {
        stroke-dasharray: 5.67;
      }

      .cls-37 {
        letter-spacing: 0em;
      }

      .cls-38 {
        letter-spacing: 0em;
      }

      .cls-39 {
        letter-spacing: 0em;
      }
    </style>
  </defs>
  <g>
    <rect class="cls-27" x="56.59" y="44.57" width="124" height="115"/>
    <polyline class="cls-27" points="54.59 44.57 54.59 44.57 56.09 160.07 33.64 192.71 35.09 75.07 56.59 44.57"/>
    <line class="cls-23" x1="181.09" y1="45.07" x2="56.09" y2="45.07"/>
    <line class="cls-23" x1="158.09" y1="75.07" x2="181.09" y2="45.07"/>
    <line class="cls-23" x1="162.09" y1="195.07" x2="182.09" y2="161.07"/>
    <line class="cls-23" x1="181.09" y1="45.07" x2="181.09" y2="161.07"/>
    <line class="cls-24" x1="56.09" y1="45.07" x2="56.09" y2="160.07"/>
    <line class="cls-23" x1="34.85" y1="74.51" x2="57.85" y2="44.51"/>
    <line class="cls-24" x1="181.09" y1="160.07" x2="54.09" y2="160.07"/>
    <polyline class="cls-24" points="56.09 160.07 36.09 191.07 56.09 160.07"/>
    <polygon class="cls-27" points="56.09 45.07 36.18 74.63 159.72 75.39 181.35 44.02 56.09 45.07"/>
    <polyline class="cls-27" points="34.72 192.39 56.09 160.07 181.09 161.07 161.09 192.07"/>
    <polygon class="cls-27" points="159.72 75.39 180.31 46 179.26 163.58 159.1 192.6 159.72 75.39"/>
    <polygon class="cls-27" points="205.59 43.57 224.22 10.8 244.89 51.01 205.59 43.57"/>
    <polygon class="cls-21" points="205.59 44.57 224.22 11.8 244 49.25 205.59 44.57"/>
    <circle class="cls-20" cx="55.84" cy="43.82" r="7.75"/>
    <text class="cls-11" transform="translate(53.38 47.37)"><tspan x="0" y="0">E</tspan></text>
    <circle class="cls-20" cx="180.72" cy="160.39" r="7.75"/>
    <text class="cls-1" transform="translate(177.79 163.58)"><tspan x="0" y="0">H</tspan></text>
    <circle class="cls-20" cx="54.72" cy="160.39" r="7.75"/>
    <text class="cls-11" transform="translate(52.29 163.94)"><tspan x="0" y="0">F</tspan></text>
    <circle class="cls-20" cx="179.72" cy="43.39" r="7.75"/>
    <text class="cls-1" transform="translate(176.82 46.58)"><tspan x="0" y="0">G</tspan></text>
    <rect class="cls-27" x="36.59" y="76.57" width="124" height="115"/>
    <rect class="cls-23" x="35.09" y="75.07" width="126" height="117"/>
    <circle class="cls-20" cx="35.84" cy="75.82" r="7.75"/>
    <text class="cls-11" transform="translate(32.78 79.37)"><tspan x="0" y="0">A</tspan></text>
    <circle class="cls-20" cx="160.72" cy="192.39" r="7.75"/>
    <text class="cls-11" transform="translate(157.82 195.94)"><tspan x="0" y="0">C</tspan></text>
    <circle class="cls-20" cx="34.72" cy="192.39" r="7.75"/>
    <text class="cls-11" transform="translate(32.01 195.94)"><tspan x="0" y="0">B</tspan></text>
    <circle class="cls-20" cx="159.72" cy="75.39" r="7.75"/>
    <text class="cls-1" transform="translate(156.73 78.58)"><tspan x="0" y="0">D</tspan></text>
    <circle class="cls-20" cx="221.52" cy="12.01" r="7.75"/>
    <text class="cls-1" transform="translate(220.44 15.21)"><tspan x="0" y="0">I</tspan></text>
    <circle class="cls-20" cx="246.52" cy="52.01" r="7.75"/>
    <text class="cls-1" transform="translate(244.85 55.21)"><tspan x="0" y="0">J</tspan></text>
    <circle class="cls-20" cx="205.52" cy="47.01" r="7.75"/>
    <text class="cls-1" transform="translate(203.08 50.21)"><tspan x="0" y="0">K</tspan></text>
  </g>
  <g>
    <polyline class="cls-27" points="157.86 262.94 157.86 262.94 158.82 336.9 144.44 357.8 145.37 282.47 159.14 262.94"/>
    <line class="cls-23" x1="238.86" y1="263.26" x2="158.82" y2="263.26"/>
    <line class="cls-23" x1="224.14" y1="282.47" x2="238.86" y2="263.26"/>
    <line class="cls-23" x1="226.7" y1="359.31" x2="239.5" y2="337.54"/>
    <line class="cls-23" x1="238.86" y1="263.26" x2="238.86" y2="337.54"/>
    <line class="cls-24" x1="158.82" y1="263.26" x2="158.82" y2="336.9"/>
    <line class="cls-23" x1="145.22" y1="282.11" x2="159.95" y2="262.9"/>
    <line class="cls-24" x1="238.86" y1="336.9" x2="157.54" y2="336.9"/>
    <polyline class="cls-24" points="158.82 336.9 146.01 356.75 158.82 336.9"/>
    <polygon class="cls-27" points="158.82 263.26 146.07 282.19 225.18 282.67 239.03 262.59 158.82 263.26"/>
    <polyline class="cls-27" points="145.14 357.59 158.82 336.9 238.86 337.54 226.06 357.39"/>
    <polygon class="cls-27" points="225.18 282.67 238.36 263.85 237.69 339.15 224.78 357.73 225.18 282.67"/>
    <rect class="cls-27" x="159.14" y="262.94" width="79.4" height="73.64"/>
    <circle class="cls-20" cx="158.66" cy="262.46" r="4.96"/>
    <text class="cls-4" transform="translate(157.9 264.73)"><tspan x="0" y="0">I</tspan></text>
    <circle class="cls-20" cx="238.63" cy="337.1" r="4.96"/>
    <text class="cls-2" transform="translate(237.02 338.52)"><tspan x="0" y="0">M</tspan></text>
    <circle class="cls-20" cx="237.99" cy="262.18" r="4.96"/>
    <text class="cls-12" transform="translate(236.92 264.23)"><tspan x="0" y="0">J</tspan></text>
    <circle class="cls-20" cx="157.94" cy="337.1" r="4.96"/>
    <text class="cls-7" transform="translate(156.3 338.88)"><tspan x="0" y="0">N</tspan></text>
    <rect class="cls-27" x="146.33" y="283.43" width="79.4" height="73.64"/>
    <rect class="cls-23" x="145.37" y="282.47" width="80.68" height="74.92"/>
    <circle class="cls-20" cx="225.82" cy="357.59" r="4.96"/>
    <text class="cls-4" transform="translate(224.31 359.86)"><tspan x="0" y="0">L</tspan></text>
    <circle class="cls-20" cx="225.18" cy="282.67" r="4.96"/>
    <text class="cls-12" transform="translate(223.62 284.72)"><tspan x="0" y="0">K</tspan></text>
    <rect class="cls-27" x="47.73" y="286.58" width="79.4" height="73.64"/>
    <polyline class="cls-27" points="46.45 286.58 46.45 286.58 47.41 360.54 33.03 381.44 33.96 306.11 47.73 286.58"/>
    <line class="cls-23" x1="127.45" y1="286.9" x2="47.41" y2="286.9"/>
    <line class="cls-23" x1="112.72" y1="306.11" x2="127.45" y2="286.9"/>
    <line class="cls-23" x1="115.28" y1="382.95" x2="128.09" y2="361.18"/>
    <line class="cls-23" x1="127.45" y1="286.9" x2="127.45" y2="361.18"/>
    <line class="cls-24" x1="47.41" y1="286.9" x2="47.41" y2="360.54"/>
    <line class="cls-23" x1="33.81" y1="305.75" x2="48.53" y2="286.54"/>
    <line class="cls-24" x1="127.45" y1="360.54" x2="46.13" y2="360.54"/>
    <polyline class="cls-24" points="47.41 360.54 34.6 380.39 47.41 360.54"/>
    <polygon class="cls-27" points="47.41 286.9 34.66 305.83 113.77 306.31 127.62 286.23 47.41 286.9"/>
    <polyline class="cls-27" points="33.72 381.23 47.41 360.54 127.45 361.18 114.64 381.03"/>
    <polygon class="cls-27" points="113.77 306.31 126.95 287.49 126.27 362.79 113.37 381.37 113.77 306.31"/>
    <circle class="cls-20" cx="47.25" cy="286.1" r="4.96"/>
    <text class="cls-4" transform="translate(45.67 288.37)"><tspan x="0" y="0">E</tspan></text>
    <circle class="cls-20" cx="127.21" cy="360.74" r="4.96"/>
    <text class="cls-12" transform="translate(125.34 362.79)"><tspan x="0" y="0">H</tspan></text>
    <circle class="cls-20" cx="46.53" cy="360.74" r="4.96"/>
    <text class="cls-4" transform="translate(44.97 363.01)"><tspan x="0" y="0">F</tspan></text>
    <circle class="cls-20" cx="126.57" cy="285.82" r="4.96"/>
    <text class="cls-12" transform="translate(124.71 287.87)"><tspan x="0" y="0">G</tspan></text>
    <rect class="cls-27" x="34.92" y="307.07" width="79.4" height="73.64"/>
    <rect class="cls-23" x="33.96" y="306.11" width="80.68" height="74.92"/>
    <circle class="cls-20" cx="34.44" cy="306.59" r="4.96"/>
    <text class="cls-4" transform="translate(32.48 308.86)"><tspan x="0" y="0">A</tspan></text>
    <circle class="cls-20" cx="114.41" cy="381.23" r="4.96"/>
    <text class="cls-4" transform="translate(112.55 383.51)"><tspan x="0" y="0">C</tspan></text>
    <circle class="cls-20" cx="33.72" cy="381.23" r="4.96"/>
    <text class="cls-4" transform="translate(31.99 383.51)"><tspan x="0" y="0">B</tspan></text>
    <circle class="cls-20" cx="113.77" cy="306.31" r="4.96"/>
    <text class="cls-12" transform="translate(111.85 308.36)"><tspan x="0" y="0">D</tspan></text>
    <circle class="cls-20" cx="146.11" cy="358.45" r="4.96"/>
    <text class="cls-4" transform="translate(144.4 360.72)"><tspan x="0" y="0">P</tspan></text>
    <circle class="cls-20" cx="146.11" cy="282.45" r="4.96"/>
    <text class="cls-7" transform="translate(144.38 284.22)"><tspan x="0" y="0">O</tspan></text>
  </g>
  <g>
    <g>
      <line class="cls-22" x1="204.59" y1="235.07" x2="312.25" y2="235.07"/>
      <polygon class="cls-29" points="308.11 249.2 332.59 235.07 308.11 220.93 308.11 249.2"/>
    </g>
    <text class="cls-13" transform="translate(214.92 232.52)"><tspan class="cls-26" x="0" y="0">D</tspan><tspan x="6.03" y="0">oes it h</tspan><tspan class="cls-37" x="32.94" y="0">a</tspan><tspan class="cls-33" x="37.21" y="0">v</tspan><tspan x="41.44" y="0">e a </tspan><tspan class="cls-33" x="54.11" y="0">v</tspan><tspan x="58.35" y="0">olume</tspan></text>
  </g>
  <g>
    <g>
      <line class="cls-22" x1="386.59" y1="177.07" x2="494.25" y2="177.07"/>
      <polygon class="cls-29" points="490.11 191.2 514.59 177.07 490.11 162.93 490.11 191.2"/>
    </g>
    <text class="cls-13" transform="translate(401.09 173.52)"><tspan class="cls-35" x="0" y="0">M</tspan><tspan x="7.29" y="0">ake non </tspan><tspan class="cls-36" x="39.11" y="0">M</tspan><tspan x="46.4" y="0">ani</tspan><tspan class="cls-28" x="57.83" y="0">f</tspan><tspan x="60.35" y="0">olds</tspan><tspan x="-3.36" y="10.8">sepe</tspan><tspan class="cls-25" x="14.34" y="10.8">r</tspan><tspan class="cls-17" x="17.24" y="10.8">a</tspan><tspan class="cls-39" x="21.54" y="10.8">t</tspan><tspan x="24.47" y="10.8">e </tspan><tspan class="cls-31" x="30.88" y="10.8">M</tspan><tspan x="38.15" y="10.8">ulti su</tspan><tspan class="cls-30" x="60.74" y="10.8">r</tspan><tspan x="63.96" y="10.8">fa</tspan><tspan class="cls-39" x="70.92" y="10.8">c</tspan><tspan x="74.9" y="10.8">e</tspan></text>
  </g>
  <g>
    <g>
      <line class="cls-22" x1="386.59" y1="79.07" x2="494.25" y2="79.07"/>
      <polygon class="cls-29" points="490.11 93.2 514.59 79.07 490.11 64.93 490.11 93.2"/>
    </g>
    <text class="cls-13" transform="translate(399.64 76.52)"><tspan class="cls-26" x="0" y="0">D</tspan><tspan x="6.03" y="0">ele</tspan><tspan class="cls-39" x="17.17" y="0">t</tspan><tspan x="20.1" y="0">e non mani</tspan><tspan class="cls-28" x="62.3" y="0">f</tspan><tspan x="64.81" y="0">old</tspan><tspan x="30.68" y="10.8">pa</tspan><tspan class="cls-32" x="40.13" y="10.8">r</tspan><tspan x="43.29" y="10.8">t</tspan></text>
  </g>
  <g>
    <rect class="cls-27" x="538.98" y="21.59" width="92.36" height="85.65"/>
    <polyline class="cls-27" points="537.49 21.59 537.49 21.59 538.61 107.61 521.89 131.92 522.97 44.3 538.98 21.59"/>
    <line class="cls-23" x1="631.71" y1="21.96" x2="538.61" y2="21.96"/>
    <line class="cls-23" x1="614.58" y1="44.3" x2="631.71" y2="21.96"/>
    <line class="cls-23" x1="617.56" y1="133.68" x2="632.45" y2="108.36"/>
    <line class="cls-23" x1="631.71" y1="21.96" x2="631.71" y2="108.36"/>
    <line class="cls-24" x1="538.61" y1="21.96" x2="538.61" y2="107.61"/>
    <line class="cls-23" x1="522.79" y1="43.89" x2="539.92" y2="21.55"/>
    <line class="cls-24" x1="631.71" y1="107.61" x2="537.12" y2="107.61"/>
    <polyline class="cls-24" points="538.61 107.61 523.71 130.7 538.61 107.61"/>
    <polygon class="cls-27" points="538.61 21.96 523.78 43.98 615.79 44.54 631.9 21.18 538.61 21.96"/>
    <polyline class="cls-27" points="522.69 131.68 538.61 107.61 631.71 108.36 616.81 131.45"/>
    <polygon class="cls-27" points="615.79 44.54 631.13 22.65 630.34 110.23 615.33 131.84 615.79 44.54"/>
    <circle class="cls-20" cx="538.42" cy="21.03" r="5.77"/>
    <text class="cls-3" transform="translate(536.59 23.67)"><tspan x="0" y="0">E</tspan></text>
    <circle class="cls-20" cx="631.43" cy="107.85" r="5.77"/>
    <text class="cls-16" transform="translate(629.25 110.23)"><tspan x="0" y="0">H</tspan></text>
    <circle class="cls-20" cx="537.59" cy="107.85" r="5.77"/>
    <text class="cls-3" transform="translate(535.77 110.49)"><tspan x="0" y="0">F</tspan></text>
    <circle class="cls-20" cx="630.69" cy="20.71" r="5.77"/>
    <text class="cls-16" transform="translate(628.52 23.09)"><tspan x="0" y="0">G</tspan></text>
    <rect class="cls-27" x="524.08" y="45.42" width="92.36" height="85.65"/>
    <rect class="cls-23" x="522.97" y="44.3" width="93.85" height="87.14"/>
    <circle class="cls-20" cx="523.52" cy="44.86" r="5.77"/>
    <text class="cls-3" transform="translate(521.24 47.51)"><tspan x="0" y="0">A</tspan></text>
    <circle class="cls-20" cx="616.54" cy="131.68" r="5.77"/>
    <text class="cls-3" transform="translate(614.38 134.33)"><tspan x="0" y="0">C</tspan></text>
    <circle class="cls-20" cx="522.69" cy="131.68" r="5.77"/>
    <text class="cls-3" transform="translate(520.67 134.33)"><tspan x="0" y="0">B</tspan></text>
    <circle class="cls-20" cx="615.79" cy="44.54" r="5.77"/>
    <text class="cls-16" transform="translate(613.56 46.92)"><tspan x="0" y="0">D</tspan></text>
  </g>
  <g>
    <rect class="cls-27" x="538.59" y="148.28" width="92.36" height="85.65"/>
    <polyline class="cls-27" points="537.1 148.28 537.1 148.28 538.22 234.3 521.5 258.61 522.58 170.99 538.59 148.28"/>
    <line class="cls-23" x1="631.32" y1="148.65" x2="538.22" y2="148.65"/>
    <line class="cls-23" x1="614.19" y1="170.99" x2="631.32" y2="148.65"/>
    <line class="cls-23" x1="617.17" y1="260.37" x2="632.07" y2="235.05"/>
    <line class="cls-23" x1="631.32" y1="148.65" x2="631.32" y2="235.05"/>
    <line class="cls-24" x1="538.22" y1="148.65" x2="538.22" y2="234.3"/>
    <line class="cls-23" x1="522.4" y1="170.58" x2="539.53" y2="148.24"/>
    <line class="cls-24" x1="631.32" y1="234.3" x2="536.73" y2="234.3"/>
    <polyline class="cls-24" points="538.22 234.3 523.32 257.39 538.22 234.3"/>
    <polygon class="cls-27" points="538.22 148.65 523.39 170.67 615.41 171.23 631.52 147.87 538.22 148.65"/>
    <polyline class="cls-27" points="522.3 258.38 538.22 234.3 631.32 235.05 616.42 258.14"/>
    <polygon class="cls-27" points="615.41 171.23 630.74 149.34 629.96 236.92 614.94 258.53 615.41 171.23"/>
    <polygon class="cls-18" points="650.95 148.28 664.82 123.87 680.22 153.82 650.95 148.28"/>
    <polygon class="cls-21" points="649.95 148.28 663.82 123.87 678.56 151.76 649.95 148.28"/>
    <circle class="cls-20" cx="538.03" cy="147.72" r="5.77"/>
    <text class="cls-3" transform="translate(536.2 150.36)"><tspan x="0" y="0">E</tspan></text>
    <circle class="cls-20" cx="631.05" cy="234.54" r="5.77"/>
    <text class="cls-16" transform="translate(628.86 236.92)"><tspan x="0" y="0">H</tspan></text>
    <circle class="cls-20" cx="537.2" cy="234.54" r="5.77"/>
    <text class="cls-3" transform="translate(535.39 237.19)"><tspan x="0" y="0">F</tspan></text>
    <circle class="cls-20" cx="630.3" cy="147.4" r="5.77"/>
    <text class="cls-16" transform="translate(628.14 149.78)"><tspan x="0" y="0">G</tspan></text>
    <rect class="cls-27" x="523.7" y="172.11" width="92.36" height="85.65"/>
    <rect class="cls-23" x="522.58" y="170.99" width="93.85" height="87.14"/>
    <circle class="cls-20" cx="523.14" cy="171.55" r="5.77"/>
    <text class="cls-3" transform="translate(520.86 174.2)"><tspan x="0" y="0">A</tspan></text>
    <circle class="cls-20" cx="616.15" cy="258.38" r="5.77"/>
    <text class="cls-3" transform="translate(613.99 261.02)"><tspan x="0" y="0">C</tspan></text>
    <circle class="cls-20" cx="522.3" cy="258.38" r="5.77"/>
    <text class="cls-3" transform="translate(520.29 261.02)"><tspan x="0" y="0">B</tspan></text>
    <circle class="cls-20" cx="615.41" cy="171.23" r="5.77"/>
    <text class="cls-16" transform="translate(613.17 173.61)"><tspan x="0" y="0">D</tspan></text>
    <circle class="cls-20" cx="662.81" cy="124.03" r="5.77"/>
    <text class="cls-16" transform="translate(662.01 126.41)"><tspan x="0" y="0">I</tspan></text>
    <circle class="cls-20" cx="681.43" cy="153.82" r="5.77"/>
    <text class="cls-16" transform="translate(680.19 156.2)"><tspan x="0" y="0">J</tspan></text>
    <circle class="cls-20" cx="648.96" cy="149.63" r="5.77"/>
    <text class="cls-16" transform="translate(647.15 152.01)"><tspan x="0" y="0">K</tspan></text>
  </g>
  <text class="cls-6" transform="translate(329.55 142.09)"><tspan x="0" y="0">x</tspan></text>
  <text class="cls-5" transform="translate(327.03 345.12)"><tspan x="0" y="0">v</tspan></text>
  <text class="cls-14" transform="translate(385.59 125.96)"><tspan x="0" y="0">Based on user </tspan><tspan class="cls-33" x="54" y="0">r</tspan><tspan x="56.85" y="0">equi</tspan><tspan class="cls-33" x="73.49" y="0">r</tspan><tspan x="76.35" y="0">eme</tspan><tspan class="cls-17" x="92.87" y="0">n</tspan><tspan x="97.83" y="0">ts</tspan></text>
  <g>
    <polyline class="cls-19" points="633.4 288.93 633.4 288.93 634.25 355.03 621.41 373.71 622.24 306.39 634.54 288.93"/>
    <line class="cls-23" x1="705.78" y1="289.22" x2="634.25" y2="289.22"/>
    <line class="cls-23" x1="692.62" y1="306.39" x2="705.78" y2="289.22"/>
    <line class="cls-23" x1="694.91" y1="375.06" x2="706.36" y2="355.6"/>
    <line class="cls-23" x1="705.78" y1="289.22" x2="705.78" y2="355.6"/>
    <line class="cls-24" x1="634.25" y1="289.22" x2="634.25" y2="355.03"/>
    <line class="cls-23" x1="622.1" y1="306.07" x2="635.26" y2="288.9"/>
    <line class="cls-24" x1="705.78" y1="355.03" x2="633.11" y2="355.03"/>
    <polyline class="cls-24" points="634.25 355.03 622.81 372.77 634.25 355.03"/>
    <polygon class="cls-27" points="634.25 289.22 622.86 306.14 693.56 306.57 705.93 288.62 634.25 289.22"/>
    <polyline class="cls-19" points="622.03 373.52 634.25 355.03 705.78 355.6 694.34 373.34"/>
    <polygon class="cls-19" points="693.56 306.57 705.34 289.75 704.73 357.04 693.2 373.64 693.56 306.57"/>
    <rect class="cls-19" x="634.54" y="288.93" width="70.96" height="65.81"/>
    <circle class="cls-20" cx="634.11" cy="288.5" r="4.43"/>
    <text class="cls-10" transform="translate(633.43 290.53)"><tspan x="0" y="0">I</tspan></text>
    <circle class="cls-20" cx="705.57" cy="355.21" r="4.43"/>
    <text class="cls-9" transform="translate(704.14 356.48)"><tspan x="0" y="0">M</tspan></text>
    <circle class="cls-20" cx="705" cy="288.26" r="4.43"/>
    <text class="cls-15" transform="translate(704.05 290.09)"><tspan x="0" y="0">J</tspan></text>
    <circle class="cls-20" cx="633.47" cy="355.21" r="4.43"/>
    <text class="cls-8" transform="translate(632 356.8)"><tspan x="0" y="0">N</tspan></text>
    <rect class="cls-19" x="623.1" y="307.25" width="70.96" height="65.81"/>
    <rect class="cls-23" x="622.24" y="306.39" width="72.1" height="66.95"/>
    <circle class="cls-20" cx="694.13" cy="373.52" r="4.43"/>
    <text class="cls-10" transform="translate(692.78 375.55)"><tspan x="0" y="0">L</tspan></text>
    <circle class="cls-20" cx="693.56" cy="306.57" r="4.43"/>
    <text class="cls-15" transform="translate(692.16 308.4)"><tspan x="0" y="0">K</tspan></text>
    <rect class="cls-27" x="534.98" y="310.06" width="70.96" height="65.81"/>
    <polyline class="cls-27" points="533.83 310.06 533.83 310.06 534.69 376.15 521.84 394.83 522.67 327.51 534.98 310.06"/>
    <line class="cls-23" x1="606.22" y1="310.35" x2="534.69" y2="310.35"/>
    <line class="cls-23" x1="593.06" y1="327.51" x2="606.22" y2="310.35"/>
    <line class="cls-23" x1="595.35" y1="396.18" x2="606.79" y2="376.73"/>
    <line class="cls-23" x1="606.22" y1="310.35" x2="606.22" y2="376.73"/>
    <line class="cls-24" x1="534.69" y1="310.35" x2="534.69" y2="376.15"/>
    <line class="cls-23" x1="522.54" y1="327.2" x2="535.7" y2="310.03"/>
    <line class="cls-24" x1="606.22" y1="376.15" x2="533.55" y2="376.15"/>
    <polyline class="cls-24" points="534.69 376.15 523.25 393.89 534.69 376.15"/>
    <polygon class="cls-27" points="534.69 310.35 523.3 327.26 593.99 327.7 606.37 309.75 534.69 310.35"/>
    <polyline class="cls-27" points="522.46 394.65 534.69 376.15 606.22 376.73 594.77 394.46"/>
    <polygon class="cls-27" points="593.99 327.7 605.77 310.88 605.17 378.16 593.64 394.77 593.99 327.7"/>
    <circle class="cls-20" cx="534.55" cy="309.63" r="4.43"/>
    <text class="cls-10" transform="translate(533.14 311.66)"><tspan x="0" y="0">E</tspan></text>
    <circle class="cls-20" cx="606.01" cy="376.34" r="4.43"/>
    <text class="cls-15" transform="translate(604.33 378.16)"><tspan x="0" y="0">H</tspan></text>
    <circle class="cls-20" cx="533.91" cy="376.34" r="4.43"/>
    <text class="cls-10" transform="translate(532.51 378.37)"><tspan x="0" y="0">F</tspan></text>
    <circle class="cls-20" cx="605.44" cy="309.38" r="4.43"/>
    <text class="cls-15" transform="translate(603.77 311.21)"><tspan x="0" y="0">G</tspan></text>
    <rect class="cls-27" x="523.53" y="328.37" width="70.96" height="65.81"/>
    <rect class="cls-23" x="522.67" y="327.51" width="72.1" height="66.95"/>
    <circle class="cls-20" cx="523.1" cy="327.94" r="4.43"/>
    <text class="cls-10" transform="translate(521.35 329.97)"><tspan x="0" y="0">A</tspan></text>
    <circle class="cls-20" cx="594.56" cy="394.65" r="4.43"/>
    <text class="cls-10" transform="translate(592.91 396.68)"><tspan x="0" y="0">C</tspan></text>
    <circle class="cls-20" cx="522.46" cy="394.65" r="4.43"/>
    <text class="cls-10" transform="translate(520.91 396.68)"><tspan x="0" y="0">B</tspan></text>
    <circle class="cls-20" cx="593.99" cy="327.7" r="4.43"/>
    <text class="cls-15" transform="translate(592.28 329.52)"><tspan x="0" y="0">D</tspan></text>
    <circle class="cls-20" cx="622.89" cy="374.29" r="4.43"/>
    <text class="cls-10" transform="translate(621.37 376.32)"><tspan x="0" y="0">P</tspan></text>
    <circle class="cls-20" cx="622.89" cy="306.37" r="4.43"/>
    <text class="cls-8" transform="translate(621.35 307.96)"><tspan x="0" y="0">O</tspan></text>
  </g>
  <g>
    <g>
      <line class="cls-22" x1="387.01" y1="315.07" x2="494.67" y2="315.07"/>
      <polygon class="cls-29" points="490.53 329.2 515.01 315.07 490.53 300.93 490.53 329.2"/>
    </g>
    <text class="cls-13" transform="translate(397.63 312.52)"><tspan class="cls-35" x="0" y="0">M</tspan><tspan x="7.29" y="0">ake </tspan><tspan class="cls-38" x="22.27" y="0">M</tspan><tspan x="29.53" y="0">ulti-</tspan><tspan class="cls-35" x="44.46" y="0">S</tspan><tspan x="48.95" y="0">olid with </tspan><tspan class="cls-34" x="22" y="10.8">t</tspan><tspan class="cls-33" x="25.05" y="10.8">w</tspan><tspan x="31.59" y="10.8">o solids</tspan></text>
  </g>
  <text class="cls-14" transform="translate(390.1 352.65)"><tspan x="0" y="0">Based on user </tspan><tspan class="cls-33" x="54" y="0">r</tspan><tspan x="56.85" y="0">equi</tspan><tspan class="cls-33" x="73.49" y="0">r</tspan><tspan x="76.35" y="0">eme</tspan><tspan class="cls-17" x="92.87" y="0">n</tspan><tspan x="97.83" y="0">ts</tspan></text>
  <g>
    <g>
      <line class="cls-22" x1="387.01" y1="381.07" x2="494.67" y2="381.07"/>
      <polygon class="cls-29" points="490.53 395.2 515.01 381.07 490.53 366.93 490.53 395.2"/>
    </g>
    <text class="cls-13" transform="translate(408.14 378.52)"><tspan x="0" y="0">Split i</tspan><tspan class="cls-17" x="20.78" y="0">n</tspan><tspan class="cls-39" x="25.74" y="0">t</tspan><tspan x="28.66" y="0">o 2 </tspan><tspan class="cls-35" x="42.04" y="0">S</tspan><tspan x="46.53" y="0">olid</tspan></text>
  </g>
</svg>