<?xml version="1.0" encoding="UTF-8"?>
<svg id="Solidinteraction" xmlns="http://www.w3.org/2000/svg" viewBox="0 0 522 405.23">
  <defs>
    <style>
      .cls-1, .cls-2, .cls-3, .cls-4 {
        fill: #fff;
      }

      .cls-1, .cls-3, .cls-4, .cls-5 {
        font-family: MyriadPro-Regular, 'Myriad Pro';
      }

      .cls-1, .cls-5 {
        font-size: 9px;
      }

      .cls-6, .cls-5 {
        fill: #231f20;
      }

      .cls-7 {
        stroke-width: 2px;
      }

      .cls-7, .cls-8, .cls-9, .cls-10 {
        fill: none;
        stroke-miterlimit: 10;
      }

      .cls-7, .cls-9, .cls-10 {
        stroke: #437898;
      }

      .cls-11 {
        fill: #6dbae7;
      }

      .cls-11, .cls-12 {
        opacity: .31;
      }

      .cls-8 {
        stroke: #9b9a9a;
      }

      .cls-8, .cls-9, .cls-10 {
        stroke-width: 2.83px;
      }

      .cls-13 {
        fill: #9b9a9a;
      }

      .cls-3 {
        font-size: 7.49px;
      }

      .cls-4 {
        font-size: 10px;
      }

      .cls-12 {
        fill: #437898;
      }

      .cls-10 {
        stroke-dasharray: 5.67;
      }
    </style>
  </defs>
  <g>
    <rect class="cls-11" x="58.95" y="34.51" width="124" height="115"/>
    <polyline class="cls-11" points="56.95 34.51 56.95 34.51 58.45 150.01 36 182.65 37.45 65.01 58.95 34.51"/>
    <line class="cls-9" x1="183.45" y1="35.01" x2="58.45" y2="35.01"/>
    <line class="cls-9" x1="160.45" y1="65.01" x2="183.45" y2="35.01"/>
    <line class="cls-9" x1="164.45" y1="185.01" x2="184.45" y2="151.01"/>
    <line class="cls-9" x1="183.45" y1="35.01" x2="183.45" y2="151.01"/>
    <line class="cls-10" x1="58.45" y1="35.01" x2="58.45" y2="150.01"/>
    <line class="cls-9" x1="37.21" y1="64.46" x2="60.21" y2="34.46"/>
    <line class="cls-10" x1="183.45" y1="150.01" x2="56.45" y2="150.01"/>
    <polyline class="cls-10" points="58.45 150.01 38.45 181.01 58.45 150.01"/>
    <polygon class="cls-12" points="58.45 35.01 38.53 64.57 162.08 65.33 183.71 33.97 58.45 35.01"/>
    <polyline class="cls-11" points="37.08 182.33 58.45 150.01 183.45 151.01 163.45 182.01"/>
    <polygon class="cls-12" points="162.08 65.33 182.66 35.94 181.61 153.52 161.46 182.54 162.08 65.33"/>
    <circle class="cls-6" cx="58.2" cy="33.76" r="7.75"/>
    <text class="cls-4" transform="translate(55.74 37.31)"><tspan x="0" y="0">E</tspan></text>
    <circle class="cls-6" cx="183.08" cy="150.33" r="7.75"/>
    <text class="cls-1" transform="translate(180.14 153.52)"><tspan x="0" y="0">H</tspan></text>
    <circle class="cls-6" cx="57.08" cy="150.33" r="7.75"/>
    <text class="cls-4" transform="translate(54.64 153.88)"><tspan x="0" y="0">F</tspan></text>
    <circle class="cls-6" cx="182.08" cy="33.33" r="7.75"/>
    <text class="cls-1" transform="translate(179.17 36.52)"><tspan x="0" y="0">G</tspan></text>
    <rect class="cls-12" x="38.95" y="66.51" width="124" height="115"/>
    <rect class="cls-9" x="37.45" y="65.01" width="126" height="117"/>
    <circle class="cls-6" cx="38.2" cy="65.76" r="7.75"/>
    <text class="cls-4" transform="translate(35.14 69.31)"><tspan x="0" y="0">A</tspan></text>
    <circle class="cls-6" cx="163.08" cy="182.33" r="7.75"/>
    <text class="cls-4" transform="translate(160.18 185.88)"><tspan x="0" y="0">C</tspan></text>
    <circle class="cls-6" cx="37.08" cy="182.33" r="7.75"/>
    <text class="cls-4" transform="translate(34.37 185.88)"><tspan x="0" y="0">B</tspan></text>
    <circle class="cls-6" cx="162.08" cy="65.33" r="7.75"/>
    <text class="cls-1" transform="translate(159.08 68.52)"><tspan x="0" y="0">D</tspan></text>
  </g>
  <g>
    <rect class="cls-11" x="368.2" y="33.7" width="124" height="115"/>
    <polyline class="cls-11" points="366.2 33.7 366.2 33.7 367.7 149.2 345.25 181.84 346.7 64.2 368.2 33.7"/>
    <line class="cls-9" x1="492.7" y1="34.2" x2="367.7" y2="34.2"/>
    <line class="cls-9" x1="469.7" y1="64.2" x2="492.7" y2="34.2"/>
    <line class="cls-9" x1="473.7" y1="184.2" x2="493.7" y2="150.2"/>
    <line class="cls-9" x1="492.7" y1="34.2" x2="492.7" y2="150.2"/>
    <line class="cls-10" x1="367.7" y1="34.2" x2="367.7" y2="149.2"/>
    <line class="cls-9" x1="346.46" y1="63.65" x2="369.46" y2="33.65"/>
    <line class="cls-10" x1="492.7" y1="149.2" x2="365.7" y2="149.2"/>
    <polyline class="cls-10" points="367.7 149.2 347.7 180.2 367.7 149.2"/>
    <polygon class="cls-11" points="367.7 34.2 347.79 63.76 471.33 64.52 492.96 33.16 367.7 34.2"/>
    <polyline class="cls-11" points="346.33 181.52 367.7 149.2 492.7 150.2 472.7 181.2"/>
    <polygon class="cls-11" points="471.33 64.52 491.92 35.13 490.86 152.72 470.71 181.73 471.33 64.52"/>
    <circle class="cls-6" cx="367.45" cy="32.95" r="7.75"/>
    <text class="cls-4" transform="translate(364.99 36.5)"><tspan x="0" y="0">E</tspan></text>
    <circle class="cls-6" cx="492.33" cy="149.52" r="7.75"/>
    <text class="cls-1" transform="translate(489.4 152.72)"><tspan x="0" y="0">H</tspan></text>
    <circle class="cls-6" cx="366.33" cy="149.52" r="7.75"/>
    <text class="cls-4" transform="translate(363.9 153.07)"><tspan x="0" y="0">F</tspan></text>
    <circle class="cls-6" cx="491.33" cy="32.52" r="7.75"/>
    <text class="cls-1" transform="translate(488.42 35.72)"><tspan x="0" y="0">G</tspan></text>
    <rect class="cls-11" x="348.2" y="65.7" width="124" height="115"/>
    <rect class="cls-9" x="346.7" y="64.2" width="126" height="117"/>
    <circle class="cls-6" cx="347.45" cy="64.95" r="7.75"/>
    <text class="cls-4" transform="translate(344.39 68.5)"><tspan x="0" y="0">A</tspan></text>
    <circle class="cls-6" cx="472.33" cy="181.52" r="7.75"/>
    <text class="cls-4" transform="translate(469.43 185.07)"><tspan x="0" y="0">C</tspan></text>
    <circle class="cls-6" cx="346.33" cy="181.52" r="7.75"/>
    <text class="cls-4" transform="translate(343.62 185.07)"><tspan x="0" y="0">B</tspan></text>
    <circle class="cls-6" cx="471.33" cy="64.52" r="7.75"/>
    <text class="cls-1" transform="translate(468.33 67.72)"><tspan x="0" y="0">D</tspan></text>
  </g>
  <g>
    <rect class="cls-11" x="368.87" y="220.08" width="124" height="115"/>
    <polyline class="cls-11" points="366.87 220.08 366.87 220.08 368.37 335.58 345.93 368.23 347.37 250.58 368.87 220.08"/>
    <line class="cls-9" x1="493.37" y1="220.58" x2="368.37" y2="220.58"/>
    <line class="cls-9" x1="470.37" y1="250.58" x2="493.37" y2="220.58"/>
    <line class="cls-9" x1="474.37" y1="370.58" x2="494.37" y2="336.58"/>
    <line class="cls-9" x1="493.37" y1="220.58" x2="493.37" y2="336.58"/>
    <line class="cls-10" x1="368.37" y1="220.58" x2="368.37" y2="335.58"/>
    <line class="cls-9" x1="347.14" y1="250.03" x2="370.14" y2="220.03"/>
    <line class="cls-10" x1="493.37" y1="335.58" x2="366.37" y2="335.58"/>
    <polyline class="cls-10" points="368.37 335.58 348.37 366.58 368.37 335.58"/>
    <polygon class="cls-11" points="368.37 220.58 348.46 250.15 472.01 250.9 493.64 219.54 368.37 220.58"/>
    <polyline class="cls-11" points="347.01 367.9 368.37 335.58 493.37 336.58 473.37 367.58"/>
    <polygon class="cls-11" points="472.01 250.9 492.59 221.51 491.54 339.1 471.39 368.12 472.01 250.9"/>
    <circle class="cls-6" cx="368.12" cy="219.33" r="7.75"/>
    <text class="cls-4" transform="translate(365.67 222.88)"><tspan x="0" y="0">E</tspan></text>
    <circle class="cls-6" cx="493.01" cy="335.9" r="7.75"/>
    <text class="cls-1" transform="translate(490.07 339.1)"><tspan x="0" y="0">H</tspan></text>
    <circle class="cls-6" cx="367.01" cy="335.9" r="7.75"/>
    <text class="cls-4" transform="translate(364.57 339.45)"><tspan x="0" y="0">F</tspan></text>
    <circle class="cls-6" cx="492.01" cy="218.9" r="7.75"/>
    <text class="cls-1" transform="translate(489.1 222.1)"><tspan x="0" y="0">G</tspan></text>
    <rect class="cls-11" x="348.87" y="252.08" width="124" height="115"/>
    <rect class="cls-9" x="347.37" y="250.58" width="126" height="117"/>
    <circle class="cls-6" cx="348.12" cy="251.33" r="7.75"/>
    <text class="cls-4" transform="translate(345.07 254.88)"><tspan x="0" y="0">A</tspan></text>
    <circle class="cls-6" cx="473.01" cy="367.9" r="7.75"/>
    <text class="cls-4" transform="translate(470.11 371.45)"><tspan x="0" y="0">C</tspan></text>
    <circle class="cls-6" cx="347.01" cy="367.9" r="7.75"/>
    <text class="cls-4" transform="translate(344.3 371.45)"><tspan x="0" y="0">B</tspan></text>
    <circle class="cls-6" cx="472.01" cy="250.9" r="7.75"/>
    <text class="cls-1" transform="translate(469.01 254.1)"><tspan x="0" y="0">D</tspan></text>
  </g>
  <g>
    <rect class="cls-11" x="59.56" y="221.34" width="124" height="115"/>
    <polyline class="cls-11" points="57.56 221.34 57.56 221.34 59.06 336.84 36.61 369.48 38.06 251.84 59.56 221.34"/>
    <line class="cls-9" x1="184.06" y1="221.84" x2="59.06" y2="221.84"/>
    <line class="cls-9" x1="161.06" y1="251.84" x2="184.06" y2="221.84"/>
    <line class="cls-9" x1="165.06" y1="371.84" x2="185.06" y2="337.84"/>
    <line class="cls-9" x1="184.06" y1="221.84" x2="184.06" y2="337.84"/>
    <line class="cls-10" x1="59.06" y1="221.84" x2="59.06" y2="336.84"/>
    <line class="cls-9" x1="37.82" y1="251.29" x2="60.82" y2="221.29"/>
    <line class="cls-10" x1="184.06" y1="336.84" x2="57.06" y2="336.84"/>
    <polyline class="cls-10" points="59.06 336.84 39.06 367.84 59.06 336.84"/>
    <polygon class="cls-12" points="59.06 221.84 39.15 251.4 162.69 252.16 184.32 220.8 59.06 221.84"/>
    <polyline class="cls-11" points="37.69 369.16 59.06 336.84 184.06 337.84 164.06 368.84"/>
    <polygon class="cls-12" points="162.69 252.16 183.28 222.77 182.22 340.35 162.07 369.37 162.69 252.16"/>
    <circle class="cls-6" cx="58.81" cy="220.59" r="7.75"/>
    <text class="cls-4" transform="translate(56.35 224.14)"><tspan x="0" y="0">E</tspan></text>
    <circle class="cls-6" cx="183.69" cy="337.16" r="7.75"/>
    <text class="cls-1" transform="translate(180.76 340.35)"><tspan x="0" y="0">H</tspan></text>
    <circle class="cls-6" cx="57.69" cy="337.16" r="7.75"/>
    <text class="cls-4" transform="translate(55.26 340.71)"><tspan x="0" y="0">F</tspan></text>
    <circle class="cls-6" cx="182.69" cy="220.16" r="7.75"/>
    <text class="cls-1" transform="translate(179.78 223.35)"><tspan x="0" y="0">G</tspan></text>
    <rect class="cls-12" x="39.56" y="253.34" width="124" height="115"/>
    <rect class="cls-9" x="38.06" y="251.84" width="126" height="117"/>
    <circle class="cls-6" cx="38.81" cy="252.59" r="7.75"/>
    <text class="cls-4" transform="translate(35.75 256.14)"><tspan x="0" y="0">A</tspan></text>
    <circle class="cls-6" cx="163.69" cy="369.16" r="7.75"/>
    <text class="cls-4" transform="translate(160.79 372.71)"><tspan x="0" y="0">C</tspan></text>
    <circle class="cls-6" cx="37.69" cy="369.16" r="7.75"/>
    <text class="cls-4" transform="translate(34.98 372.71)"><tspan x="0" y="0">B</tspan></text>
    <circle class="cls-6" cx="162.69" cy="252.16" r="7.75"/>
    <text class="cls-1" transform="translate(159.69 255.35)"><tspan x="0" y="0">D</tspan></text>
  </g>
  <g>
    <path class="cls-2" d="M22.91,253.75c-.02-10.58,8.78-19.27,19.44-19.38,9.43-.1,19.39,7.29,19.53,19.69.11,10.58-8.8,19.35-19.49,19.36-10.78.01-19.45-8.75-19.47-19.67ZM34.34,269.44c5.9,3.4,15.42,3.01,21.57-4.32,5.48-6.54,4.57-15.01,2.15-18.92,4.21,13.19-8.25,27.6-23.73,23.25Z"/>
    <polyline class="cls-11" points="31.47 251.08 42.5 251.08 41.65 245.41 59.59 244.72 53.63 237.95 44.56 234.48 35.69 234.48 29.14 239.47 22.91 245.27 21.35 258.84 31.92 271.61 31.92 255.14"/>
    <line class="cls-7" x1="32.67" y1="252.15" x2="61.86" y2="252.15"/>
    <line class="cls-7" x1="31.17" y1="252.89" x2="31.57" y2="272.16"/>
    <line class="cls-7" x1="41.65" y1="245.41" x2="42.4" y2="275.35"/>
    <line class="cls-7" x1="45.39" y1="245.41" x2="61.86" y2="245.41"/>
    <line class="cls-7" x1="31.68" y1="252.08" x2="49.22" y2="234.55"/>
    <line class="cls-7" x1="43.2" y1="245.51" x2="52.14" y2="236.01"/>
    <circle class="cls-6" cx="42.5" cy="245.27" r="5.8"/>
    <text class="cls-3" transform="translate(41.6 247.93)"><tspan x="0" y="0">I</tspan></text>
    <circle class="cls-6" cx="31.79" cy="251.58" r="5.8"/>
    <text class="cls-3" transform="translate(29.5 254.24)"><tspan x="0" y="0">A</tspan></text>
    <path d="M58.08,276.77c-.22.07-.5.19-.79.24-.62.12-1.04-.18-.93-.8.11-.62.42-1.21.65-1.82.04-.1.11-.19.17-.28.9-1.42.85-1.64-.61-2.65-11.21,9.41-26.45,4.62-32.82-4.77-6.38-9.41-4.85-22.08,3.82-29.79,8.33-7.41,21.12-7.4,29.56-.08,8.54,7.39,11.19,21.6,2.22,31.88.44.4.86.84,1.34,1.2.14.1.48.06.65-.03.7-.39,1.36-.85,2.08-1.22.41-.22.92-.43,1.34-.02.44.42.13.89-.02,1.33-.04.12-.1.24-.15.35,2.44,1.28,4.22,3.34,6.28,5.05,2.08,1.72,4.09,3.53,6.13,5.3,1.58,1.37,3.13,2.78,4.75,4.09.91.74,1.24,1.61,1.02,2.7-.83,4.11-3.99,6.97-7.73,7.5-.84.12-1.55-.15-2.15-.83-4.54-5.23-9.1-10.45-13.64-15.68-.43-.5-.75-1.1-1.16-1.69ZM22.91,253.75c.02,10.92,8.7,19.68,19.47,19.67,10.69-.01,19.61-8.78,19.49-19.36-.13-12.4-10.1-19.79-19.53-19.69-10.66.11-19.46,8.81-19.44,19.38ZM60.21,276.48c1.33,1.56,2.63,3.08,3.93,4.61,3.39,3.98,6.78,7.96,10.17,11.94.15.17.46.42.59.37.84-.32,1.64-.72,2.58-1.14-.31-.33-.47-.5-.63-.67-5.11-5.06-10.22-10.11-15.33-15.17-.59-.59-.61-.59-1.3.06ZM59.17,273.74c-.57.41-1.11.79-1.65,1.17.65.74,1.07.62,2.07-.55-.12-.18-.25-.38-.42-.62Z"/>
    <path d="M34.34,269.44c15.47,4.35,27.94-10.05,23.73-23.25,2.42,3.91,3.33,12.39-2.15,18.92-6.15,7.33-15.68,7.73-21.57,4.32Z"/>
  </g>
  <g>
    <g>
      <line class="cls-8" x1="206" y1="209.5" x2="313.66" y2="209.5"/>
      <polygon class="cls-13" points="309.52 223.63 334 209.5 309.52 195.37 309.52 223.63"/>
    </g>
    <text class="cls-5" transform="translate(239.96 206.96)"><tspan x="0" y="0">Keep first</tspan></text>
  </g>
</svg>