<?xml version="1.0" encoding="UTF-8"?>
<svg id="Solid" xmlns="http://www.w3.org/2000/svg" viewBox="0 0 637 216.23">
  <defs>
    <style>
      .cls-1, .cls-2, .cls-3, .cls-4, .cls-5 {
        font-family: MyriadPro-Regular, 'Myriad Pro';
      }

      .cls-1, .cls-4, .cls-6 {
        fill: #fff;
      }

      .cls-1, .cls-5 {
        font-size: 9px;
      }

      .cls-7 {
        letter-spacing: 0em;
      }

      .cls-8 {
        letter-spacing: 0em;
      }

      .cls-9, .cls-5 {
        fill: #231f20;
      }

      .cls-10 {
        fill: #6dbae7;
        opacity: .31;
      }

      .cls-11 {
        fill: #437898;
        opacity: .51;
      }

      .cls-12 {
        letter-spacing: 0em;
      }

      .cls-13 {
        stroke: #9b9a9a;
      }

      .cls-13, .cls-14, .cls-15, .cls-16 {
        fill: none;
        stroke-miterlimit: 10;
        stroke-width: 2.83px;
      }

      .cls-17 {
        fill: #9b9a9a;
      }

      .cls-2 {
        fill: #39b54a;
      }

      .cls-2, .cls-3 {
        font-size: 72px;
      }

      .cls-3 {
        fill: #c92027;
      }

      .cls-14, .cls-15, .cls-16 {
        stroke: #437898;
      }

      .cls-18 {
        letter-spacing: -.01em;
      }

      .cls-4 {
        font-size: 10px;
      }

      .cls-19 {
        letter-spacing: .02em;
      }

      .cls-15 {
        stroke-dasharray: 5.6;
      }

      .cls-16 {
        stroke-dasharray: 5.67;
      }

      .cls-6 {
        opacity: .71;
      }

      .cls-20 {
        letter-spacing: 0em;
      }

      .cls-21 {
        letter-spacing: 0em;
      }

      .cls-22 {
        letter-spacing: 0em;
      }

      .cls-23 {
        letter-spacing: 0em;
      }

      .cls-24 {
        letter-spacing: 0em;
      }
    </style>
  </defs>
  <g>
    <g>
      <line class="cls-13" x1="333" y1="73.5" x2="440.66" y2="73.5"/>
      <polygon class="cls-17" points="436.52 87.63 461 73.5 436.52 59.37 436.52 87.63"/>
    </g>
    <text class="cls-5" transform="translate(352.82 70.96)"><tspan x="0" y="0">Split i</tspan><tspan class="cls-8" x="20.78" y="0">n</tspan><tspan class="cls-22" x="25.74" y="0">t</tspan><tspan x="28.66" y="0">o 2 solids</tspan></text>
  </g>
  <g>
    <g>
      <line class="cls-13" x1="333" y1="147.5" x2="440.66" y2="147.5"/>
      <polygon class="cls-17" points="436.52 161.63 461 147.5 436.52 133.37 436.52 161.63"/>
    </g>
    <text class="cls-5" transform="translate(352.01 144.96)"><tspan x="0" y="0">split i</tspan><tspan class="cls-8" x="19.91" y="0">n</tspan><tspan class="cls-22" x="24.87" y="0">t</tspan><tspan x="27.79" y="0">o solids in </tspan><tspan class="cls-20" x="12.51" y="10.8">M</tspan><tspan x="19.77" y="10.8">ulti-solid</tspan></text>
  </g>
  <g>
    <rect class="cls-10" x="56.75" y="32.08" width="124" height="115"/>
    <polyline class="cls-10" points="54.75 32.08 54.75 32.08 56.25 147.58 33.8 180.23 35.25 62.58 56.75 32.08"/>
    <line class="cls-14" x1="181.25" y1="32.58" x2="56.25" y2="32.58"/>
    <line class="cls-14" x1="158.25" y1="62.58" x2="181.25" y2="32.58"/>
    <line class="cls-14" x1="162.25" y1="182.58" x2="182.25" y2="148.58"/>
    <line class="cls-14" x1="181.25" y1="32.58" x2="181.25" y2="148.58"/>
    <line class="cls-16" x1="56.25" y1="32.58" x2="56.25" y2="147.58"/>
    <line class="cls-14" x1="35.01" y1="62.03" x2="58.01" y2="32.03"/>
    <line class="cls-16" x1="181.25" y1="147.58" x2="54.25" y2="147.58"/>
    <polyline class="cls-16" points="56.25 147.58 36.25 178.58 56.25 147.58"/>
    <polygon class="cls-10" points="56.25 32.58 36.34 62.15 159.88 62.9 181.51 31.54 56.25 32.58"/>
    <polyline class="cls-10" points="34.88 179.9 56.25 147.58 181.25 148.58 161.25 179.58"/>
    <g>
      <line class="cls-16" x1="172.5" y1="161.5" x2="133.5" y2="125.5"/>
      <polyline class="cls-6" points="107.82 176.87 172.5 162.5 161.5 119.5 133.5 125.5"/>
      <line class="cls-16" x1="132.5" y1="127.5" x2="107.5" y2="177.5"/>
      <line class="cls-15" x1="108.11" y1="178.58" x2="173.13" y2="162.34"/>
      <line class="cls-15" x1="133.5" y1="125.5" x2="160.75" y2="118.87"/>
      <circle class="cls-9" cx="133.03" cy="125.87" r="3.72"/>
      <text/>
      <polyline class="cls-14" points="107.82 176.87 161.5 119.5 172.5 161.5"/>
    </g>
    <polygon class="cls-10" points="159.88 62.9 180.47 33.51 179.42 151.1 159.26 180.12 159.88 62.9"/>
    <circle class="cls-9" cx="56" cy="31.33" r="7.75"/>
    <text class="cls-4" transform="translate(53.54 34.88)"><tspan x="0" y="0">E</tspan></text>
    <circle class="cls-9" cx="180.88" cy="147.9" r="7.75"/>
    <text class="cls-1" transform="translate(177.95 151.1)"><tspan x="0" y="0">H</tspan></text>
    <circle class="cls-9" cx="54.88" cy="147.9" r="7.75"/>
    <text class="cls-4" transform="translate(52.45 151.45)"><tspan x="0" y="0">F</tspan></text>
    <circle class="cls-9" cx="179.88" cy="30.9" r="7.75"/>
    <text class="cls-1" transform="translate(176.97 34.1)"><tspan x="0" y="0">G</tspan></text>
    <rect class="cls-10" x="36.75" y="64.08" width="124" height="115"/>
    <rect class="cls-14" x="35.25" y="62.58" width="126" height="117"/>
    <circle class="cls-9" cx="172.03" cy="161.87" r="3.72"/>
    <text/>
    <circle class="cls-9" cx="108.03" cy="176.87" r="3.72"/>
    <text/>
    <circle class="cls-9" cx="161.03" cy="118.87" r="3.72"/>
    <text/>
    <circle class="cls-9" cx="36" cy="63.33" r="7.75"/>
    <text class="cls-4" transform="translate(32.94 66.88)"><tspan x="0" y="0">A</tspan></text>
    <circle class="cls-9" cx="160.88" cy="179.9" r="7.75"/>
    <text class="cls-4" transform="translate(157.98 183.45)"><tspan x="0" y="0">C</tspan></text>
    <circle class="cls-9" cx="34.88" cy="179.9" r="7.75"/>
    <text class="cls-4" transform="translate(32.17 183.45)"><tspan x="0" y="0">B</tspan></text>
    <circle class="cls-9" cx="159.88" cy="62.9" r="7.75"/>
    <text class="cls-1" transform="translate(156.88 66.1)"><tspan x="0" y="0">D</tspan></text>
  </g>
  <g>
    <rect class="cls-10" x="496.83" y="32.81" width="124" height="115"/>
    <polyline class="cls-10" points="494.83 32.81 494.83 32.81 496.33 148.31 473.89 180.95 475.33 63.31 496.83 32.81"/>
    <line class="cls-14" x1="621.33" y1="33.31" x2="496.33" y2="33.31"/>
    <line class="cls-14" x1="598.33" y1="63.31" x2="621.33" y2="33.31"/>
    <line class="cls-14" x1="602.33" y1="183.31" x2="622.33" y2="149.31"/>
    <line class="cls-14" x1="621.33" y1="33.31" x2="621.33" y2="149.31"/>
    <line class="cls-16" x1="496.33" y1="33.31" x2="496.33" y2="148.31"/>
    <line class="cls-14" x1="475.1" y1="62.76" x2="498.1" y2="32.76"/>
    <line class="cls-16" x1="621.33" y1="148.31" x2="494.33" y2="148.31"/>
    <polyline class="cls-16" points="496.33 148.31 476.33 179.31 496.33 148.31"/>
    <polygon class="cls-10" points="496.33 33.31 476.42 62.87 599.97 63.63 621.6 32.27 496.33 33.31"/>
    <polyline class="cls-10" points="474.97 180.63 496.33 148.31 621.33 149.31 601.33 180.31"/>
    <g>
      <line class="cls-16" x1="612.59" y1="162.22" x2="573.59" y2="126.22"/>
      <polyline class="cls-6" points="547.9 177.59 612.59 163.22 601.59 120.22 573.59 126.22"/>
      <line class="cls-16" x1="572.59" y1="128.22" x2="547.59" y2="178.22"/>
      <line class="cls-15" x1="548.2" y1="179.31" x2="613.22" y2="163.06"/>
      <line class="cls-15" x1="573.59" y1="126.22" x2="600.83" y2="119.59"/>
      <circle class="cls-9" cx="573.12" cy="126.59" r="3.72"/>
      <text/>
      <polyline class="cls-14" points="547.9 177.59 601.59 120.22 612.59 162.22"/>
    </g>
    <polygon class="cls-10" points="599.97 63.63 620.55 34.24 619.5 151.82 599.35 180.84 599.97 63.63"/>
    <circle class="cls-9" cx="496.08" cy="32.06" r="7.75"/>
    <text class="cls-4" transform="translate(493.62 35.61)"><tspan x="0" y="0">E</tspan></text>
    <circle class="cls-9" cx="620.97" cy="148.63" r="7.75"/>
    <text class="cls-1" transform="translate(618.03 151.82)"><tspan x="0" y="0">H</tspan></text>
    <circle class="cls-9" cx="494.97" cy="148.63" r="7.75"/>
    <text class="cls-4" transform="translate(492.53 152.18)"><tspan x="0" y="0">F</tspan></text>
    <circle class="cls-9" cx="619.97" cy="31.63" r="7.75"/>
    <text class="cls-1" transform="translate(617.06 34.82)"><tspan x="0" y="0">G</tspan></text>
    <rect class="cls-10" x="476.83" y="64.81" width="124" height="115"/>
    <rect class="cls-14" x="475.33" y="63.31" width="126" height="117"/>
    <polygon class="cls-11" points="600.5 120.5 547.59 178.22 601.33 180.31 614.52 162.59 600.5 120.5"/>
    <circle class="cls-9" cx="612.12" cy="162.59" r="3.72"/>
    <text/>
    <circle class="cls-9" cx="548.12" cy="177.59" r="3.72"/>
    <text/>
    <circle class="cls-9" cx="601.12" cy="119.59" r="3.72"/>
    <text/>
    <circle class="cls-9" cx="476.08" cy="64.06" r="7.75"/>
    <text class="cls-4" transform="translate(473.02 67.61)"><tspan x="0" y="0">A</tspan></text>
    <circle class="cls-9" cx="600.97" cy="180.63" r="7.75"/>
    <text class="cls-4" transform="translate(598.07 184.18)"><tspan x="0" y="0">C</tspan></text>
    <circle class="cls-9" cx="474.97" cy="180.63" r="7.75"/>
    <text class="cls-4" transform="translate(472.26 184.18)"><tspan x="0" y="0">B</tspan></text>
    <circle class="cls-9" cx="599.97" cy="63.63" r="7.75"/>
    <text class="cls-1" transform="translate(596.97 66.82)"><tspan x="0" y="0">D</tspan></text>
  </g>
  <g>
    <g>
      <line class="cls-17" x1="192.51" y1="106.29" x2="314.21" y2="105.43"/>
      <g>
        <line class="cls-13" x1="192.51" y1="106.29" x2="293.86" y2="105.57"/>
        <polygon class="cls-17" points="289.83 119.74 314.21 105.43 289.63 91.47 289.83 119.74"/>
      </g>
    </g>
    <text class="cls-5" transform="translate(201.61 104.35) rotate(-.41) scale(.95 1) skewX(-.04)"><tspan class="cls-24" x="0" y="0">U</tspan><tspan x="5.77" y="0">ser </tspan><tspan class="cls-21" x="18.69" y="0">r</tspan><tspan x="21.55" y="0">equi</tspan><tspan class="cls-18" x="38.19" y="0">r</tspan><tspan x="41.04" y="0">eme</tspan><tspan class="cls-7" x="57.56" y="0">n</tspan><tspan x="62.52" y="0">t </tspan><tspan class="cls-12" x="67.41" y="0">t</tspan><tspan x="70.33" y="0">o be </tspan><tspan class="cls-7" x="21.81" y="10.8">wa</tspan><tspan class="cls-24" x="32.7" y="10.8">t</tspan><tspan class="cls-23" x="35.63" y="10.8">e</tspan><tspan class="cls-19" x="40.13" y="10.8">r</tspan><tspan x="43.29" y="10.8">tig</tspan><tspan class="cls-7" x="53.41" y="10.8">h</tspan><tspan x="58.37" y="10.8">t?</tspan></text>
  </g>
  <text class="cls-3" transform="translate(301.77 162.97)"><tspan x="0" y="0">x</tspan></text>
  <text class="cls-2" transform="translate(301.29 93.03)"><tspan x="0" y="0">v</tspan></text>
</svg>